<svg id="Слой_1" xmlns="http://www.w3.org/2000/svg" viewBox="0 0 59 59"><style>.st0{fill:#FFFFFF;}</style><path class="st0" d="M43 59c-.3 0-.5-.1-.7-.2-.2-.1-.3-.2-.4-.4l-9.9-18c0-.3-.3-.4-.6-.4h-2.9c-.3 0-.7 0-1-.1h-.1c-.3 0-.5.2-.7.4l-9.7 18c-.1.2-.2.3-.4.4-.1.2-.3.3-.6.3h-.1c-.2 0-.4-.1-.6-.2-.2-.1-.3-.3-.3-.5l-3.2-9.1c-.1-.3-.4-.5-.7-.5h-.2l-9.5 2.1c-.2 0-.2.1-.3.1-.1 0-.2 0-.3-.1-.2-.1-.4-.2-.5-.4 0 0 0-.1-.1-.1-.1-.1-.2-.3-.2-.5s0-.4.1-.6L11.2 29c.1-.2.1-.5 0-.7-.6-1.2-1-2.6-1.3-4-.3-1.3-.4-2.8-.4-4.3 0-2.8.5-5.4 1.6-7.8 1-2.4 2.5-4.6 4.3-6.4 1.8-1.8 3.9-3.3 6.4-4.3 2.4-1 5-1.6 7.8-1.6 2.7 0 5.4.5 7.8 1.6 2.4 1 4.5 2.5 6.3 4.3 1.8 1.8 3.2 4 4.3 6.4 1.1 2.4 1.6 5 1.6 7.8 0 1.4-.2 2.8-.5 4.2-.3 1.4-.7 2.7-1.3 3.9-.1.2-.1.5 0 .7l11 20.4c.1.2.2.4.1.6 0 .2-.1.5-.3.7-.1.2-.3.3-.5.4-.1 0-.2.1-.3.1h-.3l-9.6-2.1h-.2c-.3 0-.6.2-.7.5l-3.2 9c-.1.2-.2.4-.4.5 0 0-.2.1-.4.1zm3.2-27.5c-.2 0-.5.1-.6.3-1.3 1.7-2.8 3.3-4.6 4.6-1.8 1.3-3.8 2.3-5.9 2.9-.2.1-.4.2-.5.4-.1.2-.1.4 0 .6l7.2 13.2c.1.2.4.4.7.4h.1c.3 0 .6-.2.7-.5l2.4-6.7c.1-.2.3-.4.6-.6.2-.1.3-.1.5-.1h.3l7 1.6h.2c.2 0 .5-.1.6-.3.2-.2.2-.6.1-.8l-8-14.7c-.2-.1-.5-.3-.8-.3zM12.3 46.1c.2 0 .3 0 .5.1.3.2.5.4.6.7l2.3 6.6c.1.3.4.5.7.5h.1c.3 0 .5-.2.7-.4l7.1-13.2c.1-.2.1-.4 0-.6-.1-.2-.3-.4-.5-.4-2.1-.6-4-1.6-5.8-2.8-1.8-1.2-3.3-2.7-4.5-4.4-.1-.2-.4-.3-.6-.3-.3 0-.5.2-.6.4l-8 14.6c-.3 0-.3.3-.1.5.1.2.4.3.6.3H5l7-1.6h.3zM29.5 2.3c-2.5 0-4.8.5-6.9 1.4-2.1.9-4 2.2-5.6 3.8-1.6 1.6-2.9 3.5-3.8 5.6-.9 2.2-1.4 4.5-1.4 6.9 0 2.4.5 4.7 1.4 6.9.9 2.1 2.2 4 3.8 5.6 1.6 1.6 3.5 2.9 5.6 3.8 2.1.9 4.4 1.4 6.9 1.4 2.4 0 4.7-.5 6.9-1.4 2.1-.9 4-2.2 5.6-3.8 1.6-1.6 2.9-3.5 3.8-5.6.9-2.2 1.4-4.5 1.4-6.9 0-2.4-.5-4.7-1.4-6.9-.9-2.1-2.2-4-3.8-5.6-1.6-1.6-3.5-2.9-5.6-3.8-2.2-1-4.5-1.4-6.9-1.4z"/></svg>