<svg id="Слой_1" xmlns="http://www.w3.org/2000/svg" xmlns:xlink="http://www.w3.org/1999/xlink" viewBox="0 0 14.3 18"><style>.st0{clip-path:url(#SVGID_2_);} .st1{clip-path:url(#SVGID_4_);fill:#B2B2B2;}</style><defs><path id="SVGID_1_" d="M13.2 6c0 2.4-.3 4.2-.9 5.6-.6 1.4-1.3 2.4-2.1 3.2-.8.7-1.5 1.2-2.1 1.4l-.9.3-.9-.3c-.6-.2-1.3-.7-2.1-1.4S2.8 13 2.1 11.6c-.7-1.3-1-3.2-1-5.6V3.3h.5c.3 0 .7 0 1.1-.1.4 0 .9-.1 1.4-.2.8-.2 1.4-.6 2.1-1.1.6-.5.9-.8.9-.8s.3.3 1 .8c.6.6 1.3.9 2.1 1.1.5.1.9.2 1.4.2.4 0 .8.1 1.1.1h.5V6zm.7-3.5c-.1-.1-.2-.2-.4-.2-.1-.1-.3-.1-.4-.1h-1.4c-.4 0-.8-.1-1.2-.2-.6-.2-1.1-.5-1.7-.9C8.3.6 7.9.3 7.7.2 7.6.1 7.5.1 7.4 0h-.6c-.1 0-.2.1-.3.1 0 0-.3.3-.9.8-.5.6-1.1.9-1.8 1.1-.4.1-.8.1-1.2.2H1.2c-.1 0-.3 0-.4.1-.2 0-.4.1-.5.2-.1.1-.2.2-.2.4s-.1.2-.1.4V6c0 2.6.3 4.6 1 6.1s1.5 2.7 2.3 3.5S5 17 5.7 17.2c.7.3 1.1.4 1.2.4h.4c.1 0 .5-.1 1.2-.4.7-.3 1.5-.8 2.4-1.6.9-.8 1.6-2 2.3-3.5.7-1.5 1-3.6 1-6.1V3.3c0-.1 0-.3-.1-.4 0-.2-.1-.3-.2-.4z"/></defs><use xlink:href="#SVGID_1_" overflow="visible" fill-rule="evenodd" clip-rule="evenodd" fill="#B2B2B2"/><clipPath id="SVGID_2_"><use xlink:href="#SVGID_1_" overflow="visible"/></clipPath><g class="st0"><defs><path id="SVGID_3_" d="M-455-559h1900v3314H-455z"/></defs><use xlink:href="#SVGID_3_" overflow="visible" fill="#B2B2B2"/><clipPath id="SVGID_4_"><use xlink:href="#SVGID_3_" overflow="visible"/></clipPath><path class="st1" d="M-5-5h24.3v27.7H-5z"/></g></svg>