<svg id="Слой_1" xmlns="http://www.w3.org/2000/svg" viewBox="0 0 59 59"><style>.st0{fill:#FFFFFF;}</style><path class="st0" d="M35.2 59c-8.5 0-13.6-.2-15.2-.5-1.5-.4-2.8-.9-3.8-1.6-.6-.5-1.7-.9-3.3-1.3-1.5-.3-4.1-.6-8.1-.8-.2 0-.4-.1-.6-.2-.1 0-.2-.1-.3-.2-.1-.1-.4-.8-2-4.1C.6 47.7 0 44.2 0 39.8s.5-7.6 1.3-9.6c1-2.3 1.4-3 1.4-3.3.1-.2.3-.3.4-.4.2-.1.3-.1.6-.1 1.7 0 3.5-.5 5.5-1.6 1.9-1 3.8-2.5 5.8-4.5 1.9-1.9 3.8-4.3 5.6-7.1 1.8-2.8 3.5-6.1 5-9.7.5-1.2 1-2.1 1.4-2.8.2-.2.8-.7 2.9-.7.9 0 1.9.3 2.9.9 1 .6 1.7 1.4 2.3 2.3.5.9.9 2 1.1 3.4.2 1.4.2 3 .2 4.6-.1 1.6-.2 3.2-.5 4.7s-.5 2.9-.8 4c-.1.2 0 .5.1.6.1.2.4.3.6.3H50c2.1 0 3.8.6 5.1 1.7 1.3 1.1 1.9 2.6 2 4.4 0 .6 0 1.3-.1 2s-.2 1.2-.4 1.6c-.1.3-.1.6.2.8.5.5 1 1.1 1.5 1.8s.7 1.4.7 2.2c0 1.1-.2 2.1-.8 2.9-.6.9-1.2 1.7-1.7 2.2-.2.2-.3.5-.2.8.1.4.3.8.5 1.3.2.4.2.8.2 1.3-.1 1.3-.5 2.3-1.2 3.1-.8.9-1.6 1.6-2.2 2.1-.2.2-.4.5-.3.8.1.3.1.8.1 1.5 0 .6 0 1.2-.2 1.7-.2 1-.7 1.9-1.6 2.6-.9.8-2.1 1.4-3.6 1.9s-3.4.9-5.5 1.1c-2.2.3-4.6.4-7.3.4zM29.9 2.3c-.3 0-.6.1-1 .4-.4.3-.8.8-1.2 1.8-1.6 3.7-3.3 7.1-5.2 10-1.9 2.9-3.8 5.4-5.9 7.4-2 2-4 3.6-6.1 4.8-2 1.1-3.9 1.8-5.7 2-.3 0-.5.2-.6.4-.4.8-.8 2-1.3 3.7-.5 1.7-.7 4.1-.7 7 0 3 .4 5.6 1.1 7.8.7 2.2 1.3 3.6 1.8 4.4.1.2.3.3.6.3 3.3.3 6 .6 7.9 1 1.8.4 3.2.9 4 1.5.8.7 2 1.1 3.5 1.4 1.4.2 6 .4 14.1.4 1.2 0 2.6 0 4.3-.1 1.7-.1 3.3-.2 4.9-.5 1.6-.2 3-.6 4.2-1.1 1.4-.6 2.2-1.4 2.4-2.5.2-.9-.2-2-1.2-3.2-.1-.3-.1-.5 0-.8.1-.3.3-.5.5-.6.2-.1.7-.3 2-1 1.5-.8 2.3-1.8 2.4-3.1 0-.9-.1-1.6-.6-2.1-.2-.2-.3-.4-.4-.4 0 0 0-.1-.1-.1-.2-.2-.2-.5-.1-.8.1-.3.2-.6.5-.8 1.8-1.5 2.7-2.8 2.7-4.1-.1-1.1-.5-2-1.4-2.6-.7-.5-1-.7-1.2-.8l-.3-.3c-.1-.1-.2-.3-.2-.5v-.4c0-.2.1-.4.2-.5.7-1.4 1.1-2.5 1.1-3.4-.1-2.4-1.3-3.2-2.4-3.5-1.6-.4-2.2-.4-2.4-.4H39.7c-1.8 0-4.1 0-6.7.1-.2 0-.4 0-.6-.1-.2-.1-.3-.2-.4-.4 0 0 0-.1-.1-.1-.1-.1-.1-.2-.1-.4s0-.4.1-.6c.5-1.4.9-2.9 1.2-4.5.3-1.6.6-3.3.7-4.8.1-1.6.2-3.1.1-4.4-.1-1.4-.4-2.5-.9-3.4-.3-.4-.5-.8-.8-1.2-.3-.6-1.1-.9-2.3-.9z"/></svg>