<svg id="Слой_1" xmlns="http://www.w3.org/2000/svg" viewBox="0 0 32.4 29.1"><style>.st0{fill:#FFFFFF;}</style><path class="st0" d="M16.2 29.1c-.4 0-.7-.1-1-.2-.3-.1-.6-.3-.9-.6-2.2-2.4-4-4.4-5.4-5.9-1.4-1.5-2.7-3-3.9-4.3-1.2-1.4-2-2.2-2.3-2.5-.9-.9-1.6-1.9-2.1-3.1C.2 11.3 0 10.2 0 9c0-1.2.2-2.4.7-3.5.5-1.1 1.1-2.2 2-3.1C3.6 1.6 4.5 1 5.6.6 6.6.2 7.7 0 8.9 0c1.2 0 2.4.4 3.6 1.2 1.2.8 2.4 1.7 3.4 2.7.1.1.2.1.3.1.1 0 .2 0 .3-.1 1-1 2.1-1.9 3.4-2.7C21.1.4 22.3 0 23.4 0c1.2 0 2.3.2 3.4.7 1 .4 2 1.1 2.9 2 .9.9 1.6 1.9 2 3.1.5 1.1.7 2.3.7 3.5 0 1.2-.2 2.3-.7 3.5-.5 1.1-1.1 2.2-2 3.1 0 0-1.6 1.7-1.9 2-1.2 1.3-2.5 2.7-4 4.3-1.4 1.6-3.3 3.6-5.7 6.2-.3.3-.5.4-.9.6-.3 0-.7.1-1 .1zM8.9 1.2c-1 0-2 .2-2.9.5-.8.3-1.6.9-2.4 1.6-.8.8-1.3 1.7-1.7 2.6-.4 1-.6 2-.6 3.1s.2 2.1.6 3.1c.4 1 1 1.8 1.7 2.6.3.3 1 1 2.1 2.2 1.1 1.2 2.4 2.6 3.7 4 1.3 1.4 2.5 2.8 3.7 4.1 1.2 1.3 1.9 2.1 2.2 2.5.2.2.4.3.6.3.2 0 .3.1.4.1.1 0 .2 0 .4-.1.2 0 .4-.1.6-.3 1.3-1.4 2.6-2.9 4-4.3 1.4-1.5 2.6-2.8 3.7-4 1.1-1.2 2-2.2 2.7-3 .8-.9 1-1.1 1.1-1.1h.1c.7-.8 1.3-1.6 1.7-2.6.4-1 .6-2 .6-3.1s-.2-2.1-.6-3.1c-.4-1-1-1.8-1.7-2.6-.8-.8-1.6-1.4-2.5-1.8-.9-.4-1.8-.6-2.9-.6-.8 0-1.7.3-2.8 1-1.1.6-2.1 1.5-3.2 2.6L16.2 6 15 4.8c-1.5-1.5-2.8-2.5-3.8-2.9-.9-.4-1.7-.7-2.3-.7z"/></svg>