<svg id="Слой_1" xmlns="http://www.w3.org/2000/svg" viewBox="0 0 31.8 40"><style>.st0{fill:#FFFFFF;}</style><path class="st0" d="M4.5 39.9c-1.3 0-2.3-.4-3.2-1.3-.9-.9-1.3-2-1.3-3.3V19.9c0-1.3.4-2.3 1.3-3.3.9-.9 1.9-1.3 3.2-1.3h1.3c.3 0 .5-.2.5-.5V9.9c0-1.4.2-2.7.7-3.9.5-1.2 1.1-2.3 1.9-3.2.8-.9 1.8-1.6 3-2.1 1.2-.4 2.5-.7 3.9-.7s2.7.3 3.9.8c1.2.5 2.2 1.2 3 2.1.8.9 1.5 1.9 2 3.1.5 1.2.7 2.5.7 3.9v4.9c0 .3.2.5.5.5h1.3c1.3 0 2.3.4 3.2 1.3.9.9 1.3 2 1.3 3.3v15.3c0 1.3-.4 2.3-1.3 3.3-.9.9-1.9 1.3-3.2 1.3H4.5zm0-23c-.8 0-1.5.3-2.1.9-.6.6-.9 1.3-.9 2.2v15.3c0 .8.3 1.6.9 2.2.6.5 1.3.8 2.1.8h22.7c.8 0 1.5-.3 2.1-.9.6-.6.9-1.3.9-2.2V19.9c0-.8-.3-1.6-.9-2.2-.6-.6-1.3-.9-2.1-.9H4.5zM15.8 1.5c-2.4 0-4.4.8-5.9 2.5-1.4 1.7-2.1 3.6-2.1 5.9v4.9c0 .3.2.5.5.5h15.1c.3 0 .5-.2.5-.5V9.9c0-2.3-.8-4.3-2.2-6-1.5-1.5-3.5-2.4-5.9-2.4zm.1 30.7c-.2 0-.4-.1-.5-.2-.2-.2-.2-.3-.2-.5v-4.2c0-.2-.1-.4-.3-.4-.3-.2-.5-.4-.7-.7-.2-.3-.3-.6-.3-1 0-.6.2-1.1.6-1.5.4-.4.9-.6 1.4-.6.6 0 1 .2 1.4.6.4.4.6.9.6 1.5 0 .4-.1.7-.3 1-.2.3-.4.6-.7.7-.2.1-.3.3-.3.4v4.2c0 .2-.1.4-.2.5-.1.1-.3.2-.5.2z"/></svg>