<svg xmlns="http://www.w3.org/2000/svg" width="45" height="32" viewBox="0 0 45 32"><path d="M43.88 3.01C40.87 1.11 36.91 0 32.634 0c-3.802 0-7.446.95-10.455 2.535C19.326.95 15.683 0 11.88 0 7.605 0 3.644 1.11.634 3.01.316 3.327 0 3.644 0 4.12v26.454c0 .475.316.95.79 1.267s.952.16 1.427 0c2.535-1.583 6.02-2.534 9.663-2.534s7.13.95 9.663 2.535c.475.318 1.11.318 1.426 0 2.534-1.583 6.02-2.534 9.662-2.534s7.13.95 9.663 2.535c.158.16.475.16.792.16.158 0 .475 0 .634-.16.476-.316.793-.633.793-1.266V4.12c0-.476-.317-.793-.634-1.11zM2.853 28.198V4.91c2.535-1.425 5.703-2.217 9.03-2.217s6.495.792 9.03 2.218V28.2c-2.693-1.267-5.703-1.9-9.03-1.9-3.327.157-6.495.79-9.03 1.9zm38.81 0c-2.692-1.267-5.702-1.9-9.03-1.9s-6.336.633-9.03 1.9V4.91c2.536-1.425 5.704-2.217 9.03-2.217s6.496.792 9.03 2.218V28.2z"/><path d="M16.95 13.15c-3.326-.793-6.97-.793-10.296 0-.792.157-1.267.95-1.11 1.583.16.792.95 1.267 1.585 1.11 3.01-.635 6.177-.635 9.187 0h.317c.634 0 1.267-.476 1.426-1.11.158-.792-.317-1.426-1.11-1.584zM7.287 10.297c2.85-.792 6.178-.792 9.03 0h.317c.634 0 1.267-.475 1.426-1.11.158-.79-.317-1.425-1.11-1.583-3.326-.792-6.97-.792-10.296 0-.792.158-1.267.95-1.11 1.584.16.792.95 1.267 1.744 1.11zM16.95 18.693c-3.326-.792-6.97-.792-10.296 0-.792.158-1.267.95-1.11 1.584.16.792.95 1.267 1.585 1.11 3.01-.635 6.177-.635 9.187 0h.317c.634 0 1.267-.476 1.426-1.11.158-.792-.317-1.426-1.11-1.584zM37.86 13.15c-3.326-.793-6.97-.793-10.296 0-.792.157-1.267.95-1.11 1.583.16.792.952 1.267 1.585 1.11 3.01-.635 6.177-.635 9.187 0h.317c.634 0 1.267-.476 1.426-1.11 0-.792-.475-1.426-1.11-1.584zM27.406 7.446c-.792.158-1.267.95-1.11 1.584.16.792.952 1.267 1.585 1.11 3.01-.635 6.18-.635 9.19 0h.316c.634 0 1.267-.476 1.426-1.11.158-.792-.317-1.426-1.11-1.584-3.167-.634-6.97-.634-10.296 0zM37.86 18.693c-3.326-.792-6.97-.792-10.296 0-.792.158-1.267.95-1.11 1.584.16.792.952 1.267 1.585 1.11 3.01-.635 6.177-.635 9.187 0h.317c.634 0 1.267-.476 1.426-1.11 0-.792-.475-1.426-1.11-1.584z"/></svg>