<svg xmlns="http://www.w3.org/2000/svg" width="32" height="32" viewBox="0 0 32 32"><path d="M19.077 15.508L16.985 17.6v-5.538c0-.492-.492-.985-.985-.985s-.985.492-.985.985V17.6l-2.092-2.092c-.37-.37-.985-.37-1.354 0s-.37.985 0 1.354l3.814 3.815c.37.37.862.37 1.23.123.124 0 .124-.123.124-.123l3.815-3.815c.37-.37.37-.985 0-1.354-.492-.37-1.108-.37-1.477 0zM16 0C7.138 0 0 7.138 0 16s7.138 16 16 16 16-7.138 16-16S24.862 0 16 0zm0 30.03C8.246 30.03 1.97 23.755 1.97 16S8.245 1.97 16 1.97 30.03 8.245 30.03 16 23.755 30.03 16 30.03z"/></svg>