<svg xmlns="http://www.w3.org/2000/svg" width="45" height="32" viewBox="0 0 45 32"><path d="M40.655 0H4.215C1.934 0 0 1.822 0 4.214v23.573C0 30.065 1.936 32 4.214 32h36.44c2.28 0 4.215-1.82 4.215-4.213V4.214C44.87 1.824 42.932 0 40.654 0zm1.366 27.786c0 .797-.682 1.367-1.366 1.367H4.214c-.798 0-1.368-.57-1.368-1.367V13.893h39.288v13.893zm0-20.84H2.848V4.215c0-.797.57-1.48 1.367-1.48h36.44c.798 0 1.368.57 1.368 1.367V6.95zM7.06 26.42H24.6c.797 0 1.367-.57 1.367-1.367s-.683-1.367-1.367-1.367H7.06c-.796 0-1.366.57-1.366 1.367-.114.683.57 1.367 1.367 1.367zm23.118 0h7.744c.797 0 1.367-.57 1.367-1.367s-.684-1.367-1.368-1.367h-7.744c-.797 0-1.367.57-1.367 1.367-.113.683.57 1.367 1.368 1.367z"/></svg>