<svg xmlns="http://www.w3.org/2000/svg" width="33" height="32" viewBox="0 0 33 32"><path d="M13.86 9.127c-.34-.225-.677-.225-1.015 0s-.563.563-.563.9v11.945c0 .338.225.676.563.9.113.114.338.114.45.114.226 0 .452-.113.564-.113l9.238-5.972c.338-.224.45-.45.45-.788s-.224-.676-.45-.79l-9.24-6.196zm.45 10.93V11.83L20.62 16l-6.31 4.056zM16.338 0C7.324 0 0 7.21 0 16s7.324 16 16.338 16c9.014 0 16.338-7.21 16.338-16S25.352 0 16.338 0zm0 29.972c-7.887 0-14.31-6.31-14.31-13.972S8.45 2.028 16.338 2.028c7.887 0 14.31 6.31 14.31 13.972s-6.423 13.972-14.31 13.972z"/></svg>