<svg xmlns="http://www.w3.org/2000/svg" width="30" height="32" viewBox="0 0 30 32"><path d="M23.435 22.96c-.357 0-.595 0-.952.118-.952.357-1.903.714-2.736 1.19v-.357c0-.95-.714-1.783-2.022-2.26-.595-.237-1.31-.594-2.14-.95-4.284-1.904-5.95-2.618-6.663-2.618-2.022 0-7.494 1.427-8.09 1.546-.475 0-.832.476-.832.833v5.95c0 .594.476.95.952.95h4.64c2.497 1.428 8.92 4.52 10.705 4.52 1.903 0 9.636-4.282 10.706-5.352.476-.476.476-1.07.238-1.546-.356-.952-2.26-2.022-3.806-2.022zm-7.138 7.018c-1.07 0-7.138-2.617-9.874-4.402-.12-.12-.357-.12-.476-.12H2.02v-4.163c2.023-.476 5.592-1.31 6.9-1.31.596.12 4.046 1.666 5.95 2.5.832.356 1.664.713 2.14.95.714.24.833.477.833.477 0 .238-.476.595-.952.952l-4.044-1.784c-.476-.238-1.07 0-1.31.476s0 1.07.477 1.31l4.52 2.02h.12c.237.12.475.12.713.12.952 0 1.903-.476 3.33-1.07l2.5-1.072h.237c.595 0 1.427.357 1.784.714-1.784 1.31-7.85 4.402-8.922 4.402zm-.95-14.513c2.497 0 4.52-2.022 4.52-4.52s-2.023-4.52-4.52-4.52c-2.5 0-4.52 2.022-4.52 4.52s2.14 4.52 4.52 4.52zm0-7.02c1.426 0 2.497 1.072 2.497 2.5s-1.07 2.497-2.498 2.497c-1.428 0-2.498-1.07-2.498-2.498.12-1.31 1.19-2.498 2.498-2.498zm9.99 2.618c-2.497 0-4.52 2.022-4.52 4.52s2.023 4.52 4.52 4.52c2.5 0 4.52-2.022 4.52-4.52 0-2.617-2.02-4.52-4.52-4.52zm0 6.9c-1.426 0-2.497-1.07-2.497-2.498s1.07-2.498 2.498-2.498c1.427 0 2.498 1.07 2.498 2.498s-1.19 2.498-2.498 2.498zm-.95-8.922c2.498 0 4.52-2.02 4.52-4.52S26.885 0 24.387 0c-2.498 0-4.52 2.023-4.52 4.52s2.022 4.52 4.52 4.52zm0-7.018c1.427 0 2.498 1.07 2.498 2.498s-1.07 2.498-2.498 2.498c-1.427 0-2.498-1.07-2.498-2.498s1.07-2.498 2.497-2.498z"/></svg>