<svg xmlns="http://www.w3.org/2000/svg" width="32" height="32" viewBox="0 0 32 32"><path d="M32.14 16c0-8.765-7.097-16-16-16-8.766 0-16 7.235-16 16s7.234 16 16 16c8.903 0 16-7.235 16-16zm-3.34 5.983h-4.73c.278-1.53.557-3.2.557-5.01h5.426c0 1.81-.417 3.48-1.252 5.01zm-26.574-5.01h5.426c0 1.81.278 3.48.557 5.01H3.617c-.835-1.53-1.252-3.2-1.39-5.01zm1.39-6.956h4.73c-.277 1.53-.556 3.2-.556 5.01H2.225c.14-1.81.557-3.48 1.39-5.01zM17.253 8.07V2.227c1.81.557 3.34 2.783 4.313 5.843h-4.313zm4.73 1.947c.418 1.53.558 3.2.697 5.01h-5.427v-5.01h4.73zm-6.817-7.79v5.842h-4.313c1.113-3.062 2.643-5.288 4.313-5.844zm0 7.79v5.01H9.74c0-1.81.277-3.48.695-5.01h4.73zM9.74 16.974h5.425v5.01h-4.87c-.278-1.53-.557-3.2-.557-5.01zm5.425 7.096v5.843c-1.81-.557-3.34-2.783-4.313-5.843h4.313zm2.087 5.704V23.93h4.313c-1.113 3.062-2.643 5.288-4.313 5.844zm0-7.79v-5.01h5.426c0 1.81-.278 3.478-.696 5.01h-4.73zm7.374-6.958c0-1.81-.278-3.478-.557-5.01h4.73c.695 1.53 1.25 3.2 1.25 5.01h-5.425zm3.06-6.956h-4.034c-.557-2.087-1.39-3.757-2.504-5.148 2.643.974 4.87 2.783 6.54 5.148zM11.27 2.922c-.974 1.252-1.81 3.06-2.504 5.148H4.73c1.53-2.365 3.897-4.174 6.54-5.148zM4.73 24.07h4.035c.557 2.087 1.39 3.757 2.504 5.148-2.644-1.113-5.01-2.922-6.54-5.148zm16.418 5.008c.974-1.39 1.81-3.06 2.504-5.148h4.035c-1.67 2.365-3.896 4.174-6.54 5.148z"/></svg>