<svg xmlns="http://www.w3.org/2000/svg" width="32" height="32" viewBox="0 0 32 32"><path d="M10.944 9.04h9.993c.595 0 .952-.475.952-.95 0-.596-.477-.953-.953-.953h-9.993c-.595 0-.952.476-.952.952s.357.95.952.95zm9.874 2.975h-9.874c-.595 0-.952.476-.952.952 0 .595.476.952.952.952h9.993c.595 0 .952-.477.952-.953s-.477-.952-1.072-.952zm-3.926 4.996h-5.948c-.595 0-.952.477-.952.953 0 .595.476.952.952.952h5.948c.595 0 .952-.476.952-.952s-.357-.952-.952-.952zM27.836 0H9.992c-2.26 0-4.045 1.784-4.045 4.045V24.03H3.925C1.785 24.03 0 25.814 0 28.075s1.783 4.045 3.925 4.045H21.77c2.14 0 3.925-1.784 3.925-4.045V7.495c.595.357 1.31.595 2.022.595 2.14 0 3.926-1.784 3.926-4.045C31.763 1.785 29.978 0 27.836 0zM18.44 29.978H3.925c-1.07 0-2.022-.952-2.022-2.022s.833-2.022 2.022-2.022H18.32c-.357.595-.595 1.31-.595 2.022.12.833.357 1.427.714 2.022zm3.448 0c-1.07 0-2.022-.952-2.022-2.022s.833-2.022 2.022-2.022c1.07 0 2.022.952 2.022 2.022-.12 1.19-.952 2.022-2.022 2.022zm1.904-25.933v20.58c-.595-.357-1.31-.595-2.022-.595H7.97V4.045c0-1.07.834-2.022 2.023-2.022h14.394c-.357.595-.595 1.31-.595 2.022zm4.044 1.903c-1.07 0-2.022-.952-2.022-2.022s.833-2.022 2.022-2.022c1.07 0 2.022.952 2.022 2.022 0 1.19-.952 2.022-2.022 2.022z"/></svg>