<svg xmlns="http://www.w3.org/2000/svg" width="34" height="32" viewBox="0 0 34 32"><path d="M11.11 32h-.167c-5.14-1.492-8.788-4.808-9.285-8.456L0 9.948c0-.166 0-.497.166-.663s.332-.332.663-.332h20.56c.33 0 .496.166.662.332s.166.497.166.663l-1.658 13.43c-.497 3.648-4.145 6.964-9.285 8.456 0 .166 0 .166-.166.166zM1.823 10.777l1.492 12.435c.332 2.984 3.482 5.637 7.793 6.964 4.31-1.326 7.46-3.98 7.792-6.964l1.492-12.435H1.824zm9.285 16.25h-.167c-2.984-.83-4.974-2.82-5.306-4.81l-.166-1.823c0-.166 0-.497.167-.663s.332-.33.663-.33h9.782c.332 0 .497.165.663.33s.166.498.166.664l-.165 1.824c-.332 2.155-2.32 3.98-5.306 4.808h-.333zm-3.815-5.97l.166.83c.167 1.325 1.66 2.652 3.814 3.315 2.155-.663 3.648-1.99 3.813-3.316l.166-.83h-7.96zm17.74.83c-.33 0-.662-.167-.828-.498-.166-.498 0-.996.332-1.162 3.15-1.492 5.14-3.648 5.305-5.97l1.824-12.6H12.932l.663 5.306c0 .497-.332.83-.83.995-.496 0-.828-.333-.994-.83L11.11.995c0-.166 0-.497.165-.663S11.772 0 11.938 0h20.56c.166 0 .497.166.663.332s.167.497.167.663l-1.658 13.43c-.333 2.984-2.654 5.637-6.302 7.295 0 .166-.166.166-.332.166zm-.994-4.478c-.33 0-.662-.167-.828-.498-.166-.497 0-.995.332-1.16 1.326-.664 2.32-1.825 2.32-2.82l.167-.83h-1.657c-.497 0-.83-.33-.83-.828s.333-.83.83-.83h2.653c.166 0 .497.167.663.333s.165.497.165.663l-.166 1.824c-.167 1.658-1.327 3.15-3.317 4.145 0-.167-.166 0-.332 0zm-7.46-1.327c-.166 0-.166 0 0 0l-3.15-.497c-.497 0-.83-.497-.663-.995 0-.496.497-.828.995-.662l2.82.497c.496 0 .828.497.662.995.166.332-.332.663-.663.663zm-10.777 0c-.497 0-.83-.332-.83-.83s.333-.994.664-.994l2.984-.333c.498 0 .996.332.996.663 0 .497-.332.995-.663.995l-3.15.497zm11.11-8.953c-.498 0-.83-.332-.83-.83s.332-.994.663-.994l2.984-.332c.497 0 .995.332.995.663 0 .497-.332.995-.83.995l-2.983.497zm10.776 0s-.167 0 0 0l-3.15-.497c-.498 0-.83-.497-.664-.995 0-.497.497-.83.995-.663l2.985.332c.497 0 .83.497.663.995 0 .497-.497.83-.83.83z"/></svg>