<svg xmlns="http://www.w3.org/2000/svg" width="34" height="32" viewBox="0 0 34 32"><path d="M16.842 6.947c-2.947 0-5.263 2.42-5.263 5.368s2.315 5.368 5.262 5.368c2.947 0 5.263-2.42 5.263-5.368s-2.42-5.368-5.263-5.368zm0 8.527c-1.79 0-3.158-1.474-3.158-3.158 0-1.79 1.368-3.158 3.158-3.158S20 10.632 20 12.316s-1.474 3.158-3.158 3.158zm16.526 9.473l-6.21-6.316c.104-.104.21-.315.21-.42.947-1.79 1.474-3.79 1.474-6 0-5.263-3.263-9.79-7.895-11.58C19.684.316 18.315 0 16.842 0S14 .314 12.737.735c-4.632 1.684-7.895 6.21-7.895 11.58 0 2.21.526 4.21 1.474 6 .105.104.21.315.21.42l-6.21 6.316c-.316.21-.42.632-.21 1.053.104.105.104.316.21.42.21.212.42.317.632.317l4 .316.316 3.895c0 .42.316.737.632.947.42.105.842 0 1.158-.21l7.263-7.475c.842.21 1.684.21 2.526.21s1.684-.104 2.526-.21l7.262 7.474c.316.315.737.42 1.158.21.42-.105.632-.526.632-.947l.316-4 4-.316c.21 0 .526-.105.632-.316.105-.104.21-.21.21-.42.106-.316 0-.737-.21-1.053zm-26.21 3.58l-.21-2.633c0-.526-.422-.947-.948-.947l-2.526-.21 4.316-4.422c1.158 1.368 2.632 2.42 4.316 3.158L7.16 28.526zm9.684-6.106C12 22.42 8 18.948 7.052 14.317c0-.21-.104-.42-.104-.737v-.317-.842-.21c-.105-5.58 4.316-10.105 9.895-10.105 5.474 0 10 4.526 10 10.105v.105c0 .632-.105 1.263-.21 1.895-.948 4.737-4.948 8.21-9.79 8.21zm10.842 2.527c-.526 0-.947.42-.947.947l-.21 2.632-4.948-4.947c1.683-.738 3.157-1.79 4.315-3.16l4.316 4.422-2.525.105z"/></svg>