<svg xmlns="http://www.w3.org/2000/svg" width="30" height="32" viewBox="0 0 30 32"><path d="M29.416 26.983v-5.017c0-.532-.456-.988-.988-.988H14.746c.608-.456 1.064-1.216 1.064-1.976 0-1.368-1.14-2.508-2.508-2.508-1.064 0-1.9.608-2.356 1.52H9.122c-1.596 0-2.964-1.064-3.42-2.508.456-.076.836-.456.836-.988s-.38-.912-.836-.988c.304-1.14 1.216-2.052 2.432-2.356.076.456.456.836.912.836l4.56.532h.077c3.648 0 8.437 3.648 10.793 7.07.228.303.532.455.836.455.076 0 .228 0 .304-.076.456-.15.684-.53.684-.987V.99c0-.457-.304-.837-.684-.99-.456-.15-.912 0-1.14.38C22.12 3.8 17.33 7.527 13.683 7.527h-.076-.076l-4.56.532c-.532.076-.912.456-.912.988v.076c-2.28.38-4.03 2.204-4.485 4.41H3.04c0-.533-.455-.99-.987-.99s-.988.457-.988.99c-.532 0-.988.455-.988.987s.456.987.988.987v.988c0 3.648 1.064 7.297 3.04 10.26v.23c-.532 0-.988.455-.988.987v2.964c0 .532.456.988.988.988h25.31c.533 0 .99-.456.99-.988v-2.964c0-.532-.457-.988-.99-.988zM24.323 3.8v12.39c-2.66-2.812-6.31-5.17-9.653-5.625v-1.14c3.344-.456 6.993-2.812 9.653-5.625zM10.11 9.88l2.507-.303v.76l-2.508-.304V9.88zm17.253 17.103H6.08v-4.027h21.283v4.03zM13.15 18.47c.304 0 .532.228.532.532s-.228.532-.532.532c-.304 0-.532-.228-.532-.532.076-.304.304-.532.532-.532zM3.04 16.494v-.988h.608c.456 2.584 2.736 4.485 5.473 4.485h1.75c.15.38.455.76.835.99H5.092c-.532 0-.988.455-.988.987v.304c-.608-1.595-1.064-3.57-1.064-5.776zm25.312 13.53H5.092v-.988H28.43v.988z"/></svg>