<svg xmlns="http://www.w3.org/2000/svg" width="25" height="32" viewBox="0 0 25 32"><path d="M23.554 5.115L16.892 6.78V3.806l7.138-1.784c.476-.12.833-.714.714-1.19S24.03 0 23.554.118l-7.97 2.022c-.476.12-.714.476-.714.952v19.152c-.952-.833-2.14-1.31-3.45-1.31-3.093.12-5.472 2.5-5.472 5.592 0 2.974 2.498 5.472 5.472 5.472s5.472-2.498 5.472-5.472V8.8l7.138-1.783c.476-.12.833-.714.714-1.19-.12-.595-.714-.952-1.19-.714zM11.42 29.978c-1.903 0-3.45-1.546-3.45-3.45s1.546-3.45 3.45-3.45c1.903 0 3.45 1.546 3.45 3.45s-1.546 3.45-3.45 3.45zM.952 9.04h9.874c.595 0 .952-.475.952-.95s-.357-1.072-.833-1.072H.952c-.476 0-.952.476-.952 1.07s.476.953.952.953zm0 3.927h9.874c.595 0 .952-.476.952-.952s-.357-.952-.833-.952H.952c-.476 0-.952.357-.952.952s.476.952.952.952zm10.944 3.092c0-.596-.476-.953-.952-.953H.95c-.475-.12-.95.357-.95.952s.475.95.95.95h9.875c.595 0 1.07-.475 1.07-.95z"/></svg>