<svg xmlns="http://www.w3.org/2000/svg" width="32" height="32" viewBox="0 0 32 32"><path d="M13.774 9.043H9.878c-.557 0-.974.417-.974.974v11.965c0 .557.417.974.974.974h4.035c.557 0 .974-.417.974-.974V10.017c0-.557-.557-.974-1.113-.974zM12.8 21.01h-1.948V10.99H12.8V21.01zm9.043-11.967h-4.035c-.557 0-.974.417-.974.974v11.965c0 .557.417.974.974.974h4.035c.557 0 .974-.417.974-.974V10.017c0-.557-.417-.974-.974-.974zM20.87 21.01h-1.948V10.99h1.948V21.01zM15.86 0c-8.903 0-16 7.235-16 16s7.097 16 16 16 16-7.235 16-16-7.234-16-16-16zm0 30.052c-7.79 0-14.05-6.4-14.05-14.052S8.07 1.948 15.86 1.948c7.653 0 14.053 6.26 14.053 14.052-.14 7.652-6.4 14.052-14.052 14.052z"/></svg>