<svg xmlns="http://www.w3.org/2000/svg" width="32" height="32" viewBox="0 0 32 32"><path d="M16.968 15.943c0 .566-.46 1.025-1.025 1.025s-1.025-.46-1.025-1.025c0-.566.46-1.025 1.025-1.025s1.025.46 1.025 1.025z"/><path d="M15.943 0C7.173 0 0 7.174 0 15.943s7.174 15.943 15.943 15.943c8.77 0 15.943-7.174 15.943-15.943S24.826 0 15.943 0zm0 29.95c-7.63 0-13.893-6.263-13.893-14.007S8.313 2.05 15.943 2.05 29.95 8.313 29.95 15.943 23.687 29.95 15.943 29.95z"/><path d="M15.943 11.957c-2.164 0-3.986 1.822-3.986 3.986s1.822 3.986 3.986 3.986 3.986-1.823 3.986-3.987-1.71-3.986-3.987-3.986zm0 6.036c-1.14 0-2.05-.91-2.05-2.05s.91-2.05 2.05-2.05c1.14 0 2.05.91 2.05 2.05s-.91 2.05-2.05 2.05zM15.943 7.972c-.57 0-1.025.456-1.025 1.025s.456 1.025 1.025 1.025c3.302 0 6.036 2.733 6.036 6.036 0 .57.455 1.025 1.024 1.025s1.025-.456 1.025-1.025c-.115-4.44-3.645-8.085-8.086-8.085zM15.943 21.98c-3.303 0-6.036-2.734-6.036-6.037 0-.57-.456-1.025-1.025-1.025-.456.114-.91.456-.91 1.025 0 4.44 3.53 7.972 7.97 7.972.57 0 1.026-.456 1.026-1.025 0-.456-.456-.91-1.025-.91z"/><path d="M15.943 3.986c-.57 0-1.025.456-1.025 1.025s.456 1.026 1.025 1.026c5.466 0 10.02 4.44 10.02 10.02 0 .57.457 1.026 1.026 1.026s1.024-.456 1.024-1.025c0-6.72-5.466-12.07-12.07-12.07zM15.943 25.964c-5.466 0-10.02-4.44-10.02-10.02 0-.57-.457-1.026-1.026-1.026s-1.025.456-1.025 1.025c0 6.605 5.352 11.957 11.957 11.957.568 0 1.024-.456 1.024-1.025.114-.456-.342-.91-.91-.91z"/></svg>