<svg xmlns="http://www.w3.org/2000/svg" width="32" height="32" viewBox="0 0 32 32"><path d="M30.81 0H.95C.476 0 0 .476 0 .952V30.93c0 .595.475.952.95.952h29.86c.595 0 .952-.476.952-.952V.952c0-.476-.357-.952-.952-.952zM16.892 2.022h5.472v2.974h-5.472V2.022zm-7.494 0h5.472v2.974H9.398V2.022zm-7.376 0h5.472v2.974H2.022V2.022zm5.472 27.956H2.022v-2.974h5.472v2.974zm7.376 0H9.398v-2.974h5.472v2.974zm7.494 0h-5.472v-2.974h5.472v2.974zm7.495 0h-5.473v-2.974h5.472v2.974zm0-4.997H2.022V7.02H29.86V24.98zm0-19.984h-5.473V2.022h5.472v2.974zM12.49 21.888c.12.12.358.12.477.12.238 0 .357 0 .476-.12l7.97-4.996c.238-.238.476-.476.476-.833s-.12-.715-.477-.834l-7.97-4.996c-.357-.238-.714-.238-.952 0-.356.12-.594.357-.594.833v9.993c0 .357.238.714.595.833zm1.428-9.04l5.115 3.212-5.115 3.212v-6.424z"/></svg>