<svg xmlns="http://www.w3.org/2000/svg" width="31" height="32" viewBox="0 0 31 32"><path d="M16.98 10.057H6.14c-.654 0-1.046.392-1.046.914s.392 1.046 1.045 1.046h10.84c.522 0 1.045-.392 1.045-1.045 0-.52-.522-.913-1.045-.913zm0 4.963H6.14c-.523 0-1.046.392-1.046 1.045 0 .522.392 1.045 1.045 1.045h10.84c.522 0 1.045-.392 1.045-1.045s-.522-1.045-1.045-1.045zm-4.44 4.964h-6.4c-.523 0-1.046.392-1.046 1.045 0 .52.392 1.044 1.045 1.044h6.4c.52 0 1.044-.392 1.044-1.045-.13-.523-.522-1.046-1.045-1.046zM27.95 0H3.136C1.437 0 .13 1.306.13 3.004v25.992C.13 30.694 1.438 32 3.136 32H27.95c1.7 0 3.005-1.306 3.005-3.004V3.004C30.825 1.306 29.518 0 27.95 0zM20.9 28.996c0 .522-.392 1.045-1.045 1.045H3.135c-.522 0-1.045-.39-1.045-1.044V3.004c0-.522.392-1.045 1.045-1.045h16.85c.52 0 1.044.39 1.044 1.044v25.992zm7.967 0c0 .522-.392 1.045-1.045 1.045h-5.094c.13-.26.13-.652.13-1.044V16.98h1.96c.522 0 1.045-.392 1.045-1.045 0-.522-.39-1.045-1.044-1.045h-1.96v-2.873h1.96c.522 0 1.045-.392 1.045-1.045 0-.522-.39-1.045-1.044-1.045h-1.96V3.005c0-.392 0-.653-.13-1.045h5.094c.522 0 1.045.392 1.045 1.045v25.992z"/></svg>