<svg xmlns="http://www.w3.org/2000/svg" width="27" height="32" viewBox="0 0 27 32"><path d="M26.885.952c0-.12 0-.357-.12-.476C26.53.238 26.172 0 25.816 0H.95C.595 0 .357.238.12.476 0 .596 0 .833 0 .952V30.93c0 .595.476.952.952.952h7.494c.595 0 .952-.476.952-.952 0-1.427 0-3.212-.238-4.996h8.446c-.238 1.784-.238 3.57-.238 4.996 0 .595.476.952.952.952h7.494c.595 0 .952-.476.952-.952V.952zm-5.948 20.58h3.926v8.446H19.39c.12-4.164.715-7.97 1.547-8.446zm3.925-2.023h-3.926c-.952-.715-2.736-6.544-3.926-13.205 3.212-.357 5.948-1.428 7.85-2.736v15.94zM23.554 2.02C21.65 3.45 18.2 4.52 13.918 4.52 9.873 4.52 5.71 3.45 3.45 2.022h20.104zm-13.8 4.164c-1.19 6.662-2.973 12.61-3.925 13.323H2.02V3.45C3.925 4.76 6.78 5.71 9.754 6.186zM2.023 21.532h3.926c.714.476 1.428 4.283 1.546 8.446H2.022v-8.446zm5.59-1.07c.834-1.072 1.666-3.213 2.737-7.257.713-2.736 1.19-5.59 1.427-6.78h.595V24.03h-3.57c-.118-1.427-.594-2.736-1.19-3.57zm6.782 3.568V6.543h.595c.237 1.31.713 4.045 1.426 6.78 1.07 4.165 1.903 6.187 2.736 7.257-.595.833-.952 2.022-1.31 3.45h-3.45z"/></svg>