<svg xmlns="http://www.w3.org/2000/svg" width="32" height="32" viewBox="0 0 32 32"><path d="M5.807 9.007H6.4c.237 0 .474.12.474.356l6.163 14.34 3.2-6.636 2.963 6.637 5.807-14.34c.12-.238.356-.357.474-.357h.594c.12 0 .237-.12.237-.237v-.474h-4.384v.593c0 .118.12.236.237.236h1.067c.356 0 .593.356.474.593l-4.148 10.666-2.37-5.57 2.49-5.452c.118-.237.355-.356.473-.356h.71c.12 0 .237-.12.237-.237v-.473H16.95v.593c0 .12.118.237.236.237h.593c.355 0 .592.356.473.593l-1.66 3.674-1.658-3.674c-.12-.356.12-.593.474-.593.118 0 .236-.12.236-.237v-.593h-3.91v.593c0 .12.118.237.236.237h.474c.237 0 .474.12.474.356l2.726 6.4-2.133 4.622L9.246 9.6c-.12-.236.12-.592.474-.592h.83c.12 0 .237-.12.237-.237V8.18H5.572v.593c0 .12.12.238.237.238zM0 0v32h32V0H0zm29.985 29.985H2.015V2.015h28.09v27.97z"/></svg>