<svg id="Layer_1" xmlns="http://www.w3.org/2000/svg" viewBox="0 0 317.5 55.7"><style>.st0{fill:#FFFFFF;} .st1{fill:#FFE600;}</style><path class="st0" d="M61.6 26.1l.8-2.6-2.7.1c-.2 0-1.9 0-3.5-1.2h.4c1.6 0 3.2-1 3.9-2.4l1.2-2.6c-1.4 0-2.8-.2-2.8-.2s-1.1-.1-2.3-1.4c-.9-.9-1.9-1.3-3.1-1.3-.5 0-1 .1-1.3.2.1-.2.1-.4.2-.6.4-2.4-1.2-4.2-1.2-4.2l-2-2.5-1.2 2.9s-.3.7-.9 1c-.2-.9-.6-1.8-1.5-2.8-1.7-1.7-3.7-2-4.8-2-.5 0-.9.1-.9.1l-2.4.5c.1-.5.4-1.5 1-2.3l1.3-2.1-3.4.4L35.3.8l-2.1 1.1-2-1.9-1.9 1.9L27.2.8l-1.1 2.3-3.4-.4L24 4.8c.5.9.8 1.8 1 2.3l-2.3-.5h-.1c-.1 0-.5-.1-1-.1-1.1 0-3.1.3-4.8 2-.9.9-1.3 1.9-1.5 2.8-.6-.3-.9-1-.9-1l-1.3-2.9-2 2.5c-.3.3-1.5 2-1.1 4.2 0 .2.1.4.2.6-.4-.1-.8-.2-1.3-.2-1.2 0-2.2.5-3.1 1.3-1.2 1.2-2.2 1.4-2.2 1.4s-1.1.2-2.8.2L1.9 20c.6 1.4 2.2 2.4 3.9 2.4h.4c-1.6 1.2-3.2 1.2-3.4 1.2L0 23.5l.8 2.6c.4 1.3 1.8 3.5 4.5 3.8C5 31.1 4.4 32.4 3 33l-2 .8 1 2c.6 1 2.1 2.3 4.2 2.3.5 0 .9 0 1.3-.1.1.5.2 1 .4 1.4.6 1.8.1 3.1.1 3.1l-1 2.1 2.2.6s.7.2 1.6.2c.4 0 .8 0 1.1-.1.3-.1.5-.1.8-.2.3.5.6 1 1.1 1.4 1.4 1.5 3.5 2.2 6 2.2h1.8l-3.8 1.6 2.9 1.4c1 .5 2.3 1.1 3.6 1.6l-.4 1 1 .5c.1 0 2 .9 5.2 1.1h2.4c3.2-.2 5.1-1 5.1-1.1l1-.5-.4-1c1.3-.5 2.6-1.1 3.6-1.6l2.8-1.4-3.8-1.6h1.8c2.6 0 4.6-.7 6-2.2.4-.4.8-.9 1.1-1.4.2.1.5.2.8.2.3.1.7.1 1.1.1.8 0 1.5-.2 1.5-.2l2.2-.6-1-2.1c0-.1-.6-1.3.1-3.2.2-.5.3-.9.4-1.4.4.1.9.1 1.3.1 2.7 0 3.9-1.9 4.2-2.3l1.1-1.9-2-.8c-1.4-.6-2.1-1.9-2.3-3.2 2.6-.2 4-2.4 4.5-3.7m-36.4-18z"/><path class="st0" d="M31.2 7.9c-2.2 0-3.8.7-4.1 1.5l4.1 1.6 4.1-1.6c-.3-.8-1.9-1.5-4.1-1.5M31.2 50.9c-1.4 0-3.2-.3-4-.5l-1 2.8c.7.2 3 .7 5 .7s4.4-.5 5-.7l-1-2.8c-.9.3-2.7.5-4 .5M39.1 48.1c-.8.4-2.5 1.1-3.5 1.4l.8 2.3c1.6-.4 2.8-.9 3.9-1.5l-1.8-.6.6-1.6zM23.3 48.1l.5 1.7-1.8.6c1.1.5 2.3 1 3.9 1.5l.8-2.3c-.9-.4-2.6-1-3.4-1.5M31.2 5.2c1.6 0 3.2.4 4.4 1.1.1-.4.3-.8.5-1.3l-.5.1-.5.1-.1-.5-.6-1.3-1.2.6-.4.2-.4-.3-1.2-1.2L30 3.8l-.3.3-.5-.1-1.1-.6-.6 1.3-.2.4-.5-.1h-.5c.2.5.4.9.5 1.3 1.2-.7 2.8-1.1 4.4-1.1M56 20.3c.2.1.4.1.6.1.9 0 1.8-.6 2.1-1.3 0 0-1.7-.1-3.5-1.9-.6-.6-1.2-.8-1.7-.8-.8 0-1.4.4-1.4.4 2.2 1.3 2.6 3.1 3.9 3.5M5.8 20.5c.2 0 .4 0 .6-.1 1.2-.4 1.7-2.3 3.9-3.4 0 0-.6-.4-1.4-.4-.5 0-1.1.2-1.7.8-1.8 1.8-3.5 1.9-3.5 1.9.3.6 1.2 1.2 2.1 1.2"/><path class="st0" d="M56.6 27.9h.1c2.3 0 3.1-2.5 3.1-2.5-.4 0-3.8-.1-6.2-3.2-1.6-2-2.9-3.8-5.4-4.5h-.3l-.1-.3c-.1-.4.2-.8.8-1.2 3.5-2.3 1.1-5.3 1.1-5.3s-1 2.4-3.3 2.4h-.2c-.3 0-.5 0-.8-.1l-.4.1s.6-1.8-.9-3.4c-1.2-1.2-2.6-1.4-3.4-1.4-.4 0-.7.1-.7.1.8 1 1.3 2.7.4 3.8-.8.9-2.7.9-2.7 2.3 0 .6.5 1.2 1.5 1.8 2.9 1.8 5.7 4.2 6.9 7.4 1.5 4-.2 6.7-2.6 8.2 0 0 .7.7 1.8.8h.6c2.3 0 3.5-1.1 3.5-1.1s-.2 1.5-1.4 2.8c-1.1 1.3-2.5 2-4.7 2 0 0-.1 1 .9 1.9.6.6 2.1.7 2.1.7s-2.7.5-3 4.5c-.2 2.1-.7 2.9-.7 2.9 6.2 0 6.1-5.3 6.1-5.3s.4 1.6 2.2 2c.2.1.4.1.6.1.6 0 1-.1 1-.1s-.9-1.9 0-4.6c.7-2.2.6-3.9.6-3.9s.8 1.3 2.9 1.3c1.7 0 2.5-1.3 2.5-1.3-4.2-1.7-3.7-7.3-3.7-7.3s.7.4 1.8.4m-1.3 5.8c-1.7-.8-2.8-3-3-3.8-.3 4.4-2.4 7.4-4.9 10.4-1.3 1.5-1.8 3-1.8 3s.3-1.7 1.4-3c2.3-2.8 4.6-6.3 4.7-10.3.1-2.8-.6-5.1-1.7-7 .6 2 .5 4.4-1.6 6.6 0 0 4.3-5.1-1.7-10.4-2.4-2-5-3.2-6.4-4.1 4.9 1.6 7.3-.2 7.3-.2-1.6 1.3-3.6 1.3-4.9 1.1.3.2.7.3 1.1.5 4.1 2.2 7.8 5.9 8.4 11 1 5 3.1 6.2 3.1 6.2M16 39.3s1.4-.2 2.1-.7c1-.9.9-1.9.9-1.9-2.2 0-3.6-.8-4.7-2-1.2-1.4-1.4-2.8-1.4-2.8s1.2 1.1 3.5 1.1h.6c1.1-.1 1.8-.8 1.8-.8-2.4-1.5-4-4.2-2.6-8.2 1.2-3.2 4-5.6 6.9-7.4 1-.6 1.5-1.3 1.5-1.8 0-1.3-1.9-1.4-2.7-2.3-.9-1-.3-2.7.4-3.8 0 0-.3-.1-.7-.1-.8 0-2.2.2-3.4 1.4-1.6 1.6-.9 3.4-.9 3.4H17c-.2.1-.5.1-.8.1H16c-2.3 0-3.3-2.4-3.3-2.4s-2.4 3 1.1 5.3c.6.4.9.8.8 1.2l-.1.3h-.3c-2.6.7-3.9 2.5-5.4 4.5-2.4 3.1-5.8 3.2-6.2 3.2 0 0 .8 2.5 3.1 2.5h.1c1.1 0 1.6-.4 1.6-.4s.4 5.6-3.7 7.3c0 0 .8 1.3 2.5 1.3 2.1 0 2.9-1.3 2.9-1.3s-.1 1.5.6 3.7c.9 2.7 0 4.6 0 4.6s.5.1 1 .1c.2 0 .4 0 .6-.1 1.7-.4 2.2-2 2.2-2s-.2 5.3 6.1 5.3c0 0-.5-.7-.7-2.9-.2-3.9-2.9-4.4-2.9-4.4m-1 1c-2.5-2.9-4.6-6-4.9-10.4-.3.8-1.3 3-3 3.8 0 0 2.1-1.3 3.1-6.3.6-5.1 4.3-8.8 8.4-11 .4-.2.7-.4 1.1-.5-1.2.2-3.3.2-4.8-1.1 0 0 2.4 1.7 7.2.2-1.3.9-4 2.1-6.4 4.1-6 5.3-1.7 10.4-1.7 10.4-2.2-2.2-2.2-4.6-1.6-6.6-1.1 1.9-1.9 4.2-1.7 7 .2 4 2.4 7.5 4.7 10.3 1.1 1.4 1.4 3 1.4 3s-.5-1.4-1.8-2.9M26.6 19.8l.3.3s0 .1.1.1c.1.1.2.2.3.4 0 0 0 .1.1.1.1.2.2.3.3.5.9 1.6 2.3 2.5 3.6 2.5 1.3 0 2.7-.9 3.6-2.5.1-.2.2-.3.3-.5v-.1c.1-.1.2-.3.3-.4 0 0 0-.1.1-.1.1-.1.2-.2.3-.4h.1c.5-.5 1-.8 1.7-1l-.3-.2-1.4-.7-1.3-.8-3.5 1.9-3.5-1.9-1.3.7-1.3.7-.3.2c.7.3 1.3.6 1.8 1.2 0-.1 0-.1 0 0m3.2-.2h3v1c-.3-.4-1-.3-1-.3v1.5s0 .7.3 1h-1.4c.3-.3.3-1 .3-1v-1.5s-.7-.1-1 .3v-1z"/><path class="st0" d="M30.9 17.6v-5.9l-3.8-1.3 1 5.7 2.8 1.5zm-.8-4.4v.9l-.2-.1s-.3-.1-.7-.4c-.8-.6-.8-1.1-.8-1.1l1.7.7zM34.3 16.2l1-5.7-3.8 1.3v5.9l2.8-1.5zm-2-3l1.7-.7s0 .6-.8 1.1c-.5.4-.7.4-.7.4l-.2.1v-.9zM25.6 31.3c.4.1.8.2 1 .2v-.1c0-.1 0-.1.1-.2.1-.3.1-.7.1-.9-.2-.1-.4-.3-.5-.5-.1-.3-.3-.4-.6-.4-.4 0-.8.2-1 .3-.1.7.5 1.5.9 1.6M33.9 28.2c-.7.8-2.1 2.1-2.1 2.1l-.1.1-4.3-.1c0 .4-.1.8-.1 1.1v.1l5.1.9c.5-.4 2-1.4 2.6-1.9-.4-.6-.5-1.3-.4-1.8-.3-.1-.5-.3-.7-.5"/><path class="st0" d="M34.5 23c-1 1-1.9 1.4-2.8 1.4h-1c-.1 0-.3 0-.5-.1-.1.2-.1.7.1 1.1.2.4.5.7 1.1.9l.2.1v.2c0 .1 0 1.3 1.4 1.7l.6-.6c-.3-.7-.1-1.3.3-1.7 0 .1-.2 1.7 1.1 2.3l.2.1-.1.2c0 .1-.5 1.7 1.1 2.3l.3.1-.1.3c0 .1-.7 1.5.8 2.3h3.2v-2.5c-1.1-.1-1.6-1.1-1.7-1.7-.5-.1-.9-.3-1.2-.7-.7-.9-.1-1.7-.1-1.7s0 .9.5 1.4c.3.3.6.5 1 .5h.2v.2c0 .1.1 1.2 1.2 1.4v-5.2c0-.8.2-1.6.5-2.4h-6.3zM25.9 25.4l-.1 3.3.3.1 1-3.2-.5-1zM36 40.6s.1 0 0 0c.7.2.8 2.2 1.8 2.4h.3c.3 0 .5-.1.6-.3 0 0-.5-.8-.9-1.3-.5-.7-.9-1.5-1.8-1.5h-.1c-.3 0-.5.2-.5.2-.4-.2-.7-.3-1-.3-.6 0-1 .3-1.3.3l-2.1-.4c-.3 0-.6-.4-.7-.5v-.1-.2c-.1-1.7-1.4-2.4-1.9-2.4 0 0 .1-.3-.1-.4l-.5.6-1.5-.8 1.1 1.3-.9 1c-.1.1-.1.3-.1.3l.4.3.5-.3h.6c.2 0 .4 0 .4-.2-.1.6-.6 1.7-.3 2.6l.3.7-1.8-.3-.9 1.5c-.3.5-.3 1-.1 1.3l.3.4s.5-.5.6-.8l-.1-.2c-.1-.1-.1-.3 0-.4l.5-.9 2.2.5.1-.2c.1-.2.4-.3.6-.3h.3c.4.1 1.1.2 1.7.2.7 0 1.5-.1 1.8-.6.8 1.2 2.4 1.4 2.3 1.9l-.4 2c.3 0 .5 0 .8-.1l.4-2.1c0-.2.1-.5.1-.5-.2-.2-.5-.5-.7-.9-.3-.5-.1-.8-.4-1.5.1.1.2 0 .4 0m-8.2-3c-.1 0-.2-.1-.2-.2s.1-.2.2-.2.2.1.2.2c0 .2 0 .2-.2.2"/><path class="st0" d="M24.9 42.5s.7-.3.8-.5l-.1-.2c-.1-.2-.1-.3.1-.4l.8-.5 1.3.3s-.2-.3-.2-.7l-1.2-.3-1.2.7c-.5.4-.5 1-.4 1.4l.1.2zM34.1 45.9h.8l.7-2c-.4-.2-1.2-.6-1.5-.8.2.3.7.6.6.9l-.6 1.9z"/><path class="st1" d="M40.5 34.2H21.9v7c0 2.8 2.1 4.6 5.1 4.6 2.5 0 3.2.1 4.2 1 .7-.6 1.2-.9 2.3-1v-.1l.6-1.8-1-1.1c-.4.2-.7.2-1.2.2s-1.2-.1-1.8-.2H29.8l-.2.2-.2.4-.4-.1-1.8-.4-.2.4.2.2-.1.3c-.1.4-.6.9-.7 1l-.4.5-.4-.5-.3-.4c-.3-.4-.4-.9-.2-1.5l-.5.2-.2-.5-.2-.3c-.3-.6-.2-1.5.6-2l1.4-.8 1.4.3c0-.1.1-.6.1-.7h-.1l-.8.3-.8-.5s-.3-.3 0-.6l.7-1.1-1.9-2.3 2.9 1.2.2-.2.4-.5.4.4c.1.1.2.3.2.4.8.3 2.2 1.2 2.3 2.7l-.3.1.2.2 2 .2c.1 0 .1 0 .2-.1.3-.1.6-.2 1.1-.2.4 0 .7.1 1.1.2.1 0 .3-.1.5-.1h.1c1.1 0 1.6.8 2.1 1.5.1.1.1.2.2.3.4.5.9 1.3.9 1.4l.2.4-.4.2c-.2.2-.5.5-1.1.5h-.4c-.1 0-.2-.1-.3-.1 0 .1 0 .2-.1.3l-.2 1.9c2.1-.5 3.5-2.1 3.5-4.4v-7zM21.9 33.7h14.4c-.7-.7-.7-1.7-.5-2.3-.2-.1-.4-.2-.5-.4-.6.4-2.3 1.7-2.7 2l-.1.1-5.7-1h-.7c-.1.3-.3.4-.5.4h-.1c-.1 0-.3-.1-.4-.2-.1-.1-.1-.3-.1-.4v-.1c-.6-.4-1.1-1.3-.9-2.3v-.1l.1-.1s.1-.1.3-.2l-.4-.1c-.2 0-.3-.2-.2-.3 0-.2.2-.3.3-.2l1 .2.1-3.4 1.5-1.5.9 1.9-1 3.3.9.1c.2 0 .3.2.2.3 0 .1-.1.2-.3.2l-.7-.1v.1c.1.2.2.3.3.3l4.3.1 1.1-1.1c-1.1-.4-1.4-1.3-1.5-1.9-.6-.3-1-.6-1.2-1.1-.3-.6-.2-1.2-.1-1.5-.6-.2-1.2-.6-1.8-1.2h-6.5c.3.7.5 1.6.5 2.4v8.1z"/><path d="M27.9 37.3c-.1 0-.2.1-.2.2s.1.2.2.2.2-.1.2-.2-.1-.2-.2-.2M40.4 49.9l-1.1-.4.3-1.1.3-1.2s-1.9 1-4.6 1.8c-.8.2-1.3.3-1.3.3v.8s-1.4.2-2.9.2c-1.4 0-2.9-.2-2.9-.2v-.8s-.6-.1-1.3-.3c-2.7-.8-4.5-1.8-4.5-1.8l.3 1.2.3 1.1-1 .4-1.2.4c1.4.7 3.2 1.6 5 2.1l-.4 1.1s2.2 1 5.8 1c3.6 0 5.8-1 5.8-1l-.4-1.1c1.7-.5 3.6-1.4 5-2.1l-1.2-.4zm-18.4.5l1.8-.6-.5-1.7c.8.4 2.5 1.1 3.5 1.4l-.8 2.3c-1.6-.4-2.9-.9-4-1.4m9.2 3.6c-2 0-4.4-.5-5-.7l1-2.8c.9.3 2.7.5 4 .5 1.3 0 3.1-.3 4-.5l1 2.8c-.6.2-3 .7-5 .7m5.3-2.1l-.8-2.3c1-.3 2.7-1 3.5-1.4l-.5 1.7 1.8.6c-1.2.4-2.5.9-4 1.4M31.2 5.9c2.2 0 3.9.7 4.9 1.5 0 0 .3-1.7 1.3-3.2l-1.7.2-.9-1.9-1.8.9-1.7-1.7-1.7 1.7-1.8-.9-.9 1.9-1.7-.2c1 1.5 1.3 3.2 1.3 3.2.8-.8 2.5-1.5 4.7-1.5m-4.5-.8l.5.1.2-.4.6-1.3 1.2.5.4.2.4-.4 1.2-1.2 1.2 1.2.4.3.4-.1 1.1-.6.7 1.3.2.4.5-.1h.4c-.2.5-.4.9-.5 1.3-1.2-.7-2.8-1.1-4.4-1.1-1.6 0-3.2.4-4.4 1.1-.1-.4-.3-.8-.5-1.3l.4.1zM56.7 28.7c2.8 0 3.7-2.9 3.8-3l.3-1h-1.1c-.4 0-3.5-.1-5.7-2.9l-.2-.3c-1.4-1.8-2.8-3.6-5.2-4.4.1-.1.2-.1.3-.2 1.3-.8 2-1.9 2.2-3.1.3-1.8-.9-3.2-.9-3.3l-.8-1-.5 1.1c0 .1-.9 1.9-2.6 1.9h-.4c.1-.8-.1-2.1-1.2-3.3-1.4-1.4-3.1-1.6-4-1.6-.5 0-.8.1-.8.1l-1.2.2.7 1c.6.7 1.1 2.1.5 2.8-.2.2-.6.4-1 .6-.8.4-1.9.9-1.9 2.2 0 .8.7 1.7 1.8 2.5 3.5 2.2 5.7 4.5 6.6 7 1.4 3.9-.4 6.1-2.3 7.3l-.8.5.7.7c.1.1 1 .9 2.3 1h.7c.8 0 1.5-.1 2.1-.3-.2.3-.4.6-.6.8-1 1.2-2.3 1.8-4.2 1.8h-.7l-.1.7c0 .1-.1 1.4 1.1 2.5.2.2.4.3.6.4-.8.7-1.7 2-1.8 4.2-.1 1.8-.6 2.5-.6 2.5l-.8 1.2h1.4c2.3 0 4-.6 5.2-1.9.7-.7 1.1-1.6 1.4-2.3.4.3.9.6 1.6.8.3.1.5.1.8.1.6 0 1.2-.1 1.2-.1l.9-.2-.2-.7c0-.1-.8-1.7 0-4 .3-1 .5-1.9.6-2.6.6.3 1.3.5 2.2.5 2.2 0 3.1-1.6 3.2-1.7l.4-.7-.7-.4c-2.6-1.1-3.2-3.9-3.3-5.5.2 0 .5.1.8.1h.2zm2 6.1s-.8 1.3-2.5 1.3c-2.1 0-2.9-1.3-2.9-1.3s.1 1.7-.6 3.9c-.9 2.7 0 4.6 0 4.6s-.5.1-1 .1c-.2 0-.4 0-.6-.1-1.7-.4-2.2-2-2.2-2s.2 5.3-6.1 5.3c0 0 .5-.7.7-2.9.3-4 3-4.5 3-4.5s-1.4-.2-2.1-.7c-1-.9-.9-1.9-.9-1.9 2.2 0 3.6-.8 4.7-2 1.2-1.4 1.4-2.8 1.4-2.8s-1.2 1.1-3.5 1.1h-.6c-1.1-.1-1.8-.8-1.8-.8 2.4-1.5 4-4.2 2.6-8.2-1.2-3.2-4-5.6-6.9-7.4-1-.6-1.5-1.3-1.5-1.8 0-1.3 1.9-1.4 2.7-2.3.9-1 .3-2.7-.4-3.8 0 0 .3-.1.7-.1.8 0 2.2.2 3.4 1.4 1.6 1.6.9 3.4.9 3.4l.4.1c.2.1.5.1.8.1h.2c2.3 0 3.3-2.4 3.3-2.4s2.4 3-1.1 5.3c-.6.4-.9.8-.8 1.2l.1.3h.3c2.6.7 3.9 2.5 5.4 4.5 2.4 3.1 5.8 3.2 6.2 3.2 0 0-.8 2.5-3.1 2.5h-.1c-1.1 0-1.6-.4-1.6-.4s-.6 5.4 3.5 7.1"/><path d="M51.7 17.6c1 .6 1.7 1.3 2.2 2 .5.6 1 1.3 1.8 1.5.3.1.6.1.9.1 1.2 0 2.3-.7 2.8-1.7l.4-1-1.1-.1c-.1 0-1.4-.1-3-1.7-.6-.7-1.4-1-2.2-1-1 0-1.8.5-1.9.6l-1 .7 1.1.6zm1.8-1.1c.5 0 1.1.2 1.7.8 1.8 1.8 3.5 1.9 3.5 1.9-.3.7-1.2 1.3-2.1 1.3-.2 0-.4 0-.6-.1-1.2-.4-1.7-2.3-3.9-3.4 0-.1.6-.5 1.4-.5M52.2 27.5c-.6-5-4.3-8.7-8.4-10.9-.4-.2-.7-.4-1.1-.5 1.2.2 3.3.2 4.8-1.1 0 0-2.4 1.8-7.3.2 1.3.9 4 2.1 6.4 4.1 6 5.3 1.7 10.4 1.7 10.4 2.1-2.2 2.2-4.6 1.6-6.6 1.1 1.9 1.9 4.2 1.7 7-.2 4-2.4 7.5-4.7 10.3-1.1 1.4-1.4 3-1.4 3s.5-1.5 1.8-3c2.5-2.9 4.6-6 4.9-10.4.3.8 1.3 3 3 3.8.1-.1-2-1.3-3-6.3M20.3 46.3s-.4-.7-.6-2.5c-.2-2.2-1-3.5-1.8-4.2.2-.1.5-.3.6-.4 1.2-1.1 1.2-2.4 1.1-2.5V36h-.7c-1.8 0-3.1-.6-4.2-1.8-.2-.3-.4-.6-.6-.8.6.2 1.3.3 2.1.3h.7c1.3-.1 2.2-.9 2.3-1l.7-.7-.8-.5c-1.8-1.2-3.7-3.4-2.3-7.3.9-2.5 3.1-4.8 6.6-7 1.2-.7 1.8-1.6 1.8-2.5 0-1.3-1.1-1.8-1.9-2.2-.4-.2-.8-.4-1-.6-.4-.7.1-2.1.7-2.9l.7-1-1.2-.2s-.3-.1-.8-.1c-.9 0-2.6.2-4 1.6-1.2 1.2-1.3 2.5-1.2 3.3H16c-1.7 0-2.6-1.8-2.6-1.9l-.4-1-.8 1c0 .1-1.2 1.5-.9 3.3.2 1.2.9 2.2 2.2 3.1.1.1.2.2.3.2-2.4.8-3.8 2.5-5.2 4.4l-.2.3c-2.2 2.8-5.3 2.9-5.7 2.9H1.6l.3 1c0 .1 1 3 3.8 3h.1c.3 0 .6 0 .8-.1 0 1.3-.6 4.2-3.2 5.3l-.8.3.4.8c0 .1 1 1.7 3.2 1.7.9 0 1.7-.2 2.2-.5.1.6.3 1.5.6 2.5.8 2.3.1 4 0 4l-.4.8 1 .3c.1 0 .6.1 1.2.1.3 0 .6 0 .8-.1.7-.2 1.2-.5 1.6-.8.2.7.6 1.6 1.4 2.3 1.2 1.2 2.9 1.9 5.2 1.9h1.4l-.9-1.1zm-.6.4c-6.2 0-6.1-5.3-6.1-5.3s-.4 1.6-2.2 2c-.2.1-.4.1-.6.1-.6 0-1-.1-1-.1s.9-1.9 0-4.6c-.7-2.2-.6-3.9-.6-3.9s-.8 1.3-2.9 1.3c-1.7 0-2.5-1.3-2.5-1.3 4.2-1.7 3.7-7.3 3.7-7.3s-.5.4-1.6.4h-.1c-2.3 0-3.1-2.5-3.1-2.5.4 0 3.8-.1 6.2-3.2 1.6-2 2.9-3.8 5.4-4.5h.3l.1-.3c.1-.4-.2-.8-.8-1.2-3.5-2.3-1.1-5.3-1.1-5.3s1 2.4 3.3 2.4h.2c.3 0 .5 0 .8-.1l.4-.1s-.6-1.8.9-3.4c1.2-1.2 2.6-1.4 3.4-1.4.4 0 .7.1.7.1-.8 1-1.3 2.7-.4 3.8.8.9 2.7.9 2.7 2.3 0 .6-.5 1.2-1.5 1.8-2.9 1.8-5.7 4.2-6.9 7.4-1.5 4 .2 6.7 2.6 8.2 0 0-.7.7-1.8.8h-.6c-2.3 0-3.5-1.1-3.5-1.1s.2 1.5 1.4 2.8c1.1 1.3 2.5 2 4.7 2 0 0 .1 1-.9 1.9-.6.6-2.1.7-2.1.7s2.7.5 3 4.5c0 2.4.5 3.1.5 3.1z"/><path d="M5.8 21.2c.3 0 .6 0 .9-.1.8-.3 1.3-.9 1.8-1.5.5-.7 1.1-1.4 2.2-2l1.1-.6-1-.7c-.1-.1-.8-.6-1.9-.6-.8 0-1.6.3-2.2 1-1.6 1.6-2.9 1.7-3 1.7l-1.1.1.4 1c.5 1 1.6 1.7 2.8 1.7m1.4-4c.6-.6 1.2-.8 1.7-.8.8 0 1.4.4 1.4.4-2.2 1.2-2.6 3-3.9 3.4-.2.1-.4.1-.6.1-.9 0-1.8-.6-2.1-1.3 0 .2 1.7.1 3.5-1.8M10.7 29.9c-.1-2.8.6-5.1 1.7-7-.6 2-.5 4.4 1.6 6.6 0 0-4.3-5.1 1.7-10.4 2.4-2 5-3.2 6.4-4.1-4.9 1.6-7.2-.2-7.2-.2 1.6 1.3 3.6 1.3 4.8 1.1-.3.2-.7.3-1.1.5-4.1 2.2-7.8 5.9-8.4 11-1 5-3.1 6.3-3.1 6.3 1.7-.8 2.8-3 3-3.8.3 4.4 2.4 7.4 4.9 10.4 1.3 1.5 1.8 3 1.8 3s-.3-1.7-1.4-3c-2.3-2.9-4.5-6.4-4.7-10.4M29.8 19.6v1c.3-.4 1-.3 1-.3v1.5s0 .7-.3 1H32c-.3-.3-.3-1-.3-1v-1.5s.7-.1 1 .3v-1h-2.9zM29.2 13.6c.5.4.7.4.7.4l.2.1v-.9l-1.7-.7s0 .5.8 1.1M33.2 13.6c.8-.6.8-1.1.8-1.1l-1.7.7v.9l.2-.1c0 .1.3 0 .7-.4"/><path d="M36.3 9.8c0-1.4-2.4-2.7-5.1-2.7-2.7 0-5.1 1.3-5.1 2.7l.1.4 1.1 6.1-1.1.6-2.8 1.6s-.6.3-.9.5c-1.1.7-1.3 1.8-.7 2.2.2-.9.8-1.8 2.1-1.8.9 0 1.6.5 2.2 1.2.1.2.3.4.4.6.2.3.3.5.5.7h-7.2c.5 1.1 1 2.2 1 3.4v15.8c0 3.8 2.9 5.7 6.1 5.7 2.5 0 2.8-.1 4.2 1.2 1.4-1.4 1.7-1.2 4.2-1.2 3.2 0 6.1-1.8 6.1-5.7V25.4c0-1.2.5-2.3 1-3.4h-7.2c.2-.2.3-.5.5-.7.1-.2.3-.4.4-.6.6-.7 1.3-1.2 2.2-1.2 1.3 0 2 .9 2.1 1.8.6-.4.4-1.5-.7-2.2-.3-.2-.9-.5-.9-.5L36 17l-1.1-.6 1.1-6.1.3-.5zm-9.2.7l3.8 1.3v5.9l-2.8-1.5-1-5.7zm.8 12.5c.6.6 1.2 1 1.8 1.2-.1.3-.2.9.1 1.5.2.5.6.9 1.2 1.1.1.6.4 1.5 1.5 1.9l-1.1 1.1-4.3-.1c-.1 0-.3-.2-.3-.3v-.1l.7.1c.1 0 .3-.1.3-.2 0-.2-.1-.3-.2-.3l-.9-.1 1-3.3-.9-1.9-1.5 1.5-.1 3.4-1-.2c-.2 0-.3.1-.3.2 0 .2.1.3.2.3l.4.1c-.1.1-.2.1-.3.2l-.1.1v.1c-.2 1 .3 1.9.9 2.3v.1c0 .1 0 .3.1.4.1.1.2.2.4.2h.1c.3 0 .5-.2.5-.4h.7l5.6 1 .1-.1c.4-.3 2.2-1.6 2.7-2 .2.1.3.3.5.4-.2.6-.2 1.6.5 2.3H21.9v-8.3c0-.8-.2-1.6-.5-2.4h6.5zm7 7.6c-.6.4-2 1.5-2.6 1.9l-5.1-.9v-.1c.1-.3.1-.6.1-1.1l4.3.1.1-.1 2.1-2.1.6.6c0 .4.1 1.1.5 1.7m-8.6-.9c.1.3.3.4.5.5 0 .2 0 .6-.1.9 0 .1 0 .1-.1.2v.1c-.2 0-.7 0-1-.2-.4-.1-1-.9-.9-1.7.2-.1.6-.3 1-.3.3.1.5.2.6.5m-.5-1l.1-3.3.7-.8.5 1-.9 3.2-.4-.1zm9.1 17.1h-.8l.6-1.9c.1-.3-.4-.6-.6-.9.3.2 1.1.6 1.5.8-.1.1-.7 2-.7 2m1.9-2.1l-.4 2.1c-.3 0-.5.1-.8.1l.4-2c.1-.6-1.5-.8-2.3-1.9-.4.4-1.1.6-1.8.6s-1.3-.1-1.7-.2h-.3c-.2 0-.4.1-.6.3l-.1.2-2.2-.7-.5.9c-.1.1-.1.3 0 .4l.1.2c-.1.3-.6.8-.6.8l-.3-.4c-.3-.3-.2-.8.1-1.3l.9-1.5 1.8.3-.3-.7c-.4-.9.2-2 .3-2.6 0 .2-.2.2-.4.2h-.6l-.5.3-.4-.3c0-.1-.1-.2.1-.3l.9-1-1.1-1.3 1.5.8.5-.6c.1.1.1.4.1.4.5 0 1.8.7 1.9 2.4V39.2c.1.1.4.5.7.5l2.1.2c.2 0 .7-.3 1.3-.3.3 0 .7.1 1 .3 0 0 .2-.2.5-.2h.1c.9 0 1.3.8 1.8 1.5.4.5.9 1.3.9 1.3-.2.2-.4.3-.6.3H38c-1-.2-1.1-2.2-1.7-2.4h-.1c-.2 0-.3.2-.3.2.3.7.1 1 .4 1.5.2.4.6.7.7.9-.1.1-.2.5-.2.7m-11.2-2l.1.2c-.1.2-.8.5-.8.5l-.2-.3c-.2-.4-.1-1 .4-1.4l1.2-.7 1.2.3c0 .4.2.7.2.7l-1.3-.3-.8.5c-.1.2-.1.4 0 .5M37 45.6l.4-1.9c0-.1 0-.2.1-.3.1 0 .2.1.3.1h.4c.5 0 .9-.3 1.1-.5l.3-.3-.2-.4s-.5-.8-.9-1.4c-.1-.1-.1-.2-.2-.3-.4-.6-1-1.5-2.1-1.5h-.1c-.2 0-.3 0-.5.1-.3-.2-.7-.2-1.1-.2-.5 0-.8.1-1.1.2-.1 0-.1 0-.2.1l-2-.2-.2-.2.4-.2c-.1-1.5-1.5-2.4-2.3-2.7 0-.1-.1-.3-.2-.4l-.4-.4-.5.5-.2.3-2.9-1.2 1.9 2.3-.8 1.1c-.3.3 0 .6 0 .6l.8.5.8-.3h.1c0 .1-.1.6-.1.7l-1.4-.3-1.4.8c-.7.5-.8 1.4-.6 2l.2.3.2.5.5-.2c-.2.6-.1 1.1.2 1.5l.3.4.4.5.4-.5c.1-.1.6-.6.7-1l.1-.3-.2-.1.2-.4 1.8.4.4.1.2-.4.1-.2H30c.7.1 1.3.2 1.8.2s.9 0 1.2-.1l1 1.1-.6 1.8v.1c-1.1.1-1.6.3-2.3 1-.9-.9-1.6-1-4.2-1-3 0-5.1-1.8-5.1-4.6v-7h18.5v7c.2 2.2-1.2 3.8-3.3 4.3M41 23c-.3.7-.5 1.6-.5 2.4v5.2c-1.1-.2-1.2-1.4-1.2-1.4V29h-.2c-.5 0-.8-.2-1-.5-.5-.5-.5-1.4-.5-1.4s-.6.9.1 1.7c.3.4.7.6 1.2.7.1.6.6 1.6 1.7 1.7v2.5h-3.2c-1.5-.8-.9-2.3-.8-2.3l.1-.3-.4-.1c-1.6-.6-1.2-2.2-1.1-2.3l.1-.2-.3-.1c-1.3-.6-1.1-2.3-1.1-2.3-.4.3-.6 1-.3 1.7l-.6.6c-1.4-.3-1.4-1.6-1.4-1.7v-.2l-.2-.1c-.5-.2-.9-.5-1.1-.9-.2-.4-.1-.9-.1-1.1.2 0 .3.1.5.1h1c.9-.1 1.8-.5 2.8-1.4H41zm-5-5.2l1.3.7.3.2c-.7.2-1.3.6-1.7 1h-.1c-.1.1-.2.2-.3.4l-.1.1c-.1.1-.2.3-.3.4v.1c-.1.2-.2.3-.3.5-.9 1.6-2.3 2.5-3.6 2.5-1.3 0-2.7-.9-3.6-2.5-.1-.2-.2-.3-.3-.5 0 0 0-.1-.1-.1-.1-.1-.2-.3-.3-.4 0 0 0-.1-.1-.1l-.3-.3-.1-.1c-.5-.5-1-.8-1.7-1l.3-.2 1.3-.7 1.3-.7 3.5 1.9 3.5-1.9 1.4.7zm-1.7-1.6l-2.8 1.5v-5.9l3.8-1.3-1 5.7zm-3.1-5.1l-4.1-1.6c.4-.8 2-1.5 4.1-1.5 2.2 0 3.8.7 4.1 1.5l-4.1 1.6z"/><g><path d="M87.4 30.2c.2-.3.4-.6.6-1h.1v7.2h3.3V24.2h-3.3l-3.7 5.6-.6.9c-.2.3-.4.6-.6 1h-.1v-7.5h-3.3v12.2h3.3c.6-.9 1.2-1.7 1.8-2.6.6-.9 1.2-1.8 1.8-2.6.3-.3.5-.6.7-1M97.8 31.4h4.9v5.1h3.3V24.2h-3.3v4.7h-4.9v-4.7h-3.3v12.3h3.3zM119.5 32.6c0-1.3-.4-2.2-1.3-2.9-.9-.7-2-1-3.5-1h-2.4v-4.4H109v12.3h5.8c1.4 0 2.5-.3 3.4-.9.9-.8 1.3-1.8 1.3-3.1m-3.8 1.1c-.3.2-.8.4-1.3.4h-2.1v-3h2.1c.5 0 1 .1 1.3.4.3.3.5.6.5 1.1 0 .5-.1.8-.5 1.1M161.7 34.9c.6-.5 1-1.2 1.4-2 .3-.8.5-1.6.5-2.6 0-.9-.2-1.8-.5-2.5-.3-.8-.8-1.4-1.3-1.9-.6-.5-1.3-1-2.1-1.3-.8-.3-1.7-.5-2.6-.5v-4.6l-3.1 1.2V24c-.9.1-1.8.2-2.6.6-.8.3-1.5.8-2.1 1.3-.6.5-1 1.2-1.4 1.9-.3.7-.5 1.6-.5 2.5 0 1 .2 1.9.5 2.6.3.8.8 1.4 1.3 2 .6.6 1.3 1 2.1 1.3.8.3 1.7.5 2.7.5V42l3.1-1.2v-4c.9 0 1.8-.2 2.5-.6.8-.3 1.5-.8 2.1-1.3m-7.7-.6c-.5 0-.9-.1-1.3-.3-.4-.2-.8-.4-1.1-.8-.3-.3-.6-.7-.7-1.2-.2-.5-.3-1-.3-1.7 0-1.1.3-2 .9-2.7.6-.7 1.4-1.1 2.5-1.2v7.9zm4.3-.3c-.4.2-.8.3-1.3.3v-7.9c1.1.1 1.9.5 2.5 1.2.6.7.9 1.6.9 2.7 0 .6-.1 1.2-.3 1.7-.2.5-.4.9-.7 1.2-.3.4-.7.6-1.1.8M180.8 32.9c.3-.8.5-1.6.5-2.6 0-.9-.2-1.8-.5-2.5-.3-.8-.8-1.4-1.3-1.9-.6-.5-1.3-1-2.1-1.3-.8-.3-1.7-.5-2.6-.5v-4.6l-3.1 1.2V24c-.9.1-1.8.2-2.6.6-.8.3-1.5.8-2.1 1.3-.6.5-1 1.2-1.4 1.9-.3.7-.5 1.6-.5 2.5 0 1 .2 1.9.5 2.6.3.8.8 1.4 1.3 2 .6.6 1.3 1 2.1 1.3.8.3 1.7.5 2.7.5V42l3.1-1.2v-4c.9 0 1.8-.2 2.5-.6.8-.3 1.5-.8 2-1.3.7-.6 1.2-1.2 1.5-2m-9 1.4c-.5 0-.9-.1-1.3-.3-.4-.2-.8-.4-1.1-.8-.3-.3-.6-.7-.7-1.2-.2-.5-.3-1-.3-1.7 0-1.1.3-2 .9-2.7.6-.7 1.4-1.1 2.5-1.2v7.9zm6.1-2.3c-.2.5-.4.9-.7 1.2-.3.3-.7.6-1.1.8-.4.2-.8.3-1.3.3v-7.9c1.1.1 1.9.5 2.5 1.2.6.7.9 1.6.9 2.7 0 .7-.1 1.2-.3 1.7M66.6 21.9h4.7v14.6h3.5V21.9h4.6V19H66.6zM133.1 24.3h-3.7l-4.4 5.2v-5.3h-3.2v12.3h3.2v-6l4.3 6h3.9l-4.9-6.6zM144.1 25.7c-.5-.6-1.2-1-1.9-1.3-.7-.3-1.5-.4-2.4-.4-.9 0-1.7.1-2.4.4-.7.3-1.4.7-1.9 1.3-.5.5-.9 1.2-1.2 2-.3.8-.4 1.7-.4 2.7 0 1 .1 1.8.4 2.6.3.8.7 1.5 1.2 2s1.1 1 1.9 1.3c.7.3 1.5.4 2.5.4.9 0 1.7-.1 2.4-.4.7-.3 1.4-.7 1.9-1.3.5-.6.9-1.2 1.2-2 .3-.8.5-1.7.5-2.7 0-1-.1-1.8-.4-2.6-.5-.8-.9-1.4-1.4-2m-1.8 6.2c-.1.5-.3.8-.5 1.2-.2.3-.5.6-.8.8-.3.2-.7.3-1.2.3-.9 0-1.6-.3-2-1-.5-.7-.7-1.6-.7-2.8 0-1.1.2-2 .7-2.7.5-.7 1.1-1.1 2-1.1.9 0 1.6.3 2.1 1s.7 1.6.7 2.7c-.2.6-.2 1.1-.3 1.6"/></g><g><path d="M193.5 19.8c1.1 0 2.1.2 2.9.6.8.4 1.6.9 2.2 1.7l-1.3 1.3c-.6-.6-1.1-1.1-1.8-1.4-.6-.3-1.3-.4-2.1-.4s-1.5.2-2.1.5c-.6.3-1.1.8-1.5 1.4-.4.6-.7 1.3-1 2.1-.2.8-.3 1.7-.3 2.6 0 .9.1 1.8.3 2.6.2.8.5 1.5.9 2.1.4.6.9 1.1 1.5 1.4.6.3 1.3.5 2.2.5 1.5 0 2.8-.6 3.9-1.9l1.3 1.2c-.6.7-1.4 1.3-2.2 1.7-.8.4-1.8.6-3 .6-1 0-1.9-.2-2.8-.6-.8-.4-1.6-.9-2.2-1.7-.6-.7-1.1-1.6-1.4-2.6-.3-1-.5-2.2-.5-3.5 0-1.3.2-2.5.5-3.5s.8-1.9 1.4-2.6c.6-.7 1.3-1.3 2.2-1.7 1-.2 1.9-.4 2.9-.4zM205.4 25.7v10.7h-1.8V25.7h-3.9v-1.5h9.6v1.5h-3.9zM221 30.2c0 1.2-.1 2.1-.4 3-.3.8-.7 1.5-1.2 2s-1 .9-1.6 1.1c-.6.2-1.2.4-1.8.4-.6 0-1.1-.1-1.7-.3-.5-.2-1-.6-1.6-1.1v5.1l-1.8.8V24.1h1.8v1.2c.6-.5 1.2-.9 1.8-1.1.6-.2 1.2-.3 1.8-.3.6 0 1.2.1 1.7.4.6.2 1.1.6 1.5 1.1.4.5.8 1.2 1 1.9.3.9.5 1.8.5 2.9zm-1.8 0c0-1.5-.3-2.6-.9-3.5-.6-.8-1.4-1.3-2.3-1.3-.7 0-1.3.2-1.9.5-.5.4-1 .8-1.3 1.2v6.2c.3.5.8.8 1.3 1.2.5.3 1.1.5 1.7.5 1.1 0 1.9-.4 2.5-1.3.6-.7.9-1.9.9-3.5zM228.3 24c1.4 0 2.5.3 3.3 1 .8.7 1.1 1.6 1.1 3v8.5h-1.8v-1.2c-.7.6-1.3 1-1.9 1.2s-1.3.3-1.8.3-1-.1-1.5-.2-.9-.4-1.3-.7c-.4-.3-.7-.7-1-1.2-.2-.5-.4-1.1-.4-1.8 0-.6.1-1.1.3-1.6.2-.5.5-.9 1-1.2.4-.3.9-.6 1.5-.8.6-.2 1.2-.3 1.8-.3.5 0 1.1.1 1.6.2s1.1.3 1.7.7v-1.5c0-.9-.2-1.6-.7-2.1-.5-.4-1.2-.6-2.1-.6-.6 0-1.2.1-1.7.2l-1.5.6-.6-1.4c.6-.3 1.2-.5 1.9-.7.5-.3 1.3-.4 2.1-.4zm2.6 7.2c-.5-.3-1-.5-1.5-.7s-1.1-.3-1.8-.3c-.8 0-1.5.2-2 .6-.5.4-.8 1-.8 1.8s.2 1.4.7 1.8 1.1.6 2 .6c.6 0 1.3-.2 1.9-.5.6-.3 1.1-.7 1.6-1.2v-2.1zM241.9 36.4l-2.7-4.8-2.8 4.8h-2l3.8-6.3-3.5-5.9h2l2.5 4.4 2.5-4.4h2l-3.6 5.8 3.8 6.4h-2zM256 30.2c0 1-.1 1.9-.4 2.7-.3.8-.7 1.5-1.1 2-.5.6-1 1-1.7 1.3-.7.3-1.4.4-2.1.4-.8 0-1.5-.1-2.1-.4-.6-.3-1.2-.7-1.7-1.3-.5-.6-.8-1.2-1.1-2-.3-.8-.4-1.7-.4-2.7 0-1 .1-1.9.4-2.7.3-.8.6-1.5 1.1-2 .5-.5 1-.9 1.7-1.2.6-.3 1.3-.4 2.1-.4s1.5.1 2.1.4c.7.3 1.2.7 1.7 1.2s.8 1.2 1.1 2c.3.9.4 1.8.4 2.7zm-1.8.1c0-.7-.1-1.3-.2-1.9-.2-.6-.4-1.1-.7-1.5-.3-.4-.7-.8-1.1-1-.5-.2-1-.4-1.6-.4-.6 0-1 .1-1.5.4-.4.3-.8.6-1.1 1s-.5.9-.7 1.5c-.2.6-.2 1.2-.2 1.8 0 1.5.3 2.6.9 3.5.6.9 1.5 1.3 2.6 1.3.6 0 1.1-.1 1.5-.4.4-.3.8-.6 1.1-1 .3-.4.5-.9.7-1.5.2-.5.3-1.1.3-1.8zM265.8 29.8c.7.2 1.2.5 1.6 1.1.4.5.6 1.2.6 1.9 0 1.2-.4 2.1-1.2 2.7s-1.9.9-3.2.9h-5.3V24.2h5.4c1.1 0 2 .3 2.7.8.7.5 1.1 1.3 1.1 2.3 0 .5-.1 1-.4 1.5-.3.4-.7.8-1.3 1zm-5.6-4.1v3.4h3.4c.7 0 1.2-.2 1.5-.5.4-.3.5-.7.5-1.2s-.2-.9-.5-1.2c-.3-.3-.8-.5-1.5-.5h-3.4zm0 5v4.2h3.5c.9 0 1.6-.2 2-.6.4-.4.6-.9.6-1.6 0-.7-.2-1.2-.7-1.6-.5-.4-1.1-.5-1.8-.5h-3.6zM275.1 24c1.4 0 2.5.3 3.3 1 .8.7 1.1 1.6 1.1 3v8.5h-1.8v-1.2h-.1c-.7.6-1.3 1-1.9 1.2s-1.3.3-1.8.3-1-.1-1.5-.2-.9-.4-1.3-.7c-.4-.3-.7-.7-1-1.2-.2-.5-.4-1.1-.4-1.8 0-.6.1-1.1.3-1.6.2-.5.5-.9 1-1.2.4-.3.9-.6 1.5-.8.6-.2 1.2-.3 1.8-.3.5 0 1.1.1 1.6.2s1.1.3 1.7.7v-1.5c0-.9-.2-1.6-.7-2.1-.5-.4-1.2-.6-2.1-.6-.6 0-1.2.1-1.7.2l-1.5.6-.6-1.4c.6-.3 1.2-.5 1.9-.7.7-.3 1.4-.4 2.2-.4zm2.6 7.2c-.5-.3-1-.5-1.5-.7-.5-.2-1.1-.3-1.8-.3-.8 0-1.5.2-2 .6-.5.4-.8 1-.8 1.8s.2 1.4.7 1.8c.5.4 1.1.6 2 .6.6 0 1.3-.2 1.9-.5.6-.3 1.1-.7 1.6-1.2v-2.1zM290.5 36.4v-5.6h-6.4v5.6h-1.8V24.2h1.8v5.1h6.4v-5.1h1.8v12.2h-1.8zM302.9 27.1l-1.7 2.5-4.5 6.7h-1.8V24.2h1.8v9.4h.1l1.8-2.7 4.4-6.7h1.8v12.2H303l-.1-9.3zM312.4 24c.8 0 1.5.1 2.2.4.6.3 1.2.7 1.6 1.3.4.5.8 1.2 1 2 .2.8.3 1.6.3 2.5v.8H309c.1 1.4.5 2.4 1.1 3.1s1.5 1.1 2.4 1.1c.5 0 1.1-.1 1.6-.3.5-.2.9-.5 1.3-.9l1.1 1.1c-1.1 1.1-2.5 1.6-4.1 1.6-.7 0-1.3-.1-2-.4-.6-.3-1.2-.7-1.7-1.2s-.9-1.2-1.1-2c-.3-.8-.4-1.7-.4-2.7 0-1 .1-1.9.4-2.7.3-.8.6-1.5 1.1-2 .5-.6 1-1 1.6-1.3.7-.3 1.4-.4 2.1-.4zm3.3 5.5c0-.6-.1-1.1-.2-1.6s-.3-.9-.6-1.3-.6-.6-1-.9c-.4-.2-.9-.3-1.5-.3-.4 0-.8.1-1.2.3-.4.2-.7.5-1 .8-.3.4-.5.8-.7 1.3-.2.5-.3 1-.3 1.6h6.5z"/></g></svg>