<?xml version="1.0" encoding="utf-8"?>
<!-- Generator: Adobe Illustrator 21.0.2, SVG Export Plug-In . SVG Version: 6.00 Build 0)  -->
<svg version="1.1" id="Layer_1" xmlns="http://www.w3.org/2000/svg" xmlns:xlink="http://www.w3.org/1999/xlink" x="0px" y="0px"
	 viewBox="0 0 154.8 205.7" style="enable-background:new 0 0 154.8 205.7;" xml:space="preserve">
<style type="text/css">
	.st0{fill:#87BA5C;}
	.st1{fill:#28637C;}
</style>
<g>
	<path class="st0" d="M78.3,3.8V37c0,2.1,1.7,3.8,3.8,3.8s3.8-1.7,3.8-3.8V3.8c0-2.1-1.7-3.8-3.8-3.8C80,0,78.3,1.7,78.3,3.8
		L78.3,3.8z M78.3,3.8"/>
	<path class="st0" d="M151,74.5h-33.1c-2.1,0-3.8,1.7-3.8,3.8s1.7,3.8,3.8,3.8H151c2.1,0,3.8-1.7,3.8-3.8S153.1,74.5,151,74.5
		L151,74.5z M151,74.5"/>
	<path class="st0" d="M9.4,78.3c0,2.1,1.7,3.8,3.8,3.8h33.1c2.1,0,3.8-1.7,3.8-3.8s-1.7-3.8-3.8-3.8H13.2
		C11.1,74.5,9.4,76.2,9.4,78.3L9.4,78.3z M9.4,78.3"/>
	<path class="st0" d="M30,25.5c0.7-0.7,1.1-1.7,1.1-2.7c0-1-0.4-2-1.1-2.7c-0.7-0.7-1.7-1.1-2.7-1.1c-1,0-2,0.4-2.7,1.1
		c-0.7,0.7-1.1,1.7-1.1,2.7c0,1,0.4,2,1.1,2.7c0.7,0.7,1.7,1.1,2.7,1.1C28.3,26.6,29.3,26.2,30,25.5L30,25.5z M30,25.5"/>
	<path class="st0" d="M40.3,35.7c-1.5,1.5-1.5,3.9,0,5.4c0.8,0.8,1.7,1.1,2.7,1.1c1,0,2-0.4,2.7-1.1c1.5-1.5,1.5-3.9,0-5.4
		C44.2,34.3,41.7,34.3,40.3,35.7L40.3,35.7z M40.3,35.7"/>
	<path class="st0" d="M37.8,33.3c1.5-1.5,1.5-3.9,0-5.4c-1.5-1.5-3.9-1.5-5.4,0c-1.5,1.5-1.5,3.9,0,5.4c0.8,0.8,1.7,1.1,2.7,1.1
		C36.1,34.4,37.1,34.1,37.8,33.3L37.8,33.3z M37.8,33.3"/>
	<path class="st0" d="M48.1,43.6c-0.7,0.7-1.1,1.7-1.1,2.7c0,1,0.4,2,1.1,2.7c0.7,0.7,1.7,1.1,2.7,1.1c1,0,2-0.4,2.7-1.1
		c0.7-0.7,1.1-1.7,1.1-2.7c0-1-0.4-2-1.1-2.7c-0.7-0.7-1.7-1.1-2.7-1.1C49.8,42.4,48.8,42.9,48.1,43.6L48.1,43.6z M48.1,43.6"/>
	<path class="st0" d="M130.6,22.6c-0.7,0.7-1.1,1.7-1.1,2.7c0,1,0.4,2,1.1,2.7c0.7,0.7,1.7,1.1,2.7,1.1c1,0,2-0.4,2.7-1.1
		c0.7-0.7,1.1-1.7,1.1-2.7c0-1-0.4-2-1.1-2.7c-0.7-0.7-1.7-1.1-2.7-1.1C132.3,21.4,131.3,21.8,130.6,22.6L130.6,22.6z M130.6,22.6"
		/>
	<path class="st0" d="M117.7,44.6c1,0,1.9-0.4,2.7-1.1c1.5-1.5,1.5-3.9,0-5.4c-1.5-1.5-3.9-1.5-5.4,0c-1.5,1.5-1.5,3.9,0,5.4
		C115.8,44.3,116.7,44.6,117.7,44.6L117.7,44.6z M117.7,44.6"/>
	<path class="st0" d="M122.8,30.3c-1.5,1.5-1.5,3.9,0,5.4c0.8,0.8,1.7,1.1,2.7,1.1c1,0,1.9-0.4,2.7-1.1c1.5-1.5,1.5-3.9,0-5.4
		C126.7,28.9,124.3,28.9,122.8,30.3L122.8,30.3z M122.8,30.3"/>
	<path class="st0" d="M106.1,48.7c0,1,0.4,2,1.1,2.7c0.7,0.7,1.7,1.1,2.7,1.1c1,0,2-0.4,2.7-1.1c0.7-0.7,1.1-1.7,1.1-2.7
		c0-1-0.4-2-1.1-2.7c-0.7-0.7-1.7-1.1-2.7-1.1c-1,0-2,0.4-2.7,1.1C106.5,46.7,106.1,47.7,106.1,48.7L106.1,48.7z M106.1,48.7"/>
	<path class="st1" d="M154.1,127.3c0-11.8-9.6-21.4-21.4-21.4H99.5V82c0-10.1-2.9-17.4-8.8-21.6c-9.2-6.8-21.9-2.9-22.4-2.7
		c-1.6,0.5-2.6,2-2.6,3.6v26.9c0,21.2-24.6,28.4-25.6,28.7c-0.5,0.1-0.9,0.4-1.3,0.7c-1.3-1.6-3.3-2.7-5.5-2.7H7.1
		c-3.9,0-7.1,3.2-7.1,7.1v73.7c0,3.9,3.2,7.1,7.1,7.1h26.1c2.6,0,4.9-1.4,6.1-3.6c3.9,3.7,9,5.9,14.8,5.9h65.7
		c14.5,0,23.8-7.6,25.4-20.9l8.8-56.2C154.1,127.7,154.1,127.5,154.1,127.3L154.1,127.3z M32.7,195H7.6v-72.7h25.1V195z M137.7,183
		v0.1c-1.2,9.5-7.2,14.3-17.9,14.3H54.1c-7.6,0-13.8-6.2-13.8-13.8v-59.5c0.6,0.1,1.2,0.1,1.8,0c1.3-0.3,31.1-9,31.1-36V64.2
		c3.3-0.5,8.9-0.8,13,2.2c3.8,2.8,5.7,8,5.7,15.5v27.8c0,2.1,1.7,3.8,3.8,3.8h37c7.5,0,13.6,6,13.8,13.5L137.7,183z M137.7,183"/>
</g>
</svg>
