<?xml version="1.0" encoding="utf-8"?>
<!-- Generator: Adobe Illustrator 21.0.2, SVG Export Plug-In . SVG Version: 6.00 Build 0)  -->
<svg version="1.1" id="Слой_1" xmlns="http://www.w3.org/2000/svg" xmlns:xlink="http://www.w3.org/1999/xlink" x="0px" y="0px"
	 viewBox="0 0 29.7 21.6" style="enable-background:new 0 0 29.7 21.6;" xml:space="preserve">
<style type="text/css">
	.st0{fill:#87BA5C;}
	.st1{fill:#28637C;}
</style>
<g>
	<circle class="st0" cx="3.7" cy="18.1" r="0.7"/>
	<path class="st1" d="M29.7,13.5c-0.2,0.7-0.7,1.1-1.3,1.5c-3,1.9-6,3.9-8.9,5.9c-1.2,0.8-2.4,0.9-3.8,0.4c-2.3-0.9-4.6-1.9-7-2.8
		c-0.3-0.1-0.6-0.2-0.9-0.2c-0.3,0-0.6,0-1,0c0,0.8,0,1.5,0,2.3c-2.3,0-4.6,0-6.9,0C0,16.3,0,12,0,7.6c2.3,0,4.5,0,6.8,0
		c0,0.8,0,1.5,0,2.3c0.5,0,0.9,0,1.4,0c1.6,0,3,0.4,4.4,1.3c0.6,0.4,1.2,0.8,1.8,1.1c0.1,0.1,0.3,0.1,0.5,0.1c2,0,4.1,0,6.1,0
		c0.5,0,0.9,0.1,1.3,0.4c0.4,0.3,0.6,0.7,0.7,1.2c0.1-0.1,0.2-0.1,0.3-0.2c1.2-0.8,2.4-1.5,3.6-2.3c1-0.6,2.1-0.3,2.6,0.6
		c0.1,0.2,0.1,0.4,0.2,0.6C29.7,13.1,29.7,13.3,29.7,13.5z M6.9,17.3c0.4,0,0.7,0,1.1,0c0.4,0,0.7,0.1,1.1,0.2
		c2.4,1,4.8,1.9,7.2,2.9c0.9,0.4,1.8,0.3,2.6-0.2c3.2-2.1,6.3-4.1,9.5-6.2c0.5-0.3,0.6-0.8,0.3-1.2c-0.3-0.4-0.8-0.5-1.2-0.2
		c-1.7,1-3.4,2.1-5,3.1c-0.5,0.3-0.9,0.4-1.4,0.4c-2.1,0-4.3,0-6.4,0c-0.5,0-0.8,0.2-0.9,0.7c0,0,0,0,0,0.1c-0.3,0-0.6,0-0.9,0
		c0-0.1,0-0.3,0.1-0.4c0.2-0.8,0.9-1.3,1.8-1.3c2.1,0,4.3,0,6.4,0c0.1,0,0.2,0,0.3,0c0.4,0,0.8-0.4,0.8-0.8c0-0.4-0.3-0.8-0.7-0.8
		c-0.1,0-0.3,0-0.4,0c-2.1,0-4.2,0-6.3,0c-0.2,0-0.4-0.1-0.5-0.2c-0.8-0.5-1.6-1-2.5-1.6c-1.5-0.9-3.1-0.9-4.7-0.8
		C6.9,13.1,6.9,15.2,6.9,17.3z M5.9,19.6c0-3.7,0-7.4,0-11.1c-1.7,0-3.3,0-5,0c0,3.7,0,7.4,0,11.1C2.6,19.6,4.2,19.6,5.9,19.6z"/>
	<path class="st1" d="M22.9,5.1c0,2.8-2.3,5.1-5.1,5.1c-2.8,0-5.1-2.3-5.1-5.1C12.7,2.3,15,0,17.8,0C20.6,0,22.9,2.3,22.9,5.1z
		 M17.8,9.3c2.3,0,4.2-1.9,4.2-4.2c0-2.3-1.9-4.2-4.2-4.2c-2.3,0-4.2,1.9-4.2,4.2C13.7,7.4,15.5,9.3,17.8,9.3z"/>
	<path class="st0" d="M17.3,2.6c0-0.1,0-0.2,0-0.3c0.3,0,0.6,0,0.9,0c0,0.1,0,0.2,0,0.3c0.9,0.3,1.3,0.7,1.3,1.5c-0.3,0-0.6,0-0.9,0
		c-0.2-0.5-0.3-0.5-0.8-0.5c-0.2,0-0.3,0-0.5,0c-0.3,0-0.5,0.3-0.4,0.5c0,0.3,0.2,0.5,0.5,0.5c0.2,0,0.3,0,0.5,0
		c1.1-0.1,1.6,0.7,1.7,1.3c0.1,0.8-0.4,1.4-1.3,1.6c0,0.1,0,0.2,0,0.3c-0.3,0-0.6,0-0.9,0c0-0.1,0-0.2,0-0.3C16.5,7.3,16,6.9,16,6.1
		c0.3,0,0.6,0,0.9,0c0.2,0.5,0.3,0.5,0.8,0.5c0.2,0,0.3,0,0.5,0c0.3,0,0.5-0.3,0.5-0.5c0-0.3-0.2-0.5-0.5-0.5c-0.2,0-0.4,0-0.6,0
		c-0.9,0-1.5-0.5-1.6-1.3C15.9,3.5,16.4,2.8,17.3,2.6z"/>
</g>
</svg>
