<?xml version="1.0" encoding="utf-8"?>
<!-- Generator: Adobe Illustrator 21.0.2, SVG Export Plug-In . SVG Version: 6.00 Build 0)  -->
<svg version="1.1" id="Layer_1" xmlns="http://www.w3.org/2000/svg" xmlns:xlink="http://www.w3.org/1999/xlink" x="0px" y="0px"
	 viewBox="0 0 343.4 391.7" style="enable-background:new 0 0 343.4 391.7;" xml:space="preserve">
<style type="text/css">
	.st0{fill:#85B856;}
	.st1{fill:#26637D;}
</style>
<g>
	<path class="st0" d="M111.9,117.1c-3.3-1.5-6.6-3-9.8-4.5c-4.1-1.8-8.7-1-11.6,1.9c-1.8,1.8-2.9,4.4-2.9,7.1c0,2.5,0.9,4.4,1.4,5.4
		l66,146.2c2.6,5.7,6.7,6.9,9.8,6.9h0.6c3-0.2,7-1.5,9.4-7.4l7.4-18.3c4.6-11.4,9.2-22.9,13.8-34.3c12.6-5,25-10,37.6-15l15.3-6.1
		c6-2.4,7.3-6.6,7.3-9.7c0-3-1.1-7.2-6.9-9.8c-37.9-17.3-75.9-34.5-113.8-51.8L111.9,117.1z M227.4,190.4
		c-13.5,5.4-27.1,10.9-40.7,16.2c-2,0.8-3.6,2.4-4.4,4.4c-5,12.5-10,25-15,37.4l-2.9,7.1l-55.3-122.4l19.4,8.9
		c34.2,15.6,68.5,31.2,102.7,46.7L227.4,190.4z M227.4,190.4"/>
	<path class="st1" d="M98.5,351.2c1.1,0.5,2.2,0.7,3.4,0.7c3,0,5.8-1.7,7.2-4.6c1.8-3.9,0.2-8.6-3.8-10.6
		c-54.5-25.7-88.8-79-89.4-139.3c-1-85,66.7-155.2,151.4-157.6l-10.6,10.8c-3,3.1-3,8.2,0.2,11.2c1.5,1.5,3.5,2.2,5.5,2.2
		c2.1,0,4.1-0.8,5.7-2.4L192,37.3c3-3.1,3-8.2-0.2-11.2L167.4,2.3c-3.1-3-8.2-3-11.2,0.2c-3,3.1-3,8.2,0.2,11.2l10.9,10.6
		C73.7,26.7-1.1,104,0,197.9c0.4,32.9,10.1,64.6,28,92C45.4,316.5,69.8,337.7,98.5,351.2L98.5,351.2z M98.5,351.2"/>
	<path class="st1" d="M176,389.5c1.5,1.5,3.5,2.2,5.5,2.2c2.1,0,4.1-0.8,5.7-2.4c3-3.1,3-8.2-0.2-11.2l-10.9-10.6
		c93.5-2.4,168.3-79.8,167.2-173.6c-0.4-32.9-10.1-64.6-28-92c-17.4-26.6-41.8-47.8-70.6-61.4c-4-1.8-8.6-0.2-10.6,3.8
		c-1.8,3.9-0.2,8.6,3.8,10.6c54.5,25.7,88.8,79,89.4,139.3c1,85-66.7,155.2-151.4,157.6l10.6-10.8c3-3.1,3-8.2-0.2-11.2
		c-3.1-3-8.2-3-11.2,0.2l-23.9,24.5c-3,3.1-3,8.2,0.2,11.2L176,389.5z M176,389.5"/>
</g>
</svg>
