<?xml version="1.0" encoding="utf-8"?>
<!-- Generator: Adobe Illustrator 21.0.2, SVG Export Plug-In . SVG Version: 6.00 Build 0)  -->
<svg version="1.1" id="Layer_1" xmlns="http://www.w3.org/2000/svg" xmlns:xlink="http://www.w3.org/1999/xlink" x="0px" y="0px"
	 viewBox="0 0 335.5 339.7" style="enable-background:new 0 0 335.5 339.7;" xml:space="preserve">
<style type="text/css">
	.st0{fill:#85B856;}
	.st1{fill:#26637D;}
</style>
<path class="st0" d="M70.9,177.3c1.9,0,3.8-0.8,5.2-2.2c1.4-1.4,2.2-3.3,2.2-5.2s-0.8-3.8-2.2-5.2c-1.4-1.4-3.3-2.2-5.2-2.2
	c-1.9,0-3.8,0.8-5.2,2.2c-1.4,1.4-2.2,3.3-2.2,5.2c0,1.9,0.8,3.8,2.2,5.2C67.1,176.5,69,177.3,70.9,177.3z"/>
<path class="st0" d="M89.5,177.3c1.7,0,3.4-0.6,4.7-1.7c3.1-2.6,3.5-7.3,0.9-10.4c-2.6-3.1-7.3-3.5-10.4-0.9
	c-3.1,2.6-3.5,7.3-0.9,10.4C85.3,176.4,87.4,177.3,89.5,177.3z"/>
<g>
	<path class="st1" d="M297.5,0.3H38c-21,0-38,17-38,38v263.2c0,21,17,38,38,38h259.5c21,0,38-17,38-38V38.3
		C335.5,17.4,318.5,0.3,297.5,0.3z M320.8,301.6c0,12.8-10.4,23.2-23.2,23.2H38c-12.8,0-23.2-10.4-23.2-23.2V38.3
		c0-12.8,10.4-23.2,23.2-23.2h259.5c12.8,0,23.2,10.4,23.2,23.2L320.8,301.6L320.8,301.6z"/>
	<path class="st0" d="M127.2,241.7c-16.3,0-29.5,13.2-29.5,29.5s13.2,29.5,29.5,29.5s29.5-13.2,29.5-29.5S143.5,241.7,127.2,241.7z
		 M127.2,285.9c-8.1,0-14.7-6.6-14.7-14.7s6.6-14.7,14.7-14.7s14.7,6.6,14.7,14.7S135.3,285.9,127.2,285.9z"/>
	<path class="st0" d="M208.3,241.7c-16.3,0-29.5,13.2-29.5,29.5s13.2,29.5,29.5,29.5s29.5-13.2,29.5-29.5S224.6,241.7,208.3,241.7z
		 M208.3,285.9c-8.1,0-14.7-6.6-14.7-14.7s6.6-14.7,14.7-14.7c8.1,0,14.7,6.6,14.7,14.7S216.5,285.9,208.3,285.9z"/>
	<path class="st0" d="M219.2,109.4c1,0.5,2.1,0.7,3.1,0.7c2.8,0,5.4-1.6,6.7-4.2c1.7-3.7,0.2-8.1-3.5-9.8c-3.7-1.7-8.1-0.2-9.8,3.5
		C214,103.2,215.5,107.6,219.2,109.4z"/>
	<path class="st0" d="M139.8,101.1c0.5,0,1-0.1,1.6-0.2c4-0.9,6.5-4.8,5.6-8.8c-0.9-4-4.8-6.5-8.8-5.6c-4,0.9-6.5,4.8-5.6,8.8
		C133.3,98.7,136.4,101.1,139.8,101.1z"/>
	<path class="st0" d="M167.8,98.1c4.1,0,7.4-3.3,7.4-7.4c0-4.1-3.3-7.4-7.4-7.4c-4.1,0-7.4,3.3-7.4,7.4
		C160.4,94.8,163.7,98.1,167.8,98.1z"/>
	<path class="st0" d="M241.3,123.5c1.4,1.2,3.1,1.7,4.8,1.7c2.1,0,4.2-0.9,5.6-2.6c2.6-3.1,2.2-7.8-0.9-10.4
		c-3.1-2.6-7.8-2.2-10.4,0.9C237.8,116.2,238.2,120.8,241.3,123.5z"/>
	<path class="st0" d="M194.2,100.9c0.5,0.1,1,0.2,1.6,0.2c3.4,0,6.5-2.4,7.2-5.8c0.9-4-1.7-7.9-5.6-8.8c-4-0.9-7.9,1.7-8.8,5.6
		C187.7,96.1,190.2,100.1,194.2,100.9z"/>
	<path class="st0" d="M264.6,146.3c1.9,0,3.8-0.8,5.2-2.2c1.4-1.4,2.2-3.3,2.2-5.2s-0.8-3.8-2.2-5.2c-1.4-1.4-3.3-2.2-5.2-2.2
		c-1.9,0-3.8,0.8-5.2,2.2c-1.4,1.4-2.2,3.3-2.2,5.2s0.8,3.8,2.2,5.2C260.8,145.5,262.7,146.3,264.6,146.3z"/>
	<path class="st0" d="M295,33.5H40.6c-4.1,0-7.4,3.3-7.4,7.4v169.7c0,4.1,3.3,7.4,7.4,7.4H295c4.1,0,7.4-3.3,7.4-7.4V40.9
		C302.4,36.8,299.1,33.5,295,33.5z M167.8,186.9c10.5,0,19.4,6.9,22.5,16.3h-45.1C148.3,193.7,157.3,186.9,167.8,186.9z
		 M287.6,203.2h-82.1c-3.5-17.7-19.1-31.1-37.8-31.1c-2,0-3.9,0.1-5.8,0.4l-50.6-83.4c-2.1-3.5-6.6-4.6-10.1-2.5
		c-3.5,2.1-4.6,6.6-2.5,10.1l49,80.9c-9.1,5.5-15.7,14.7-17.9,25.5H47.9V48.3h239.7V203.2z"/>
</g>
</svg>
