<?xml version="1.0" encoding="utf-8"?>
<!-- Generator: Adobe Illustrator 21.0.2, SVG Export Plug-In . SVG Version: 6.00 Build 0)  -->
<svg version="1.1" id="Layer_1" xmlns="http://www.w3.org/2000/svg" xmlns:xlink="http://www.w3.org/1999/xlink" x="0px" y="0px"
	 viewBox="0 0 391.9 258.3" style="enable-background:new 0 0 391.9 258.3;" xml:space="preserve">
<style type="text/css">
	.st0{fill:#85B856;}
	.st1{fill:#26637D;}
</style>
<g>
	<path class="st0" d="M0.8,133.8c1,1.9,2.6,3.4,4.6,4L55.4,155c0.9,0.3,1.7,0.4,2.6,0.4c3.3,0,6.4-2.1,7.5-5.4l39.3-114.6l2,0.7
		c10.2,3.6,21.5,3,31.2-1.8l4.9-2.4c5.8-2.8,12.6-3.3,18.7-1.1l91.4,31.5c-1,3.5-2.8,7.6-6,9.8c-3.7,2.6-9.4,2.6-16.8,0l-41-14
		c-2.1-0.7-4.4-0.5-6.3,0.6c-1.9,1-3.4,2.9-3.9,5c-0.1,0.2-5.8,21.4-23.6,30.9c-11.2,6-25.2,6.2-41.6,0.6c-4.2-1.4-8.6,0.8-10.1,5
		c-1.4,4.2,0.8,8.6,5,10.1c9.6,3.3,18.7,5,27.2,5c9.8,0,18.9-2.2,27.1-6.6c16-8.6,24.5-23.5,28.4-32.7l33.6,11.5
		c12.5,4.2,22.9,3.6,31-2c12.7-8.8,13.6-26,13.7-27.9c0.1-3.4-2.1-6.6-5.4-7.8L166.6,16c-10.1-3.4-21.3-2.8-30.9,1.9l-4.9,2.4
		c-5.9,2.9-12.8,3.3-19,1.1l-8.1-2.9c-0.5-0.3-1-0.6-1.5-0.7L52.5,0.4c-4.2-1.4-8.6,0.8-10.1,5l-42,122.4
		C-0.3,129.7-0.1,131.9,0.8,133.8L0.8,133.8z M54.9,18l35,12L53.1,137.4l-35-12L54.9,18z M54.9,18"/>
	<path class="st1" d="M83.3,206.4c3.9,8,11.8,12.6,20.1,13c0,3.4,0.8,7,2.3,10.2c2.7,5.6,7.4,9.8,13.4,11.8c2.5,0.9,5,1.3,7.5,1.3
		c3.5,0,7-0.8,10.2-2.4l4.2-2.1c0.3,2.4,1,4.9,2.2,7.2c2.7,5.6,7.4,9.8,13.4,11.8c2.5,0.9,5,1.3,7.5,1.3c3.5,0,7-0.8,10.2-2.4
		l91-44.6c20.3-9.9,39-22.7,55.7-38l20.3-18.6l46.5-22.7c3.9-1.9,5.5-6.6,3.6-10.6L334.5,5.2c-1-1.9-2.6-3.4-4.6-4
		c-2-0.7-4.2-0.6-6.1,0.4l-47.5,23.3c-3.9,1.9-5.5,6.6-3.6,10.6l54.2,110.9l-16.8,15.4c-15.5,14.2-33,26.2-51.9,35.4l-91,44.6
		c-1.8,0.9-3.8,1-5.7,0.3c-1.8-0.6-3.4-2-4.2-3.8c-0.9-1.8-1-3.8-0.3-5.7c0.6-1.8,2-3.4,3.8-4.2l50.9-24.9c3.9-1.9,5.5-6.6,3.6-10.6
		c-1.9-3.9-6.6-5.5-10.6-3.6l-50.9,24.9l-24,11.8c-1.8,0.9-3.8,1-5.7,0.3c-1.8-0.6-3.4-2-4.2-3.8c-0.9-1.8-1-3.8-0.3-5.7
		c0.6-1.8,2-3.4,3.8-4.2l73-35.7c3.9-1.9,5.5-6.6,3.6-10.6c-1.9-3.9-6.6-5.5-10.6-3.6l-82,40.1c-3.7,1.8-8.1,0.2-9.9-3.4
		c-0.9-1.8-1-3.8-0.3-5.7c0.6-1.8,2-3.4,3.8-4.2l32.3-15.8l42-20.6c3.9-1.9,5.5-6.6,3.6-10.6c-1.9-3.9-6.6-5.5-10.6-3.6l-65.4,32
		c-3.7,1.8-8.1,0.2-9.9-3.4c-1.8-3.7-0.2-8.1,3.4-9.9l34.7-17c3.9-1.9,5.5-6.6,3.6-10.6c-1.9-3.9-6.6-5.5-10.6-3.6l-34.7,17
		c-11.5,5.6-16.3,19.6-10.6,31.1c1.6,3.3,3.8,5.9,6.6,8.1C80.5,189.2,79.3,198.4,83.3,206.4L83.3,206.4z M290.4,35.6l33.3-16.3
		l49.9,102l-33.3,16.3L290.4,35.6z M290.4,35.6"/>
</g>
</svg>
