<?xml version="1.0" encoding="utf-8"?>
<!-- Generator: Adobe Illustrator 21.0.2, SVG Export Plug-In . SVG Version: 6.00 Build 0)  -->
<svg version="1.1" id="Layer_1" xmlns="http://www.w3.org/2000/svg" xmlns:xlink="http://www.w3.org/1999/xlink" x="0px" y="0px"
	 viewBox="0 0 209 198" style="enable-background:new 0 0 209 198;" xml:space="preserve">
<style type="text/css">
	.st0{fill:#87BA5C;}
</style>
<g>
	<g>
		<path class="st0" d="M45.4,73.4c0.7-0.6,1.2-1.3,1.4-2.1C52.4,52.4,61.4,40,73.5,34.4c-1.5,19,10.8,28.7,30.6,28.7
			c2.1,0,4.2-0.1,6.5-0.3c4-0.4,7.9-0.6,11.5-0.6c30.6,0,48.6,11.9,48.6,11.9S158.9,6.2,121.5,1c-2.6-0.4-5.2-0.5-7.7-0.5
			c-17.3,0-32.6,8.3-38.2,23.8c-1.1,0.3-2.2,0.7-3.4,1.2c-15.7,6.2-27.1,20.8-33.8,43.3c-0.4,1.3-0.1,2.8,0.8,4
			C40.7,74.7,43.5,75,45.4,73.4z M82.4,32.9c0.1-0.5,0.1-0.9,0.2-1.4c18.7-3.3,37,7.3,37.2,7.5v0c1.5,0.9,3.5,0.8,5-0.4
			c1.9-1.5,2.1-4.3,0.6-6.1c-0.3-0.4-0.7-0.7-1.2-1l0,0c-0.9-0.5-18.3-10.6-38.1-9.2c1.6-2.6,3.8-4.9,6.4-6.9
			c5.5-4.1,13.1-6.3,21.2-6.3c2.1,0,4.3,0.2,6.5,0.5c6.4,0.9,12.5,4.5,18.1,10.7c5,5.5,9.6,13,13.6,22.3c2.5,5.7,4.4,11.3,6,16.3
			c-11.1-3.6-23.4-5.5-35.8-5.5c-4.1,0-8.2,0.2-12.4,0.6c-2,0.2-3.9,0.3-5.7,0.3c-11,0-16.2-3.3-18.6-6.1
			C82.6,44.8,81.5,39.7,82.4,32.9z M201,131.5c0.3-1.1,0.5-2.3,0.7-3.5c2.5-16.7-4.4-33.8-20.7-51c-1-1-2.4-1.5-3.9-1.3
			c-2.4,0.4-4,2.6-3.6,5c0.1,0.9,0.6,1.7,1.1,2.3c13.6,14.3,19.8,28.3,18.6,41.6c-5.4-3.7-10.7-5.5-15.7-5.5
			c-11.1,0-20.7,8.6-27.5,23.4c-15.7,34.3-39.9,46.3-39.9,46.3s24.5,8.9,48.7,8.9c15.2,0,30.3-3.5,39.3-15
			C210.8,166.7,213.2,145.9,201,131.5z M191.3,177.5c-6,7.7-16.9,11.6-32.4,11.6c-10.3,0-20.9-1.8-29.2-3.7
			c8.8-7.9,19.8-20.5,28.3-39.2c2.8-6.2,6.3-11.1,9.9-14.3c3.1-2.7,6.3-4,9.7-4c3.8,0,8,1.7,12.5,5.2c0.4,0.3,0.7,0.6,1.1,0.9
			c-6.5,17.8-24.9,28.3-25.1,28.4l0,0c-1.5,0.9-2.5,2.6-2.2,4.5c0.4,2.4,2.6,4,5,3.6c0.5-0.1,1-0.3,1.4-0.5l0,0
			c0.9-0.5,18.3-10.5,27-28.3c1.8,3.5,2.8,7.4,2.9,11.6C200.4,161.2,197.3,169.9,191.3,177.5z M103.3,186.9
			c-0.9-0.3-1.7-0.4-2.6-0.2c-19.2,4.6-34.5,3-45.4-4.7c19.1-9.1,19.7-27,6-46.3c-21.9-30.7-20.2-57.7-20.2-57.7
			s-52.9,44.2-38.8,79.1c6.9,16.9,20.9,28.6,37.1,28.6c2,0,4-0.2,6.1-0.6c0.9,0.8,1.7,1.6,2.7,2.3c8.7,6.9,19.6,10.4,32.6,10.4
			c6.7,0,14-0.9,21.9-2.8c0,0,0,0,0,0c1.3-0.3,2.5-1.3,3.1-2.7C106.7,190.3,105.5,187.8,103.3,186.9z M48.3,175.6
			c-12.2-14.5-12.1-35.7-12.1-35.9h0c0-1.8-1-3.4-2.8-4.1c-2.2-0.9-4.8,0.3-5.6,2.5c-0.2,0.5-0.3,1-0.3,1.5h0
			c0,1-0.1,21.1,11.1,37.5c-5.5-0.2-10.9-2.3-15.7-6.1c-5.2-4.1-9.5-10-12.4-17.1c-2.4-6-2.4-13,0.2-21c2.3-7.1,6.5-14.8,12.6-23
			c3.7-5,7.6-9.5,11.1-13.3c2.5,11.6,7.9,27.4,19.8,44.1c6.4,9,9,17.3,7.3,23.3c-1.3,4.6-5.3,8.2-11.9,10.9
			C49.2,175.3,48.8,175.4,48.3,175.6z"/>
	</g>
</g>
</svg>
