<?xml version="1.0" encoding="utf-8"?>
<!-- Generator: Adobe Illustrator 21.0.2, SVG Export Plug-In . SVG Version: 6.00 Build 0)  -->
<svg version="1.1" id="Layer_1" xmlns="http://www.w3.org/2000/svg" xmlns:xlink="http://www.w3.org/1999/xlink" x="0px" y="0px"
	 viewBox="0 0 154.8 250.5" style="enable-background:new 0 0 154.8 250.5;" xml:space="preserve">
<style type="text/css">
	.st0{fill:#28637C;}
	.st1{fill:#87BA5C;}
</style>
<g>
	<path class="st0" d="M154.7,1.8c0,28.9,0,57.8,0,86.7c0,0.2-0.1,0.5-0.2,1c-24.3,0-48.6,0-73.1,0c0,26.1,0,51.8,0,77.9
		c24.3,0,48.6,0,73.1,0c0,8,0,15.7,0,23.8c-3.8,0-7.5,0.1-11.3,0c-1.9-0.1-2.8,0.5-3.4,2.4c-6,18.6-12.1,37.1-18.2,55.6
		c-0.2,0.5-0.3,0.9-0.5,1.4c-29.2,0-58.4,0-87.7,0c-5.3-16-10.5-32-15.8-47.9c-1-3.1-2.1-6.3-3.1-9.5c-0.4-1.5-1.2-2-2.8-1.9
		c-3.8,0.1-7.7,0-11.7,0c0-7.9,0-15.6,0-23.6c24.3,0,48.6,0,73.1,0c0-26,0-51.8,0-77.9c-24.3,0-48.7,0-73,0C0.1,89,0,88.6,0,88.2
		C0,59.4,0,30.6,0,1.8C51.6,1.8,103.1,1.8,154.7,1.8z M121,9.7c-29.3,0-58.2,0-86.8,0c-1.4,3.5-2.3,7-4,10.1
		c-4.4,8.1-11.3,13-20.4,15C9.1,35,8,35.8,8,36.4c-0.1,6.5-0.1,13.1-0.1,19.5c0.3,0.2,0.4,0.3,0.5,0.4c0.3,0.1,0.6,0.2,0.9,0.3
		c13,2.8,20.9,10.7,24,23.4c0.4,1.6,1.1,1.8,2.5,1.8c27.6,0,55.1,0,82.7,0c2.1,0,2.6-0.9,3-2.6c1.9-8.3,6.5-14.8,14-19
		c3.4-1.9,7.3-3.1,11.3-4.7c0-5.8-0.1-12,0-18.2c0-1.7-0.4-2.4-2.2-2.7c-6.9-1.4-12.6-4.8-17.1-10.2C124,20.2,121.9,15.3,121,9.7z
		 M132.3,191.4c-36.8,0-73.2,0-109.9,0c5.7,17.3,11.2,34.3,16.8,51.2c25.6,0,51,0,76.4,0C121.1,225.6,126.7,208.6,132.3,191.4z
		 M146.7,175.5c-46.4,0-92.5,0-138.6,0c0,2.7,0,5.3,0,7.8c46.3,0,92.4,0,138.6,0C146.7,180.6,146.7,178.1,146.7,175.5z M8.1,64.4
		c0,5.9,0,11.5,0,17.3c5.9,0,11.6,0,17.3,0C24.9,73.7,16.7,65.5,8.1,64.4z M146.7,81.7c0-6,0-11.6,0-17.3
		c-8.7,1.1-17.6,10.2-17.3,17.3C135.1,81.7,140.8,81.7,146.7,81.7z M8,27c8.8-1.1,17.4-9.7,17.4-17.2c-5.8,0-11.5,0-17.4,0
		C8,15.6,8,21.2,8,27z M146.7,9.8c-5.9,0-11.7,0-17.6,0c1.7,9,9.4,16.5,17.6,17.2C146.7,21.2,146.7,15.5,146.7,9.8z"/>
	<path class="st0" d="M35.8,41.9c0,2.5,0,4.9,0,7.5c-5.5,0-10.9,0-16.4,0c0-2.4,0-4.8,0-7.5C24.8,41.9,30.3,41.9,35.8,41.9z"/>
	<path class="st0" d="M118.8,49.4c0-2.6,0-4.9,0-7.4c5.5,0,10.9,0,16.5,0c0,2.4,0,4.8,0,7.4C129.9,49.4,124.5,49.4,118.8,49.4z"/>
	<g>
		<path class="st1" d="M63.9,152.1c-4.3,0-8.3,0-12.3,0c-9.7,0-19.4,0.2-29-0.2c-11.9-0.5-21.2-9-22.2-20.7
			c-0.7-8.6-0.1-17.3-0.1-26.1c0.7,0,1.4-0.1,2.1-0.1c12.1,0,24.3,0,36.4,0c10.3,0,18.3,4.2,22.8,13.6c1.5,3.1,2.2,6.8,2.4,10.3
			c0.4,7.3,0.1,14.6,0.1,21.8C64,151,64,151.4,63.9,152.1z M8.1,113.1c0,5.9-0.4,11.8,0.1,17.7c0.6,7.3,7.1,13.2,14.6,13.4
			c10.7,0.3,21.3,0.1,32,0.1c0.4,0,0.8-0.1,1.3-0.2c0-5.7,0.4-11.2-0.1-16.8c-0.7-8.2-6.3-13.9-14.7-14.3
			c-10.8-0.5-21.6-0.2-32.5-0.2C8.5,112.8,8.3,113,8.1,113.1z"/>
		<path class="st1" d="M154.7,105.2c0,5.9,0.1,11.7,0,17.5c-0.1,3.9,0.1,7.9-0.8,11.6c-2.7,10.8-11.2,17.4-22.9,17.7
			c-12.9,0.3-25.9,0.1-38.9,0.1c-0.4,0-0.8-0.1-1.4-0.2c0-2.1,0-4.2,0-6.3c0.1-6.8,0-13.6,0.5-20.4c0.8-10.1,10.5-19.6,20.9-19.9
			c13.8-0.4,27.5-0.3,41.3-0.3C153.8,105,154.1,105.1,154.7,105.2z M146.6,113c-0.2-0.1-0.5-0.2-0.7-0.2c-10.4,0-20.8-0.2-31.3,0.1
			c-7.9,0.2-14.1,4.7-15.3,11.7c-1.1,6.4-0.7,13-1.1,19.7c11.6,0,22.6,0.2,33.5-0.1c7.4-0.2,13.7-5.5,14.6-12.7
			C147.1,125.3,146.6,119.2,146.6,113z"/>
		<path class="st1" d="M77.3,71.3c-14.2,0.1-26-11.4-26.1-25.5c-0.1-14.1,11.5-25.7,25.9-25.9c14.2-0.2,26.1,11.4,26.1,25.6
			C103.4,59.7,91.8,71.1,77.3,71.3z M77.3,24.9c-11.5,0-21,9.2-21,20.6c-0.1,11.4,9.4,20.7,20.9,20.8c11.6,0.1,21-9.1,21.1-20.5
			C98.4,34.3,89,25,77.3,24.9z"/>
		<path class="st1" d="M79.9,58.4c0,0.4-0.1,0.9-0.1,1.4c-1.6,0-3.2,0-4.9,0c0-0.5-0.1-1-0.1-1.5c-4.5-1.3-6.6-3.6-6.8-7.7
			c1.5,0,3,0,4.4,0c0.2,0,0.5,0.3,0.6,0.4c0.1,0.1,0,0.3,0.1,0.4c0.5,1.2,1.5,1.8,2.7,1.7c1.9-0.2,4.1,0.8,5.5-1.3
			c1-1.6,0-3.6-2-3.8c-1.5-0.2-3-0.1-4.5-0.2c-3.9-0.4-6.8-3.4-7-7.2c-0.2-3.7,2.4-6.9,6.1-7.8c0.2,0,0.4-0.1,0.7-0.1
			c0.1-0.5,0.1-1,0.2-1.6c1.6,0,3.1,0,4.8,0c0.1,0.5,0.1,0.9,0.2,1.5c4.1,0.9,6.5,3.3,6.9,7.6c-1.7,0-3.2,0-4.5,0
			c-1-0.9-1.7-2.1-2.6-2.3c-1.7-0.3-3.6-0.2-5.3,0.1c-1.2,0.2-1.7,1.5-1.4,2.8c0.2,1.2,1,2,2.2,2.1c1.2,0.1,2.4,0,3.6,0.1
			c4,0.2,6.9,2.5,7.7,6.1c0.7,3.2-1,6.7-4.1,8.2C81.7,57.9,80.8,58.1,79.9,58.4z"/>
	</g>
</g>
</svg>
