<?xml version="1.0" encoding="utf-8"?>
<!-- Generator: Adobe Illustrator 21.0.2, SVG Export Plug-In . SVG Version: 6.00 Build 0)  -->
<svg version="1.1" id="Layer_1" xmlns="http://www.w3.org/2000/svg" xmlns:xlink="http://www.w3.org/1999/xlink" x="0px" y="0px"
	 viewBox="0 0 392.9 358.6" style="enable-background:new 0 0 392.9 358.6;" xml:space="preserve">
<style type="text/css">
	.st0{fill:#85B856;}
	.st1{fill:#24637D;}
	.st2{fill:#FFFFFF;}
</style>
<g>
	<path class="st0" d="M272.1,195.6l-9.8-164.1c-0.8-13.5-12-24.1-25.6-24.1H193h6.8H156c-13.5,0-24.8,10.6-25.6,24.1l-9.8,164.1"/>
	<path class="st1" d="M77.2,188.4H7.3c-4,0-7.3,3.3-7.3,7.3s3.3,7.3,7.3,7.3h17.6V233c0,4,3.3,7.3,7.3,7.3h18v111
		c0,4,3.3,7.3,7.3,7.3h25.3c4,0,7.3-3.3,7.3-7.3s-3.3-7.3-7.3-7.3H64.6V240.2h262.9v103.7h-18c-4,0-7.3,3.3-7.3,7.3
		c0,4,3.3,7.3,7.3,7.3h25.3c4,0,7.3-3.3,7.3-7.3v-111h18.6c4,0,7.3-3.3,7.3-7.3v-30.1h17.6c4,0,7.3-3.3,7.3-7.3s-3.3-7.3-7.3-7.3
		h-70l-8.6-47.4c-1.9-10.6-11.2-18.4-22-18.4h-10l-5.4-91.6C268.6,13.5,254.2,0,236.8,0h-80.7c-17.4,0-31.8,13.6-32.8,30.9
		l-5.4,91.6h-10c-10.8,0-20.1,7.8-22,18.4L77.2,188.4z M353.4,225.7H39.4v-22.8h313.8L353.4,225.7L353.4,225.7z M285,137.1
		c3.8,0,7,2.7,7.8,6.5l8.1,44.7h-21.9l-3-51.2H285z M137.8,31.9c0.6-9.7,8.6-17.3,18.3-17.3h80.6c9.7,0,17.8,7.6,18.3,17.3
		l9.4,156.5h-136L137.8,31.9z M100.1,143.6c0.6-3.8,3.9-6.5,7.8-6.5h9.1l-3,51.2H92L100.1,143.6z M100.1,143.6"/>
	<path class="st2" d="M161.7,86.6h67.7c4,0,7.3-3.3,7.3-7.3c0-4-3.3-7.3-7.3-7.3h-67.7c-4,0-7.3,3.3-7.3,7.3
		C154.4,83.3,157.7,86.6,161.7,86.6L161.7,86.6z M161.7,86.6"/>
	<path class="st1" d="M272.1,272.1c4,0,7.3-3.3,7.3-7.3c0-4-3.3-7.3-7.3-7.3H120.7c-4,0-7.3,3.3-7.3,7.3c0,4,3.3,7.3,7.3,7.3h68.5
		v31.8h-33.3c-4,0-7.3,3.3-7.3,7.3v40c0,4,3.3,7.3,7.3,7.3c4,0,7.3-3.3,7.3-7.3v-32.7h26.1v32.7c0,4,3.3,7.3,7.3,7.3
		s7.3-3.3,7.3-7.3v-32.7h26.1v32.7c0,4,3.3,7.3,7.3,7.3c4,0,7.3-3.3,7.3-7.3v-40c0-4-3.3-7.3-7.3-7.3h-33.3v-31.8H272.1z
		 M272.1,272.1"/>
</g>
</svg>
