<?xml version="1.0" encoding="utf-8"?>
<!-- Generator: Adobe Illustrator 21.0.2, SVG Export Plug-In . SVG Version: 6.00 Build 0)  -->
<svg version="1.1" id="Layer_1" xmlns="http://www.w3.org/2000/svg" xmlns:xlink="http://www.w3.org/1999/xlink" x="0px" y="0px"
	 viewBox="0 0 360.4 284.6" style="enable-background:new 0 0 360.4 284.6;" xml:space="preserve">
<style type="text/css">
	.st0{fill:#85B856;}
	.st1{fill:none;}
	.st2{fill:#26637D;}
	.st3{fill:#FFFFFF;}
</style>
<g>
	<path class="st0" d="M12.6,108.1l6.2,0.3c1.4,6.1,3.5,11.9,6.4,17.5l-4.6,4.2c-5.4,4.9-5.8,13.3-0.8,18.7l8.1,8.9
		c2.4,2.6,5.7,4.1,9.2,4.3c3.5,0.2,6.9-1.1,9.5-3.5l4.6-4.2c5.3,3.4,10.9,6,16.8,7.9l-0.3,6.2c-0.3,7.3,5.3,13.5,12.6,13.8l12,0.5
		c7.3,0.3,13.5-5.3,13.8-12.6l0.3-6.2c6.1-1.4,11.9-3.5,17.5-6.4l4.2,4.6c2.4,2.6,5.7,4.1,9.2,4.3c3.5,0.2,6.9-1.1,9.5-3.5l8.9-8.1
		c5.4-4.9,5.8-13.3,0.8-18.7l-4.2-4.6c3.4-5.3,6-10.9,7.9-16.8l6.2,0.3c7.3,0.3,13.5-5.3,13.8-12.6l0.5-12
		c0.3-7.3-5.3-13.5-12.6-13.8l-6.2-0.3c-1.4-6.1-3.5-11.9-6.4-17.5l4.6-4.2c5.4-4.9,5.8-13.3,0.8-18.7l-8.1-8.9
		c-2.4-2.6-5.7-4.1-9.2-4.3c-3.5-0.2-6.9,1.1-9.5,3.5l-4.6,4.2c-5.3-3.4-10.9-6-16.8-7.9l0.3-6.2c0.3-7.3-5.3-13.5-12.6-13.8
		l-12-0.5C81,1.6,74.9,7.2,74.5,14.6l-0.3,6.1c-6.1,1.4-11.9,3.5-17.5,6.4l-4.2-4.6c-2.4-2.6-5.7-4.1-9.2-4.3
		c-3.5-0.2-6.9,1.1-9.5,3.5l-8.9,8.1c-5.4,4.9-5.8,13.3-0.8,18.7l4.2,4.6c-3.4,5.3-6,10.9-7.9,16.8l-6.2-0.3
		C7,69.3,0.9,74.9,0.5,82.2L0,94.2C-0.3,101.5,5.3,107.7,12.6,108.1L12.6,108.1z M29.9,101.5c-0.4-2.9-2.9-5.1-5.8-5.1l-11-0.5
		c-0.6,0-1-0.5-1-1.1l0.5-12c0-0.6,0.5-1,1.1-1l11,0.5c2.9,0.1,5.5-1.9,6.2-4.7c1.9-7.8,5.3-15,10.1-21.5c1.8-2.3,1.5-5.6-0.4-7.7
		l-7.6-8.2c-0.4-0.5-0.4-1.1,0.1-1.5l8.9-8.1c0.3-0.2,0.6-0.3,0.8-0.3c0.2,0,0.5,0.1,0.7,0.3l7.5,8.2c1.9,2.1,5.2,2.6,7.7,1.1
		c6.9-4.2,14.4-6.9,22.3-8.1c2.9-0.4,5.1-2.9,5.2-5.7l0.5-11c0-0.6,0.5-1,1.1-1l12,0.5c0.6,0,1,0.5,1,1.1l-0.5,10.9
		c-0.1,2.9,1.9,5.5,4.7,6.2c7.8,1.9,15,5.3,21.5,10.1c2.3,1.8,5.6,1.5,7.7-0.4l8.2-7.5c0.3-0.2,0.6-0.3,0.8-0.3
		c0.2,0,0.5,0.1,0.7,0.3l8.1,8.9c0.4,0.5,0.4,1.1-0.1,1.5l-8.2,7.5c-2.1,1.9-2.6,5.2-1.1,7.7c4.2,6.9,6.9,14.4,8.1,22.3
		c0.4,2.9,2.9,5.1,5.7,5.2l11,0.5c0.6,0,1,0.5,1,1.1l-0.5,12c0,0.6-0.5,1-1.1,1l-11-0.5c-2.9-0.1-5.5,1.9-6.2,4.7
		c-1.9,7.8-5.3,15-10.1,21.5c-1.8,2.3-1.5,5.6,0.4,7.7l7.5,8.2c0.4,0.5,0.4,1.1-0.1,1.5l-8.9,8.1c-0.3,0.2-0.6,0.3-0.8,0.3
		c-0.2,0-0.5-0.1-0.7-0.3l-7.3-8.1c-1.1-1.2-2.6-1.9-4.2-2c-1.2-0.1-2.4,0.3-3.4,0.9c-6.9,4.2-14.4,6.9-22.3,8.1
		c-2.9,0.4-5.1,2.9-5.2,5.7l-0.5,11c0,0.6-0.5,1-1.1,1l-12-0.5c-0.6,0-1-0.5-1-1.1l0.5-11c0.1-2.9-1.9-5.5-4.7-6.2
		c-7.8-1.9-15-5.3-21.5-10.1c-2.3-1.8-5.6-1.5-7.7,0.4l-8.2,7.5c-0.3,0.2-0.6,0.3-0.8,0.3c-0.2,0-0.5-0.1-0.7-0.3l-8.1-8.8
		c-0.4-0.4-0.4-1.1,0.1-1.5l8.2-7.5c2.1-1.9,2.6-5.2,1.1-7.7C33.9,117,31.1,109.5,29.9,101.5L29.9,101.5z M29.9,101.5"/>
	<path class="st0" d="M92,53.8c-21.1-0.9-39.1,15.5-40,36.7c-0.9,21.1,15.5,39.1,36.7,40c21.1,0.9,39.1-15.5,40-36.7
		C129.6,72.7,113.2,54.7,92,53.8L92,53.8z M89.2,118.4c-14.4-0.6-25.7-12.9-25-27.3C64.8,76.6,77,65.3,91.5,66
		c14.4,0.6,25.7,12.9,25,27.3S103.6,119,89.2,118.4L89.2,118.4z M89.2,118.4"/>
</g>
<rect x="174.5" y="202.1" class="st1" width="39.9" height="63.3"/>
<polygon class="st1" points="270.2,49.8 297.7,68.7 297.7,22.7 270.2,22.7 "/>
<g>
	<path class="st2" d="M81.6,283.1c-4.5,0-8.1-3.6-8.1-8.1v-69.6l16.2,0.5v61h67.2v-74.4c0-4.5,3.6-8.1,8.1-8.1h59
		c4.5,0,8.1,3.6,8.1,8.1v74.4h67.2V91.2L194.4,19.4l-13.8,9.4l-9.7-13l18.9-12.9c1.4-0.9,3-1.4,4.6-1.4c1.7,0,3.2,0.5,4.6,1.4
		c0.7,0.5,49,33.6,51.1,35l2.3,1.6V13.1c0-4.5,3.6-8.1,8.1-8.1h46.8c4.5,0,8.1,3.6,8.1,8.1v69.5l39.9,27.3c3.7,2.5,4.6,7.6,2.1,11.3
		c-1.5,2.2-4,3.5-6.7,3.5c-1.6,0-3.2-0.5-4.6-1.4l-30.7-21V275c0,4.5-3.6,8.1-8.1,8.1H81.6z M173,266.9h42.9v-66.3H173V266.9z
		 M268.7,50.6l30.6,20.9V21.2h-30.6V50.6z"/>
	<path class="st3" d="M194.5,3c1.3,0,2.6,0.4,3.7,1.2c0.7,0.5,49,33.6,51.1,35l4.7,3.2v-5.7V13.1c0-3.6,3-6.6,6.6-6.6h46.8
		c3.6,0,6.6,3,6.6,6.6v68.7v1.6l1.3,0.9l39.2,26.9c1.5,1,2.4,2.5,2.8,4.2c0.3,1.7,0,3.5-1,4.9c-1.2,1.8-3.3,2.9-5.5,2.9
		c-1.3,0-2.6-0.4-3.7-1.2l-28.4-19.4l-4.7-3.2v5.7V275c0,3.6-3,6.6-6.6,6.6H81.6c-3.6,0-6.6-3-6.6-6.6v-68l13.2,0.4v58v3h3h64.2h3
		v-3v-72.9c0-3.6,3-6.6,6.6-6.6h59c3.6,0,6.6,3,6.6,6.6v72.9v3h3h64.2h3v-3V92v-1.6l-1.3-0.9L196.1,18.8l-1.7-1.2l-1.7,1.2l-11.7,8
		l-7.9-10.6l17.6-12C191.8,3.4,193.1,3,194.5,3 M300.7,74.4v-5.7v-46v-3h-3h-27.6h-3v3v27.1v1.6l1.3,0.9L296,71.2L300.7,74.4
		 M171.5,268.4h3h39.9h3v-3v-63.3v-3h-3h-39.9h-3v3v63.3V268.4 M194.5,0c-1.9,0-3.8,0.6-5.5,1.7l-20.2,13.8l11.5,15.4l14.1-9.6
		L297.7,92v173.5h-64.2v-72.9c0-5.3-4.3-9.6-9.6-9.6h-59c-5.3,0-9.6,4.3-9.6,9.6v72.9H91.2v-60.9L72,203.9V275
		c0,5.3,4.3,9.6,9.6,9.6h225.8c5.3,0,9.6-4.3,9.6-9.6V105.1l28.4,19.4c1.7,1.1,3.5,1.7,5.4,1.7c3.1,0,6.1-1.5,7.9-4.2
		c3-4.4,1.9-10.3-2.5-13.3l-39.2-26.9V13.1c0-5.3-4.3-9.6-9.6-9.6h-46.8c-5.3,0-9.6,4.3-9.6,9.6v23.6c0,0-50.4-34.5-51.1-35
		C198.3,0.6,196.4,0,194.5,0L194.5,0z M297.7,68.7l-27.6-18.9V22.7h27.6V68.7L297.7,68.7z M174.5,265.4v-63.3h39.9v63.3H174.5
		L174.5,265.4z"/>
</g>
<path class="st0" d="M265.6,51.2l36.6,25.1V15.1h-36.6V51.2z M265.6,51.2"/>
</svg>
