<?xml version="1.0" encoding="utf-8"?>
<!-- Generator: Adobe Illustrator 21.0.2, SVG Export Plug-In . SVG Version: 6.00 Build 0)  -->
<svg version="1.1" id="Layer_1" xmlns="http://www.w3.org/2000/svg" xmlns:xlink="http://www.w3.org/1999/xlink" x="0px" y="0px"
	 viewBox="0 0 390.9 390.9" style="enable-background:new 0 0 390.9 390.9;" xml:space="preserve">
<style type="text/css">
	.st0{fill:#85B856;}
	.st1{fill:#24637D;}
</style>
<g>
	<path class="st0" d="M223.7,355.4c0,15.6-12.6,28.2-28.2,28.2c-15.6,0-28.2-12.6-28.2-28.2c0-15.6,12.6-28.2,28.2-28.2
		C211,327.1,223.7,339.8,223.7,355.4L223.7,355.4z M223.7,355.4"/>
	<path class="st0" d="M223.7,35.5c0,15.6-12.6,28.2-28.2,28.2c-15.6,0-28.2-12.6-28.2-28.2c0-15.6,12.6-28.2,28.2-28.2
		C211,7.3,223.7,19.9,223.7,35.5L223.7,35.5z M223.7,35.5"/>
	<path class="st0" d="M383.6,195.4c0,15.6-12.6,28.2-28.2,28.2c-15.6,0-28.2-12.6-28.2-28.2c0-15.6,12.6-28.2,28.2-28.2
		C371,167.2,383.6,179.8,383.6,195.4L383.6,195.4z M383.6,195.4"/>
	<path class="st0" d="M63.8,195.4c0,15.6-12.6,28.2-28.2,28.2c-15.6,0-28.2-12.6-28.2-28.2c0-15.6,12.6-28.2,28.2-28.2
		C51.1,167.2,63.8,179.8,63.8,195.4L63.8,195.4z M63.8,195.4"/>
	<path class="st1" d="M195.4,277.4c-4,0-7.3,3.3-7.3,7.3v35.8c-16.1,3.4-28.2,17.7-28.2,34.8c0,19.6,15.9,35.5,35.5,35.5
		c19.6,0,35.5-15.9,35.5-35.5c0-17.1-12.2-31.4-28.2-34.8v-35.8C202.7,280.7,199.4,277.4,195.4,277.4L195.4,277.4z M216.5,355.4
		c0,11.6-9.4,21-21,21c-11.6,0-21-9.4-21-21c0-11.6,9.4-21,21-21C207,334.3,216.5,343.8,216.5,355.4L216.5,355.4z M216.5,355.4"/>
	<path class="st1" d="M278.8,289c-3.8,5.8-5.8,12.4-5.8,19.4c0,9.5,3.7,18.4,10.4,25.1c6.7,6.7,15.6,10.4,25.1,10.4
		c9.5,0,18.4-3.7,25.1-10.4c6.7-6.7,10.4-15.6,10.4-25.1c0-9.5-3.7-18.4-10.4-25.1c-6.7-6.7-15.6-10.4-25.1-10.4
		c-7,0-13.8,2-19.4,5.8l-25.4-25.4c-2.8-2.8-7.4-2.8-10.2,0c-2.8,2.8-2.8,7.4,0,10.2L278.8,289z M323.4,293.7
		c8.2,8.2,8.2,21.5,0,29.8c-4,4-9.3,6.2-14.9,6.2c-5.6,0-10.9-2.2-14.9-6.2c-8.2-8.2-8.2-21.5,0-29.7c4-4,9.3-6.2,14.9-6.2
		C314.2,287.5,319.4,289.7,323.4,293.7L323.4,293.7z M323.4,293.7"/>
	<path class="st1" d="M253.4,137.4c1.4,1.4,3.3,2.2,5.1,2.2c1.8,0,3.7-0.7,5.1-2.2l25.4-25.4c5.8,3.8,12.4,5.8,19.4,5.8
		c9.5,0,18.4-3.7,25.1-10.4c6.7-6.7,10.4-15.6,10.4-25.1c0-9.5-3.7-18.4-10.4-25.1c-6.7-6.7-15.6-10.4-25.1-10.4
		c-9.5,0-18.4,3.7-25.1,10.4C276.6,64,273,72.9,273,82.4c0,7,2,13.8,5.8,19.4l-25.4,25.4C250.6,130,250.6,134.6,253.4,137.4
		L253.4,137.4z M293.7,67.5c4-4,9.3-6.2,14.9-6.2c5.6,0,10.9,2.2,14.9,6.2c8.2,8.2,8.2,21.5,0,29.8c-4,4-9.3,6.2-14.9,6.2
		c-5.6,0-10.9-2.2-14.9-6.2C285.4,89,285.4,75.7,293.7,67.5L293.7,67.5z M293.7,67.5"/>
	<path class="st1" d="M137.4,253.4c-2.8-2.8-7.4-2.8-10.2,0l-25.4,25.4c-5.8-3.8-12.4-5.8-19.4-5.8c-9.5,0-18.4,3.7-25.1,10.4
		c-6.7,6.7-10.4,15.6-10.4,25.1c0,9.5,3.7,18.4,10.4,25.1C64,340.3,72.9,344,82.4,344c9.5,0,18.4-3.7,25.1-10.4
		c6.7-6.7,10.4-15.6,10.4-25.1c0-7-2-13.8-5.8-19.4l25.4-25.4C140.2,260.9,140.2,256.2,137.4,253.4L137.4,253.4z M97.2,323.4
		c-4,4-9.3,6.2-14.9,6.2c-5.6,0-10.9-2.2-14.9-6.2c-8.2-8.2-8.2-21.5,0-29.8c4-4,9.3-6.2,14.9-6.2c5.6,0,10.9,2.2,14.9,6.2
		C105.4,301.8,105.4,315.2,97.2,323.4L97.2,323.4z M97.2,323.4"/>
	<path class="st0" d="M204.6,188h-18.4c-7.1,0-12.9-5.8-12.9-12.9c0-7.1,5.8-12.9,12.9-12.9h32.4c4,0,7.3-3.3,7.3-7.3
		s-3.3-7.3-7.3-7.3h-16v-12c0-4-3.3-7.3-7.3-7.3s-7.3,3.3-7.3,7.3v12h-1.9c-15.1,0-27.4,12.3-27.4,27.4c0,15.1,12.3,27.4,27.4,27.4
		h18.4c7.1,0,12.9,5.8,12.9,12.9c0,7.1-5.8,12.9-12.9,12.9h-33c-4,0-7.3,3.3-7.3,7.3s3.3,7.3,7.3,7.3h16.6v12.2c0,4,3.3,7.3,7.3,7.3
		s7.3-3.3,7.3-7.3v-12.2h1.9c15.1,0,27.4-12.3,27.4-27.4C232,200.3,219.8,188,204.6,188L204.6,188z M204.6,188"/>
	<path class="st1" d="M159.9,35.5c0,17.1,12.2,31.4,28.2,34.8v35.8c0,4,3.3,7.3,7.3,7.3s7.3-3.3,7.3-7.3V70.3
		C218.8,67,231,52.6,231,35.5C231,15.9,215,0,195.4,0C175.8,0,159.9,15.9,159.9,35.5L159.9,35.5z M216.5,35.5c0,11.6-9.4,21-21,21
		c-11.6,0-21-9.4-21-21c0-11.6,9.4-21,21-21C207,14.5,216.5,23.9,216.5,35.5L216.5,35.5z M216.5,35.5"/>
	<path class="st1" d="M320.6,188.2h-35.8c-4,0-7.3,3.3-7.3,7.3s3.3,7.3,7.3,7.3h35.8c3.4,16.1,17.7,28.2,34.8,28.2
		c19.6,0,35.5-15.9,35.5-35.5c0-19.6-15.9-35.5-35.5-35.5C338.2,159.9,323.9,172.1,320.6,188.2L320.6,188.2z M376.4,195.4
		c0,11.6-9.4,21-21,21c-11.6,0-21-9.4-21-21c0-11.6,9.4-21,21-21C367,174.4,376.4,183.8,376.4,195.4L376.4,195.4z M376.4,195.4"/>
	<path class="st1" d="M35.5,231c17.1,0,31.4-12.2,34.8-28.2h35.8c4,0,7.3-3.3,7.3-7.3s-3.3-7.3-7.3-7.3H70.3
		c-3.4-16.1-17.7-28.2-34.8-28.2C15.9,159.9,0,175.8,0,195.4C0,215,15.9,231,35.5,231L35.5,231z M35.5,174.4c11.6,0,21,9.4,21,21
		c0,11.6-9.4,21-21,21c-11.6,0-21-9.4-21-21C14.5,183.8,23.9,174.4,35.5,174.4L35.5,174.4z M35.5,174.4"/>
	<path class="st1" d="M107.4,57.2c-6.7-6.7-15.6-10.4-25.1-10.4c-9.5,0-18.4,3.7-25.1,10.4c-6.7,6.7-10.4,15.6-10.4,25.1
		c0,9.5,3.7,18.4,10.4,25.1c6.7,6.7,15.6,10.4,25.1,10.4c7,0,13.8-2,19.4-5.8l25.4,25.4c1.4,1.4,3.3,2.2,5.1,2.2
		c1.8,0,3.7-0.7,5.1-2.2c2.8-2.8,2.8-7.4,0-10.2l-25.3-25.3c3.8-5.8,5.8-12.4,5.8-19.4C117.8,72.9,114.2,63.9,107.4,57.2L107.4,57.2
		z M67.5,97.2c-8.2-8.2-8.2-21.5,0-29.8c4-4,9.3-6.2,14.9-6.2c5.6,0,10.9,2.2,14.9,6.2c8.2,8.2,8.2,21.5,0,29.7
		c-4,4-9.3,6.2-14.9,6.2C76.7,103.4,71.4,101.2,67.5,97.2L67.5,97.2z M67.5,97.2"/>
</g>
</svg>
