<?xml version="1.0" encoding="utf-8"?>
<!-- Generator: Adobe Illustrator 21.0.2, SVG Export Plug-In . SVG Version: 6.00 Build 0)  -->
<svg version="1.1" id="Layer_1" xmlns="http://www.w3.org/2000/svg" xmlns:xlink="http://www.w3.org/1999/xlink" x="0px" y="0px"
	 viewBox="0 0 313 297.3" style="enable-background:new 0 0 313 297.3;" xml:space="preserve">
<style type="text/css">
	.st0{opacity:0.8;fill:#86BB56;}
	.st1{opacity:0.8;fill:#86B8C3;}
	.st2{opacity:0.8;fill:#24637D;}
	.st3{fill:none;stroke:#FFFFFF;stroke-miterlimit:10;stroke-dasharray:5,5;}
	.st4{fill:#FFFFFF;}
	.st5{fill:#26637D;}
	.st6{fill:#85B856;}
</style>
<g>
	<circle class="st0" cx="84.5" cy="212.8" r="84.5"/>
	<circle class="st1" cx="228.5" cy="212.8" r="84.5"/>
	<circle class="st2" cx="156.5" cy="84.5" r="84.5"/>
	<polygon class="st3" points="157.1,77.4 78,214.5 236.3,214.5 	"/>
	<circle class="st4" cx="84.5" cy="212.8" r="39.7"/>
	<g>
		<path class="st5" d="M77.6,218c-0.9,0.7-1.4,1.8-1.4,3v4.1c0,0.5,0.4,0.9,0.9,0.9c0.5,0,0.9-0.4,0.9-0.9V221
			c0-0.6,0.3-1.2,0.7-1.5c3.7-3,7.6-5,8.4-5.4c0.4-0.2,0.7-0.6,0.7-1.1v-5.8c0-0.3-0.2-0.6-0.4-0.8c-0.5-0.3-0.8-0.9-0.8-1.5v-6
			c0-2.5,2-4.5,4.5-4.5h1.3c2.5,0,4.5,2,4.5,4.5v6c0,0.6-0.3,1.2-0.8,1.5c-0.3,0.2-0.4,0.5-0.4,0.8v5.8c0,0.5,0.3,0.9,0.7,1.1
			c0.8,0.4,4.7,2.4,8.4,5.4c0.5,0.4,0.7,0.9,0.7,1.5v4.1c0,0.5,0.4,0.9,0.9,0.9c0.5,0,0.9-0.4,0.9-0.9V221c0-1.2-0.5-2.2-1.4-3
			c-3.4-2.8-7.1-4.8-8.4-5.4v-4.9c0.8-0.7,1.2-1.7,1.2-2.7v-6c0-3.5-2.8-6.3-6.3-6.3h-1.3c-3.5,0-6.3,2.8-6.3,6.3v6
			c0,1,0.4,2,1.2,2.7v4.9C84.6,213.2,81,215.2,77.6,218L77.6,218z M77.6,218"/>
		<path class="st5" d="M75.1,198.4H74c-2.9,0-5.3,2.4-5.3,5.3v4.9c0,0.9,0.4,1.7,1,2.3v3.9c-1.1,0.6-4.1,2.2-6.8,4.4
			c-0.8,0.6-1.2,1.6-1.2,2.5v3.4c0,0.5,0.4,0.9,0.9,0.9c0.5,0,0.9-0.4,0.9-0.9v-3.4c0-0.4,0.2-0.8,0.5-1.1c3-2.4,6.2-4.1,6.8-4.4
			c0.4-0.2,0.6-0.6,0.6-1v-4.7c0-0.3-0.2-0.6-0.4-0.8c-0.4-0.2-0.6-0.6-0.6-1.1v-4.9c0-1.9,1.6-3.5,3.5-3.5h1.1
			c1.9,0,3.5,1.6,3.5,3.5v4.9c0,0.4-0.2,0.8-0.6,1.1c-0.3,0.2-0.4,0.5-0.4,0.8v3.9c0,0.5,0.4,0.9,0.9,0.9c0.5,0,0.9-0.4,0.9-0.9V211
			c0.6-0.6,1-1.4,1-2.3v-4.9C80.4,200.8,78,198.4,75.1,198.4L75.1,198.4z M75.1,198.4"/>
		<path class="st6" d="M93.7,213.7c-0.5,0-0.9,0.4-0.9,0.9c0,0.6-0.5,1.1-1.1,1.1c-0.2,0-0.4-0.1-0.6-0.2c0,0-0.1-0.1-0.1-0.1
			c-0.2-0.2-0.3-0.5-0.3-0.8c0-0.5-0.4-0.9-0.9-0.9c-0.5,0-0.9,0.4-0.9,0.9c0,0.7,0.3,1.4,0.7,1.9l-0.6,13.7c0,0.3,0.1,0.5,0.3,0.7
			l1.9,1.7c0.2,0.2,0.4,0.2,0.6,0.2c0.2,0,0.4-0.1,0.6-0.2l1.9-1.7c0.2-0.2,0.3-0.4,0.3-0.7L94,216.4c0.4-0.5,0.6-1.1,0.6-1.8
			C94.6,214.1,94.2,213.7,93.7,213.7L93.7,213.7z M91.8,230.9l-1-0.9l0.6-12.4c0.1,0,0.3,0,0.4,0c0.2,0,0.3,0,0.5,0l0.5,12.5
			L91.8,230.9z M91.8,230.9"/>
	</g>
	<circle class="st4" cx="156.5" cy="84.5" r="39.7"/>
	<g>
		<path class="st5" d="M142.2,85.5c0,0.3,0.4,0.5,0.7,0.3c0.4-0.3,0.8-0.6,1.1-1c4-4.1,3.4-8.9,6.8-13.1c0.2-0.3-0.1-0.6-0.4-0.5
			c-1.5,0.7-2.9,1.7-4.1,2.9C143.3,77.2,141.9,81.4,142.2,85.5"/>
		<path class="st5" d="M158.1,76.9c2.1-2.2,4.2-3.3,6.2-4.2c0.2-0.1,0.3-0.4,0-0.6c-1.3-0.8-2.6-1.4-4-1.8c-0.3-0.1-0.7,0-1,0.1
			c-1.4,0.8-2.9,1.8-4.4,3.3c-4.5,4.5-3.3,9.8-7.7,14.2c-1,1-2,1.7-3.1,2.3c-0.3,0.2-0.4,0.6-0.3,0.9c0.5,0.9,1,1.7,1.7,2.5
			c0.2,0.3,0.6,0.3,0.9,0.2c1.4-0.6,2.7-1.4,3.9-2.7C154.8,86.7,153.6,81.5,158.1,76.9"/>
		<path class="st5" d="M164.4,83.3c1.7-1.8,3.4-2.9,5.1-3.7c0.3-0.1,0.4-0.5,0.3-0.8c-0.4-0.9-0.8-1.8-1.4-2.6
			c-0.2-0.3-0.6-0.4-0.9-0.3c-2,0.8-4.1,2-6.2,4.2c-4.5,4.5-3.3,9.8-7.7,14.2c-1.1,1.1-2.2,1.8-3.3,2.4c-0.2,0.1-0.2,0.5,0,0.6
			c1.4,0.7,2.9,1.1,4.4,1.3c0.4,0,0.7-0.1,1-0.3c0.3-0.3,0.6-0.6,1-0.9C161.1,93.1,159.9,87.8,164.4,83.3"/>
		<path class="st5" d="M170.8,84.7c0-0.4-0.4-0.6-0.7-0.4c-0.8,0.6-1.7,1.3-2.6,2.2c-3.2,3.3-3.5,6.9-5.1,10.4
			c-0.1,0.3,0.1,0.5,0.4,0.4c1.4-0.7,2.6-1.6,3.8-2.7C169.3,91.8,170.7,88.3,170.8,84.7"/>
	</g>
	<circle class="st4" cx="228.5" cy="212.8" r="39.7"/>
	<g>
		<path class="st6" d="M243.4,206.4L229,195.9c-0.3-0.2-0.7-0.2-0.9,0l-14.4,10.6c-0.4,0.3-0.4,0.8-0.2,1.1c0.3,0.4,0.8,0.4,1.1,0.2
			l13.9-10.2l13.9,10.2c0.1,0.1,0.3,0.2,0.5,0.2c0.2,0,0.5-0.1,0.6-0.3C243.8,207.2,243.7,206.7,243.4,206.4z"/>
		<path class="st5" d="M239.6,207.9c-0.4,0-0.8,0.4-0.8,0.8v12.6h-6.3v-6.9c0-2.2-1.8-3.9-3.9-3.9c-2.2,0-3.9,1.8-3.9,3.9v6.9h-6.3
			v-12.6c0-0.4-0.4-0.8-0.8-0.8c-0.4,0-0.8,0.4-0.8,0.8v13.4c0,0.4,0.4,0.8,0.8,0.8h7.9c0.4,0,0.8-0.3,0.8-0.7c0,0,0,0,0-0.1v-7.7
			c0-1.3,1.1-2.4,2.4-2.4c1.3,0,2.4,1.1,2.4,2.4v7.7c0,0,0,0,0,0.1c0,0.4,0.4,0.7,0.8,0.7h7.9c0.4,0,0.8-0.4,0.8-0.8v-13.4
			C240.3,208.3,240,207.9,239.6,207.9z"/>
	</g>
</g>
</svg>
