<svg id="Layer_1" data-name="Layer 1" xmlns="http://www.w3.org/2000/svg" viewBox="0 0 99 60"><defs><style>.cls-1{fill:#fff;}.cls-2{fill:#b4cf00;}</style></defs><title>liki wiki logo_99x60</title><path class="cls-1" d="M21 52.5V45h7.5a7.5 7.5 0 0 1-7.5 7.5zM21 38h-.19A15 15 0 0 1 6 23h15a7.5 7.5 0 0 1 7.5 7.5c0 4.14-5.4 7.5-7.5 7.5zm24-14.87V30a15 15 0 0 1-15 15V18.75a7.57 7.57 0 0 1 7.5-7.5 7.42 7.42 0 0 1 7.5 6.86l3.78 2.52z"/><path class="cls-2" d="M30 0a30 30 0 1 0 30 30A30 30 0 0 0 30 0zm-9 52.5V45h7.5a7.5 7.5 0 0 1-7.5 7.5zM21 38h-.19A15 15 0 0 1 6 23h15a7.5 7.5 0 0 1 7.5 7.5c0 4.14-5.4 7.5-7.5 7.5zm24-14.87V30a15 15 0 0 1-15 15V18.75a7.57 7.57 0 0 1 7.5-7.5 7.42 7.42 0 0 1 7.5 6.86l3.78 2.52zM70 25V13h2v10h3v2h-5zM78 25V13h2v12h-2zM88 25l-2.22-5.29-.38.82-.4.82V25h-2V13h2v4.76h.08L87.3 13h2l-2.23 4.76L90 25h-2zM92 25V13h2v12h-2zM97 25v-2h2v2h-2zM92 45l-2.22-5.29-.38.82-.4.82V45h-2V33h2v4.76h.08L91.3 33h2l-2.23 4.76L94 45h-2zM96 45V33h2v12h-2zM82 45V33h2v12h-2zM77 33l-.95 7.34h-.1l-1.29-7.35L74 33l-.66-.01-1.29 7.35h-.1L71 33h-2l2 12h2l.97-7.44h.06L75 45h2l2-12h-2z"/></svg>