<?xml version="1.0" encoding="utf-8"?>
<!-- Generator: Adobe Illustrator 19.2.1, SVG Export Plug-In . SVG Version: 6.00 Build 0)  -->
<svg version="1.1" xmlns="http://www.w3.org/2000/svg" xmlns:xlink="http://www.w3.org/1999/xlink" x="0px" y="0px"
	 viewBox="0 0 198 315.4" style="enable-background:new 0 0 198 315.4;" xml:space="preserve">
<style type="text/css">
	.st0{fill:none;stroke:#B2A078;stroke-width:4;stroke-miterlimit:10;}
	.st1{fill:#B2A078;}
</style>
<g id="Layer_1">
</g>
<g id="Layer_2">
	<line class="st0" x1="130.4" y1="52.7" x2="150.2" y2="2.2"/>
	<line class="st0" x1="25.2" y1="314.4" x2="45" y2="263.9"/>
	<g>
		<path class="st1" d="M65.7,69.8l1.1-3.6H130c9.6,0,18.3,0.8,26.3,2.4c8,1.6,14.8,4.1,20.5,7.4c5.7,3.3,10.2,7.5,13.5,12.4
			c3.3,4.9,4.9,10.6,4.9,17.1c0,5.8-1.3,10.9-3.9,15.4c-2.6,4.5-6,8.4-10.1,11.7c-4.1,3.3-8.8,6.1-13.9,8.3
			c-5.2,2.2-10.2,4-15.2,5.4c-5,1.4-9.6,2.3-14,2.9c-4.4,0.6-7.9,0.9-10.5,0.9l-0.6,0.5c2.4,0.5,6.3,1.6,11.5,3.3
			c5.2,1.7,10.5,4.2,15.9,7.5c5.3,3.3,10,7.7,14,13c4,5.4,6,12,6,19.8c0,8.9-2.8,16.7-8.3,23.5c-5.5,6.8-12.7,12.5-21.6,17.1
			c-8.9,4.6-18.9,8-30,10.3c-11.1,2.3-22.2,3.5-33.3,3.5c-6.9,0-13.7-0.1-20.4-0.4c-6.6-0.3-13.5-0.4-20.6-0.4H-0.5l1.1-3.6H29
			L98.3,69.8H65.7z M67.2,245c4.1,0.3,8.2,0.4,12.4,0.4c12.2,0,22.6-2,31.3-6c8.7-4,15.9-9,21.6-14.9c5.7-6,9.9-12.5,12.6-19.8
			c2.7-7.2,4.1-14,4.1-20.3c0-4.3-0.6-8-1.7-11.2c-1.1-3.2-2.6-6-4.4-8.3c-1.8-2.3-3.7-4.3-5.8-5.9c-2.1-1.6-4.1-2.8-6.2-3.7
			c-3.7-1.7-7.5-2.8-11.4-3.2c-3.8-0.4-8.7-0.6-14.5-0.6H91l-36.2,92.7C58.9,244.5,63,244.8,67.2,245z M118.8,147.9
			c7.3,0,14-1.1,20.1-3.3c6.1-2.2,11.4-5.4,15.9-9.6c4.5-4.2,8-9.3,10.4-15.5c2.4-6.1,3.6-13,3.6-20.7c0-8.7-2.9-15.7-8.7-21.1
			c-5.8-5.4-14-8-24.7-8h-11.8l-30.9,78.1H118.8z"/>
	</g>
</g>
</svg>
