<svg id="Layer_1" xmlns="http://www.w3.org/2000/svg" viewBox="0 0 154.8 205.7"><style>.st0{fill:#87BA5C;} .st1{fill:#28637C;}</style><path class="st0" d="M78.3 3.8V37c0 2.1 1.7 3.8 3.8 3.8s3.8-1.7 3.8-3.8V3.8c0-2.1-1.7-3.8-3.8-3.8-2.1 0-3.8 1.7-3.8 3.8zm0 0M151 74.5h-33.1c-2.1 0-3.8 1.7-3.8 3.8s1.7 3.8 3.8 3.8H151c2.1 0 3.8-1.7 3.8-3.8s-1.7-3.8-3.8-3.8zm0 0M9.4 78.3c0 2.1 1.7 3.8 3.8 3.8h33.1c2.1 0 3.8-1.7 3.8-3.8s-1.7-3.8-3.8-3.8H13.2c-2.1 0-3.8 1.7-3.8 3.8zm0 0M30 25.5c.7-.7 1.1-1.7 1.1-2.7 0-1-.4-2-1.1-2.7-.7-.7-1.7-1.1-2.7-1.1-1 0-2 .4-2.7 1.1-.7.7-1.1 1.7-1.1 2.7 0 1 .4 2 1.1 2.7.7.7 1.7 1.1 2.7 1.1 1 0 2-.4 2.7-1.1zm0 0M40.3 35.7c-1.5 1.5-1.5 3.9 0 5.4.8.8 1.7 1.1 2.7 1.1 1 0 2-.4 2.7-1.1 1.5-1.5 1.5-3.9 0-5.4-1.5-1.4-4-1.4-5.4 0zm0 0M37.8 33.3c1.5-1.5 1.5-3.9 0-5.4-1.5-1.5-3.9-1.5-5.4 0-1.5 1.5-1.5 3.9 0 5.4.8.8 1.7 1.1 2.7 1.1 1 0 2-.3 2.7-1.1zm0 0M48.1 43.6c-.7.7-1.1 1.7-1.1 2.7 0 1 .4 2 1.1 2.7.7.7 1.7 1.1 2.7 1.1 1 0 2-.4 2.7-1.1.7-.7 1.1-1.7 1.1-2.7 0-1-.4-2-1.1-2.7-.7-.7-1.7-1.1-2.7-1.1-1-.1-2 .4-2.7 1.1zm0 0M130.6 22.6c-.7.7-1.1 1.7-1.1 2.7 0 1 .4 2 1.1 2.7.7.7 1.7 1.1 2.7 1.1 1 0 2-.4 2.7-1.1.7-.7 1.1-1.7 1.1-2.7 0-1-.4-2-1.1-2.7-.7-.7-1.7-1.1-2.7-1.1-1-.1-2 .3-2.7 1.1zm0 0M117.7 44.6c1 0 1.9-.4 2.7-1.1 1.5-1.5 1.5-3.9 0-5.4-1.5-1.5-3.9-1.5-5.4 0-1.5 1.5-1.5 3.9 0 5.4.8.8 1.7 1.1 2.7 1.1zm0 0M122.8 30.3c-1.5 1.5-1.5 3.9 0 5.4.8.8 1.7 1.1 2.7 1.1 1 0 1.9-.4 2.7-1.1 1.5-1.5 1.5-3.9 0-5.4-1.5-1.4-3.9-1.4-5.4 0zm0 0M106.1 48.7c0 1 .4 2 1.1 2.7.7.7 1.7 1.1 2.7 1.1 1 0 2-.4 2.7-1.1.7-.7 1.1-1.7 1.1-2.7 0-1-.4-2-1.1-2.7-.7-.7-1.7-1.1-2.7-1.1-1 0-2 .4-2.7 1.1-.7.7-1.1 1.7-1.1 2.7zm0 0"/><path class="st1" d="M154.1 127.3c0-11.8-9.6-21.4-21.4-21.4H99.5V82c0-10.1-2.9-17.4-8.8-21.6-9.2-6.8-21.9-2.9-22.4-2.7-1.6.5-2.6 2-2.6 3.6v26.9c0 21.2-24.6 28.4-25.6 28.7-.5.1-.9.4-1.3.7-1.3-1.6-3.3-2.7-5.5-2.7H7.1c-3.9 0-7.1 3.2-7.1 7.1v73.7c0 3.9 3.2 7.1 7.1 7.1h26.1c2.6 0 4.9-1.4 6.1-3.6 3.9 3.7 9 5.9 14.8 5.9h65.7c14.5 0 23.8-7.6 25.4-20.9L154 128c.1-.3.1-.5.1-.7zM32.7 195H7.6v-72.7h25.1V195zm105-12v.1c-1.2 9.5-7.2 14.3-17.9 14.3H54.1c-7.6 0-13.8-6.2-13.8-13.8v-59.5c.6.1 1.2.1 1.8 0 1.3-.3 31.1-9 31.1-36V64.2c3.3-.5 8.9-.8 13 2.2 3.8 2.8 5.7 8 5.7 15.5v27.8c0 2.1 1.7 3.8 3.8 3.8h37c7.5 0 13.6 6 13.8 13.5l-8.8 56zm0 0"/></svg>