<svg id="Layer_1" xmlns="http://www.w3.org/2000/svg" viewBox="0 0 390.7 291.8"><style>.st0{fill:#26637D;} .st1{fill:#85B856;}</style><path class="st0" d="M37.7 7.9v198.4L.8 280.4c-1.2 2.5-1.1 5.4.3 7.7 1.4 2.3 4 3.8 6.7 3.8h374.9c4.4 0 7.9-3.5 7.9-7.9 0-1.5-.4-3-1.2-4.2l-36.2-73.4V7.9c0-4.4-3.5-7.9-7.9-7.9H45.6c-4.4 0-7.9 3.5-7.9 7.9zM148.3 273l4.2-8.3h85.9l4.1 8.3h-94.2zM53.6 15.8h284v184.4h-284V15.8zm286.9 200.3L370 276H261.6l-11.2-22.7c-1.4-2.7-4.1-4.4-7.1-4.4h-95.8c-3 0-5.8 1.7-7.1 4.4L129.2 276H20.8l29.8-59.9h289.9zm0 0"/><path class="st1" d="M204.5 100h-18.2c-6.6 0-12-5.4-12-12s5.4-12 12-12h32.1c4.4 0 7.9-3.5 7.9-7.9s-3.5-7.9-7.9-7.9h-15.1V49c0-4.4-3.5-7.9-7.9-7.9s-7.9 3.5-7.9 7.9v11.1h-1.2c-15.4 0-27.8 12.5-27.8 27.8s12.5 27.8 27.8 27.8h18.2c6.6 0 12 5.4 12 12s-5.4 12-12 12h-32.7c-4.4 0-7.9 3.5-7.9 7.9s3.5 7.9 7.9 7.9h15.7V167c0 4.4 3.5 7.9 7.9 7.9s7.9-3.5 7.9-7.9v-11.4h1.2c15.4 0 27.8-12.5 27.8-27.8.1-15.2-12.4-27.8-27.8-27.8zm0 0"/></svg>