<svg id="Layer_1" xmlns="http://www.w3.org/2000/svg" viewBox="0 0 391.7 388"><style>.st0{fill:#85B856;} .st1{fill:#24637D;}</style><path class="st0" d="M248.6 105.6h44.1v100.7h-44.1zM173.8 59.8h44.1v146.5h-44.1z"/><path class="st1" d="M43.1 265.9h307c11.3 0 20.4-9.1 20.4-20.4v-231h13.9c4 0 7.3-3.3 7.3-7.3s-3.3-7.3-7.3-7.3H7.3C3.3 0 0 3.3 0 7.3s3.3 7.3 7.3 7.3h15.4v231c0 11.2 9.1 20.3 20.4 20.3zm312.8-20.4c0 3.3-2.6 5.9-5.9 5.9H43.1c-3.3 0-5.9-2.6-5.9-5.9v-231h318.7v231zm0 0M196.7 388c4 0 7.3-3.3 7.3-7.3v-40.9l45.8 45.8c1.4 1.4 3.3 2.2 5.1 2.2 1.8 0 3.7-.7 5.1-2.2 2.8-2.8 2.8-7.4 0-10.2l-56-56v-21.6h29c4 0 7.3-3.3 7.3-7.3s-3.3-7.3-7.3-7.3h-72.3c-4 0-7.3 3.3-7.3 7.3s3.3 7.3 7.3 7.3h28.8v21.6l-56.2 56.2c-2.8 2.8-2.8 7.4 0 10.2 1.4 1.4 3.3 2.2 5.1 2.2 1.8 0 3.7-.7 5.1-2.2l46-46v40.9c-.1 4 3.2 7.3 7.2 7.3zm0 0"/><path class="st1" d="M98.9 213.4H143c4 0 7.3-3.3 7.3-7.3v-64.8c0-4-3.3-7.3-7.3-7.3H99c-4 0-7.3 3.3-7.3 7.3v64.8c0 4.1 3.2 7.3 7.2 7.3zm7.3-64.7h29.6V199h-29.6v-50.3zm0 0M248.6 213.4h44.1c4 0 7.3-3.3 7.3-7.3V104c0-4-3.3-7.3-7.3-7.3h-44.1c-4 0-7.3 3.3-7.3 7.3v102.2c.1 4 3.3 7.2 7.3 7.2zm7.3-102.2h29.6V199h-29.6v-87.8zm0 0M173.8 213.4h44.1c4 0 7.3-3.3 7.3-7.3V59.8c0-4-3.3-7.3-7.3-7.3h-44.1c-4 0-7.3 3.3-7.3 7.3v146.5c.1 3.9 3.3 7.1 7.3 7.1zM181 67h29.6v132H181V67zm0 0"/></svg>