<svg id="Layer_1" xmlns="http://www.w3.org/2000/svg" viewBox="0 0 154.8 250.5"><style>.st0{fill:#28637C;} .st1{fill:#87BA5C;}</style><path class="st0" d="M154.7 1.8v86.7c0 .2-.1.5-.2 1H81.4v77.9h73.1v23.8c-3.8 0-7.5.1-11.3 0-1.9-.1-2.8.5-3.4 2.4-6 18.6-12.1 37.1-18.2 55.6-.2.5-.3.9-.5 1.4H33.4c-5.3-16-10.5-32-15.8-47.9-1-3.1-2.1-6.3-3.1-9.5-.4-1.5-1.2-2-2.8-1.9-3.8.1-7.7 0-11.7 0v-23.6h73.1V89.8H.1c0-.8-.1-1.2-.1-1.6V1.8h154.7zM121 9.7H34.2c-1.4 3.5-2.3 7-4 10.1-4.4 8.1-11.3 13-20.4 15-.7.2-1.8 1-1.8 1.6-.1 6.5-.1 13.1-.1 19.5.3.2.4.3.5.4l.9.3c13 2.8 20.9 10.7 24 23.4.4 1.6 1.1 1.8 2.5 1.8h82.7c2.1 0 2.6-.9 3-2.6 1.9-8.3 6.5-14.8 14-19 3.4-1.9 7.3-3.1 11.3-4.7 0-5.8-.1-12 0-18.2 0-1.7-.4-2.4-2.2-2.7-6.9-1.4-12.6-4.8-17.1-10.2-3.5-4.2-5.6-9.1-6.5-14.7zm11.3 181.7H22.4c5.7 17.3 11.2 34.3 16.8 51.2h76.4c5.5-17 11.1-34 16.7-51.2zm14.4-15.9H8.1v7.8h138.6v-7.8zM8.1 64.4v17.3h17.3c-.5-8-8.7-16.2-17.3-17.3zm138.6 17.3V64.4c-8.7 1.1-17.6 10.2-17.3 17.3h17.3zM8 27c8.8-1.1 17.4-9.7 17.4-17.2H8V27zM146.7 9.8h-17.6c1.7 9 9.4 16.5 17.6 17.2V9.8z"/><path class="st0" d="M35.8 41.9v7.5H19.4v-7.5h16.4zM118.8 49.4V42h16.5v7.4h-16.5z"/><path class="st1" d="M63.9 152.1H51.6c-9.7 0-19.4.2-29-.2-11.9-.5-21.2-9-22.2-20.7-.7-8.6-.1-17.3-.1-26.1.7 0 1.4-.1 2.1-.1h36.4c10.3 0 18.3 4.2 22.8 13.6 1.5 3.1 2.2 6.8 2.4 10.3.4 7.3.1 14.6.1 21.8-.1.3-.1.7-.2 1.4zm-55.8-39c0 5.9-.4 11.8.1 17.7.6 7.3 7.1 13.2 14.6 13.4 10.7.3 21.3.1 32 .1.4 0 .8-.1 1.3-.2 0-5.7.4-11.2-.1-16.8-.7-8.2-6.3-13.9-14.7-14.3-10.8-.5-21.6-.2-32.5-.2-.3 0-.5.2-.7.3zM154.7 105.2c0 5.9.1 11.7 0 17.5-.1 3.9.1 7.9-.8 11.6-2.7 10.8-11.2 17.4-22.9 17.7-12.9.3-25.9.1-38.9.1-.4 0-.8-.1-1.4-.2v-6.3c.1-6.8 0-13.6.5-20.4.8-10.1 10.5-19.6 20.9-19.9 13.8-.4 27.5-.3 41.3-.3.4 0 .7.1 1.3.2zm-8.1 7.8c-.2-.1-.5-.2-.7-.2-10.4 0-20.8-.2-31.3.1-7.9.2-14.1 4.7-15.3 11.7-1.1 6.4-.7 13-1.1 19.7 11.6 0 22.6.2 33.5-.1 7.4-.2 13.7-5.5 14.6-12.7.8-6.2.3-12.3.3-18.5zM77.3 71.3c-14.2.1-26-11.4-26.1-25.5-.1-14.1 11.5-25.7 25.9-25.9 14.2-.2 26.1 11.4 26.1 25.6.2 14.2-11.4 25.6-25.9 25.8zm0-46.4c-11.5 0-21 9.2-21 20.6-.1 11.4 9.4 20.7 20.9 20.8 11.6.1 21-9.1 21.1-20.5.1-11.5-9.3-20.8-21-20.9z"/><path class="st1" d="M79.9 58.4c0 .4-.1.9-.1 1.4h-4.9c0-.5-.1-1-.1-1.5-4.5-1.3-6.6-3.6-6.8-7.7h4.4c.2 0 .5.3.6.4.1.1 0 .3.1.4.5 1.2 1.5 1.8 2.7 1.7 1.9-.2 4.1.8 5.5-1.3 1-1.6 0-3.6-2-3.8-1.5-.2-3-.1-4.5-.2-3.9-.4-6.8-3.4-7-7.2-.2-3.7 2.4-6.9 6.1-7.8.2 0 .4-.1.7-.1.1-.5.1-1 .2-1.6h4.8c.1.5.1.9.2 1.5 4.1.9 6.5 3.3 6.9 7.6h-4.5c-1-.9-1.7-2.1-2.6-2.3-1.7-.3-3.6-.2-5.3.1-1.2.2-1.7 1.5-1.4 2.8.2 1.2 1 2 2.2 2.1 1.2.1 2.4 0 3.6.1 4 .2 6.9 2.5 7.7 6.1.7 3.2-1 6.7-4.1 8.2-.6.6-1.5.8-2.4 1.1z"/></svg>