<svg id="Layer_1" xmlns="http://www.w3.org/2000/svg" viewBox="0 0 392.9 358.6"><style>.st0{fill:#85B856;} .st1{fill:#24637D;} .st2{fill:#FFFFFF;}</style><path class="st0" d="M272.1 195.6l-9.8-164.1c-.8-13.5-12-24.1-25.6-24.1H193h6.8H156c-13.5 0-24.8 10.6-25.6 24.1l-9.8 164.1"/><path class="st1" d="M77.2 188.4H7.3c-4 0-7.3 3.3-7.3 7.3s3.3 7.3 7.3 7.3h17.6v30c0 4 3.3 7.3 7.3 7.3h18v111c0 4 3.3 7.3 7.3 7.3h25.3c4 0 7.3-3.3 7.3-7.3s-3.3-7.3-7.3-7.3H64.6V240.2h262.9v103.7h-18c-4 0-7.3 3.3-7.3 7.3s3.3 7.3 7.3 7.3h25.3c4 0 7.3-3.3 7.3-7.3v-111h18.6c4 0 7.3-3.3 7.3-7.3v-30.1h17.6c4 0 7.3-3.3 7.3-7.3s-3.3-7.3-7.3-7.3h-70l-8.6-47.4c-1.9-10.6-11.2-18.4-22-18.4h-10l-5.4-91.6C268.6 13.5 254.2 0 236.8 0h-80.7c-17.4 0-31.8 13.6-32.8 30.9l-5.4 91.6h-10c-10.8 0-20.1 7.8-22 18.4l-8.7 47.5zm276.2 37.3h-314v-22.8h313.8l.2 22.8zM285 137.1c3.8 0 7 2.7 7.8 6.5l8.1 44.7H279l-3-51.2h9zM137.8 31.9c.6-9.7 8.6-17.3 18.3-17.3h80.6c9.7 0 17.8 7.6 18.3 17.3l9.4 156.5h-136l9.4-156.5zm-37.7 111.7c.6-3.8 3.9-6.5 7.8-6.5h9.1l-3 51.2H92l8.1-44.7zm0 0"/><path class="st2" d="M161.7 86.6h67.7c4 0 7.3-3.3 7.3-7.3s-3.3-7.3-7.3-7.3h-67.7c-4 0-7.3 3.3-7.3 7.3s3.3 7.3 7.3 7.3zm0 0"/><path class="st1" d="M272.1 272.1c4 0 7.3-3.3 7.3-7.3s-3.3-7.3-7.3-7.3H120.7c-4 0-7.3 3.3-7.3 7.3s3.3 7.3 7.3 7.3h68.5v31.8h-33.3c-4 0-7.3 3.3-7.3 7.3v40c0 4 3.3 7.3 7.3 7.3s7.3-3.3 7.3-7.3v-32.7h26.1v32.7c0 4 3.3 7.3 7.3 7.3s7.3-3.3 7.3-7.3v-32.7H230v32.7c0 4 3.3 7.3 7.3 7.3s7.3-3.3 7.3-7.3v-40c0-4-3.3-7.3-7.3-7.3H204v-31.8h68.1zm0 0"/></svg>