<svg id="Layer_1" xmlns="http://www.w3.org/2000/svg" xmlns:xlink="http://www.w3.org/1999/xlink" viewBox="0 0 329.5 26.4"><style>.st0{clip-path:url(#SVGID_2_);fill:#F0F0F1;}</style><defs><path id="SVGID_1_" d="M0 0h329.5v26.4H0z"/></defs><clipPath id="SVGID_2_"><use xlink:href="#SVGID_1_" overflow="visible"/></clipPath><path class="st0" d="M9.2 21.4v-2.2C3.6 19 0 15.6 0 10.8c0-4.9 3.7-8.2 9.2-8.3v-2h4.3v2c5.5.2 9.2 3.4 9.2 8.3s-3.6 8.2-9.2 8.4v2.2H9.2zm0-15.6c-2.9 0-4.9 2-4.9 5 0 3.1 2.3 5 4.9 5v-10zm4.3 10c2.6 0 4.8-1.9 4.8-5 0-3-2-5-4.8-5v10zM36.7 0c6.8 0 10.8 5.2 10.8 10.9 0 6-4.6 10.9-10.8 10.9-7.5 0-10.9-5.8-10.9-10.9C25.8 5.1 30.3 0 36.7 0m-.1 17.9c3.7 0 6.5-3 6.5-7 0-3.9-2.5-7.1-6.5-7.1-3.7 0-6.5 3-6.5 7.1 0 4 2.8 7 6.5 7M64.2 12.4H56v8.7h-4.3V.7H56v8h8.2v-8h4.3v20.4h-4.3zM72.3 17.4h.8c1.5 0 2.9-1.1 3.2-5L77.2.7h14.5v16.7h2.9v9h-4.3v-5.3H76.6v5.3h-4.3v-9zm15.1-13H81l-.6 8c-.2 2.3-.6 3.9-1.6 5h8.5v-13zM119.5.7v3.7h-7.8v4.3h2.6c4.5 0 7.2 2.3 7.2 6.2 0 3.9-3 6.3-7.2 6.3h-6.9V.7h12.1zm-5.7 11.2h-2v5.9h2.2c2.1 0 3.2-1.1 3.2-3 0-1.8-1.3-2.9-3.4-2.9M135.6 0c6.8 0 10.8 5.2 10.8 10.9 0 6-4.6 10.9-10.8 10.9-7.5 0-10.9-5.8-10.9-10.9 0-5.8 4.6-10.9 10.9-10.9m-.1 17.9c3.7 0 6.5-3 6.5-7 0-3.9-2.5-7.1-6.4-7.1-3.7 0-6.5 3-6.5 7.1 0 4 2.8 7 6.4 7M150.6.7h6.5c4.4 0 7.7 2.1 7.7 6.6 0 4.1-2.5 6.7-7.9 6.7h-2.1v7.2h-4.3V.7zm6.5 3.4h-2.2v6.3h2.1c2.9 0 3.6-1.6 3.6-3.1 0-1.7-1-3.2-3.5-3.2M172.9.7v10.5c0 .9 0 2.7-.1 3.7h.1c.5-1.1 1.3-2.4 3.1-5.4l5.4-8.8h3.9v20.5h-4.1V11c0-.9.1-2.9.1-3.9h-.1c-.6 1.2-1.3 2.3-3.6 6l-4.9 8h-3.9V.7h4.1zM209.9 7.2h-4.6c-.5-1.9-2.4-3.5-5.2-3.5-3.6 0-6.2 2.9-6.2 7.2 0 3.9 2.5 7.3 6.3 7.3 3 0 4.7-1.9 5.3-3.9h4.8c-1.3 4.1-4.6 7.5-10.2 7.5-6.3 0-10.5-4.7-10.5-10.9C189.6 4.6 194 0 200.2 0c5.7 0 9 3.8 9.7 7.2M220.1.7h4l7.5 20.5h-4.4l-1.6-4.6H218l-1.6 4.6h-4.3l8-20.5zm-1 12.7h5.5l-1.7-4.9c-.4-1.1-.7-2.1-1-3.1h-.2c-.3 1.1-.6 2.1-1 3.2l-1.6 4.8zM243.8.7h12.5v3.7h-8.4v16.7h-4.1zM281 21.1h-4.1l-1-10c-.1-1.3-.3-3.3-.4-4.5h-.2c-.4 1.3-.8 3.1-1.2 4.5l-3 10h-3L265 11c-.4-1.3-.9-2.9-1.2-4.4h-.2c-.1 1.3-.2 3-.3 4.3l-1.1 10.2h-3.9L260.7.6h4.7l3 9.7c.4 1.1.8 2.6 1.1 3.8h.1c.3-1.1.8-2.7 1.1-3.8l2.9-9.7h4.7l2.7 20.5zM289.4.7v10.5c0 .9 0 2.7-.1 3.7h.1c.5-1.1 1.3-2.4 3.1-5.4l5.4-8.8h3.9v20.5h-4.1V11c0-.9.1-2.9.1-3.9h-.1c-.6 1.2-1.3 2.3-3.6 6l-4.9 8h-3.9V.7h4.1zM307.1.7h6.5c4.4 0 7.7 2.1 7.7 6.6 0 4.1-2.5 6.7-7.9 6.7h-2.1v7.2H307V.7zm6.5 3.4h-2.2v6.3h2.1c2.9 0 3.6-1.6 3.6-3.1 0-1.7-1-3.2-3.5-3.2M325.3.7h4.3v20.5h-4.3z"/></svg>