<svg id="Isolation_Mode" xmlns="http://www.w3.org/2000/svg" viewBox="0 0 118.1 50.4"><style>.st0{fill:#C49A6C;}</style><path class="st0" d="M0 17.4c0-.6.4-1.1 1-1.3 0 0 3.5-1 5.7-1.6.6-.2 1.3-.2 1.9-.4 1.5-.3 2.9-.8 4.4-1 1.3-.1 2.4-.7 3.7-.8 1.1-.1 2.3-.3 3.4-.5 1.5-.3 3-.6 4.5-.8 2.6-.4 5.1-1.2 7.7-1.3 1.6 0 3.1-.5 4.6-1 2.4-.8 4.8-1.5 7.2-1.9 1.5-.3 3-.9 4.5-.9 1.9 0 4.5-.6 4.5-.6.5-.1 1.4-.3 2-.3 0 0 1.1-.1 2.2-.6.8-.5 1.7-.5 2.7-.6 1.2-.1 2.5-.2 3.8-.4h.3c.3-.2.8-.2 1-.2.2.1 1.1.1 1.6 0 0 0 1.4-.3 2.5-.4 1.4-.2 2.8-.2 4.2-.4 1.2-.1 2.4-.4 3.5-.6.1 0 .2 0 .3-.1 1.6-.1 3.3-.1 4.9-.4 1.5-.3 3-.1 4.5-.6.3-.1.7-.1 1 0 1.8.1 3.6-.3 5.3-.6.3-.1.7-.1 1-.1h5c.9 0 1.4.4 1.4.4.5.3.5.9.1 1.3 0 0-1 1.1-1.9 1.9-1.3 1.3-3.1 1.8-4.5 2.8-1.3.9-3.3 2.1-3.3 2.1-.5.3-.9.4-1 .3-.1-.1.2-.7.6-1l7.1-5.4c.4-.3.4-.7-.2-.8 0 0-.9-.2-1.8-.1-.4 0-.8.2-1.3.3-2.7.2-5.4.3-8.1.6-2 .2-4.2.6-6.4.9-1.6.2-3.2.2-4.8.4-1 .1-2 .2-2.9.4-1.4.2-2.9.4-4.3.7-2.3.5-4.8.2-7.1.9-1.2.4-2.6.3-3.9.4-1.1.1-2.2.4-3.4.6-1 .2-2.1.3-3.1.5-1.3.3-2.9.7-2.9.7-.5.1-1.4.4-2 .5 0 0-2.1.5-3.6.7-1.5.2-3.3.9-3.3.9-.5.2-1.2.8-1.5 1.2 0 0-2 2.6-3.6 3.9-.2.2-.3.2-.3.2-.6 0-.8-.4-.5-.8l1.3-2.1c.3-.4.2-.7-.3-.6v.2c-1.2 1-2.8 2.4-2.8 2.4-.4.4-.5 1.1-.2 1.5 0 0 .6.9 1.5 1.5 2.3 1.3 4.5 2.6 6.8 3.9.8.5 1.4 1 1.4 1 .4.3 1.2.9 1.7 1.2l3.5 2.2c.5.3 1.1.2 1.4-.3l5-8.9c.3-.5.1-.7-.4-.4-.5.3-1.8 1-1.9 1-.1-.1-.1-.6.3-1 0 0 3.1-3 3.3-3.1.9-.6 1.9-1.3 1.9-1.3.5-.3.7-.1.5.4 0 0-.8 2.5-.8 2.6-1.2 2.3-2.3 4.6-3.5 6.9-.4.8-1 1.6-1.4 2.4-.4.8-.8 1.6-1.2 2.5-.3.7-.5 1.5-.5 1.5-.1.5-.4 1-.6 1-.2 0-.9-.2-1.4-.5l-2.9-2c-.5-.3-1.2-.9-1.6-1.2 0 0-1.7-1.3-3-2.2-.5-.3-1.1-.5-1.6-.8-1.5-.8-2.9-1.7-4.4-2.5-.8-.5-1.7-.8-2.4-1.6s-1.4-1.4-1.4-1.4c-.4-.4-.6-1.1-.4-1.7l1-2.4c.4-.4.3-.8-.1-.8l-.2.1c-.9.5-1.8.8-2.8.7H26c-1.4.7-3.1.4-4.5.9-.3.1-.5.1-.8.1-1.9-.2-3.8.5-5.7.8-2 .3-3.9.8-5.9 1.3-2.7.7-5.3 1.6-8 2.5H1c-.1.2.2.5.7.7 0 0 2.1.9 3.5 1.9 1.4 1 2.2 3.1 2.2 3.1.2.5.7.6 1 .2l8.4-8.5c.4-.4.9-.6 1.1-.5.2.1.6.6.6.8l-.1.1c-.9 1.1-2 2.1-3.2 3-1.2.9-2.1 2.1-3.1 3.2-.9 1-1.8 2-2.7 3.1-.5.6-.8 1-.8 1-.3.5-.4 1-.2 1.1.2.1.4.9.2 1.4L8.2 30c-.2.5-.2.9.1.8.3-.1 1.3-.6 1.7-.9l1.7-2.7c.3-.5.4-1 .3-1.2-.1-.2-.2-.8 0-1h.1l.5.2c.4.2.9.7.9 1 .1.3-1.2 3.1-1.6 3.5 0 0-.4.4-.8 1-1 1.2-4.5 2-4.5 2-.5.1-1.1.1-1.3 0-.1-.1-.6-.8-.6-1.2 0-.4.2-2.1.5-2.5l1.2-2c.3-.5.3-1.3 0-1.7 0 0-2-3.3-4.5-4.2-.7-.2-1-.4-1-.4-.5-.5-.9-1.1-.9-1.7v-1.6zM117.5 7.7c-.8.2-.9-.5-.9-.5-.1-.6-.1-1.5 0-2 0 0 0-.1.9.5.9.7.8 1.8 0 2M89.8 21.9c.4-.4 1-.2 1.2.3l.7 1.8c-.2.5.1 1.1.7 1.2l1.6.4c.6 0 1.3-.3 1.6-.5.3-.3 1.3-.9 1.5-.9.3 0 1.1.1 1.2.2.1.1.5.7.5.8-.1.2-.5.7-.8.9-.3.1-.7.7-.2 1.1 0 0 .9.6 1.8.9 1.1.3 2.3.3 3.4.4 1.7.1 3.4.5 5.2.8l.4.1c.4.2.7.9.7 1.5l.1 1.1c-.2.5-.6 1.3-.9 1.8l-3.4 5.7c-.3.5-.8 1.3-1 1.8l-2.3 4.8c-.2.5-.3 1.2-.3 1.4 0 .2.3 1.1.7 1.3.4.2 1.5.8 1.5.9 0 .1-.5.6-1 .6l-1.8-.3c-.5-.2-1.1-.7-1.3-1.3 0 0-.1-.2-.1-.8-.1-.5 0-.6 0-.6.1-.6.3-1.4.5-1.9l3.5-6.9c.3-.5.8-1.2 1.1-1.7 0 0 1.7-2.9 2.7-4.8.3-.5.3-.8.3-.8.1-.6-.2-1.1-.7-1.3h-.4c-2.4-.1-4.8-.2-7.3-.3-.4 0-.9-.1-1.3-.3-.8-.3-1.3-.5-1.3-.5-.5-.2-1-.6-1.2-.9-.1-.3-1-1-1.6-.8 0 0-.4.1-1.1.1-.7 0-1.1-.1-1.1-.1-.6-.1-1.3.2-1.6.7 0 0-.5.8-1 1.7-.3.6-.5.7-.5.7-.4.4-.8 1.2-1 1.7 0 0-.1.2-.5.7-1.2 1.4-2.6 2.7-3.9 4l-.1.1c-.3.1-.8-.2-1.2-.6 0 0-.4-.4 0-1.3.3-.8.6-1.5 1-2.2 1.4-2.5 3.1-4.9 4.3-7.5.8-1.6 2.7-3.2 2.7-3.2m-.6 3.7c-.1-.2-.4.1-.7.6l-1.1 1.9c-.3.5-.7 1.3-1 1.7l-.9 1.7c-.3.5-.4.9-.4 1 0 0 .5-.2.8-.5.4-.4 1.3-1.6 1.6-2.1l1.4-2.9c.3-.5.4-1.2.3-1.4"/><path class="st0" d="M53.4 22.5c.5-.3 1-.3 1.1.1.1.3.2 1.3-.1 1.6-.3.2-1 1-.8 1.1.2.1 1.1.2 1.6 0 0 0 .1 0 .6-.3 1.3-.8 2.4-2.4 2.4-2.4.3-.5.8-1.2 1.1-1.7l1.3-1.2c.4-.4.8-.6 1.1-.4.2.2.6.9.5 1.3-.1.4-1.2.9-1.5 1.4l-.8 2.5c-.2.5.1.9.6.8l2.4-.2c.5-.2 1.1-.8 1.3-1.3l2.6-3.5c.4-.4 1-.7 1.3-.7.3 0 .8 1 .5 1.1-.3.1-1.3.8-1.5 1.3L66 24c-.2.5 0 .8.6.7l2.8-.1c.5-.1 1.2-.7 1.4-1.2l2.5-2.9c.3-.4.8-.8 1-.8.2 0 .5 1 .2 1.5l-2.1 3.5c-.2.5.1.8.6.7l2.9-.4c.5-.2 1.2-.8 1.5-1.3l2.1-2.7c.4-.4.9-.5 1.1-.4.2.1.1 1.4-.2 1.8l-1.6 2.4c-.2.5.1.9.6.8l3.8.4c.5-.1.8.2.7.7l-.5.1c-1.4.4-2.7.7-4.1 1-1.2.3-2.1-.9-2.1-.9-.3-.4-1-.7-1.6-.5 0 0-.9.3-1.8.5s-1.7.3-1.7.3c-.6 0-1.2-.2-1.4-.5-.2-.3-1.2-1-1.8-.8l-1.9.7c-.5.2-1.2.2-1.5.2-.3-.1-1.1-.5-1.2-.7-.1-.2-.5-.8-.6-.6h-.1c-1.7.7-4.6 1.1-4.6 1.1-.6.1-1.1.1-1.2-.1l-.1-.2-.1-.2c-.1-.3-.5-.3-1 0 0 0-.8.5-1.7.7-.8.2-1.6.1-1.6.1-.6 0-1.2-.5-1.4-1 0 0-.2-.6 0-1.6.4-1.1 1.5-1.8 1.5-1.8M20.4 26.7c.6 0 1.1.3 1.3.6.1.3-.6 1.7-.8 1.7h-.4c-.2-.1-.6.1-.8.4-.2.4-1.2-.2-1.1-.7 0 0 .1-.6.5-1.2.5-.8 1.3-.8 1.3-.8"/></svg>