<svg id="Layer_1" xmlns="http://www.w3.org/2000/svg" viewBox="0 0 290 134.3"><style>.st0{clip-path:url(#SVGID_2_);fill:#FFFFFF;} .st1{clip-path:url(#SVGID_2_);fill:#C49A6C;}</style><defs><path id="SVGID_1_" d="M4 0h144.2v134.3H4z"/></defs><clipPath id="SVGID_2_"/><path class="st0" d="M11.2 8.5V10c-3.9.1-6.6 2.4-6.6 6 0 3.5 2.6 5.9 6.6 6v1.6h3.1V22c4-.1 6.6-2.6 6.6-6 0-3.5-2.6-5.8-6.6-6V8.5h-3.1zm0 11.1c-1.8 0-3.5-1.4-3.5-3.6s1.4-3.6 3.5-3.6v7.2zm6.5-3.6c0 2.2-1.6 3.6-3.5 3.6v-7.2c2.1 0 3.5 1.4 3.5 3.6M38.6 16c0-4.1-2.9-7.8-7.7-7.8-4.5 0-7.8 3.6-7.8 7.8 0 3.6 2.4 7.8 7.8 7.8 4.4 0 7.7-3.5 7.7-7.8m-12.4 0c0-2.9 2-5 4.6-5 2.8 0 4.6 2.2 4.6 5 0 2.9-2 5-4.6 5-2.6.1-4.6-2.1-4.6-5M41.6 8.7v14.7h3.1v-6.3h5.8v6.3h3.1V8.7h-3.1v5.8h-5.8V8.7zM59.8 8.7l-.6 8.4c-.2 2.9-1.2 3.6-2.3 3.6h-.6v6.4h3.1v-3.8h9.8v3.8h3.1v-6.4h-2.1v-12H59.8zm7.4 12h-6.1c.7-.8 1-1.9 1.1-3.6l.4-5.7h4.6v9.3zM14.1 41v-2.7H5.5v14.6h4.9c3 0 5.2-1.7 5.2-4.5 0-2.7-1.9-4.4-5.1-4.4h-2v-3h5.6zM10 46.4c1.6 0 2.4.8 2.4 2.1 0 1.4-.8 2.2-2.3 2.2H8.5v-4.3H10zM33.3 45.6c0-4.1-2.9-7.8-7.7-7.8-4.5 0-7.8 3.6-7.8 7.8 0 3.6 2.4 7.8 7.8 7.8 4.4 0 7.7-3.5 7.7-7.8m-12.3 0c0-2.9 2-5 4.6-5 2.8 0 4.6 2.2 4.6 5 0 2.9-2 5-4.6 5-2.6.1-4.6-2.1-4.6-5M40.9 47.8c3.8 0 5.6-1.8 5.6-4.8 0-3.2-2.4-4.7-5.5-4.7h-4.7v14.6h3.1v-5.2h1.5zm-1.5-7H41c1.8 0 2.5 1.1 2.5 2.3 0 1.1-.5 2.3-2.6 2.3h-1.5v-4.6zM52.3 38.3h-3v14.6h2.8l3.5-5.7c1.6-2.7 2.1-3.5 2.6-4.3h.1c0 .7-.1 2.1-.1 2.8V53h3V38.3h-2.8l-3.8 6.3c-1.3 2.1-1.8 3.1-2.2 3.9h-.1c0-.7.1-2 .1-2.6v-7.6zM71.8 40.4c2 0 3.3 1.2 3.7 2.5h3.3c-.5-2.4-2.9-5.2-7-5.2-4.4 0-7.6 3.3-7.6 7.8s3 7.8 7.5 7.8c4 0 6.4-2.4 7.3-5.4h-3.4c-.5 1.4-1.7 2.8-3.8 2.8-2.7 0-4.5-2.4-4.5-5.2.1-2.9 1.9-5.1 4.5-5.1M90.1 49.6l1.1 3.3h3.2L89 38.3h-2.9l-5.7 14.6h3.1l1.2-3.3h5.4zm-3.5-5.7c.3-.8.5-1.5.7-2.3h.1c.2.7.4 1.4.7 2.2l1.2 3.5h-3.9l1.2-3.4zM14.4 70.6v-2.7H5.5v14.6h2.9V70.6zM19.7 72.1h.2c.2 1.1.6 2.2.8 3.1l2.2 7.3H25l2.1-7.2c.3-1 .6-2.3.9-3.2h.1c.1.9.2 2.3.3 3.2l.7 7.2h3l-1.8-14.6h-3.4l-2.1 6.9c-.2.8-.6 1.9-.8 2.7h-.1c-.2-.8-.5-1.9-.8-2.7L21 67.9h-3.4l-1.7 14.6h2.8l.8-7.3c0-.9.1-2.1.2-3.1M38.1 67.9h-3v14.6h2.8l3.5-5.7c1.6-2.7 2.1-3.5 2.6-4.3h.1c0 .7-.1 2.1-.1 2.8v7.3h3V67.9h-2.8l-3.8 6.3c-1.3 2.1-1.8 3.1-2.2 3.9H38c0-.7.1-2 .1-2.6v-7.6zM55.4 77.4c3.8 0 5.6-1.8 5.6-4.8 0-3.2-2.4-4.7-5.5-4.7h-4.7v14.6h3.1v-5.2h1.5zm-1.5-7h1.5c1.8 0 2.5 1.1 2.5 2.3 0 1.1-.5 2.3-2.6 2.3h-1.5v-4.6z"/><path class="st0" d="M243.9 0H4v2.1h237.7v27.3H4v2.2h237.7v27.3H4V61h237.7v27.3H4v2.1h237.7v27.3H4v2.2h239.9z"/><path class="st1" d="M30.1 101.2c0-.6.4-1.1 1-1.3 0 0 3.5-1 5.7-1.6.6-.2 1.3-.2 1.9-.4 1.5-.3 2.9-.8 4.4-1 1.3-.1 2.4-.7 3.7-.8 1.1-.1 2.3-.3 3.4-.5 1.5-.3 3-.6 4.5-.8 2.6-.4 5.1-1.2 7.7-1.3 1.6 0 3.1-.5 4.6-1 2.4-.8 4.8-1.5 7.2-1.9 1.5-.3 3-.9 4.5-.9 1.9 0 4.5-.6 4.5-.6.5-.1 1.4-.3 2-.3 0 0 1.1-.1 2.2-.6.8-.4 1.8-.4 2.7-.5 1.2-.1 2.5-.2 3.8-.4h.3c.3-.2.8-.2 1-.2.2.1 1.1.1 1.6 0 0 0 1.4-.3 2.5-.4 1.4-.2 2.8-.2 4.2-.4 1.2-.1 2.4-.4 3.5-.6.1 0 .2 0 .3-.1 1.6-.1 3.3-.1 4.9-.4 1.5-.3 3-.1 4.5-.6.3-.1.7-.1 1 0 1.8.1 3.6-.3 5.3-.6.3-.1.7-.1 1-.1h5c.9 0 1.4.4 1.4.4.5.3.5.9.1 1.3 0 0-1 1.1-1.9 2-1.3 1.3-3.1 1.8-4.5 2.8-1.3.9-3.3 2.1-3.3 2.1-.5.3-.9.4-1 .3-.1-.1.2-.7.6-1l7.1-5.4c.4-.3.4-.7-.2-.8 0 0-.9-.2-1.8-.1-.4 0-.8.2-1.3.3-2.7.2-5.4.3-8.1.6-2.2.2-4.4.6-6.5.9-1.6.2-3.2.2-4.8.4-1 .1-2 .2-2.9.4-1.4.2-2.9.4-4.3.7-2.3.5-4.8.2-7.1.9-1.2.4-2.6.3-3.9.4-1.1.1-2.2.4-3.4.6-1 .2-2.1.3-3.1.5-1.3.3-2.9.7-2.9.7-.5.1-1.4.4-2 .5 0 0-2.1.5-3.6.7-1.5.2-3.3.9-3.3.9-.5.2-1.2.8-1.5 1.2 0 0-2 2.6-3.6 3.9-.2.2-.3.2-.3.2-.6 0-.8-.4-.5-.8l1.3-2.1c.3-.4.2-.7-.3-.6l-.2.2c-1.2 1-2.8 2.4-2.8 2.4-.4.4-.5 1.1-.2 1.5 0 0 .6.9 1.5 1.5 2.3 1.3 4.5 2.6 6.8 3.9.8.5 1.4 1 1.4 1 .4.3 1.2.9 1.7 1.2l3.5 2.2c.5.3 1.1.2 1.4-.3l5-8.9c.3-.5.1-.7-.4-.4-.5.3-1.8 1-1.9 1-.1-.1-.1-.6.3-1 0 0 3.1-3 3.3-3.1.9-.6 1.9-1.3 1.9-1.3.5-.3.7-.1.5.4 0 0-.8 2.5-.8 2.6-1.2 2.3-2.3 4.6-3.5 6.9-.4.8-1 1.6-1.4 2.4-.4.8-.8 1.6-1.2 2.5-.3.8-.5 1.5-.5 1.5-.1.5-.4 1-.6 1-.2 0-.9-.2-1.4-.5l-2.9-2c-.5-.3-1.2-.9-1.6-1.2 0 0-1.7-1.3-3-2.2-.5-.3-1.1-.5-1.6-.8-1.5-.8-2.9-1.7-4.4-2.5-.8-.5-1.7-.8-2.4-1.6s-1.4-1.4-1.4-1.4c-.4-.4-.6-1.1-.4-1.7l1-2.4c.4-.4.3-.8-.1-.8v-.1c-.9.5-1.8.8-2.8.7H56c-1.4.7-3.1.4-4.5.9-.3.1-.5.1-.8.1-1.9-.2-3.8.5-5.7.8-2 .3-3.9.8-5.9 1.3-2.7.7-5.3 1.6-8 2.5H31c-.1.2.2.5.7.7 0 0 2.1.9 3.5 1.9 1.4 1 2.3 3.1 2.3 3.1.2.5.7.6 1 .2l8.4-8.5c.4-.4.9-.6 1.1-.5.2.1.6.6.6.8l-.1.1c-.9 1.1-2 2.1-3.2 3-1.2.9-2.1 2.1-3.1 3.2-.9 1-1.8 2-2.7 3.1-.5.6-.8 1-.8 1-.3.5-.4 1-.2 1.1.2.1.4.9.2 1.4l-.5 1.2c-.2.5-.2.9.1.8.3-.1 1.3-.6 1.7-.9l1.7-2.7c.3-.5.4-1 .3-1.2-.1-.2-.2-.8 0-1h.1l.5.2c.4.2.9.7.9 1 0 .3-1.2 3.1-1.6 3.5 0 0-.4.4-.8 1-1 1.2-4.5 2-4.5 2-.5.1-1.1.1-1.3 0-.1-.1-.6-.8-.6-1.2 0-.4.2-2.1.5-2.5l1.2-2c.3-.5.3-1.3 0-1.7 0 0-2-3.3-4.5-4.2-.7-.2-1-.4-1-.4-.5-.3-.9-1-.9-1.5v-1.9zM147.6 91.6c-.8.2-.9-.5-.9-.5-.1-.6-.1-1.5 0-2 0 0 0-.1.9.5s.8 1.8 0 2M119.9 105.8c.4-.4 1-.2 1.2.3l.7 1.8c-.2.5.1 1.1.7 1.2l1.6.4c.6 0 1.3-.3 1.6-.5.3-.3 1.3-.9 1.5-.9.3 0 1.1.1 1.2.2.1.1.5.7.5.8-.1.2-.5.7-.8.9-.3.1-.7.7-.2 1.1 0 0 .9.6 1.8.9 1.1.3 2.3.3 3.4.4 1.7.1 3.4.5 5.2.8l.4.1c.4.2.7.9.7 1.5l.1 1.1c-.2.5-.6 1.3-.9 1.8l-3.4 5.7c-.3.5-.8 1.3-1 1.8l-2.3 4.8c-.2.5-.3 1.2-.3 1.4 0 .2.3 1.1.7 1.3s1.5.8 1.5.9c0 .1-.5.6-1 .6l-1.8-.3c-.5-.2-1.1-.7-1.3-1.3 0 0-.1-.2-.1-.8-.1-.5 0-.6 0-.6.1-.6.3-1.4.5-1.9l3.5-6.9c.3-.5.8-1.2 1.1-1.7 0 0 1.7-2.9 2.7-4.8.3-.5.3-.8.3-.8.1-.6-.2-1.1-.7-1.3h-.4c-2.4-.1-4.8-.2-7.3-.3-.4 0-.9-.1-1.3-.3-.8-.3-1.3-.5-1.3-.5-.5-.2-1-.6-1.2-.9-.1-.3-1-1-1.6-.8 0 0-.4.1-1.1.1-.7 0-1.1-.1-1.1-.1-.5-.1-1.2.1-1.5.6 0 0-.5.8-1 1.7-.3.6-.5.7-.5.7-.4.4-.8 1.2-1 1.7 0 0-.1.2-.5.7-1.2 1.4-2.6 2.7-3.9 4l-.1.1c-.3.1-.8-.2-1.2-.6 0 0-.4-.4 0-1.3.3-.8.6-1.5 1-2.2 1.4-2.5 3.1-4.9 4.3-7.5.7-1.5 2.6-3.1 2.6-3.1m-.6 3.7c-.1-.2-.4.1-.7.6l-1.1 1.9c-.3.5-.7 1.3-1 1.7l-.9 1.7c-.3.5-.4.9-.4 1 0 0 .5-.2.8-.5.4-.4 1.3-1.6 1.6-2.1l1.4-2.9c.3-.6.4-1.3.3-1.4"/><path class="st1" d="M83.5 106.4c.5-.3 1-.3 1.1.1.1.3.2 1.3-.1 1.6-.3.2-1 1-.8 1.1.2.1 1.1.2 1.6 0 0 0 .1 0 .6-.3 1.3-.8 2.4-2.4 2.4-2.4.3-.5.8-1.2 1.1-1.7l1.3-1.2c.4-.4.8-.6 1.1-.4.2.2.6.9.5 1.3-.1.3-1.2.9-1.5 1.3l-.8 2.5c-.2.5.1.9.6.8l2.4-.2c.5-.2 1.1-.8 1.3-1.3l2.6-3.5c.4-.4 1-.7 1.3-.7.3 0 .8 1 .5 1.1-.3.1-1.3.8-1.5 1.3l-1 2.2c-.2.5 0 .8.6.7l2.8-.1c.5-.1 1.2-.7 1.4-1.2l2.5-2.9c.3-.4.8-.8 1-.8.2 0 .5 1 .2 1.5l-2.1 3.5c-.2.5.1.8.6.7l2.9-.4c.5-.2 1.2-.8 1.5-1.3l2.1-2.7c.4-.4.9-.5 1.1-.4.2.1.2 1.4-.2 1.8l-1.6 2.4c-.2.5.1.9.6.8l3.8.4c.5-.1.8.2.7.7l-.5.1c-1.4.4-2.7.7-4.1 1-1.2.3-2.1-.9-2.1-.9-.3-.4-1-.7-1.6-.5 0 0-.9.3-1.8.5s-1.7.3-1.7.3c-.6 0-1.2-.2-1.4-.5-.2-.3-1.2-1-1.8-.8l-1.9.6c-.5.2-1.2.2-1.5.2-.3-.1-1.1-.5-1.2-.7-.1-.2-.5-.8-.6-.6h-.1c-1.7.7-4.6 1.1-4.6 1.1-.6.1-1.1.1-1.2-.1l-.1-.2-.1-.2c-.1-.3-.5-.3-1 0 0 0-.8.5-1.7.7-.8.2-1.6.1-1.6.1-.6 0-1.2-.5-1.4-1 0 0-.2-.6 0-1.6.3-1.1 1.4-1.8 1.4-1.8M50.5 110.6c.6 0 1.1.3 1.3.6.1.3-.6 1.7-.8 1.7h-.4c-.2-.1-.6.1-.8.4-.2.4-1.2-.2-1.1-.7 0 0 .1-.6.5-1.2.5-.9 1.3-.8 1.3-.8"/><path class="st0" d="M63.9 67.9H67v14.6h-3.1z"/></svg>