<svg id="svg2" xmlns="http://www.w3.org/2000/svg" viewBox="0 0 404 301"><style>.st0{fill:#FFFFFF;}</style><path id="path10" class="st0" d="M66.5 93.3v124.4c0 3.4-.4 5.1.8 6.7.6 1.1 1.7 1.7 2.6 1.7 1.3 0 2.4-.6 3.2-1.9 1.1-1.7.9-3.4.9-6.9v-124h5.8v126.9c0 8.6-3.2 12.9-9.9 12.9-2.8 0-5.2-.9-7.1-3-1.9-2.1-2.8-5.3-2.8-9.7v-127h6.5v-.1z"/><path id="polygon12" class="st0" d="M128.5 232.3l-9.4-85.4v85.4H114v-139h6.7l9.6 80.2V93.3h4.3v139h-6.1z"/><path id="polygon14" class="st0" d="M185.3 155.8v4.9h-9.2v65.8h10.5v5.8h-18.7v-139h17.4v6h-9.2v56.6h9.2z"/><path id="polygon16" class="st0" d="M367.3 73.6v11.6H39.9V73.6h327.4z"/><path id="polygon18" class="st0" d="M367.3 242.6v11.6H39.9v-11.6h327.4z"/><path id="polygon20" class="st0" d="M385.3 266v11.6H18.9V266h366.4z"/><path id="polygon22" class="st0" d="M403.6 288.7v11.8H.4v-11.8h403.2z"/><path id="polygon24" class="st0" d="M202 .5l164.5 46.8v12.4l-166-45.2-161.3 46V48.1L202 .5z"/><path id="polygon26" class="st0" d="M329.2 60.5h-33.9l-92-24.9-91.8 24.2-35 .7L203.7 24l125.5 36.5z"/><path id="path28" class="st0" d="M232 133.4h7.1v-27s-.2-7.9-2.1-10.1c-1.9-2.1-4.1-3.9-9-3.9-4.7.2-5.8 1.5-7.5 3.6-1.9 2.1-2.6 5.6-2.6 9.4 0 3.7.2 20.4.7 26 .6 5.4 5.8 27.5 8.8 38.2 2.8 10.9 4.1 16.3 4.3 19.3.2 3.2.6 13.9.2 19.1-.2 5.2 0 12.6 0 12.6s.4 5.8-3 5.8c-3.6 0-3.2-5.8-3.2-5.8v-33h-7.1v32.8s-1.9 12 9.4 12c11.4 0 11.4-10.7 11.4-10.7v-30s-.6-9.9-2.4-16.9c-1.9-6.7-7.9-28.3-9.2-34.3-1.5-6.4-2.1-15.7-2.1-24.2 0-8.4.2-13.7.2-13.7s-.2-3.9 3-3.9c3 0 2.8 4.1 2.8 4.1l.3 30.6z"/><path id="path30" class="st0" d="M286.5 133.7h6.2v-32.4c0-5.1-2.8-10.1-9.7-10.1-6.4 0-10.1 4.7-10.1 10.3v121.8c0 5.4 3.7 10.1 10.1 10.1 6.9 0 9.7-4.9 9.7-9.9V187h-6.2v36.4c0 1.9.2 4.1-3.6 4.1-3.9 0-3.6-3.4-3.6-4.7V101.9c0-1.3-.4-4.7 3.6-4.7 3.8 0 3.6 2.4 3.6 4.3v32.2z"/><path id="path32" class="st0" d="M338.2 91.2c-6.4 0-10.9 4.7-10.9 10.3v121.8c0 5.4 4.5 10.1 10.9 10.1 6.9 0 10.5-4.9 10.5-9.9V101.3c0-5-3.5-10.1-10.5-10.1zm4.3 132.1c0 1.9-.6 4.1-4.3 4.1-3.9 0-4.3-3.4-4.3-4.7V101.9c0-1.3.4-4.7 4.3-4.7 3.8 0 4.3 2.4 4.3 4.3v121.8z"/></svg>