<svg id="Слой_1" xmlns="http://www.w3.org/2000/svg" viewBox="0 0 55.8 55.8"><style>.st0{fill:#FFFFFF;}</style><path class="st0" d="M27.9 1.3c-14.7 0-26.6 12-26.6 26.6s12 26.6 26.6 26.6c14.7 0 26.6-12 26.6-26.6S42.6 1.3 27.9 1.3m0 54.4C12.6 55.7.1 43.2.1 27.9S12.6.1 27.9.1s27.8 12.5 27.8 27.8-12.5 27.8-27.8 27.8"/><path class="st0" d="M24 42.3H11.4c-.3 0-.6-.3-.6-.6V19c0-.3.3-.6.6-.6H15c.3 0 .6.3.6.6s-.3.6-.6.6h-3v21.5h12c.3 0 .6.3.6.6s-.2.6-.6.6M44.6 42.3h-13c-.3 0-.6-.3-.6-.6s.3-.6.6-.6h12.5V19.6h-3c-.3 0-.6-.3-.6-.6s.3-.6.6-.6h3.6c.3 0 .6.3.6.6v22.7c-.1.3-.3.6-.7.6M28 41.7c-.3 0-.6-.3-.6-.6V18.8c0-.3.3-.6.6-.6s.6.3.6.6v22.3c0 .4-.3.6-.6.6"/><path class="st0" d="M27.8 41.7c-.3 0-.5-.2-.6-.5 0-.1-.9-4-12.1-4-.3 0-.6-.3-.6-.6V14.3c0-.3.3-.6.6-.6 12.4 0 13.4 4.8 13.4 5 .1.3-.2.6-.5.7-.3.1-.6-.2-.7-.5 0 0-.9-3.9-11.7-4.1V36c11.9.1 12.6 4.8 12.7 5 .1.4-.1.7-.5.7.1 0 0 0 0 0"/><path class="st0" d="M28.2 41.7h-.1c-.3-.1-.5-.4-.4-.7 0-.2 1.1-4.8 12.7-5V14.9c-10.6.1-11.8 4-11.8 4.1-.1.3-.4.5-.7.4-.3-.1-.5-.4-.4-.7 0-.2 1.4-5 13.4-5 .3 0 .6.3.6.6v22.3c0 .3-.3.6-.6.6-11 0-12.1 4.1-12.1 4.1-.1.2-.3.4-.6.4"/><path class="st0" d="M31.3 23.3c-.2 0-.4-.1-.5-.4-.1-.3 0-.6.3-.7 1.7-.7 3.8-1.2 6.3-1.4.3 0 .6.2.6.5s-.2.6-.5.6c-2.4.2-4.4.7-6 1.4h-.2M31.3 27.8c-.2 0-.4-.1-.5-.4-.1-.3 0-.6.3-.7 1.7-.7 3.8-1.2 6.3-1.4.3 0 .6.2.6.5s-.2.6-.5.6c-2.4.2-4.4.7-6 1.4h-.2M31.3 32.4c-.2 0-.4-.1-.5-.4-.1-.3 0-.6.3-.7 1.7-.7 3.8-1.2 6.3-1.4.3 0 .6.2.6.5s-.2.6-.5.6c-2.4.2-4.4.7-6 1.4h-.2M24.7 23.3h-.2c-1.6-.7-3.6-1.1-6-1.4-.3 0-.5-.3-.5-.6s.3-.5.6-.5c2.5.3 4.6.7 6.3 1.4.3.1.4.5.3.7-.1.3-.3.4-.5.4M24.7 27.8h-.2c-1.6-.7-3.6-1.1-6-1.4-.3 0-.5-.3-.5-.6s.3-.5.6-.5c2.5.3 4.6.7 6.3 1.4.3.1.4.5.3.7-.1.3-.3.4-.5.4M24.7 32.4h-.2c-1.6-.7-3.6-1.1-6-1.4-.3 0-.5-.3-.5-.6s.3-.5.6-.5c2.5.3 4.6.7 6.3 1.4.3.1.4.5.3.7-.1.2-.3.4-.5.4"/></svg>