<svg id="Слой_1" xmlns="http://www.w3.org/2000/svg" viewBox="0 0 55.8 55.8"><style>.st0{fill:#FFFFFF;}</style><path class="st0" d="M27.9 1.3c-14.7 0-26.6 12-26.6 26.6 0 14.7 12 26.6 26.6 26.6 14.7 0 26.6-12 26.6-26.6.1-14.7-11.9-26.6-26.6-26.6m0 54.4C12.6 55.7.1 43.2.1 27.9S12.6.1 27.9.1s27.8 12.5 27.8 27.8-12.5 27.8-27.8 27.8"/><path class="st0" d="M33.1 21.1H22.9c-.3 0-.6-.3-.6-.6s.3-.6.6-.6h10.2c.3 0 .6.3.6.6s-.3.6-.6.6"/><path class="st0" d="M42.7 21.1H38c-.3 0-.6-.3-.6-.6s.3-.5.6-.5h4.2v-4.9H13.1V20H18c.3 0 .6.3.6.6s-.3.6-.6.6h-5.5c-.3 0-.6-.3-.6-.6v-6c0-.3.3-.6.6-.6h30.2c.3 0 .6.3.6.6v6c0 .3-.2.5-.6.5M42.7 42.7H12.5c-.3 0-.6-.3-.6-.6V23c0-.3.3-.6.6-.6s.6.3.6.6v18.5h29.1V23c0-.3.3-.6.6-.6s.6.3.6.6v19.1c-.1.3-.3.6-.7.6"/><path class="st0" d="M20.4 22.4c-.3 0-.6-.3-.6-.6v-3c0-.3.3-.6.6-.6s.6.3.6.6v3c0 .4-.2.6-.6.6M35.6 22.4c-.3 0-.6-.3-.6-.6v-3c0-.3.3-.6.6-.6s.6.3.6.6v3c-.1.4-.3.6-.6.6M28 35.7c-.3 0-.6-.3-.6-.6V26c0-.3.3-.6.6-.6s.6.3.6.6v9.1c0 .3-.3.6-.6.6"/><path class="st0" d="M25.7 29c-.1 0-.3-.1-.4-.2-.2-.2-.2-.6 0-.8l2.1-2.2c.2-.2.6-.2.8 0 .2.2.2.6 0 .8l-2.1 2.2c-.1.1-.2.2-.4.2M30.3 36h-4.5c-.3 0-.6-.3-.6-.6s.3-.6.6-.6h4.5c.3 0 .6.3.6.6s-.3.6-.6.6"/></svg>