<svg id="Слой_1" xmlns="http://www.w3.org/2000/svg" xmlns:xlink="http://www.w3.org/1999/xlink" viewBox="0 0 9 8.7"><style>.st0{clip-path:url(#SVGID_2_);fill:#868E92;} .st1{clip-path:url(#SVGID_4_);fill:#868E92;} .st2{fill:#868E92;}</style><defs><path id="SVGID_1_" d="M-492-1024H532v2089H-492z"/></defs><clipPath id="SVGID_2_"><use xlink:href="#SVGID_1_" overflow="visible"/></clipPath><path class="st0" d="M196.9-781.9c-.1.6-.8 1-1.5.9-.7-.1-1.1-.8-.9-1.4.1-.6.8-1 1.5-.9.6.1 1 .7.9 1.4m3.3-.1c0-.1-.1-.1-.2-.1l-.9-.2v-.4l.9-.4c.1 0 .1-.1.1-.1v-.2l-.5-1.1c0-.1-.1-.1-.1-.1h-.2l-.9.4-.2-.3.5-.8v-.2c0-.1-.1-.1-.1-.1l-1-.6c-.1-.1-.3 0-.3.1l-.5.8-.4-.1-.1-.9c0-.1 0-.1-.1-.2-.1 0-.1-.1-.2-.1l-1.2.1c-.1 0-.2.1-.2.3l.1.9-.4.1-.6-.7c-.1-.1-.3-.1-.4 0l-.9.8s-.1.1-.1.2 0 .1.1.2l.6.7-.2.3-1-.2h-.2c-.1 0-.1.1-.1.2l-.3 1.1v.2c0 .1.1.1.2.1l.9.2v.4l-.9.4c-.1.1-.2.2-.1.3l.5 1.1c0 .1.1.1.1.1h.2l.9-.4.2.3-.5.8c-.1.1 0 .3.1.3l1 .6h.2c.1 0 .1-.1.2-.1l.5-.8.4.1.1.9c0 .1 0 .1.1.2 0 0 .1 0 .1.1h.1l1.2-.1c.1 0 .1 0 .2-.1 0 0 .1-.1.1-.2l-.1-.9.4-.1.6.7s.1.1.2.1.1 0 .2-.1l.9-.8s.1-.1.1-.2 0-.1-.1-.2l-.6-.7.2-.3 1 .2h.2c.1 0 .1-.1.1-.2l.3-1.1c-.2-.1-.2-.1-.2-.2"/><g><defs><path id="SVGID_3_" d="M-492-1024H532v2089H-492z"/></defs><clipPath id="SVGID_4_"><use xlink:href="#SVGID_3_" overflow="visible"/></clipPath><path class="st1" d="M196.9-781.9c-.1.6-.8 1-1.5.9-.7-.1-1.1-.8-.9-1.4.1-.6.8-1 1.5-.9.6.1 1 .7.9 1.4m3.3-.1c0-.1-.1-.1-.2-.1l-.9-.2v-.4l.9-.4c.1 0 .1-.1.1-.1v-.2l-.5-1.1c0-.1-.1-.1-.1-.1h-.2l-.9.4-.2-.3.5-.8v-.2c0-.1-.1-.1-.1-.1l-1-.6c-.1-.1-.3 0-.3.1l-.5.8-.4-.1-.1-.9c0-.1 0-.1-.1-.2-.1 0-.1-.1-.2-.1l-1.2.1c-.1 0-.2.1-.2.3l.1.9-.4.1-.6-.7c-.1-.1-.3-.1-.4 0l-.9.8s-.1.1-.1.2 0 .1.1.2l.6.7-.2.3-1-.2h-.2c-.1 0-.1.1-.1.2l-.3 1.1v.2c0 .1.1.1.2.1l.9.2v.4l-.9.4c-.1.1-.2.2-.1.3l.5 1.1c0 .1.1.1.1.1h.2l.9-.4.2.3-.5.8c-.1.1 0 .3.1.3l1 .6h.2c.1 0 .1-.1.2-.1l.5-.8.4.1.1.9c0 .1 0 .1.1.2 0 0 .1 0 .1.1h.1l1.2-.1c.1 0 .1 0 .2-.1 0 0 .1-.1.1-.2l-.1-.9.4-.1.6.7s.1.1.2.1.1 0 .2-.1l.9-.8s.1-.1.1-.2 0-.1-.1-.2l-.6-.7.2-.3 1 .2h.2c.1 0 .1-.1.1-.2l.3-1.1c-.2-.1-.2-.1-.2-.2"/></g><path class="st2" d="M5.7 4.6c-.1.6-.8 1-1.5.9-.6-.1-1-.8-.9-1.4.1-.6.8-1 1.5-.9.6.1 1.1.8.9 1.4m3.3 0c0-.1-.1-.1-.2-.1l-.9-.2v-.4l.9-.4c.1 0 .1-.1.1-.1v-.2l-.5-1.1-.1-.1h-.2l-.9.4-.3-.3.5-.8v-.2c.1-.1 0-.1 0-.1l-1-.6C6.2.3 6 .3 6 .4l-.5.8h-.4L5 .2c0-.1 0-.1-.1-.2h-.2L3.5.1c-.1 0-.2.1-.2.3l.1.9-.4.1-.6-.7C2.3.6 2.1.6 2 .7l-.9.8s-.1.1-.1.2 0 .1.1.2l.6.7-.2.2-1-.2H.3c-.1 0-.1.1-.1.2L0 3.9v.2c0 .1.1.1.2.1l.9.2v.4l-.8.4c-.2 0-.2.2-.2.3l.5 1.1c0 .1.1.1.1.1h.2l.9-.4.2.3-.4.8c-.1.1 0 .3.1.3l1 .6h.2c.1.1.1 0 .2 0l.5-.8.4.1v.9c0 .1 0 .1.1.2 0 0 .1 0 .1.1h.1l1.2-.1c.1 0 .1 0 .2-.1 0 0 .1-.1.1-.2l-.2-1 .4-.1.6.7s.1.1.2.1S7 8 7 8l.9-.8c.1 0 .1-.1.1-.1 0-.1 0-.2-.1-.2l-.6-.7.2-.3 1 .2h.2c0-.1 0-.1.1-.2L9 4.8v-.2"/></svg>