<svg id="Слой_1" xmlns="http://www.w3.org/2000/svg" viewBox="0 0 55.8 55.8"><style>.st0{fill:#FFFFFF;}</style><path class="st0" d="M28.1 1.4C13.4 1.4 1.4 13.4 1.4 28s12 26.6 26.6 26.6 26.6-12 26.6-26.6S42.8 1.4 28.1 1.4m0 54.4C12.7 55.8.3 43.4.3 28 .3 12.7 12.8.2 28.1.2S55.8 12.7 55.8 28c0 15.4-12.4 27.8-27.7 27.8"/><path class="st0" d="M21.4 32.5c-.2 0-.5.1-.6.2l-2.5 2.5c-.4.4-.3 1 .1 1.4.4.4 1.1.5 1.4.1l2.5-2.5c.2-.2.3-.4.2-.7 0-.3-.1-.6-.3-.8-.2 0-.5-.2-.8-.2m-2.2 5.7c-.6 0-1.1-.2-1.6-.7-.5-.5-.7-1.1-.7-1.6-.6 0-1.2-.2-1.6-.7-.8-.8-.9-2.2-.1-3l2.4-2.4-6.2-6.2c-.3-.3-.3-.8 0-1.1l8.5-8.5c.1-.1.4-.2.6-.2.2 0 .4.1.6.2l2.9 2.9h7.8l3.5-3.5c.3-.3.8-.3 1.1 0l8.5 8.5c.1.1.2.4.2.6 0 .2-.1.4-.2.6l-6 6 1.6 1.6c.8.8.7 2.1-.1 2.9-.4.4-1 .7-1.6.7 0 .6-.3 1.2-.7 1.6-.4.4-1 .7-1.6.7 0 .6-.3 1.2-.7 1.6-.4.4-1 .7-1.6.7 0 .6-.3 1.2-.7 1.6-.4.4-1 .7-1.6.7-.5 0-1-.2-1.4-.6l-2.2-2.2c0 .4-.2.9-.5 1.2l-2.5 2.5c-.4.4-.9.6-1.4.6-.6 0-1.1-.2-1.6-.7-.4-.4-.6-.9-.7-1.5v-.2c-.6 0-1.2-.2-1.6-.7-.6-.2-.8-.8-.8-1.4zM16.1 27l2.3 2.3c.2-.1.4-.1.7-.1.6 0 1.1.2 1.6.7.5.5.7 1.1.7 1.6.6 0 1.2.2 1.6.7.4.4.6.9.7 1.5v.2c.6 0 1.2.2 1.6.7.5.5.7 1.1.7 1.6.5 0 1 .2 1.4.5.1-.5.3-.9.6-1.3.4-.4 1-.7 1.6-.7.1-.1.1-.1.1-.2 0-.5.3-1.1.7-1.5.4-.4 1-.7 1.6-.7 0-.6.3-1.2.7-1.6.4-.4 1-.7 1.6-.7.1-.1.1-.1.1-.2 0-.5.3-1.1.7-1.5.1-.1.2-.2.4-.3l-5.6-5.6h-2.8l-1.5 1.5v3.8c0 1.2-1 2.2-2.2 2.2-1.2 0-2.2-1-2.2-2.2V22l-5.1 5zm5-6.6v-.7c0-1.1.6-2 1.6-2.5L20.4 15l-8.1 8.1 3 3 5.8-5.7zm-3.6 14.2L20 32c.2-.2.3-.4.2-.7 0-.3-.1-.5-.3-.8-.2-.2-.5-.3-.8-.3-.2 0-.5.1-.6.2L16 33c-.2.2-.3.4-.2.7 0 .3.1.6.3.8.4.4 1 .4 1.4.1m5.6.5l-2.5 2.5c-.4.4-.3 1 .1 1.4.4.4 1.1.5 1.4.1l2.5-2.5c.4-.4.3-1-.1-1.4-.2-.2-.5-.3-.8-.3-.2-.1-.5 0-.6.2m2.3 2.3l-2.5 2.5c-.2.2-.3.4-.2.7 0 .3.1.6.3.8.4.4 1.1.5 1.4.1l2.5-2.5c.2-.2.3-.4.2-.7 0-.3-.1-.6-.3-.8-.2-.2-.5-.3-.8-.3-.2-.1-.5 0-.6.2m7.2-19.9l8.1 8.1 3-3-8.1-8.1-3 3zm-3 18.1c-.3 0-.6.1-.8.3-.4.4-.5 1.1-.1 1.4l2.5 2.5c.4.3 1 .3 1.4-.1.2-.2.3-.5.3-.8 0-.3-.1-.5-.2-.7l-2.5-2.5c-.2 0-.4-.1-.6-.1m1.3-.5l2.5 2.5c.4.3 1 .3 1.4-.1.4-.4.5-1.1.1-1.4l-2.5-2.5c-.2-.2-.4-.2-.6-.2-.3 0-.6.1-.8.4-.4.3-.4.9-.1 1.3m2.3-2.3l2.5 2.5c.4.3 1 .3 1.4-.1.4-.4.5-1.1.1-1.4l-2.5-2.5c-.2-.2-.4-.2-.6-.2-.3 0-.6.1-.8.3-.4.4-.4 1.1-.1 1.4m2.3-2.3L38 33c.4.3 1 .3 1.4-.1.2-.2.3-.5.3-.8 0-.3-.1-.5-.2-.7L37.1 29c-.2-.2-.4-.2-.6-.2-.3 0-.6.1-.8.3-.5.4-.5 1.1-.2 1.4m-3.8-12.4h-7.8c-.2 0-.3 0-.5.1-.6.2-1 .6-1.2 1.2 0 .2-.1.3-.1.5v8c0 .6.5 1.2 1.1 1.2s1.1-.5 1.1-1.2v-4c0-.1.1-.3.2-.4l1.8-1.8c.1-.1.2-.2.4-.2h3.2c.1 0 .3.1.4.2l6.1 6.1c.5 0 1 .2 1.4.6l.2.2 2-2-8.3-8.5z"/></svg>