<?xml version="1.0" encoding="utf-8"?>
<!-- Generator: Adobe Illustrator 21.0.2, SVG Export Plug-In . SVG Version: 6.00 Build 0)  -->
<svg version="1.1" id="Layer_1" xmlns="http://www.w3.org/2000/svg" xmlns:xlink="http://www.w3.org/1999/xlink" x="0px" y="0px"
	 viewBox="0 0 209 258.5" style="enable-background:new 0 0 209 258.5;" xml:space="preserve">
<style type="text/css">
	.st0{fill:#87BA5C;stroke:#87BA5C;stroke-width:3;stroke-miterlimit:10;}
</style>
<g>
	<path class="st0" d="M2.7,256.5c0-23.9,0-47.8-0.1-71.7c0-18.1,0-36.2,0-54.3c0-1,0-1.9,0-3.2c18.4,0,36.7,0,55.3,0
		c0-4.7,0-13.1,0-17.4c0-7.3,3.2-11.6,10.3-13.8c-0.4-0.3-0.6-0.6-0.9-0.7c-12.3-6-14.7-20.7-4.4-29.9c6-5.4,7.9-12.5,7.2-18.8
		c-2.1,0-4.3,0-6.4,0c-2.1,0-4.2,0-6.7,0c0-15.1,0-30,0-44.8c2.6,0,5.2,0,7.8,0c0,12.2,0,24.4,0,36.6c26.3,0,52.2,0,78.4,0
		c0-12.4,0-24.5,0-36.6c2.6,0,5.2,0,7.8,0c0,14.8,0,29.7,0,44.8c-4.4,0-8.7,0-13.2,0c0,16.5,0,32.7,0,49.1c0.8,0.2,1.7,0.4,2.5,0.6
		c5.6,1.4,9.4,6,9.6,11.8c0.1,2.4,0,4.9,0,7.3c0,2.4,0,8.9,0,11.7c18.4,0,36.7,0,55.2,0c0.1,0.9,0.2,1.4,0.2,1.9
		c0,42.2,0,84.4,0,126.5c0,0.3,0,0.7,0,1C137.9,256.5,70.3,256.5,2.7,256.5z M161.1,248.5c0-38,0-75.6,0-113.2c-38.2,0-76.1,0-114,0
		c0,37.9,0,75.5,0,113.2C85.2,248.5,123.1,248.5,161.1,248.5z M70.4,87.6c0-3,0-5.6,0-8.4c2.7,0,5.2,0,7.9,0c0,7.1,0,14.1,0,21.1
		c0,2.3,0,4.6,0.1,6.8c0.1,1.7,0.9,3,2.7,3.3c1.8,0.3,2.9-0.4,3.8-1.9c0.3-0.6,1.1-1.2,1.7-1.3c2.1-0.2,4.2-0.1,6.3-0.1
		c-0.1,0.2-0.2,0.4-0.3,0.6c1.2,0.9,2.3,2.2,3.7,2.5c0.9,0.2,2.8-0.7,3.2-1.5c0.8-1.6,1.8-1.8,3.3-1.7c1.1,0.1,2.1,0.1,3.2,0
		c1.2,0,2,0.2,2.6,1.5c1.3,2.6,4.8,2.5,6-0.1c0.6-1.3,1.3-1.4,2.4-1.4c1.2,0,2.4,0,3.7,0c1.3-0.1,2.1,0.2,2.9,1.5
		c0.6,1,2.5,1.7,3.6,1.6c1-0.1,1.8-1.7,2.5-2.7c0.3-0.5,0.1-1.3,0.1-1.9c0-18.8,0-37.5,0.1-56.3c0-2.2-0.6-2.9-2.9-2.9
		c-15.3,0.1-30.7,0.1-46,0.1c-0.9,0-1.7,0.1-2.4,0.2c-0.1,0.4-0.2,0.6-0.2,0.7c0,0.5-0.1,1-0.1,1.5c0,8.7-2.9,16.1-9.6,21.8
		c-0.9,0.7-1.6,1.6-2.3,2.5C62.9,78.3,64.6,84.9,70.4,87.6z M38.8,248.5c0-37.9,0-75.6,0-113.4c-9.4,0-18.7,0-28,0
		c0,37.8,0,75.6,0,113.4C20.1,248.5,29.3,248.5,38.8,248.5z M197.5,135.2c-9.6,0-18.9,0-28.2,0c0,37.8,0,75.5,0,113.2
		c9.5,0,18.8,0,28.2,0C197.5,210.6,197.5,173,197.5,135.2z M70.4,103.9c-2.6,0.3-4.1,1.6-4.2,3.5c-0.2,5.2-0.1,14.3-0.1,19.5
		c25.5,0,50.7,0,76.1,0c0-5.1,0.1-14-0.1-19c-0.1-2.3-1.6-3.8-4.3-4c0.2,5.1-0.6,9.8-5.2,12.8c-4.6,3-9.3,2.4-13.7-0.7
		c-4.6,3.2-9.2,3.6-14,0.6c-0.4-0.3-1.2-0.4-1.5-0.2c-4.9,3.3-9.6,2.8-14.3-0.4c-4.5,3.2-9,3.6-13.6,0.7
		C71,113.9,70.1,109.2,70.4,103.9z"/>
	<path class="st0" d="M38.8,156.5c-9.5,0-18.7,0-28,0c0-3.8,0-7.5,0-11.3c9.3,0,18.6,0,28,0C38.8,148.9,38.8,152.7,38.8,156.5z"/>
	<path class="st0" d="M197.5,145.2c0,3.8,0,7.5,0,11.3c-9.4,0-18.7,0-28.2,0c0-3.8,0-7.5,0-11.3C178.7,145.2,188,145.2,197.5,145.2z
		"/>
	<path class="st0" d="M78.3,23c0,2.5,0,4.9,0,7.5c-2.5,0-5,0-7.7,0c0-2.4,0-4.9,0-7.5C73,23,75.5,23,78.3,23z"/>
</g>
</svg>
