<?xml version="1.0" encoding="utf-8"?>
<!-- Generator: Adobe Illustrator 21.0.2, SVG Export Plug-In . SVG Version: 6.00 Build 0)  -->
<svg version="1.1" id="Layer_1" xmlns="http://www.w3.org/2000/svg" xmlns:xlink="http://www.w3.org/1999/xlink" x="0px" y="0px"
	 viewBox="0 0 209 164.8" style="enable-background:new 0 0 209 164.8;" xml:space="preserve">
<style type="text/css">
	.st0{fill:#87BA5C;}
</style>
<g>
	<g>
		<path class="st0" d="M182.9,0H26.3l-7.2,21.4h-0.4v1.1L0.2,78.1h17.4v86.7h174V78.1H209L182.9,0z M156.1,44.6h-28.5l-1-14.5h26.5
			L156.1,44.6z M157.8,53.3l3.2,16.1h-31.8l-1.1-16.1H157.8z M148.8,8.7l2.6,12.7H126l-0.9-12.7H148.8z M92.7,8.7h23.8l0.9,12.7
			H91.9L92.7,8.7z M91.3,30.1h26.6l1,14.5H90.3L91.3,30.1z M89.7,53.3h29.8l1.1,16.1H88.6L89.7,53.3z M60.3,8.7H84l-0.9,12.7H57.7
			L60.3,8.7z M56,30.1h26.5l-1,14.5H53.1L56,30.1z M81,53.3l-1.1,16.1H48.1l3.2-16.1H81z M32.5,8.7h18.9l-2.6,12.7H28.3L32.5,8.7z
			 M25.4,30.1h21.8l-2.9,14.5H20.5L25.4,30.1z M12.2,69.4l5.4-16.1h24.9l-3.2,16.1H12.2z M156.8,156.1H122v-52h34.8V156.1z
			 M182.9,156.1h-17.4V95.4h-52.2v60.7h-87V78.1h156.6V156.1z M169.9,69.4L160.4,22v-0.6h-0.1l-2.6-12.7h18.9l20.3,60.7H169.9z
			 M95.9,95.4H43.7v34.7h52.2V95.4z M87.2,121.4H52.4v-17.3h34.8V121.4z M130.7,134.4c2.4,0,4.4-1.9,4.4-4.3c0-2.4-2-4.3-4.4-4.3
			c-2.4,0-4.4,1.9-4.4,4.3C126.3,132.5,128.3,134.4,130.7,134.4z"/>
	</g>
</g>
</svg>
