<?xml version="1.0" encoding="utf-8"?>
<!-- Generator: Adobe Illustrator 21.0.2, SVG Export Plug-In . SVG Version: 6.00 Build 0)  -->
<svg version="1.1" id="Слой_1" xmlns="http://www.w3.org/2000/svg" xmlns:xlink="http://www.w3.org/1999/xlink" x="0px" y="0px"
	 viewBox="0 0 40 40" style="enable-background:new 0 0 40 40;" xml:space="preserve">
<style type="text/css">
	.st0{fill:#87BA5C;}
	.st1{fill:#28637C;}
</style>
<g>
	<path class="st0" d="M39,38.1H0.9c-0.5,0-0.9,0.4-0.9,0.9C0,39.6,0.4,40,0.9,40H39c0.5,0,0.9-0.4,0.9-0.9S39.5,38.1,39,38.1z"/>
	<path class="st1" d="M3.4,34.7H10h6.6h6.6h6.6h6.6c0.5,0,0.9-0.4,0.9-0.9V5.4c0-0.5-0.4-0.9-0.9-0.9h-6.6c-0.5,0-0.9,0.4-0.9,0.9
		v11.3h-4.7V0.9c0-0.5-0.4-0.9-0.9-0.9h-6.6c-0.5,0-0.9,0.4-0.9,0.9v22.8H11v-8c0-0.5-0.4-0.9-0.9-0.9H3.4c-0.5,0-0.9,0.4-0.9,0.9
		v18.1C2.5,34.3,2.9,34.7,3.4,34.7z M30.9,17.7V6.3h4.7v26.5h-4.7V17.7z M24.2,18.6H29v14.2h-4.7V18.6z M17.6,1.9h4.7v15.8v15.1
		h-4.7V1.9z M11,25.6h4.7v7.2H11V25.6z M4.3,16.6h4.7v16.2H4.3V16.6z"/>
</g>
</svg>
