<?xml version="1.0" encoding="utf-8"?>
<!-- Generator: Adobe Illustrator 21.0.2, SVG Export Plug-In . SVG Version: 6.00 Build 0)  -->
<svg version="1.1" id="Layer_1" xmlns="http://www.w3.org/2000/svg" xmlns:xlink="http://www.w3.org/1999/xlink" x="0px" y="0px"
	 viewBox="0 0 391.7 388" style="enable-background:new 0 0 391.7 388;" xml:space="preserve">
<style type="text/css">
	.st0{fill:#85B856;}
	.st1{fill:#24637D;}
</style>
<g>
	<rect x="248.6" y="105.6" class="st0" width="44.1" height="100.7"/>
	<rect x="173.8" y="59.8" class="st0" width="44.1" height="146.5"/>
	<path class="st1" d="M43.1,265.9h307c11.3,0,20.4-9.1,20.4-20.4v-231h13.9c4,0,7.3-3.3,7.3-7.3c0-4-3.3-7.3-7.3-7.3H7.3
		C3.3,0,0,3.3,0,7.3c0,4,3.3,7.3,7.3,7.3h15.4v231C22.7,256.8,31.8,265.9,43.1,265.9L43.1,265.9z M355.9,245.5
		c0,3.3-2.6,5.9-5.9,5.9H43.1c-3.3,0-5.9-2.6-5.9-5.9v-231h318.7V245.5z M355.9,245.5"/>
	<path class="st1" d="M196.7,388c4,0,7.3-3.3,7.3-7.3v-40.9l45.8,45.8c1.4,1.4,3.3,2.2,5.1,2.2c1.8,0,3.7-0.7,5.1-2.2
		c2.8-2.8,2.8-7.4,0-10.2l-56-56v-21.6h29c4,0,7.3-3.3,7.3-7.3c0-4-3.3-7.3-7.3-7.3h-72.3c-4,0-7.3,3.3-7.3,7.3c0,4,3.3,7.3,7.3,7.3
		h28.8v21.6l-56.2,56.2c-2.8,2.8-2.8,7.4,0,10.2c1.4,1.4,3.3,2.2,5.1,2.2c1.8,0,3.7-0.7,5.1-2.2l46-46v40.9
		C189.4,384.7,192.7,388,196.7,388L196.7,388z M196.7,388"/>
	<path class="st1" d="M98.9,213.4H143c4,0,7.3-3.3,7.3-7.3v-64.8c0-4-3.3-7.3-7.3-7.3H99c-4,0-7.3,3.3-7.3,7.3v64.8
		C91.7,210.2,94.9,213.4,98.9,213.4L98.9,213.4z M106.2,148.7h29.6V199h-29.6V148.7z M106.2,148.7"/>
	<path class="st1" d="M248.6,213.4h44.1c4,0,7.3-3.3,7.3-7.3V104c0-4-3.3-7.3-7.3-7.3h-44.1c-4,0-7.3,3.3-7.3,7.3v102.2
		C241.4,210.2,244.6,213.4,248.6,213.4L248.6,213.4z M255.9,111.2h29.6V199h-29.6V111.2z M255.9,111.2"/>
	<path class="st1" d="M173.8,213.4h44.1c4,0,7.3-3.3,7.3-7.3V59.8c0-4-3.3-7.3-7.3-7.3h-44.1c-4,0-7.3,3.3-7.3,7.3v146.5
		C166.6,210.2,169.8,213.4,173.8,213.4L173.8,213.4z M181,67h29.6v132H181V67z M181,67"/>
</g>
</svg>
