<?xml version="1.0" encoding="utf-8"?>
<!-- Generator: Adobe Illustrator 21.0.2, SVG Export Plug-In . SVG Version: 6.00 Build 0)  -->
<svg version="1.1" id="Слой_1" xmlns="http://www.w3.org/2000/svg" xmlns:xlink="http://www.w3.org/1999/xlink" x="0px" y="0px"
	 viewBox="0 0 29.7 40" style="enable-background:new 0 0 29.7 40;" xml:space="preserve">
<style type="text/css">
	.st0{fill:#28637C;}
	.st1{fill:#87BA5C;}
</style>
<g>
	<path class="st0" d="M25.9,0c0.6,0.3,1.3,0.4,1.9,0.8c1.3,0.8,1.9,2.1,1.9,3.7c0,5.1,0,10.2,0,15.3c0,5.2,0,10.5,0,15.7
		c0,2.4-1.3,4-3.7,4.5c0,0-0.1,0-0.1,0.1c-7.4,0-14.8,0-22.2,0c-0.4-0.1-0.8-0.2-1.2-0.4C0.9,38.8,0,37.4,0,35.6c0-4.8,0-9.6,0-14.4
		c0-5.5,0-11,0-16.6c0-2.4,1.3-4,3.7-4.5c0,0,0.1,0,0.1-0.1C11.1,0,18.5,0,25.9,0z M28.3,20C28.3,20,28.3,20,28.3,20
		c0-5.2,0-10.3,0-15.5c0-0.5-0.1-1-0.3-1.4c-0.6-1.2-1.6-1.7-2.8-1.7c-6.8,0-13.7,0-20.5,0c-2,0-3.2,1.2-3.2,3.2c0,2.8,0,5.7,0,8.5
		c0,7.5,0,14.9,0,22.4c0,0.5,0.1,1,0.3,1.4c0.6,1.2,1.6,1.7,2.9,1.7c6.8,0,13.7,0,20.5,0c2,0,3.2-1.2,3.2-3.2
		C28.3,30.3,28.3,25.1,28.3,20z"/>
	<path class="st0" d="M4.5,6.5c0,4.6,0,9.1,0,13.7c-0.5,0-0.9,0-1.4,0c0-5,0-10.1,0-15.1c7.8,0,15.6,0,23.4,0c0,0.1,0,0.3,0,0.4
		c0,3,0,6,0,8.9c0,0.2,0,0.4-0.1,0.5c-1.7,2.7-3.4,5.4-5.1,8.1c0,0.1-0.1,0.1-0.1,0.2c-1.2-0.8-2.5-1.6-3.7-2.5
		c-1.7,1.9-3.3,3.7-5,5.6c-1.3-1.3-2.5-2.5-3.7-3.8c-0.8,0.7-1.6,1.4-2.4,2.1c-0.5,0.5-1.1,0.9-1.6,1.4c-0.1,0.1-0.2,0.3-0.2,0.4
		c0,2.3,0,4.7,0,7c6.9,0,13.8,0,20.7,0c0-4.4,0-8.8,0-13.2c0.5,0,0.9,0,1.4,0c0,4.8,0,9.7,0,14.6c-7.8,0-15.6,0-23.4,0
		c0-0.1,0-0.3,0-0.4c0-2.8,0-5.7,0-8.5c0-0.2,0.1-0.4,0.2-0.5c1.8-1.6,3.5-3.1,5.3-4.6c0,0,0.1-0.1,0.2-0.1c1.2,1.2,2.4,2.4,3.6,3.6
		c1.6-1.8,3.2-3.6,4.8-5.4c1.2,0.8,2.4,1.6,3.6,2.4c0.1-0.1,0.2-0.2,0.2-0.3c1.3-2.1,2.7-4.2,4-6.3c0.1-0.1,0.2-0.3,0.2-0.5
		c0-2.5,0-5,0-7.5c0-0.1,0-0.1,0-0.2C18.3,6.5,11.4,6.5,4.5,6.5z"/>
	<path class="st1" d="M21.2,10.1L21.2,10.1c0,0.4-0.3,0.7-0.7,0.7H9.2c-0.4,0-0.7-0.3-0.7-0.7v0c0-0.4,0.3-0.7,0.7-0.7h11.3
		C20.9,9.4,21.2,9.7,21.2,10.1z"/>
	<path class="st1" d="M21.2,13.5L21.2,13.5c0,0.4-0.3,0.7-0.7,0.7H9.2c-0.4,0-0.7-0.3-0.7-0.7v0c0-0.4,0.3-0.7,0.7-0.7h11.3
		C20.9,12.8,21.2,13.1,21.2,13.5z"/>
	<path class="st0" d="M11.9,3.2L11.9,3.2c0-0.4,0.3-0.7,0.7-0.7h4.5c0.4,0,0.7,0.3,0.7,0.7v0c0,0.4-0.3,0.7-0.7,0.7h-4.5
		C12.2,3.9,11.9,3.6,11.9,3.2z"/>
	<circle class="st1" cx="14.8" cy="36.8" r="1.3"/>
</g>
</svg>
