<?xml version="1.0" encoding="utf-8"?>
<!-- Generator: Adobe Illustrator 21.0.2, SVG Export Plug-In . SVG Version: 6.00 Build 0)  -->
<svg version="1.1" id="Layer_1" xmlns="http://www.w3.org/2000/svg" xmlns:xlink="http://www.w3.org/1999/xlink" x="0px" y="0px"
	 viewBox="0 0 390.7 291.8" style="enable-background:new 0 0 390.7 291.8;" xml:space="preserve">
<style type="text/css">
	.st0{fill:#26637D;}
	.st1{fill:#85B856;}
</style>
<g>
	<path class="st0" d="M37.7,7.9v198.4L0.8,280.4c-1.2,2.5-1.1,5.4,0.3,7.7c1.4,2.3,4,3.8,6.7,3.8h374.9c4.4,0,7.9-3.5,7.9-7.9
		c0-1.5-0.4-3-1.2-4.2l-36.2-73.4V7.9c0-4.4-3.5-7.9-7.9-7.9H45.6C41.2,0,37.7,3.5,37.7,7.9L37.7,7.9z M148.3,273l4.2-8.3h85.9
		l4.1,8.3H148.3z M53.6,15.8h284v184.4h-284V15.8z M340.5,216.1L370,276H261.6l-11.2-22.7c-1.4-2.7-4.1-4.4-7.1-4.4h-95.8
		c-3,0-5.8,1.7-7.1,4.4L129.2,276H20.8l29.8-59.9H340.5z M340.5,216.1"/>
	<path class="st1" d="M204.5,100h-18.2c-6.6,0-12-5.4-12-12c0-6.6,5.4-12,12-12h32.1c4.4,0,7.9-3.5,7.9-7.9c0-4.4-3.5-7.9-7.9-7.9
		h-15.1V49c0-4.4-3.5-7.9-7.9-7.9c-4.4,0-7.9,3.5-7.9,7.9v11.1h-1.2c-15.4,0-27.8,12.5-27.8,27.8s12.5,27.8,27.8,27.8h18.2
		c6.6,0,12,5.4,12,12c0,6.6-5.4,12-12,12h-32.7c-4.4,0-7.9,3.5-7.9,7.9c0,4.4,3.5,7.9,7.9,7.9h15.7V167c0,4.4,3.5,7.9,7.9,7.9
		c4.4,0,7.9-3.5,7.9-7.9v-11.4h1.2c15.4,0,27.8-12.5,27.8-27.8C232.4,112.6,219.9,100,204.5,100L204.5,100z M204.5,100"/>
</g>
</svg>
