<svg id="Слой_1" xmlns="http://www.w3.org/2000/svg" viewBox="0 0 243.8 66.7"><style>.st0{fill:#00A18B;}</style><path class="st0" d="M212.8 66.7H139c-12.6 0-22.9-10.3-22.9-22.9 0-12.6 10.3-22.9 22.9-22.9 2 0 3.9.3 5.8.8C147 9.3 157.9 0 170.7 0c9 0 17.4 4.7 22.2 12.3 5.6-4.8 12.7-7.4 20-7.4 17 0 30.9 13.9 30.9 30.9s-13.9 30.9-31 30.9zM139.1 23c-11.5 0-20.9 9.4-20.9 20.9 0 11.5 9.4 20.9 20.9 20.9h73.8c15.9 0 28.9-13 28.9-28.9S228.8 7 212.9 7c-7.3 0-14.2 2.7-19.6 7.7l-.9.9-.6-1.1C187.4 6.7 179.4 2 170.7 2c-12.2 0-22.5 9.1-23.9 21.2l-.1 1.2-1.1-.4c-2.2-.7-4.4-1-6.5-1z"/><path d="M13.2 31.8c7.7 0 13.2 5.2 13.2 12.5s-5.5 12.5-13.2 12.5C5.4 56.8 0 51.6 0 44.3c0-7.4 5.4-12.5 13.2-12.5zm0 19.8c3.8 0 6.5-3.1 6.5-7.4s-2.7-7.4-6.5-7.4-6.5 3.2-6.5 7.5 2.7 7.3 6.5 7.3zM47.7 56.4h-5l-.8-1.9c-1.4 1.5-3.5 2.4-5.8 2.4-4.2 0-7.1-2.8-7.1-7V38.6h6.3v10.2c0 1.7 1.2 2.9 2.8 2.9 1.9 0 3.3-1.4 3.3-3.5v-9.6h6.3v17.8zM59.5 38.6h4.2v4.8h-4.2v6.5c0 1.2.8 1.9 1.9 1.9.6 0 1.3-.1 2.1-.2l.8 4.7c-1.6.4-3 .6-4.4.6-4 0-6.7-2.5-6.7-6.3v-7.2h-3v-4.8h3v-5.2h6.3v5.2zM84.1 38.1c6 0 10.1 3.8 10.1 9.4 0 5.5-4.2 9.3-10.1 9.3-5.9 0-10.1-3.8-10.1-9.3 0-5.5 4.2-9.4 10.1-9.4zm0 13.8c2.2 0 3.7-1.8 3.7-4.4 0-2.6-1.5-4.5-3.7-4.5s-3.7 1.8-3.7 4.5c.1 2.6 1.6 4.4 3.7 4.4zM98 43.3h-3v-4.8h3v-1.7c0-3.8 2.7-6.3 6.7-6.3 1.4 0 2.8.2 4.4.6l-.8 4.7c-.8-.1-1.5-.2-2.1-.2-1.2 0-1.9.7-1.9 1.9v1h3.7v4.8h-3.7v13H98v-13z"/><path class="st0" d="M139.2 31.8c3.1 0 6.3 1 9.2 2.8l-2.6 4.4c-1.9-1.3-3.7-2-5.6-2-4.2 0-7.1 3-7.1 7.3s2.9 7.3 7.1 7.3c1.9 0 3.8-.7 5.6-2l2.6 4.4c-2.8 1.8-6.1 2.8-9.2 2.8-7.6 0-12.9-5.2-12.9-12.5 0-7.4 5.3-12.5 12.9-12.5zM157.1 50.4c0 .9.6 1.4 1.4 1.4.4 0 1-.1 1.5-.1l.6 4.7c-1.3.3-2.6.4-3.7.4-3.8 0-6.2-2.3-6.2-5.8V31h6.3v19.4zM171.4 38.1c6 0 10.1 3.8 10.1 9.4 0 5.5-4.2 9.3-10.1 9.3-5.9 0-10.1-3.8-10.1-9.3 0-5.5 4.2-9.4 10.1-9.4zm0 13.8c2.2 0 3.7-1.8 3.7-4.4 0-2.6-1.5-4.5-3.7-4.5s-3.7 1.8-3.7 4.5c0 2.6 1.5 4.4 3.7 4.4zM202.9 56.4h-5l-.8-1.9c-1.4 1.5-3.5 2.4-5.8 2.4-4.2 0-7.1-2.8-7.1-7V38.6h6.3v10.2c0 1.7 1.2 2.9 2.8 2.9 1.9 0 3.3-1.4 3.3-3.5v-9.6h6.3v17.8zM225.1 56.4h-5l-.8-1.7c-1.3 1.4-3.2 2.1-5.3 2.1-4.9 0-8.3-3.8-8.3-9.3 0-5.5 3.4-9.4 8.3-9.4 1.8 0 3.5.6 4.8 1.7V31h6.3v25.4zm-9.4-4.6c1.9 0 3.2-1.4 3.2-3.4v-1.9c0-2-1.3-3.5-3.2-3.5-2 0-3.5 1.8-3.5 4.4 0 2.6 1.4 4.4 3.5 4.4z"/></svg>