<svg width="20" height="13" viewBox="0 0 20 13" xmlns="http://www.w3.org/2000/svg" xmlns:xlink="http://www.w3.org/1999/xlink"><title>en</title><defs><rect id="a" width="20" height="13" rx="3"/></defs><g fill="none" fill-rule="evenodd"><mask id="b" fill="#fff"><use xlink:href="#a"/></mask><use fill="#D8D8D8" xlink:href="#a"/><g mask="url(#b)"><path fill="#006" d="M.013 13.97h19.96V-1H.013"/><path d="M.013 3.17l6.633 3.315L9.993 4.81.013-.18v3.35zm9.98 1.64l3.348 1.675 6.633-3.316V-.18l-9.98 4.99zm0 3.35l9.98 4.99V9.8L13.34 6.486 9.994 8.16zM.013 9.8v3.35l9.98-4.99-3.347-1.675L.013 9.8z" fill="#FFF"/><path fill="#FFF" d="M7.498-1v4.99H.013v4.99h7.485v4.99h4.99V8.98h7.485V3.99h-7.485V-1"/><path d="M8.496-1v5.988H.013v2.994h8.483v5.988h2.994V7.982h8.483V4.988H11.49V-1H8.496zm4.256 4.99h2.23l4.99-2.495V.38l-7.22 3.61zM.012 2.61l2.76 1.38h2.23L.013 1.495V2.61zm14.97 6.37l4.99 2.495V10.36l-2.757-1.38h-2.232zm-9.98 0l-4.99 2.495v1.116l7.223-3.61H5.003z" fill="#C00"/></g></g></svg>