<svg width="558" height="100" viewBox="0 0 558 100" xmlns="http://www.w3.org/2000/svg"><title>v1 copy 3</title><g fill="none" fill-rule="evenodd"><g transform="matrix(1 0 0 -1 0 100)"><rect fill="#FFF" x="6" y="6" width="88" height="88" rx="16"/><path d="M0 19.996C0 8.953 8.962 0 19.996 0h60.008C91.047 0 100 8.962 100 19.996v60.008C100 91.047 91.038 100 80.004 100H19.996C8.953 100 0 91.038 0 80.004V19.996zM6 22c0-8.837 7.164-16 16-16h56c8.837 0 16 7.164 16 16v56c0 8.837-7.164 16-16 16H22c-8.837 0-16-7.164-16-16V22z" fill="#F89734"/><path d="M6.95 5.96C5.23 7.54.98 16.904 6.19 21.154c15.996 13.047 15.68 27.683 28.533 27.683 11.883 0 17.603-20.015 26.38-20.015 6.1 0 9.05 3.2 11.44 8.124 7.832 16.126 7.675 50.736 24.3 51.966 2.725.2-3.097-82.54-3.097-82.54L47.063 1.777S8.667 4.38 6.95 5.96z" fill="#F89734"/></g><path d="M174.417 61.574h-23.745L142.517 82.2H138l23.505-58.682h2.598L187.13 82.2h-4.598l-8.115-20.626zm-22.266-3.678h20.908l-7.955-21.067c-.666-1.653-1.466-3.945-2.4-6.876-.718 2.558-1.504 4.877-2.357 6.955l-8.195 20.986zM210.73 83c-6.21 0-11.073-1.96-14.59-5.876-3.52-3.918-5.278-9.38-5.278-16.39 0-7.195 1.826-12.798 5.477-16.81 3.65-4.01 8.647-6.015 14.99-6.015 3.757 0 7.355.652 10.793 1.957l-1.08 3.518c-3.757-1.252-7.022-1.88-9.794-1.88-5.33 0-9.368 1.647-12.113 4.938-2.745 3.29-4.117 8.028-4.117 14.21 0 5.864 1.372 10.455 4.117 13.772 2.745 3.318 6.583 4.977 11.513 4.977 3.944 0 7.608-.706 10.993-2.118v3.677c-2.772 1.36-6.41 2.04-10.913 2.04zm37.872 0c-6.21 0-11.073-1.96-14.59-5.876-3.52-3.918-5.278-9.38-5.278-16.39 0-7.195 1.826-12.798 5.477-16.81 3.652-4.01 8.65-6.015 14.99-6.015 3.76 0 7.357.652 10.795 1.957l-1.08 3.518c-3.757-1.252-7.022-1.88-9.794-1.88-5.33 0-9.366 1.647-12.11 4.938-2.746 3.29-4.118 8.028-4.118 14.21 0 5.864 1.372 10.455 4.117 13.772 2.744 3.318 6.582 4.977 11.512 4.977 3.944 0 7.608-.706 10.993-2.118v3.677c-2.772 1.36-6.41 2.04-10.913 2.04zm23.96-44.252V66.89c0 4.37.92 7.55 2.76 9.534 1.838 1.986 4.69 2.978 8.553 2.978 5.17 0 8.975-1.306 11.413-3.917 2.44-2.612 3.658-6.863 3.658-12.752V38.748h3.917V82.2h-3.358l-.72-5.996h-.24C295.722 80.734 290.7 83 283.476 83c-9.886 0-14.83-5.29-14.83-15.87V38.748h3.918zm48.906 17.99V82.2h-4.078V23.76h13.91c7.25 0 12.607 1.34 16.07 4.017 3.466 2.678 5.198 6.71 5.198 12.092 0 3.918-1.033 7.222-3.098 9.914-2.066 2.693-5.204 4.625-9.414 5.797l15.87 26.624h-4.877l-15.072-25.463h-14.51zm0-3.52h11.152c4.93 0 8.755-1.098 11.473-3.297 2.718-2.198 4.078-5.442 4.078-9.733 0-4.45-1.332-7.688-3.997-9.714-2.665-2.025-7.01-3.038-13.032-3.038h-9.672V53.22zM390.4 82.202l-1-6.875h-.32c-2.185 2.798-4.43 4.777-6.735 5.936-2.305 1.16-5.03 1.74-8.175 1.74-4.264 0-7.582-1.093-9.954-3.278-2.37-2.185-3.557-5.21-3.557-9.074 0-4.237 1.764-7.53 5.295-9.874 3.53-2.345 8.64-3.584 15.33-3.718l8.275-.24V53.94c0-4.13-.84-7.248-2.518-9.354-1.68-2.105-4.384-3.158-8.115-3.158-4.024 0-8.195 1.12-12.512 3.358l-1.48-3.438c4.77-2.238 9.488-3.357 14.152-3.357 4.77 0 8.335 1.238 10.693 3.716 2.36 2.48 3.538 6.343 3.538 11.593v28.9H390.4zm-15.99-2.798c4.637 0 8.295-1.326 10.973-3.977 2.678-2.652 4.017-6.336 4.017-11.053v-4.277l-7.595.32c-6.103.292-10.453 1.245-13.052 2.858-2.598 1.612-3.897 4.124-3.897 7.535 0 2.718.833 4.83 2.498 6.336 1.666 1.505 4.018 2.258 7.056 2.258zm62.256 2.8V54.017c0-4.37-.92-7.548-2.758-9.534-1.84-1.985-4.69-2.978-8.554-2.978-5.197 0-9 1.313-11.413 3.938-2.41 2.625-3.617 6.882-3.617 12.772V82.2h-3.957V38.75h3.357l.76 5.956h.24c2.825-4.53 7.848-6.795 15.07-6.795 9.86 0 14.79 5.29 14.79 15.87V82.2h-3.917zm20.843-19.07l22.185-24.384h4.797l-17.11 18.548 18.59 24.905h-4.758l-16.51-21.946-7.115 6.476V82.2h-3.958V20h3.957v31.18l-.28 11.953h.2zM508.132 83c-6.316 0-11.24-1.945-14.77-5.836-3.532-3.89-5.297-9.34-5.297-16.35 0-6.93 1.705-12.48 5.116-16.65 3.412-4.17 8.01-6.255 13.792-6.255 5.117 0 9.154 1.784 12.112 5.355 2.958 3.57 4.437 8.422 4.437 14.55v3.2h-31.3c.053 5.97 1.446 10.526 4.177 13.67 2.732 3.145 6.643 4.717 11.733 4.717 2.478 0 4.657-.173 6.536-.52 1.878-.346 4.256-1.092 7.134-2.238v3.598c-2.45 1.066-4.717 1.792-6.795 2.178-2.08.387-4.372.58-6.877.58zm-1.16-41.574c-4.183 0-7.54 1.38-10.073 4.138-2.532 2.758-4.01 6.735-4.437 11.932h26.863c0-5.037-1.093-8.974-3.278-11.812-2.185-2.84-5.21-4.258-9.074-4.258zm44.628-3.517c1.84 0 3.812.185 5.918.558l-.76 3.798c-1.812-.453-3.69-.68-5.636-.68-3.705 0-6.743 1.573-9.115 4.717-2.37 3.145-3.557 7.116-3.557 11.913V82.2h-3.958V38.75h3.358l.4 7.835h.28c1.785-3.198 3.69-5.443 5.716-6.736 2.025-1.292 4.477-1.938 7.355-1.938z" fill="#FFF"/></g></svg>