<?xml version="1.0" encoding="UTF-8"?>
<svg xmlns="http://www.w3.org/2000/svg" xmlns:xlink="http://www.w3.org/1999/xlink" version="1.2" >
<font id="Libre Franklin Bold Italic">
<font-face  font-family="Libre Franklin" units-per-em="1000" ascent="966" descent="-246" font-style="italic" font-weight="700" font-stretch="normal" slope="-8" cap-height="742" x-height="530" underline-position="-75" underline-thickness="50" />
<missing-glyph  horiz-adv-x="648" d="M639 847 Q647 847 652.5 839 Q658 831 656 821 L521 -141 Q519 -156 512.5 -160.5 Q506 -165 488 -165 L40 -165 Q25 -165 18.5 -157 Q12 -149 14 -135 L149 829 Q151 840 155 843.5 Q159 847 168 847 L639 847 Z M600 789 Q600 794 597.5 795.5 Q595 797 589 797 L231 797 L480 -61 L599 784 L600 789 Z M70 -106 Q70 -112 73.5 -113.5 Q77 -115 89 -115 L437 -115 L188 737 L71 -99 L70 -106 Z " />
<glyph glyph-name="nonmarkingreturn" unicode="&#xd;" horiz-adv-x="206" d="" />
<glyph glyph-name="space" unicode="&#x20;" horiz-adv-x="206" d="" />
<glyph glyph-name="A" unicode="A" horiz-adv-x="771" d="M4 0 Q-6 0 -6 10 Q-6 19 1 33 L348 726 Q353 736 360 739 Q367 742 380 742 L530 742 Q548 742 552 716 L702 23 Q703 20 703 15 Q703 0 689 0 L543 0 Q529 0 526 18 L495 163 Q494 171 483 171 L241 171 Q230 171 224 159 L148 9 Q146 4 142 2 Q138 0 130 0 L4 0 Z M461 304 Q475 304 472 321 L420 552 Q419 562 414 562 Q409 562 405 552 L289 319 Q286 313 286 309 Q286 304 295 304 L461 304 Z " />
<glyph glyph-name="Aacute" unicode="&#xc1;" horiz-adv-x="771" d="M4 0 Q-6 0 -6 10 Q-6 19 1 33 L348 726 Q353 736 360 739 Q367 742 380 742 L530 742 Q548 742 552 716 L702 23 Q703 20 703 15 Q703 0 689 0 L543 0 Q529 0 526 18 L495 163 Q494 171 483 171 L241 171 Q230 171 224 159 L148 9 Q146 4 142 2 Q138 0 130 0 L4 0 Z M461 304 Q475 304 472 321 L420 552 Q419 562 414 562 Q409 562 405 552 L289 319 Q286 313 286 309 Q286 304 295 304 L461 304 Z M610 883 Q611 880 611 874 Q611 864 595 860 L355 798 Q352 797 348 797 Q335 797 332 813 L324 848 Q323 852 323 857 Q323 863 328 865 L578 964 Q579 965 582 965 Q586 965 589.5 960.5 Q593 956 595 950 L610 883 Z " />
<glyph glyph-name="Abreve" unicode="&#x102;" horiz-adv-x="771" d="M4 0 Q-6 0 -6 10 Q-6 19 1 33 L348 726 Q353 736 360 739 Q367 742 380 742 L530 742 Q548 742 552 716 L702 23 Q703 20 703 15 Q703 0 689 0 L543 0 Q529 0 526 18 L495 163 Q494 171 483 171 L241 171 Q230 171 224 159 L148 9 Q146 4 142 2 Q138 0 130 0 L4 0 Z M461 304 Q475 304 472 321 L420 552 Q419 562 414 562 Q409 562 405 552 L289 319 Q286 313 286 309 Q286 304 295 304 L461 304 Z M646 954 Q652 954 655.5 950 Q659 946 659 940 Q659 935 656 929 Q631 878 580.5 849.5 Q530 821 467 821 Q323 821 303 934 L302 941 Q302 954 317 954 L377 954 Q382 954 385 951.5 Q388 949 391 943.5 Q394 938 397 934 Q408 918 427 907.5 Q446 897 471 897 Q499 897 524 909.5 Q549 922 565 944 Q572 954 585 954 L646 954 Z " />
<glyph glyph-name="Acircumflex" unicode="&#xc2;" horiz-adv-x="771" d="M4 0 Q-6 0 -6 10 Q-6 19 1 33 L348 726 Q353 736 360 739 Q367 742 380 742 L530 742 Q548 742 552 716 L702 23 Q703 20 703 15 Q703 0 689 0 L543 0 Q529 0 526 18 L495 163 Q494 171 483 171 L241 171 Q230 171 224 159 L148 9 Q146 4 142 2 Q138 0 130 0 L4 0 Z M461 304 Q475 304 472 321 L420 552 Q419 562 414 562 Q409 562 405 552 L289 319 Q286 313 286 309 Q286 304 295 304 L461 304 Z M484 885 Q478 894 473 894 Q470 894 465.5 889.5 Q461 885 455 878 L396 826 Q391 822 387.5 821 Q384 820 380.5 820.5 Q377 821 373 821 L292 821 Q287 821 284 823.5 Q281 826 281 830 Q281 834 286 841 L411 952 Q418 958 425 960 Q432 962 444 962 L517 962 Q527 962 532.5 955 Q538 948 539 947 L631 834 Q634 831 637.5 827 Q641 823 640 822 Q639 821 633 821 L546 821 Q532 821 523 833 L484 885 Z " />
<glyph glyph-name="uni0200" unicode="&#x200;" horiz-adv-x="771" d="M4 0 Q-6 0 -6 10 Q-6 19 1 33 L348 726 Q353 736 360 739 Q367 742 380 742 L530 742 Q548 742 552 716 L702 23 Q703 20 703 15 Q703 0 689 0 L543 0 Q529 0 526 18 L495 163 Q494 171 483 171 L241 171 Q230 171 224 159 L148 9 Q146 4 142 2 Q138 0 130 0 L4 0 Z M461 304 Q475 304 472 321 L420 552 Q419 562 414 562 Q409 562 405 552 L289 319 Q286 313 286 309 Q286 304 295 304 L461 304 Z M294 962 Q297 965 300 965 Q304 965 312 957 L428 831 Q434 827 434 820 Q434 816 429 811 L398 782 Q394 778 389 778 Q385 778 380 781.5 Q375 785 373 787 L248 879 Q237 886 237 896 Q237 903 243 910 L294 962 Z M490 962 Q493 965 496 965 Q502 965 508 957 L624 831 Q630 827 630 820 Q630 816 625 811 L594 782 Q590 778 586 778 Q582 778 577 781.5 Q572 785 570 787 L444 879 Q433 886 433 896 Q433 903 439 910 L490 962 Z " />
<glyph glyph-name="Adieresis" unicode="&#xc4;" horiz-adv-x="771" d="M4 0 Q-6 0 -6 10 Q-6 19 1 33 L348 726 Q353 736 360 739 Q367 742 380 742 L530 742 Q548 742 552 716 L702 23 Q703 20 703 15 Q703 0 689 0 L543 0 Q529 0 526 18 L495 163 Q494 171 483 171 L241 171 Q230 171 224 159 L148 9 Q146 4 142 2 Q138 0 130 0 L4 0 Z M461 304 Q475 304 472 321 L420 552 Q419 562 414 562 Q409 562 405 552 L289 319 Q286 313 286 309 Q286 304 295 304 L461 304 Z M429 840 Q428 829 423.5 826.5 Q419 824 406 824 L313 824 Q302 824 297 830.5 Q292 837 294 847 L307 941 Q308 950 310.5 952 Q313 954 320 954 L428 954 Q435 954 439.5 948 Q444 942 443 934 L429 840 Z M632 840 Q631 829 626.5 826.5 Q622 824 609 824 L516 824 Q505 824 500 830.5 Q495 837 497 847 L510 941 Q511 950 513.5 952 Q516 954 523 954 L631 954 Q638 954 642.5 947.5 Q647 941 645 934 L632 840 Z " />
<glyph glyph-name="Agrave" unicode="&#xc0;" horiz-adv-x="771" d="M4 0 Q-6 0 -6 10 Q-6 19 1 33 L348 726 Q353 736 360 739 Q367 742 380 742 L530 742 Q548 742 552 716 L702 23 Q703 20 703 15 Q703 0 689 0 L543 0 Q529 0 526 18 L495 163 Q494 171 483 171 L241 171 Q230 171 224 159 L148 9 Q146 4 142 2 Q138 0 130 0 L4 0 Z M461 304 Q475 304 472 321 L420 552 Q419 562 414 562 Q409 562 405 552 L289 319 Q286 313 286 309 Q286 304 295 304 L461 304 Z M356 957 Q361 968 371 962 L593 863 Q599 860 601.5 853.5 Q604 847 601 840 L584 805 Q580 797 574 797 Q573 797 561 799 L339 861 Q320 867 320 882 Q320 885 322 891 L356 957 Z " />
<glyph glyph-name="uni0202" unicode="&#x202;" horiz-adv-x="771" d="M4 0 Q-6 0 -6 10 Q-6 19 1 33 L348 726 Q353 736 360 739 Q367 742 380 742 L530 742 Q548 742 552 716 L702 23 Q703 20 703 15 Q703 0 689 0 L543 0 Q529 0 526 18 L495 163 Q494 171 483 171 L241 171 Q230 171 224 159 L148 9 Q146 4 142 2 Q138 0 130 0 L4 0 Z M461 304 Q475 304 472 321 L420 552 Q419 562 414 562 Q409 562 405 552 L289 319 Q286 313 286 309 Q286 304 295 304 L461 304 Z M308 821 Q301 821 297.5 825 Q294 829 294 835 Q294 841 297 847 Q322 898 371 926 Q420 954 482 954 Q551 954 596.5 925.5 Q642 897 651 841 L651 836 Q651 821 637 821 L576 821 Q571 821 568 824 Q565 827 562 832 Q559 837 557 841 Q544 858 525.5 868.5 Q507 879 483 879 Q454 879 429 866.5 Q404 854 389 832 Q382 821 368 821 L308 821 Z " />
<glyph glyph-name="Amacron" unicode="&#x100;" horiz-adv-x="771" d="M4 0 Q-6 0 -6 10 Q-6 19 1 33 L348 726 Q353 736 360 739 Q367 742 380 742 L530 742 Q548 742 552 716 L702 23 Q703 20 703 15 Q703 0 689 0 L543 0 Q529 0 526 18 L495 163 Q494 171 483 171 L241 171 Q230 171 224 159 L148 9 Q146 4 142 2 Q138 0 130 0 L4 0 Z M461 304 Q475 304 472 321 L420 552 Q419 562 414 562 Q409 562 405 552 L289 319 Q286 313 286 309 Q286 304 295 304 L461 304 Z M649 865 Q648 855 643.5 852.5 Q639 850 626 850 L302 850 Q293 850 288 856.5 Q283 863 285 872 L293 937 Q294 944 296.5 946 Q299 948 305 948 L644 948 Q650 948 654.5 942 Q659 936 658 929 L649 865 Z " />
<glyph glyph-name="Aogonek" unicode="&#x104;" horiz-adv-x="771" d="M702 23 Q703 21 703 16 Q703 7 697 2 L698 2 Q639 -18 614.5 -37.5 Q590 -57 590 -83 Q590 -106 619 -106 Q641 -106 660 -98.5 Q679 -91 683 -89 Q687 -87 690 -87 Q694 -87 696 -91 Q698 -95 697 -101 L691 -143 Q689 -159 680 -160 Q635 -173 584 -173 Q533 -173 505 -152.5 Q477 -132 477 -94 Q477 -85 478 -80 Q482 -55 500.5 -36 Q519 -17 564 0 L543 0 Q529 0 526 18 L495 163 Q494 171 483 171 L241 171 Q230 171 224 159 L148 9 Q146 4 142 2 Q138 0 130 0 L4 0 Q-6 0 -6 10 Q-6 19 1 33 L348 726 Q353 736 360 739 Q367 742 380 742 L530 742 Q548 742 552 716 L702 23 Z M461 304 Q475 304 472 321 L420 552 Q419 562 414 562 Q409 562 405 552 L289 319 Q286 313 286 309 Q286 304 295 304 L461 304 Z " />
<glyph glyph-name="Aring" unicode="&#xc5;" horiz-adv-x="771" d="M702 23 Q703 20 703 15 Q703 0 689 0 L543 0 Q529 0 526 18 L495 163 Q494 171 483 171 L241 171 Q230 171 224 159 L148 9 Q146 4 142 2 Q138 0 130 0 L4 0 Q-6 0 -6 10 Q-6 19 1 33 L348 726 Q353 736 360 739 Q367 742 380 742 L421 742 Q389 752 370.5 778.5 Q352 805 352 841 Q352 854 353 860 Q358 902 393 930.5 Q428 959 472 959 Q517 959 546 930 Q575 901 575 857 Q575 816 550 784.5 Q525 753 488 742 L530 742 Q548 742 552 716 L702 23 Z M409 840 Q407 822 418.5 809 Q430 796 448 796 Q474 796 494.5 817 Q515 838 515 864 Q515 880 504 889.5 Q493 899 476 899 Q452 899 432.5 881.5 Q413 864 409 840 Z M461 304 Q475 304 472 321 L420 552 Q419 562 414 562 Q409 562 405 552 L289 319 Q286 313 286 309 Q286 304 295 304 L461 304 Z " />
<glyph glyph-name="Aringacute" unicode="&#x1fa;" horiz-adv-x="689" d="M654 15 Q654 0 641 0 L494 0 Q487 0 481.5 5 Q476 10 476 18 L448 164 Q447 169 445.5 170 Q444 171 437 171 L209 171 Q203 171 198.5 166.5 Q194 162 192 157 L121 9 Q118 4 114.5 2 Q111 0 102 0 L-13 0 Q-20 0 -24.5 6 Q-29 12 -29 20 Q-29 27 -26 33 L311 726 Q315 735 318.5 738 Q322 741 330 742 Q317 765 317 791 Q317 831 342.5 860 Q368 889 407 897 L424 942 Q429 956 435.5 960 Q442 964 456 964 L495 964 Q502 964 506.5 958.5 Q511 953 511 945 Q511 941 509 935 L481 888 Q504 876 517 854 Q530 832 530 805 Q530 785 523 766.5 Q516 748 504 735 Q513 727 514 716 L653 23 L654 15 Z M369 788 Q367 771 379 758 Q391 745 409 745 Q433 745 452 763 Q471 781 475 805 Q477 824 466 835.5 Q455 847 436 847 Q412 847 392.5 829.5 Q373 812 369 788 Z M410 304 Q417 304 422 310.5 Q427 317 426 325 L381 559 Q380 562 378 562 Q374 562 368 550 L256 317 Q251 309 251 307 Q251 304 259 304 L410 304 Z " />
<glyph glyph-name="Atilde" unicode="&#xc3;" horiz-adv-x="771" d="M4 0 Q-6 0 -6 10 Q-6 19 1 33 L348 726 Q353 736 360 739 Q367 742 380 742 L530 742 Q548 742 552 716 L702 23 Q703 20 703 15 Q703 0 689 0 L543 0 Q529 0 526 18 L495 163 Q494 171 483 171 L241 171 Q230 171 224 159 L148 9 Q146 4 142 2 Q138 0 130 0 L4 0 Z M461 304 Q475 304 472 321 L420 552 Q419 562 414 562 Q409 562 405 552 L289 319 Q286 313 286 309 Q286 304 295 304 L461 304 Z M637 860 Q586 839 545 839 Q524 839 506 843 Q488 847 466 855 Q462 856 442 862 Q422 868 402 868 Q380 868 364 861 Q348 854 329 840 Q327 839 322 839 Q312 839 309 856 L300 899 Q298 907 298 909 Q298 915 305 926 Q331 941 350.5 948.5 Q370 956 396 956 Q418 956 438 951.5 Q458 947 483 938 Q487 937 506.5 930.5 Q526 924 544 924 Q583 924 619 954 Q621 955 625 955 Q640 955 642 937 L647 886 L647 880 Q647 870 637 860 Z " />
<glyph glyph-name="AE" unicode="&#xc6;" horiz-adv-x="1077" d="M999 128 Q1007 128 1012.5 122.5 Q1018 117 1017 108 L1004 13 Q1002 5 999 2.5 Q996 0 986 0 L490 0 Q478 0 472 7 Q466 14 468 25 L488 164 Q488 165 488 167.5 Q488 170 486 170.5 Q484 171 481 171 L265 171 Q259 171 253.5 167 Q248 163 246 157 L146 9 Q142 4 137.5 2 Q133 0 124 0 L9 0 Q2 0 -1.5 4.5 Q-5 9 -5 16 Q-5 26 0 33 L470 726 Q476 736 481.5 739 Q487 742 498 742 L1077 742 Q1084 742 1089 735 Q1094 728 1092 720 L1079 630 Q1078 620 1074 617 Q1070 614 1059 614 L748 614 Q738 614 731 608 Q724 602 722 593 L703 449 L702 443 Q702 436 713 436 L918 436 Q927 436 932.5 430 Q938 424 936 416 L922 320 Q921 314 919 312 Q917 310 909 310 L700 310 Q693 310 687.5 304.5 Q682 299 681 293 L659 136 Q658 129 658.5 128.5 Q659 128 665 128 L999 128 Z M488 304 Q496 304 502.5 310.5 Q509 317 510 325 L546 581 Q547 597 540 597 Q535 597 528.5 590.5 Q522 584 515 573 L340 317 Q338 315 334.5 310.5 Q331 306 332.5 305 Q334 304 338 304 L488 304 Z " />
<glyph glyph-name="AEacute" unicode="&#x1fc;" horiz-adv-x="1077" d="M999 128 Q1007 128 1012.5 122.5 Q1018 117 1017 108 L1004 13 Q1002 5 999 2.5 Q996 0 986 0 L490 0 Q478 0 472 7 Q466 14 468 25 L488 164 Q488 165 488 167.5 Q488 170 486 170.5 Q484 171 481 171 L265 171 Q259 171 253.5 167 Q248 163 246 157 L146 9 Q142 4 137.5 2 Q133 0 124 0 L9 0 Q2 0 -1.5 4.5 Q-5 9 -5 16 Q-5 26 0 33 L470 726 Q476 736 481.5 739 Q487 742 498 742 L1077 742 Q1084 742 1089 735 Q1094 728 1092 720 L1079 630 Q1078 620 1074 617 Q1070 614 1059 614 L748 614 Q738 614 731 608 Q724 602 722 593 L703 449 L702 443 Q702 436 713 436 L918 436 Q927 436 932.5 430 Q938 424 936 416 L922 320 Q921 314 919 312 Q917 310 909 310 L700 310 Q693 310 687.5 304.5 Q682 299 681 293 L659 136 Q658 129 658.5 128.5 Q659 128 665 128 L999 128 Z M488 304 Q496 304 502.5 310.5 Q509 317 510 325 L546 581 Q547 597 540 597 Q535 597 528.5 590.5 Q522 584 515 573 L340 317 Q338 315 334.5 310.5 Q331 306 332.5 305 Q334 304 338 304 L488 304 Z M935 883 Q936 880 936 874 Q936 864 920 860 L680 798 Q677 797 673 797 Q660 797 657 813 L649 848 Q648 852 648 857 Q648 863 653 865 L903 964 Q904 965 907 965 Q911 965 914.5 960.5 Q918 956 920 950 L935 883 Z " />
<glyph glyph-name="B" unicode="B" horiz-adv-x="723" d="M48 0 Q35 0 35 14 L36 23 L134 725 Q135 735 140 738.5 Q145 742 155 742 L425 742 Q560 742 632 697.5 Q704 653 704 569 Q704 498 663 452 Q622 406 549 382 Q542 381 541 377.5 Q540 374 546 372 Q611 353 642 316.5 Q673 280 673 224 Q673 100 581 50 Q489 0 344 0 L48 0 Z M397 436 Q451 436 490 467.5 Q529 499 529 550 Q529 586 500 605 Q471 624 420 624 L314 624 Q303 624 298.5 619.5 Q294 615 292 606 L271 450 L270 444 Q270 436 280 436 L397 436 Z M345 118 Q405 118 450 149.5 Q495 181 495 240 Q495 277 466.5 295.5 Q438 314 387 314 L268 314 Q258 314 254.5 310.5 Q251 307 249 297 L226 132 L225 127 Q225 121 227.5 119.5 Q230 118 236 118 L345 118 Z " />
<glyph glyph-name="C" unicode="C" horiz-adv-x="725" d="M445 752 Q522 752 583 722 Q644 692 679 639.5 Q714 587 716 523 Q716 513 713 508.5 Q710 504 701 504 L571 496 L570 496 Q558 496 556 520 Q551 571 523.5 600.5 Q496 630 444 630 Q368 630 321 574 Q274 518 254 437 Q234 356 234 276 Q234 194 265 156.5 Q296 119 361 119 Q487 119 551 246 Q557 256 566 256 Q572 256 576 255 L680 229 Q686 228 686 219 Q686 213 681 198 Q664 157 621.5 109 Q579 61 509.5 25.5 Q440 -10 350 -10 Q258 -10 191.5 29 Q125 68 90 139 Q55 210 55 305 Q55 423 99.5 525 Q144 627 232 689.5 Q320 752 445 752 Z " />
<glyph glyph-name="Cacute" unicode="&#x106;" horiz-adv-x="725" d="M445 752 Q522 752 583 722 Q644 692 679 639.5 Q714 587 716 523 Q716 513 713 508.5 Q710 504 701 504 L571 496 L570 496 Q558 496 556 520 Q551 571 523.5 600.5 Q496 630 444 630 Q368 630 321 574 Q274 518 254 437 Q234 356 234 276 Q234 194 265 156.5 Q296 119 361 119 Q487 119 551 246 Q557 256 566 256 Q572 256 576 255 L680 229 Q686 228 686 219 Q686 213 681 198 Q664 157 621.5 109 Q579 61 509.5 25.5 Q440 -10 350 -10 Q258 -10 191.5 29 Q125 68 90 139 Q55 210 55 305 Q55 423 99.5 525 Q144 627 232 689.5 Q320 752 445 752 Z M610 883 Q611 880 611 874 Q611 864 595 860 L355 798 Q352 797 348 797 Q335 797 332 813 L324 848 Q323 852 323 857 Q323 863 328 865 L578 964 Q579 965 582 965 Q586 965 589.5 960.5 Q593 956 595 950 L610 883 Z " />
<glyph glyph-name="Ccaron" unicode="&#x10c;" horiz-adv-x="725" d="M445 752 Q522 752 583 722 Q644 692 679 639.5 Q714 587 716 523 Q716 513 713 508.5 Q710 504 701 504 L571 496 L570 496 Q558 496 556 520 Q551 571 523.5 600.5 Q496 630 444 630 Q368 630 321 574 Q274 518 254 437 Q234 356 234 276 Q234 194 265 156.5 Q296 119 361 119 Q487 119 551 246 Q557 256 566 256 Q572 256 576 255 L680 229 Q686 228 686 219 Q686 213 681 198 Q664 157 621.5 109 Q579 61 509.5 25.5 Q440 -10 350 -10 Q258 -10 191.5 29 Q125 68 90 139 Q55 210 55 305 Q55 423 99.5 525 Q144 627 232 689.5 Q320 752 445 752 Z M536 950 Q540 954 544 955 Q548 956 552 955.5 Q556 955 559 955 L645 955 Q657 955 657 947 Q657 942 651 936 L527 822 Q516 814 502 814 L429 814 Q410 814 400 830 L305 942 Q299 950 298.5 952.5 Q298 955 305 955 L386 955 Q394 955 398.5 952 Q403 949 407 943 L452 890 Q459 881 463 881 Q466 881 471.5 887 Q477 893 481 897 L536 950 Z " />
<glyph glyph-name="Ccedilla" unicode="&#xc7;" horiz-adv-x="725" d="M445 752 Q522 752 583 722 Q644 692 679 639.5 Q714 587 716 523 Q716 513 713 508.5 Q710 504 701 504 L571 496 L570 496 Q558 496 556 520 Q551 571 523.5 600.5 Q496 630 444 630 Q368 630 321 574 Q274 518 254 437 Q234 356 234 276 Q234 194 265 156.5 Q296 119 361 119 Q487 119 551 246 Q557 256 566 256 Q572 256 576 255 L680 229 Q686 228 686 219 Q686 213 681 198 Q665 159 625.5 113.5 Q586 68 522 32 Q458 -4 375 -9 L355 -51 Q354 -54 352 -54 Q399 -55 421.5 -77 Q444 -99 444 -130 Q444 -171 406.5 -195 Q369 -219 315 -219 Q247 -219 207 -191 Q202 -190 199 -186 Q196 -182 197 -178 L217 -143 Q219 -141 219 -141 Q220 -141 221.5 -144 Q223 -147 224 -149 Q264 -165 292 -165 Q320 -165 337 -152.5 Q354 -140 354 -120 Q354 -105 337 -98.5 Q320 -92 278 -92 Q269 -92 265 -88 Q261 -84 263 -78 L306 -8 Q187 6 121 89.5 Q55 173 55 305 Q55 423 99.5 525 Q144 627 232 689.5 Q320 752 445 752 Z " />
<glyph glyph-name="Ccircumflex" unicode="&#x108;" horiz-adv-x="725" d="M445 752 Q522 752 583 722 Q644 692 679 639.5 Q714 587 716 523 Q716 513 713 508.5 Q710 504 701 504 L571 496 L570 496 Q558 496 556 520 Q551 571 523.5 600.5 Q496 630 444 630 Q368 630 321 574 Q274 518 254 437 Q234 356 234 276 Q234 194 265 156.5 Q296 119 361 119 Q487 119 551 246 Q557 256 566 256 Q572 256 576 255 L680 229 Q686 228 686 219 Q686 213 681 198 Q664 157 621.5 109 Q579 61 509.5 25.5 Q440 -10 350 -10 Q258 -10 191.5 29 Q125 68 90 139 Q55 210 55 305 Q55 423 99.5 525 Q144 627 232 689.5 Q320 752 445 752 Z M484 885 Q478 894 473 894 Q470 894 465.5 889.5 Q461 885 455 878 L396 826 Q391 822 387.5 821 Q384 820 380.5 820.5 Q377 821 373 821 L292 821 Q287 821 284 823.5 Q281 826 281 830 Q281 834 286 841 L411 952 Q418 958 425 960 Q432 962 444 962 L517 962 Q527 962 532.5 955 Q538 948 539 947 L631 834 Q634 831 637.5 827 Q641 823 640 822 Q639 821 633 821 L546 821 Q532 821 523 833 L484 885 Z " />
<glyph glyph-name="Cdotaccent" unicode="&#x10a;" horiz-adv-x="725" d="M445 752 Q522 752 583 722 Q644 692 679 639.5 Q714 587 716 523 Q716 513 713 508.5 Q710 504 701 504 L571 496 L570 496 Q558 496 556 520 Q551 571 523.5 600.5 Q496 630 444 630 Q368 630 321 574 Q274 518 254 437 Q234 356 234 276 Q234 194 265 156.5 Q296 119 361 119 Q487 119 551 246 Q557 256 566 256 Q572 256 576 255 L680 229 Q686 228 686 219 Q686 213 681 198 Q664 157 621.5 109 Q579 61 509.5 25.5 Q440 -10 350 -10 Q258 -10 191.5 29 Q125 68 90 139 Q55 210 55 305 Q55 423 99.5 525 Q144 627 232 689.5 Q320 752 445 752 Z M540 826 Q538 813 532.5 809.5 Q527 806 513 806 L405 806 Q393 806 387.5 813.5 Q382 821 384 832 L399 939 Q400 949 403 951.5 Q406 954 414 954 L539 954 Q546 954 551 947 Q556 940 554 932 L540 826 Z " />
<glyph glyph-name="D" unicode="D" horiz-adv-x="751" d="M59 0 Q47 0 41 8 Q35 16 37 29 L134 726 Q135 736 139.5 739 Q144 742 155 742 L366 742 Q542 742 634.5 660.5 Q727 579 727 439 Q727 305 673.5 206 Q620 107 518.5 53.5 Q417 0 278 0 L59 0 Z M297 123 Q423 123 484 210.5 Q545 298 545 449 Q545 536 501 577 Q457 618 370 618 L310 618 Q293 618 292 601 L229 141 Q229 140 228.5 138.5 Q228 137 229 135 Q229 123 241 123 L297 123 Z " />
<glyph glyph-name="uni01F1" unicode="&#x1f1;" horiz-adv-x="1381" d="M59 0 Q47 0 41 8 Q35 16 37 29 L134 726 Q135 736 139.5 739 Q144 742 155 742 L366 742 Q542 742 634.5 660.5 Q727 579 727 439 Q727 305 673.5 206 Q620 107 518.5 53.5 Q417 0 278 0 L59 0 Z M297 123 Q423 123 484 210.5 Q545 298 545 449 Q545 536 501 577 Q457 618 370 618 L310 618 Q293 618 292 601 L229 141 Q229 140 228.5 138.5 Q228 137 229 135 Q229 123 241 123 L297 123 Z M720 0 Q708 0 703 4.5 Q698 9 699 21 L704 61 Q706 73 709.5 81 Q713 89 724 101 L1136 603 Q1143 610 1143 611.5 Q1143 613 1135 613 L829 613 Q819 613 814.5 619.5 Q810 626 812 637 L825 730 Q827 738 829 740 Q831 742 838 742 L1395 742 Q1409 742 1407 724 L1400 680 Q1399 671 1396 664 Q1393 657 1386 648 L962 138 Q958 134 959 132 Q960 130 964 130 L1304 130 Q1313 130 1315.5 127 Q1318 124 1317 116 L1302 13 Q1301 5 1298 2.5 Q1295 0 1285 0 L720 0 Z " />
<glyph glyph-name="uni01C4" unicode="&#x1c4;" horiz-adv-x="1412" d="M59 0 Q47 0 41 8 Q35 16 37 29 L134 726 Q135 736 139.5 739 Q144 742 155 742 L366 742 Q542 742 634.5 660.5 Q727 579 727 439 Q727 305 673.5 206 Q620 107 518.5 53.5 Q417 0 278 0 L59 0 Z M297 123 Q423 123 484 210.5 Q545 298 545 449 Q545 536 501 577 Q457 618 370 618 L310 618 Q293 618 292 601 L229 141 Q229 140 228.5 138.5 Q228 137 229 135 Q229 123 241 123 L297 123 Z M752 0 Q740 0 735 4.5 Q730 9 731 21 L736 61 Q738 73 741.5 81 Q745 89 756 101 L1168 603 Q1175 610 1175 611.5 Q1175 613 1167 613 L861 613 Q851 613 846.5 619.5 Q842 626 844 637 L857 730 Q859 738 861 740 Q863 742 870 742 L1427 742 Q1441 742 1439 724 L1432 680 Q1431 671 1428 664 Q1425 657 1418 648 L994 138 Q990 134 991 132 Q992 130 996 130 L1336 130 Q1345 130 1347.5 127 Q1350 124 1349 116 L1334 13 Q1333 5 1330 2.5 Q1327 0 1317 0 L752 0 Z M1237 950 Q1241 954 1245 955 Q1249 956 1253 955.5 Q1257 955 1260 955 L1346 955 Q1358 955 1358 947 Q1358 942 1352 936 L1228 822 Q1217 814 1203 814 L1130 814 Q1111 814 1101 830 L1006 942 Q1000 950 999.5 952.5 Q999 955 1006 955 L1087 955 Q1095 955 1099.5 952 Q1104 949 1108 943 L1153 890 Q1160 881 1164 881 Q1167 881 1172.5 887 Q1178 893 1182 897 L1237 950 Z " />
<glyph glyph-name="Eth" unicode="&#xd0;" horiz-adv-x="729" d="M343 742 Q519 742 611.5 660.5 Q704 579 704 439 Q704 305 650.5 206 Q597 107 495.5 53.5 Q394 0 255 0 L36 0 Q24 0 18 8 Q12 16 14 29 L53 310 Q44 311 39.5 318.5 Q35 326 37 336 L47 408 Q48 418 51 420.5 Q54 423 62 423 L69 423 L111 726 Q112 736 116.5 739 Q121 742 132 742 L343 742 Z M274 123 Q400 123 461 210.5 Q522 298 522 449 Q522 536 478 577 Q434 618 347 618 L287 618 Q270 618 269 601 L245 423 L410 423 Q417 423 422 416.5 Q427 410 425 402 L415 329 Q414 317 408.5 313.5 Q403 310 388 310 L229 310 L206 141 Q206 140 205.5 138.5 Q205 137 206 135 Q206 123 218 123 L274 123 Z " />
<glyph glyph-name="Dcaron" unicode="&#x10e;" horiz-adv-x="751" d="M59 0 Q47 0 41 8 Q35 16 37 29 L134 726 Q135 736 139.5 739 Q144 742 155 742 L366 742 Q542 742 634.5 660.5 Q727 579 727 439 Q727 305 673.5 206 Q620 107 518.5 53.5 Q417 0 278 0 L59 0 Z M297 123 Q423 123 484 210.5 Q545 298 545 449 Q545 536 501 577 Q457 618 370 618 L310 618 Q293 618 292 601 L229 141 Q229 140 228.5 138.5 Q228 137 229 135 Q229 123 241 123 L297 123 Z M528 950 Q532 954 536 955 Q540 956 544 955.5 Q548 955 551 955 L637 955 Q649 955 649 947 Q649 942 643 936 L519 822 Q508 814 494 814 L421 814 Q402 814 392 830 L297 942 Q291 950 290.5 952.5 Q290 955 297 955 L378 955 Q386 955 390.5 952 Q395 949 399 943 L444 890 Q451 881 455 881 Q458 881 463.5 887 Q469 893 473 897 L528 950 Z " />
<glyph glyph-name="Dcroat" unicode="&#x110;" horiz-adv-x="729" d="M343 742 Q519 742 611.5 660.5 Q704 579 704 439 Q704 305 650.5 206 Q597 107 495.5 53.5 Q394 0 255 0 L36 0 Q24 0 18 8 Q12 16 14 29 L53 310 Q44 311 39.5 318.5 Q35 326 37 336 L47 408 Q48 418 51 420.5 Q54 423 62 423 L69 423 L111 726 Q112 736 116.5 739 Q121 742 132 742 L343 742 Z M274 123 Q400 123 461 210.5 Q522 298 522 449 Q522 536 478 577 Q434 618 347 618 L287 618 Q270 618 269 601 L245 423 L410 423 Q417 423 422 416.5 Q427 410 425 402 L415 329 Q414 317 408.5 313.5 Q403 310 388 310 L229 310 L206 141 Q206 140 205.5 138.5 Q205 137 206 135 Q206 123 218 123 L274 123 Z " />
<glyph glyph-name="uni1E0C" unicode="&#x1e0c;" horiz-adv-x="751" d="M59 0 Q47 0 41 8 Q35 16 37 29 L134 726 Q135 736 139.5 739 Q144 742 155 742 L366 742 Q542 742 634.5 660.5 Q727 579 727 439 Q727 305 673.5 206 Q620 107 518.5 53.5 Q417 0 278 0 L59 0 Z M297 123 Q423 123 484 210.5 Q545 298 545 449 Q545 536 501 577 Q457 618 370 618 L310 618 Q293 618 292 601 L229 141 Q229 140 228.5 138.5 Q228 137 229 135 Q229 123 241 123 L297 123 Z M317 -150 Q316 -160 312.5 -162.5 Q309 -165 298 -165 L215 -165 Q206 -165 201 -159 Q196 -153 197 -144 L210 -57 Q211 -49 212 -47.5 Q213 -46 220 -46 L317 -46 Q323 -46 326.5 -51.5 Q330 -57 329 -64 L317 -150 Z " />
<glyph glyph-name="uni01F2" unicode="&#x1f2;" horiz-adv-x="1203" d="M59 0 Q47 0 41 8 Q35 16 37 29 L134 726 Q135 736 139.5 739 Q144 742 155 742 L366 742 Q542 742 634.5 660.5 Q727 579 727 439 Q727 305 673.5 206 Q620 107 518.5 53.5 Q417 0 278 0 L59 0 Z M297 123 Q423 123 484 210.5 Q545 298 545 449 Q545 536 501 577 Q457 618 370 618 L310 618 Q293 618 292 601 L229 141 Q229 140 228.5 138.5 Q228 137 229 135 Q229 123 241 123 L297 123 Z M689 0 Q677 0 673.5 4 Q670 8 672 19 L677 54 Q679 66 683.5 73.5 Q688 81 702 97 L992 415 Q997 422 997 425 Q997 433 981 433 L767 433 Q758 433 755 437.5 Q752 442 754 453 L763 515 Q764 522 770.5 526 Q777 530 784 530 L1196 530 Q1210 530 1207 516 L1201 475 Q1200 466 1195 458.5 Q1190 451 1180 439 L887 118 Q883 114 883 108 Q883 104 886.5 101 Q890 98 895 98 L1136 98 Q1144 98 1147 94.5 Q1150 91 1149 82 L1140 17 Q1138 0 1121 0 L689 0 Z " />
<glyph glyph-name="uni01C5" unicode="&#x1c5;" horiz-adv-x="1270" d="M59 0 Q47 0 41 8 Q35 16 37 29 L134 726 Q135 736 139.5 739 Q144 742 155 742 L366 742 Q542 742 634.5 660.5 Q727 579 727 439 Q727 305 673.5 206 Q620 107 518.5 53.5 Q417 0 278 0 L59 0 Z M297 123 Q423 123 484 210.5 Q545 298 545 449 Q545 536 501 577 Q457 618 370 618 L310 618 Q293 618 292 601 L229 141 Q229 140 228.5 138.5 Q228 137 229 135 Q229 123 241 123 L297 123 Z M757 0 Q745 0 741.5 4 Q738 8 740 19 L745 54 Q747 66 751.5 73.5 Q756 81 770 97 L1060 415 Q1065 422 1065 425 Q1065 433 1049 433 L835 433 Q826 433 823 437.5 Q820 442 822 453 L831 515 Q832 522 838.5 526 Q845 530 852 530 L1264 530 Q1278 530 1275 516 L1269 475 Q1268 466 1263 458.5 Q1258 451 1248 439 L955 118 Q951 114 951 108 Q951 104 954.5 101 Q958 98 963 98 L1204 98 Q1212 98 1215 94.5 Q1218 91 1217 82 L1208 17 Q1206 0 1189 0 L757 0 Z M1143 738 Q1147 742 1151 743 Q1155 744 1159 743.5 Q1163 743 1166 743 L1252 743 Q1264 743 1264 735 Q1264 730 1258 724 L1134 610 Q1123 602 1109 602 L1036 602 Q1017 602 1007 618 L912 730 Q906 738 905.5 740.5 Q905 743 912 743 L993 743 Q1001 743 1005.5 740 Q1010 737 1014 731 L1059 678 Q1066 669 1070 669 Q1073 669 1078.5 675 Q1084 681 1088 685 L1143 738 Z " />
<glyph glyph-name="E" unicode="E" horiz-adv-x="654" d="M135 727 Q137 737 139.5 739.5 Q142 742 150 742 L657 742 Q672 742 669 720 L656 631 Q654 621 650 617.5 Q646 614 635 614 L308 614 Q300 614 296.5 611 Q293 608 292 599 L271 449 L270 443 Q270 436 280 436 L499 436 Q508 436 510 433 Q512 430 511 422 L497 321 Q496 315 493 312.5 Q490 310 483 310 L262 310 Q255 310 252.5 307 Q250 304 249 296 L227 140 L227 136 Q227 128 234 128 L581 128 Q590 128 592.5 125 Q595 122 593 113 L580 13 Q579 5 576 2.5 Q573 0 563 0 L56 0 Q44 0 39 6 Q34 12 36 25 L135 727 Z " />
<glyph glyph-name="Eacute" unicode="&#xc9;" horiz-adv-x="654" d="M135 727 Q137 737 139.5 739.5 Q142 742 150 742 L657 742 Q672 742 669 720 L656 631 Q654 621 650 617.5 Q646 614 635 614 L308 614 Q300 614 296.5 611 Q293 608 292 599 L271 449 L270 443 Q270 436 280 436 L499 436 Q508 436 510 433 Q512 430 511 422 L497 321 Q496 315 493 312.5 Q490 310 483 310 L262 310 Q255 310 252.5 307 Q250 304 249 296 L227 140 L227 136 Q227 128 234 128 L581 128 Q590 128 592.5 125 Q595 122 593 113 L580 13 Q579 5 576 2.5 Q573 0 563 0 L56 0 Q44 0 39 6 Q34 12 36 25 L135 727 Z M567 883 Q568 880 568 874 Q568 864 552 860 L312 798 Q309 797 305 797 Q292 797 289 813 L281 848 Q280 852 280 857 Q280 863 285 865 L535 964 Q536 965 539 965 Q543 965 546.5 960.5 Q550 956 552 950 L567 883 Z " />
<glyph glyph-name="Ebreve" unicode="&#x114;" horiz-adv-x="654" d="M135 727 Q137 737 139.5 739.5 Q142 742 150 742 L657 742 Q672 742 669 720 L656 631 Q654 621 650 617.5 Q646 614 635 614 L308 614 Q300 614 296.5 611 Q293 608 292 599 L271 449 L270 443 Q270 436 280 436 L499 436 Q508 436 510 433 Q512 430 511 422 L497 321 Q496 315 493 312.5 Q490 310 483 310 L262 310 Q255 310 252.5 307 Q250 304 249 296 L227 140 L227 136 Q227 128 234 128 L581 128 Q590 128 592.5 125 Q595 122 593 113 L580 13 Q579 5 576 2.5 Q573 0 563 0 L56 0 Q44 0 39 6 Q34 12 36 25 L135 727 Z M603 954 Q609 954 612.5 950 Q616 946 616 940 Q616 935 613 929 Q588 878 537.5 849.5 Q487 821 424 821 Q280 821 260 934 L259 941 Q259 954 274 954 L334 954 Q339 954 342 951.5 Q345 949 348 943.5 Q351 938 354 934 Q365 918 384 907.5 Q403 897 428 897 Q456 897 481 909.5 Q506 922 522 944 Q529 954 542 954 L603 954 Z " />
<glyph glyph-name="Ecaron" unicode="&#x11a;" horiz-adv-x="654" d="M135 727 Q137 737 139.5 739.5 Q142 742 150 742 L657 742 Q672 742 669 720 L656 631 Q654 621 650 617.5 Q646 614 635 614 L308 614 Q300 614 296.5 611 Q293 608 292 599 L271 449 L270 443 Q270 436 280 436 L499 436 Q508 436 510 433 Q512 430 511 422 L497 321 Q496 315 493 312.5 Q490 310 483 310 L262 310 Q255 310 252.5 307 Q250 304 249 296 L227 140 L227 136 Q227 128 234 128 L581 128 Q590 128 592.5 125 Q595 122 593 113 L580 13 Q579 5 576 2.5 Q573 0 563 0 L56 0 Q44 0 39 6 Q34 12 36 25 L135 727 Z M493 950 Q497 954 501 955 Q505 956 509 955.5 Q513 955 516 955 L602 955 Q614 955 614 947 Q614 942 608 936 L484 822 Q473 814 459 814 L386 814 Q367 814 357 830 L262 942 Q256 950 255.5 952.5 Q255 955 262 955 L343 955 Q351 955 355.5 952 Q360 949 364 943 L409 890 Q416 881 420 881 Q423 881 428.5 887 Q434 893 438 897 L493 950 Z " />
<glyph glyph-name="Ecircumflex" unicode="&#xca;" horiz-adv-x="654" d="M135 727 Q137 737 139.5 739.5 Q142 742 150 742 L657 742 Q672 742 669 720 L656 631 Q654 621 650 617.5 Q646 614 635 614 L308 614 Q300 614 296.5 611 Q293 608 292 599 L271 449 L270 443 Q270 436 280 436 L499 436 Q508 436 510 433 Q512 430 511 422 L497 321 Q496 315 493 312.5 Q490 310 483 310 L262 310 Q255 310 252.5 307 Q250 304 249 296 L227 140 L227 136 Q227 128 234 128 L581 128 Q590 128 592.5 125 Q595 122 593 113 L580 13 Q579 5 576 2.5 Q573 0 563 0 L56 0 Q44 0 39 6 Q34 12 36 25 L135 727 Z M441 885 Q435 894 430 894 Q427 894 422.5 889.5 Q418 885 412 878 L353 826 Q348 822 344.5 821 Q341 820 337.5 820.5 Q334 821 330 821 L249 821 Q244 821 241 823.5 Q238 826 238 830 Q238 834 243 841 L368 952 Q375 958 382 960 Q389 962 401 962 L474 962 Q484 962 489.5 955 Q495 948 496 947 L588 834 Q591 831 594.5 827 Q598 823 597 822 Q596 821 590 821 L503 821 Q489 821 480 833 L441 885 Z " />
<glyph glyph-name="uni0204" unicode="&#x204;" horiz-adv-x="654" d="M135 727 Q137 737 139.5 739.5 Q142 742 150 742 L657 742 Q672 742 669 720 L656 631 Q654 621 650 617.5 Q646 614 635 614 L308 614 Q300 614 296.5 611 Q293 608 292 599 L271 449 L270 443 Q270 436 280 436 L499 436 Q508 436 510 433 Q512 430 511 422 L497 321 Q496 315 493 312.5 Q490 310 483 310 L262 310 Q255 310 252.5 307 Q250 304 249 296 L227 140 L227 136 Q227 128 234 128 L581 128 Q590 128 592.5 125 Q595 122 593 113 L580 13 Q579 5 576 2.5 Q573 0 563 0 L56 0 Q44 0 39 6 Q34 12 36 25 L135 727 Z M251 962 Q254 965 257 965 Q261 965 269 957 L385 831 Q391 827 391 820 Q391 816 386 811 L355 782 Q351 778 346 778 Q342 778 337 781.5 Q332 785 330 787 L205 879 Q194 886 194 896 Q194 903 200 910 L251 962 Z M447 962 Q450 965 453 965 Q459 965 465 957 L581 831 Q587 827 587 820 Q587 816 582 811 L551 782 Q547 778 543 778 Q539 778 534 781.5 Q529 785 527 787 L401 879 Q390 886 390 896 Q390 903 396 910 L447 962 Z " />
<glyph glyph-name="Edieresis" unicode="&#xcb;" horiz-adv-x="654" d="M135 727 Q137 737 139.5 739.5 Q142 742 150 742 L657 742 Q672 742 669 720 L656 631 Q654 621 650 617.5 Q646 614 635 614 L308 614 Q300 614 296.5 611 Q293 608 292 599 L271 449 L270 443 Q270 436 280 436 L499 436 Q508 436 510 433 Q512 430 511 422 L497 321 Q496 315 493 312.5 Q490 310 483 310 L262 310 Q255 310 252.5 307 Q250 304 249 296 L227 140 L227 136 Q227 128 234 128 L581 128 Q590 128 592.5 125 Q595 122 593 113 L580 13 Q579 5 576 2.5 Q573 0 563 0 L56 0 Q44 0 39 6 Q34 12 36 25 L135 727 Z M386 840 Q385 829 380.5 826.5 Q376 824 363 824 L270 824 Q259 824 254 830.5 Q249 837 251 847 L264 941 Q265 950 267.5 952 Q270 954 277 954 L385 954 Q392 954 396.5 948 Q401 942 400 934 L386 840 Z M589 840 Q588 829 583.5 826.5 Q579 824 566 824 L473 824 Q462 824 457 830.5 Q452 837 454 847 L467 941 Q468 950 470.5 952 Q473 954 480 954 L588 954 Q595 954 599.5 947.5 Q604 941 602 934 L589 840 Z " />
<glyph glyph-name="Edotaccent" unicode="&#x116;" horiz-adv-x="654" d="M135 727 Q137 737 139.5 739.5 Q142 742 150 742 L657 742 Q672 742 669 720 L656 631 Q654 621 650 617.5 Q646 614 635 614 L308 614 Q300 614 296.5 611 Q293 608 292 599 L271 449 L270 443 Q270 436 280 436 L499 436 Q508 436 510 433 Q512 430 511 422 L497 321 Q496 315 493 312.5 Q490 310 483 310 L262 310 Q255 310 252.5 307 Q250 304 249 296 L227 140 L227 136 Q227 128 234 128 L581 128 Q590 128 592.5 125 Q595 122 593 113 L580 13 Q579 5 576 2.5 Q573 0 563 0 L56 0 Q44 0 39 6 Q34 12 36 25 L135 727 Z M497 826 Q495 813 489.5 809.5 Q484 806 470 806 L362 806 Q350 806 344.5 813.5 Q339 821 341 832 L356 939 Q357 949 360 951.5 Q363 954 371 954 L496 954 Q503 954 508 947 Q513 940 511 932 L497 826 Z " />
<glyph glyph-name="uni1EB8" unicode="&#x1eb8;" horiz-adv-x="654" d="M135 727 Q137 737 139.5 739.5 Q142 742 150 742 L657 742 Q672 742 669 720 L656 631 Q654 621 650 617.5 Q646 614 635 614 L308 614 Q300 614 296.5 611 Q293 608 292 599 L271 449 L270 443 Q270 436 280 436 L499 436 Q508 436 510 433 Q512 430 511 422 L497 321 Q496 315 493 312.5 Q490 310 483 310 L262 310 Q255 310 252.5 307 Q250 304 249 296 L227 140 L227 136 Q227 128 234 128 L581 128 Q590 128 592.5 125 Q595 122 593 113 L580 13 Q579 5 576 2.5 Q573 0 563 0 L56 0 Q44 0 39 6 Q34 12 36 25 L135 727 Z M317 -150 Q316 -160 312.5 -162.5 Q309 -165 298 -165 L215 -165 Q206 -165 201 -159 Q196 -153 197 -144 L210 -57 Q211 -49 212 -47.5 Q213 -46 220 -46 L317 -46 Q323 -46 326.5 -51.5 Q330 -57 329 -64 L317 -150 Z " />
<glyph glyph-name="Egrave" unicode="&#xc8;" horiz-adv-x="654" d="M135 727 Q137 737 139.5 739.5 Q142 742 150 742 L657 742 Q672 742 669 720 L656 631 Q654 621 650 617.5 Q646 614 635 614 L308 614 Q300 614 296.5 611 Q293 608 292 599 L271 449 L270 443 Q270 436 280 436 L499 436 Q508 436 510 433 Q512 430 511 422 L497 321 Q496 315 493 312.5 Q490 310 483 310 L262 310 Q255 310 252.5 307 Q250 304 249 296 L227 140 L227 136 Q227 128 234 128 L581 128 Q590 128 592.5 125 Q595 122 593 113 L580 13 Q579 5 576 2.5 Q573 0 563 0 L56 0 Q44 0 39 6 Q34 12 36 25 L135 727 Z M313 957 Q318 968 328 962 L550 863 Q556 860 558.5 853.5 Q561 847 558 840 L541 805 Q537 797 531 797 Q530 797 518 799 L296 861 Q277 867 277 882 Q277 885 279 891 L313 957 Z " />
<glyph glyph-name="uni0206" unicode="&#x206;" horiz-adv-x="654" d="M135 727 Q137 737 139.5 739.5 Q142 742 150 742 L657 742 Q672 742 669 720 L656 631 Q654 621 650 617.5 Q646 614 635 614 L308 614 Q300 614 296.5 611 Q293 608 292 599 L271 449 L270 443 Q270 436 280 436 L499 436 Q508 436 510 433 Q512 430 511 422 L497 321 Q496 315 493 312.5 Q490 310 483 310 L262 310 Q255 310 252.5 307 Q250 304 249 296 L227 140 L227 136 Q227 128 234 128 L581 128 Q590 128 592.5 125 Q595 122 593 113 L580 13 Q579 5 576 2.5 Q573 0 563 0 L56 0 Q44 0 39 6 Q34 12 36 25 L135 727 Z M265 821 Q258 821 254.5 825 Q251 829 251 835 Q251 841 254 847 Q279 898 328 926 Q377 954 439 954 Q508 954 553.5 925.5 Q599 897 608 841 L608 836 Q608 821 594 821 L533 821 Q528 821 525 824 Q522 827 519 832 Q516 837 514 841 Q501 858 482.5 868.5 Q464 879 440 879 Q411 879 386 866.5 Q361 854 346 832 Q339 821 325 821 L265 821 Z " />
<glyph glyph-name="Emacron" unicode="&#x112;" horiz-adv-x="654" d="M135 727 Q137 737 139.5 739.5 Q142 742 150 742 L657 742 Q672 742 669 720 L656 631 Q654 621 650 617.5 Q646 614 635 614 L308 614 Q300 614 296.5 611 Q293 608 292 599 L271 449 L270 443 Q270 436 280 436 L499 436 Q508 436 510 433 Q512 430 511 422 L497 321 Q496 315 493 312.5 Q490 310 483 310 L262 310 Q255 310 252.5 307 Q250 304 249 296 L227 140 L227 136 Q227 128 234 128 L581 128 Q590 128 592.5 125 Q595 122 593 113 L580 13 Q579 5 576 2.5 Q573 0 563 0 L56 0 Q44 0 39 6 Q34 12 36 25 L135 727 Z M606 865 Q605 855 600.5 852.5 Q596 850 583 850 L259 850 Q250 850 245 856.5 Q240 863 242 872 L250 937 Q251 944 253.5 946 Q256 948 262 948 L601 948 Q607 948 611.5 942 Q616 936 615 929 L606 865 Z " />
<glyph glyph-name="Eogonek" unicode="&#x118;" horiz-adv-x="654" d="M657 742 Q672 742 669 720 L656 631 Q654 621 650 617.5 Q646 614 635 614 L308 614 Q300 614 296.5 611 Q293 608 292 599 L271 449 L270 443 Q270 436 280 436 L499 436 Q508 436 510 433 Q512 430 511 422 L497 321 Q496 315 493 312.5 Q490 310 483 310 L262 310 Q255 310 252.5 307 Q250 304 249 296 L227 140 L227 136 Q227 128 234 128 L581 128 Q590 128 592.5 125 Q595 122 593 113 L580 13 Q579 4 575 2 Q574 1 571 1 Q514 -19 490.5 -38.5 Q467 -58 467 -83 Q467 -106 496 -106 Q518 -106 537 -98.5 Q556 -91 560 -89 Q564 -87 567 -87 Q571 -87 573 -91 Q575 -95 574 -101 L568 -143 Q566 -159 557 -160 Q511 -173 461 -173 Q410 -173 382 -152.5 Q354 -132 354 -94 Q354 -85 355 -80 Q359 -55 377.5 -36 Q396 -17 441 0 L56 0 Q44 0 39 6 Q34 12 36 25 L135 727 Q137 737 139.5 739.5 Q142 742 150 742 L657 742 Z " />
<glyph glyph-name="uni1EBC" unicode="&#x1ebc;" horiz-adv-x="654" d="M135 727 Q137 737 139.5 739.5 Q142 742 150 742 L657 742 Q672 742 669 720 L656 631 Q654 621 650 617.5 Q646 614 635 614 L308 614 Q300 614 296.5 611 Q293 608 292 599 L271 449 L270 443 Q270 436 280 436 L499 436 Q508 436 510 433 Q512 430 511 422 L497 321 Q496 315 493 312.5 Q490 310 483 310 L262 310 Q255 310 252.5 307 Q250 304 249 296 L227 140 L227 136 Q227 128 234 128 L581 128 Q590 128 592.5 125 Q595 122 593 113 L580 13 Q579 5 576 2.5 Q573 0 563 0 L56 0 Q44 0 39 6 Q34 12 36 25 L135 727 Z M594 860 Q543 839 502 839 Q481 839 463 843 Q445 847 423 855 Q419 856 399 862 Q379 868 359 868 Q337 868 321 861 Q305 854 286 840 Q284 839 279 839 Q269 839 266 856 L257 899 Q255 907 255 909 Q255 915 262 926 Q288 941 307.5 948.5 Q327 956 353 956 Q375 956 395 951.5 Q415 947 440 938 Q444 937 463.5 930.5 Q483 924 501 924 Q540 924 576 954 Q578 955 582 955 Q597 955 599 937 L604 886 L604 880 Q604 870 594 860 Z " />
<glyph glyph-name="F" unicode="F" horiz-adv-x="631" d="M135 727 Q136 737 139 739.5 Q142 742 150 742 L652 742 Q659 742 661 738.5 Q663 735 662 726 L648 631 Q646 621 642.5 617.5 Q639 614 628 614 L305 614 Q298 614 295 610 Q292 606 291 595 L269 439 L268 433 Q268 429 270.5 428 Q273 427 279 427 L504 427 Q511 427 513 425 Q515 423 514 416 L500 315 Q499 307 495.5 304.5 Q492 302 483 302 L262 302 Q255 302 252 299 Q249 296 247 284 L210 18 Q209 6 205 3 Q201 0 189 0 L51 0 Q42 0 38.5 2.5 Q35 5 35 12 Q35 19 36 25 L135 727 Z " />
<glyph glyph-name="G" unicode="G" horiz-adv-x="752" d="M345 -10 Q255 -10 189 28 Q123 66 88.5 135.5 Q54 205 54 299 Q54 423 103 526.5 Q152 630 242 691 Q332 752 449 752 Q529 752 590.5 721 Q652 690 686 639.5 Q720 589 722 532 Q722 522 720.5 517.5 Q719 513 715 512 L578 492 L577 492 Q573 492 570.5 497 Q568 502 565 517 Q558 567 527.5 598 Q497 629 442 629 Q371 629 324.5 577 Q278 525 256 443.5 Q234 362 234 274 Q234 188 266.5 150.5 Q299 113 362 113 Q423 113 465 147 Q507 181 527 230 L533 258 Q536 263 536 265 Q536 271 524 271 L401 271 Q395 271 393 273.5 Q391 276 392 284 L401 366 Q402 377 411 377 L697 376 Q709 376 712.5 372.5 Q716 369 714 359 L665 13 Q664 0 649 0 L619 0 Q610 0 605.5 3 Q601 6 598 15 L581 88 Q580 93 574 93 Q568 93 561 85 Q528 44 475 17 Q422 -10 345 -10 Z " />
<glyph glyph-name="uni01F4" unicode="&#x1f4;" horiz-adv-x="752" d="M345 -10 Q255 -10 189 28 Q123 66 88.5 135.5 Q54 205 54 299 Q54 423 103 526.5 Q152 630 242 691 Q332 752 449 752 Q529 752 590.5 721 Q652 690 686 639.5 Q720 589 722 532 Q722 522 720.5 517.5 Q719 513 715 512 L578 492 L577 492 Q573 492 570.5 497 Q568 502 565 517 Q558 567 527.5 598 Q497 629 442 629 Q371 629 324.5 577 Q278 525 256 443.5 Q234 362 234 274 Q234 188 266.5 150.5 Q299 113 362 113 Q423 113 465 147 Q507 181 527 230 L533 258 Q536 263 536 265 Q536 271 524 271 L401 271 Q395 271 393 273.5 Q391 276 392 284 L401 366 Q402 377 411 377 L697 376 Q709 376 712.5 372.5 Q716 369 714 359 L665 13 Q664 0 649 0 L619 0 Q610 0 605.5 3 Q601 6 598 15 L581 88 Q580 93 574 93 Q568 93 561 85 Q528 44 475 17 Q422 -10 345 -10 Z M608 883 Q609 880 609 874 Q609 864 593 860 L353 798 Q350 797 346 797 Q333 797 330 813 L322 848 Q321 852 321 857 Q321 863 326 865 L576 964 Q577 965 580 965 Q584 965 587.5 960.5 Q591 956 593 950 L608 883 Z " />
<glyph glyph-name="Gbreve" unicode="&#x11e;" horiz-adv-x="752" d="M345 -10 Q255 -10 189 28 Q123 66 88.5 135.5 Q54 205 54 299 Q54 423 103 526.5 Q152 630 242 691 Q332 752 449 752 Q529 752 590.5 721 Q652 690 686 639.5 Q720 589 722 532 Q722 522 720.5 517.5 Q719 513 715 512 L578 492 L577 492 Q573 492 570.5 497 Q568 502 565 517 Q558 567 527.5 598 Q497 629 442 629 Q371 629 324.5 577 Q278 525 256 443.5 Q234 362 234 274 Q234 188 266.5 150.5 Q299 113 362 113 Q423 113 465 147 Q507 181 527 230 L533 258 Q536 263 536 265 Q536 271 524 271 L401 271 Q395 271 393 273.5 Q391 276 392 284 L401 366 Q402 377 411 377 L697 376 Q709 376 712.5 372.5 Q716 369 714 359 L665 13 Q664 0 649 0 L619 0 Q610 0 605.5 3 Q601 6 598 15 L581 88 Q580 93 574 93 Q568 93 561 85 Q528 44 475 17 Q422 -10 345 -10 Z M644 954 Q650 954 653.5 950 Q657 946 657 940 Q657 935 654 929 Q629 878 578.5 849.5 Q528 821 465 821 Q321 821 301 934 L300 941 Q300 954 315 954 L375 954 Q380 954 383 951.5 Q386 949 389 943.5 Q392 938 395 934 Q406 918 425 907.5 Q444 897 469 897 Q497 897 522 909.5 Q547 922 563 944 Q570 954 583 954 L644 954 Z " />
<glyph glyph-name="Gcircumflex" unicode="&#x11c;" horiz-adv-x="752" d="M345 -10 Q255 -10 189 28 Q123 66 88.5 135.5 Q54 205 54 299 Q54 423 103 526.5 Q152 630 242 691 Q332 752 449 752 Q529 752 590.5 721 Q652 690 686 639.5 Q720 589 722 532 Q722 522 720.5 517.5 Q719 513 715 512 L578 492 L577 492 Q573 492 570.5 497 Q568 502 565 517 Q558 567 527.5 598 Q497 629 442 629 Q371 629 324.5 577 Q278 525 256 443.5 Q234 362 234 274 Q234 188 266.5 150.5 Q299 113 362 113 Q423 113 465 147 Q507 181 527 230 L533 258 Q536 263 536 265 Q536 271 524 271 L401 271 Q395 271 393 273.5 Q391 276 392 284 L401 366 Q402 377 411 377 L697 376 Q709 376 712.5 372.5 Q716 369 714 359 L665 13 Q664 0 649 0 L619 0 Q610 0 605.5 3 Q601 6 598 15 L581 88 Q580 93 574 93 Q568 93 561 85 Q528 44 475 17 Q422 -10 345 -10 Z M482 885 Q476 894 471 894 Q468 894 463.5 889.5 Q459 885 453 878 L394 826 Q389 822 385.5 821 Q382 820 378.5 820.5 Q375 821 371 821 L290 821 Q285 821 282 823.5 Q279 826 279 830 Q279 834 284 841 L409 952 Q416 958 423 960 Q430 962 442 962 L515 962 Q525 962 530.5 955 Q536 948 537 947 L629 834 Q632 831 635.5 827 Q639 823 638 822 Q637 821 631 821 L544 821 Q530 821 521 833 L482 885 Z " />
<glyph glyph-name="Gcommaaccent" unicode="&#x122;" horiz-adv-x="752" d="M345 -10 Q255 -10 189 28 Q123 66 88.5 135.5 Q54 205 54 299 Q54 423 103 526.5 Q152 630 242 691 Q332 752 449 752 Q529 752 590.5 721 Q652 690 686 639.5 Q720 589 722 532 Q722 522 720.5 517.5 Q719 513 715 512 L578 492 L577 492 Q573 492 570.5 497 Q568 502 565 517 Q558 567 527.5 598 Q497 629 442 629 Q371 629 324.5 577 Q278 525 256 443.5 Q234 362 234 274 Q234 188 266.5 150.5 Q299 113 362 113 Q423 113 465 147 Q507 181 527 230 L533 258 Q536 263 536 265 Q536 271 524 271 L401 271 Q395 271 393 273.5 Q391 276 392 284 L401 366 Q402 377 411 377 L697 376 Q709 376 712.5 372.5 Q716 369 714 359 L665 13 Q664 0 649 0 L619 0 Q610 0 605.5 3 Q601 6 598 15 L581 88 Q580 93 574 93 Q568 93 561 85 Q528 44 475 17 Q422 -10 345 -10 Z M264 -243 Q259 -243 259 -239 Q259 -234 263 -230 L304 -177 Q311 -170 311 -163 Q311 -160 308.5 -158 Q306 -156 302 -156 L279 -156 Q271 -156 269.5 -152.5 Q268 -149 269 -139 L279 -75 Q282 -58 294 -58 L376 -58 Q389 -58 388 -70 L377 -150 Q375 -160 368 -169 L313 -228 Q311 -230 307 -234.5 Q303 -239 298.5 -241 Q294 -243 288 -243 L264 -243 Z " />
<glyph glyph-name="Gdotaccent" unicode="&#x120;" horiz-adv-x="752" d="M345 -10 Q255 -10 189 28 Q123 66 88.5 135.5 Q54 205 54 299 Q54 423 103 526.5 Q152 630 242 691 Q332 752 449 752 Q529 752 590.5 721 Q652 690 686 639.5 Q720 589 722 532 Q722 522 720.5 517.5 Q719 513 715 512 L578 492 L577 492 Q573 492 570.5 497 Q568 502 565 517 Q558 567 527.5 598 Q497 629 442 629 Q371 629 324.5 577 Q278 525 256 443.5 Q234 362 234 274 Q234 188 266.5 150.5 Q299 113 362 113 Q423 113 465 147 Q507 181 527 230 L533 258 Q536 263 536 265 Q536 271 524 271 L401 271 Q395 271 393 273.5 Q391 276 392 284 L401 366 Q402 377 411 377 L697 376 Q709 376 712.5 372.5 Q716 369 714 359 L665 13 Q664 0 649 0 L619 0 Q610 0 605.5 3 Q601 6 598 15 L581 88 Q580 93 574 93 Q568 93 561 85 Q528 44 475 17 Q422 -10 345 -10 Z M538 826 Q536 813 530.5 809.5 Q525 806 511 806 L403 806 Q391 806 385.5 813.5 Q380 821 382 832 L397 939 Q398 949 401 951.5 Q404 954 412 954 L537 954 Q544 954 549 947 Q554 940 552 932 L538 826 Z " />
<glyph glyph-name="H" unicode="H" horiz-adv-x="751" d="M265 317 Q253 317 250 300 L210 19 Q209 7 204 3.5 Q199 0 185 0 L52 0 Q40 0 37 4 Q34 8 35 19 L135 727 Q136 737 139 739.5 Q142 742 150 742 L300 742 Q307 742 309 739 Q311 736 309 727 L273 465 L272 459 Q272 451 283 451 L520 451 Q533 451 535 472 L572 729 Q573 737 576 739.5 Q579 742 587 742 L736 742 Q742 742 744 739.5 Q746 737 746 730 Q746 723 745 718 L646 16 Q645 5 642 2.5 Q639 0 626 0 L493 0 Q482 0 477 3.5 Q472 7 472 15 Q472 20 473 23 L512 309 L512 311 Q512 317 500 317 L265 317 Z " />
<glyph glyph-name="Hbar" unicode="&#x126;" horiz-adv-x="773" d="M808 647 Q814 647 818.5 640.5 Q823 634 822 627 L815 577 Q814 567 809.5 564.5 Q805 562 792 562 L704 562 L627 16 Q626 5 623 2.5 Q620 0 607 0 L474 0 Q463 0 458 3.5 Q453 7 453 15 Q453 20 454 23 L493 309 L493 311 Q493 317 481 317 L246 317 Q234 317 231 300 L191 19 Q190 7 185 3.5 Q180 0 166 0 L33 0 Q21 0 18 4 Q15 8 16 19 L93 562 L65 562 Q55 562 50 568.5 Q45 575 47 585 L53 634 Q54 642 56.5 644.5 Q59 647 65 647 L105 647 L116 727 Q117 737 120 739.5 Q123 742 131 742 L281 742 Q288 742 290 739 Q292 736 290 727 L279 647 L541 647 L553 729 Q554 737 557 739.5 Q560 742 568 742 L717 742 Q723 742 725 739.5 Q727 737 727 730 Q727 723 726 718 L716 647 L808 647 Z M529 562 L267 562 L254 465 L253 459 Q253 451 264 451 L501 451 Q514 451 516 472 L529 562 Z " />
<glyph glyph-name="Hcircumflex" unicode="&#x124;" horiz-adv-x="751" d="M265 317 Q253 317 250 300 L210 19 Q209 7 204 3.5 Q199 0 185 0 L52 0 Q40 0 37 4 Q34 8 35 19 L135 727 Q136 737 139 739.5 Q142 742 150 742 L300 742 Q307 742 309 739 Q311 736 309 727 L273 465 L272 459 Q272 451 283 451 L520 451 Q533 451 535 472 L572 729 Q573 737 576 739.5 Q579 742 587 742 L736 742 Q742 742 744 739.5 Q746 737 746 730 Q746 723 745 718 L646 16 Q645 5 642 2.5 Q639 0 626 0 L493 0 Q482 0 477 3.5 Q472 7 472 15 Q472 20 473 23 L512 309 L512 311 Q512 317 500 317 L265 317 Z M477 885 Q471 894 466 894 Q463 894 458.5 889.5 Q454 885 448 878 L389 826 Q384 822 380.5 821 Q377 820 373.5 820.5 Q370 821 366 821 L285 821 Q280 821 277 823.5 Q274 826 274 830 Q274 834 279 841 L404 952 Q411 958 418 960 Q425 962 437 962 L510 962 Q520 962 525.5 955 Q531 948 532 947 L624 834 Q627 831 630.5 827 Q634 823 633 822 Q632 821 626 821 L539 821 Q525 821 516 833 L477 885 Z " />
<glyph glyph-name="uni1E24" unicode="&#x1e24;" horiz-adv-x="751" d="M265 317 Q253 317 250 300 L210 19 Q209 7 204 3.5 Q199 0 185 0 L52 0 Q40 0 37 4 Q34 8 35 19 L135 727 Q136 737 139 739.5 Q142 742 150 742 L300 742 Q307 742 309 739 Q311 736 309 727 L273 465 L272 459 Q272 451 283 451 L520 451 Q533 451 535 472 L572 729 Q573 737 576 739.5 Q579 742 587 742 L736 742 Q742 742 744 739.5 Q746 737 746 730 Q746 723 745 718 L646 16 Q645 5 642 2.5 Q639 0 626 0 L493 0 Q482 0 477 3.5 Q472 7 472 15 Q472 20 473 23 L512 309 L512 311 Q512 317 500 317 L265 317 Z M376 -150 Q375 -160 371.5 -162.5 Q368 -165 357 -165 L274 -165 Q265 -165 260 -159 Q255 -153 256 -144 L269 -57 Q270 -49 271 -47.5 Q272 -46 279 -46 L376 -46 Q382 -46 385.5 -51.5 Q389 -57 388 -64 L376 -150 Z " />
<glyph glyph-name="I" unicode="I" horiz-adv-x="315" d="M296 742 Q311 742 308 720 L210 20 Q209 7 204 3.5 Q199 0 184 0 L53 0 Q41 0 37.5 6.5 Q34 13 36 25 L135 727 Q136 737 139 739.5 Q142 742 150 742 L296 742 Z " />
<glyph glyph-name="IJ" unicode="&#x132;" horiz-adv-x="762" d="M296 742 Q311 742 308 720 L210 20 Q209 7 204 3.5 Q199 0 184 0 L53 0 Q41 0 37.5 6.5 Q34 13 36 25 L135 727 Q136 737 139 739.5 Q142 742 150 742 L296 742 Z M687 188 Q672 82 616.5 36 Q561 -10 457 -10 Q399 -10 337 8 Q321 13 316.5 16.5 Q312 20 313 29 L338 131 Q340 140 343.5 143 Q347 146 355 144 Q360 143 378.5 138.5 Q397 134 418 134 Q505 134 519 240 L588 728 Q589 737 592 739.5 Q595 742 603 742 L750 742 Q762 742 762 728 L761 720 L687 188 Z " />
<glyph glyph-name="Iacute" unicode="&#xcd;" horiz-adv-x="315" d="M296 742 Q311 742 308 720 L210 20 Q209 7 204 3.5 Q199 0 184 0 L53 0 Q41 0 37.5 6.5 Q34 13 36 25 L135 727 Q136 737 139 739.5 Q142 742 150 742 L296 742 Z M387 883 Q388 880 388 874 Q388 864 372 860 L132 798 Q129 797 125 797 Q112 797 109 813 L101 848 Q100 852 100 857 Q100 863 105 865 L355 964 Q356 965 359 965 Q363 965 366.5 960.5 Q370 956 372 950 L387 883 Z " />
<glyph glyph-name="Ibreve" unicode="&#x12c;" horiz-adv-x="315" d="M296 742 Q311 742 308 720 L210 20 Q209 7 204 3.5 Q199 0 184 0 L53 0 Q41 0 37.5 6.5 Q34 13 36 25 L135 727 Q136 737 139 739.5 Q142 742 150 742 L296 742 Z M423 954 Q429 954 432.5 950 Q436 946 436 940 Q436 935 433 929 Q408 878 357.5 849.5 Q307 821 244 821 Q100 821 80 934 L79 941 Q79 954 94 954 L154 954 Q159 954 162 951.5 Q165 949 168 943.5 Q171 938 174 934 Q185 918 204 907.5 Q223 897 248 897 Q276 897 301 909.5 Q326 922 342 944 Q349 954 362 954 L423 954 Z " />
<glyph glyph-name="Icircumflex" unicode="&#xce;" horiz-adv-x="315" d="M296 742 Q311 742 308 720 L210 20 Q209 7 204 3.5 Q199 0 184 0 L53 0 Q41 0 37.5 6.5 Q34 13 36 25 L135 727 Q136 737 139 739.5 Q142 742 150 742 L296 742 Z M261 885 Q255 894 250 894 Q247 894 242.5 889.5 Q238 885 232 878 L173 826 Q168 822 164.5 821 Q161 820 157.5 820.5 Q154 821 150 821 L69 821 Q64 821 61 823.5 Q58 826 58 830 Q58 834 63 841 L188 952 Q195 958 202 960 Q209 962 221 962 L294 962 Q304 962 309.5 955 Q315 948 316 947 L408 834 Q411 831 414.5 827 Q418 823 417 822 Q416 821 410 821 L323 821 Q309 821 300 833 L261 885 Z " />
<glyph glyph-name="uni0208" unicode="&#x208;" horiz-adv-x="315" d="M296 742 Q311 742 308 720 L210 20 Q209 7 204 3.5 Q199 0 184 0 L53 0 Q41 0 37.5 6.5 Q34 13 36 25 L135 727 Q136 737 139 739.5 Q142 742 150 742 L296 742 Z M71 962 Q74 965 77 965 Q81 965 89 957 L205 831 Q211 827 211 820 Q211 816 206 811 L175 782 Q171 778 166 778 Q162 778 157 781.5 Q152 785 150 787 L25 879 Q14 886 14 896 Q14 903 20 910 L71 962 Z M267 962 Q270 965 273 965 Q279 965 285 957 L401 831 Q407 827 407 820 Q407 816 402 811 L371 782 Q367 778 363 778 Q359 778 354 781.5 Q349 785 347 787 L221 879 Q210 886 210 896 Q210 903 216 910 L267 962 Z " />
<glyph glyph-name="Idieresis" unicode="&#xcf;" horiz-adv-x="315" d="M296 742 Q311 742 308 720 L210 20 Q209 7 204 3.5 Q199 0 184 0 L53 0 Q41 0 37.5 6.5 Q34 13 36 25 L135 727 Q136 737 139 739.5 Q142 742 150 742 L296 742 Z M206 840 Q205 829 200.5 826.5 Q196 824 183 824 L90 824 Q79 824 74 830.5 Q69 837 71 847 L84 941 Q85 950 87.5 952 Q90 954 97 954 L205 954 Q212 954 216.5 948 Q221 942 220 934 L206 840 Z M409 840 Q408 829 403.5 826.5 Q399 824 386 824 L293 824 Q282 824 277 830.5 Q272 837 274 847 L287 941 Q288 950 290.5 952 Q293 954 300 954 L408 954 Q415 954 419.5 947.5 Q424 941 422 934 L409 840 Z " />
<glyph glyph-name="Idot" unicode="&#x130;" horiz-adv-x="315" d="M296 742 Q311 742 308 720 L210 20 Q209 7 204 3.5 Q199 0 184 0 L53 0 Q41 0 37.5 6.5 Q34 13 36 25 L135 727 Q136 737 139 739.5 Q142 742 150 742 L296 742 Z M317 826 Q315 813 309.5 809.5 Q304 806 290 806 L182 806 Q170 806 164.5 813.5 Q159 821 161 832 L176 939 Q177 949 180 951.5 Q183 954 191 954 L316 954 Q323 954 328 947 Q333 940 331 932 L317 826 Z " />
<glyph glyph-name="uni1ECA" unicode="&#x1eca;" horiz-adv-x="315" d="M296 742 Q311 742 308 720 L210 20 Q209 7 204 3.5 Q199 0 184 0 L53 0 Q41 0 37.5 6.5 Q34 13 36 25 L135 727 Q136 737 139 739.5 Q142 742 150 742 L296 742 Z M159 -150 Q158 -160 154.5 -162.5 Q151 -165 140 -165 L57 -165 Q48 -165 43 -159 Q38 -153 39 -144 L52 -57 Q53 -49 54 -47.5 Q55 -46 62 -46 L159 -46 Q165 -46 168.5 -51.5 Q172 -57 171 -64 L159 -150 Z " />
<glyph glyph-name="Igrave" unicode="&#xcc;" horiz-adv-x="315" d="M296 742 Q311 742 308 720 L210 20 Q209 7 204 3.5 Q199 0 184 0 L53 0 Q41 0 37.5 6.5 Q34 13 36 25 L135 727 Q136 737 139 739.5 Q142 742 150 742 L296 742 Z M133 957 Q138 968 148 962 L370 863 Q376 860 378.5 853.5 Q381 847 378 840 L361 805 Q357 797 351 797 Q350 797 338 799 L116 861 Q97 867 97 882 Q97 885 99 891 L133 957 Z " />
<glyph glyph-name="uni020A" unicode="&#x20a;" horiz-adv-x="315" d="M296 742 Q311 742 308 720 L210 20 Q209 7 204 3.5 Q199 0 184 0 L53 0 Q41 0 37.5 6.5 Q34 13 36 25 L135 727 Q136 737 139 739.5 Q142 742 150 742 L296 742 Z M85 821 Q78 821 74.5 825 Q71 829 71 835 Q71 841 74 847 Q99 898 148 926 Q197 954 259 954 Q328 954 373.5 925.5 Q419 897 428 841 L428 836 Q428 821 414 821 L353 821 Q348 821 345 824 Q342 827 339 832 Q336 837 334 841 Q321 858 302.5 868.5 Q284 879 260 879 Q231 879 206 866.5 Q181 854 166 832 Q159 821 145 821 L85 821 Z " />
<glyph glyph-name="Imacron" unicode="&#x12a;" horiz-adv-x="315" d="M296 742 Q311 742 308 720 L210 20 Q209 7 204 3.5 Q199 0 184 0 L53 0 Q41 0 37.5 6.5 Q34 13 36 25 L135 727 Q136 737 139 739.5 Q142 742 150 742 L296 742 Z M426 865 Q425 855 420.5 852.5 Q416 850 403 850 L79 850 Q70 850 65 856.5 Q60 863 62 872 L70 937 Q71 944 73.5 946 Q76 948 82 948 L421 948 Q427 948 431.5 942 Q436 936 435 929 L426 865 Z " />
<glyph glyph-name="Iogonek" unicode="&#x12e;" horiz-adv-x="315" d="M296 742 Q311 742 308 720 L210 20 Q209 7 204 3.5 Q199 0 184 0 L182 0 Q128 -19 105.5 -38 Q83 -57 83 -82 Q83 -105 112 -105 Q134 -105 153 -97.5 Q172 -90 176 -88 Q180 -86 183 -86 Q187 -86 189 -90 Q191 -94 190 -100 L184 -142 Q182 -158 173 -159 Q127 -172 77 -172 Q26 -172 -2 -151.5 Q-30 -131 -30 -93 Q-30 -64 -13 -41.5 Q4 -19 54 0 L53 0 Q41 0 37.5 6.5 Q34 13 36 25 L135 727 Q136 737 139 739.5 Q142 742 150 742 L296 742 Z " />
<glyph glyph-name="Itilde" unicode="&#x128;" horiz-adv-x="315" d="M296 742 Q311 742 308 720 L210 20 Q209 7 204 3.5 Q199 0 184 0 L53 0 Q41 0 37.5 6.5 Q34 13 36 25 L135 727 Q136 737 139 739.5 Q142 742 150 742 L296 742 Z M414 860 Q363 839 322 839 Q301 839 283 843 Q265 847 243 855 Q239 856 219 862 Q199 868 179 868 Q157 868 141 861 Q125 854 106 840 Q104 839 99 839 Q89 839 86 856 L77 899 Q75 907 75 909 Q75 915 82 926 Q108 941 127.5 948.5 Q147 956 173 956 Q195 956 215 951.5 Q235 947 260 938 Q264 937 283.5 930.5 Q303 924 321 924 Q360 924 396 954 Q398 955 402 955 Q417 955 419 937 L424 886 L424 880 Q424 870 414 860 Z " />
<glyph glyph-name="J" unicode="J" horiz-adv-x="447" d="M372 188 Q357 82 301.5 36 Q246 -10 142 -10 Q84 -10 22 8 Q6 13 1.5 16.5 Q-3 20 -2 29 L23 131 Q25 140 28.5 143 Q32 146 40 144 Q45 143 63.5 138.5 Q82 134 103 134 Q190 134 204 240 L273 728 Q274 737 277 739.5 Q280 742 288 742 L435 742 Q447 742 447 728 L446 720 L372 188 Z " />
<glyph glyph-name="Jcircumflex" unicode="&#x134;" horiz-adv-x="447" d="M372 188 Q357 82 301.5 36 Q246 -10 142 -10 Q84 -10 22 8 Q6 13 1.5 16.5 Q-3 20 -2 29 L23 131 Q25 140 28.5 143 Q32 146 40 144 Q45 143 63.5 138.5 Q82 134 103 134 Q190 134 204 240 L273 728 Q274 737 277 739.5 Q280 742 288 742 L435 742 Q447 742 447 728 L446 720 L372 188 Z M352 885 Q346 894 341 894 Q338 894 333.5 889.5 Q329 885 323 878 L264 826 Q259 822 255.5 821 Q252 820 248.5 820.5 Q245 821 241 821 L160 821 Q155 821 152 823.5 Q149 826 149 830 Q149 834 154 841 L279 952 Q286 958 293 960 Q300 962 312 962 L385 962 Q395 962 400.5 955 Q406 948 407 947 L499 834 Q502 831 505.5 827 Q509 823 508 822 Q507 821 501 821 L414 821 Q400 821 391 833 L352 885 Z " />
<glyph glyph-name="K" unicode="K" horiz-adv-x="744" d="M673 21 Q675 17 675 10 Q675 0 661 0 L511 0 Q491 0 488 20 L370 334 Q368 338 366 338 Q363 338 359 332.5 Q355 327 351 323 L247 216 Q236 205 235 194 L210 19 Q209 8 203.5 4 Q198 0 185 0 L52 0 Q32 0 36 25 L135 728 Q136 737 139 739.5 Q142 742 150 742 L294 742 Q301 742 305.5 735.5 Q310 729 309 720 L267 422 L267 418 Q267 416 268 416 Q269 416 277 426 L562 729 Q569 738 575.5 740 Q582 742 597 742 L730 742 Q746 742 746 733 Q746 728 740 722 L510 491 Q503 483 501 478.5 Q499 474 500 466 L673 21 Z " />
<glyph glyph-name="Kcommaaccent" unicode="&#x136;" horiz-adv-x="744" d="M673 21 Q675 17 675 10 Q675 0 661 0 L511 0 Q491 0 488 20 L370 334 Q368 338 366 338 Q363 338 359 332.5 Q355 327 351 323 L247 216 Q236 205 235 194 L210 19 Q209 8 203.5 4 Q198 0 185 0 L52 0 Q32 0 36 25 L135 728 Q136 737 139 739.5 Q142 742 150 742 L294 742 Q301 742 305.5 735.5 Q310 729 309 720 L267 422 L267 418 Q267 416 268 416 Q269 416 277 426 L562 729 Q569 738 575.5 740 Q582 742 597 742 L730 742 Q746 742 746 733 Q746 728 740 722 L510 491 Q503 483 501 478.5 Q499 474 500 466 L673 21 Z M246 -243 Q241 -243 241 -239 Q241 -234 245 -230 L286 -177 Q293 -170 293 -163 Q293 -160 290.5 -158 Q288 -156 284 -156 L261 -156 Q253 -156 251.5 -152.5 Q250 -149 251 -139 L261 -75 Q264 -58 276 -58 L358 -58 Q371 -58 370 -70 L359 -150 Q357 -160 350 -169 L295 -228 Q293 -230 289 -234.5 Q285 -239 280.5 -241 Q276 -243 270 -243 L246 -243 Z " />
<glyph glyph-name="L" unicode="L" horiz-adv-x="627" d="M134 725 Q135 734 139 738 Q143 742 150 742 L298 742 Q309 742 309 728 Q309 723 308 720 L228 143 L227 138 Q227 128 237 128 L558 128 Q574 128 571 108 L558 13 Q557 5 553.5 2.5 Q550 0 540 0 L56 0 Q33 0 36 25 L134 725 Z " />
<glyph glyph-name="uni01C7" unicode="&#x1c7;" horiz-adv-x="1074" d="M134 725 Q135 734 139 738 Q143 742 150 742 L298 742 Q309 742 309 728 Q309 723 308 720 L228 143 L227 138 Q227 128 237 128 L558 128 Q574 128 571 108 L558 13 Q557 5 553.5 2.5 Q550 0 540 0 L56 0 Q33 0 36 25 L134 725 Z M999 188 Q984 82 928.5 36 Q873 -10 769 -10 Q711 -10 649 8 Q633 13 628.5 16.5 Q624 20 625 29 L650 131 Q652 140 655.5 143 Q659 146 667 144 Q672 143 690.5 138.5 Q709 134 730 134 Q817 134 831 240 L900 728 Q901 737 904 739.5 Q907 742 915 742 L1062 742 Q1074 742 1074 728 L1073 720 L999 188 Z " />
<glyph glyph-name="Lacute" unicode="&#x139;" horiz-adv-x="627" d="M134 725 Q135 734 139 738 Q143 742 150 742 L298 742 Q309 742 309 728 Q309 723 308 720 L228 143 L227 138 Q227 128 237 128 L558 128 Q574 128 571 108 L558 13 Q557 5 553.5 2.5 Q550 0 540 0 L56 0 Q33 0 36 25 L134 725 Z M483 883 Q484 880 484 874 Q484 864 468 860 L228 798 Q225 797 221 797 Q208 797 205 813 L197 848 Q196 852 196 857 Q196 863 201 865 L451 964 Q452 965 455 965 Q459 965 462.5 960.5 Q466 956 468 950 L483 883 Z " />
<glyph glyph-name="Lcaron" unicode="&#x13d;" horiz-adv-x="627" d="M134 725 Q135 734 139 738 Q143 742 150 742 L298 742 Q309 742 309 728 Q309 723 308 720 L228 143 L227 138 Q227 128 237 128 L558 128 Q574 128 571 108 L558 13 Q557 5 553.5 2.5 Q550 0 540 0 L56 0 Q33 0 36 25 L134 725 Z M445 516 Q439 516 435.5 522 Q432 528 434 533 L476 608 Q477 611 479.5 615 Q482 619 481 620.5 Q480 622 476 622 L467 623 Q459 624 454.5 629 Q450 634 451 642 L464 733 Q465 739 466.5 740.5 Q468 742 474 742 L555 742 Q560 742 564 736.5 Q568 731 567 726 L552 619 L549 611 L500 525 Q497 518 493.5 517 Q490 516 476 516 L445 516 Z " />
<glyph glyph-name="Lcommaaccent" unicode="&#x13b;" horiz-adv-x="627" d="M134 725 Q135 734 139 738 Q143 742 150 742 L298 742 Q309 742 309 728 Q309 723 308 720 L228 143 L227 138 Q227 128 237 128 L558 128 Q574 128 571 108 L558 13 Q557 5 553.5 2.5 Q550 0 540 0 L56 0 Q33 0 36 25 L134 725 Z M175 -243 Q170 -243 170 -239 Q170 -234 174 -230 L215 -177 Q222 -170 222 -163 Q222 -160 219.5 -158 Q217 -156 213 -156 L190 -156 Q182 -156 180.5 -152.5 Q179 -149 180 -139 L190 -75 Q193 -58 205 -58 L287 -58 Q300 -58 299 -70 L288 -150 Q286 -160 279 -169 L224 -228 Q222 -230 218 -234.5 Q214 -239 209.5 -241 Q205 -243 199 -243 L175 -243 Z " />
<glyph glyph-name="Ldot" unicode="&#x13f;" horiz-adv-x="616" d="M97 725 Q98 734 102 738 Q106 742 113 742 L261 742 Q272 742 272 728 Q272 723 271 720 L191 143 L190 138 Q190 128 200 128 L521 128 Q537 128 534 108 L521 13 Q520 5 516.5 2.5 Q513 0 503 0 L19 0 Q-4 0 -1 25 L97 725 Z M525 353 Q524 341 520 338 Q516 335 502 335 L390 335 Q379 335 373.5 342 Q368 349 370 358 L387 473 Q388 482 390.5 484 Q393 486 399 486 L528 486 Q535 486 539 480 Q543 474 541 466 L525 353 Z " />
<glyph glyph-name="uni01C8" unicode="&#x1c8;" horiz-adv-x="892" d="M134 725 Q135 734 139 738 Q143 742 150 742 L298 742 Q309 742 309 728 Q309 723 308 720 L228 143 L227 138 Q227 128 237 128 L558 128 Q574 128 571 108 L558 13 Q557 5 553.5 2.5 Q550 0 540 0 L56 0 Q33 0 36 25 L134 725 Z M887 615 Q886 602 880 598 Q874 594 860 594 L745 594 Q730 594 730 613 L731 621 L746 722 Q749 742 764 742 L891 742 Q898 742 900.5 735 Q903 728 901 719 L887 615 Z M800 1 Q787 -88 739.5 -129 Q692 -170 600 -170 Q557 -170 542.5 -164.5 Q528 -159 530 -145 L541 -66 Q543 -51 556 -49 L598 -44 Q618 -42 631 -27.5 Q644 -13 648 17 L718 515 Q719 524 722.5 527 Q726 530 734 530 L856 530 Q863 530 868 523 Q873 516 872 508 L800 1 Z " />
<glyph glyph-name="Lslash" unicode="&#x141;" horiz-adv-x="590" d="M521 128 Q537 128 534 108 L521 13 Q520 5 516.5 2.5 Q513 0 503 0 L19 0 Q-4 0 -1 25 L38 302 L9 294 Q7 293 3 293 Q-6 293 -9.5 299 Q-13 305 -11 314 L2 407 Q3 416 5.5 418 Q8 420 15 422 L56 432 L97 725 Q98 734 102 738 Q106 742 113 742 L261 742 Q272 742 272 728 Q272 723 271 720 L238 479 L399 520 Q401 521 405 521 Q412 521 416 515 Q420 509 418 500 L406 413 Q404 405 402 402 Q400 399 391 396 L220 350 L191 143 L190 138 Q190 128 200 128 L521 128 Z " />
<glyph glyph-name="M" unicode="M" horiz-adv-x="949" d="M49 0 Q41 0 38.5 2.5 Q36 5 36 13 Q36 21 37 27 L135 727 Q136 737 139 739.5 Q142 742 151 742 L359 742 Q369 742 374 737.5 Q379 733 381 724 L474 305 Q474 299 478 299 Q482 299 485 306 L691 723 Q696 734 700.5 738 Q705 742 713 742 L932 742 Q947 742 944 727 L844 19 Q843 7 838.5 3.5 Q834 0 820 0 L692 0 Q679 0 673.5 5.5 Q668 11 670 25 L739 514 L739 518 Q739 519 738.5 520 Q738 521 738 521 Q736 521 731 513 L486 12 Q482 5 477.5 2.5 Q473 0 465 0 L381 0 Q372 0 367.5 4 Q363 8 361 20 L258 510 Q255 518 251 518 Q247 518 246 511 L176 14 Q175 6 171 3 Q167 0 159 0 L49 0 Z " />
<glyph glyph-name="N" unicode="N" horiz-adv-x="759" d="M744 742 Q751 742 753 738.5 Q755 735 754 727 L653 11 Q652 4 648.5 2 Q645 0 637 0 L535 0 Q522 0 512 16 L254 463 Q251 468 248 468 Q242 468 241 457 L179 16 Q177 6 173.5 3 Q170 0 159 0 L49 0 Q33 0 35 22 L135 727 Q137 737 139.5 739.5 Q142 742 152 742 L273 742 Q283 742 288.5 737.5 Q294 733 299 723 L535 306 Q540 298 545 298 Q553 298 554 310 L612 729 Q613 737 616.5 739.5 Q620 742 629 742 L744 742 Z " />
<glyph glyph-name="uni01CA" unicode="&#x1ca;" horiz-adv-x="1206" d="M744 742 Q751 742 753 738.5 Q755 735 754 727 L653 11 Q652 4 648.5 2 Q645 0 637 0 L535 0 Q522 0 512 16 L254 463 Q251 468 248 468 Q242 468 241 457 L179 16 Q177 6 173.5 3 Q170 0 159 0 L49 0 Q33 0 35 22 L135 727 Q137 737 139.5 739.5 Q142 742 152 742 L273 742 Q283 742 288.5 737.5 Q294 733 299 723 L535 306 Q540 298 545 298 Q553 298 554 310 L612 729 Q613 737 616.5 739.5 Q620 742 629 742 L744 742 Z M1131 188 Q1116 82 1060.5 36 Q1005 -10 901 -10 Q843 -10 781 8 Q765 13 760.5 16.5 Q756 20 757 29 L782 131 Q784 140 787.5 143 Q791 146 799 144 Q804 143 822.5 138.5 Q841 134 862 134 Q949 134 963 240 L1032 728 Q1033 737 1036 739.5 Q1039 742 1047 742 L1194 742 Q1206 742 1206 728 L1205 720 L1131 188 Z " />
<glyph glyph-name="Nacute" unicode="&#x143;" horiz-adv-x="759" d="M744 742 Q751 742 753 738.5 Q755 735 754 727 L653 11 Q652 4 648.5 2 Q645 0 637 0 L535 0 Q522 0 512 16 L254 463 Q251 468 248 468 Q242 468 241 457 L179 16 Q177 6 173.5 3 Q170 0 159 0 L49 0 Q33 0 35 22 L135 727 Q137 737 139.5 739.5 Q142 742 152 742 L273 742 Q283 742 288.5 737.5 Q294 733 299 723 L535 306 Q540 298 545 298 Q553 298 554 310 L612 729 Q613 737 616.5 739.5 Q620 742 629 742 L744 742 Z M613 883 Q614 880 614 874 Q614 864 598 860 L358 798 Q355 797 351 797 Q338 797 335 813 L327 848 Q326 852 326 857 Q326 863 331 865 L581 964 Q582 965 585 965 Q589 965 592.5 960.5 Q596 956 598 950 L613 883 Z " />
<glyph glyph-name="Ncaron" unicode="&#x147;" horiz-adv-x="759" d="M744 742 Q751 742 753 738.5 Q755 735 754 727 L653 11 Q652 4 648.5 2 Q645 0 637 0 L535 0 Q522 0 512 16 L254 463 Q251 468 248 468 Q242 468 241 457 L179 16 Q177 6 173.5 3 Q170 0 159 0 L49 0 Q33 0 35 22 L135 727 Q137 737 139.5 739.5 Q142 742 152 742 L273 742 Q283 742 288.5 737.5 Q294 733 299 723 L535 306 Q540 298 545 298 Q553 298 554 310 L612 729 Q613 737 616.5 739.5 Q620 742 629 742 L744 742 Z M539 950 Q543 954 547 955 Q551 956 555 955.5 Q559 955 562 955 L648 955 Q660 955 660 947 Q660 942 654 936 L530 822 Q519 814 505 814 L432 814 Q413 814 403 830 L308 942 Q302 950 301.5 952.5 Q301 955 308 955 L389 955 Q397 955 401.5 952 Q406 949 410 943 L455 890 Q462 881 466 881 Q469 881 474.5 887 Q480 893 484 897 L539 950 Z " />
<glyph glyph-name="Ncommaaccent" unicode="&#x145;" horiz-adv-x="759" d="M744 742 Q751 742 753 738.5 Q755 735 754 727 L653 11 Q652 4 648.5 2 Q645 0 637 0 L535 0 Q522 0 512 16 L254 463 Q251 468 248 468 Q242 468 241 457 L179 16 Q177 6 173.5 3 Q170 0 159 0 L49 0 Q33 0 35 22 L135 727 Q137 737 139.5 739.5 Q142 742 152 742 L273 742 Q283 742 288.5 737.5 Q294 733 299 723 L535 306 Q540 298 545 298 Q553 298 554 310 L612 729 Q613 737 616.5 739.5 Q620 742 629 742 L744 742 Z M258 -243 Q253 -243 253 -239 Q253 -234 257 -230 L298 -177 Q305 -170 305 -163 Q305 -160 302.5 -158 Q300 -156 296 -156 L273 -156 Q265 -156 263.5 -152.5 Q262 -149 263 -139 L273 -75 Q276 -58 288 -58 L370 -58 Q383 -58 382 -70 L371 -150 Q369 -160 362 -169 L307 -228 Q305 -230 301 -234.5 Q297 -239 292.5 -241 Q288 -243 282 -243 L258 -243 Z " />
<glyph glyph-name="uni1E44" unicode="&#x1e44;" horiz-adv-x="759" d="M744 742 Q751 742 753 738.5 Q755 735 754 727 L653 11 Q652 4 648.5 2 Q645 0 637 0 L535 0 Q522 0 512 16 L254 463 Q251 468 248 468 Q242 468 241 457 L179 16 Q177 6 173.5 3 Q170 0 159 0 L49 0 Q33 0 35 22 L135 727 Q137 737 139.5 739.5 Q142 742 152 742 L273 742 Q283 742 288.5 737.5 Q294 733 299 723 L535 306 Q540 298 545 298 Q553 298 554 310 L612 729 Q613 737 616.5 739.5 Q620 742 629 742 L744 742 Z M543 826 Q541 813 535.5 809.5 Q530 806 516 806 L408 806 Q396 806 390.5 813.5 Q385 821 387 832 L402 939 Q403 949 406 951.5 Q409 954 417 954 L542 954 Q549 954 554 947 Q559 940 557 932 L543 826 Z " />
<glyph glyph-name="Eng" unicode="&#x14a;" horiz-adv-x="759" d="M740 742 Q747 742 751 736 Q755 730 754 722 L655 16 Q640 -85 586 -130 Q532 -175 431 -175 Q375 -175 317 -160 Q292 -157 292 -133 Q292 -127 293 -124 L313 -36 Q315 -27 317.5 -25 Q320 -23 327 -25 L349 -28 Q377 -32 390 -32 Q430 -32 455.5 -10.5 Q481 11 488 55 L491 73 L254 464 Q253 467 250 467 Q247 467 244.5 463 Q242 459 241 454 L179 14 Q178 5 175 2.5 Q172 0 160 0 L56 0 Q47 0 40.5 6 Q34 12 35 22 L135 727 Q136 737 139 739.5 Q142 742 152 742 L274 742 Q284 742 289 738 Q294 734 300 723 L540 333 Q543 328 547 328 Q551 328 554.5 333 Q558 338 559 345 L613 729 Q614 737 617 739.5 Q620 742 629 742 L740 742 Z " />
<glyph glyph-name="uni01CB" unicode="&#x1cb;" horiz-adv-x="1024" d="M744 742 Q751 742 753 738.5 Q755 735 754 727 L653 11 Q652 4 648.5 2 Q645 0 637 0 L535 0 Q522 0 512 16 L254 463 Q251 468 248 468 Q242 468 241 457 L179 16 Q177 6 173.5 3 Q170 0 159 0 L49 0 Q33 0 35 22 L135 727 Q137 737 139.5 739.5 Q142 742 152 742 L273 742 Q283 742 288.5 737.5 Q294 733 299 723 L535 306 Q540 298 545 298 Q553 298 554 310 L612 729 Q613 737 616.5 739.5 Q620 742 629 742 L744 742 Z M1019 615 Q1018 602 1012 598 Q1006 594 992 594 L877 594 Q862 594 862 613 L863 621 L878 722 Q881 742 896 742 L1023 742 Q1030 742 1032.5 735 Q1035 728 1033 719 L1019 615 Z M932 1 Q919 -88 871.5 -129 Q824 -170 732 -170 Q689 -170 674.5 -164.5 Q660 -159 662 -145 L673 -66 Q675 -51 688 -49 L730 -44 Q750 -42 763 -27.5 Q776 -13 780 17 L850 515 Q851 524 854.5 527 Q858 530 866 530 L988 530 Q995 530 1000 523 Q1005 516 1004 508 L932 1 Z " />
<glyph glyph-name="Ntilde" unicode="&#xd1;" horiz-adv-x="759" d="M744 742 Q751 742 753 738.5 Q755 735 754 727 L653 11 Q652 4 648.5 2 Q645 0 637 0 L535 0 Q522 0 512 16 L254 463 Q251 468 248 468 Q242 468 241 457 L179 16 Q177 6 173.5 3 Q170 0 159 0 L49 0 Q33 0 35 22 L135 727 Q137 737 139.5 739.5 Q142 742 152 742 L273 742 Q283 742 288.5 737.5 Q294 733 299 723 L535 306 Q540 298 545 298 Q553 298 554 310 L612 729 Q613 737 616.5 739.5 Q620 742 629 742 L744 742 Z M640 860 Q589 839 548 839 Q527 839 509 843 Q491 847 469 855 Q465 856 445 862 Q425 868 405 868 Q383 868 367 861 Q351 854 332 840 Q330 839 325 839 Q315 839 312 856 L303 899 Q301 907 301 909 Q301 915 308 926 Q334 941 353.5 948.5 Q373 956 399 956 Q421 956 441 951.5 Q461 947 486 938 Q490 937 509.5 930.5 Q529 924 547 924 Q586 924 622 954 Q624 955 628 955 Q643 955 645 937 L650 886 L650 880 Q650 870 640 860 Z " />
<glyph glyph-name="O" unicode="O" horiz-adv-x="774" d="M355 -10 Q213 -10 134 71.5 Q55 153 55 297 Q55 342 60 377 Q76 492 129.5 577 Q183 662 265.5 707 Q348 752 450 752 Q542 752 609.5 714.5 Q677 677 712.5 606.5 Q748 536 748 440 Q748 393 742 361 Q726 247 673.5 163 Q621 79 539 34.5 Q457 -10 355 -10 Z M360 113 Q445 113 494 175.5 Q543 238 562 375 Q569 428 569 474 Q569 555 539 592.5 Q509 630 446 630 Q361 630 311 564 Q261 498 241 358 Q233 300 233 264 Q233 185 264 149 Q295 113 360 113 Z " />
<glyph glyph-name="Oacute" unicode="&#xd3;" horiz-adv-x="774" d="M355 -10 Q213 -10 134 71.5 Q55 153 55 297 Q55 342 60 377 Q76 492 129.5 577 Q183 662 265.5 707 Q348 752 450 752 Q542 752 609.5 714.5 Q677 677 712.5 606.5 Q748 536 748 440 Q748 393 742 361 Q726 247 673.5 163 Q621 79 539 34.5 Q457 -10 355 -10 Z M360 113 Q445 113 494 175.5 Q543 238 562 375 Q569 428 569 474 Q569 555 539 592.5 Q509 630 446 630 Q361 630 311 564 Q261 498 241 358 Q233 300 233 264 Q233 185 264 149 Q295 113 360 113 Z M615 883 Q616 880 616 874 Q616 864 600 860 L360 798 Q357 797 353 797 Q340 797 337 813 L329 848 Q328 852 328 857 Q328 863 333 865 L583 964 Q584 965 587 965 Q591 965 594.5 960.5 Q598 956 600 950 L615 883 Z " />
<glyph glyph-name="Obreve" unicode="&#x14e;" horiz-adv-x="774" d="M355 -10 Q213 -10 134 71.5 Q55 153 55 297 Q55 342 60 377 Q76 492 129.5 577 Q183 662 265.5 707 Q348 752 450 752 Q542 752 609.5 714.5 Q677 677 712.5 606.5 Q748 536 748 440 Q748 393 742 361 Q726 247 673.5 163 Q621 79 539 34.5 Q457 -10 355 -10 Z M360 113 Q445 113 494 175.5 Q543 238 562 375 Q569 428 569 474 Q569 555 539 592.5 Q509 630 446 630 Q361 630 311 564 Q261 498 241 358 Q233 300 233 264 Q233 185 264 149 Q295 113 360 113 Z M651 954 Q657 954 660.5 950 Q664 946 664 940 Q664 935 661 929 Q636 878 585.5 849.5 Q535 821 472 821 Q328 821 308 934 L307 941 Q307 954 322 954 L382 954 Q387 954 390 951.5 Q393 949 396 943.5 Q399 938 402 934 Q413 918 432 907.5 Q451 897 476 897 Q504 897 529 909.5 Q554 922 570 944 Q577 954 590 954 L651 954 Z " />
<glyph glyph-name="Ocircumflex" unicode="&#xd4;" horiz-adv-x="774" d="M355 -10 Q213 -10 134 71.5 Q55 153 55 297 Q55 342 60 377 Q76 492 129.5 577 Q183 662 265.5 707 Q348 752 450 752 Q542 752 609.5 714.5 Q677 677 712.5 606.5 Q748 536 748 440 Q748 393 742 361 Q726 247 673.5 163 Q621 79 539 34.5 Q457 -10 355 -10 Z M360 113 Q445 113 494 175.5 Q543 238 562 375 Q569 428 569 474 Q569 555 539 592.5 Q509 630 446 630 Q361 630 311 564 Q261 498 241 358 Q233 300 233 264 Q233 185 264 149 Q295 113 360 113 Z M489 885 Q483 894 478 894 Q475 894 470.5 889.5 Q466 885 460 878 L401 826 Q396 822 392.5 821 Q389 820 385.5 820.5 Q382 821 378 821 L297 821 Q292 821 289 823.5 Q286 826 286 830 Q286 834 291 841 L416 952 Q423 958 430 960 Q437 962 449 962 L522 962 Q532 962 537.5 955 Q543 948 544 947 L636 834 Q639 831 642.5 827 Q646 823 645 822 Q644 821 638 821 L551 821 Q537 821 528 833 L489 885 Z " />
<glyph glyph-name="uni020C" unicode="&#x20c;" horiz-adv-x="774" d="M355 -10 Q213 -10 134 71.5 Q55 153 55 297 Q55 342 60 377 Q76 492 129.5 577 Q183 662 265.5 707 Q348 752 450 752 Q542 752 609.5 714.5 Q677 677 712.5 606.5 Q748 536 748 440 Q748 393 742 361 Q726 247 673.5 163 Q621 79 539 34.5 Q457 -10 355 -10 Z M360 113 Q445 113 494 175.5 Q543 238 562 375 Q569 428 569 474 Q569 555 539 592.5 Q509 630 446 630 Q361 630 311 564 Q261 498 241 358 Q233 300 233 264 Q233 185 264 149 Q295 113 360 113 Z M299 962 Q302 965 305 965 Q309 965 317 957 L433 831 Q439 827 439 820 Q439 816 434 811 L403 782 Q399 778 394 778 Q390 778 385 781.5 Q380 785 378 787 L253 879 Q242 886 242 896 Q242 903 248 910 L299 962 Z M495 962 Q498 965 501 965 Q507 965 513 957 L629 831 Q635 827 635 820 Q635 816 630 811 L599 782 Q595 778 591 778 Q587 778 582 781.5 Q577 785 575 787 L449 879 Q438 886 438 896 Q438 903 444 910 L495 962 Z " />
<glyph glyph-name="Odieresis" unicode="&#xd6;" horiz-adv-x="774" d="M355 -10 Q213 -10 134 71.5 Q55 153 55 297 Q55 342 60 377 Q76 492 129.5 577 Q183 662 265.5 707 Q348 752 450 752 Q542 752 609.5 714.5 Q677 677 712.5 606.5 Q748 536 748 440 Q748 393 742 361 Q726 247 673.5 163 Q621 79 539 34.5 Q457 -10 355 -10 Z M360 113 Q445 113 494 175.5 Q543 238 562 375 Q569 428 569 474 Q569 555 539 592.5 Q509 630 446 630 Q361 630 311 564 Q261 498 241 358 Q233 300 233 264 Q233 185 264 149 Q295 113 360 113 Z M434 840 Q433 829 428.5 826.5 Q424 824 411 824 L318 824 Q307 824 302 830.5 Q297 837 299 847 L312 941 Q313 950 315.5 952 Q318 954 325 954 L433 954 Q440 954 444.5 948 Q449 942 448 934 L434 840 Z M637 840 Q636 829 631.5 826.5 Q627 824 614 824 L521 824 Q510 824 505 830.5 Q500 837 502 847 L515 941 Q516 950 518.5 952 Q521 954 528 954 L636 954 Q643 954 647.5 947.5 Q652 941 650 934 L637 840 Z " />
<glyph glyph-name="uni1ECC" unicode="&#x1ecc;" horiz-adv-x="774" d="M355 -10 Q213 -10 134 71.5 Q55 153 55 297 Q55 342 60 377 Q76 492 129.5 577 Q183 662 265.5 707 Q348 752 450 752 Q542 752 609.5 714.5 Q677 677 712.5 606.5 Q748 536 748 440 Q748 393 742 361 Q726 247 673.5 163 Q621 79 539 34.5 Q457 -10 355 -10 Z M360 113 Q445 113 494 175.5 Q543 238 562 375 Q569 428 569 474 Q569 555 539 592.5 Q509 630 446 630 Q361 630 311 564 Q261 498 241 358 Q233 300 233 264 Q233 185 264 149 Q295 113 360 113 Z M391 -150 Q390 -160 386.5 -162.5 Q383 -165 372 -165 L289 -165 Q280 -165 275 -159 Q270 -153 271 -144 L284 -57 Q285 -49 286 -47.5 Q287 -46 294 -46 L391 -46 Q397 -46 400.5 -51.5 Q404 -57 403 -64 L391 -150 Z " />
<glyph glyph-name="Ograve" unicode="&#xd2;" horiz-adv-x="774" d="M355 -10 Q213 -10 134 71.5 Q55 153 55 297 Q55 342 60 377 Q76 492 129.5 577 Q183 662 265.5 707 Q348 752 450 752 Q542 752 609.5 714.5 Q677 677 712.5 606.5 Q748 536 748 440 Q748 393 742 361 Q726 247 673.5 163 Q621 79 539 34.5 Q457 -10 355 -10 Z M360 113 Q445 113 494 175.5 Q543 238 562 375 Q569 428 569 474 Q569 555 539 592.5 Q509 630 446 630 Q361 630 311 564 Q261 498 241 358 Q233 300 233 264 Q233 185 264 149 Q295 113 360 113 Z M361 957 Q366 968 376 962 L598 863 Q604 860 606.5 853.5 Q609 847 606 840 L589 805 Q585 797 579 797 Q578 797 566 799 L344 861 Q325 867 325 882 Q325 885 327 891 L361 957 Z " />
<glyph glyph-name="Ohungarumlaut" unicode="&#x150;" horiz-adv-x="774" d="M355 -10 Q213 -10 134 71.5 Q55 153 55 297 Q55 342 60 377 Q76 492 129.5 577 Q183 662 265.5 707 Q348 752 450 752 Q542 752 609.5 714.5 Q677 677 712.5 606.5 Q748 536 748 440 Q748 393 742 361 Q726 247 673.5 163 Q621 79 539 34.5 Q457 -10 355 -10 Z M360 113 Q445 113 494 175.5 Q543 238 562 375 Q569 428 569 474 Q569 555 539 592.5 Q509 630 446 630 Q361 630 311 564 Q261 498 241 358 Q233 300 233 264 Q233 185 264 149 Q295 113 360 113 Z M486 903 Q493 894 493 887 Q493 880 483 874 L332 782 Q322 778 320 778 Q312 778 307 788 L285 817 Q272 831 279 838 L431 963 Q433 965 437 965 Q444 965 450 955 L486 903 Z M683 903 Q689 893 689 887 Q689 879 680 874 L529 782 Q519 778 517 778 Q509 778 504 788 L481 817 Q468 832 476 838 L628 963 Q630 965 634 965 Q641 965 647 955 L683 903 Z " />
<glyph glyph-name="uni020E" unicode="&#x20e;" horiz-adv-x="774" d="M355 -10 Q213 -10 134 71.5 Q55 153 55 297 Q55 342 60 377 Q76 492 129.5 577 Q183 662 265.5 707 Q348 752 450 752 Q542 752 609.5 714.5 Q677 677 712.5 606.5 Q748 536 748 440 Q748 393 742 361 Q726 247 673.5 163 Q621 79 539 34.5 Q457 -10 355 -10 Z M360 113 Q445 113 494 175.5 Q543 238 562 375 Q569 428 569 474 Q569 555 539 592.5 Q509 630 446 630 Q361 630 311 564 Q261 498 241 358 Q233 300 233 264 Q233 185 264 149 Q295 113 360 113 Z M313 821 Q306 821 302.5 825 Q299 829 299 835 Q299 841 302 847 Q327 898 376 926 Q425 954 487 954 Q556 954 601.5 925.5 Q647 897 656 841 L656 836 Q656 821 642 821 L581 821 Q576 821 573 824 Q570 827 567 832 Q564 837 562 841 Q549 858 530.5 868.5 Q512 879 488 879 Q459 879 434 866.5 Q409 854 394 832 Q387 821 373 821 L313 821 Z " />
<glyph glyph-name="Omacron" unicode="&#x14c;" horiz-adv-x="774" d="M355 -10 Q213 -10 134 71.5 Q55 153 55 297 Q55 342 60 377 Q76 492 129.5 577 Q183 662 265.5 707 Q348 752 450 752 Q542 752 609.5 714.5 Q677 677 712.5 606.5 Q748 536 748 440 Q748 393 742 361 Q726 247 673.5 163 Q621 79 539 34.5 Q457 -10 355 -10 Z M360 113 Q445 113 494 175.5 Q543 238 562 375 Q569 428 569 474 Q569 555 539 592.5 Q509 630 446 630 Q361 630 311 564 Q261 498 241 358 Q233 300 233 264 Q233 185 264 149 Q295 113 360 113 Z M654 865 Q653 855 648.5 852.5 Q644 850 631 850 L307 850 Q298 850 293 856.5 Q288 863 290 872 L298 937 Q299 944 301.5 946 Q304 948 310 948 L649 948 Q655 948 659.5 942 Q664 936 663 929 L654 865 Z " />
<glyph glyph-name="uni01EA" unicode="&#x1ea;" horiz-adv-x="774" d="M450 752 Q542 752 609.5 714.5 Q677 677 712.5 606.5 Q748 536 748 440 Q748 393 742 361 Q722 219 646.5 125 Q571 31 456 2 L457 2 Q398 -18 373.5 -37.5 Q349 -57 349 -83 Q349 -106 378 -106 Q400 -106 419 -98.5 Q438 -91 442 -89 Q446 -87 449 -87 Q453 -87 455 -91 Q457 -95 456 -101 L450 -143 Q448 -159 439 -160 Q394 -173 343 -173 Q292 -173 264 -152.5 Q236 -132 236 -94 Q236 -66 250 -46 Q264 -26 305 -7 Q186 6 120.5 86 Q55 166 55 297 Q55 342 60 377 Q76 492 129.5 577 Q183 662 265.5 707 Q348 752 450 752 Z M562 375 Q569 428 569 474 Q569 555 539 592.5 Q509 630 446 630 Q361 630 311 564 Q261 498 241 358 Q233 300 233 264 Q233 185 264 149 Q295 113 360 113 Q445 113 494 175.5 Q543 238 562 375 Z " />
<glyph glyph-name="Oslash" unicode="&#xd8;" horiz-adv-x="764" d="M808 695 Q814 687 814 681 Q814 676 810 672 L715 590 Q743 525 743 442 Q743 405 737 361 Q721 247 668.5 163 Q616 79 534 34.5 Q452 -10 350 -10 Q280 -10 225 11 Q170 32 133 71 L60 1 Q53 -6 45 -6 Q36 -6 25 7 L-3 40 Q-14 51 -14 59 Q-14 65 -9 70 L78 145 Q49 214 49 298 Q49 335 55 377 Q71 492 124.5 577 Q178 662 260.5 707 Q343 752 445 752 Q515 752 570 730 Q625 708 663 667 L743 743 Q748 748 755 748 Q762 748 767 741 L808 695 Z M237 358 Q233 322 233 307 Q233 295 235 277 L547 568 Q533 601 506.5 615.5 Q480 630 440 630 Q356 630 306.5 564 Q257 498 237 358 Z M556 375 Q559 399 559 421 Q559 442 556 458 L246 169 Q261 139 287.5 126.5 Q314 114 355 114 Q440 114 488.5 176 Q537 238 556 375 Z " />
<glyph glyph-name="Oslashacute" unicode="&#x1fe;" horiz-adv-x="764" d="M808 695 Q814 687 814 681 Q814 676 810 672 L715 590 Q743 525 743 442 Q743 405 737 361 Q721 247 668.5 163 Q616 79 534 34.5 Q452 -10 350 -10 Q280 -10 225 11 Q170 32 133 71 L60 1 Q53 -6 45 -6 Q36 -6 25 7 L-3 40 Q-14 51 -14 59 Q-14 65 -9 70 L78 145 Q49 214 49 298 Q49 335 55 377 Q71 492 124.5 577 Q178 662 260.5 707 Q343 752 445 752 Q515 752 570 730 Q625 708 663 667 L743 743 Q748 748 755 748 Q762 748 767 741 L808 695 Z M237 358 Q233 322 233 307 Q233 295 235 277 L547 568 Q533 601 506.5 615.5 Q480 630 440 630 Q356 630 306.5 564 Q257 498 237 358 Z M556 375 Q559 399 559 421 Q559 442 556 458 L246 169 Q261 139 287.5 126.5 Q314 114 355 114 Q440 114 488.5 176 Q537 238 556 375 Z M610 883 Q611 880 611 874 Q611 864 595 860 L355 798 Q352 797 348 797 Q335 797 332 813 L324 848 Q323 852 323 857 Q323 863 328 865 L578 964 Q579 965 582 965 Q586 965 589.5 960.5 Q593 956 595 950 L610 883 Z " />
<glyph glyph-name="Otilde" unicode="&#xd5;" horiz-adv-x="774" d="M355 -10 Q213 -10 134 71.5 Q55 153 55 297 Q55 342 60 377 Q76 492 129.5 577 Q183 662 265.5 707 Q348 752 450 752 Q542 752 609.5 714.5 Q677 677 712.5 606.5 Q748 536 748 440 Q748 393 742 361 Q726 247 673.5 163 Q621 79 539 34.5 Q457 -10 355 -10 Z M360 113 Q445 113 494 175.5 Q543 238 562 375 Q569 428 569 474 Q569 555 539 592.5 Q509 630 446 630 Q361 630 311 564 Q261 498 241 358 Q233 300 233 264 Q233 185 264 149 Q295 113 360 113 Z M642 860 Q591 839 550 839 Q529 839 511 843 Q493 847 471 855 Q467 856 447 862 Q427 868 407 868 Q385 868 369 861 Q353 854 334 840 Q332 839 327 839 Q317 839 314 856 L305 899 Q303 907 303 909 Q303 915 310 926 Q336 941 355.5 948.5 Q375 956 401 956 Q423 956 443 951.5 Q463 947 488 938 Q492 937 511.5 930.5 Q531 924 549 924 Q588 924 624 954 Q626 955 630 955 Q645 955 647 937 L652 886 L652 880 Q652 870 642 860 Z " />
<glyph glyph-name="OE" unicode="&#x152;" horiz-adv-x="1128" d="M1049 128 Q1058 128 1063 122.5 Q1068 117 1067 108 L1054 13 Q1052 5 1049 2.5 Q1046 0 1036 0 L589 0 Q578 0 572 3 L541 39 Q473 -10 363 -10 Q216 -10 135 71.5 Q54 153 54 298 Q54 337 60 377 Q76 493 130 577.5 Q184 662 270 707 Q356 752 467 752 Q576 752 628 700 L663 739 Q668 742 681 742 L1128 742 Q1135 742 1139.5 735 Q1144 728 1142 720 L1129 630 Q1127 620 1123.5 617 Q1120 614 1109 614 L792 614 Q783 614 775.5 608 Q768 602 767 593 L747 449 L747 444 Q747 439 749 437.5 Q751 436 757 436 L965 436 Q974 436 979.5 430 Q985 424 983 416 L969 320 Q968 314 966 312 Q964 310 956 310 L745 310 Q738 310 732 304.5 Q726 299 725 293 L703 136 L702 130 Q702 128 705 128 Q708 128 710 128 L1049 128 Z M360 113 Q445 113 493.5 175.5 Q542 238 561 375 Q569 433 569 472 Q569 554 539 592 Q509 630 446 630 Q361 630 311 564 Q261 498 241 358 Q234 309 234 266 Q234 185 264 149 Q294 113 360 113 Z " />
<glyph glyph-name="P" unicode="P" horiz-adv-x="715" d="M261 284 Q247 284 245 269 L210 19 Q209 7 204 3.5 Q199 0 185 0 L50 0 Q35 0 35 16 Q35 21 36 25 L135 727 Q137 737 139.5 739.5 Q142 742 150 742 L449 742 Q566 742 639.5 690 Q713 638 713 539 Q713 460 674 402.5 Q635 345 567 314.5 Q499 284 412 284 L261 284 Z M535 539 Q535 578 506.5 597.5 Q478 617 428 617 L312 617 Q302 617 297.5 612.5 Q293 608 291 598 L267 424 L266 418 Q266 412 268.5 410.5 Q271 409 277 409 L399 409 Q458 409 496.5 446.5 Q535 484 535 539 Z " />
<glyph glyph-name="Thorn" unicode="&#xde;" horiz-adv-x="723" d="M700 369 Q685 265 605 209.5 Q525 154 403 154 L243 154 Q237 154 232.5 149 Q228 144 227 139 L210 19 Q209 7 204 3.5 Q199 0 185 0 L57 0 Q45 0 39.5 7 Q34 14 36 25 L135 727 Q136 737 139 739.5 Q142 742 150 742 L293 742 Q301 742 305.5 735.5 Q310 729 308 720 L293 605 Q292 602 293 601 Q294 600 297 600 L439 600 Q555 600 629 549.5 Q703 499 703 404 Q703 387 700 369 Z M524 388 Q525 393 525 403 Q525 439 496.5 456.5 Q468 474 417 474 L297 474 Q287 474 280 468 Q273 462 271 452 L248 293 L248 286 Q248 282 250 280.5 Q252 279 258 279 L390 279 Q444 279 480.5 308.5 Q517 338 524 388 Z " />
<glyph glyph-name="Q" unicode="Q" horiz-adv-x="775" d="M60 377 Q76 493 129 577.5 Q182 662 264.5 707 Q347 752 449 752 Q542 752 609.5 714.5 Q677 677 713 607 Q749 537 749 441 Q749 402 743 361 Q717 164 585 63 Q574 55 577 48 Q584 32 612 16.5 Q640 1 674 -3 Q683 -5 685.5 -7.5 Q688 -10 687 -17 L674 -107 Q673 -120 667 -123 Q661 -126 641 -126 Q583 -126 532 -96.5 Q481 -67 447 -6 Q443 1 436 1 L428 -1 Q395 -10 355 -10 Q213 -10 134 71 Q55 152 55 297 Q55 342 60 377 Z M241 359 Q233 298 233 263 Q233 184 264 148.5 Q295 113 360 113 Q445 113 494 176 Q543 239 562 376 Q570 435 570 474 Q570 554 539.5 592 Q509 630 445 630 Q360 630 310 564 Q260 498 241 359 Z " />
<glyph glyph-name="R" unicode="R" horiz-adv-x="722" d="M637 23 Q639 19 639 12 Q639 0 623 0 L476 0 Q467 0 462 4.5 Q457 9 455 21 L386 302 Q384 308 381.5 310 Q379 312 370 312 L264 312 Q257 312 254 309.5 Q251 307 250 300 L210 19 Q209 7 203 3.5 Q197 0 182 0 L55 0 Q32 0 36 25 L135 727 Q137 737 139.5 739.5 Q142 742 150 742 L462 742 Q585 742 652.5 695 Q720 648 720 562 Q720 486 676 424.5 Q632 363 560 338 Q543 332 546 322 L637 23 Z M401 430 Q464 430 501.5 462.5 Q539 495 539 551 Q539 588 513 606.5 Q487 625 441 625 L308 625 Q301 625 298 621.5 Q295 618 293 608 L269 443 L269 440 Q269 430 279 430 L401 430 Z " />
<glyph glyph-name="Racute" unicode="&#x154;" horiz-adv-x="722" d="M637 23 Q639 19 639 12 Q639 0 623 0 L476 0 Q467 0 462 4.5 Q457 9 455 21 L386 302 Q384 308 381.5 310 Q379 312 370 312 L264 312 Q257 312 254 309.5 Q251 307 250 300 L210 19 Q209 7 203 3.5 Q197 0 182 0 L55 0 Q32 0 36 25 L135 727 Q137 737 139.5 739.5 Q142 742 150 742 L462 742 Q585 742 652.5 695 Q720 648 720 562 Q720 486 676 424.5 Q632 363 560 338 Q543 332 546 322 L637 23 Z M401 430 Q464 430 501.5 462.5 Q539 495 539 551 Q539 588 513 606.5 Q487 625 441 625 L308 625 Q301 625 298 621.5 Q295 618 293 608 L269 443 L269 440 Q269 430 279 430 L401 430 Z M579 883 Q580 880 580 874 Q580 864 564 860 L324 798 Q321 797 317 797 Q304 797 301 813 L293 848 Q292 852 292 857 Q292 863 297 865 L547 964 Q548 965 551 965 Q555 965 558.5 960.5 Q562 956 564 950 L579 883 Z " />
<glyph glyph-name="Rcaron" unicode="&#x158;" horiz-adv-x="722" d="M637 23 Q639 19 639 12 Q639 0 623 0 L476 0 Q467 0 462 4.5 Q457 9 455 21 L386 302 Q384 308 381.5 310 Q379 312 370 312 L264 312 Q257 312 254 309.5 Q251 307 250 300 L210 19 Q209 7 203 3.5 Q197 0 182 0 L55 0 Q32 0 36 25 L135 727 Q137 737 139.5 739.5 Q142 742 150 742 L462 742 Q585 742 652.5 695 Q720 648 720 562 Q720 486 676 424.5 Q632 363 560 338 Q543 332 546 322 L637 23 Z M401 430 Q464 430 501.5 462.5 Q539 495 539 551 Q539 588 513 606.5 Q487 625 441 625 L308 625 Q301 625 298 621.5 Q295 618 293 608 L269 443 L269 440 Q269 430 279 430 L401 430 Z M505 950 Q509 954 513 955 Q517 956 521 955.5 Q525 955 528 955 L614 955 Q626 955 626 947 Q626 942 620 936 L496 822 Q485 814 471 814 L398 814 Q379 814 369 830 L274 942 Q268 950 267.5 952.5 Q267 955 274 955 L355 955 Q363 955 367.5 952 Q372 949 376 943 L421 890 Q428 881 432 881 Q435 881 440.5 887 Q446 893 450 897 L505 950 Z " />
<glyph glyph-name="Rcommaaccent" unicode="&#x156;" horiz-adv-x="722" d="M637 23 Q639 19 639 12 Q639 0 623 0 L476 0 Q467 0 462 4.5 Q457 9 455 21 L386 302 Q384 308 381.5 310 Q379 312 370 312 L264 312 Q257 312 254 309.5 Q251 307 250 300 L210 19 Q209 7 203 3.5 Q197 0 182 0 L55 0 Q32 0 36 25 L135 727 Q137 737 139.5 739.5 Q142 742 150 742 L462 742 Q585 742 652.5 695 Q720 648 720 562 Q720 486 676 424.5 Q632 363 560 338 Q543 332 546 322 L637 23 Z M401 430 Q464 430 501.5 462.5 Q539 495 539 551 Q539 588 513 606.5 Q487 625 441 625 L308 625 Q301 625 298 621.5 Q295 618 293 608 L269 443 L269 440 Q269 430 279 430 L401 430 Z M243 -243 Q238 -243 238 -239 Q238 -234 242 -230 L283 -177 Q290 -170 290 -163 Q290 -160 287.5 -158 Q285 -156 281 -156 L258 -156 Q250 -156 248.5 -152.5 Q247 -149 248 -139 L258 -75 Q261 -58 273 -58 L355 -58 Q368 -58 367 -70 L356 -150 Q354 -160 347 -169 L292 -228 Q290 -230 286 -234.5 Q282 -239 277.5 -241 Q273 -243 267 -243 L243 -243 Z " />
<glyph glyph-name="uni0210" unicode="&#x210;" horiz-adv-x="722" d="M637 23 Q639 19 639 12 Q639 0 623 0 L476 0 Q467 0 462 4.5 Q457 9 455 21 L386 302 Q384 308 381.5 310 Q379 312 370 312 L264 312 Q257 312 254 309.5 Q251 307 250 300 L210 19 Q209 7 203 3.5 Q197 0 182 0 L55 0 Q32 0 36 25 L135 727 Q137 737 139.5 739.5 Q142 742 150 742 L462 742 Q585 742 652.5 695 Q720 648 720 562 Q720 486 676 424.5 Q632 363 560 338 Q543 332 546 322 L637 23 Z M401 430 Q464 430 501.5 462.5 Q539 495 539 551 Q539 588 513 606.5 Q487 625 441 625 L308 625 Q301 625 298 621.5 Q295 618 293 608 L269 443 L269 440 Q269 430 279 430 L401 430 Z M263 962 Q266 965 269 965 Q273 965 281 957 L397 831 Q403 827 403 820 Q403 816 398 811 L367 782 Q363 778 358 778 Q354 778 349 781.5 Q344 785 342 787 L217 879 Q206 886 206 896 Q206 903 212 910 L263 962 Z M459 962 Q462 965 465 965 Q471 965 477 957 L593 831 Q599 827 599 820 Q599 816 594 811 L563 782 Q559 778 555 778 Q551 778 546 781.5 Q541 785 539 787 L413 879 Q402 886 402 896 Q402 903 408 910 L459 962 Z " />
<glyph glyph-name="uni1E5A" unicode="&#x1e5a;" horiz-adv-x="722" d="M637 23 Q639 19 639 12 Q639 0 623 0 L476 0 Q467 0 462 4.5 Q457 9 455 21 L386 302 Q384 308 381.5 310 Q379 312 370 312 L264 312 Q257 312 254 309.5 Q251 307 250 300 L210 19 Q209 7 203 3.5 Q197 0 182 0 L55 0 Q32 0 36 25 L135 727 Q137 737 139.5 739.5 Q142 742 150 742 L462 742 Q585 742 652.5 695 Q720 648 720 562 Q720 486 676 424.5 Q632 363 560 338 Q543 332 546 322 L637 23 Z M401 430 Q464 430 501.5 462.5 Q539 495 539 551 Q539 588 513 606.5 Q487 625 441 625 L308 625 Q301 625 298 621.5 Q295 618 293 608 L269 443 L269 440 Q269 430 279 430 L401 430 Z M362 -150 Q361 -160 357.5 -162.5 Q354 -165 343 -165 L260 -165 Q251 -165 246 -159 Q241 -153 242 -144 L255 -57 Q256 -49 257 -47.5 Q258 -46 265 -46 L362 -46 Q368 -46 371.5 -51.5 Q375 -57 374 -64 L362 -150 Z " />
<glyph glyph-name="uni0212" unicode="&#x212;" horiz-adv-x="722" d="M637 23 Q639 19 639 12 Q639 0 623 0 L476 0 Q467 0 462 4.5 Q457 9 455 21 L386 302 Q384 308 381.5 310 Q379 312 370 312 L264 312 Q257 312 254 309.5 Q251 307 250 300 L210 19 Q209 7 203 3.5 Q197 0 182 0 L55 0 Q32 0 36 25 L135 727 Q137 737 139.5 739.5 Q142 742 150 742 L462 742 Q585 742 652.5 695 Q720 648 720 562 Q720 486 676 424.5 Q632 363 560 338 Q543 332 546 322 L637 23 Z M401 430 Q464 430 501.5 462.5 Q539 495 539 551 Q539 588 513 606.5 Q487 625 441 625 L308 625 Q301 625 298 621.5 Q295 618 293 608 L269 443 L269 440 Q269 430 279 430 L401 430 Z M277 821 Q270 821 266.5 825 Q263 829 263 835 Q263 841 266 847 Q291 898 340 926 Q389 954 451 954 Q520 954 565.5 925.5 Q611 897 620 841 L620 836 Q620 821 606 821 L545 821 Q540 821 537 824 Q534 827 531 832 Q528 837 526 841 Q513 858 494.5 868.5 Q476 879 452 879 Q423 879 398 866.5 Q373 854 358 832 Q351 821 337 821 L277 821 Z " />
<glyph glyph-name="S" unicode="S" horiz-adv-x="677" d="M543 574 Q520 598 483 614 Q446 630 396 630 Q334 630 296 604.5 Q258 579 258 536 Q258 490 331 465 L482 413 Q560 387 597 346 Q634 305 634 245 Q634 165 591 107.5 Q548 50 474 20 Q400 -10 307 -10 Q202 -10 129 25.5 Q56 61 20 126 Q16 133 16 140 Q16 147 24 152 L103 200 Q110 205 118 205 Q130 205 140 192 Q166 160 187.5 142.5 Q209 125 240.5 116 Q272 107 322 107 Q385 107 424 130.5 Q463 154 463 204 Q463 229 445 245.5 Q427 262 387 276 L241 325 Q169 349 131.5 395.5 Q94 442 94 502 Q94 576 136 633 Q178 690 248.5 721 Q319 752 403 752 Q489 752 554.5 721.5 Q620 691 656 643 Q664 633 664 628 Q664 623 657 619 L568 560 Q567 559 564 559 Q558 559 543 574 Z " />
<glyph glyph-name="Sacute" unicode="&#x15a;" horiz-adv-x="677" d="M543 574 Q520 598 483 614 Q446 630 396 630 Q334 630 296 604.5 Q258 579 258 536 Q258 490 331 465 L482 413 Q560 387 597 346 Q634 305 634 245 Q634 165 591 107.5 Q548 50 474 20 Q400 -10 307 -10 Q202 -10 129 25.5 Q56 61 20 126 Q16 133 16 140 Q16 147 24 152 L103 200 Q110 205 118 205 Q130 205 140 192 Q166 160 187.5 142.5 Q209 125 240.5 116 Q272 107 322 107 Q385 107 424 130.5 Q463 154 463 204 Q463 229 445 245.5 Q427 262 387 276 L241 325 Q169 349 131.5 395.5 Q94 442 94 502 Q94 576 136 633 Q178 690 248.5 721 Q319 752 403 752 Q489 752 554.5 721.5 Q620 691 656 643 Q664 633 664 628 Q664 623 657 619 L568 560 Q567 559 564 559 Q558 559 543 574 Z M573 883 Q574 880 574 874 Q574 864 558 860 L318 798 Q315 797 311 797 Q298 797 295 813 L287 848 Q286 852 286 857 Q286 863 291 865 L541 964 Q542 965 545 965 Q549 965 552.5 960.5 Q556 956 558 950 L573 883 Z " />
<glyph glyph-name="Scaron" unicode="&#x160;" horiz-adv-x="677" d="M543 574 Q520 598 483 614 Q446 630 396 630 Q334 630 296 604.5 Q258 579 258 536 Q258 490 331 465 L482 413 Q560 387 597 346 Q634 305 634 245 Q634 165 591 107.5 Q548 50 474 20 Q400 -10 307 -10 Q202 -10 129 25.5 Q56 61 20 126 Q16 133 16 140 Q16 147 24 152 L103 200 Q110 205 118 205 Q130 205 140 192 Q166 160 187.5 142.5 Q209 125 240.5 116 Q272 107 322 107 Q385 107 424 130.5 Q463 154 463 204 Q463 229 445 245.5 Q427 262 387 276 L241 325 Q169 349 131.5 395.5 Q94 442 94 502 Q94 576 136 633 Q178 690 248.5 721 Q319 752 403 752 Q489 752 554.5 721.5 Q620 691 656 643 Q664 633 664 628 Q664 623 657 619 L568 560 Q567 559 564 559 Q558 559 543 574 Z M499 950 Q503 954 507 955 Q511 956 515 955.5 Q519 955 522 955 L608 955 Q620 955 620 947 Q620 942 614 936 L490 822 Q479 814 465 814 L392 814 Q373 814 363 830 L268 942 Q262 950 261.5 952.5 Q261 955 268 955 L349 955 Q357 955 361.5 952 Q366 949 370 943 L415 890 Q422 881 426 881 Q429 881 434.5 887 Q440 893 444 897 L499 950 Z " />
<glyph glyph-name="Scedilla" unicode="&#x15e;" horiz-adv-x="677" d="M656 643 Q664 633 664 628 Q664 623 657 619 L568 560 Q567 559 564 559 Q558 559 543 574 Q520 598 483 614 Q446 630 396 630 Q334 630 296 604.5 Q258 579 258 536 Q258 490 331 465 L482 413 Q560 387 597 346 Q634 305 634 245 Q634 170 596 114 Q558 58 491 27 Q424 -4 339 -9 L319 -51 Q318 -54 316 -54 Q363 -55 385.5 -77 Q408 -99 408 -130 Q408 -171 370.5 -195 Q333 -219 279 -219 Q211 -219 171 -191 Q166 -190 163 -186 Q160 -182 161 -178 L181 -143 Q183 -141 183 -141 Q184 -141 185.5 -144 Q187 -147 188 -149 Q228 -165 256 -165 Q284 -165 301 -152.5 Q318 -140 318 -120 Q318 -105 301 -98.5 Q284 -92 242 -92 Q233 -92 229 -88 Q225 -84 227 -78 L270 -9 Q180 -3 116.5 32 Q53 67 20 126 Q16 133 16 140 Q16 147 24 152 L103 200 Q110 205 118 205 Q130 205 140 192 Q166 160 187.5 142.5 Q209 125 240.5 116 Q272 107 322 107 Q385 107 424 130.5 Q463 154 463 204 Q463 229 445 245.5 Q427 262 387 276 L241 325 Q169 349 131.5 395.5 Q94 442 94 502 Q94 576 136 633 Q178 690 248.5 721 Q319 752 403 752 Q489 752 554.5 721.5 Q620 691 656 643 Z " />
<glyph glyph-name="Scircumflex" unicode="&#x15c;" horiz-adv-x="677" d="M543 574 Q520 598 483 614 Q446 630 396 630 Q334 630 296 604.5 Q258 579 258 536 Q258 490 331 465 L482 413 Q560 387 597 346 Q634 305 634 245 Q634 165 591 107.5 Q548 50 474 20 Q400 -10 307 -10 Q202 -10 129 25.5 Q56 61 20 126 Q16 133 16 140 Q16 147 24 152 L103 200 Q110 205 118 205 Q130 205 140 192 Q166 160 187.5 142.5 Q209 125 240.5 116 Q272 107 322 107 Q385 107 424 130.5 Q463 154 463 204 Q463 229 445 245.5 Q427 262 387 276 L241 325 Q169 349 131.5 395.5 Q94 442 94 502 Q94 576 136 633 Q178 690 248.5 721 Q319 752 403 752 Q489 752 554.5 721.5 Q620 691 656 643 Q664 633 664 628 Q664 623 657 619 L568 560 Q567 559 564 559 Q558 559 543 574 Z M447 885 Q441 894 436 894 Q433 894 428.5 889.5 Q424 885 418 878 L359 826 Q354 822 350.5 821 Q347 820 343.5 820.5 Q340 821 336 821 L255 821 Q250 821 247 823.5 Q244 826 244 830 Q244 834 249 841 L374 952 Q381 958 388 960 Q395 962 407 962 L480 962 Q490 962 495.5 955 Q501 948 502 947 L594 834 Q597 831 600.5 827 Q604 823 603 822 Q602 821 596 821 L509 821 Q495 821 486 833 L447 885 Z " />
<glyph glyph-name="Scommaaccent" unicode="&#x218;" horiz-adv-x="677" d="M543 574 Q520 598 483 614 Q446 630 396 630 Q334 630 296 604.5 Q258 579 258 536 Q258 490 331 465 L482 413 Q560 387 597 346 Q634 305 634 245 Q634 165 591 107.5 Q548 50 474 20 Q400 -10 307 -10 Q202 -10 129 25.5 Q56 61 20 126 Q16 133 16 140 Q16 147 24 152 L103 200 Q110 205 118 205 Q130 205 140 192 Q166 160 187.5 142.5 Q209 125 240.5 116 Q272 107 322 107 Q385 107 424 130.5 Q463 154 463 204 Q463 229 445 245.5 Q427 262 387 276 L241 325 Q169 349 131.5 395.5 Q94 442 94 502 Q94 576 136 633 Q178 690 248.5 721 Q319 752 403 752 Q489 752 554.5 721.5 Q620 691 656 643 Q664 633 664 628 Q664 623 657 619 L568 560 Q567 559 564 559 Q558 559 543 574 Z M229 -243 Q224 -243 224 -239 Q224 -234 228 -230 L269 -177 Q276 -170 276 -163 Q276 -160 273.5 -158 Q271 -156 267 -156 L244 -156 Q236 -156 234.5 -152.5 Q233 -149 234 -139 L244 -75 Q247 -58 259 -58 L341 -58 Q354 -58 353 -70 L342 -150 Q340 -160 333 -169 L278 -228 Q276 -230 272 -234.5 Q268 -239 263.5 -241 Q259 -243 253 -243 L229 -243 Z " />
<glyph glyph-name="uni1E62" unicode="&#x1e62;" horiz-adv-x="677" d="M543 574 Q520 598 483 614 Q446 630 396 630 Q334 630 296 604.5 Q258 579 258 536 Q258 490 331 465 L482 413 Q560 387 597 346 Q634 305 634 245 Q634 165 591 107.5 Q548 50 474 20 Q400 -10 307 -10 Q202 -10 129 25.5 Q56 61 20 126 Q16 133 16 140 Q16 147 24 152 L103 200 Q110 205 118 205 Q130 205 140 192 Q166 160 187.5 142.5 Q209 125 240.5 116 Q272 107 322 107 Q385 107 424 130.5 Q463 154 463 204 Q463 229 445 245.5 Q427 262 387 276 L241 325 Q169 349 131.5 395.5 Q94 442 94 502 Q94 576 136 633 Q178 690 248.5 721 Q319 752 403 752 Q489 752 554.5 721.5 Q620 691 656 643 Q664 633 664 628 Q664 623 657 619 L568 560 Q567 559 564 559 Q558 559 543 574 Z M348 -150 Q347 -160 343.5 -162.5 Q340 -165 329 -165 L246 -165 Q237 -165 232 -159 Q227 -153 228 -144 L241 -57 Q242 -49 243 -47.5 Q244 -46 251 -46 L348 -46 Q354 -46 357.5 -51.5 Q361 -57 360 -64 L348 -150 Z " />
<glyph glyph-name="uni018F" unicode="&#x18f;" horiz-adv-x="772" d="M566 438 Q569 459 569 484 Q569 616 442 616 Q393 616 357.5 595 Q322 574 302 549.5 Q282 525 245 470 L244 470 Q242 470 236.5 473 Q231 476 226 479 L123 531 Q115 534 115 545 Q115 552 118 562 Q245 752 447 752 Q546 752 613.5 711.5 Q681 671 714 600.5 Q747 530 747 441 Q747 410 742 368 Q728 264 672.5 177.5 Q617 91 533 40.5 Q449 -10 351 -10 Q202 -10 128.5 71 Q55 152 55 299 Q55 348 62 394 Q63 397 64 402.5 Q65 408 68 410 Q71 412 80 412 L543 412 Q551 412 557.5 419 Q564 426 566 438 Z M259 300 Q238 300 234 277 Q232 255 232 245 Q232 187 261.5 150.5 Q291 114 354 114 Q436 114 480.5 164 Q525 214 545 304 L259 300 Z " />
<glyph glyph-name="T" unicode="T" horiz-adv-x="681" d="M99 728 Q100 736 103.5 739 Q107 742 117 742 L699 742 Q709 742 711.5 739 Q714 736 712 728 L698 627 Q697 620 693 618 Q689 616 681 616 L494 616 Q485 616 482 613 Q479 610 478 602 L395 16 Q394 7 390.5 3.5 Q387 0 379 0 L237 0 Q226 0 222.5 5 Q219 10 221 22 L303 604 L303 607 Q303 616 293 616 L99 616 Q90 616 87 619 Q84 622 85 629 L99 728 Z " />
<glyph glyph-name="Tbar" unicode="&#x166;" horiz-adv-x="681" d="M699 742 Q709 742 711.5 739 Q714 736 712 728 L698 627 Q697 620 693 618 Q689 616 681 616 L494 616 Q485 616 482 613 Q479 610 478 602 L452 416 L556 416 Q563 416 568 409.5 Q573 403 571 395 L561 322 Q560 310 554.5 307 Q549 304 534 304 L436 304 L395 16 Q394 7 390.5 3.5 Q387 0 379 0 L237 0 Q226 0 222.5 5 Q219 10 221 22 L261 304 L166 304 Q154 304 148.5 311 Q143 318 145 329 L155 402 Q157 411 159.5 413.5 Q162 416 169 416 L277 416 L303 604 L303 607 Q303 616 293 616 L99 616 Q90 616 87 619 Q84 622 85 629 L99 728 Q100 736 103.5 739 Q107 742 117 742 L699 742 Z " />
<glyph glyph-name="Tcaron" unicode="&#x164;" horiz-adv-x="681" d="M99 728 Q100 736 103.5 739 Q107 742 117 742 L699 742 Q709 742 711.5 739 Q714 736 712 728 L698 627 Q697 620 693 618 Q689 616 681 616 L494 616 Q485 616 482 613 Q479 610 478 602 L395 16 Q394 7 390.5 3.5 Q387 0 379 0 L237 0 Q226 0 222.5 5 Q219 10 221 22 L303 604 L303 607 Q303 616 293 616 L99 616 Q90 616 87 619 Q84 622 85 629 L99 728 Z M498 950 Q502 954 506 955 Q510 956 514 955.5 Q518 955 521 955 L607 955 Q619 955 619 947 Q619 942 613 936 L489 822 Q478 814 464 814 L391 814 Q372 814 362 830 L267 942 Q261 950 260.5 952.5 Q260 955 267 955 L348 955 Q356 955 360.5 952 Q365 949 369 943 L414 890 Q421 881 425 881 Q428 881 433.5 887 Q439 893 443 897 L498 950 Z " />
<glyph glyph-name="uni0162" unicode="&#x162;" horiz-adv-x="681" d="M699 742 Q709 742 711.5 739 Q714 736 712 728 L698 627 Q697 620 693 618 Q689 616 681 616 L494 616 Q485 616 482 613 Q479 610 478 602 L395 16 Q394 7 390.5 3.5 Q387 0 379 0 L342 0 L317 -51 Q316 -54 314 -54 Q361 -55 383.5 -77 Q406 -99 406 -130 Q406 -171 368.5 -195 Q331 -219 277 -219 Q209 -219 169 -191 Q164 -190 161 -186 Q158 -182 159 -178 L179 -143 Q181 -141 181 -141 Q182 -141 183.5 -144 Q185 -147 186 -149 Q226 -165 254 -165 Q282 -165 299 -152.5 Q316 -140 316 -120 Q316 -105 299 -98.5 Q282 -92 240 -92 Q231 -92 227 -88 Q223 -84 225 -78 L273 0 L237 0 Q226 0 222.5 5 Q219 10 221 22 L303 604 L303 607 Q303 616 293 616 L99 616 Q90 616 87 619 Q84 622 85 629 L99 728 Q100 736 103.5 739 Q107 742 117 742 L699 742 Z " />
<glyph glyph-name="uni021A" unicode="&#x21a;" horiz-adv-x="681" d="M99 728 Q100 736 103.5 739 Q107 742 117 742 L699 742 Q709 742 711.5 739 Q714 736 712 728 L698 627 Q697 620 693 618 Q689 616 681 616 L494 616 Q485 616 482 613 Q479 610 478 602 L395 16 Q394 7 390.5 3.5 Q387 0 379 0 L237 0 Q226 0 222.5 5 Q219 10 221 22 L303 604 L303 607 Q303 616 293 616 L99 616 Q90 616 87 619 Q84 622 85 629 L99 728 Z M227 -243 Q222 -243 222 -239 Q222 -234 226 -230 L267 -177 Q274 -170 274 -163 Q274 -160 271.5 -158 Q269 -156 265 -156 L242 -156 Q234 -156 232.5 -152.5 Q231 -149 232 -139 L242 -75 Q245 -58 257 -58 L339 -58 Q352 -58 351 -70 L340 -150 Q338 -160 331 -169 L276 -228 Q274 -230 270 -234.5 Q266 -239 261.5 -241 Q257 -243 251 -243 L227 -243 Z " />
<glyph glyph-name="uni1E6C" unicode="&#x1e6c;" horiz-adv-x="681" d="M99 728 Q100 736 103.5 739 Q107 742 117 742 L699 742 Q709 742 711.5 739 Q714 736 712 728 L698 627 Q697 620 693 618 Q689 616 681 616 L494 616 Q485 616 482 613 Q479 610 478 602 L395 16 Q394 7 390.5 3.5 Q387 0 379 0 L237 0 Q226 0 222.5 5 Q219 10 221 22 L303 604 L303 607 Q303 616 293 616 L99 616 Q90 616 87 619 Q84 622 85 629 L99 728 Z M346 -150 Q345 -160 341.5 -162.5 Q338 -165 327 -165 L244 -165 Q235 -165 230 -159 Q225 -153 226 -144 L239 -57 Q240 -49 241 -47.5 Q242 -46 249 -46 L346 -46 Q352 -46 355.5 -51.5 Q359 -57 358 -64 L346 -150 Z " />
<glyph glyph-name="U" unicode="U" horiz-adv-x="721" d="M660 270 Q639 119 555 54.5 Q471 -10 328 -10 Q188 -10 124 47.5 Q60 105 60 219 Q60 256 66 298 L127 727 Q128 736 130.5 739 Q133 742 141 742 L284 742 Q292 742 297 735 Q302 728 300 720 L237 266 Q233 234 233 223 Q233 167 261.5 141 Q290 115 346 115 Q415 115 460 154.5 Q505 194 517 278 L580 728 Q582 737 584.5 739.5 Q587 742 594 742 L708 742 Q715 742 720 735 Q725 728 723 720 L660 270 Z " />
<glyph glyph-name="Uacute" unicode="&#xda;" horiz-adv-x="721" d="M660 270 Q639 119 555 54.5 Q471 -10 328 -10 Q188 -10 124 47.5 Q60 105 60 219 Q60 256 66 298 L127 727 Q128 736 130.5 739 Q133 742 141 742 L284 742 Q292 742 297 735 Q302 728 300 720 L237 266 Q233 234 233 223 Q233 167 261.5 141 Q290 115 346 115 Q415 115 460 154.5 Q505 194 517 278 L580 728 Q582 737 584.5 739.5 Q587 742 594 742 L708 742 Q715 742 720 735 Q725 728 723 720 L660 270 Z M602 883 Q603 880 603 874 Q603 864 587 860 L347 798 Q344 797 340 797 Q327 797 324 813 L316 848 Q315 852 315 857 Q315 863 320 865 L570 964 Q571 965 574 965 Q578 965 581.5 960.5 Q585 956 587 950 L602 883 Z " />
<glyph glyph-name="Ubreve" unicode="&#x16c;" horiz-adv-x="721" d="M660 270 Q639 119 555 54.5 Q471 -10 328 -10 Q188 -10 124 47.5 Q60 105 60 219 Q60 256 66 298 L127 727 Q128 736 130.5 739 Q133 742 141 742 L284 742 Q292 742 297 735 Q302 728 300 720 L237 266 Q233 234 233 223 Q233 167 261.5 141 Q290 115 346 115 Q415 115 460 154.5 Q505 194 517 278 L580 728 Q582 737 584.5 739.5 Q587 742 594 742 L708 742 Q715 742 720 735 Q725 728 723 720 L660 270 Z M638 954 Q644 954 647.5 950 Q651 946 651 940 Q651 935 648 929 Q623 878 572.5 849.5 Q522 821 459 821 Q315 821 295 934 L294 941 Q294 954 309 954 L369 954 Q374 954 377 951.5 Q380 949 383 943.5 Q386 938 389 934 Q400 918 419 907.5 Q438 897 463 897 Q491 897 516 909.5 Q541 922 557 944 Q564 954 577 954 L638 954 Z " />
<glyph glyph-name="Ucircumflex" unicode="&#xdb;" horiz-adv-x="721" d="M660 270 Q639 119 555 54.5 Q471 -10 328 -10 Q188 -10 124 47.5 Q60 105 60 219 Q60 256 66 298 L127 727 Q128 736 130.5 739 Q133 742 141 742 L284 742 Q292 742 297 735 Q302 728 300 720 L237 266 Q233 234 233 223 Q233 167 261.5 141 Q290 115 346 115 Q415 115 460 154.5 Q505 194 517 278 L580 728 Q582 737 584.5 739.5 Q587 742 594 742 L708 742 Q715 742 720 735 Q725 728 723 720 L660 270 Z M476 885 Q470 894 465 894 Q462 894 457.5 889.5 Q453 885 447 878 L388 826 Q383 822 379.5 821 Q376 820 372.5 820.5 Q369 821 365 821 L284 821 Q279 821 276 823.5 Q273 826 273 830 Q273 834 278 841 L403 952 Q410 958 417 960 Q424 962 436 962 L509 962 Q519 962 524.5 955 Q530 948 531 947 L623 834 Q626 831 629.5 827 Q633 823 632 822 Q631 821 625 821 L538 821 Q524 821 515 833 L476 885 Z " />
<glyph glyph-name="uni0214" unicode="&#x214;" horiz-adv-x="721" d="M660 270 Q639 119 555 54.5 Q471 -10 328 -10 Q188 -10 124 47.5 Q60 105 60 219 Q60 256 66 298 L127 727 Q128 736 130.5 739 Q133 742 141 742 L284 742 Q292 742 297 735 Q302 728 300 720 L237 266 Q233 234 233 223 Q233 167 261.5 141 Q290 115 346 115 Q415 115 460 154.5 Q505 194 517 278 L580 728 Q582 737 584.5 739.5 Q587 742 594 742 L708 742 Q715 742 720 735 Q725 728 723 720 L660 270 Z M286 962 Q289 965 292 965 Q296 965 304 957 L420 831 Q426 827 426 820 Q426 816 421 811 L390 782 Q386 778 381 778 Q377 778 372 781.5 Q367 785 365 787 L240 879 Q229 886 229 896 Q229 903 235 910 L286 962 Z M482 962 Q485 965 488 965 Q494 965 500 957 L616 831 Q622 827 622 820 Q622 816 617 811 L586 782 Q582 778 578 778 Q574 778 569 781.5 Q564 785 562 787 L436 879 Q425 886 425 896 Q425 903 431 910 L482 962 Z " />
<glyph glyph-name="Udieresis" unicode="&#xdc;" horiz-adv-x="721" d="M660 270 Q639 119 555 54.5 Q471 -10 328 -10 Q188 -10 124 47.5 Q60 105 60 219 Q60 256 66 298 L127 727 Q128 736 130.5 739 Q133 742 141 742 L284 742 Q292 742 297 735 Q302 728 300 720 L237 266 Q233 234 233 223 Q233 167 261.5 141 Q290 115 346 115 Q415 115 460 154.5 Q505 194 517 278 L580 728 Q582 737 584.5 739.5 Q587 742 594 742 L708 742 Q715 742 720 735 Q725 728 723 720 L660 270 Z M421 840 Q420 829 415.5 826.5 Q411 824 398 824 L305 824 Q294 824 289 830.5 Q284 837 286 847 L299 941 Q300 950 302.5 952 Q305 954 312 954 L420 954 Q427 954 431.5 948 Q436 942 435 934 L421 840 Z M624 840 Q623 829 618.5 826.5 Q614 824 601 824 L508 824 Q497 824 492 830.5 Q487 837 489 847 L502 941 Q503 950 505.5 952 Q508 954 515 954 L623 954 Q630 954 634.5 947.5 Q639 941 637 934 L624 840 Z " />
<glyph glyph-name="uni1EE4" unicode="&#x1ee4;" horiz-adv-x="721" d="M660 270 Q639 119 555 54.5 Q471 -10 328 -10 Q188 -10 124 47.5 Q60 105 60 219 Q60 256 66 298 L127 727 Q128 736 130.5 739 Q133 742 141 742 L284 742 Q292 742 297 735 Q302 728 300 720 L237 266 Q233 234 233 223 Q233 167 261.5 141 Q290 115 346 115 Q415 115 460 154.5 Q505 194 517 278 L580 728 Q582 737 584.5 739.5 Q587 742 594 742 L708 742 Q715 742 720 735 Q725 728 723 720 L660 270 Z M329 -150 Q328 -160 324.5 -162.5 Q321 -165 310 -165 L227 -165 Q218 -165 213 -159 Q208 -153 209 -144 L222 -57 Q223 -49 224 -47.5 Q225 -46 232 -46 L329 -46 Q335 -46 338.5 -51.5 Q342 -57 341 -64 L329 -150 Z " />
<glyph glyph-name="Ugrave" unicode="&#xd9;" horiz-adv-x="721" d="M660 270 Q639 119 555 54.5 Q471 -10 328 -10 Q188 -10 124 47.5 Q60 105 60 219 Q60 256 66 298 L127 727 Q128 736 130.5 739 Q133 742 141 742 L284 742 Q292 742 297 735 Q302 728 300 720 L237 266 Q233 234 233 223 Q233 167 261.5 141 Q290 115 346 115 Q415 115 460 154.5 Q505 194 517 278 L580 728 Q582 737 584.5 739.5 Q587 742 594 742 L708 742 Q715 742 720 735 Q725 728 723 720 L660 270 Z M348 957 Q353 968 363 962 L585 863 Q591 860 593.5 853.5 Q596 847 593 840 L576 805 Q572 797 566 797 Q565 797 553 799 L331 861 Q312 867 312 882 Q312 885 314 891 L348 957 Z " />
<glyph glyph-name="Uhungarumlaut" unicode="&#x170;" horiz-adv-x="721" d="M660 270 Q639 119 555 54.5 Q471 -10 328 -10 Q188 -10 124 47.5 Q60 105 60 219 Q60 256 66 298 L127 727 Q128 736 130.5 739 Q133 742 141 742 L284 742 Q292 742 297 735 Q302 728 300 720 L237 266 Q233 234 233 223 Q233 167 261.5 141 Q290 115 346 115 Q415 115 460 154.5 Q505 194 517 278 L580 728 Q582 737 584.5 739.5 Q587 742 594 742 L708 742 Q715 742 720 735 Q725 728 723 720 L660 270 Z M473 903 Q480 894 480 887 Q480 880 470 874 L319 782 Q309 778 307 778 Q299 778 294 788 L272 817 Q259 831 266 838 L418 963 Q420 965 424 965 Q431 965 437 955 L473 903 Z M670 903 Q676 893 676 887 Q676 879 667 874 L516 782 Q506 778 504 778 Q496 778 491 788 L468 817 Q455 832 463 838 L615 963 Q617 965 621 965 Q628 965 634 955 L670 903 Z " />
<glyph glyph-name="uni0216" unicode="&#x216;" horiz-adv-x="721" d="M660 270 Q639 119 555 54.5 Q471 -10 328 -10 Q188 -10 124 47.5 Q60 105 60 219 Q60 256 66 298 L127 727 Q128 736 130.5 739 Q133 742 141 742 L284 742 Q292 742 297 735 Q302 728 300 720 L237 266 Q233 234 233 223 Q233 167 261.5 141 Q290 115 346 115 Q415 115 460 154.5 Q505 194 517 278 L580 728 Q582 737 584.5 739.5 Q587 742 594 742 L708 742 Q715 742 720 735 Q725 728 723 720 L660 270 Z M300 821 Q293 821 289.5 825 Q286 829 286 835 Q286 841 289 847 Q314 898 363 926 Q412 954 474 954 Q543 954 588.5 925.5 Q634 897 643 841 L643 836 Q643 821 629 821 L568 821 Q563 821 560 824 Q557 827 554 832 Q551 837 549 841 Q536 858 517.5 868.5 Q499 879 475 879 Q446 879 421 866.5 Q396 854 381 832 Q374 821 360 821 L300 821 Z " />
<glyph glyph-name="Umacron" unicode="&#x16a;" horiz-adv-x="721" d="M660 270 Q639 119 555 54.5 Q471 -10 328 -10 Q188 -10 124 47.5 Q60 105 60 219 Q60 256 66 298 L127 727 Q128 736 130.5 739 Q133 742 141 742 L284 742 Q292 742 297 735 Q302 728 300 720 L237 266 Q233 234 233 223 Q233 167 261.5 141 Q290 115 346 115 Q415 115 460 154.5 Q505 194 517 278 L580 728 Q582 737 584.5 739.5 Q587 742 594 742 L708 742 Q715 742 720 735 Q725 728 723 720 L660 270 Z M641 865 Q640 855 635.5 852.5 Q631 850 618 850 L294 850 Q285 850 280 856.5 Q275 863 277 872 L285 937 Q286 944 288.5 946 Q291 948 297 948 L636 948 Q642 948 646.5 942 Q651 936 650 929 L641 865 Z " />
<glyph glyph-name="Uogonek" unicode="&#x172;" horiz-adv-x="721" d="M708 742 Q715 742 720 735 Q725 728 723 720 L660 270 Q644 153 589.5 88.5 Q535 24 444 2 Q385 -18 360.5 -37.5 Q336 -57 336 -83 Q336 -106 365 -106 Q387 -106 406 -98.5 Q425 -91 429 -89 Q433 -87 436 -87 Q440 -87 442 -91 Q444 -95 443 -101 L437 -143 Q435 -159 426 -160 Q381 -173 330 -173 Q279 -173 251 -152.5 Q223 -132 223 -94 Q223 -67 236.5 -47 Q250 -27 289 -9 Q170 -1 115 56 Q60 113 60 219 Q60 256 66 298 L127 727 Q128 736 130.5 739 Q133 742 141 742 L284 742 Q292 742 297 735 Q302 728 300 720 L237 266 Q233 234 233 223 Q233 167 261.5 141 Q290 115 346 115 Q415 115 460 154.5 Q505 194 517 278 L580 728 Q582 737 584.5 739.5 Q587 742 594 742 L708 742 Z " />
<glyph glyph-name="Uring" unicode="&#x16e;" horiz-adv-x="721" d="M660 270 Q639 119 555 54.5 Q471 -10 328 -10 Q188 -10 124 47.5 Q60 105 60 219 Q60 256 66 298 L127 727 Q128 736 130.5 739 Q133 742 141 742 L284 742 Q292 742 297 735 Q302 728 300 720 L237 266 Q233 234 233 223 Q233 167 261.5 141 Q290 115 346 115 Q415 115 460 154.5 Q505 194 517 278 L580 728 Q582 737 584.5 739.5 Q587 742 594 742 L708 742 Q715 742 720 735 Q725 728 723 720 L660 270 Z M560 852 Q560 819 543.5 791.5 Q527 764 499 748 Q471 732 439 732 Q394 732 365.5 761.5 Q337 791 337 836 Q337 849 338 855 Q343 897 378 925.5 Q413 954 457 954 Q502 954 531 925 Q560 896 560 852 Z M500 859 Q500 875 489 884.5 Q478 894 461 894 Q437 894 417.5 876.5 Q398 859 394 835 Q392 817 403.5 804 Q415 791 433 791 Q459 791 479.5 812 Q500 833 500 859 Z " />
<glyph glyph-name="Utilde" unicode="&#x168;" horiz-adv-x="721" d="M660 270 Q639 119 555 54.5 Q471 -10 328 -10 Q188 -10 124 47.5 Q60 105 60 219 Q60 256 66 298 L127 727 Q128 736 130.5 739 Q133 742 141 742 L284 742 Q292 742 297 735 Q302 728 300 720 L237 266 Q233 234 233 223 Q233 167 261.5 141 Q290 115 346 115 Q415 115 460 154.5 Q505 194 517 278 L580 728 Q582 737 584.5 739.5 Q587 742 594 742 L708 742 Q715 742 720 735 Q725 728 723 720 L660 270 Z M629 860 Q578 839 537 839 Q516 839 498 843 Q480 847 458 855 Q454 856 434 862 Q414 868 394 868 Q372 868 356 861 Q340 854 321 840 Q319 839 314 839 Q304 839 301 856 L292 899 Q290 907 290 909 Q290 915 297 926 Q323 941 342.5 948.5 Q362 956 388 956 Q410 956 430 951.5 Q450 947 475 938 Q479 937 498.5 930.5 Q518 924 536 924 Q575 924 611 954 Q613 955 617 955 Q632 955 634 937 L639 886 L639 880 Q639 870 629 860 Z " />
<glyph glyph-name="V" unicode="V" horiz-adv-x="733" d="M757 742 Q771 742 771 731 Q771 727 768 721 L426 17 Q421 7 414.5 3.5 Q408 0 395 0 L270 0 Q256 0 249.5 3.5 Q243 7 242 17 L99 722 Q98 725 98 729 Q98 742 113 742 L260 742 Q268 742 271.5 737.5 Q275 733 277 721 L370 220 Q372 211 374 211 Q378 211 381 219 L614 729 Q618 737 622.5 739.5 Q627 742 635 742 L757 742 Z " />
<glyph glyph-name="W" unicode="W" horiz-adv-x="1084" d="M1102 742 Q1120 742 1120 730 Q1120 725 1113 707 L811 17 Q806 7 800 3.5 Q794 0 781 0 L673 0 Q660 0 653 4 Q646 8 645 18 L578 459 Q578 466 574 466 Q571 466 568 459 L377 17 Q372 7 366 3.5 Q360 0 347 0 L234 0 Q221 0 215 4.5 Q209 9 207 20 L99 714 Q98 717 98 723 Q98 733 103 737.5 Q108 742 121 742 L248 742 Q260 742 265 736.5 Q270 731 272 721 L337 269 Q339 259 342 259 Q346 259 349 269 L544 729 Q548 737 553 739.5 Q558 742 571 742 L681 742 Q693 742 696.5 737 Q700 732 702 721 L769 263 Q769 256 774 256 Q778 256 781 265 L974 729 Q977 737 982 739.5 Q987 742 1000 742 L1102 742 Z " />
<glyph glyph-name="Wacute" unicode="&#x1e82;" horiz-adv-x="1084" d="M1102 742 Q1120 742 1120 730 Q1120 725 1113 707 L811 17 Q806 7 800 3.5 Q794 0 781 0 L673 0 Q660 0 653 4 Q646 8 645 18 L578 459 Q578 466 574 466 Q571 466 568 459 L377 17 Q372 7 366 3.5 Q360 0 347 0 L234 0 Q221 0 215 4.5 Q209 9 207 20 L99 714 Q98 717 98 723 Q98 733 103 737.5 Q108 742 121 742 L248 742 Q260 742 265 736.5 Q270 731 272 721 L337 269 Q339 259 342 259 Q346 259 349 269 L544 729 Q548 737 553 739.5 Q558 742 571 742 L681 742 Q693 742 696.5 737 Q700 732 702 721 L769 263 Q769 256 774 256 Q778 256 781 265 L974 729 Q977 737 982 739.5 Q987 742 1000 742 L1102 742 Z M772 883 Q773 880 773 874 Q773 864 757 860 L517 798 Q514 797 510 797 Q497 797 494 813 L486 848 Q485 852 485 857 Q485 863 490 865 L740 964 Q741 965 744 965 Q748 965 751.5 960.5 Q755 956 757 950 L772 883 Z " />
<glyph glyph-name="Wcircumflex" unicode="&#x174;" horiz-adv-x="1084" d="M1102 742 Q1120 742 1120 730 Q1120 725 1113 707 L811 17 Q806 7 800 3.5 Q794 0 781 0 L673 0 Q660 0 653 4 Q646 8 645 18 L578 459 Q578 466 574 466 Q571 466 568 459 L377 17 Q372 7 366 3.5 Q360 0 347 0 L234 0 Q221 0 215 4.5 Q209 9 207 20 L99 714 Q98 717 98 723 Q98 733 103 737.5 Q108 742 121 742 L248 742 Q260 742 265 736.5 Q270 731 272 721 L337 269 Q339 259 342 259 Q346 259 349 269 L544 729 Q548 737 553 739.5 Q558 742 571 742 L681 742 Q693 742 696.5 737 Q700 732 702 721 L769 263 Q769 256 774 256 Q778 256 781 265 L974 729 Q977 737 982 739.5 Q987 742 1000 742 L1102 742 Z M646 885 Q640 894 635 894 Q632 894 627.5 889.5 Q623 885 617 878 L558 826 Q553 822 549.5 821 Q546 820 542.5 820.5 Q539 821 535 821 L454 821 Q449 821 446 823.5 Q443 826 443 830 Q443 834 448 841 L573 952 Q580 958 587 960 Q594 962 606 962 L679 962 Q689 962 694.5 955 Q700 948 701 947 L793 834 Q796 831 799.5 827 Q803 823 802 822 Q801 821 795 821 L708 821 Q694 821 685 833 L646 885 Z " />
<glyph glyph-name="Wdieresis" unicode="&#x1e84;" horiz-adv-x="1084" d="M1102 742 Q1120 742 1120 730 Q1120 725 1113 707 L811 17 Q806 7 800 3.5 Q794 0 781 0 L673 0 Q660 0 653 4 Q646 8 645 18 L578 459 Q578 466 574 466 Q571 466 568 459 L377 17 Q372 7 366 3.5 Q360 0 347 0 L234 0 Q221 0 215 4.5 Q209 9 207 20 L99 714 Q98 717 98 723 Q98 733 103 737.5 Q108 742 121 742 L248 742 Q260 742 265 736.5 Q270 731 272 721 L337 269 Q339 259 342 259 Q346 259 349 269 L544 729 Q548 737 553 739.5 Q558 742 571 742 L681 742 Q693 742 696.5 737 Q700 732 702 721 L769 263 Q769 256 774 256 Q778 256 781 265 L974 729 Q977 737 982 739.5 Q987 742 1000 742 L1102 742 Z M591 840 Q590 829 585.5 826.5 Q581 824 568 824 L475 824 Q464 824 459 830.5 Q454 837 456 847 L469 941 Q470 950 472.5 952 Q475 954 482 954 L590 954 Q597 954 601.5 948 Q606 942 605 934 L591 840 Z M794 840 Q793 829 788.5 826.5 Q784 824 771 824 L678 824 Q667 824 662 830.5 Q657 837 659 847 L672 941 Q673 950 675.5 952 Q678 954 685 954 L793 954 Q800 954 804.5 947.5 Q809 941 807 934 L794 840 Z " />
<glyph glyph-name="Wgrave" unicode="&#x1e80;" horiz-adv-x="1084" d="M1102 742 Q1120 742 1120 730 Q1120 725 1113 707 L811 17 Q806 7 800 3.5 Q794 0 781 0 L673 0 Q660 0 653 4 Q646 8 645 18 L578 459 Q578 466 574 466 Q571 466 568 459 L377 17 Q372 7 366 3.5 Q360 0 347 0 L234 0 Q221 0 215 4.5 Q209 9 207 20 L99 714 Q98 717 98 723 Q98 733 103 737.5 Q108 742 121 742 L248 742 Q260 742 265 736.5 Q270 731 272 721 L337 269 Q339 259 342 259 Q346 259 349 269 L544 729 Q548 737 553 739.5 Q558 742 571 742 L681 742 Q693 742 696.5 737 Q700 732 702 721 L769 263 Q769 256 774 256 Q778 256 781 265 L974 729 Q977 737 982 739.5 Q987 742 1000 742 L1102 742 Z M518 957 Q523 968 533 962 L755 863 Q761 860 763.5 853.5 Q766 847 763 840 L746 805 Q742 797 736 797 Q735 797 723 799 L501 861 Q482 867 482 882 Q482 885 484 891 L518 957 Z " />
<glyph glyph-name="X" unicode="X" horiz-adv-x="729" d="M653 35 Q662 19 662 11 Q662 5 657 2.5 Q652 0 642 0 L503 0 Q491 0 484.5 3 Q478 6 474 15 L363 246 Q358 256 353 256 Q350 256 342 245 L164 12 Q159 4 152.5 2 Q146 0 131 0 L14 0 Q-6 0 -6 13 Q-6 22 9 43 L265 364 Q276 376 276 385 Q276 392 274 396 L107 722 Q104 727 104 732 Q104 742 119 742 L265 742 Q278 742 283 739 Q288 736 293 726 L390 522 Q393 514 397 514 Q401 514 407 522 L565 730 Q571 738 576.5 740 Q582 742 595 742 L724 742 Q736 742 736 731 Q736 723 730 713 L482 405 Q472 392 472 387 Q472 383 475 377 L653 35 Z " />
<glyph glyph-name="Y" unicode="Y" horiz-adv-x="735" d="M759 742 Q766 742 769.5 739 Q773 736 773 731 Q773 727 769 721 L477 333 Q470 323 466.5 313 Q463 303 460 279 L423 20 Q422 7 416.5 3.5 Q411 0 396 0 L264 0 Q253 0 249.5 4.5 Q246 9 248 21 L287 295 Q288 300 288 308 Q288 316 283 331 L100 722 Q97 730 97 734 Q97 742 113 742 L263 742 Q274 742 279.5 737 Q285 732 290 721 L402 460 Q405 453 408 453 Q412 453 416 460 L605 728 Q612 738 616.5 740 Q621 742 633 742 L759 742 Z " />
<glyph glyph-name="Yacute" unicode="&#xdd;" horiz-adv-x="735" d="M759 742 Q766 742 769.5 739 Q773 736 773 731 Q773 727 769 721 L477 333 Q470 323 466.5 313 Q463 303 460 279 L423 20 Q422 7 416.5 3.5 Q411 0 396 0 L264 0 Q253 0 249.5 4.5 Q246 9 248 21 L287 295 Q288 300 288 308 Q288 316 283 331 L100 722 Q97 730 97 734 Q97 742 113 742 L263 742 Q274 742 279.5 737 Q285 732 290 721 L402 460 Q405 453 408 453 Q412 453 416 460 L605 728 Q612 738 616.5 740 Q621 742 633 742 L759 742 Z M605 883 Q606 880 606 874 Q606 864 590 860 L350 798 Q347 797 343 797 Q330 797 327 813 L319 848 Q318 852 318 857 Q318 863 323 865 L573 964 Q574 965 577 965 Q581 965 584.5 960.5 Q588 956 590 950 L605 883 Z " />
<glyph glyph-name="Ycircumflex" unicode="&#x176;" horiz-adv-x="735" d="M759 742 Q766 742 769.5 739 Q773 736 773 731 Q773 727 769 721 L477 333 Q470 323 466.5 313 Q463 303 460 279 L423 20 Q422 7 416.5 3.5 Q411 0 396 0 L264 0 Q253 0 249.5 4.5 Q246 9 248 21 L287 295 Q288 300 288 308 Q288 316 283 331 L100 722 Q97 730 97 734 Q97 742 113 742 L263 742 Q274 742 279.5 737 Q285 732 290 721 L402 460 Q405 453 408 453 Q412 453 416 460 L605 728 Q612 738 616.5 740 Q621 742 633 742 L759 742 Z M479 885 Q473 894 468 894 Q465 894 460.5 889.5 Q456 885 450 878 L391 826 Q386 822 382.5 821 Q379 820 375.5 820.5 Q372 821 368 821 L287 821 Q282 821 279 823.5 Q276 826 276 830 Q276 834 281 841 L406 952 Q413 958 420 960 Q427 962 439 962 L512 962 Q522 962 527.5 955 Q533 948 534 947 L626 834 Q629 831 632.5 827 Q636 823 635 822 Q634 821 628 821 L541 821 Q527 821 518 833 L479 885 Z " />
<glyph glyph-name="Ydieresis" unicode="&#x178;" horiz-adv-x="735" d="M759 742 Q766 742 769.5 739 Q773 736 773 731 Q773 727 769 721 L477 333 Q470 323 466.5 313 Q463 303 460 279 L423 20 Q422 7 416.5 3.5 Q411 0 396 0 L264 0 Q253 0 249.5 4.5 Q246 9 248 21 L287 295 Q288 300 288 308 Q288 316 283 331 L100 722 Q97 730 97 734 Q97 742 113 742 L263 742 Q274 742 279.5 737 Q285 732 290 721 L402 460 Q405 453 408 453 Q412 453 416 460 L605 728 Q612 738 616.5 740 Q621 742 633 742 L759 742 Z M424 840 Q423 829 418.5 826.5 Q414 824 401 824 L308 824 Q297 824 292 830.5 Q287 837 289 847 L302 941 Q303 950 305.5 952 Q308 954 315 954 L423 954 Q430 954 434.5 948 Q439 942 438 934 L424 840 Z M627 840 Q626 829 621.5 826.5 Q617 824 604 824 L511 824 Q500 824 495 830.5 Q490 837 492 847 L505 941 Q506 950 508.5 952 Q511 954 518 954 L626 954 Q633 954 637.5 947.5 Q642 941 640 934 L627 840 Z " />
<glyph glyph-name="Ygrave" unicode="&#x1ef2;" horiz-adv-x="735" d="M759 742 Q766 742 769.5 739 Q773 736 773 731 Q773 727 769 721 L477 333 Q470 323 466.5 313 Q463 303 460 279 L423 20 Q422 7 416.5 3.5 Q411 0 396 0 L264 0 Q253 0 249.5 4.5 Q246 9 248 21 L287 295 Q288 300 288 308 Q288 316 283 331 L100 722 Q97 730 97 734 Q97 742 113 742 L263 742 Q274 742 279.5 737 Q285 732 290 721 L402 460 Q405 453 408 453 Q412 453 416 460 L605 728 Q612 738 616.5 740 Q621 742 633 742 L759 742 Z M351 957 Q356 968 366 962 L588 863 Q594 860 596.5 853.5 Q599 847 596 840 L579 805 Q575 797 569 797 Q568 797 556 799 L334 861 Q315 867 315 882 Q315 885 317 891 L351 957 Z " />
<glyph glyph-name="uni1EF8" unicode="&#x1ef8;" horiz-adv-x="735" d="M759 742 Q766 742 769.5 739 Q773 736 773 731 Q773 727 769 721 L477 333 Q470 323 466.5 313 Q463 303 460 279 L423 20 Q422 7 416.5 3.5 Q411 0 396 0 L264 0 Q253 0 249.5 4.5 Q246 9 248 21 L287 295 Q288 300 288 308 Q288 316 283 331 L100 722 Q97 730 97 734 Q97 742 113 742 L263 742 Q274 742 279.5 737 Q285 732 290 721 L402 460 Q405 453 408 453 Q412 453 416 460 L605 728 Q612 738 616.5 740 Q621 742 633 742 L759 742 Z M632 860 Q581 839 540 839 Q519 839 501 843 Q483 847 461 855 Q457 856 437 862 Q417 868 397 868 Q375 868 359 861 Q343 854 324 840 Q322 839 317 839 Q307 839 304 856 L295 899 Q293 907 293 909 Q293 915 300 926 Q326 941 345.5 948.5 Q365 956 391 956 Q413 956 433 951.5 Q453 947 478 938 Q482 937 501.5 930.5 Q521 924 539 924 Q578 924 614 954 Q616 955 620 955 Q635 955 637 937 L642 886 L642 880 Q642 870 632 860 Z " />
<glyph glyph-name="Z" unicode="Z" horiz-adv-x="681" d="M21 0 Q9 0 4 4.5 Q-1 9 0 21 L5 61 Q7 73 10.5 81 Q14 89 25 101 L437 603 Q444 610 444 611.5 Q444 613 436 613 L130 613 Q120 613 115.5 619.5 Q111 626 113 637 L126 730 Q128 738 130 740 Q132 742 139 742 L696 742 Q710 742 708 724 L701 680 Q700 671 697 664 Q694 657 687 648 L263 138 Q259 134 260 132 Q261 130 265 130 L605 130 Q614 130 616.5 127 Q619 124 618 116 L603 13 Q602 5 599 2.5 Q596 0 586 0 L21 0 Z " />
<glyph glyph-name="Zacute" unicode="&#x179;" horiz-adv-x="681" d="M21 0 Q9 0 4 4.5 Q-1 9 0 21 L5 61 Q7 73 10.5 81 Q14 89 25 101 L437 603 Q444 610 444 611.5 Q444 613 436 613 L130 613 Q120 613 115.5 619.5 Q111 626 113 637 L126 730 Q128 738 130 740 Q132 742 139 742 L696 742 Q710 742 708 724 L701 680 Q700 671 697 664 Q694 657 687 648 L263 138 Q259 134 260 132 Q261 130 265 130 L605 130 Q614 130 616.5 127 Q619 124 618 116 L603 13 Q602 5 599 2.5 Q596 0 586 0 L21 0 Z M580 883 Q581 880 581 874 Q581 864 565 860 L325 798 Q322 797 318 797 Q305 797 302 813 L294 848 Q293 852 293 857 Q293 863 298 865 L548 964 Q549 965 552 965 Q556 965 559.5 960.5 Q563 956 565 950 L580 883 Z " />
<glyph glyph-name="Zcaron" unicode="&#x17d;" horiz-adv-x="681" d="M21 0 Q9 0 4 4.5 Q-1 9 0 21 L5 61 Q7 73 10.5 81 Q14 89 25 101 L437 603 Q444 610 444 611.5 Q444 613 436 613 L130 613 Q120 613 115.5 619.5 Q111 626 113 637 L126 730 Q128 738 130 740 Q132 742 139 742 L696 742 Q710 742 708 724 L701 680 Q700 671 697 664 Q694 657 687 648 L263 138 Q259 134 260 132 Q261 130 265 130 L605 130 Q614 130 616.5 127 Q619 124 618 116 L603 13 Q602 5 599 2.5 Q596 0 586 0 L21 0 Z M506 950 Q510 954 514 955 Q518 956 522 955.5 Q526 955 529 955 L615 955 Q627 955 627 947 Q627 942 621 936 L497 822 Q486 814 472 814 L399 814 Q380 814 370 830 L275 942 Q269 950 268.5 952.5 Q268 955 275 955 L356 955 Q364 955 368.5 952 Q373 949 377 943 L422 890 Q429 881 433 881 Q436 881 441.5 887 Q447 893 451 897 L506 950 Z " />
<glyph glyph-name="Zdotaccent" unicode="&#x17b;" horiz-adv-x="681" d="M21 0 Q9 0 4 4.5 Q-1 9 0 21 L5 61 Q7 73 10.5 81 Q14 89 25 101 L437 603 Q444 610 444 611.5 Q444 613 436 613 L130 613 Q120 613 115.5 619.5 Q111 626 113 637 L126 730 Q128 738 130 740 Q132 742 139 742 L696 742 Q710 742 708 724 L701 680 Q700 671 697 664 Q694 657 687 648 L263 138 Q259 134 260 132 Q261 130 265 130 L605 130 Q614 130 616.5 127 Q619 124 618 116 L603 13 Q602 5 599 2.5 Q596 0 586 0 L21 0 Z M510 826 Q508 813 502.5 809.5 Q497 806 483 806 L375 806 Q363 806 357.5 813.5 Q352 821 354 832 L369 939 Q370 949 373 951.5 Q376 954 384 954 L509 954 Q516 954 521 947 Q526 940 524 932 L510 826 Z " />
<glyph glyph-name="uni1E92" unicode="&#x1e92;" horiz-adv-x="681" d="M21 0 Q9 0 4 4.5 Q-1 9 0 21 L5 61 Q7 73 10.5 81 Q14 89 25 101 L437 603 Q444 610 444 611.5 Q444 613 436 613 L130 613 Q120 613 115.5 619.5 Q111 626 113 637 L126 730 Q128 738 130 740 Q132 742 139 742 L696 742 Q710 742 708 724 L701 680 Q700 671 697 664 Q694 657 687 648 L263 138 Q259 134 260 132 Q261 130 265 130 L605 130 Q614 130 616.5 127 Q619 124 618 116 L603 13 Q602 5 599 2.5 Q596 0 586 0 L21 0 Z M339 -150 Q338 -160 334.5 -162.5 Q331 -165 320 -165 L237 -165 Q228 -165 223 -159 Q218 -153 219 -144 L232 -57 Q233 -49 234 -47.5 Q235 -46 242 -46 L339 -46 Q345 -46 348.5 -51.5 Q352 -57 351 -64 L339 -150 Z " />
<glyph glyph-name="a" unicode="a" horiz-adv-x="563" d="M321 49 Q261 -10 157 -10 Q87 -10 47 26 Q7 62 7 120 Q7 191 54 236.5 Q101 282 172.5 302.5 Q244 323 321 325 L357 328 Q376 328 379 347 L382 368 Q383 373 383 384 Q383 444 314 444 Q235 444 197 382 Q192 375 184 375 Q178 375 175 376 L78 399 Q68 401 68 412 Q68 422 73 432 Q139 540 322 540 Q430 540 480.5 502 Q531 464 531 397 Q531 388 529 368 L479 18 Q478 5 475 2.5 Q472 0 461 0 L358 0 Q348 0 345 6 Q342 12 341 26 L342 52 Q342 60 337 60 Q332 60 321 49 Z M364 241 L364 247 Q364 251 362 252.5 Q360 254 354 253 L318 250 Q260 246 210 221 Q160 196 160 144 Q160 120 177.5 105.5 Q195 91 225 91 Q251 91 274 98.5 Q297 106 314 119 Q351 147 355 176 L364 241 Z " />
<glyph glyph-name="aacute" unicode="&#xe1;" horiz-adv-x="563" d="M321 49 Q261 -10 157 -10 Q87 -10 47 26 Q7 62 7 120 Q7 191 54 236.5 Q101 282 172.5 302.5 Q244 323 321 325 L357 328 Q376 328 379 347 L382 368 Q383 373 383 384 Q383 444 314 444 Q235 444 197 382 Q192 375 184 375 Q178 375 175 376 L78 399 Q68 401 68 412 Q68 422 73 432 Q139 540 322 540 Q430 540 480.5 502 Q531 464 531 397 Q531 388 529 368 L479 18 Q478 5 475 2.5 Q472 0 461 0 L358 0 Q348 0 345 6 Q342 12 341 26 L342 52 Q342 60 337 60 Q332 60 321 49 Z M364 241 L364 247 Q364 251 362 252.5 Q360 254 354 253 L318 250 Q260 246 210 221 Q160 196 160 144 Q160 120 177.5 105.5 Q195 91 225 91 Q251 91 274 98.5 Q297 106 314 119 Q351 147 355 176 L364 241 Z M486 671 Q487 668 487 662 Q487 652 471 648 L231 586 Q228 585 224 585 Q211 585 208 601 L200 636 Q199 640 199 645 Q199 651 204 653 L454 752 Q455 753 458 753 Q462 753 465.5 748.5 Q469 744 471 738 L486 671 Z " />
<glyph glyph-name="abreve" unicode="&#x103;" horiz-adv-x="563" d="M321 49 Q261 -10 157 -10 Q87 -10 47 26 Q7 62 7 120 Q7 191 54 236.5 Q101 282 172.5 302.5 Q244 323 321 325 L357 328 Q376 328 379 347 L382 368 Q383 373 383 384 Q383 444 314 444 Q235 444 197 382 Q192 375 184 375 Q178 375 175 376 L78 399 Q68 401 68 412 Q68 422 73 432 Q139 540 322 540 Q430 540 480.5 502 Q531 464 531 397 Q531 388 529 368 L479 18 Q478 5 475 2.5 Q472 0 461 0 L358 0 Q348 0 345 6 Q342 12 341 26 L342 52 Q342 60 337 60 Q332 60 321 49 Z M364 241 L364 247 Q364 251 362 252.5 Q360 254 354 253 L318 250 Q260 246 210 221 Q160 196 160 144 Q160 120 177.5 105.5 Q195 91 225 91 Q251 91 274 98.5 Q297 106 314 119 Q351 147 355 176 L364 241 Z M522 742 Q528 742 531.5 738 Q535 734 535 728 Q535 723 532 717 Q507 666 456.5 637.5 Q406 609 343 609 Q199 609 179 722 L178 729 Q178 742 193 742 L253 742 Q258 742 261 739.5 Q264 737 267 731.5 Q270 726 273 722 Q284 706 303 695.5 Q322 685 347 685 Q375 685 400 697.5 Q425 710 441 732 Q448 742 461 742 L522 742 Z " />
<glyph glyph-name="acircumflex" unicode="&#xe2;" horiz-adv-x="563" d="M321 49 Q261 -10 157 -10 Q87 -10 47 26 Q7 62 7 120 Q7 191 54 236.5 Q101 282 172.5 302.5 Q244 323 321 325 L357 328 Q376 328 379 347 L382 368 Q383 373 383 384 Q383 444 314 444 Q235 444 197 382 Q192 375 184 375 Q178 375 175 376 L78 399 Q68 401 68 412 Q68 422 73 432 Q139 540 322 540 Q430 540 480.5 502 Q531 464 531 397 Q531 388 529 368 L479 18 Q478 5 475 2.5 Q472 0 461 0 L358 0 Q348 0 345 6 Q342 12 341 26 L342 52 Q342 60 337 60 Q332 60 321 49 Z M364 241 L364 247 Q364 251 362 252.5 Q360 254 354 253 L318 250 Q260 246 210 221 Q160 196 160 144 Q160 120 177.5 105.5 Q195 91 225 91 Q251 91 274 98.5 Q297 106 314 119 Q351 147 355 176 L364 241 Z M360 673 Q354 682 349 682 Q346 682 341.5 677.5 Q337 673 331 666 L272 614 Q267 610 263.5 609 Q260 608 256.5 608.5 Q253 609 249 609 L168 609 Q163 609 160 611.5 Q157 614 157 618 Q157 622 162 629 L287 740 Q294 746 301 748 Q308 750 320 750 L393 750 Q403 750 408.5 743 Q414 736 415 735 L507 622 Q510 619 513.5 615 Q517 611 516 610 Q515 609 509 609 L422 609 Q408 609 399 621 L360 673 Z " />
<glyph glyph-name="uni0201" unicode="&#x201;" horiz-adv-x="563" d="M321 49 Q261 -10 157 -10 Q87 -10 47 26 Q7 62 7 120 Q7 191 54 236.5 Q101 282 172.5 302.5 Q244 323 321 325 L357 328 Q376 328 379 347 L382 368 Q383 373 383 384 Q383 444 314 444 Q235 444 197 382 Q192 375 184 375 Q178 375 175 376 L78 399 Q68 401 68 412 Q68 422 73 432 Q139 540 322 540 Q430 540 480.5 502 Q531 464 531 397 Q531 388 529 368 L479 18 Q478 5 475 2.5 Q472 0 461 0 L358 0 Q348 0 345 6 Q342 12 341 26 L342 52 Q342 60 337 60 Q332 60 321 49 Z M364 241 L364 247 Q364 251 362 252.5 Q360 254 354 253 L318 250 Q260 246 210 221 Q160 196 160 144 Q160 120 177.5 105.5 Q195 91 225 91 Q251 91 274 98.5 Q297 106 314 119 Q351 147 355 176 L364 241 Z M170 750 Q173 753 176 753 Q180 753 188 745 L304 619 Q310 615 310 608 Q310 604 305 599 L274 570 Q270 566 265 566 Q261 566 256 569.5 Q251 573 249 575 L124 667 Q113 674 113 684 Q113 691 119 698 L170 750 Z M366 750 Q369 753 372 753 Q378 753 384 745 L500 619 Q506 615 506 608 Q506 604 501 599 L470 570 Q466 566 462 566 Q458 566 453 569.5 Q448 573 446 575 L320 667 Q309 674 309 684 Q309 691 315 698 L366 750 Z " />
<glyph glyph-name="adieresis" unicode="&#xe4;" horiz-adv-x="563" d="M321 49 Q261 -10 157 -10 Q87 -10 47 26 Q7 62 7 120 Q7 191 54 236.5 Q101 282 172.5 302.5 Q244 323 321 325 L357 328 Q376 328 379 347 L382 368 Q383 373 383 384 Q383 444 314 444 Q235 444 197 382 Q192 375 184 375 Q178 375 175 376 L78 399 Q68 401 68 412 Q68 422 73 432 Q139 540 322 540 Q430 540 480.5 502 Q531 464 531 397 Q531 388 529 368 L479 18 Q478 5 475 2.5 Q472 0 461 0 L358 0 Q348 0 345 6 Q342 12 341 26 L342 52 Q342 60 337 60 Q332 60 321 49 Z M364 241 L364 247 Q364 251 362 252.5 Q360 254 354 253 L318 250 Q260 246 210 221 Q160 196 160 144 Q160 120 177.5 105.5 Q195 91 225 91 Q251 91 274 98.5 Q297 106 314 119 Q351 147 355 176 L364 241 Z M305 628 Q304 617 299.5 614.5 Q295 612 282 612 L189 612 Q178 612 173 618.5 Q168 625 170 635 L183 729 Q184 738 186.5 740 Q189 742 196 742 L304 742 Q311 742 315.5 736 Q320 730 319 722 L305 628 Z M508 628 Q507 617 502.5 614.5 Q498 612 485 612 L392 612 Q381 612 376 618.5 Q371 625 373 635 L386 729 Q387 738 389.5 740 Q392 742 399 742 L507 742 Q514 742 518.5 735.5 Q523 729 521 722 L508 628 Z " />
<glyph glyph-name="agrave" unicode="&#xe0;" horiz-adv-x="563" d="M321 49 Q261 -10 157 -10 Q87 -10 47 26 Q7 62 7 120 Q7 191 54 236.5 Q101 282 172.5 302.5 Q244 323 321 325 L357 328 Q376 328 379 347 L382 368 Q383 373 383 384 Q383 444 314 444 Q235 444 197 382 Q192 375 184 375 Q178 375 175 376 L78 399 Q68 401 68 412 Q68 422 73 432 Q139 540 322 540 Q430 540 480.5 502 Q531 464 531 397 Q531 388 529 368 L479 18 Q478 5 475 2.5 Q472 0 461 0 L358 0 Q348 0 345 6 Q342 12 341 26 L342 52 Q342 60 337 60 Q332 60 321 49 Z M364 241 L364 247 Q364 251 362 252.5 Q360 254 354 253 L318 250 Q260 246 210 221 Q160 196 160 144 Q160 120 177.5 105.5 Q195 91 225 91 Q251 91 274 98.5 Q297 106 314 119 Q351 147 355 176 L364 241 Z M232 745 Q237 756 247 750 L469 651 Q475 648 477.5 641.5 Q480 635 477 628 L460 593 Q456 585 450 585 Q449 585 437 587 L215 649 Q196 655 196 670 Q196 673 198 679 L232 745 Z " />
<glyph glyph-name="uni0203" unicode="&#x203;" horiz-adv-x="563" d="M321 49 Q261 -10 157 -10 Q87 -10 47 26 Q7 62 7 120 Q7 191 54 236.5 Q101 282 172.5 302.5 Q244 323 321 325 L357 328 Q376 328 379 347 L382 368 Q383 373 383 384 Q383 444 314 444 Q235 444 197 382 Q192 375 184 375 Q178 375 175 376 L78 399 Q68 401 68 412 Q68 422 73 432 Q139 540 322 540 Q430 540 480.5 502 Q531 464 531 397 Q531 388 529 368 L479 18 Q478 5 475 2.5 Q472 0 461 0 L358 0 Q348 0 345 6 Q342 12 341 26 L342 52 Q342 60 337 60 Q332 60 321 49 Z M364 241 L364 247 Q364 251 362 252.5 Q360 254 354 253 L318 250 Q260 246 210 221 Q160 196 160 144 Q160 120 177.5 105.5 Q195 91 225 91 Q251 91 274 98.5 Q297 106 314 119 Q351 147 355 176 L364 241 Z M184 609 Q177 609 173.5 613 Q170 617 170 623 Q170 629 173 635 Q198 686 247 714 Q296 742 358 742 Q427 742 472.5 713.5 Q518 685 527 629 L527 624 Q527 609 513 609 L452 609 Q447 609 444 612 Q441 615 438 620 Q435 625 433 629 Q420 646 401.5 656.5 Q383 667 359 667 Q330 667 305 654.5 Q280 642 265 620 Q258 609 244 609 L184 609 Z " />
<glyph glyph-name="amacron" unicode="&#x101;" horiz-adv-x="563" d="M321 49 Q261 -10 157 -10 Q87 -10 47 26 Q7 62 7 120 Q7 191 54 236.5 Q101 282 172.5 302.5 Q244 323 321 325 L357 328 Q376 328 379 347 L382 368 Q383 373 383 384 Q383 444 314 444 Q235 444 197 382 Q192 375 184 375 Q178 375 175 376 L78 399 Q68 401 68 412 Q68 422 73 432 Q139 540 322 540 Q430 540 480.5 502 Q531 464 531 397 Q531 388 529 368 L479 18 Q478 5 475 2.5 Q472 0 461 0 L358 0 Q348 0 345 6 Q342 12 341 26 L342 52 Q342 60 337 60 Q332 60 321 49 Z M364 241 L364 247 Q364 251 362 252.5 Q360 254 354 253 L318 250 Q260 246 210 221 Q160 196 160 144 Q160 120 177.5 105.5 Q195 91 225 91 Q251 91 274 98.5 Q297 106 314 119 Q351 147 355 176 L364 241 Z M525 653 Q524 643 519.5 640.5 Q515 638 502 638 L178 638 Q169 638 164 644.5 Q159 651 161 660 L169 725 Q170 732 172.5 734 Q175 736 181 736 L520 736 Q526 736 530.5 730 Q535 724 534 717 L525 653 Z " />
<glyph glyph-name="aogonek" unicode="&#x105;" horiz-adv-x="563" d="M322 540 Q430 540 480.5 502 Q531 464 531 397 Q531 388 529 368 L479 18 Q478 7 475 3 L476 3 L475 3 Q472 0 468 0 Q413 -19 390.5 -38 Q368 -57 368 -82 Q368 -105 397 -105 Q419 -105 438 -97.5 Q457 -90 461 -88 Q465 -86 468 -86 Q472 -86 474 -90 Q476 -94 475 -100 L469 -142 Q467 -158 458 -159 Q412 -172 362 -172 Q311 -172 283 -151.5 Q255 -131 255 -93 Q255 -84 256 -79 Q260 -53 279.5 -33.5 Q299 -14 348 3 Q343 7 341 26 L342 52 Q342 60 337 60 Q332 60 321 49 Q261 -10 157 -10 Q87 -10 47 26 Q7 62 7 120 Q7 191 54 236.5 Q101 282 172.5 302.5 Q244 323 321 325 L357 328 Q376 328 379 347 L382 368 Q383 373 383 384 Q383 444 314 444 Q235 444 197 382 Q192 375 184 375 Q178 375 175 376 L78 399 Q68 401 68 412 Q68 422 73 432 Q139 540 322 540 Z M314 119 Q351 147 355 176 L364 241 L364 247 Q364 251 362 252.5 Q360 254 354 253 L318 250 Q260 246 210 221 Q160 196 160 144 Q160 120 177.5 105.5 Q195 91 225 91 Q251 91 274 98.5 Q297 106 314 119 Z " />
<glyph glyph-name="aring" unicode="&#xe5;" horiz-adv-x="563" d="M321 49 Q261 -10 157 -10 Q87 -10 47 26 Q7 62 7 120 Q7 191 54 236.5 Q101 282 172.5 302.5 Q244 323 321 325 L357 328 Q376 328 379 347 L382 368 Q383 373 383 384 Q383 444 314 444 Q235 444 197 382 Q192 375 184 375 Q178 375 175 376 L78 399 Q68 401 68 412 Q68 422 73 432 Q139 540 322 540 Q430 540 480.5 502 Q531 464 531 397 Q531 388 529 368 L479 18 Q478 5 475 2.5 Q472 0 461 0 L358 0 Q348 0 345 6 Q342 12 341 26 L342 52 Q342 60 337 60 Q332 60 321 49 Z M364 241 L364 247 Q364 251 362 252.5 Q360 254 354 253 L318 250 Q260 246 210 221 Q160 196 160 144 Q160 120 177.5 105.5 Q195 91 225 91 Q251 91 274 98.5 Q297 106 314 119 Q351 147 355 176 L364 241 Z M460 701 Q460 668 443.5 640.5 Q427 613 399 597 Q371 581 339 581 Q294 581 265.5 610.5 Q237 640 237 685 Q237 698 238 704 Q243 746 278 774.5 Q313 803 357 803 Q402 803 431 774 Q460 745 460 701 Z M400 708 Q400 724 389 733.5 Q378 743 361 743 Q337 743 317.5 725.5 Q298 708 294 684 Q292 666 303.5 653 Q315 640 333 640 Q359 640 379.5 661 Q400 682 400 708 Z " />
<glyph glyph-name="aringacute" unicode="&#x1fb;" horiz-adv-x="563" d="M321 49 Q261 -10 157 -10 Q87 -10 47 26 Q7 62 7 120 Q7 191 54 236.5 Q101 282 172.5 302.5 Q244 323 321 325 L357 328 Q376 328 379 347 L382 368 Q383 373 383 384 Q383 444 314 444 Q235 444 197 382 Q192 375 184 375 Q178 375 175 376 L78 399 Q68 401 68 412 Q68 422 73 432 Q139 540 322 540 Q430 540 480.5 502 Q531 464 531 397 Q531 388 529 368 L479 18 Q478 5 475 2.5 Q472 0 461 0 L358 0 Q348 0 345 6 Q342 12 341 26 L342 52 Q342 60 337 60 Q332 60 321 49 Z M364 241 L364 247 Q364 251 362 252.5 Q360 254 354 253 L318 250 Q260 246 210 221 Q160 196 160 144 Q160 120 177.5 105.5 Q195 91 225 91 Q251 91 274 98.5 Q297 106 314 119 Q351 147 355 176 L364 241 Z M480 877 Q481 874 481 868 Q481 858 465 854 L225 792 Q222 791 218 791 Q205 791 202 807 L194 842 Q193 846 193 851 Q193 857 198 859 L448 958 Q449 959 452 959 Q456 959 459.5 954.5 Q463 950 465 944 L480 877 Z M433 684 Q433 651 416.5 623.5 Q400 596 372 580 Q344 564 312 564 Q267 564 238.5 593.5 Q210 623 210 668 Q210 681 211 687 Q216 729 251 757.5 Q286 786 330 786 Q375 786 404 757 Q433 728 433 684 Z M373 691 Q373 707 362 716.5 Q351 726 334 726 Q310 726 290.5 708.5 Q271 691 267 667 Q265 649 276.5 636 Q288 623 306 623 Q332 623 352.5 644 Q373 665 373 691 Z " />
<glyph glyph-name="atilde" unicode="&#xe3;" horiz-adv-x="563" d="M321 49 Q261 -10 157 -10 Q87 -10 47 26 Q7 62 7 120 Q7 191 54 236.5 Q101 282 172.5 302.5 Q244 323 321 325 L357 328 Q376 328 379 347 L382 368 Q383 373 383 384 Q383 444 314 444 Q235 444 197 382 Q192 375 184 375 Q178 375 175 376 L78 399 Q68 401 68 412 Q68 422 73 432 Q139 540 322 540 Q430 540 480.5 502 Q531 464 531 397 Q531 388 529 368 L479 18 Q478 5 475 2.5 Q472 0 461 0 L358 0 Q348 0 345 6 Q342 12 341 26 L342 52 Q342 60 337 60 Q332 60 321 49 Z M364 241 L364 247 Q364 251 362 252.5 Q360 254 354 253 L318 250 Q260 246 210 221 Q160 196 160 144 Q160 120 177.5 105.5 Q195 91 225 91 Q251 91 274 98.5 Q297 106 314 119 Q351 147 355 176 L364 241 Z M513 648 Q462 627 421 627 Q400 627 382 631 Q364 635 342 643 Q338 644 318 650 Q298 656 278 656 Q256 656 240 649 Q224 642 205 628 Q203 627 198 627 Q188 627 185 644 L176 687 Q174 695 174 697 Q174 703 181 714 Q207 729 226.5 736.5 Q246 744 272 744 Q294 744 314 739.5 Q334 735 359 726 Q363 725 382.5 718.5 Q402 712 420 712 Q459 712 495 742 Q497 743 501 743 Q516 743 518 725 L523 674 L523 668 Q523 658 513 648 Z " />
<glyph glyph-name="ae" unicode="&#xe6;" horiz-adv-x="918" d="M537 236 Q517 236 514 208 Q513 202 513 191 Q513 148 543.5 121.5 Q574 95 623 95 Q663 95 695 113 Q727 131 764 168 L767 169 Q769 169 773 166.5 Q777 164 782 162 L848 131 Q858 127 858 117 Q858 112 854 105 Q799 42 740 16 Q681 -10 600 -10 Q532 -10 483 17 Q434 44 405 88 Q401 88 397.5 84 Q394 80 392 75 Q343 33 289 11.5 Q235 -10 164 -10 Q88 -10 47.5 25.5 Q7 61 7 122 Q7 211 82 263.5 Q157 316 305 324 L353 328 Q361 328 369 333.5 Q377 339 378 347 L381 368 Q382 374 382 384 Q382 444 311 444 Q278 444 247.5 427.5 Q217 411 195 377 Q191 373 188 373 Q185 373 174 376 L77 399 Q73 400 71 405 Q69 410 69 417 Q69 425 72 432 Q110 487 167 513.5 Q224 540 318 540 Q455 539 493 477 Q566 540 664 540 Q769 540 831 478 Q893 416 893 306 Q893 276 889 251 Q887 241 885 239 Q883 237 872 236 L537 236 Z M668 446 Q618 446 578.5 410.5 Q539 375 532 316 L728 320 Q752 320 752 358 Q752 393 730 419.5 Q708 446 668 446 Z M363 241 Q363 245 360 246 Q357 247 350 247 L312 244 Q255 240 210 212.5 Q165 185 159 142 L158 133 Q158 110 174.5 97.5 Q191 85 222 85 Q270 85 309 110 Q348 135 353 169 L362 235 L363 241 Z " />
<glyph glyph-name="aeacute" unicode="&#x1fd;" horiz-adv-x="918" d="M537 236 Q517 236 514 208 Q513 202 513 191 Q513 148 543.5 121.5 Q574 95 623 95 Q663 95 695 113 Q727 131 764 168 L767 169 Q769 169 773 166.5 Q777 164 782 162 L848 131 Q858 127 858 117 Q858 112 854 105 Q799 42 740 16 Q681 -10 600 -10 Q532 -10 483 17 Q434 44 405 88 Q401 88 397.5 84 Q394 80 392 75 Q343 33 289 11.5 Q235 -10 164 -10 Q88 -10 47.5 25.5 Q7 61 7 122 Q7 211 82 263.5 Q157 316 305 324 L353 328 Q361 328 369 333.5 Q377 339 378 347 L381 368 Q382 374 382 384 Q382 444 311 444 Q278 444 247.5 427.5 Q217 411 195 377 Q191 373 188 373 Q185 373 174 376 L77 399 Q73 400 71 405 Q69 410 69 417 Q69 425 72 432 Q110 487 167 513.5 Q224 540 318 540 Q455 539 493 477 Q566 540 664 540 Q769 540 831 478 Q893 416 893 306 Q893 276 889 251 Q887 241 885 239 Q883 237 872 236 L537 236 Z M668 446 Q618 446 578.5 410.5 Q539 375 532 316 L728 320 Q752 320 752 358 Q752 393 730 419.5 Q708 446 668 446 Z M363 241 Q363 245 360 246 Q357 247 350 247 L312 244 Q255 240 210 212.5 Q165 185 159 142 L158 133 Q158 110 174.5 97.5 Q191 85 222 85 Q270 85 309 110 Q348 135 353 169 L362 235 L363 241 Z M652 671 Q653 668 653 662 Q653 652 637 648 L397 586 Q394 585 390 585 Q377 585 374 601 L366 636 Q365 640 365 645 Q365 651 370 653 L620 752 Q621 753 624 753 Q628 753 631.5 748.5 Q635 744 637 738 L652 671 Z " />
<glyph glyph-name="b" unicode="b" horiz-adv-x="609" d="M44 0 Q32 0 26 7 Q20 14 22 26 L121 727 Q122 736 125 739 Q128 742 135 742 L264 742 Q274 742 274 728 Q274 722 273 719 L242 493 L242 488 Q242 484 245 484 Q248 484 255 490 Q324 540 399 540 Q487 540 533.5 483 Q580 426 580 327 Q580 244 551.5 166.5 Q523 89 463.5 39.5 Q404 -10 316 -10 Q266 -10 228 13.5 Q190 37 169 73 Q166 77 162 77 Q155 77 151 64 L137 18 Q133 7 128.5 3.5 Q124 0 114 0 L44 0 Z M197 178 Q196 173 196 162 Q196 126 219 105 Q242 84 277 84 Q329 84 362.5 125 Q396 166 411 224.5 Q426 283 426 336 Q426 391 406 416.5 Q386 442 345 442 Q282 442 228 386 L197 178 Z " />
<glyph glyph-name="c" unicode="c" horiz-adv-x="551" d="M330 540 Q421 540 474 493 Q527 446 538 380 L538 377 Q538 371 535 368.5 Q532 366 523 365 L422 356 L421 356 Q412 356 408 377 Q394 409 379.5 424 Q365 439 333 439 Q283 439 248.5 402 Q214 365 198 311 Q182 257 182 206 Q182 147 207 118 Q232 89 279 89 Q324 89 354 109.5 Q384 130 414 176 Q417 180 420 180 L430 178 L501 161 Q511 159 511 146 L509 134 Q480 80 418 35 Q356 -10 265 -10 Q194 -10 140.5 19 Q87 48 57.5 101.5 Q28 155 28 224 Q28 308 66 380.5 Q104 453 172.5 496.5 Q241 540 330 540 Z " />
<glyph glyph-name="cacute" unicode="&#x107;" horiz-adv-x="551" d="M330 540 Q421 540 474 493 Q527 446 538 380 L538 377 Q538 371 535 368.5 Q532 366 523 365 L422 356 L421 356 Q412 356 408 377 Q394 409 379.5 424 Q365 439 333 439 Q283 439 248.5 402 Q214 365 198 311 Q182 257 182 206 Q182 147 207 118 Q232 89 279 89 Q324 89 354 109.5 Q384 130 414 176 Q417 180 420 180 L430 178 L501 161 Q511 159 511 146 L509 134 Q480 80 418 35 Q356 -10 265 -10 Q194 -10 140.5 19 Q87 48 57.5 101.5 Q28 155 28 224 Q28 308 66 380.5 Q104 453 172.5 496.5 Q241 540 330 540 Z M495 671 Q496 668 496 662 Q496 652 480 648 L240 586 Q237 585 233 585 Q220 585 217 601 L209 636 Q208 640 208 645 Q208 651 213 653 L463 752 Q464 753 467 753 Q471 753 474.5 748.5 Q478 744 480 738 L495 671 Z " />
<glyph glyph-name="ccaron" unicode="&#x10d;" horiz-adv-x="551" d="M330 540 Q421 540 474 493 Q527 446 538 380 L538 377 Q538 371 535 368.5 Q532 366 523 365 L422 356 L421 356 Q412 356 408 377 Q394 409 379.5 424 Q365 439 333 439 Q283 439 248.5 402 Q214 365 198 311 Q182 257 182 206 Q182 147 207 118 Q232 89 279 89 Q324 89 354 109.5 Q384 130 414 176 Q417 180 420 180 L430 178 L501 161 Q511 159 511 146 L509 134 Q480 80 418 35 Q356 -10 265 -10 Q194 -10 140.5 19 Q87 48 57.5 101.5 Q28 155 28 224 Q28 308 66 380.5 Q104 453 172.5 496.5 Q241 540 330 540 Z M421 738 Q425 742 429 743 Q433 744 437 743.5 Q441 743 444 743 L530 743 Q542 743 542 735 Q542 730 536 724 L412 610 Q401 602 387 602 L314 602 Q295 602 285 618 L190 730 Q184 738 183.5 740.5 Q183 743 190 743 L271 743 Q279 743 283.5 740 Q288 737 292 731 L337 678 Q344 669 348 669 Q351 669 356.5 675 Q362 681 366 685 L421 738 Z " />
<glyph glyph-name="ccedilla" unicode="&#xe7;" horiz-adv-x="551" d="M538 377 Q538 371 535 368.5 Q532 366 523 365 L422 356 L421 356 Q412 356 408 377 Q394 409 379.5 424 Q365 439 333 439 Q283 439 248.5 402 Q214 365 198 311 Q182 257 182 206 Q182 147 207 118 Q232 89 279 89 Q324 89 354 109.5 Q384 130 414 176 Q417 180 420 180 L430 178 L501 161 Q511 159 511 146 L509 134 Q483 84 427 41 Q371 -2 290 -9 L270 -51 Q269 -54 267 -54 Q314 -55 336.5 -77 Q359 -99 359 -130 Q359 -171 321.5 -195 Q284 -219 230 -219 Q162 -219 122 -191 Q117 -190 114 -186 Q111 -182 112 -178 L132 -143 Q134 -141 134 -141 Q135 -141 136.5 -144 Q138 -147 139 -149 Q179 -165 207 -165 Q235 -165 252 -152.5 Q269 -140 269 -120 Q269 -105 252 -98.5 Q235 -92 193 -92 Q184 -92 180 -88 Q176 -84 178 -78 L222 -7 Q133 6 80.5 68 Q28 130 28 224 Q28 308 66 380.5 Q104 453 172.5 496.5 Q241 540 330 540 Q421 540 474 493 Q527 446 538 380 L538 377 Z " />
<glyph glyph-name="ccircumflex" unicode="&#x109;" horiz-adv-x="551" d="M330 540 Q421 540 474 493 Q527 446 538 380 L538 377 Q538 371 535 368.5 Q532 366 523 365 L422 356 L421 356 Q412 356 408 377 Q394 409 379.5 424 Q365 439 333 439 Q283 439 248.5 402 Q214 365 198 311 Q182 257 182 206 Q182 147 207 118 Q232 89 279 89 Q324 89 354 109.5 Q384 130 414 176 Q417 180 420 180 L430 178 L501 161 Q511 159 511 146 L509 134 Q480 80 418 35 Q356 -10 265 -10 Q194 -10 140.5 19 Q87 48 57.5 101.5 Q28 155 28 224 Q28 308 66 380.5 Q104 453 172.5 496.5 Q241 540 330 540 Z M369 673 Q363 682 358 682 Q355 682 350.5 677.5 Q346 673 340 666 L281 614 Q276 610 272.5 609 Q269 608 265.5 608.5 Q262 609 258 609 L177 609 Q172 609 169 611.5 Q166 614 166 618 Q166 622 171 629 L296 740 Q303 746 310 748 Q317 750 329 750 L402 750 Q412 750 417.5 743 Q423 736 424 735 L516 622 Q519 619 522.5 615 Q526 611 525 610 Q524 609 518 609 L431 609 Q417 609 408 621 L369 673 Z " />
<glyph glyph-name="cdotaccent" unicode="&#x10b;" horiz-adv-x="551" d="M330 540 Q421 540 474 493 Q527 446 538 380 L538 377 Q538 371 535 368.5 Q532 366 523 365 L422 356 L421 356 Q412 356 408 377 Q394 409 379.5 424 Q365 439 333 439 Q283 439 248.5 402 Q214 365 198 311 Q182 257 182 206 Q182 147 207 118 Q232 89 279 89 Q324 89 354 109.5 Q384 130 414 176 Q417 180 420 180 L430 178 L501 161 Q511 159 511 146 L509 134 Q480 80 418 35 Q356 -10 265 -10 Q194 -10 140.5 19 Q87 48 57.5 101.5 Q28 155 28 224 Q28 308 66 380.5 Q104 453 172.5 496.5 Q241 540 330 540 Z M425 614 Q423 601 417.5 597.5 Q412 594 398 594 L290 594 Q278 594 272.5 601.5 Q267 609 269 620 L284 727 Q285 737 288 739.5 Q291 742 299 742 L424 742 Q431 742 436 735 Q441 728 439 720 L425 614 Z " />
<glyph glyph-name="d" unicode="d" horiz-adv-x="609" d="M389 0 Q366 0 369 18 L374 47 L374 50 Q374 56 370 56 Q366 56 360 50 Q327 23 291.5 6.5 Q256 -10 209 -10 Q126 -10 77 44.5 Q28 99 28 202 Q28 289 60.5 367 Q93 445 151.5 492.5 Q210 540 286 540 Q327 540 356 525.5 Q385 511 408 481 Q415 474 420 474 Q424 474 428 480.5 Q432 487 433 500 L466 727 Q467 742 485 742 L607 742 Q621 742 618 718 L518 19 Q517 8 512 4 Q507 0 494 0 L389 0 Z M420 395 Q402 419 382 430 Q362 441 335 441 Q283 441 248.5 401.5 Q214 362 198 305.5 Q182 249 182 196 Q182 139 205.5 112.5 Q229 86 270 86 Q298 86 324 99.5 Q350 113 367 134.5 Q384 156 387 179 L420 395 Z " />
<glyph glyph-name="eth" unicode="&#xf0;" horiz-adv-x="599" d="M569 266 Q557 182 515.5 120 Q474 58 409.5 24 Q345 -10 266 -10 Q194 -10 140 19 Q86 48 56.5 100 Q27 152 27 218 Q27 239 30 260 Q41 335 83 394.5 Q125 454 189 487 Q253 520 327 520 Q370 520 384 511 Q359 564 304 609 L177 539 Q173 537 171 537 Q162 537 158 551 L146 572 Q142 580 142 583.5 Q142 587 146 589 L254 643 Q229 657 172 684 Q166 684 162.5 688.5 Q159 693 163 697 L236 749 Q240 752 243 752 Q246 752 253 747 Q311 734 369 700 L459 752 Q460 753 463 753 Q466 753 469.5 750 Q473 747 474 744 L489 710 Q489 709 491 705.5 Q493 702 489 699 L420 667 Q495 608 534.5 524 Q574 440 574 340 Q574 297 569 266 Z M270 92 Q326 92 364 138 Q402 184 412 264 Q415 288 415 309 Q415 363 393 392 Q371 421 328 421 Q273 421 234.5 374.5 Q196 328 184 247 Q181 225 181 206 Q181 151 204 121.5 Q227 92 270 92 Z " />
<glyph glyph-name="dcaron" unicode="&#x10f;" horiz-adv-x="746" d="M389 0 Q366 0 369 18 L374 47 L374 50 Q374 56 370 56 Q366 56 360 50 Q327 23 291.5 6.5 Q256 -10 209 -10 Q126 -10 77 44.5 Q28 99 28 202 Q28 289 60.5 367 Q93 445 151.5 492.5 Q210 540 286 540 Q327 540 356 525.5 Q385 511 408 481 Q415 474 420 474 Q424 474 428 480.5 Q432 487 433 500 L466 727 Q467 742 485 742 L607 742 Q621 742 618 718 L518 19 Q517 8 512 4 Q507 0 494 0 L389 0 Z M420 395 Q402 419 382 430 Q362 441 335 441 Q283 441 248.5 401.5 Q214 362 198 305.5 Q182 249 182 196 Q182 139 205.5 112.5 Q229 86 270 86 Q298 86 324 99.5 Q350 113 367 134.5 Q384 156 387 179 L420 395 Z M661 516 Q655 516 651.5 522 Q648 528 650 533 L692 608 Q693 611 695.5 615 Q698 619 697 620.5 Q696 622 692 622 L683 623 Q675 624 670.5 629 Q666 634 667 642 L680 733 Q681 739 682.5 740.5 Q684 742 690 742 L771 742 Q776 742 780 736.5 Q784 731 783 726 L768 619 L765 611 L716 525 Q713 518 709.5 517 Q706 516 692 516 L661 516 Z " />
<glyph glyph-name="dslash" unicode="&#x111;" horiz-adv-x="619" d="M682 680 Q688 680 692 674 Q696 668 695 661 L688 608 Q687 599 682.5 596.5 Q678 594 665 594 L600 594 L518 19 Q517 8 512 4 Q507 0 494 0 L389 0 Q366 0 369 18 L374 47 L374 50 Q374 56 370 56 Q366 56 360 50 Q327 23 291.5 6.5 Q256 -10 209 -10 Q126 -10 77 44.5 Q28 99 28 202 Q28 289 60.5 367 Q93 445 151.5 492.5 Q210 540 286 540 Q327 540 356 525.5 Q385 511 408 481 Q415 474 420 474 Q424 474 428 480.5 Q432 487 433 500 L447 594 L359 594 Q349 594 344.5 600 Q340 606 341 616 L349 668 Q350 676 352 678 Q354 680 360 680 L459 680 L466 727 Q467 742 485 742 L607 742 Q621 742 618 718 L613 680 L682 680 Z M420 395 Q402 419 382 430 Q362 441 335 441 Q283 441 248.5 401.5 Q214 362 198 305.5 Q182 249 182 196 Q182 139 205.5 112.5 Q229 86 270 86 Q298 86 324 99.5 Q350 113 367 134.5 Q384 156 387 179 L420 395 Z " />
<glyph glyph-name="uni1E0D" unicode="&#x1e0d;" horiz-adv-x="609" d="M389 0 Q366 0 369 18 L374 47 L374 50 Q374 56 370 56 Q366 56 360 50 Q327 23 291.5 6.5 Q256 -10 209 -10 Q126 -10 77 44.5 Q28 99 28 202 Q28 289 60.5 367 Q93 445 151.5 492.5 Q210 540 286 540 Q327 540 356 525.5 Q385 511 408 481 Q415 474 420 474 Q424 474 428 480.5 Q432 487 433 500 L466 727 Q467 742 485 742 L607 742 Q621 742 618 718 L518 19 Q517 8 512 4 Q507 0 494 0 L389 0 Z M420 395 Q402 419 382 430 Q362 441 335 441 Q283 441 248.5 401.5 Q214 362 198 305.5 Q182 249 182 196 Q182 139 205.5 112.5 Q229 86 270 86 Q298 86 324 99.5 Q350 113 367 134.5 Q384 156 387 179 L420 395 Z M308 -150 Q307 -160 303.5 -162.5 Q300 -165 289 -165 L206 -165 Q197 -165 192 -159 Q187 -153 188 -144 L201 -57 Q202 -49 203 -47.5 Q204 -46 211 -46 L308 -46 Q314 -46 317.5 -51.5 Q321 -57 320 -64 L308 -150 Z " />
<glyph glyph-name="uni01F3" unicode="&#x1f3;" horiz-adv-x="1128" d="M389 0 Q366 0 369 18 L374 47 L374 50 Q374 56 370 56 Q366 56 360 50 Q327 23 291.5 6.5 Q256 -10 209 -10 Q126 -10 77 44.5 Q28 99 28 202 Q28 289 60.5 367 Q93 445 151.5 492.5 Q210 540 286 540 Q327 540 356 525.5 Q385 511 408 481 Q415 474 420 474 Q424 474 428 480.5 Q432 487 433 500 L466 727 Q467 742 485 742 L607 742 Q621 742 618 718 L518 19 Q517 8 512 4 Q507 0 494 0 L389 0 Z M420 395 Q402 419 382 430 Q362 441 335 441 Q283 441 248.5 401.5 Q214 362 198 305.5 Q182 249 182 196 Q182 139 205.5 112.5 Q229 86 270 86 Q298 86 324 99.5 Q350 113 367 134.5 Q384 156 387 179 L420 395 Z M615 0 Q603 0 599.5 4 Q596 8 598 19 L603 54 Q605 66 609.5 73.5 Q614 81 628 97 L918 415 Q923 422 923 425 Q923 433 907 433 L693 433 Q684 433 681 437.5 Q678 442 680 453 L689 515 Q690 522 696.5 526 Q703 530 710 530 L1122 530 Q1136 530 1133 516 L1127 475 Q1126 466 1121 458.5 Q1116 451 1106 439 L813 118 Q809 114 809 108 Q809 104 812.5 101 Q816 98 821 98 L1062 98 Q1070 98 1073 94.5 Q1076 91 1075 82 L1066 17 Q1064 0 1047 0 L615 0 Z " />
<glyph glyph-name="uni01C6" unicode="&#x1c6;" horiz-adv-x="1128" d="M389 0 Q366 0 369 18 L374 47 L374 50 Q374 56 370 56 Q366 56 360 50 Q327 23 291.5 6.5 Q256 -10 209 -10 Q126 -10 77 44.5 Q28 99 28 202 Q28 289 60.5 367 Q93 445 151.5 492.5 Q210 540 286 540 Q327 540 356 525.5 Q385 511 408 481 Q415 474 420 474 Q424 474 428 480.5 Q432 487 433 500 L466 727 Q467 742 485 742 L607 742 Q621 742 618 718 L518 19 Q517 8 512 4 Q507 0 494 0 L389 0 Z M420 395 Q402 419 382 430 Q362 441 335 441 Q283 441 248.5 401.5 Q214 362 198 305.5 Q182 249 182 196 Q182 139 205.5 112.5 Q229 86 270 86 Q298 86 324 99.5 Q350 113 367 134.5 Q384 156 387 179 L420 395 Z M615 0 Q603 0 599.5 4 Q596 8 598 19 L603 54 Q605 66 609.5 73.5 Q614 81 628 97 L918 415 Q923 422 923 425 Q923 433 907 433 L693 433 Q684 433 681 437.5 Q678 442 680 453 L689 515 Q690 522 696.5 526 Q703 530 710 530 L1122 530 Q1136 530 1133 516 L1127 475 Q1126 466 1121 458.5 Q1116 451 1106 439 L813 118 Q809 114 809 108 Q809 104 812.5 101 Q816 98 821 98 L1062 98 Q1070 98 1073 94.5 Q1076 91 1075 82 L1066 17 Q1064 0 1047 0 L615 0 Z M1001 738 Q1005 742 1009 743 Q1013 744 1017 743.5 Q1021 743 1024 743 L1110 743 Q1122 743 1122 735 Q1122 730 1116 724 L992 610 Q981 602 967 602 L894 602 Q875 602 865 618 L770 730 Q764 738 763.5 740.5 Q763 743 770 743 L851 743 Q859 743 863.5 740 Q868 737 872 731 L917 678 Q924 669 928 669 Q931 669 936.5 675 Q942 681 946 685 L1001 738 Z " />
<glyph glyph-name="e" unicode="e" horiz-adv-x="586" d="M269 -10 Q198 -10 143 19 Q88 48 58 100.5 Q28 153 28 222 Q28 304 67.5 377.5 Q107 451 176.5 495.5 Q246 540 332 540 Q437 540 499 478 Q561 416 561 307 Q561 278 557 251 Q555 243 550.5 239.5 Q546 236 534 236 L197 236 Q181 236 181 193 Q181 146 211.5 120.5 Q242 95 291 95 Q329 95 362 111 Q395 127 427 161 Q432 166 437 166 Q440 166 450 162 L516 131 Q528 127 528 118 Q528 113 523 105 Q465 40 407.5 15 Q350 -10 269 -10 Z M396 316 Q420 316 420 355 Q420 393 397 419.5 Q374 446 333 446 Q283 446 244.5 408.5 Q206 371 200 316 L396 316 Z " />
<glyph glyph-name="eacute" unicode="&#xe9;" horiz-adv-x="586" d="M269 -10 Q198 -10 143 19 Q88 48 58 100.5 Q28 153 28 222 Q28 304 67.5 377.5 Q107 451 176.5 495.5 Q246 540 332 540 Q437 540 499 478 Q561 416 561 307 Q561 278 557 251 Q555 243 550.5 239.5 Q546 236 534 236 L197 236 Q181 236 181 193 Q181 146 211.5 120.5 Q242 95 291 95 Q329 95 362 111 Q395 127 427 161 Q432 166 437 166 Q440 166 450 162 L516 131 Q528 127 528 118 Q528 113 523 105 Q465 40 407.5 15 Q350 -10 269 -10 Z M396 316 Q420 316 420 355 Q420 393 397 419.5 Q374 446 333 446 Q283 446 244.5 408.5 Q206 371 200 316 L396 316 Z M498 671 Q499 668 499 662 Q499 652 483 648 L243 586 Q240 585 236 585 Q223 585 220 601 L212 636 Q211 640 211 645 Q211 651 216 653 L466 752 Q467 753 470 753 Q474 753 477.5 748.5 Q481 744 483 738 L498 671 Z " />
<glyph glyph-name="ebreve" unicode="&#x115;" horiz-adv-x="586" d="M269 -10 Q198 -10 143 19 Q88 48 58 100.5 Q28 153 28 222 Q28 304 67.5 377.5 Q107 451 176.5 495.5 Q246 540 332 540 Q437 540 499 478 Q561 416 561 307 Q561 278 557 251 Q555 243 550.5 239.5 Q546 236 534 236 L197 236 Q181 236 181 193 Q181 146 211.5 120.5 Q242 95 291 95 Q329 95 362 111 Q395 127 427 161 Q432 166 437 166 Q440 166 450 162 L516 131 Q528 127 528 118 Q528 113 523 105 Q465 40 407.5 15 Q350 -10 269 -10 Z M396 316 Q420 316 420 355 Q420 393 397 419.5 Q374 446 333 446 Q283 446 244.5 408.5 Q206 371 200 316 L396 316 Z M534 742 Q540 742 543.5 738 Q547 734 547 728 Q547 723 544 717 Q519 666 468.5 637.5 Q418 609 355 609 Q211 609 191 722 L190 729 Q190 742 205 742 L265 742 Q270 742 273 739.5 Q276 737 279 731.5 Q282 726 285 722 Q296 706 315 695.5 Q334 685 359 685 Q387 685 412 697.5 Q437 710 453 732 Q460 742 473 742 L534 742 Z " />
<glyph glyph-name="ecaron" unicode="&#x11b;" horiz-adv-x="586" d="M269 -10 Q198 -10 143 19 Q88 48 58 100.5 Q28 153 28 222 Q28 304 67.5 377.5 Q107 451 176.5 495.5 Q246 540 332 540 Q437 540 499 478 Q561 416 561 307 Q561 278 557 251 Q555 243 550.5 239.5 Q546 236 534 236 L197 236 Q181 236 181 193 Q181 146 211.5 120.5 Q242 95 291 95 Q329 95 362 111 Q395 127 427 161 Q432 166 437 166 Q440 166 450 162 L516 131 Q528 127 528 118 Q528 113 523 105 Q465 40 407.5 15 Q350 -10 269 -10 Z M396 316 Q420 316 420 355 Q420 393 397 419.5 Q374 446 333 446 Q283 446 244.5 408.5 Q206 371 200 316 L396 316 Z M424 738 Q428 742 432 743 Q436 744 440 743.5 Q444 743 447 743 L533 743 Q545 743 545 735 Q545 730 539 724 L415 610 Q404 602 390 602 L317 602 Q298 602 288 618 L193 730 Q187 738 186.5 740.5 Q186 743 193 743 L274 743 Q282 743 286.5 740 Q291 737 295 731 L340 678 Q347 669 351 669 Q354 669 359.5 675 Q365 681 369 685 L424 738 Z " />
<glyph glyph-name="ecircumflex" unicode="&#xea;" horiz-adv-x="586" d="M269 -10 Q198 -10 143 19 Q88 48 58 100.5 Q28 153 28 222 Q28 304 67.5 377.5 Q107 451 176.5 495.5 Q246 540 332 540 Q437 540 499 478 Q561 416 561 307 Q561 278 557 251 Q555 243 550.5 239.5 Q546 236 534 236 L197 236 Q181 236 181 193 Q181 146 211.5 120.5 Q242 95 291 95 Q329 95 362 111 Q395 127 427 161 Q432 166 437 166 Q440 166 450 162 L516 131 Q528 127 528 118 Q528 113 523 105 Q465 40 407.5 15 Q350 -10 269 -10 Z M396 316 Q420 316 420 355 Q420 393 397 419.5 Q374 446 333 446 Q283 446 244.5 408.5 Q206 371 200 316 L396 316 Z M372 673 Q366 682 361 682 Q358 682 353.5 677.5 Q349 673 343 666 L284 614 Q279 610 275.5 609 Q272 608 268.5 608.5 Q265 609 261 609 L180 609 Q175 609 172 611.5 Q169 614 169 618 Q169 622 174 629 L299 740 Q306 746 313 748 Q320 750 332 750 L405 750 Q415 750 420.5 743 Q426 736 427 735 L519 622 Q522 619 525.5 615 Q529 611 528 610 Q527 609 521 609 L434 609 Q420 609 411 621 L372 673 Z " />
<glyph glyph-name="uni0205" unicode="&#x205;" horiz-adv-x="586" d="M269 -10 Q198 -10 143 19 Q88 48 58 100.5 Q28 153 28 222 Q28 304 67.5 377.5 Q107 451 176.5 495.5 Q246 540 332 540 Q437 540 499 478 Q561 416 561 307 Q561 278 557 251 Q555 243 550.5 239.5 Q546 236 534 236 L197 236 Q181 236 181 193 Q181 146 211.5 120.5 Q242 95 291 95 Q329 95 362 111 Q395 127 427 161 Q432 166 437 166 Q440 166 450 162 L516 131 Q528 127 528 118 Q528 113 523 105 Q465 40 407.5 15 Q350 -10 269 -10 Z M396 316 Q420 316 420 355 Q420 393 397 419.5 Q374 446 333 446 Q283 446 244.5 408.5 Q206 371 200 316 L396 316 Z M182 750 Q185 753 188 753 Q192 753 200 745 L316 619 Q322 615 322 608 Q322 604 317 599 L286 570 Q282 566 277 566 Q273 566 268 569.5 Q263 573 261 575 L136 667 Q125 674 125 684 Q125 691 131 698 L182 750 Z M378 750 Q381 753 384 753 Q390 753 396 745 L512 619 Q518 615 518 608 Q518 604 513 599 L482 570 Q478 566 474 566 Q470 566 465 569.5 Q460 573 458 575 L332 667 Q321 674 321 684 Q321 691 327 698 L378 750 Z " />
<glyph glyph-name="edieresis" unicode="&#xeb;" horiz-adv-x="586" d="M269 -10 Q198 -10 143 19 Q88 48 58 100.5 Q28 153 28 222 Q28 304 67.5 377.5 Q107 451 176.5 495.5 Q246 540 332 540 Q437 540 499 478 Q561 416 561 307 Q561 278 557 251 Q555 243 550.5 239.5 Q546 236 534 236 L197 236 Q181 236 181 193 Q181 146 211.5 120.5 Q242 95 291 95 Q329 95 362 111 Q395 127 427 161 Q432 166 437 166 Q440 166 450 162 L516 131 Q528 127 528 118 Q528 113 523 105 Q465 40 407.5 15 Q350 -10 269 -10 Z M396 316 Q420 316 420 355 Q420 393 397 419.5 Q374 446 333 446 Q283 446 244.5 408.5 Q206 371 200 316 L396 316 Z M317 628 Q316 617 311.5 614.5 Q307 612 294 612 L201 612 Q190 612 185 618.5 Q180 625 182 635 L195 729 Q196 738 198.5 740 Q201 742 208 742 L316 742 Q323 742 327.5 736 Q332 730 331 722 L317 628 Z M520 628 Q519 617 514.5 614.5 Q510 612 497 612 L404 612 Q393 612 388 618.5 Q383 625 385 635 L398 729 Q399 738 401.5 740 Q404 742 411 742 L519 742 Q526 742 530.5 735.5 Q535 729 533 722 L520 628 Z " />
<glyph glyph-name="edotaccent" unicode="&#x117;" horiz-adv-x="586" d="M269 -10 Q198 -10 143 19 Q88 48 58 100.5 Q28 153 28 222 Q28 304 67.5 377.5 Q107 451 176.5 495.5 Q246 540 332 540 Q437 540 499 478 Q561 416 561 307 Q561 278 557 251 Q555 243 550.5 239.5 Q546 236 534 236 L197 236 Q181 236 181 193 Q181 146 211.5 120.5 Q242 95 291 95 Q329 95 362 111 Q395 127 427 161 Q432 166 437 166 Q440 166 450 162 L516 131 Q528 127 528 118 Q528 113 523 105 Q465 40 407.5 15 Q350 -10 269 -10 Z M396 316 Q420 316 420 355 Q420 393 397 419.5 Q374 446 333 446 Q283 446 244.5 408.5 Q206 371 200 316 L396 316 Z M384 614 Q382 601 376.5 597.5 Q371 594 357 594 L249 594 Q237 594 231.5 601.5 Q226 609 228 620 L243 727 Q244 737 247 739.5 Q250 742 258 742 L383 742 Q390 742 395 735 Q400 728 398 720 L384 614 Z " />
<glyph glyph-name="uni1EB9" unicode="&#x1eb9;" horiz-adv-x="586" d="M269 -10 Q198 -10 143 19 Q88 48 58 100.5 Q28 153 28 222 Q28 304 67.5 377.5 Q107 451 176.5 495.5 Q246 540 332 540 Q437 540 499 478 Q561 416 561 307 Q561 278 557 251 Q555 243 550.5 239.5 Q546 236 534 236 L197 236 Q181 236 181 193 Q181 146 211.5 120.5 Q242 95 291 95 Q329 95 362 111 Q395 127 427 161 Q432 166 437 166 Q440 166 450 162 L516 131 Q528 127 528 118 Q528 113 523 105 Q465 40 407.5 15 Q350 -10 269 -10 Z M396 316 Q420 316 420 355 Q420 393 397 419.5 Q374 446 333 446 Q283 446 244.5 408.5 Q206 371 200 316 L396 316 Z M305 -150 Q304 -160 300.5 -162.5 Q297 -165 286 -165 L203 -165 Q194 -165 189 -159 Q184 -153 185 -144 L198 -57 Q199 -49 200 -47.5 Q201 -46 208 -46 L305 -46 Q311 -46 314.5 -51.5 Q318 -57 317 -64 L305 -150 Z " />
<glyph glyph-name="egrave" unicode="&#xe8;" horiz-adv-x="586" d="M269 -10 Q198 -10 143 19 Q88 48 58 100.5 Q28 153 28 222 Q28 304 67.5 377.5 Q107 451 176.5 495.5 Q246 540 332 540 Q437 540 499 478 Q561 416 561 307 Q561 278 557 251 Q555 243 550.5 239.5 Q546 236 534 236 L197 236 Q181 236 181 193 Q181 146 211.5 120.5 Q242 95 291 95 Q329 95 362 111 Q395 127 427 161 Q432 166 437 166 Q440 166 450 162 L516 131 Q528 127 528 118 Q528 113 523 105 Q465 40 407.5 15 Q350 -10 269 -10 Z M396 316 Q420 316 420 355 Q420 393 397 419.5 Q374 446 333 446 Q283 446 244.5 408.5 Q206 371 200 316 L396 316 Z M244 745 Q249 756 259 750 L481 651 Q487 648 489.5 641.5 Q492 635 489 628 L472 593 Q468 585 462 585 Q461 585 449 587 L227 649 Q208 655 208 670 Q208 673 210 679 L244 745 Z " />
<glyph glyph-name="uni0207" unicode="&#x207;" horiz-adv-x="586" d="M269 -10 Q198 -10 143 19 Q88 48 58 100.5 Q28 153 28 222 Q28 304 67.5 377.5 Q107 451 176.5 495.5 Q246 540 332 540 Q437 540 499 478 Q561 416 561 307 Q561 278 557 251 Q555 243 550.5 239.5 Q546 236 534 236 L197 236 Q181 236 181 193 Q181 146 211.5 120.5 Q242 95 291 95 Q329 95 362 111 Q395 127 427 161 Q432 166 437 166 Q440 166 450 162 L516 131 Q528 127 528 118 Q528 113 523 105 Q465 40 407.5 15 Q350 -10 269 -10 Z M396 316 Q420 316 420 355 Q420 393 397 419.5 Q374 446 333 446 Q283 446 244.5 408.5 Q206 371 200 316 L396 316 Z M196 609 Q189 609 185.5 613 Q182 617 182 623 Q182 629 185 635 Q210 686 259 714 Q308 742 370 742 Q439 742 484.5 713.5 Q530 685 539 629 L539 624 Q539 609 525 609 L464 609 Q459 609 456 612 Q453 615 450 620 Q447 625 445 629 Q432 646 413.5 656.5 Q395 667 371 667 Q342 667 317 654.5 Q292 642 277 620 Q270 609 256 609 L196 609 Z " />
<glyph glyph-name="emacron" unicode="&#x113;" horiz-adv-x="586" d="M269 -10 Q198 -10 143 19 Q88 48 58 100.5 Q28 153 28 222 Q28 304 67.5 377.5 Q107 451 176.5 495.5 Q246 540 332 540 Q437 540 499 478 Q561 416 561 307 Q561 278 557 251 Q555 243 550.5 239.5 Q546 236 534 236 L197 236 Q181 236 181 193 Q181 146 211.5 120.5 Q242 95 291 95 Q329 95 362 111 Q395 127 427 161 Q432 166 437 166 Q440 166 450 162 L516 131 Q528 127 528 118 Q528 113 523 105 Q465 40 407.5 15 Q350 -10 269 -10 Z M396 316 Q420 316 420 355 Q420 393 397 419.5 Q374 446 333 446 Q283 446 244.5 408.5 Q206 371 200 316 L396 316 Z M537 653 Q536 643 531.5 640.5 Q527 638 514 638 L190 638 Q181 638 176 644.5 Q171 651 173 660 L181 725 Q182 732 184.5 734 Q187 736 193 736 L532 736 Q538 736 542.5 730 Q547 724 546 717 L537 653 Z " />
<glyph glyph-name="eogonek" unicode="&#x119;" horiz-adv-x="586" d="M332 540 Q437 540 499 478 Q561 416 561 307 Q561 278 557 251 Q555 243 550.5 239.5 Q546 236 534 236 L197 236 Q181 236 181 193 Q181 146 211.5 120.5 Q242 95 291 95 Q329 95 362 111 Q395 127 427 161 Q432 166 437 166 Q440 166 450 162 L516 131 Q528 127 528 118 Q528 113 523 105 Q485 61 447 36.5 Q409 12 366 1 Q329 -15 313.5 -31.5 Q298 -48 298 -69 Q298 -92 327 -92 Q349 -92 368 -84.5 Q387 -77 391 -75 Q395 -73 398 -73 Q402 -73 404 -77 Q406 -81 405 -87 L399 -129 Q397 -145 388 -146 Q342 -159 292 -159 Q241 -159 213 -138.5 Q185 -118 185 -80 Q185 -58 194 -40.5 Q203 -23 228 -7 Q137 5 82.5 67 Q28 129 28 222 Q28 304 67.5 377.5 Q107 451 176.5 495.5 Q246 540 332 540 Z M396 316 Q420 316 420 355 Q420 393 397 419.5 Q374 446 333 446 Q283 446 244.5 408.5 Q206 371 200 316 L396 316 Z " />
<glyph glyph-name="uni1EBD" unicode="&#x1ebd;" horiz-adv-x="586" d="M269 -10 Q198 -10 143 19 Q88 48 58 100.5 Q28 153 28 222 Q28 304 67.5 377.5 Q107 451 176.5 495.5 Q246 540 332 540 Q437 540 499 478 Q561 416 561 307 Q561 278 557 251 Q555 243 550.5 239.5 Q546 236 534 236 L197 236 Q181 236 181 193 Q181 146 211.5 120.5 Q242 95 291 95 Q329 95 362 111 Q395 127 427 161 Q432 166 437 166 Q440 166 450 162 L516 131 Q528 127 528 118 Q528 113 523 105 Q465 40 407.5 15 Q350 -10 269 -10 Z M396 316 Q420 316 420 355 Q420 393 397 419.5 Q374 446 333 446 Q283 446 244.5 408.5 Q206 371 200 316 L396 316 Z M525 648 Q474 627 433 627 Q412 627 394 631 Q376 635 354 643 Q350 644 330 650 Q310 656 290 656 Q268 656 252 649 Q236 642 217 628 Q215 627 210 627 Q200 627 197 644 L188 687 Q186 695 186 697 Q186 703 193 714 Q219 729 238.5 736.5 Q258 744 284 744 Q306 744 326 739.5 Q346 735 371 726 Q375 725 394.5 718.5 Q414 712 432 712 Q471 712 507 742 Q509 743 513 743 Q528 743 530 725 L535 674 L535 668 Q535 658 525 648 Z " />
<glyph glyph-name="f" unicode="f" horiz-adv-x="402" d="M403 530 Q412 530 415.5 526.5 Q419 523 417 515 L407 438 Q406 430 402 427 Q398 424 390 424 L303 424 Q298 424 296 420.5 Q294 417 292 409 L237 14 Q236 5 233 2.5 Q230 0 222 0 L99 0 Q92 0 87 6.5 Q82 13 83 22 L139 416 L139 418 Q139 424 133 424 L56 424 Q48 424 46 429 Q44 434 45 444 L56 517 Q57 525 60 527.5 Q63 530 73 530 L140 530 Q147 530 152 535.5 Q157 541 158 549 L166 610 Q175 674 216.5 708 Q258 742 327 742 L428 742 Q439 742 445 737 Q451 732 450 723 L442 651 Q441 639 426 639 L374 639 Q351 639 333.5 623.5 Q316 608 312 583 L306 541 L306 539 Q306 530 318 530 L403 530 Z " />
<glyph glyph-name="g" unicode="g" horiz-adv-x="633" d="M221 -174 Q99 -174 30.5 -143 Q-38 -112 -38 -56 Q-38 13 67 50 Q79 53 79 59 Q79 63 71 66 Q48 76 37 91 Q26 106 26 130 Q26 164 57 188.5 Q88 213 131 228 Q144 233 144 238 Q144 242 137 245 Q101 259 81 288 Q61 317 61 356 Q61 416 96.5 457 Q132 498 189 518 Q246 538 312 538 Q431 538 485 488 Q491 482 498.5 486.5 Q506 491 517 502 Q538 524 570.5 538.5 Q603 553 626 553 Q638 553 643.5 549 Q649 545 648 534 L638 466 Q637 452 632.5 447.5 Q628 443 619 444 Q581 444 564 441 Q530 436 539 416 Q545 402 545 381 Q545 322 506 283.5 Q467 245 408 227 Q349 209 287 209 Q251 209 209 200.5 Q167 192 167 169 Q167 160 179.5 156 Q192 152 223 150 L365 142 Q545 132 545 4 Q545 -94 449 -134 Q353 -174 221 -174 Z M291 285 Q340 285 373.5 313.5 Q407 342 407 392 Q407 424 383 442.5 Q359 461 314 461 Q266 461 231.5 430 Q197 399 197 351 Q197 321 222.5 303 Q248 285 291 285 Z M229 -101 Q312 -101 359.5 -80 Q407 -59 407 -19 Q407 1 391 11 Q375 21 337 23 L185 31 Q149 25 120 8 Q91 -9 91 -39 Q91 -101 229 -101 Z " />
<glyph glyph-name="uni01F5" unicode="&#x1f5;" horiz-adv-x="633" d="M221 -174 Q99 -174 30.5 -143 Q-38 -112 -38 -56 Q-38 13 67 50 Q79 53 79 59 Q79 63 71 66 Q48 76 37 91 Q26 106 26 130 Q26 164 57 188.5 Q88 213 131 228 Q144 233 144 238 Q144 242 137 245 Q101 259 81 288 Q61 317 61 356 Q61 416 96.5 457 Q132 498 189 518 Q246 538 312 538 Q431 538 485 488 Q491 482 498.5 486.5 Q506 491 517 502 Q538 524 570.5 538.5 Q603 553 626 553 Q638 553 643.5 549 Q649 545 648 534 L638 466 Q637 452 632.5 447.5 Q628 443 619 444 Q581 444 564 441 Q530 436 539 416 Q545 402 545 381 Q545 322 506 283.5 Q467 245 408 227 Q349 209 287 209 Q251 209 209 200.5 Q167 192 167 169 Q167 160 179.5 156 Q192 152 223 150 L365 142 Q545 132 545 4 Q545 -94 449 -134 Q353 -174 221 -174 Z M291 285 Q340 285 373.5 313.5 Q407 342 407 392 Q407 424 383 442.5 Q359 461 314 461 Q266 461 231.5 430 Q197 399 197 351 Q197 321 222.5 303 Q248 285 291 285 Z M229 -101 Q312 -101 359.5 -80 Q407 -59 407 -19 Q407 1 391 11 Q375 21 337 23 L185 31 Q149 25 120 8 Q91 -9 91 -39 Q91 -101 229 -101 Z M497 671 Q498 668 498 662 Q498 652 482 648 L242 586 Q239 585 235 585 Q222 585 219 601 L211 636 Q210 640 210 645 Q210 651 215 653 L465 752 Q466 753 469 753 Q473 753 476.5 748.5 Q480 744 482 738 L497 671 Z " />
<glyph glyph-name="gbreve" unicode="&#x11f;" horiz-adv-x="633" d="M221 -174 Q99 -174 30.5 -143 Q-38 -112 -38 -56 Q-38 13 67 50 Q79 53 79 59 Q79 63 71 66 Q48 76 37 91 Q26 106 26 130 Q26 164 57 188.5 Q88 213 131 228 Q144 233 144 238 Q144 242 137 245 Q101 259 81 288 Q61 317 61 356 Q61 416 96.5 457 Q132 498 189 518 Q246 538 312 538 Q431 538 485 488 Q491 482 498.5 486.5 Q506 491 517 502 Q538 524 570.5 538.5 Q603 553 626 553 Q638 553 643.5 549 Q649 545 648 534 L638 466 Q637 452 632.5 447.5 Q628 443 619 444 Q581 444 564 441 Q530 436 539 416 Q545 402 545 381 Q545 322 506 283.5 Q467 245 408 227 Q349 209 287 209 Q251 209 209 200.5 Q167 192 167 169 Q167 160 179.5 156 Q192 152 223 150 L365 142 Q545 132 545 4 Q545 -94 449 -134 Q353 -174 221 -174 Z M291 285 Q340 285 373.5 313.5 Q407 342 407 392 Q407 424 383 442.5 Q359 461 314 461 Q266 461 231.5 430 Q197 399 197 351 Q197 321 222.5 303 Q248 285 291 285 Z M229 -101 Q312 -101 359.5 -80 Q407 -59 407 -19 Q407 1 391 11 Q375 21 337 23 L185 31 Q149 25 120 8 Q91 -9 91 -39 Q91 -101 229 -101 Z M533 742 Q539 742 542.5 738 Q546 734 546 728 Q546 723 543 717 Q518 666 467.5 637.5 Q417 609 354 609 Q210 609 190 722 L189 729 Q189 742 204 742 L264 742 Q269 742 272 739.5 Q275 737 278 731.5 Q281 726 284 722 Q295 706 314 695.5 Q333 685 358 685 Q386 685 411 697.5 Q436 710 452 732 Q459 742 472 742 L533 742 Z " />
<glyph glyph-name="gcircumflex" unicode="&#x11d;" horiz-adv-x="633" d="M221 -174 Q99 -174 30.5 -143 Q-38 -112 -38 -56 Q-38 13 67 50 Q79 53 79 59 Q79 63 71 66 Q48 76 37 91 Q26 106 26 130 Q26 164 57 188.5 Q88 213 131 228 Q144 233 144 238 Q144 242 137 245 Q101 259 81 288 Q61 317 61 356 Q61 416 96.5 457 Q132 498 189 518 Q246 538 312 538 Q431 538 485 488 Q491 482 498.5 486.5 Q506 491 517 502 Q538 524 570.5 538.5 Q603 553 626 553 Q638 553 643.5 549 Q649 545 648 534 L638 466 Q637 452 632.5 447.5 Q628 443 619 444 Q581 444 564 441 Q530 436 539 416 Q545 402 545 381 Q545 322 506 283.5 Q467 245 408 227 Q349 209 287 209 Q251 209 209 200.5 Q167 192 167 169 Q167 160 179.5 156 Q192 152 223 150 L365 142 Q545 132 545 4 Q545 -94 449 -134 Q353 -174 221 -174 Z M291 285 Q340 285 373.5 313.5 Q407 342 407 392 Q407 424 383 442.5 Q359 461 314 461 Q266 461 231.5 430 Q197 399 197 351 Q197 321 222.5 303 Q248 285 291 285 Z M229 -101 Q312 -101 359.5 -80 Q407 -59 407 -19 Q407 1 391 11 Q375 21 337 23 L185 31 Q149 25 120 8 Q91 -9 91 -39 Q91 -101 229 -101 Z M371 673 Q365 682 360 682 Q357 682 352.5 677.5 Q348 673 342 666 L283 614 Q278 610 274.5 609 Q271 608 267.5 608.5 Q264 609 260 609 L179 609 Q174 609 171 611.5 Q168 614 168 618 Q168 622 173 629 L298 740 Q305 746 312 748 Q319 750 331 750 L404 750 Q414 750 419.5 743 Q425 736 426 735 L518 622 Q521 619 524.5 615 Q528 611 527 610 Q526 609 520 609 L433 609 Q419 609 410 621 L371 673 Z " />
<glyph glyph-name="gcommaaccent" unicode="&#x123;" horiz-adv-x="633" d="M342 608 Q329 608 330 620 L341 700 Q343 712 351 720 L404 778 Q406 780 411 784.5 Q416 789 420 791 Q424 793 429 793 L454 793 Q459 793 459 789 Q459 784 455 780 L414 727 Q407 719 407 713 Q407 706 415 706 L439 706 Q446 706 448.5 702.5 Q451 699 449 689 L439 625 Q436 608 424 608 L342 608 Z M221 -174 Q99 -174 30.5 -143 Q-38 -112 -38 -56 Q-38 13 67 50 Q79 53 79 59 Q79 63 71 66 Q48 76 37 91 Q26 106 26 130 Q26 164 57 188.5 Q88 213 131 228 Q144 233 144 238 Q144 242 137 245 Q101 259 81 288 Q61 317 61 356 Q61 416 96.5 457 Q132 498 189 518 Q246 538 312 538 Q431 538 485 488 Q491 482 498.5 486.5 Q506 491 517 502 Q538 524 570.5 538.5 Q603 553 626 553 Q638 553 643.5 549 Q649 545 648 534 L638 466 Q637 452 632.5 447.5 Q628 443 619 444 Q581 444 564 441 Q530 436 539 416 Q545 402 545 381 Q545 322 506 283.5 Q467 245 408 227 Q349 209 287 209 Q251 209 209 200.5 Q167 192 167 169 Q167 160 179.5 156 Q192 152 223 150 L365 142 Q545 132 545 4 Q545 -94 449 -134 Q353 -174 221 -174 Z M291 285 Q340 285 373.5 313.5 Q407 342 407 392 Q407 424 383 442.5 Q359 461 314 461 Q266 461 231.5 430 Q197 399 197 351 Q197 321 222.5 303 Q248 285 291 285 Z M229 -101 Q312 -101 359.5 -80 Q407 -59 407 -19 Q407 1 391 11 Q375 21 337 23 L185 31 Q149 25 120 8 Q91 -9 91 -39 Q91 -101 229 -101 Z " />
<glyph glyph-name="gdotaccent" unicode="&#x121;" horiz-adv-x="633" d="M221 -174 Q99 -174 30.5 -143 Q-38 -112 -38 -56 Q-38 13 67 50 Q79 53 79 59 Q79 63 71 66 Q48 76 37 91 Q26 106 26 130 Q26 164 57 188.5 Q88 213 131 228 Q144 233 144 238 Q144 242 137 245 Q101 259 81 288 Q61 317 61 356 Q61 416 96.5 457 Q132 498 189 518 Q246 538 312 538 Q431 538 485 488 Q491 482 498.5 486.5 Q506 491 517 502 Q538 524 570.5 538.5 Q603 553 626 553 Q638 553 643.5 549 Q649 545 648 534 L638 466 Q637 452 632.5 447.5 Q628 443 619 444 Q581 444 564 441 Q530 436 539 416 Q545 402 545 381 Q545 322 506 283.5 Q467 245 408 227 Q349 209 287 209 Q251 209 209 200.5 Q167 192 167 169 Q167 160 179.5 156 Q192 152 223 150 L365 142 Q545 132 545 4 Q545 -94 449 -134 Q353 -174 221 -174 Z M291 285 Q340 285 373.5 313.5 Q407 342 407 392 Q407 424 383 442.5 Q359 461 314 461 Q266 461 231.5 430 Q197 399 197 351 Q197 321 222.5 303 Q248 285 291 285 Z M229 -101 Q312 -101 359.5 -80 Q407 -59 407 -19 Q407 1 391 11 Q375 21 337 23 L185 31 Q149 25 120 8 Q91 -9 91 -39 Q91 -101 229 -101 Z M427 614 Q425 601 419.5 597.5 Q414 594 400 594 L292 594 Q280 594 274.5 601.5 Q269 609 271 620 L286 727 Q287 737 290 739.5 Q293 742 301 742 L426 742 Q433 742 438 735 Q443 728 441 720 L427 614 Z " />
<glyph glyph-name="h" unicode="h" horiz-adv-x="597" d="M43 0 Q32 0 26.5 6.5 Q21 13 22 25 L121 728 Q124 742 139 742 L259 742 Q267 742 270 738 Q273 734 272 724 L237 480 L237 475 Q237 467 245 472 Q297 509 338 524.5 Q379 540 421 540 Q490 540 527.5 504.5 Q565 469 565 407 Q565 393 562 376 L512 20 Q510 7 505.5 3.5 Q501 0 488 0 L377 0 Q367 0 361.5 7 Q356 14 358 25 L406 363 Q407 369 407 379 Q407 429 349 429 Q317 429 289 413 Q261 397 225 363 L176 19 Q174 6 169.5 3 Q165 0 150 0 L43 0 Z " />
<glyph glyph-name="hbar" unicode="&#x127;" horiz-adv-x="562" d="M386 540 Q455 540 492.5 504.5 Q530 469 530 407 Q530 393 527 376 L477 20 Q475 7 470.5 3.5 Q466 0 453 0 L342 0 Q332 0 326.5 7 Q321 14 323 25 L371 363 Q372 369 372 379 Q372 429 314 429 Q282 429 254 413 Q226 397 190 363 L141 19 Q139 6 134.5 3 Q130 0 115 0 L8 0 Q-3 0 -8.5 6.5 Q-14 13 -13 25 L67 594 L53 594 Q44 594 39 600.5 Q34 607 36 616 L43 668 Q44 676 46 678 Q48 680 54 680 L79 680 L86 728 Q89 742 104 742 L224 742 Q232 742 235 738 Q238 734 237 724 L231 680 L376 680 Q382 680 386.5 674 Q391 668 390 661 L382 608 Q381 599 377 596.5 Q373 594 360 594 L218 594 L202 480 L202 475 Q202 467 210 472 Q262 509 303 524.5 Q344 540 386 540 Z " />
<glyph glyph-name="hcircumflex" unicode="&#x125;" horiz-adv-x="597" d="M43 0 Q32 0 26.5 6.5 Q21 13 22 25 L121 728 Q124 742 139 742 L259 742 Q267 742 270 738 Q273 734 272 724 L237 480 L237 475 Q237 467 245 472 Q297 509 338 524.5 Q379 540 421 540 Q490 540 527.5 504.5 Q565 469 565 407 Q565 393 562 376 L512 20 Q510 7 505.5 3.5 Q501 0 488 0 L377 0 Q367 0 361.5 7 Q356 14 358 25 L406 363 Q407 369 407 379 Q407 429 349 429 Q317 429 289 413 Q261 397 225 363 L176 19 Q174 6 169.5 3 Q165 0 150 0 L43 0 Z M361 887 Q355 896 350 896 Q347 896 342.5 891.5 Q338 887 332 880 L273 828 Q268 824 264.5 823 Q261 822 257.5 822.5 Q254 823 250 823 L169 823 Q164 823 161 825.5 Q158 828 158 832 Q158 836 163 843 L288 954 Q295 960 302 962 Q309 964 321 964 L394 964 Q404 964 409.5 957 Q415 950 416 949 L508 836 Q511 833 514.5 829 Q518 825 517 824 Q516 823 510 823 L423 823 Q409 823 400 835 L361 887 Z " />
<glyph glyph-name="uni1E25" unicode="&#x1e25;" horiz-adv-x="597" d="M43 0 Q32 0 26.5 6.5 Q21 13 22 25 L121 728 Q124 742 139 742 L259 742 Q267 742 270 738 Q273 734 272 724 L237 480 L237 475 Q237 467 245 472 Q297 509 338 524.5 Q379 540 421 540 Q490 540 527.5 504.5 Q565 469 565 407 Q565 393 562 376 L512 20 Q510 7 505.5 3.5 Q501 0 488 0 L377 0 Q367 0 361.5 7 Q356 14 358 25 L406 363 Q407 369 407 379 Q407 429 349 429 Q317 429 289 413 Q261 397 225 363 L176 19 Q174 6 169.5 3 Q165 0 150 0 L43 0 Z M307 -150 Q306 -160 302.5 -162.5 Q299 -165 288 -165 L205 -165 Q196 -165 191 -159 Q186 -153 187 -144 L200 -57 Q201 -49 202 -47.5 Q203 -46 210 -46 L307 -46 Q313 -46 316.5 -51.5 Q320 -57 319 -64 L307 -150 Z " />
<glyph glyph-name="i" unicode="i" horiz-adv-x="265" d="M260 615 Q259 602 253 598 Q247 594 233 594 L118 594 Q103 594 103 613 L104 621 L119 722 Q122 742 137 742 L264 742 Q271 742 273.5 735 Q276 728 274 719 L260 615 Z M175 20 Q173 7 168.5 3.5 Q164 0 149 0 L43 0 Q31 0 25.5 7 Q20 14 22 25 L91 515 Q92 524 95 527 Q98 530 106 530 L233 530 Q246 530 244 508 L175 20 Z " />
<glyph glyph-name="dotlessi" unicode="&#x131;" horiz-adv-x="265" d="M175 20 Q173 7 168.5 3.5 Q164 0 149 0 L43 0 Q31 0 25.5 7 Q20 14 22 25 L91 515 Q92 524 94.5 527 Q97 530 105 530 L228 530 Q235 530 240 523 Q245 516 244 508 L175 20 Z " />
<glyph glyph-name="iacute" unicode="&#xed;" horiz-adv-x="265" d="M175 20 Q173 7 168.5 3.5 Q164 0 149 0 L43 0 Q31 0 25.5 7 Q20 14 22 25 L91 515 Q92 524 94.5 527 Q97 530 105 530 L228 530 Q235 530 240 523 Q245 516 244 508 L175 20 Z M330 671 Q331 668 331 662 Q331 652 315 648 L75 586 Q72 585 68 585 Q55 585 52 601 L44 636 Q43 640 43 645 Q43 651 48 653 L298 752 Q299 753 302 753 Q306 753 309.5 748.5 Q313 744 315 738 L330 671 Z " />
<glyph glyph-name="ibreve" unicode="&#x12d;" horiz-adv-x="265" d="M175 20 Q173 7 168.5 3.5 Q164 0 149 0 L43 0 Q31 0 25.5 7 Q20 14 22 25 L91 515 Q92 524 94.5 527 Q97 530 105 530 L228 530 Q235 530 240 523 Q245 516 244 508 L175 20 Z M366 742 Q372 742 375.5 738 Q379 734 379 728 Q379 723 376 717 Q351 666 300.5 637.5 Q250 609 187 609 Q43 609 23 722 L22 729 Q22 742 37 742 L97 742 Q102 742 105 739.5 Q108 737 111 731.5 Q114 726 117 722 Q128 706 147 695.5 Q166 685 191 685 Q219 685 244 697.5 Q269 710 285 732 Q292 742 305 742 L366 742 Z " />
<glyph glyph-name="icircumflex" unicode="&#xee;" horiz-adv-x="265" d="M175 20 Q173 7 168.5 3.5 Q164 0 149 0 L43 0 Q31 0 25.5 7 Q20 14 22 25 L91 515 Q92 524 94.5 527 Q97 530 105 530 L228 530 Q235 530 240 523 Q245 516 244 508 L175 20 Z M204 673 Q198 682 193 682 Q190 682 185.5 677.5 Q181 673 175 666 L116 614 Q111 610 107.5 609 Q104 608 100.5 608.5 Q97 609 93 609 L12 609 Q7 609 4 611.5 Q1 614 1 618 Q1 622 6 629 L131 740 Q138 746 145 748 Q152 750 164 750 L237 750 Q247 750 252.5 743 Q258 736 259 735 L351 622 Q354 619 357.5 615 Q361 611 360 610 Q359 609 353 609 L266 609 Q252 609 243 621 L204 673 Z " />
<glyph glyph-name="uni0209" unicode="&#x209;" horiz-adv-x="265" d="M175 20 Q173 7 168.5 3.5 Q164 0 149 0 L43 0 Q31 0 25.5 7 Q20 14 22 25 L91 515 Q92 524 94.5 527 Q97 530 105 530 L228 530 Q235 530 240 523 Q245 516 244 508 L175 20 Z M14 750 Q17 753 20 753 Q24 753 32 745 L148 619 Q154 615 154 608 Q154 604 149 599 L118 570 Q114 566 109 566 Q105 566 100 569.5 Q95 573 93 575 L-32 667 Q-43 674 -43 684 Q-43 691 -37 698 L14 750 Z M210 750 Q213 753 216 753 Q222 753 228 745 L344 619 Q350 615 350 608 Q350 604 345 599 L314 570 Q310 566 306 566 Q302 566 297 569.5 Q292 573 290 575 L164 667 Q153 674 153 684 Q153 691 159 698 L210 750 Z " />
<glyph glyph-name="idieresis" unicode="&#xef;" horiz-adv-x="265" d="M175 20 Q173 7 168.5 3.5 Q164 0 149 0 L43 0 Q31 0 25.5 7 Q20 14 22 25 L91 515 Q92 524 94.5 527 Q97 530 105 530 L228 530 Q235 530 240 523 Q245 516 244 508 L175 20 Z M149 628 Q148 617 143.5 614.5 Q139 612 126 612 L33 612 Q22 612 17 618.5 Q12 625 14 635 L27 729 Q28 738 30.5 740 Q33 742 40 742 L148 742 Q155 742 159.5 736 Q164 730 163 722 L149 628 Z M352 628 Q351 617 346.5 614.5 Q342 612 329 612 L236 612 Q225 612 220 618.5 Q215 625 217 635 L230 729 Q231 738 233.5 740 Q236 742 243 742 L351 742 Q358 742 362.5 735.5 Q367 729 365 722 L352 628 Z " />
<glyph glyph-name="uni1ECB" unicode="&#x1ecb;" horiz-adv-x="265" d="M260 615 Q259 602 253 598 Q247 594 233 594 L118 594 Q103 594 103 613 L104 621 L119 722 Q122 742 137 742 L264 742 Q271 742 273.5 735 Q276 728 274 719 L260 615 Z M175 20 Q173 7 168.5 3.5 Q164 0 149 0 L43 0 Q31 0 25.5 7 Q20 14 22 25 L91 515 Q92 524 95 527 Q98 530 106 530 L233 530 Q246 530 244 508 L175 20 Z M131 -150 Q130 -160 126.5 -162.5 Q123 -165 112 -165 L29 -165 Q20 -165 15 -159 Q10 -153 11 -144 L24 -57 Q25 -49 26 -47.5 Q27 -46 34 -46 L131 -46 Q137 -46 140.5 -51.5 Q144 -57 143 -64 L131 -150 Z " />
<glyph glyph-name="igrave" unicode="&#xec;" horiz-adv-x="265" d="M175 20 Q173 7 168.5 3.5 Q164 0 149 0 L43 0 Q31 0 25.5 7 Q20 14 22 25 L91 515 Q92 524 94.5 527 Q97 530 105 530 L228 530 Q235 530 240 523 Q245 516 244 508 L175 20 Z M76 745 Q81 756 91 750 L313 651 Q319 648 321.5 641.5 Q324 635 321 628 L304 593 Q300 585 294 585 Q293 585 281 587 L59 649 Q40 655 40 670 Q40 673 42 679 L76 745 Z " />
<glyph glyph-name="uni020B" unicode="&#x20b;" horiz-adv-x="265" d="M175 20 Q173 7 168.5 3.5 Q164 0 149 0 L43 0 Q31 0 25.5 7 Q20 14 22 25 L91 515 Q92 524 94.5 527 Q97 530 105 530 L228 530 Q235 530 240 523 Q245 516 244 508 L175 20 Z M28 609 Q21 609 17.5 613 Q14 617 14 623 Q14 629 17 635 Q42 686 91 714 Q140 742 202 742 Q271 742 316.5 713.5 Q362 685 371 629 L371 624 Q371 609 357 609 L296 609 Q291 609 288 612 Q285 615 282 620 Q279 625 277 629 Q264 646 245.5 656.5 Q227 667 203 667 Q174 667 149 654.5 Q124 642 109 620 Q102 609 88 609 L28 609 Z " />
<glyph glyph-name="ij" unicode="&#x133;" horiz-adv-x="530" d="M260 615 Q259 602 253 598 Q247 594 233 594 L118 594 Q103 594 103 613 L104 621 L119 722 Q122 742 137 742 L264 742 Q271 742 273.5 735 Q276 728 274 719 L260 615 Z M175 20 Q173 7 168.5 3.5 Q164 0 149 0 L43 0 Q31 0 25.5 7 Q20 14 22 25 L91 515 Q92 524 95 527 Q98 530 106 530 L233 530 Q246 530 244 508 L175 20 Z M525 615 Q524 602 518 598 Q512 594 498 594 L383 594 Q368 594 368 613 L369 621 L384 722 Q387 742 402 742 L529 742 Q536 742 538.5 735 Q541 728 539 719 L525 615 Z M438 1 Q425 -88 377.5 -129 Q330 -170 238 -170 Q195 -170 180.5 -164.5 Q166 -159 168 -145 L179 -66 Q181 -51 194 -49 L236 -44 Q256 -42 269 -27.5 Q282 -13 286 17 L356 515 Q357 524 360.5 527 Q364 530 372 530 L494 530 Q501 530 506 523 Q511 516 510 508 L438 1 Z " />
<glyph glyph-name="imacron" unicode="&#x12b;" horiz-adv-x="265" d="M175 20 Q173 7 168.5 3.5 Q164 0 149 0 L43 0 Q31 0 25.5 7 Q20 14 22 25 L91 515 Q92 524 94.5 527 Q97 530 105 530 L228 530 Q235 530 240 523 Q245 516 244 508 L175 20 Z M369 653 Q368 643 363.5 640.5 Q359 638 346 638 L22 638 Q13 638 8 644.5 Q3 651 5 660 L13 725 Q14 732 16.5 734 Q19 736 25 736 L364 736 Q370 736 374.5 730 Q379 724 378 717 L369 653 Z " />
<glyph glyph-name="iogonek" unicode="&#x12f;" horiz-adv-x="265" d="M259 742 Q266 742 271 735 Q276 728 274 720 L260 614 Q258 601 252.5 597.5 Q247 594 233 594 L125 594 Q113 594 107.5 601.5 Q102 609 104 620 L119 727 Q121 737 123.5 739.5 Q126 742 134 742 L259 742 Z M228 530 Q235 530 240 523 Q245 516 244 508 L175 20 Q172 6 166 2 L168 2 Q109 -18 84.5 -37.5 Q60 -57 60 -83 Q60 -106 89 -106 Q111 -106 130 -98.5 Q149 -91 153 -89 Q157 -87 160 -87 Q164 -87 166 -91 Q168 -95 167 -101 L161 -143 Q159 -159 150 -160 Q105 -173 54 -173 Q3 -173 -25 -152.5 Q-53 -132 -53 -94 Q-53 -85 -52 -80 Q-48 -55 -29 -35.5 Q-10 -16 36 1 Q27 2 23.5 9 Q20 16 22 25 L91 515 Q92 524 94.5 527 Q97 530 105 530 L228 530 Z " />
<glyph glyph-name="itilde" unicode="&#x129;" horiz-adv-x="265" d="M175 20 Q173 7 168.5 3.5 Q164 0 149 0 L43 0 Q31 0 25.5 7 Q20 14 22 25 L91 515 Q92 524 94.5 527 Q97 530 105 530 L228 530 Q235 530 240 523 Q245 516 244 508 L175 20 Z M357 648 Q306 627 265 627 Q244 627 226 631 Q208 635 186 643 Q182 644 162 650 Q142 656 122 656 Q100 656 84 649 Q68 642 49 628 Q47 627 42 627 Q32 627 29 644 L20 687 Q18 695 18 697 Q18 703 25 714 Q51 729 70.5 736.5 Q90 744 116 744 Q138 744 158 739.5 Q178 735 203 726 Q207 725 226.5 718.5 Q246 712 264 712 Q303 712 339 742 Q341 743 345 743 Q360 743 362 725 L367 674 L367 668 Q367 658 357 648 Z " />
<glyph glyph-name="j" unicode="j" horiz-adv-x="265" d="M260 615 Q259 602 253 598 Q247 594 233 594 L118 594 Q103 594 103 613 L104 621 L119 722 Q122 742 137 742 L264 742 Q271 742 273.5 735 Q276 728 274 719 L260 615 Z M173 1 Q160 -88 112.5 -129 Q65 -170 -27 -170 Q-70 -170 -84.5 -164.5 Q-99 -159 -97 -145 L-86 -66 Q-84 -51 -71 -49 L-29 -44 Q-9 -42 4 -27.5 Q17 -13 21 17 L91 515 Q92 524 95.5 527 Q99 530 107 530 L229 530 Q236 530 241 523 Q246 516 245 508 L173 1 Z " />
<glyph glyph-name="uni0237" unicode="&#x237;" horiz-adv-x="258" d="M166 1 Q154 -84 101.5 -127 Q49 -170 -34 -170 Q-72 -170 -85.5 -164 Q-99 -158 -97 -145 L-86 -66 Q-84 -51 -71 -49 L-36 -44 Q-16 -42 -3 -27.5 Q10 -13 14 17 L84 515 Q85 525 88.5 527.5 Q92 530 100 530 L222 530 Q229 530 234 523 Q239 516 238 508 L166 1 Z " />
<glyph glyph-name="jcircumflex" unicode="&#x135;" horiz-adv-x="258" d="M166 1 Q154 -84 101.5 -127 Q49 -170 -34 -170 Q-72 -170 -85.5 -164 Q-99 -158 -97 -145 L-86 -66 Q-84 -51 -71 -49 L-36 -44 Q-16 -42 -3 -27.5 Q10 -13 14 17 L84 515 Q85 525 88.5 527.5 Q92 530 100 530 L222 530 Q229 530 234 523 Q239 516 238 508 L166 1 Z M196 673 Q190 682 185 682 Q182 682 177.5 677.5 Q173 673 167 666 L108 614 Q103 610 99.5 609 Q96 608 92.5 608.5 Q89 609 85 609 L4 609 Q-1 609 -4 611.5 Q-7 614 -7 618 Q-7 622 -2 629 L123 740 Q130 746 137 748 Q144 750 156 750 L229 750 Q239 750 244.5 743 Q250 736 251 735 L343 622 Q346 619 349.5 615 Q353 611 352 610 Q351 609 345 609 L258 609 Q244 609 235 621 L196 673 Z " />
<glyph glyph-name="k" unicode="k" horiz-adv-x="604" d="M549 11 Q549 0 534 0 L404 0 Q387 0 379 24 L304 228 Q301 236 297 236 Q294 236 286 230 L206 158 Q193 147 191 132 L176 20 Q174 7 169.5 3.5 Q165 0 150 0 L45 0 Q20 0 22 25 L121 727 Q122 737 125 739.5 Q128 742 136 742 L264 742 Q271 742 273.5 735.5 Q276 729 274 720 L217 309 Q217 308 216.5 307 Q216 306 216 306 Q216 304 225 314 L443 518 Q456 530 471 530 L578 530 Q587 530 592.5 525.5 Q598 521 598 515 Q598 508 591 502 L429 360 Q418 351 418 340 Q418 335 419 331 L547 20 L549 11 Z " />
<glyph glyph-name="kcommaaccent" unicode="&#x137;" horiz-adv-x="604" d="M549 11 Q549 0 534 0 L404 0 Q387 0 379 24 L304 228 Q301 236 297 236 Q294 236 286 230 L206 158 Q193 147 191 132 L176 20 Q174 7 169.5 3.5 Q165 0 150 0 L45 0 Q20 0 22 25 L121 727 Q122 737 125 739.5 Q128 742 136 742 L264 742 Q271 742 273.5 735.5 Q276 729 274 720 L217 309 Q217 308 216.5 307 Q216 306 216 306 Q216 304 225 314 L443 518 Q456 530 471 530 L578 530 Q587 530 592.5 525.5 Q598 521 598 515 Q598 508 591 502 L429 360 Q418 351 418 340 Q418 335 419 331 L547 20 L549 11 Z M177 -243 Q172 -243 172 -239 Q172 -234 176 -230 L217 -177 Q224 -170 224 -163 Q224 -160 221.5 -158 Q219 -156 215 -156 L192 -156 Q184 -156 182.5 -152.5 Q181 -149 182 -139 L192 -75 Q195 -58 207 -58 L289 -58 Q302 -58 301 -70 L290 -150 Q288 -160 281 -169 L226 -228 Q224 -230 220 -234.5 Q216 -239 211.5 -241 Q207 -243 201 -243 L177 -243 Z " />
<glyph glyph-name="kgreenlandic" unicode="&#x138;" horiz-adv-x="604" d="M549 11 Q549 0 534 0 L404 0 Q394 0 388 7 Q382 14 379 24 L304 231 Q301 237 299 237 Q296 237 288 227 L206 158 Q193 147 191 132 L176 20 Q174 7 169.5 3.5 Q165 0 150 0 L45 0 Q20 0 22 25 L91 515 Q92 525 95 527.5 Q98 530 106 530 L229 530 Q236 530 241 523 Q246 516 244 508 L217 309 Q217 308 216.5 307 Q216 306 216 306 Q216 304 225 314 L443 518 Q456 530 471 530 L578 530 Q587 530 592.5 525.5 Q598 521 598 515 Q598 508 591 502 L429 360 Q418 351 418 340 Q418 335 419 331 L547 20 L549 11 Z " />
<glyph glyph-name="l" unicode="l" horiz-adv-x="266" d="M176 20 Q174 7 169 3.5 Q164 0 149 0 L43 0 Q31 0 25 7 Q19 14 21 25 L124 727 Q125 736 127.5 739 Q130 742 138 742 L264 742 Q277 742 274 723 L176 20 Z " />
<glyph glyph-name="lacute" unicode="&#x13a;" horiz-adv-x="266" d="M176 20 Q174 7 169 3.5 Q164 0 149 0 L43 0 Q31 0 25 7 Q19 14 21 25 L124 727 Q125 736 127.5 739 Q130 742 138 742 L264 742 Q277 742 274 723 L176 20 Z M364 883 Q365 880 365 874 Q365 864 349 860 L109 798 Q106 797 102 797 Q89 797 86 813 L78 848 Q77 852 77 857 Q77 863 82 865 L332 964 Q333 965 336 965 Q340 965 343.5 960.5 Q347 956 349 950 L364 883 Z " />
<glyph glyph-name="lcaron" unicode="&#x13e;" horiz-adv-x="404" d="M176 20 Q174 7 169 3.5 Q164 0 149 0 L43 0 Q31 0 25 7 Q19 14 21 25 L124 727 Q125 736 127.5 739 Q130 742 138 742 L264 742 Q277 742 274 723 L176 20 Z M319 516 Q313 516 309.5 522 Q306 528 308 533 L350 608 Q351 611 353.5 615 Q356 619 355 620.5 Q354 622 350 622 L341 623 Q333 624 328.5 629 Q324 634 325 642 L338 733 Q339 739 340.5 740.5 Q342 742 348 742 L429 742 Q434 742 438 736.5 Q442 731 441 726 L426 619 L423 611 L374 525 Q371 518 367.5 517 Q364 516 350 516 L319 516 Z " />
<glyph glyph-name="lcommaaccent" unicode="&#x13c;" horiz-adv-x="266" d="M176 20 Q174 7 169 3.5 Q164 0 149 0 L43 0 Q31 0 25 7 Q19 14 21 25 L124 727 Q125 736 127.5 739 Q130 742 138 742 L264 742 Q277 742 274 723 L176 20 Z M19 -243 Q14 -243 14 -239 Q14 -234 18 -230 L59 -177 Q66 -170 66 -163 Q66 -160 63.5 -158 Q61 -156 57 -156 L34 -156 Q26 -156 24.5 -152.5 Q23 -149 24 -139 L34 -75 Q37 -58 49 -58 L131 -58 Q144 -58 143 -70 L132 -150 Q130 -160 123 -169 L68 -228 Q66 -230 62 -234.5 Q58 -239 53.5 -241 Q49 -243 43 -243 L19 -243 Z " />
<glyph glyph-name="ldot" unicode="&#x140;" horiz-adv-x="421" d="M176 20 Q174 7 169 3.5 Q164 0 149 0 L43 0 Q31 0 25 7 Q19 14 21 25 L124 727 Q125 736 127.5 739 Q130 742 138 742 L264 742 Q277 742 274 723 L176 20 Z M389 233 Q388 221 384 218 Q380 215 366 215 L254 215 Q243 215 237.5 222 Q232 229 234 238 L251 353 Q252 362 254.5 364 Q257 366 263 366 L392 366 Q399 366 403 360 Q407 354 405 346 L389 233 Z " />
<glyph glyph-name="uni01C9" unicode="&#x1c9;" horiz-adv-x="531" d="M176 20 Q174 7 169 3.5 Q164 0 149 0 L43 0 Q31 0 25 7 Q19 14 21 25 L124 727 Q125 736 127.5 739 Q130 742 138 742 L264 742 Q277 742 274 723 L176 20 Z M526 615 Q525 602 519 598 Q513 594 499 594 L384 594 Q369 594 369 613 L370 621 L385 722 Q388 742 403 742 L530 742 Q537 742 539.5 735 Q542 728 540 719 L526 615 Z M439 1 Q426 -88 378.5 -129 Q331 -170 239 -170 Q196 -170 181.5 -164.5 Q167 -159 169 -145 L180 -66 Q182 -51 195 -49 L237 -44 Q257 -42 270 -27.5 Q283 -13 287 17 L357 515 Q358 524 361.5 527 Q365 530 373 530 L495 530 Q502 530 507 523 Q512 516 511 508 L439 1 Z " />
<glyph glyph-name="lslash" unicode="&#x142;" horiz-adv-x="329" d="M323 484 Q329 487 333 487 Q339 487 341.5 482 Q344 477 343 470 L330 381 Q329 367 314 356 L246 311 L205 20 Q203 7 198 3.5 Q193 0 178 0 L72 0 Q60 0 54 7 Q48 14 50 25 L76 200 L24 166 Q16 161 12 161 Q1 161 3 179 L16 273 Q17 282 20.5 287.5 Q24 293 32 298 L96 339 L153 727 Q154 736 156.5 739 Q159 742 167 742 L293 742 Q306 742 303 723 L264 447 L323 484 Z " />
<glyph glyph-name="m" unicode="m" horiz-adv-x="919" d="M43 0 Q31 0 25.5 6.5 Q20 13 22 25 L91 516 Q92 524 95 527 Q98 530 105 530 L232 530 Q242 530 242 521 Q242 516 241 513 L235 472 L235 469 Q235 461 243 467 Q293 504 334 522.5 Q375 541 418 541 Q470 541 503.5 516 Q537 491 547 449 Q549 445 550 445 Q554 445 566 457 Q610 495 658 517.5 Q706 540 749 540 Q813 540 849.5 503.5 Q886 467 886 405 Q886 385 884 374 L835 20 Q833 8 828 4 Q823 0 811 0 L700 0 Q690 0 685 7 Q680 14 681 25 L728 357 Q730 365 730 379 Q730 429 675 429 Q646 429 618 413.5 Q590 398 568 375 Q552 359 551 346 L504 20 Q503 7 498.5 3.5 Q494 0 481 0 L371 0 Q361 0 355.5 7 Q350 14 352 25 L400 363 Q401 368 401 378 Q401 429 345 429 Q314 429 286 412.5 Q258 396 225 363 L175 19 Q173 6 168.5 3 Q164 0 149 0 L43 0 Z " />
<glyph glyph-name="n" unicode="n" horiz-adv-x="596" d="M36 0 Q21 0 21 16 L22 25 L91 516 Q92 524 95 527 Q98 530 105 530 L233 530 Q239 530 241 527.5 Q243 525 242 517 L235 467 L235 463 Q235 459 237 459 Q239 459 245 465 Q335 540 420 540 Q487 540 525.5 503.5 Q564 467 564 406 Q564 396 562 378 L512 20 Q510 7 505 3.5 Q500 0 487 0 L372 0 Q357 0 357 16 L358 25 L405 359 Q407 373 407 378 Q407 429 348 429 Q316 429 287.5 412.5 Q259 396 225 363 L175 19 Q173 7 168 3.5 Q163 0 148 0 L36 0 Z " />
<glyph glyph-name="nacute" unicode="&#x144;" horiz-adv-x="596" d="M36 0 Q21 0 21 16 L22 25 L91 516 Q92 524 95 527 Q98 530 105 530 L233 530 Q239 530 241 527.5 Q243 525 242 517 L235 467 L235 463 Q235 459 237 459 Q239 459 245 465 Q335 540 420 540 Q487 540 525.5 503.5 Q564 467 564 406 Q564 396 562 378 L512 20 Q510 7 505 3.5 Q500 0 487 0 L372 0 Q357 0 357 16 L358 25 L405 359 Q407 373 407 378 Q407 429 348 429 Q316 429 287.5 412.5 Q259 396 225 363 L175 19 Q173 7 168 3.5 Q163 0 148 0 L36 0 Z M502 671 Q503 668 503 662 Q503 652 487 648 L247 586 Q244 585 240 585 Q227 585 224 601 L216 636 Q215 640 215 645 Q215 651 220 653 L470 752 Q471 753 474 753 Q478 753 481.5 748.5 Q485 744 487 738 L502 671 Z " />
<glyph glyph-name="napostrophe" unicode="&#x149;" horiz-adv-x="700" d="M69 454 Q64 454 63.5 456.5 Q63 459 66 464 L114 575 L116 583 Q116 593 105 595 L96 598 L91 598 Q86 598 85 599.5 Q84 601 85 607 L102 724 Q103 731 108.5 736.5 Q114 742 119 742 L202 742 Q207 742 208 741 Q209 740 208 736 L190 602 Q189 600 187 597.5 Q185 595 185 593 L131 471 Q124 454 101 454 L69 454 Z M140 0 Q125 0 125 16 L126 25 L195 516 Q196 524 199 527 Q202 530 209 530 L337 530 Q343 530 345 527.5 Q347 525 346 517 L339 467 L339 463 Q339 459 341 459 Q343 459 349 465 Q439 540 524 540 Q591 540 629.5 503.5 Q668 467 668 406 Q668 396 666 378 L616 20 Q614 7 609 3.5 Q604 0 591 0 L476 0 Q461 0 461 16 L462 25 L509 359 Q511 373 511 378 Q511 429 452 429 Q420 429 391.5 412.5 Q363 396 329 363 L279 19 Q277 7 272 3.5 Q267 0 252 0 L140 0 Z " />
<glyph glyph-name="ncaron" unicode="&#x148;" horiz-adv-x="596" d="M36 0 Q21 0 21 16 L22 25 L91 516 Q92 524 95 527 Q98 530 105 530 L233 530 Q239 530 241 527.5 Q243 525 242 517 L235 467 L235 463 Q235 459 237 459 Q239 459 245 465 Q335 540 420 540 Q487 540 525.5 503.5 Q564 467 564 406 Q564 396 562 378 L512 20 Q510 7 505 3.5 Q500 0 487 0 L372 0 Q357 0 357 16 L358 25 L405 359 Q407 373 407 378 Q407 429 348 429 Q316 429 287.5 412.5 Q259 396 225 363 L175 19 Q173 7 168 3.5 Q163 0 148 0 L36 0 Z M428 738 Q432 742 436 743 Q440 744 444 743.5 Q448 743 451 743 L537 743 Q549 743 549 735 Q549 730 543 724 L419 610 Q408 602 394 602 L321 602 Q302 602 292 618 L197 730 Q191 738 190.5 740.5 Q190 743 197 743 L278 743 Q286 743 290.5 740 Q295 737 299 731 L344 678 Q351 669 355 669 Q358 669 363.5 675 Q369 681 373 685 L428 738 Z " />
<glyph glyph-name="ncommaaccent" unicode="&#x146;" horiz-adv-x="596" d="M36 0 Q21 0 21 16 L22 25 L91 516 Q92 524 95 527 Q98 530 105 530 L233 530 Q239 530 241 527.5 Q243 525 242 517 L235 467 L235 463 Q235 459 237 459 Q239 459 245 465 Q335 540 420 540 Q487 540 525.5 503.5 Q564 467 564 406 Q564 396 562 378 L512 20 Q510 7 505 3.5 Q500 0 487 0 L372 0 Q357 0 357 16 L358 25 L405 359 Q407 373 407 378 Q407 429 348 429 Q316 429 287.5 412.5 Q259 396 225 363 L175 19 Q173 7 168 3.5 Q163 0 148 0 L36 0 Z M184 -243 Q179 -243 179 -239 Q179 -234 183 -230 L224 -177 Q231 -170 231 -163 Q231 -160 228.5 -158 Q226 -156 222 -156 L199 -156 Q191 -156 189.5 -152.5 Q188 -149 189 -139 L199 -75 Q202 -58 214 -58 L296 -58 Q309 -58 308 -70 L297 -150 Q295 -160 288 -169 L233 -228 Q231 -230 227 -234.5 Q223 -239 218.5 -241 Q214 -243 208 -243 L184 -243 Z " />
<glyph glyph-name="uni1E45" unicode="&#x1e45;" horiz-adv-x="596" d="M36 0 Q21 0 21 16 L22 25 L91 516 Q92 524 95 527 Q98 530 105 530 L233 530 Q239 530 241 527.5 Q243 525 242 517 L235 467 L235 463 Q235 459 237 459 Q239 459 245 465 Q335 540 420 540 Q487 540 525.5 503.5 Q564 467 564 406 Q564 396 562 378 L512 20 Q510 7 505 3.5 Q500 0 487 0 L372 0 Q357 0 357 16 L358 25 L405 359 Q407 373 407 378 Q407 429 348 429 Q316 429 287.5 412.5 Q259 396 225 363 L175 19 Q173 7 168 3.5 Q163 0 148 0 L36 0 Z M432 614 Q430 601 424.5 597.5 Q419 594 405 594 L297 594 Q285 594 279.5 601.5 Q274 609 276 620 L291 727 Q292 737 295 739.5 Q298 742 306 742 L431 742 Q438 742 443 735 Q448 728 446 720 L432 614 Z " />
<glyph glyph-name="eng" unicode="&#x14b;" horiz-adv-x="601" d="M421 540 Q488 540 526.5 503 Q565 466 565 405 Q565 396 563 378 L510 4 Q498 -81 444 -125.5 Q390 -170 310 -170 Q273 -170 260 -164 Q247 -158 249 -145 L260 -67 Q262 -52 275 -50 L308 -45 Q328 -42 341 -27.5 Q354 -13 358 17 L406 361 Q407 367 407 377 Q407 429 348 429 Q288 429 226 362 L176 19 Q175 6 170.5 3 Q166 0 151 0 L43 0 Q31 0 25.5 6.5 Q20 13 22 25 L94 516 Q95 524 98 527 Q101 530 108 530 L227 530 Q234 530 238.5 523.5 Q243 517 242 509 L235 459 L235 457 Q235 455 236 455 Q237 455 244 467 Q293 504 335.5 522 Q378 540 421 540 Z " />
<glyph glyph-name="uni01CC" unicode="&#x1cc;" horiz-adv-x="861" d="M36 0 Q21 0 21 16 L22 25 L91 516 Q92 524 95 527 Q98 530 105 530 L233 530 Q239 530 241 527.5 Q243 525 242 517 L235 467 L235 463 Q235 459 237 459 Q239 459 245 465 Q335 540 420 540 Q487 540 525.5 503.5 Q564 467 564 406 Q564 396 562 378 L512 20 Q510 7 505 3.5 Q500 0 487 0 L372 0 Q357 0 357 16 L358 25 L405 359 Q407 373 407 378 Q407 429 348 429 Q316 429 287.5 412.5 Q259 396 225 363 L175 19 Q173 7 168 3.5 Q163 0 148 0 L36 0 Z M856 615 Q855 602 849 598 Q843 594 829 594 L714 594 Q699 594 699 613 L700 621 L715 722 Q718 742 733 742 L860 742 Q867 742 869.5 735 Q872 728 870 719 L856 615 Z M769 1 Q756 -88 708.5 -129 Q661 -170 569 -170 Q526 -170 511.5 -164.5 Q497 -159 499 -145 L510 -66 Q512 -51 525 -49 L567 -44 Q587 -42 600 -27.5 Q613 -13 617 17 L687 515 Q688 524 691.5 527 Q695 530 703 530 L825 530 Q832 530 837 523 Q842 516 841 508 L769 1 Z " />
<glyph glyph-name="ntilde" unicode="&#xf1;" horiz-adv-x="596" d="M36 0 Q21 0 21 16 L22 25 L91 516 Q92 524 95 527 Q98 530 105 530 L233 530 Q239 530 241 527.5 Q243 525 242 517 L235 467 L235 463 Q235 459 237 459 Q239 459 245 465 Q335 540 420 540 Q487 540 525.5 503.5 Q564 467 564 406 Q564 396 562 378 L512 20 Q510 7 505 3.5 Q500 0 487 0 L372 0 Q357 0 357 16 L358 25 L405 359 Q407 373 407 378 Q407 429 348 429 Q316 429 287.5 412.5 Q259 396 225 363 L175 19 Q173 7 168 3.5 Q163 0 148 0 L36 0 Z M529 648 Q478 627 437 627 Q416 627 398 631 Q380 635 358 643 Q354 644 334 650 Q314 656 294 656 Q272 656 256 649 Q240 642 221 628 Q219 627 214 627 Q204 627 201 644 L192 687 Q190 695 190 697 Q190 703 197 714 Q223 729 242.5 736.5 Q262 744 288 744 Q310 744 330 739.5 Q350 735 375 726 Q379 725 398.5 718.5 Q418 712 436 712 Q475 712 511 742 Q513 743 517 743 Q532 743 534 725 L539 674 L539 668 Q539 658 529 648 Z " />
<glyph glyph-name="o" unicode="o" horiz-adv-x="599" d="M266 -10 Q194 -10 140 19 Q86 48 57 101 Q28 154 28 223 Q28 314 69.5 386.5 Q111 459 181 499.5 Q251 540 333 540 Q405 540 459 510 Q513 480 541.5 426 Q570 372 570 302 Q570 213 530 142 Q490 71 420.5 30.5 Q351 -10 266 -10 Z M270 92 Q312 92 345.5 120 Q379 148 398.5 202 Q418 256 418 332 Q418 385 396 413 Q374 441 331 441 Q289 441 255.5 412.5 Q222 384 202 329.5 Q182 275 182 199 Q182 146 204.5 119 Q227 92 270 92 Z " />
<glyph glyph-name="oacute" unicode="&#xf3;" horiz-adv-x="599" d="M266 -10 Q194 -10 140 19 Q86 48 57 101 Q28 154 28 223 Q28 314 69.5 386.5 Q111 459 181 499.5 Q251 540 333 540 Q405 540 459 510 Q513 480 541.5 426 Q570 372 570 302 Q570 213 530 142 Q490 71 420.5 30.5 Q351 -10 266 -10 Z M270 92 Q312 92 345.5 120 Q379 148 398.5 202 Q418 256 418 332 Q418 385 396 413 Q374 441 331 441 Q289 441 255.5 412.5 Q222 384 202 329.5 Q182 275 182 199 Q182 146 204.5 119 Q227 92 270 92 Z M498 671 Q499 668 499 662 Q499 652 483 648 L243 586 Q240 585 236 585 Q223 585 220 601 L212 636 Q211 640 211 645 Q211 651 216 653 L466 752 Q467 753 470 753 Q474 753 477.5 748.5 Q481 744 483 738 L498 671 Z " />
<glyph glyph-name="obreve" unicode="&#x14f;" horiz-adv-x="599" d="M266 -10 Q194 -10 140 19 Q86 48 57 101 Q28 154 28 223 Q28 314 69.5 386.5 Q111 459 181 499.5 Q251 540 333 540 Q405 540 459 510 Q513 480 541.5 426 Q570 372 570 302 Q570 213 530 142 Q490 71 420.5 30.5 Q351 -10 266 -10 Z M270 92 Q312 92 345.5 120 Q379 148 398.5 202 Q418 256 418 332 Q418 385 396 413 Q374 441 331 441 Q289 441 255.5 412.5 Q222 384 202 329.5 Q182 275 182 199 Q182 146 204.5 119 Q227 92 270 92 Z M534 742 Q540 742 543.5 738 Q547 734 547 728 Q547 723 544 717 Q519 666 468.5 637.5 Q418 609 355 609 Q211 609 191 722 L190 729 Q190 742 205 742 L265 742 Q270 742 273 739.5 Q276 737 279 731.5 Q282 726 285 722 Q296 706 315 695.5 Q334 685 359 685 Q387 685 412 697.5 Q437 710 453 732 Q460 742 473 742 L534 742 Z " />
<glyph glyph-name="ocircumflex" unicode="&#xf4;" horiz-adv-x="599" d="M266 -10 Q194 -10 140 19 Q86 48 57 101 Q28 154 28 223 Q28 314 69.5 386.5 Q111 459 181 499.5 Q251 540 333 540 Q405 540 459 510 Q513 480 541.5 426 Q570 372 570 302 Q570 213 530 142 Q490 71 420.5 30.5 Q351 -10 266 -10 Z M270 92 Q312 92 345.5 120 Q379 148 398.5 202 Q418 256 418 332 Q418 385 396 413 Q374 441 331 441 Q289 441 255.5 412.5 Q222 384 202 329.5 Q182 275 182 199 Q182 146 204.5 119 Q227 92 270 92 Z M372 673 Q366 682 361 682 Q358 682 353.5 677.5 Q349 673 343 666 L284 614 Q279 610 275.5 609 Q272 608 268.5 608.5 Q265 609 261 609 L180 609 Q175 609 172 611.5 Q169 614 169 618 Q169 622 174 629 L299 740 Q306 746 313 748 Q320 750 332 750 L405 750 Q415 750 420.5 743 Q426 736 427 735 L519 622 Q522 619 525.5 615 Q529 611 528 610 Q527 609 521 609 L434 609 Q420 609 411 621 L372 673 Z " />
<glyph glyph-name="uni020D" unicode="&#x20d;" horiz-adv-x="599" d="M266 -10 Q194 -10 140 19 Q86 48 57 101 Q28 154 28 223 Q28 314 69.5 386.5 Q111 459 181 499.5 Q251 540 333 540 Q405 540 459 510 Q513 480 541.5 426 Q570 372 570 302 Q570 213 530 142 Q490 71 420.5 30.5 Q351 -10 266 -10 Z M270 92 Q312 92 345.5 120 Q379 148 398.5 202 Q418 256 418 332 Q418 385 396 413 Q374 441 331 441 Q289 441 255.5 412.5 Q222 384 202 329.5 Q182 275 182 199 Q182 146 204.5 119 Q227 92 270 92 Z M182 750 Q185 753 188 753 Q192 753 200 745 L316 619 Q322 615 322 608 Q322 604 317 599 L286 570 Q282 566 277 566 Q273 566 268 569.5 Q263 573 261 575 L136 667 Q125 674 125 684 Q125 691 131 698 L182 750 Z M378 750 Q381 753 384 753 Q390 753 396 745 L512 619 Q518 615 518 608 Q518 604 513 599 L482 570 Q478 566 474 566 Q470 566 465 569.5 Q460 573 458 575 L332 667 Q321 674 321 684 Q321 691 327 698 L378 750 Z " />
<glyph glyph-name="odieresis" unicode="&#xf6;" horiz-adv-x="599" d="M266 -10 Q194 -10 140 19 Q86 48 57 101 Q28 154 28 223 Q28 314 69.5 386.5 Q111 459 181 499.5 Q251 540 333 540 Q405 540 459 510 Q513 480 541.5 426 Q570 372 570 302 Q570 213 530 142 Q490 71 420.5 30.5 Q351 -10 266 -10 Z M270 92 Q312 92 345.5 120 Q379 148 398.5 202 Q418 256 418 332 Q418 385 396 413 Q374 441 331 441 Q289 441 255.5 412.5 Q222 384 202 329.5 Q182 275 182 199 Q182 146 204.5 119 Q227 92 270 92 Z M317 628 Q316 617 311.5 614.5 Q307 612 294 612 L201 612 Q190 612 185 618.5 Q180 625 182 635 L195 729 Q196 738 198.5 740 Q201 742 208 742 L316 742 Q323 742 327.5 736 Q332 730 331 722 L317 628 Z M520 628 Q519 617 514.5 614.5 Q510 612 497 612 L404 612 Q393 612 388 618.5 Q383 625 385 635 L398 729 Q399 738 401.5 740 Q404 742 411 742 L519 742 Q526 742 530.5 735.5 Q535 729 533 722 L520 628 Z " />
</font>
</svg>
