<?xml version="1.0" encoding="UTF-8"?>
<svg xmlns="http://www.w3.org/2000/svg" xmlns:xlink="http://www.w3.org/1999/xlink" version="1.2" >
<font id="LibreFranklin-Light">
<font-face  font-family="Libre Franklin" units-per-em="1000" ascent="966" descent="-246" font-style="normal" font-weight="300" font-stretch="normal" cap-height="742" x-height="530" underline-position="-75" underline-thickness="50" />
<missing-glyph  horiz-adv-x="716" d="M594 847 Q602 847 607 841.5 Q612 836 612 826 L612 -136 Q612 -152 604 -158.5 Q596 -165 579 -165 L131 -165 Q116 -165 110 -159 Q104 -153 104 -140 L104 824 Q104 835 109 841 Q114 847 123 847 L594 847 Z M560 779 Q560 787 556 792 Q552 797 545 797 L192 797 L560 -58 L560 779 Z M156 -94 Q156 -105 161 -110 Q166 -115 179 -115 L523 -115 L156 734 L156 -94 Z " />
<glyph glyph-name="nonmarkingreturn" unicode="&#xd;" horiz-adv-x="214" d="" />
<glyph glyph-name="space" unicode="&#x20;" horiz-adv-x="217" d="" />
<glyph glyph-name="A" unicode="A" horiz-adv-x="716" d="M57 0 Q52 0 49.5 3.5 Q47 7 49 14 L310 729 Q313 736 317 739 Q321 742 328 742 L388 742 Q405 742 409 729 L667 14 Q668 12 668 9 Q668 0 659 0 L607 0 Q595 0 592 9 L518 215 Q515 223 507 223 L203 223 Q195 223 192 215 L116 8 Q114 0 103 0 L57 0 Z M485 284 Q495 284 492 295 L363 650 Q360 659 356 659 Q352 659 348 649 L217 294 Q215 290 215 288 Q215 284 223 284 L485 284 Z " />
<glyph glyph-name="Aacute" unicode="&#xc1;" horiz-adv-x="716" d="M57 0 Q52 0 49.5 3.5 Q47 7 49 14 L310 729 Q313 736 317 739 Q321 742 328 742 L388 742 Q405 742 409 729 L667 14 Q668 12 668 9 Q668 0 659 0 L607 0 Q595 0 592 9 L518 215 Q515 223 507 223 L203 223 Q195 223 192 215 L116 8 Q114 0 103 0 L57 0 Z M485 284 Q495 284 492 295 L363 650 Q360 659 356 659 Q352 659 348 649 L217 294 Q215 290 215 288 Q215 284 223 284 L485 284 Z M486 919 Q487 917 487 913 Q487 907 477 903 L249 830 Q247 829 243 829 Q236 829 235 836 L228 856 L227 860 Q227 866 232 868 L462 963 L465 963 Q470 963 473 959 L486 919 Z " />
<glyph glyph-name="Abreve" unicode="&#x102;" horiz-adv-x="716" d="M57 0 Q52 0 49.5 3.5 Q47 7 49 14 L310 729 Q313 736 317 739 Q321 742 328 742 L388 742 Q405 742 409 729 L667 14 Q668 12 668 9 Q668 0 659 0 L607 0 Q595 0 592 9 L518 215 Q515 223 507 223 L203 223 Q195 223 192 215 L116 8 Q114 0 103 0 L57 0 Z M485 284 Q495 284 492 295 L363 650 Q360 659 356 659 Q352 659 348 649 L217 294 Q215 290 215 288 Q215 284 223 284 L485 284 Z M489 954 Q495 954 497 952 Q499 950 497 944 Q487 908 449 880.5 Q411 853 355 853 Q300 853 264.5 880 Q229 907 217 945 L217 948 Q217 954 223 954 L264 954 Q273 954 278 946 Q294 925 309.5 913.5 Q325 902 355 902 Q407 902 436 947 Q438 951 440.5 952.5 Q443 954 447 954 L489 954 Z " />
<glyph glyph-name="Acircumflex" unicode="&#xc2;" horiz-adv-x="716" d="M57 0 Q52 0 49.5 3.5 Q47 7 49 14 L310 729 Q313 736 317 739 Q321 742 328 742 L388 742 Q405 742 409 729 L667 14 Q668 12 668 9 Q668 0 659 0 L607 0 Q595 0 592 9 L518 215 Q515 223 507 223 L203 223 Q195 223 192 215 L116 8 Q114 0 103 0 L57 0 Z M485 284 Q495 284 492 295 L363 650 Q360 659 356 659 Q352 659 348 649 L217 294 Q215 290 215 288 Q215 284 223 284 L485 284 Z M367 904 Q360 911 357 911 Q354 911 346 904 L287 855 Q282 851 279 849.5 Q276 848 270 848 L223 848 Q217 848 216 851 Q215 854 220 859 L322 946 Q332 956 344 956 L375 956 Q382 956 387 952 Q392 948 393 947 L493 859 Q506 848 492 848 L440 848 Q431 848 423 855 L367 904 Z " />
<glyph glyph-name="uni0200" unicode="&#x200;" horiz-adv-x="716" d="M57 0 Q52 0 49.5 3.5 Q47 7 49 14 L310 729 Q313 736 317 739 Q321 742 328 742 L388 742 Q405 742 409 729 L667 14 Q668 12 668 9 Q668 0 659 0 L607 0 Q595 0 592 9 L518 215 Q515 223 507 223 L203 223 Q195 223 192 215 L116 8 Q114 0 103 0 L57 0 Z M485 284 Q495 284 492 295 L363 650 Q360 659 356 659 Q352 659 348 649 L217 294 Q215 290 215 288 Q215 284 223 284 L485 284 Z M183 961 Q189 967 195 962 L316 828 Q321 821 315 816 L302 799 Q299 794 295 794 Q293 794 287 798 L160 912 Q153 916 153 921 Q153 923 157 929 L183 961 Z M336 961 Q342 967 348 962 L468 828 Q475 821 468 816 L455 799 Q452 794 448 794 Q446 794 440 798 L313 912 Q306 916 306 921 Q306 923 310 929 L336 961 Z " />
<glyph glyph-name="Adieresis" unicode="&#xc4;" horiz-adv-x="716" d="M57 0 Q52 0 49.5 3.5 Q47 7 49 14 L310 729 Q313 736 317 739 Q321 742 328 742 L388 742 Q405 742 409 729 L667 14 Q668 12 668 9 Q668 0 659 0 L607 0 Q595 0 592 9 L518 215 Q515 223 507 223 L203 223 Q195 223 192 215 L116 8 Q114 0 103 0 L57 0 Z M485 284 Q495 284 492 295 L363 650 Q360 659 356 659 Q352 659 348 649 L217 294 Q215 290 215 288 Q215 284 223 284 L485 284 Z M326 863 Q326 855 323 852 Q320 849 311 849 L269 849 Q261 849 258.5 851.5 Q256 854 256 861 L256 942 Q256 954 266 954 L316 954 Q326 954 326 943 L326 863 Z M458 863 Q458 855 454.5 852 Q451 849 443 849 L401 849 Q393 849 390.5 851.5 Q388 854 388 861 L388 942 Q388 954 398 954 L447 954 Q458 954 458 943 L458 863 Z " />
<glyph glyph-name="Agrave" unicode="&#xc0;" horiz-adv-x="716" d="M57 0 Q52 0 49.5 3.5 Q47 7 49 14 L310 729 Q313 736 317 739 Q321 742 328 742 L388 742 Q405 742 409 729 L667 14 Q668 12 668 9 Q668 0 659 0 L607 0 Q595 0 592 9 L518 215 Q515 223 507 223 L203 223 Q195 223 192 215 L116 8 Q114 0 103 0 L57 0 Z M485 284 Q495 284 492 295 L363 650 Q360 659 356 659 Q352 659 348 649 L217 294 Q215 290 215 288 Q215 284 223 284 L485 284 Z M226 959 Q229 965 236 963 L467 868 Q474 865 471 856 L464 836 Q462 831 459 829.5 Q456 828 450 830 L222 903 Q215 906 213 909.5 Q211 913 213 919 L226 959 Z " />
<glyph glyph-name="uni0202" unicode="&#x202;" horiz-adv-x="716" d="M57 0 Q52 0 49.5 3.5 Q47 7 49 14 L310 729 Q313 736 317 739 Q321 742 328 742 L388 742 Q405 742 409 729 L667 14 Q668 12 668 9 Q668 0 659 0 L607 0 Q595 0 592 9 L518 215 Q515 223 507 223 L203 223 Q195 223 192 215 L116 8 Q114 0 103 0 L57 0 Z M485 284 Q495 284 492 295 L363 650 Q360 659 356 659 Q352 659 348 649 L217 294 Q215 290 215 288 Q215 284 223 284 L485 284 Z M447 859 Q443 859 440.5 860.5 Q438 862 436 866 Q407 911 355 911 Q325 911 309.5 899.5 Q294 888 278 867 Q273 859 264 859 L223 859 Q215 859 217 868 Q229 906 264.5 933 Q300 960 355 960 Q411 960 449 932.5 Q487 905 497 869 Q498 867 498 864 Q498 859 489 859 L447 859 Z " />
<glyph glyph-name="Amacron" unicode="&#x100;" horiz-adv-x="716" d="M57 0 Q52 0 49.5 3.5 Q47 7 49 14 L310 729 Q313 736 317 739 Q321 742 328 742 L388 742 Q405 742 409 729 L667 14 Q668 12 668 9 Q668 0 659 0 L607 0 Q595 0 592 9 L518 215 Q515 223 507 223 L203 223 Q195 223 192 215 L116 8 Q114 0 103 0 L57 0 Z M485 284 Q495 284 492 295 L363 650 Q360 659 356 659 Q352 659 348 649 L217 294 Q215 290 215 288 Q215 284 223 284 L485 284 Z M496 896 Q496 885 483 885 L227 885 Q218 885 218 896 L218 928 Q218 937 225 937 L489 937 Q496 937 496 929 L496 896 Z " />
<glyph glyph-name="Aogonek" unicode="&#x104;" horiz-adv-x="716" d="M681 -115 Q691 -109 691 -119 L691 -144 Q691 -151 685 -154 Q671 -160 648 -165 Q625 -170 602 -170 Q554 -170 529.5 -149 Q505 -128 505 -91 Q505 -59 525.5 -36 Q546 -13 595 3 L592 9 L518 215 Q515 223 507 223 L203 223 Q195 223 192 215 L116 8 Q114 0 103 0 L57 0 Q52 0 49.5 3.5 Q47 7 49 14 L310 729 Q313 736 317 739 Q321 742 328 742 L388 742 Q405 742 409 729 L667 14 Q668 12 668 9 Q668 0 660 0 Q609 -23 586.5 -42.5 Q564 -62 564 -88 Q564 -128 617 -128 Q637 -128 654 -124 Q671 -120 681 -115 Z M485 284 Q495 284 492 295 L363 650 Q360 659 356 659 Q352 659 348 649 L217 294 Q215 290 215 288 Q215 284 223 284 L485 284 Z " />
<glyph glyph-name="Aring" unicode="&#xc5;" horiz-adv-x="716" d="M57 0 Q52 0 49.5 3.5 Q47 7 49 14 L310 729 Q313 736 317 739 Q321 742 328 742 L388 742 Q405 742 409 729 L667 14 Q668 12 668 9 Q668 0 659 0 L607 0 Q595 0 592 9 L518 215 Q515 223 507 223 L203 223 Q195 223 192 215 L116 8 Q114 0 103 0 L57 0 Z M485 284 Q495 284 492 295 L363 650 Q360 659 356 659 Q352 659 348 649 L217 294 Q215 290 215 288 Q215 284 223 284 L485 284 Z M460 862 Q460 819 430 789.5 Q400 760 357 760 Q313 760 283.5 790 Q254 820 254 864 Q254 905 284 934 Q314 963 357 963 Q400 963 430 934 Q460 905 460 862 Z M412 861 Q412 886 396 902 Q380 918 356 918 Q333 918 315.5 902 Q298 886 298 861 Q298 839 315.5 821.5 Q333 804 356 804 Q380 804 396 821 Q412 838 412 861 Z " />
<glyph glyph-name="Aringacute" unicode="&#x1fa;" horiz-adv-x="649" d="M618 10 Q618 0 608 0 L553 0 Q543 0 540 9 L470 215 Q467 223 459 223 L179 223 Q171 223 168 215 L97 8 Q94 0 84 0 L41 0 Q36 0 33.5 4 Q31 8 33 14 L273 714 Q250 728 236.5 751 Q223 774 223 803 Q223 839 248.5 866.5 Q274 894 311 899 L323 948 Q326 964 344 964 L371 964 Q383 964 383 954 L381 946 L359 895 Q389 884 408 859 Q427 834 427 801 Q427 774 414.5 751.5 Q402 729 380 716 L617 14 L618 10 Z M324 857 Q301 857 284 841 Q267 825 267 800 Q267 778 284.5 760.5 Q302 743 324 743 Q348 743 364 760 Q380 777 380 800 Q380 825 364 841 Q348 857 324 857 Z M439 284 Q449 284 446 295 L327 650 Q324 659 320 659 Q316 659 312 649 L192 294 Q189 288 190.5 286 Q192 284 197 284 L439 284 Z " />
<glyph glyph-name="Atilde" unicode="&#xc3;" horiz-adv-x="716" d="M57 0 Q52 0 49.5 3.5 Q47 7 49 14 L310 729 Q313 736 317 739 Q321 742 328 742 L388 742 Q405 742 409 729 L667 14 Q668 12 668 9 Q668 0 659 0 L607 0 Q595 0 592 9 L518 215 Q515 223 507 223 L203 223 Q195 223 192 215 L116 8 Q114 0 103 0 L57 0 Z M485 284 Q495 284 492 295 L363 650 Q360 659 356 659 Q352 659 348 649 L217 294 Q215 290 215 288 Q215 284 223 284 L485 284 Z M492 895 Q461 875 420 875 Q401 875 386 878.5 Q371 882 352 889 Q349 890 332 895 Q315 900 298 900 Q281 900 270 895.5 Q259 891 250.5 886 Q242 881 239 879 L233 876 Q229 876 226 884 L218 906 Q216 911 216.5 913 Q217 915 221 917 Q239 931 255 938.5 Q271 946 294 946 Q319 946 359 932 Q363 931 382 925 Q401 919 420 919 Q436 919 446.5 923 Q457 927 475 937 Q479 940 482 940 Q486 940 489 933 L498 908 L499 904 Q499 899 492 895 Z " />
<glyph glyph-name="AE" unicode="&#xc6;" horiz-adv-x="990" d="M931 60 Q937 60 939.5 58.5 Q942 57 942 51 L942 9 Q942 0 932 0 L510 0 Q503 0 500.5 2.5 Q498 5 498 12 L498 216 Q498 223 492 223 L246 223 Q238 223 233 215 L116 8 Q111 0 102 0 L56 0 Q50 0 48.5 4 Q47 8 50 14 L454 729 Q460 742 474 742 L919 742 Q928 742 928 733 L927 692 Q927 686 924.5 684 Q922 682 916 682 L585 682 Q578 682 575.5 680 Q573 678 573 671 L573 414 Q573 408 575.5 406 Q578 404 584 404 L838 404 Q848 404 848 395 L848 353 Q848 345 838 345 L584 345 Q578 345 575.5 343 Q573 341 573 335 L573 70 Q573 64 575 62 Q577 60 583 60 L931 60 Z M488 284 Q498 284 498 295 L498 655 Q498 667 492 667 Q486 667 479 654 L271 294 Q268 288 269 286 Q270 284 275 284 L488 284 Z " />
<glyph glyph-name="AEacute" unicode="&#x1fc;" horiz-adv-x="990" d="M931 60 Q937 60 939.5 58.5 Q942 57 942 51 L942 9 Q942 0 932 0 L510 0 Q503 0 500.5 2.5 Q498 5 498 12 L498 216 Q498 223 492 223 L246 223 Q238 223 233 215 L116 8 Q111 0 102 0 L56 0 Q50 0 48.5 4 Q47 8 50 14 L454 729 Q460 742 474 742 L919 742 Q928 742 928 733 L927 692 Q927 686 924.5 684 Q922 682 916 682 L585 682 Q578 682 575.5 680 Q573 678 573 671 L573 414 Q573 408 575.5 406 Q578 404 584 404 L838 404 Q848 404 848 395 L848 353 Q848 345 838 345 L584 345 Q578 345 575.5 343 Q573 341 573 335 L573 70 Q573 64 575 62 Q577 60 583 60 L931 60 Z M488 284 Q498 284 498 295 L498 655 Q498 667 492 667 Q486 667 479 654 L271 294 Q268 288 269 286 Q270 284 275 284 L488 284 Z M817 919 Q818 917 818 913 Q818 907 808 903 L580 830 Q578 829 574 829 Q567 829 566 836 L559 856 L558 860 Q558 866 563 868 L793 963 L796 963 Q801 963 804 959 L817 919 Z " />
<glyph glyph-name="B" unicode="B" horiz-adv-x="693" d="M114 0 Q104 0 104 10 L104 729 Q104 736 106.5 739 Q109 742 116 742 L336 742 Q466 742 536.5 692.5 Q607 643 607 550 Q607 427 476 383 Q472 382 472 378.5 Q472 375 476 374 Q548 358 586.5 313.5 Q625 269 625 198 Q625 99 552 49.5 Q479 0 341 0 L114 0 Z M348 404 Q425 404 478 435.5 Q531 467 531 542 Q531 613 479 648.5 Q427 684 334 684 L191 684 Q185 684 182 682 Q179 680 179 674 L179 416 Q179 404 188 404 L348 404 Z M336 58 Q444 58 495.5 91 Q547 124 547 197 Q547 273 493 309.5 Q439 346 348 346 L192 346 Q179 346 179 335 L179 70 Q179 58 188 58 L336 58 Z " />
<glyph glyph-name="C" unicode="C" horiz-adv-x="702" d="M377 752 Q440 752 498.5 724 Q557 696 595.5 649.5 Q634 603 641 550 L642 545 Q642 539 634 539 L576 534 L573 534 Q570 534 568.5 536.5 Q567 539 567 543 Q551 611 500.5 651.5 Q450 692 379 692 Q267 692 208 610 Q149 528 149 369 Q149 214 208.5 133 Q268 52 386 52 Q460 52 508.5 88 Q557 124 587 200 Q589 204 596 203 L645 190 Q650 188 649 179 Q633 127 596 84 Q559 41 503.5 15.5 Q448 -10 381 -10 Q284 -10 214 35.5 Q144 81 107 166.5 Q70 252 70 370 Q70 489 106.5 575 Q143 661 212.5 706.5 Q282 752 377 752 Z " />
<glyph glyph-name="Cacute" unicode="&#x106;" horiz-adv-x="702" d="M377 752 Q440 752 498.5 724 Q557 696 595.5 649.5 Q634 603 641 550 L642 545 Q642 539 634 539 L576 534 L573 534 Q570 534 568.5 536.5 Q567 539 567 543 Q551 611 500.5 651.5 Q450 692 379 692 Q267 692 208 610 Q149 528 149 369 Q149 214 208.5 133 Q268 52 386 52 Q460 52 508.5 88 Q557 124 587 200 Q589 204 596 203 L645 190 Q650 188 649 179 Q633 127 596 84 Q559 41 503.5 15.5 Q448 -10 381 -10 Q284 -10 214 35.5 Q144 81 107 166.5 Q70 252 70 370 Q70 489 106.5 575 Q143 661 212.5 706.5 Q282 752 377 752 Z M506 919 Q507 917 507 913 Q507 907 497 903 L269 830 Q267 829 263 829 Q256 829 255 836 L248 856 L247 860 Q247 866 252 868 L482 963 L485 963 Q490 963 493 959 L506 919 Z " />
<glyph glyph-name="Ccaron" unicode="&#x10c;" horiz-adv-x="702" d="M377 752 Q440 752 498.5 724 Q557 696 595.5 649.5 Q634 603 641 550 L642 545 Q642 539 634 539 L576 534 L573 534 Q570 534 568.5 536.5 Q567 539 567 543 Q551 611 500.5 651.5 Q450 692 379 692 Q267 692 208 610 Q149 528 149 369 Q149 214 208.5 133 Q268 52 386 52 Q460 52 508.5 88 Q557 124 587 200 Q589 204 596 203 L645 190 Q650 188 649 179 Q633 127 596 84 Q559 41 503.5 15.5 Q448 -10 381 -10 Q284 -10 214 35.5 Q144 81 107 166.5 Q70 252 70 370 Q70 489 106.5 575 Q143 661 212.5 706.5 Q282 752 377 752 Z M443 948 Q452 954 460 954 L512 954 Q519 954 519 951 Q519 948 513 943 L413 855 Q411 854 406.5 850 Q402 846 395 846 L364 846 Q354 846 342 856 L240 943 Q236 947 236 950 Q236 954 243 954 L290 954 Q295 954 298.5 952.5 Q302 951 307 948 L366 899 Q374 892 377 892 Q380 892 387 899 L443 948 Z " />
<glyph glyph-name="Ccedilla" unicode="&#xc7;" horiz-adv-x="702" d="M645 190 Q650 188 649 179 Q625 102 558 48.5 Q491 -5 398 -10 L380 -53 Q379 -57 384 -57 Q427 -60 446 -81 Q465 -102 465 -130 Q465 -167 435 -187 Q405 -207 359 -207 Q310 -207 278 -186 Q273 -183 274 -178 L284 -155 Q287 -150 292 -153 Q305 -162 318.5 -167 Q332 -172 352 -172 Q410 -172 410 -131 Q410 -109 391 -98 Q372 -87 331 -85 Q323 -85 326 -80 L356 -9 Q220 -1 145 99 Q70 199 70 370 Q70 489 106.5 575 Q143 661 212.5 706.5 Q282 752 377 752 Q440 752 498.5 724 Q557 696 595.5 649.5 Q634 603 641 550 L642 545 Q642 539 634 539 L576 534 L573 534 Q570 534 568.5 536.5 Q567 539 567 543 Q551 611 500.5 651.5 Q450 692 379 692 Q267 692 208 610 Q149 528 149 369 Q149 214 208.5 133 Q268 52 386 52 Q460 52 508.5 88 Q557 124 587 200 Q589 204 596 203 L645 190 Z " />
<glyph glyph-name="Ccircumflex" unicode="&#x108;" horiz-adv-x="702" d="M377 752 Q440 752 498.5 724 Q557 696 595.5 649.5 Q634 603 641 550 L642 545 Q642 539 634 539 L576 534 L573 534 Q570 534 568.5 536.5 Q567 539 567 543 Q551 611 500.5 651.5 Q450 692 379 692 Q267 692 208 610 Q149 528 149 369 Q149 214 208.5 133 Q268 52 386 52 Q460 52 508.5 88 Q557 124 587 200 Q589 204 596 203 L645 190 Q650 188 649 179 Q633 127 596 84 Q559 41 503.5 15.5 Q448 -10 381 -10 Q284 -10 214 35.5 Q144 81 107 166.5 Q70 252 70 370 Q70 489 106.5 575 Q143 661 212.5 706.5 Q282 752 377 752 Z M387 904 Q380 911 377 911 Q374 911 366 904 L307 855 Q302 851 299 849.5 Q296 848 290 848 L243 848 Q237 848 236 851 Q235 854 240 859 L342 946 Q352 956 364 956 L395 956 Q402 956 407 952 Q412 948 413 947 L513 859 Q526 848 512 848 L460 848 Q451 848 443 855 L387 904 Z " />
<glyph glyph-name="Cdotaccent" unicode="&#x10a;" horiz-adv-x="702" d="M377 752 Q440 752 498.5 724 Q557 696 595.5 649.5 Q634 603 641 550 L642 545 Q642 539 634 539 L576 534 L573 534 Q570 534 568.5 536.5 Q567 539 567 543 Q551 611 500.5 651.5 Q450 692 379 692 Q267 692 208 610 Q149 528 149 369 Q149 214 208.5 133 Q268 52 386 52 Q460 52 508.5 88 Q557 124 587 200 Q589 204 596 203 L645 190 Q650 188 649 179 Q633 127 596 84 Q559 41 503.5 15.5 Q448 -10 381 -10 Q284 -10 214 35.5 Q144 81 107 166.5 Q70 252 70 370 Q70 489 106.5 575 Q143 661 212.5 706.5 Q282 752 377 752 Z M414 859 Q414 851 411 848 Q408 845 399 845 L353 845 Q346 845 343 847.5 Q340 850 340 857 L340 942 Q340 949 342.5 951.5 Q345 954 351 954 L404 954 Q410 954 412 951.5 Q414 949 414 942 L414 859 Z " />
<glyph glyph-name="D" unicode="D" horiz-adv-x="714" d="M256 741 Q459 739 552 649.5 Q645 560 645 376 Q645 185 546 92.5 Q447 0 244 0 L116 0 Q104 0 104 13 L104 731 Q104 742 116 742 L256 741 Z M187 682 Q179 682 179 668 L179 69 Q179 59 191 59 L234 59 Q354 59 426 90 Q498 121 532 189.5 Q566 258 566 373 Q566 490 532.5 556 Q499 622 431 650.5 Q363 679 249 682 L187 682 Z " />
<glyph glyph-name="uni01F1" unicode="&#x1f1;" horiz-adv-x="1275" d="M256 741 Q459 739 552 649.5 Q645 560 645 376 Q645 185 546 92.5 Q447 0 244 0 L116 0 Q104 0 104 13 L104 731 Q104 742 116 742 L256 741 Z M187 682 Q179 682 179 668 L179 69 Q179 59 191 59 L234 59 Q354 59 426 90 Q498 121 532 189.5 Q566 258 566 373 Q566 490 532.5 556 Q499 622 431 650.5 Q363 679 249 682 L187 682 Z M718 0 Q712 0 709.5 2 Q707 4 707 10 L707 30 Q707 36 709.5 41 Q712 46 717 52 L1118 673 Q1124 682 1114 682 L730 682 Q721 682 721 691 L721 734 Q721 742 729 742 L1215 742 Q1224 742 1224 734 L1224 711 Q1224 707 1221.5 702 Q1219 697 1217 694 L810 69 Q804 60 813 60 L1214 60 Q1219 60 1221 58.5 Q1223 57 1223 53 L1223 9 Q1223 0 1213 0 L718 0 Z " />
<glyph glyph-name="uni01C4" unicode="&#x1c4;" horiz-adv-x="1313" d="M256 741 Q459 739 552 649.5 Q645 560 645 376 Q645 185 546 92.5 Q447 0 244 0 L116 0 Q104 0 104 13 L104 731 Q104 742 116 742 L256 741 Z M187 682 Q179 682 179 668 L179 69 Q179 59 191 59 L234 59 Q354 59 426 90 Q498 121 532 189.5 Q566 258 566 373 Q566 490 532.5 556 Q499 622 431 650.5 Q363 679 249 682 L187 682 Z M755 0 Q749 0 746.5 2 Q744 4 744 10 L744 30 Q744 36 746.5 41 Q749 46 754 52 L1155 673 Q1161 682 1151 682 L767 682 Q758 682 758 691 L758 734 Q758 742 766 742 L1252 742 Q1261 742 1261 734 L1261 711 Q1261 707 1258.5 702 Q1256 697 1254 694 L847 69 Q841 60 850 60 L1251 60 Q1256 60 1258 58.5 Q1260 57 1260 53 L1260 9 Q1260 0 1250 0 L755 0 Z M1076 948 Q1085 954 1093 954 L1145 954 Q1152 954 1152 951 Q1152 948 1146 943 L1046 855 Q1044 854 1039.5 850 Q1035 846 1028 846 L997 846 Q987 846 975 856 L873 943 Q869 947 869 950 Q869 954 876 954 L923 954 Q928 954 931.5 952.5 Q935 951 940 948 L999 899 Q1007 892 1010 892 Q1013 892 1020 899 L1076 948 Z " />
<glyph glyph-name="Eth" unicode="&#xd0;" horiz-adv-x="717" d="M259 741 Q462 739 555 649.5 Q648 560 648 376 Q648 185 549 92.5 Q450 0 247 0 L119 0 Q107 0 107 13 L107 343 L46 343 Q39 343 36 346 Q33 349 33 356 L33 390 Q33 401 42 401 L107 401 L107 731 Q107 742 119 742 L259 741 Z M237 59 Q357 59 429 90 Q501 121 535 189.5 Q569 258 569 373 Q569 490 535.5 556 Q502 622 434 650.5 Q366 679 252 682 L190 682 Q182 682 182 668 L182 401 L348 401 Q357 401 357 391 L357 357 Q357 343 340 343 L182 343 L182 69 Q182 59 194 59 L237 59 Z " />
<glyph glyph-name="Dcaron" unicode="&#x10e;" horiz-adv-x="714" d="M256 741 Q459 739 552 649.5 Q645 560 645 376 Q645 185 546 92.5 Q447 0 244 0 L116 0 Q104 0 104 13 L104 731 Q104 742 116 742 L256 741 Z M187 682 Q179 682 179 668 L179 69 Q179 59 191 59 L234 59 Q354 59 426 90 Q498 121 532 189.5 Q566 258 566 373 Q566 490 532.5 556 Q499 622 431 650.5 Q363 679 249 682 L187 682 Z M411 948 Q420 954 428 954 L480 954 Q487 954 487 951 Q487 948 481 943 L381 855 Q379 854 374.5 850 Q370 846 363 846 L332 846 Q322 846 310 856 L208 943 Q204 947 204 950 Q204 954 211 954 L258 954 Q263 954 266.5 952.5 Q270 951 275 948 L334 899 Q342 892 345 892 Q348 892 355 899 L411 948 Z " />
<glyph glyph-name="Dcroat" unicode="&#x110;" horiz-adv-x="717" d="M259 741 Q462 739 555 649.5 Q648 560 648 376 Q648 185 549 92.5 Q450 0 247 0 L119 0 Q107 0 107 13 L107 343 L46 343 Q39 343 36 346 Q33 349 33 356 L33 390 Q33 401 42 401 L107 401 L107 731 Q107 742 119 742 L259 741 Z M237 59 Q357 59 429 90 Q501 121 535 189.5 Q569 258 569 373 Q569 490 535.5 556 Q502 622 434 650.5 Q366 679 252 682 L190 682 Q182 682 182 668 L182 401 L348 401 Q357 401 357 391 L357 357 Q357 343 340 343 L182 343 L182 69 Q182 59 194 59 L237 59 Z " />
<glyph glyph-name="uni1E0C" unicode="&#x1e0c;" horiz-adv-x="714" d="M256 741 Q459 739 552 649.5 Q645 560 645 376 Q645 185 546 92.5 Q447 0 244 0 L116 0 Q104 0 104 13 L104 731 Q104 742 116 742 L256 741 Z M187 682 Q179 682 179 668 L179 69 Q179 59 191 59 L234 59 Q354 59 426 90 Q498 121 532 189.5 Q566 258 566 373 Q566 490 532.5 556 Q499 622 431 650.5 Q363 679 249 682 L187 682 Z M371 -151 Q371 -159 368 -162 Q365 -165 357 -165 L315 -165 Q308 -165 305.5 -162.5 Q303 -160 303 -154 L303 -70 Q303 -63 305 -60.5 Q307 -58 313 -58 L361 -58 Q371 -58 371 -69 L371 -151 Z " />
<glyph glyph-name="uni01F2" unicode="&#x1f2;" horiz-adv-x="1140" d="M256 741 Q459 739 552 649.5 Q645 560 645 376 Q645 185 546 92.5 Q447 0 244 0 L116 0 Q104 0 104 13 L104 731 Q104 742 116 742 L256 741 Z M187 682 Q179 682 179 668 L179 69 Q179 59 191 59 L234 59 Q354 59 426 90 Q498 121 532 189.5 Q566 258 566 373 Q566 490 532.5 556 Q499 622 431 650.5 Q363 679 249 682 L187 682 Z M710 0 Q705 0 703 2 Q701 4 701 10 L701 37 Q701 44 703 49 Q705 54 711 62 L1015 472 Q1021 481 1011 481 L733 481 Q723 481 723 490 L723 521 Q723 530 731 530 L1091 530 Q1098 530 1098 522 L1098 493 Q1098 479 1090 468 L785 58 Q779 49 788 49 L1095 49 Q1104 49 1104 41 L1104 10 Q1104 0 1093 0 L710 0 Z " />
<glyph glyph-name="uni01C5" unicode="&#x1c5;" horiz-adv-x="1186" d="M256 741 Q459 739 552 649.5 Q645 560 645 376 Q645 185 546 92.5 Q447 0 244 0 L116 0 Q104 0 104 13 L104 731 Q104 742 116 742 L256 741 Z M187 682 Q179 682 179 668 L179 69 Q179 59 191 59 L234 59 Q354 59 426 90 Q498 121 532 189.5 Q566 258 566 373 Q566 490 532.5 556 Q499 622 431 650.5 Q363 679 249 682 L187 682 Z M756 0 Q751 0 749 2 Q747 4 747 10 L747 37 Q747 44 749 49 Q751 54 757 62 L1061 472 Q1067 481 1057 481 L779 481 Q769 481 769 490 L769 521 Q769 530 777 530 L1137 530 Q1144 530 1144 522 L1144 493 Q1144 479 1136 468 L831 58 Q825 49 834 49 L1141 49 Q1150 49 1150 41 L1150 10 Q1150 0 1139 0 L756 0 Z M1029 736 Q1038 742 1046 742 L1098 742 Q1105 742 1105 739 Q1105 736 1099 731 L999 643 Q997 642 992.5 638 Q988 634 981 634 L950 634 Q940 634 928 644 L826 731 Q822 735 822 738 Q822 742 829 742 L876 742 Q881 742 884.5 740.5 Q888 739 893 736 L952 687 Q960 680 963 680 Q966 680 973 687 L1029 736 Z " />
<glyph glyph-name="E" unicode="E" horiz-adv-x="622" d="M104 730 Q104 737 106.5 739.5 Q109 742 115 742 L550 742 Q559 742 559 733 L558 692 Q558 686 556 684 Q554 682 548 682 L191 682 Q184 682 181.5 680 Q179 678 179 671 L179 414 Q179 408 181.5 406 Q184 404 190 404 L461 404 Q466 404 468 402 Q470 400 470 395 L470 353 Q470 348 468 346.5 Q466 345 461 345 L189 345 Q184 345 181.5 343 Q179 341 179 335 L179 70 Q179 64 181 62 Q183 60 189 60 L562 60 Q568 60 570.5 58.5 Q573 57 573 51 L573 9 Q573 0 563 0 L116 0 Q109 0 106.5 2.5 Q104 5 104 12 L104 730 Z " />
<glyph glyph-name="Eacute" unicode="&#xc9;" horiz-adv-x="622" d="M104 730 Q104 737 106.5 739.5 Q109 742 115 742 L550 742 Q559 742 559 733 L558 692 Q558 686 556 684 Q554 682 548 682 L191 682 Q184 682 181.5 680 Q179 678 179 671 L179 414 Q179 408 181.5 406 Q184 404 190 404 L461 404 Q466 404 468 402 Q470 400 470 395 L470 353 Q470 348 468 346.5 Q466 345 461 345 L189 345 Q184 345 181.5 343 Q179 341 179 335 L179 70 Q179 64 181 62 Q183 60 189 60 L562 60 Q568 60 570.5 58.5 Q573 57 573 51 L573 9 Q573 0 563 0 L116 0 Q109 0 106.5 2.5 Q104 5 104 12 L104 730 Z M473 919 Q474 917 474 913 Q474 907 464 903 L236 830 Q234 829 230 829 Q223 829 222 836 L215 856 L214 860 Q214 866 219 868 L449 963 L452 963 Q457 963 460 959 L473 919 Z " />
<glyph glyph-name="Ebreve" unicode="&#x114;" horiz-adv-x="622" d="M104 730 Q104 737 106.5 739.5 Q109 742 115 742 L550 742 Q559 742 559 733 L558 692 Q558 686 556 684 Q554 682 548 682 L191 682 Q184 682 181.5 680 Q179 678 179 671 L179 414 Q179 408 181.5 406 Q184 404 190 404 L461 404 Q466 404 468 402 Q470 400 470 395 L470 353 Q470 348 468 346.5 Q466 345 461 345 L189 345 Q184 345 181.5 343 Q179 341 179 335 L179 70 Q179 64 181 62 Q183 60 189 60 L562 60 Q568 60 570.5 58.5 Q573 57 573 51 L573 9 Q573 0 563 0 L116 0 Q109 0 106.5 2.5 Q104 5 104 12 L104 730 Z M476 954 Q482 954 484 952 Q486 950 484 944 Q474 908 436 880.5 Q398 853 342 853 Q287 853 251.5 880 Q216 907 204 945 L204 948 Q204 954 210 954 L251 954 Q260 954 265 946 Q281 925 296.5 913.5 Q312 902 342 902 Q394 902 423 947 Q425 951 427.5 952.5 Q430 954 434 954 L476 954 Z " />
<glyph glyph-name="Ecaron" unicode="&#x11a;" horiz-adv-x="622" d="M104 730 Q104 737 106.5 739.5 Q109 742 115 742 L550 742 Q559 742 559 733 L558 692 Q558 686 556 684 Q554 682 548 682 L191 682 Q184 682 181.5 680 Q179 678 179 671 L179 414 Q179 408 181.5 406 Q184 404 190 404 L461 404 Q466 404 468 402 Q470 400 470 395 L470 353 Q470 348 468 346.5 Q466 345 461 345 L189 345 Q184 345 181.5 343 Q179 341 179 335 L179 70 Q179 64 181 62 Q183 60 189 60 L562 60 Q568 60 570.5 58.5 Q573 57 573 51 L573 9 Q573 0 563 0 L116 0 Q109 0 106.5 2.5 Q104 5 104 12 L104 730 Z M410 948 Q419 954 427 954 L479 954 Q486 954 486 951 Q486 948 480 943 L380 855 Q378 854 373.5 850 Q369 846 362 846 L331 846 Q321 846 309 856 L207 943 Q203 947 203 950 Q203 954 210 954 L257 954 Q262 954 265.5 952.5 Q269 951 274 948 L333 899 Q341 892 344 892 Q347 892 354 899 L410 948 Z " />
<glyph glyph-name="Ecircumflex" unicode="&#xca;" horiz-adv-x="622" d="M104 730 Q104 737 106.5 739.5 Q109 742 115 742 L550 742 Q559 742 559 733 L558 692 Q558 686 556 684 Q554 682 548 682 L191 682 Q184 682 181.5 680 Q179 678 179 671 L179 414 Q179 408 181.5 406 Q184 404 190 404 L461 404 Q466 404 468 402 Q470 400 470 395 L470 353 Q470 348 468 346.5 Q466 345 461 345 L189 345 Q184 345 181.5 343 Q179 341 179 335 L179 70 Q179 64 181 62 Q183 60 189 60 L562 60 Q568 60 570.5 58.5 Q573 57 573 51 L573 9 Q573 0 563 0 L116 0 Q109 0 106.5 2.5 Q104 5 104 12 L104 730 Z M354 904 Q347 911 344 911 Q341 911 333 904 L274 855 Q269 851 266 849.5 Q263 848 257 848 L210 848 Q204 848 203 851 Q202 854 207 859 L309 946 Q319 956 331 956 L362 956 Q369 956 374 952 Q379 948 380 947 L480 859 Q493 848 479 848 L427 848 Q418 848 410 855 L354 904 Z " />
<glyph glyph-name="uni0204" unicode="&#x204;" horiz-adv-x="622" d="M104 730 Q104 737 106.5 739.5 Q109 742 115 742 L550 742 Q559 742 559 733 L558 692 Q558 686 556 684 Q554 682 548 682 L191 682 Q184 682 181.5 680 Q179 678 179 671 L179 414 Q179 408 181.5 406 Q184 404 190 404 L461 404 Q466 404 468 402 Q470 400 470 395 L470 353 Q470 348 468 346.5 Q466 345 461 345 L189 345 Q184 345 181.5 343 Q179 341 179 335 L179 70 Q179 64 181 62 Q183 60 189 60 L562 60 Q568 60 570.5 58.5 Q573 57 573 51 L573 9 Q573 0 563 0 L116 0 Q109 0 106.5 2.5 Q104 5 104 12 L104 730 Z M170 961 Q176 967 182 962 L303 828 Q308 821 302 816 L289 799 Q286 794 282 794 Q280 794 274 798 L147 912 Q140 916 140 921 Q140 923 144 929 L170 961 Z M323 961 Q329 967 335 962 L455 828 Q462 821 455 816 L442 799 Q439 794 435 794 Q433 794 427 798 L300 912 Q293 916 293 921 Q293 923 297 929 L323 961 Z " />
<glyph glyph-name="Edieresis" unicode="&#xcb;" horiz-adv-x="622" d="M104 730 Q104 737 106.5 739.5 Q109 742 115 742 L550 742 Q559 742 559 733 L558 692 Q558 686 556 684 Q554 682 548 682 L191 682 Q184 682 181.5 680 Q179 678 179 671 L179 414 Q179 408 181.5 406 Q184 404 190 404 L461 404 Q466 404 468 402 Q470 400 470 395 L470 353 Q470 348 468 346.5 Q466 345 461 345 L189 345 Q184 345 181.5 343 Q179 341 179 335 L179 70 Q179 64 181 62 Q183 60 189 60 L562 60 Q568 60 570.5 58.5 Q573 57 573 51 L573 9 Q573 0 563 0 L116 0 Q109 0 106.5 2.5 Q104 5 104 12 L104 730 Z M313 863 Q313 855 310 852 Q307 849 298 849 L256 849 Q248 849 245.5 851.5 Q243 854 243 861 L243 942 Q243 954 253 954 L303 954 Q313 954 313 943 L313 863 Z M445 863 Q445 855 441.5 852 Q438 849 430 849 L388 849 Q380 849 377.5 851.5 Q375 854 375 861 L375 942 Q375 954 385 954 L434 954 Q445 954 445 943 L445 863 Z " />
<glyph glyph-name="Edotaccent" unicode="&#x116;" horiz-adv-x="622" d="M104 730 Q104 737 106.5 739.5 Q109 742 115 742 L550 742 Q559 742 559 733 L558 692 Q558 686 556 684 Q554 682 548 682 L191 682 Q184 682 181.5 680 Q179 678 179 671 L179 414 Q179 408 181.5 406 Q184 404 190 404 L461 404 Q466 404 468 402 Q470 400 470 395 L470 353 Q470 348 468 346.5 Q466 345 461 345 L189 345 Q184 345 181.5 343 Q179 341 179 335 L179 70 Q179 64 181 62 Q183 60 189 60 L562 60 Q568 60 570.5 58.5 Q573 57 573 51 L573 9 Q573 0 563 0 L116 0 Q109 0 106.5 2.5 Q104 5 104 12 L104 730 Z M381 859 Q381 851 378 848 Q375 845 366 845 L320 845 Q313 845 310 847.5 Q307 850 307 857 L307 942 Q307 949 309.5 951.5 Q312 954 318 954 L371 954 Q377 954 379 951.5 Q381 949 381 942 L381 859 Z " />
<glyph glyph-name="uni1EB8" unicode="&#x1eb8;" horiz-adv-x="622" d="M104 730 Q104 737 106.5 739.5 Q109 742 115 742 L550 742 Q559 742 559 733 L558 692 Q558 686 556 684 Q554 682 548 682 L191 682 Q184 682 181.5 680 Q179 678 179 671 L179 414 Q179 408 181.5 406 Q184 404 190 404 L461 404 Q466 404 468 402 Q470 400 470 395 L470 353 Q470 348 468 346.5 Q466 345 461 345 L189 345 Q184 345 181.5 343 Q179 341 179 335 L179 70 Q179 64 181 62 Q183 60 189 60 L562 60 Q568 60 570.5 58.5 Q573 57 573 51 L573 9 Q573 0 563 0 L116 0 Q109 0 106.5 2.5 Q104 5 104 12 L104 730 Z M382 -151 Q382 -159 379 -162 Q376 -165 368 -165 L326 -165 Q319 -165 316.5 -162.5 Q314 -160 314 -154 L314 -70 Q314 -63 316 -60.5 Q318 -58 324 -58 L372 -58 Q382 -58 382 -69 L382 -151 Z " />
<glyph glyph-name="Egrave" unicode="&#xc8;" horiz-adv-x="622" d="M104 730 Q104 737 106.5 739.5 Q109 742 115 742 L550 742 Q559 742 559 733 L558 692 Q558 686 556 684 Q554 682 548 682 L191 682 Q184 682 181.5 680 Q179 678 179 671 L179 414 Q179 408 181.5 406 Q184 404 190 404 L461 404 Q466 404 468 402 Q470 400 470 395 L470 353 Q470 348 468 346.5 Q466 345 461 345 L189 345 Q184 345 181.5 343 Q179 341 179 335 L179 70 Q179 64 181 62 Q183 60 189 60 L562 60 Q568 60 570.5 58.5 Q573 57 573 51 L573 9 Q573 0 563 0 L116 0 Q109 0 106.5 2.5 Q104 5 104 12 L104 730 Z M213 959 Q216 965 223 963 L454 868 Q461 865 458 856 L451 836 Q449 831 446 829.5 Q443 828 437 830 L209 903 Q202 906 200 909.5 Q198 913 200 919 L213 959 Z " />
<glyph glyph-name="uni0206" unicode="&#x206;" horiz-adv-x="622" d="M104 730 Q104 737 106.5 739.5 Q109 742 115 742 L550 742 Q559 742 559 733 L558 692 Q558 686 556 684 Q554 682 548 682 L191 682 Q184 682 181.5 680 Q179 678 179 671 L179 414 Q179 408 181.5 406 Q184 404 190 404 L461 404 Q466 404 468 402 Q470 400 470 395 L470 353 Q470 348 468 346.5 Q466 345 461 345 L189 345 Q184 345 181.5 343 Q179 341 179 335 L179 70 Q179 64 181 62 Q183 60 189 60 L562 60 Q568 60 570.5 58.5 Q573 57 573 51 L573 9 Q573 0 563 0 L116 0 Q109 0 106.5 2.5 Q104 5 104 12 L104 730 Z M434 859 Q430 859 427.5 860.5 Q425 862 423 866 Q394 911 342 911 Q312 911 296.5 899.5 Q281 888 265 867 Q260 859 251 859 L210 859 Q202 859 204 868 Q216 906 251.5 933 Q287 960 342 960 Q398 960 436 932.5 Q474 905 484 869 Q485 867 485 864 Q485 859 476 859 L434 859 Z " />
<glyph glyph-name="Emacron" unicode="&#x112;" horiz-adv-x="622" d="M104 730 Q104 737 106.5 739.5 Q109 742 115 742 L550 742 Q559 742 559 733 L558 692 Q558 686 556 684 Q554 682 548 682 L191 682 Q184 682 181.5 680 Q179 678 179 671 L179 414 Q179 408 181.5 406 Q184 404 190 404 L461 404 Q466 404 468 402 Q470 400 470 395 L470 353 Q470 348 468 346.5 Q466 345 461 345 L189 345 Q184 345 181.5 343 Q179 341 179 335 L179 70 Q179 64 181 62 Q183 60 189 60 L562 60 Q568 60 570.5 58.5 Q573 57 573 51 L573 9 Q573 0 563 0 L116 0 Q109 0 106.5 2.5 Q104 5 104 12 L104 730 Z M483 896 Q483 885 470 885 L214 885 Q205 885 205 896 L205 928 Q205 937 212 937 L476 937 Q483 937 483 929 L483 896 Z " />
<glyph glyph-name="Eogonek" unicode="&#x118;" horiz-adv-x="622" d="M584 -116 Q594 -110 594 -120 L594 -145 Q594 -152 588 -155 Q574 -161 551 -166 Q528 -171 505 -171 Q457 -171 432.5 -150 Q408 -129 408 -92 Q408 -62 427 -39 Q446 -16 491 0 L116 0 Q109 0 106.5 2.5 Q104 5 104 12 L104 730 Q104 737 106.5 739.5 Q109 742 115 742 L550 742 Q559 742 559 733 L558 692 Q558 686 556 684 Q554 682 548 682 L191 682 Q184 682 181.5 680 Q179 678 179 671 L179 414 Q179 408 181.5 406 Q184 404 190 404 L461 404 Q466 404 468 402 Q470 400 470 395 L470 353 Q470 348 468 346.5 Q466 345 461 345 L189 345 Q184 345 181.5 343 Q179 341 179 335 L179 70 Q179 64 181 62 Q183 60 189 60 L562 60 Q568 60 570.5 58.5 Q573 57 573 51 L573 9 Q573 1 565 0 Q513 -23 490 -42.5 Q467 -62 467 -89 Q467 -129 520 -129 Q540 -129 557 -125 Q574 -121 584 -116 Z " />
<glyph glyph-name="uni1EBC" unicode="&#x1ebc;" horiz-adv-x="622" d="M104 730 Q104 737 106.5 739.5 Q109 742 115 742 L550 742 Q559 742 559 733 L558 692 Q558 686 556 684 Q554 682 548 682 L191 682 Q184 682 181.5 680 Q179 678 179 671 L179 414 Q179 408 181.5 406 Q184 404 190 404 L461 404 Q466 404 468 402 Q470 400 470 395 L470 353 Q470 348 468 346.5 Q466 345 461 345 L189 345 Q184 345 181.5 343 Q179 341 179 335 L179 70 Q179 64 181 62 Q183 60 189 60 L562 60 Q568 60 570.5 58.5 Q573 57 573 51 L573 9 Q573 0 563 0 L116 0 Q109 0 106.5 2.5 Q104 5 104 12 L104 730 Z M479 895 Q448 875 407 875 Q388 875 373 878.5 Q358 882 339 889 Q336 890 319 895 Q302 900 285 900 Q268 900 257 895.5 Q246 891 237.5 886 Q229 881 226 879 L220 876 Q216 876 213 884 L205 906 Q203 911 203.5 913 Q204 915 208 917 Q226 931 242 938.5 Q258 946 281 946 Q306 946 346 932 Q350 931 369 925 Q388 919 407 919 Q423 919 433.5 923 Q444 927 462 937 Q466 940 469 940 Q473 940 476 933 L485 908 L486 904 Q486 899 479 895 Z " />
<glyph glyph-name="F" unicode="F" horiz-adv-x="594" d="M104 730 Q104 737 106.5 739.5 Q109 742 115 742 L540 742 Q549 742 549 733 L549 692 Q549 686 546.5 684 Q544 682 538 682 L191 682 Q184 682 181.5 680 Q179 678 179 671 L179 401 Q179 396 181.5 394 Q184 392 190 392 L470 392 Q479 392 479 383 L479 342 Q479 337 477 335 Q475 333 469 333 L189 333 Q184 333 181.5 331 Q179 329 179 323 L179 11 Q179 0 168 0 L116 0 Q109 0 106.5 2.5 Q104 5 104 12 L104 730 Z " />
<glyph glyph-name="G" unicode="G" horiz-adv-x="735" d="M374 -10 Q280 -10 211.5 35.5 Q143 81 106.5 166 Q70 251 70 368 Q70 488 107.5 574.5 Q145 661 214.5 706.5 Q284 752 377 752 Q441 752 499.5 724.5 Q558 697 596 651.5 Q634 606 641 555 L641 549 Q641 543 635 542 L578 533 L576 533 Q571 533 569 541 Q557 605 503.5 648.5 Q450 692 376 692 Q266 692 207.5 609.5 Q149 527 149 374 Q149 214 207.5 132.5 Q266 51 378 51 Q444 51 491 81 Q538 111 562 156.5 Q586 202 588 249 L588 316 L588 318 Q588 326 578 326 L404 326 Q395 326 395 334 L395 369 Q395 377 402 377 L646 377 Q657 377 657 367 L657 12 Q657 0 646 0 L625 0 Q618 0 614 2 Q610 4 609 11 L603 109 Q602 114 599.5 114 Q597 114 594 109 Q563 56 508 23 Q453 -10 374 -10 Z " />
<glyph glyph-name="uni01F4" unicode="&#x1f4;" horiz-adv-x="735" d="M374 -10 Q280 -10 211.5 35.5 Q143 81 106.5 166 Q70 251 70 368 Q70 488 107.5 574.5 Q145 661 214.5 706.5 Q284 752 377 752 Q441 752 499.5 724.5 Q558 697 596 651.5 Q634 606 641 555 L641 549 Q641 543 635 542 L578 533 L576 533 Q571 533 569 541 Q557 605 503.5 648.5 Q450 692 376 692 Q266 692 207.5 609.5 Q149 527 149 374 Q149 214 207.5 132.5 Q266 51 378 51 Q444 51 491 81 Q538 111 562 156.5 Q586 202 588 249 L588 316 L588 318 Q588 326 578 326 L404 326 Q395 326 395 334 L395 369 Q395 377 402 377 L646 377 Q657 377 657 367 L657 12 Q657 0 646 0 L625 0 Q618 0 614 2 Q610 4 609 11 L603 109 Q602 114 599.5 114 Q597 114 594 109 Q563 56 508 23 Q453 -10 374 -10 Z M504 919 Q505 917 505 913 Q505 907 495 903 L267 830 Q265 829 261 829 Q254 829 253 836 L246 856 L245 860 Q245 866 250 868 L480 963 L483 963 Q488 963 491 959 L504 919 Z " />
<glyph glyph-name="Gbreve" unicode="&#x11e;" horiz-adv-x="735" d="M374 -10 Q280 -10 211.5 35.5 Q143 81 106.5 166 Q70 251 70 368 Q70 488 107.5 574.5 Q145 661 214.5 706.5 Q284 752 377 752 Q441 752 499.5 724.5 Q558 697 596 651.5 Q634 606 641 555 L641 549 Q641 543 635 542 L578 533 L576 533 Q571 533 569 541 Q557 605 503.5 648.5 Q450 692 376 692 Q266 692 207.5 609.5 Q149 527 149 374 Q149 214 207.5 132.5 Q266 51 378 51 Q444 51 491 81 Q538 111 562 156.5 Q586 202 588 249 L588 316 L588 318 Q588 326 578 326 L404 326 Q395 326 395 334 L395 369 Q395 377 402 377 L646 377 Q657 377 657 367 L657 12 Q657 0 646 0 L625 0 Q618 0 614 2 Q610 4 609 11 L603 109 Q602 114 599.5 114 Q597 114 594 109 Q563 56 508 23 Q453 -10 374 -10 Z M507 954 Q513 954 515 952 Q517 950 515 944 Q505 908 467 880.5 Q429 853 373 853 Q318 853 282.5 880 Q247 907 235 945 L235 948 Q235 954 241 954 L282 954 Q291 954 296 946 Q312 925 327.5 913.5 Q343 902 373 902 Q425 902 454 947 Q456 951 458.5 952.5 Q461 954 465 954 L507 954 Z " />
<glyph glyph-name="Gcircumflex" unicode="&#x11c;" horiz-adv-x="735" d="M374 -10 Q280 -10 211.5 35.5 Q143 81 106.5 166 Q70 251 70 368 Q70 488 107.5 574.5 Q145 661 214.5 706.5 Q284 752 377 752 Q441 752 499.5 724.5 Q558 697 596 651.5 Q634 606 641 555 L641 549 Q641 543 635 542 L578 533 L576 533 Q571 533 569 541 Q557 605 503.5 648.5 Q450 692 376 692 Q266 692 207.5 609.5 Q149 527 149 374 Q149 214 207.5 132.5 Q266 51 378 51 Q444 51 491 81 Q538 111 562 156.5 Q586 202 588 249 L588 316 L588 318 Q588 326 578 326 L404 326 Q395 326 395 334 L395 369 Q395 377 402 377 L646 377 Q657 377 657 367 L657 12 Q657 0 646 0 L625 0 Q618 0 614 2 Q610 4 609 11 L603 109 Q602 114 599.5 114 Q597 114 594 109 Q563 56 508 23 Q453 -10 374 -10 Z M385 904 Q378 911 375 911 Q372 911 364 904 L305 855 Q300 851 297 849.5 Q294 848 288 848 L241 848 Q235 848 234 851 Q233 854 238 859 L340 946 Q350 956 362 956 L393 956 Q400 956 405 952 Q410 948 411 947 L511 859 Q524 848 510 848 L458 848 Q449 848 441 855 L385 904 Z " />
<glyph glyph-name="Gcommaaccent" unicode="&#x122;" horiz-adv-x="735" d="M374 -10 Q280 -10 211.5 35.5 Q143 81 106.5 166 Q70 251 70 368 Q70 488 107.5 574.5 Q145 661 214.5 706.5 Q284 752 377 752 Q441 752 499.5 724.5 Q558 697 596 651.5 Q634 606 641 555 L641 549 Q641 543 635 542 L578 533 L576 533 Q571 533 569 541 Q557 605 503.5 648.5 Q450 692 376 692 Q266 692 207.5 609.5 Q149 527 149 374 Q149 214 207.5 132.5 Q266 51 378 51 Q444 51 491 81 Q538 111 562 156.5 Q586 202 588 249 L588 316 L588 318 Q588 326 578 326 L404 326 Q395 326 395 334 L395 369 Q395 377 402 377 L646 377 Q657 377 657 367 L657 12 Q657 0 646 0 L625 0 Q618 0 614 2 Q610 4 609 11 L603 109 Q602 114 599.5 114 Q597 114 594 109 Q563 56 508 23 Q453 -10 374 -10 Z M349 -238 Q345 -238 343.5 -234.5 Q342 -231 344 -228 L370 -175 Q373 -172 373 -168 Q373 -163 366 -163 L357 -163 Q347 -163 347 -152 L347 -87 Q347 -77 356 -77 L409 -77 Q417 -77 417 -85 L417 -163 Q417 -165 416 -167 Q415 -169 415 -170 L380 -230 Q378 -235 374 -236.5 Q370 -238 363 -238 L349 -238 Z " />
<glyph glyph-name="Gdotaccent" unicode="&#x120;" horiz-adv-x="735" d="M374 -10 Q280 -10 211.5 35.5 Q143 81 106.5 166 Q70 251 70 368 Q70 488 107.5 574.5 Q145 661 214.5 706.5 Q284 752 377 752 Q441 752 499.5 724.5 Q558 697 596 651.5 Q634 606 641 555 L641 549 Q641 543 635 542 L578 533 L576 533 Q571 533 569 541 Q557 605 503.5 648.5 Q450 692 376 692 Q266 692 207.5 609.5 Q149 527 149 374 Q149 214 207.5 132.5 Q266 51 378 51 Q444 51 491 81 Q538 111 562 156.5 Q586 202 588 249 L588 316 L588 318 Q588 326 578 326 L404 326 Q395 326 395 334 L395 369 Q395 377 402 377 L646 377 Q657 377 657 367 L657 12 Q657 0 646 0 L625 0 Q618 0 614 2 Q610 4 609 11 L603 109 Q602 114 599.5 114 Q597 114 594 109 Q563 56 508 23 Q453 -10 374 -10 Z M412 859 Q412 851 409 848 Q406 845 397 845 L351 845 Q344 845 341 847.5 Q338 850 338 857 L338 942 Q338 949 340.5 951.5 Q343 954 349 954 L402 954 Q408 954 410 951.5 Q412 949 412 942 L412 859 Z " />
<glyph glyph-name="H" unicode="H" horiz-adv-x="731" d="M187 355 Q183 355 181 352.5 Q179 350 179 347 L179 12 Q179 0 166 0 L116 0 Q104 0 104 12 L104 730 Q104 737 106.5 739.5 Q109 742 115 742 L169 742 Q175 742 177 739.5 Q179 737 179 730 L179 427 Q179 420 181.5 418 Q184 416 190 416 L542 416 Q552 416 552 426 L552 731 Q552 742 561 742 L616 742 Q622 742 624.5 739.5 Q627 737 627 730 L627 12 Q627 0 615 0 L565 0 Q552 0 552 12 L552 346 Q552 355 543 355 L187 355 Z " />
<glyph glyph-name="Hbar" unicode="&#x126;" horiz-adv-x="722" d="M709 625 Q718 625 718 615 L718 587 Q718 574 702 574 L630 574 L630 12 Q630 0 618 0 L568 0 Q555 0 555 12 L555 346 Q555 355 546 355 L190 355 Q186 355 184 352.5 Q182 350 182 347 L182 12 Q182 0 169 0 L119 0 Q107 0 107 12 L107 574 L16 574 Q4 574 4 586 L4 614 Q4 625 13 625 L107 625 L107 730 Q107 737 109.5 739.5 Q112 742 118 742 L172 742 Q178 742 180 739.5 Q182 737 182 730 L182 625 L555 625 L555 731 Q555 742 564 742 L619 742 Q625 742 627.5 739.5 Q630 737 630 730 L630 625 L709 625 Z M555 574 L182 574 L182 427 Q182 420 184.5 418 Q187 416 193 416 L545 416 Q555 416 555 426 L555 574 Z " />
<glyph glyph-name="Hcircumflex" unicode="&#x124;" horiz-adv-x="731" d="M187 355 Q183 355 181 352.5 Q179 350 179 347 L179 12 Q179 0 166 0 L116 0 Q104 0 104 12 L104 730 Q104 737 106.5 739.5 Q109 742 115 742 L169 742 Q175 742 177 739.5 Q179 737 179 730 L179 427 Q179 420 181.5 418 Q184 416 190 416 L542 416 Q552 416 552 426 L552 731 Q552 742 561 742 L616 742 Q622 742 624.5 739.5 Q627 737 627 730 L627 12 Q627 0 615 0 L565 0 Q552 0 552 12 L552 346 Q552 355 543 355 L187 355 Z M376 904 Q369 911 366 911 Q363 911 355 904 L296 855 Q291 851 288 849.5 Q285 848 279 848 L232 848 Q226 848 225 851 Q224 854 229 859 L331 946 Q341 956 353 956 L384 956 Q391 956 396 952 Q401 948 402 947 L502 859 Q515 848 501 848 L449 848 Q440 848 432 855 L376 904 Z " />
<glyph glyph-name="uni1E24" unicode="&#x1e24;" horiz-adv-x="731" d="M187 355 Q183 355 181 352.5 Q179 350 179 347 L179 12 Q179 0 166 0 L116 0 Q104 0 104 12 L104 730 Q104 737 106.5 739.5 Q109 742 115 742 L169 742 Q175 742 177 739.5 Q179 737 179 730 L179 427 Q179 420 181.5 418 Q184 416 190 416 L542 416 Q552 416 552 426 L552 731 Q552 742 561 742 L616 742 Q622 742 624.5 739.5 Q627 737 627 730 L627 12 Q627 0 615 0 L565 0 Q552 0 552 12 L552 346 Q552 355 543 355 L187 355 Z M399 -151 Q399 -159 396 -162 Q393 -165 385 -165 L343 -165 Q336 -165 333.5 -162.5 Q331 -160 331 -154 L331 -70 Q331 -63 333 -60.5 Q335 -58 341 -58 L389 -58 Q399 -58 399 -69 L399 -151 Z " />
<glyph glyph-name="I" unicode="I" horiz-adv-x="283" d="M169 742 Q175 742 177 739.5 Q179 737 179 730 L179 15 Q179 6 176 3 Q173 0 164 0 L118 0 Q110 0 107 2.5 Q104 5 104 12 L104 730 Q104 737 106.5 739.5 Q109 742 115 742 L169 742 Z " />
<glyph glyph-name="IJ" unicode="&#x132;" horiz-adv-x="693" d="M169 742 Q175 742 177 739.5 Q179 737 179 730 L179 15 Q179 6 176 3 Q173 0 164 0 L118 0 Q110 0 107 2.5 Q104 5 104 12 L104 730 Q104 737 106.5 739.5 Q109 742 115 742 L169 742 Z M593 155 Q593 73 557.5 31.5 Q522 -10 445 -10 Q411 -10 381.5 -2.5 Q352 5 335 13 Q325 16 327 27 L336 72 Q337 82 346 79 Q351 77 365 70.5 Q379 64 395.5 60.5 Q412 57 432 57 Q480 57 499 82 Q518 107 518 173 L518 731 Q518 742 528 742 L584 742 Q593 742 593 730 L593 155 Z " />
<glyph glyph-name="Iacute" unicode="&#xcd;" horiz-adv-x="283" d="M169 742 Q175 742 177 739.5 Q179 737 179 730 L179 15 Q179 6 176 3 Q173 0 164 0 L118 0 Q110 0 107 2.5 Q104 5 104 12 L104 730 Q104 737 106.5 739.5 Q109 742 115 742 L169 742 Z M273 919 Q274 917 274 913 Q274 907 264 903 L36 830 Q34 829 30 829 Q23 829 22 836 L15 856 L14 860 Q14 866 19 868 L249 963 L252 963 Q257 963 260 959 L273 919 Z " />
<glyph glyph-name="Ibreve" unicode="&#x12c;" horiz-adv-x="283" d="M169 742 Q175 742 177 739.5 Q179 737 179 730 L179 15 Q179 6 176 3 Q173 0 164 0 L118 0 Q110 0 107 2.5 Q104 5 104 12 L104 730 Q104 737 106.5 739.5 Q109 742 115 742 L169 742 Z M276 954 Q282 954 284 952 Q286 950 284 944 Q274 908 236 880.5 Q198 853 142 853 Q87 853 51.5 880 Q16 907 4 945 L4 948 Q4 954 10 954 L51 954 Q60 954 65 946 Q81 925 96.5 913.5 Q112 902 142 902 Q194 902 223 947 Q225 951 227.5 952.5 Q230 954 234 954 L276 954 Z " />
<glyph glyph-name="Icircumflex" unicode="&#xce;" horiz-adv-x="283" d="M169 742 Q175 742 177 739.5 Q179 737 179 730 L179 15 Q179 6 176 3 Q173 0 164 0 L118 0 Q110 0 107 2.5 Q104 5 104 12 L104 730 Q104 737 106.5 739.5 Q109 742 115 742 L169 742 Z M154 904 Q147 911 144 911 Q141 911 133 904 L74 855 Q69 851 66 849.5 Q63 848 57 848 L10 848 Q4 848 3 851 Q2 854 7 859 L109 946 Q119 956 131 956 L162 956 Q169 956 174 952 Q179 948 180 947 L280 859 Q293 848 279 848 L227 848 Q218 848 210 855 L154 904 Z " />
<glyph glyph-name="uni0208" unicode="&#x208;" horiz-adv-x="283" d="M169 742 Q175 742 177 739.5 Q179 737 179 730 L179 15 Q179 6 176 3 Q173 0 164 0 L118 0 Q110 0 107 2.5 Q104 5 104 12 L104 730 Q104 737 106.5 739.5 Q109 742 115 742 L169 742 Z M-30 961 Q-24 967 -18 962 L103 828 Q108 821 102 816 L89 799 Q86 794 82 794 Q80 794 74 798 L-53 912 Q-60 916 -60 921 Q-60 923 -56 929 L-30 961 Z M123 961 Q129 967 135 962 L255 828 Q262 821 255 816 L242 799 Q239 794 235 794 Q233 794 227 798 L100 912 Q93 916 93 921 Q93 923 97 929 L123 961 Z " />
<glyph glyph-name="Idieresis" unicode="&#xcf;" horiz-adv-x="283" d="M169 742 Q175 742 177 739.5 Q179 737 179 730 L179 15 Q179 6 176 3 Q173 0 164 0 L118 0 Q110 0 107 2.5 Q104 5 104 12 L104 730 Q104 737 106.5 739.5 Q109 742 115 742 L169 742 Z M113 863 Q113 855 110 852 Q107 849 98 849 L56 849 Q48 849 45.5 851.5 Q43 854 43 861 L43 942 Q43 954 53 954 L103 954 Q113 954 113 943 L113 863 Z M245 863 Q245 855 241.5 852 Q238 849 230 849 L188 849 Q180 849 177.5 851.5 Q175 854 175 861 L175 942 Q175 954 185 954 L234 954 Q245 954 245 943 L245 863 Z " />
<glyph glyph-name="Idot" unicode="&#x130;" horiz-adv-x="283" d="M169 742 Q175 742 177 739.5 Q179 737 179 730 L179 15 Q179 6 176 3 Q173 0 164 0 L118 0 Q110 0 107 2.5 Q104 5 104 12 L104 730 Q104 737 106.5 739.5 Q109 742 115 742 L169 742 Z M181 859 Q181 851 178 848 Q175 845 166 845 L120 845 Q113 845 110 847.5 Q107 850 107 857 L107 942 Q107 949 109.5 951.5 Q112 954 118 954 L171 954 Q177 954 179 951.5 Q181 949 181 942 L181 859 Z " />
<glyph glyph-name="uni1ECA" unicode="&#x1eca;" horiz-adv-x="283" d="M169 742 Q175 742 177 739.5 Q179 737 179 730 L179 15 Q179 6 176 3 Q173 0 164 0 L118 0 Q110 0 107 2.5 Q104 5 104 12 L104 730 Q104 737 106.5 739.5 Q109 742 115 742 L169 742 Z M176 -151 Q176 -159 173 -162 Q170 -165 162 -165 L120 -165 Q113 -165 110.5 -162.5 Q108 -160 108 -154 L108 -70 Q108 -63 110 -60.5 Q112 -58 118 -58 L166 -58 Q176 -58 176 -69 L176 -151 Z " />
<glyph glyph-name="Igrave" unicode="&#xcc;" horiz-adv-x="283" d="M169 742 Q175 742 177 739.5 Q179 737 179 730 L179 15 Q179 6 176 3 Q173 0 164 0 L118 0 Q110 0 107 2.5 Q104 5 104 12 L104 730 Q104 737 106.5 739.5 Q109 742 115 742 L169 742 Z M13 959 Q16 965 23 963 L254 868 Q261 865 258 856 L251 836 Q249 831 246 829.5 Q243 828 237 830 L9 903 Q2 906 0 909.5 Q-2 913 0 919 L13 959 Z " />
<glyph glyph-name="uni020A" unicode="&#x20a;" horiz-adv-x="283" d="M169 742 Q175 742 177 739.5 Q179 737 179 730 L179 15 Q179 6 176 3 Q173 0 164 0 L118 0 Q110 0 107 2.5 Q104 5 104 12 L104 730 Q104 737 106.5 739.5 Q109 742 115 742 L169 742 Z M234 859 Q230 859 227.5 860.5 Q225 862 223 866 Q194 911 142 911 Q112 911 96.5 899.5 Q81 888 65 867 Q60 859 51 859 L10 859 Q2 859 4 868 Q16 906 51.5 933 Q87 960 142 960 Q198 960 236 932.5 Q274 905 284 869 Q285 867 285 864 Q285 859 276 859 L234 859 Z " />
<glyph glyph-name="Imacron" unicode="&#x12a;" horiz-adv-x="283" d="M169 742 Q175 742 177 739.5 Q179 737 179 730 L179 15 Q179 6 176 3 Q173 0 164 0 L118 0 Q110 0 107 2.5 Q104 5 104 12 L104 730 Q104 737 106.5 739.5 Q109 742 115 742 L169 742 Z M283 896 Q283 885 270 885 L14 885 Q5 885 5 896 L5 928 Q5 937 12 937 L276 937 Q283 937 283 929 L283 896 Z " />
<glyph glyph-name="Iogonek" unicode="&#x12e;" horiz-adv-x="283" d="M192 -115 Q202 -109 202 -119 L202 -144 Q202 -151 196 -154 Q182 -160 159 -165 Q136 -170 113 -170 Q65 -170 40.5 -149 Q16 -128 16 -91 Q16 -59 36.5 -36 Q57 -13 106 3 Q104 7 104 12 L104 730 Q104 737 106.5 739.5 Q109 742 115 742 L169 742 Q175 742 177 739.5 Q179 737 179 730 L179 15 Q179 5 175 2 Q121 -22 98 -41.5 Q75 -61 75 -88 Q75 -128 128 -128 Q148 -128 165 -124 Q182 -120 192 -115 Z " />
<glyph glyph-name="Itilde" unicode="&#x128;" horiz-adv-x="283" d="M169 742 Q175 742 177 739.5 Q179 737 179 730 L179 15 Q179 6 176 3 Q173 0 164 0 L118 0 Q110 0 107 2.5 Q104 5 104 12 L104 730 Q104 737 106.5 739.5 Q109 742 115 742 L169 742 Z M279 895 Q248 875 207 875 Q188 875 173 878.5 Q158 882 139 889 Q136 890 119 895 Q102 900 85 900 Q68 900 57 895.5 Q46 891 37.5 886 Q29 881 26 879 L20 876 Q16 876 13 884 L5 906 Q3 911 3.5 913 Q4 915 8 917 Q26 931 42 938.5 Q58 946 81 946 Q106 946 146 932 Q150 931 169 925 Q188 919 207 919 Q223 919 233.5 923 Q244 927 262 937 Q266 940 269 940 Q273 940 276 933 L285 908 L286 904 Q286 899 279 895 Z " />
<glyph glyph-name="J" unicode="J" horiz-adv-x="410" d="M310 155 Q310 73 274.5 31.5 Q239 -10 162 -10 Q128 -10 98.5 -2.5 Q69 5 52 13 Q42 16 44 27 L53 72 Q54 82 63 79 Q68 77 82 70.5 Q96 64 112.5 60.5 Q129 57 149 57 Q197 57 216 82 Q235 107 235 173 L235 731 Q235 742 245 742 L301 742 Q310 742 310 730 L310 155 Z " />
<glyph glyph-name="Jcircumflex" unicode="&#x134;" horiz-adv-x="410" d="M310 155 Q310 73 274.5 31.5 Q239 -10 162 -10 Q128 -10 98.5 -2.5 Q69 5 52 13 Q42 16 44 27 L53 72 Q54 82 63 79 Q68 77 82 70.5 Q96 64 112.5 60.5 Q129 57 149 57 Q197 57 216 82 Q235 107 235 173 L235 731 Q235 742 245 742 L301 742 Q310 742 310 730 L310 155 Z M272 904 Q265 911 262 911 Q259 911 251 904 L192 855 Q187 851 184 849.5 Q181 848 175 848 L128 848 Q122 848 121 851 Q120 854 125 859 L227 946 Q237 956 249 956 L280 956 Q287 956 292 952 Q297 948 298 947 L398 859 Q411 848 397 848 L345 848 Q336 848 328 855 L272 904 Z " />
<glyph glyph-name="K" unicode="K" horiz-adv-x="690" d="M643 11 Q645 7 645 5 Q645 0 638 0 L574 0 Q562 0 559 7 L323 391 Q320 395 317 395 Q314 395 309 390 L187 253 Q182 248 180.5 244.5 Q179 241 179 235 L179 12 Q179 0 166 0 L117 0 Q110 0 107 2.5 Q104 5 104 12 L104 732 Q104 742 114 742 L170 742 Q179 742 179 732 L179 347 Q179 336 188 345 L538 735 Q542 739 545.5 740.5 Q549 742 555 742 L611 742 Q618 742 619.5 738.5 Q621 735 617 731 L373 461 Q371 458 371 456 Q371 454 373 451 L643 11 Z " />
<glyph glyph-name="Kcommaaccent" unicode="&#x136;" horiz-adv-x="690" d="M643 11 Q645 7 645 5 Q645 0 638 0 L574 0 Q562 0 559 7 L323 391 Q320 395 317 395 Q314 395 309 390 L187 253 Q182 248 180.5 244.5 Q179 241 179 235 L179 12 Q179 0 166 0 L117 0 Q110 0 107 2.5 Q104 5 104 12 L104 732 Q104 742 114 742 L170 742 Q179 742 179 732 L179 347 Q179 336 188 345 L538 735 Q542 739 545.5 740.5 Q549 742 555 742 L611 742 Q618 742 619.5 738.5 Q621 735 617 731 L373 461 Q371 458 371 456 Q371 454 373 451 L643 11 Z M318 -238 Q314 -238 312.5 -234.5 Q311 -231 313 -228 L339 -175 Q342 -172 342 -168 Q342 -163 335 -163 L326 -163 Q316 -163 316 -152 L316 -87 Q316 -77 325 -77 L378 -77 Q386 -77 386 -85 L386 -163 Q386 -165 385 -167 Q384 -169 384 -170 L349 -230 Q347 -235 343 -236.5 Q339 -238 332 -238 L318 -238 Z " />
<glyph glyph-name="L" unicode="L" horiz-adv-x="596" d="M104 730 Q104 737 106.5 739.5 Q109 742 115 742 L169 742 Q175 742 177 739.5 Q179 737 179 730 L179 70 Q179 64 181 62 Q183 60 189 60 L542 60 Q548 60 550 58.5 Q552 57 552 51 L552 9 Q552 0 542 0 L116 0 Q104 0 104 12 L104 730 Z " />
<glyph glyph-name="uni01C7" unicode="&#x1c7;" horiz-adv-x="1006" d="M104 730 Q104 737 106.5 739.5 Q109 742 115 742 L169 742 Q175 742 177 739.5 Q179 737 179 730 L179 70 Q179 64 181 62 Q183 60 189 60 L542 60 Q548 60 550 58.5 Q552 57 552 51 L552 9 Q552 0 542 0 L116 0 Q104 0 104 12 L104 730 Z M906 155 Q906 73 870.5 31.5 Q835 -10 758 -10 Q724 -10 694.5 -2.5 Q665 5 648 13 Q638 16 640 27 L649 72 Q650 82 659 79 Q664 77 678 70.5 Q692 64 708.5 60.5 Q725 57 745 57 Q793 57 812 82 Q831 107 831 173 L831 731 Q831 742 841 742 L897 742 Q906 742 906 730 L906 155 Z " />
<glyph glyph-name="Lacute" unicode="&#x139;" horiz-adv-x="596" d="M104 730 Q104 737 106.5 739.5 Q109 742 115 742 L169 742 Q175 742 177 739.5 Q179 737 179 730 L179 70 Q179 64 181 62 Q183 60 189 60 L542 60 Q548 60 550 58.5 Q552 57 552 51 L552 9 Q552 0 542 0 L116 0 Q104 0 104 12 L104 730 Z M271 919 Q272 917 272 913 Q272 907 262 903 L34 830 Q32 829 28 829 Q21 829 20 836 L13 856 L12 860 Q12 866 17 868 L247 963 L250 963 Q255 963 258 959 L271 919 Z " />
<glyph glyph-name="Lcaron" unicode="&#x13d;" horiz-adv-x="596" d="M104 730 Q104 737 106.5 739.5 Q109 742 115 742 L169 742 Q175 742 177 739.5 Q179 737 179 730 L179 70 Q179 64 181 62 Q183 60 189 60 L542 60 Q548 60 550 58.5 Q552 57 552 51 L552 9 Q552 0 542 0 L116 0 Q104 0 104 12 L104 730 Z M402 555 Q398 555 396.5 558 Q395 561 396 564 L426 635 Q428 641 427.5 643 Q427 645 423 646 L416 647 Q411 648 409 650 Q407 652 407 656 L407 734 Q407 742 414 742 L466 742 Q472 742 472 735 L472 647 L471 642 L437 564 Q434 555 421 555 L402 555 Z " />
<glyph glyph-name="Lcommaaccent" unicode="&#x13b;" horiz-adv-x="596" d="M104 730 Q104 737 106.5 739.5 Q109 742 115 742 L169 742 Q175 742 177 739.5 Q179 737 179 730 L179 70 Q179 64 181 62 Q183 60 189 60 L542 60 Q548 60 550 58.5 Q552 57 552 51 L552 9 Q552 0 542 0 L116 0 Q104 0 104 12 L104 730 Z M280 -238 Q276 -238 274.5 -234.5 Q273 -231 275 -228 L301 -175 Q304 -172 304 -168 Q304 -163 297 -163 L288 -163 Q278 -163 278 -152 L278 -87 Q278 -77 287 -77 L340 -77 Q348 -77 348 -85 L348 -163 Q348 -165 347 -167 Q346 -169 346 -170 L311 -230 Q309 -235 305 -236.5 Q301 -238 294 -238 L280 -238 Z " />
<glyph glyph-name="Ldot" unicode="&#x13f;" horiz-adv-x="616" d="M104 730 Q104 737 106.5 739.5 Q109 742 115 742 L169 742 Q175 742 177 739.5 Q179 737 179 730 L179 70 Q179 64 181 62 Q183 60 189 60 L542 60 Q548 60 550 58.5 Q552 57 552 51 L552 9 Q552 0 542 0 L116 0 Q104 0 104 12 L104 730 Z M510 365 Q510 358 506.5 355 Q503 352 494 352 L423 352 Q416 352 413.5 355 Q411 358 411 364 L411 436 Q411 447 419 447 L501 447 Q510 447 510 438 L510 365 Z " />
<glyph glyph-name="uni01C8" unicode="&#x1c8;" horiz-adv-x="828" d="M104 730 Q104 737 106.5 739.5 Q109 742 115 742 L169 742 Q175 742 177 739.5 Q179 737 179 730 L179 70 Q179 64 181 62 Q183 60 189 60 L542 60 Q548 60 550 58.5 Q552 57 552 51 L552 9 Q552 0 542 0 L116 0 Q104 0 104 12 L104 730 Z M749 651 Q749 642 746 637.5 Q743 633 734 633 L688 633 Q675 633 675 649 L675 727 Q675 742 688 742 L736 742 Q749 742 749 728 L749 651 Z M745 -38 Q745 -108 717 -139 Q689 -170 616 -170 Q591 -170 575.5 -169.5 Q560 -169 555.5 -166.5 Q551 -164 551 -158 L551 -124 Q551 -115 559 -115 L613 -113 Q649 -112 664 -94.5 Q679 -77 679 -33 L679 518 Q679 530 691 530 L735 530 Q745 530 745 518 L745 -38 Z " />
<glyph glyph-name="Lslash" unicode="&#x141;" horiz-adv-x="596" d="M542 60 Q548 60 550 58.5 Q552 57 552 51 L552 9 Q552 0 542 0 L116 0 Q104 0 104 12 L104 338 L36 320 L32 319 Q26 319 26 327 L26 367 Q26 376 33 378 L104 396 L104 730 Q104 737 106.5 739.5 Q109 742 115 742 L169 742 Q175 742 177 739.5 Q179 737 179 730 L179 416 L335 456 L338 456 Q345 456 345 449 L345 410 Q345 401 337 400 L179 358 L179 70 Q179 64 181 62 Q183 60 189 60 L542 60 Z " />
<glyph glyph-name="M" unicode="M" horiz-adv-x="895" d="M116 0 Q104 0 104 13 L104 730 Q104 737 106.5 739.5 Q109 742 115 742 L182 742 Q189 742 192.5 740 Q196 738 198 732 L438 120 Q443 110 446 110 Q449 110 454 120 L696 731 Q699 742 709 742 L781 742 Q791 742 791 730 L791 13 Q791 0 778 0 L728 0 Q721 0 718.5 2.5 Q716 5 716 12 L716 602 Q716 606 714 605.5 Q712 605 711 602 L479 12 Q475 0 462 0 L422 0 Q414 0 409.5 2.5 Q405 5 402 11 L175 596 Q174 601 172 601 Q170 601 170 596 L170 11 Q170 5 167.5 2.5 Q165 0 158 0 L116 0 Z " />
<glyph glyph-name="N" unicode="N" horiz-adv-x="756" d="M642 742 Q648 742 650 739.5 Q652 737 652 731 L652 11 Q652 0 641 0 L606 0 L601 0 Q591 0 586 7 L183 597 Q178 604 174.5 603 Q171 602 171 596 L171 11 Q171 0 159 0 L116 0 Q109 0 106.5 2.5 Q104 5 104 12 L104 730 Q104 737 106.5 739.5 Q109 742 115 742 L157 742 Q164 742 167.5 740.5 Q171 739 175 733 L571 151 Q576 145 580 145 Q582 145 584 147.5 Q586 150 586 154 L586 731 Q586 742 596 742 L642 742 Z " />
<glyph glyph-name="uni01CA" unicode="&#x1ca;" horiz-adv-x="1166" d="M642 742 Q648 742 650 739.5 Q652 737 652 731 L652 11 Q652 0 641 0 L606 0 L601 0 Q591 0 586 7 L183 597 Q178 604 174.5 603 Q171 602 171 596 L171 11 Q171 0 159 0 L116 0 Q109 0 106.5 2.5 Q104 5 104 12 L104 730 Q104 737 106.5 739.5 Q109 742 115 742 L157 742 Q164 742 167.5 740.5 Q171 739 175 733 L571 151 Q576 145 580 145 Q582 145 584 147.5 Q586 150 586 154 L586 731 Q586 742 596 742 L642 742 Z M1066 155 Q1066 73 1030.5 31.5 Q995 -10 918 -10 Q884 -10 854.5 -2.5 Q825 5 808 13 Q798 16 800 27 L809 72 Q810 82 819 79 Q824 77 838 70.5 Q852 64 868.5 60.5 Q885 57 905 57 Q953 57 972 82 Q991 107 991 173 L991 731 Q991 742 1001 742 L1057 742 Q1066 742 1066 730 L1066 155 Z " />
<glyph glyph-name="Nacute" unicode="&#x143;" horiz-adv-x="756" d="M642 742 Q648 742 650 739.5 Q652 737 652 731 L652 11 Q652 0 641 0 L606 0 L601 0 Q591 0 586 7 L183 597 Q178 604 174.5 603 Q171 602 171 596 L171 11 Q171 0 159 0 L116 0 Q109 0 106.5 2.5 Q104 5 104 12 L104 730 Q104 737 106.5 739.5 Q109 742 115 742 L157 742 Q164 742 167.5 740.5 Q171 739 175 733 L571 151 Q576 145 580 145 Q582 145 584 147.5 Q586 150 586 154 L586 731 Q586 742 596 742 L642 742 Z M521 919 Q522 917 522 913 Q522 907 512 903 L284 830 Q282 829 278 829 Q271 829 270 836 L263 856 L262 860 Q262 866 267 868 L497 963 L500 963 Q505 963 508 959 L521 919 Z " />
<glyph glyph-name="Ncaron" unicode="&#x147;" horiz-adv-x="756" d="M642 742 Q648 742 650 739.5 Q652 737 652 731 L652 11 Q652 0 641 0 L606 0 L601 0 Q591 0 586 7 L183 597 Q178 604 174.5 603 Q171 602 171 596 L171 11 Q171 0 159 0 L116 0 Q109 0 106.5 2.5 Q104 5 104 12 L104 730 Q104 737 106.5 739.5 Q109 742 115 742 L157 742 Q164 742 167.5 740.5 Q171 739 175 733 L571 151 Q576 145 580 145 Q582 145 584 147.5 Q586 150 586 154 L586 731 Q586 742 596 742 L642 742 Z M458 948 Q467 954 475 954 L527 954 Q534 954 534 951 Q534 948 528 943 L428 855 Q426 854 421.5 850 Q417 846 410 846 L379 846 Q369 846 357 856 L255 943 Q251 947 251 950 Q251 954 258 954 L305 954 Q310 954 313.5 952.5 Q317 951 322 948 L381 899 Q389 892 392 892 Q395 892 402 899 L458 948 Z " />
<glyph glyph-name="Ncommaaccent" unicode="&#x145;" horiz-adv-x="756" d="M642 742 Q648 742 650 739.5 Q652 737 652 731 L652 11 Q652 0 641 0 L606 0 L601 0 Q591 0 586 7 L183 597 Q178 604 174.5 603 Q171 602 171 596 L171 11 Q171 0 159 0 L116 0 Q109 0 106.5 2.5 Q104 5 104 12 L104 730 Q104 737 106.5 739.5 Q109 742 115 742 L157 742 Q164 742 167.5 740.5 Q171 739 175 733 L571 151 Q576 145 580 145 Q582 145 584 147.5 Q586 150 586 154 L586 731 Q586 742 596 742 L642 742 Z M333 -238 Q329 -238 327.5 -234.5 Q326 -231 328 -228 L354 -175 Q357 -172 357 -168 Q357 -163 350 -163 L341 -163 Q331 -163 331 -152 L331 -87 Q331 -77 340 -77 L393 -77 Q401 -77 401 -85 L401 -163 Q401 -165 400 -167 Q399 -169 399 -170 L364 -230 Q362 -235 358 -236.5 Q354 -238 347 -238 L333 -238 Z " />
<glyph glyph-name="uni1E44" unicode="&#x1e44;" horiz-adv-x="756" d="M642 742 Q648 742 650 739.5 Q652 737 652 731 L652 11 Q652 0 641 0 L606 0 L601 0 Q591 0 586 7 L183 597 Q178 604 174.5 603 Q171 602 171 596 L171 11 Q171 0 159 0 L116 0 Q109 0 106.5 2.5 Q104 5 104 12 L104 730 Q104 737 106.5 739.5 Q109 742 115 742 L157 742 Q164 742 167.5 740.5 Q171 739 175 733 L571 151 Q576 145 580 145 Q582 145 584 147.5 Q586 150 586 154 L586 731 Q586 742 596 742 L642 742 Z M429 859 Q429 851 426 848 Q423 845 414 845 L368 845 Q361 845 358 847.5 Q355 850 355 857 L355 942 Q355 949 357.5 951.5 Q360 954 366 954 L419 954 Q425 954 427 951.5 Q429 949 429 942 L429 859 Z " />
<glyph glyph-name="Eng" unicode="&#x14a;" horiz-adv-x="756" d="M642 742 Q648 742 650 739.5 Q652 737 652 731 L652 -31 Q652 -102 617.5 -138.5 Q583 -175 508 -175 Q480 -175 455.5 -170 Q431 -165 419 -160 Q410 -157 410 -146 L414 -107 Q416 -96 425 -99 Q457 -111 494 -111 Q535 -111 556 -90.5 Q577 -70 577 -20 L577 26 L180 599 Q171 612 171 599 L171 11 Q171 0 159 0 L116 0 Q109 0 106.5 2.5 Q104 5 104 12 L104 730 Q104 737 106.5 739.5 Q109 742 115 742 L159 742 Q166 742 169 740.5 Q172 739 176 733 L572 157 Q576 152 580 152 Q582 152 584 154.5 Q586 157 586 160 L586 731 Q586 742 597 742 L642 742 Z " />
<glyph glyph-name="uni01CB" unicode="&#x1cb;" horiz-adv-x="988" d="M642 742 Q648 742 650 739.5 Q652 737 652 731 L652 11 Q652 0 641 0 L606 0 L601 0 Q591 0 586 7 L183 597 Q178 604 174.5 603 Q171 602 171 596 L171 11 Q171 0 159 0 L116 0 Q109 0 106.5 2.5 Q104 5 104 12 L104 730 Q104 737 106.5 739.5 Q109 742 115 742 L157 742 Q164 742 167.5 740.5 Q171 739 175 733 L571 151 Q576 145 580 145 Q582 145 584 147.5 Q586 150 586 154 L586 731 Q586 742 596 742 L642 742 Z M909 651 Q909 642 906 637.5 Q903 633 894 633 L848 633 Q835 633 835 649 L835 727 Q835 742 848 742 L896 742 Q909 742 909 728 L909 651 Z M905 -38 Q905 -108 877 -139 Q849 -170 776 -170 Q751 -170 735.5 -169.5 Q720 -169 715.5 -166.5 Q711 -164 711 -158 L711 -124 Q711 -115 719 -115 L773 -113 Q809 -112 824 -94.5 Q839 -77 839 -33 L839 518 Q839 530 851 530 L895 530 Q905 530 905 518 L905 -38 Z " />
<glyph glyph-name="Ntilde" unicode="&#xd1;" horiz-adv-x="756" d="M642 742 Q648 742 650 739.5 Q652 737 652 731 L652 11 Q652 0 641 0 L606 0 L601 0 Q591 0 586 7 L183 597 Q178 604 174.5 603 Q171 602 171 596 L171 11 Q171 0 159 0 L116 0 Q109 0 106.5 2.5 Q104 5 104 12 L104 730 Q104 737 106.5 739.5 Q109 742 115 742 L157 742 Q164 742 167.5 740.5 Q171 739 175 733 L571 151 Q576 145 580 145 Q582 145 584 147.5 Q586 150 586 154 L586 731 Q586 742 596 742 L642 742 Z M527 895 Q496 875 455 875 Q436 875 421 878.5 Q406 882 387 889 Q384 890 367 895 Q350 900 333 900 Q316 900 305 895.5 Q294 891 285.5 886 Q277 881 274 879 L268 876 Q264 876 261 884 L253 906 Q251 911 251.5 913 Q252 915 256 917 Q274 931 290 938.5 Q306 946 329 946 Q354 946 394 932 Q398 931 417 925 Q436 919 455 919 Q471 919 481.5 923 Q492 927 510 937 Q514 940 517 940 Q521 940 524 933 L533 908 L534 904 Q534 899 527 895 Z " />
<glyph glyph-name="O" unicode="O" horiz-adv-x="762" d="M381 -10 Q234 -10 152 88 Q70 186 70 367 Q70 489 107.5 575.5 Q145 662 215.5 707 Q286 752 382 752 Q478 752 547.5 707.5 Q617 663 654 577 Q691 491 691 369 Q691 187 609 88.5 Q527 -10 381 -10 Z M383 51 Q498 51 555 129 Q612 207 612 369 Q612 692 382 692 Q149 692 149 369 Q149 51 383 51 Z " />
<glyph glyph-name="Oacute" unicode="&#xd3;" horiz-adv-x="762" d="M381 -10 Q234 -10 152 88 Q70 186 70 367 Q70 489 107.5 575.5 Q145 662 215.5 707 Q286 752 382 752 Q478 752 547.5 707.5 Q617 663 654 577 Q691 491 691 369 Q691 187 609 88.5 Q527 -10 381 -10 Z M383 51 Q498 51 555 129 Q612 207 612 369 Q612 692 382 692 Q149 692 149 369 Q149 51 383 51 Z M511 919 Q512 917 512 913 Q512 907 502 903 L274 830 Q272 829 268 829 Q261 829 260 836 L253 856 L252 860 Q252 866 257 868 L487 963 L490 963 Q495 963 498 959 L511 919 Z " />
<glyph glyph-name="Obreve" unicode="&#x14e;" horiz-adv-x="762" d="M381 -10 Q234 -10 152 88 Q70 186 70 367 Q70 489 107.5 575.5 Q145 662 215.5 707 Q286 752 382 752 Q478 752 547.5 707.5 Q617 663 654 577 Q691 491 691 369 Q691 187 609 88.5 Q527 -10 381 -10 Z M383 51 Q498 51 555 129 Q612 207 612 369 Q612 692 382 692 Q149 692 149 369 Q149 51 383 51 Z M514 954 Q520 954 522 952 Q524 950 522 944 Q512 908 474 880.5 Q436 853 380 853 Q325 853 289.5 880 Q254 907 242 945 L242 948 Q242 954 248 954 L289 954 Q298 954 303 946 Q319 925 334.5 913.5 Q350 902 380 902 Q432 902 461 947 Q463 951 465.5 952.5 Q468 954 472 954 L514 954 Z " />
<glyph glyph-name="Ocircumflex" unicode="&#xd4;" horiz-adv-x="762" d="M381 -10 Q234 -10 152 88 Q70 186 70 367 Q70 489 107.5 575.5 Q145 662 215.5 707 Q286 752 382 752 Q478 752 547.5 707.5 Q617 663 654 577 Q691 491 691 369 Q691 187 609 88.5 Q527 -10 381 -10 Z M383 51 Q498 51 555 129 Q612 207 612 369 Q612 692 382 692 Q149 692 149 369 Q149 51 383 51 Z M392 904 Q385 911 382 911 Q379 911 371 904 L312 855 Q307 851 304 849.5 Q301 848 295 848 L248 848 Q242 848 241 851 Q240 854 245 859 L347 946 Q357 956 369 956 L400 956 Q407 956 412 952 Q417 948 418 947 L518 859 Q531 848 517 848 L465 848 Q456 848 448 855 L392 904 Z " />
<glyph glyph-name="uni020C" unicode="&#x20c;" horiz-adv-x="762" d="M381 -10 Q234 -10 152 88 Q70 186 70 367 Q70 489 107.5 575.5 Q145 662 215.5 707 Q286 752 382 752 Q478 752 547.5 707.5 Q617 663 654 577 Q691 491 691 369 Q691 187 609 88.5 Q527 -10 381 -10 Z M383 51 Q498 51 555 129 Q612 207 612 369 Q612 692 382 692 Q149 692 149 369 Q149 51 383 51 Z M208 961 Q214 967 220 962 L341 828 Q346 821 340 816 L327 799 Q324 794 320 794 Q318 794 312 798 L185 912 Q178 916 178 921 Q178 923 182 929 L208 961 Z M361 961 Q367 967 373 962 L493 828 Q500 821 493 816 L480 799 Q477 794 473 794 Q471 794 465 798 L338 912 Q331 916 331 921 Q331 923 335 929 L361 961 Z " />
<glyph glyph-name="Odieresis" unicode="&#xd6;" horiz-adv-x="762" d="M381 -10 Q234 -10 152 88 Q70 186 70 367 Q70 489 107.5 575.5 Q145 662 215.5 707 Q286 752 382 752 Q478 752 547.5 707.5 Q617 663 654 577 Q691 491 691 369 Q691 187 609 88.5 Q527 -10 381 -10 Z M383 51 Q498 51 555 129 Q612 207 612 369 Q612 692 382 692 Q149 692 149 369 Q149 51 383 51 Z M351 863 Q351 855 348 852 Q345 849 336 849 L294 849 Q286 849 283.5 851.5 Q281 854 281 861 L281 942 Q281 954 291 954 L341 954 Q351 954 351 943 L351 863 Z M483 863 Q483 855 479.5 852 Q476 849 468 849 L426 849 Q418 849 415.5 851.5 Q413 854 413 861 L413 942 Q413 954 423 954 L472 954 Q483 954 483 943 L483 863 Z " />
<glyph glyph-name="uni1ECC" unicode="&#x1ecc;" horiz-adv-x="762" d="M381 -10 Q234 -10 152 88 Q70 186 70 367 Q70 489 107.5 575.5 Q145 662 215.5 707 Q286 752 382 752 Q478 752 547.5 707.5 Q617 663 654 577 Q691 491 691 369 Q691 187 609 88.5 Q527 -10 381 -10 Z M383 51 Q498 51 555 129 Q612 207 612 369 Q612 692 382 692 Q149 692 149 369 Q149 51 383 51 Z M417 -151 Q417 -159 414 -162 Q411 -165 403 -165 L361 -165 Q354 -165 351.5 -162.5 Q349 -160 349 -154 L349 -70 Q349 -63 351 -60.5 Q353 -58 359 -58 L407 -58 Q417 -58 417 -69 L417 -151 Z " />
<glyph glyph-name="Ograve" unicode="&#xd2;" horiz-adv-x="762" d="M381 -10 Q234 -10 152 88 Q70 186 70 367 Q70 489 107.5 575.5 Q145 662 215.5 707 Q286 752 382 752 Q478 752 547.5 707.5 Q617 663 654 577 Q691 491 691 369 Q691 187 609 88.5 Q527 -10 381 -10 Z M383 51 Q498 51 555 129 Q612 207 612 369 Q612 692 382 692 Q149 692 149 369 Q149 51 383 51 Z M251 959 Q254 965 261 963 L492 868 Q499 865 496 856 L489 836 Q487 831 484 829.5 Q481 828 475 830 L247 903 Q240 906 238 909.5 Q236 913 238 919 L251 959 Z " />
<glyph glyph-name="Ohungarumlaut" unicode="&#x150;" horiz-adv-x="762" d="M381 -10 Q234 -10 152 88 Q70 186 70 367 Q70 489 107.5 575.5 Q145 662 215.5 707 Q286 752 382 752 Q478 752 547.5 707.5 Q617 663 654 577 Q691 491 691 369 Q691 187 609 88.5 Q527 -10 381 -10 Z M383 51 Q498 51 555 129 Q612 207 612 369 Q612 692 382 692 Q149 692 149 369 Q149 51 383 51 Z M425 929 Q429 923 429 921 Q429 916 422 912 L295 798 Q289 794 287 794 Q284 794 279 799 L267 816 Q263 819 263 822.5 Q263 826 266 828 L387 962 Q393 966 398 961 L425 929 Z M579 929 Q582 925 582 921 Q582 916 575 912 L448 798 Q442 794 440 794 Q436 794 433 799 L420 816 Q413 821 420 828 L540 962 Q546 967 552 961 L579 929 Z " />
<glyph glyph-name="uni020E" unicode="&#x20e;" horiz-adv-x="762" d="M381 -10 Q234 -10 152 88 Q70 186 70 367 Q70 489 107.5 575.5 Q145 662 215.5 707 Q286 752 382 752 Q478 752 547.5 707.5 Q617 663 654 577 Q691 491 691 369 Q691 187 609 88.5 Q527 -10 381 -10 Z M383 51 Q498 51 555 129 Q612 207 612 369 Q612 692 382 692 Q149 692 149 369 Q149 51 383 51 Z M472 859 Q468 859 465.5 860.5 Q463 862 461 866 Q432 911 380 911 Q350 911 334.5 899.5 Q319 888 303 867 Q298 859 289 859 L248 859 Q240 859 242 868 Q254 906 289.5 933 Q325 960 380 960 Q436 960 474 932.5 Q512 905 522 869 Q523 867 523 864 Q523 859 514 859 L472 859 Z " />
<glyph glyph-name="Omacron" unicode="&#x14c;" horiz-adv-x="762" d="M381 -10 Q234 -10 152 88 Q70 186 70 367 Q70 489 107.5 575.5 Q145 662 215.5 707 Q286 752 382 752 Q478 752 547.5 707.5 Q617 663 654 577 Q691 491 691 369 Q691 187 609 88.5 Q527 -10 381 -10 Z M383 51 Q498 51 555 129 Q612 207 612 369 Q612 692 382 692 Q149 692 149 369 Q149 51 383 51 Z M521 896 Q521 885 508 885 L252 885 Q243 885 243 896 L243 928 Q243 937 250 937 L514 937 Q521 937 521 929 L521 896 Z " />
<glyph glyph-name="uni01EA" unicode="&#x1ea;" horiz-adv-x="762" d="M461 -1 Q409 -25 386.5 -44.5 Q364 -64 364 -90 Q364 -130 417 -130 Q437 -130 454 -126 Q471 -122 481 -117 Q491 -111 491 -121 L491 -146 Q491 -153 485 -156 Q471 -162 448 -167 Q425 -172 402 -172 Q354 -172 329.5 -151 Q305 -130 305 -93 Q305 -66 319 -46 Q333 -26 367 -10 Q226 -5 148 93 Q70 191 70 367 Q70 489 107.5 575.5 Q145 662 215.5 707 Q286 752 382 752 Q478 752 547.5 707.5 Q617 663 654 577 Q691 491 691 369 Q691 214 631 119 Q571 24 461 -1 Z M149 369 Q149 51 383 51 Q498 51 555 129 Q612 207 612 369 Q612 692 382 692 Q149 692 149 369 Z " />
<glyph glyph-name="Oslash" unicode="&#xd8;" horiz-adv-x="721" d="M699 720 Q706 715 700 707 L616 612 Q671 517 671 369 Q671 248 633.5 163 Q596 78 526.5 34 Q457 -10 361 -10 Q221 -10 141 78 L71 -1 Q65 -9 60 -9 Q54 -9 48 -3 L28 17 Q21 23 20.5 27 Q20 31 24 35 L105 127 Q50 220 50 367 Q50 489 87.5 575.5 Q125 662 195 707 Q265 752 361 752 Q500 752 580 661 L653 745 Q662 755 669 748 L699 720 Z M131 369 Q131 257 162 188 L532 611 Q476 691 361 691 Q131 691 131 369 Z M589 369 Q589 482 558 551 L189 130 Q247 51 362 51 Q477 51 533 129 Q589 207 589 369 Z " />
<glyph glyph-name="Oslashacute" unicode="&#x1fe;" horiz-adv-x="721" d="M699 720 Q706 715 700 707 L616 612 Q671 517 671 369 Q671 248 633.5 163 Q596 78 526.5 34 Q457 -10 361 -10 Q221 -10 141 78 L71 -1 Q65 -9 60 -9 Q54 -9 48 -3 L28 17 Q21 23 20.5 27 Q20 31 24 35 L105 127 Q50 220 50 367 Q50 489 87.5 575.5 Q125 662 195 707 Q265 752 361 752 Q500 752 580 661 L653 745 Q662 755 669 748 L699 720 Z M131 369 Q131 257 162 188 L532 611 Q476 691 361 691 Q131 691 131 369 Z M589 369 Q589 482 558 551 L189 130 Q247 51 362 51 Q477 51 533 129 Q589 207 589 369 Z M490 919 Q491 917 491 913 Q491 907 481 903 L253 830 Q251 829 247 829 Q240 829 239 836 L232 856 L231 860 Q231 866 236 868 L466 963 L469 963 Q474 963 477 959 L490 919 Z " />
<glyph glyph-name="Otilde" unicode="&#xd5;" horiz-adv-x="762" d="M381 -10 Q234 -10 152 88 Q70 186 70 367 Q70 489 107.5 575.5 Q145 662 215.5 707 Q286 752 382 752 Q478 752 547.5 707.5 Q617 663 654 577 Q691 491 691 369 Q691 187 609 88.5 Q527 -10 381 -10 Z M383 51 Q498 51 555 129 Q612 207 612 369 Q612 692 382 692 Q149 692 149 369 Q149 51 383 51 Z M517 895 Q486 875 445 875 Q426 875 411 878.5 Q396 882 377 889 Q374 890 357 895 Q340 900 323 900 Q306 900 295 895.5 Q284 891 275.5 886 Q267 881 264 879 L258 876 Q254 876 251 884 L243 906 Q241 911 241.5 913 Q242 915 246 917 Q264 931 280 938.5 Q296 946 319 946 Q344 946 384 932 Q388 931 407 925 Q426 919 445 919 Q461 919 471.5 923 Q482 927 500 937 Q504 940 507 940 Q511 940 514 933 L523 908 L524 904 Q524 899 517 895 Z " />
<glyph glyph-name="OE" unicode="&#x152;" horiz-adv-x="1123" d="M1064 60 Q1070 60 1072 58.5 Q1074 57 1074 51 L1074 9 Q1074 0 1065 0 L638 0 Q633 0 631 1.5 Q629 3 628 8 L619 117 Q583 54 523 22 Q463 -10 383 -10 Q235 -10 152.5 88 Q70 186 70 367 Q70 489 108 575.5 Q146 662 217 707 Q288 752 386 752 Q466 752 525 719.5 Q584 687 619 623 L626 734 Q627 742 637 742 L1052 742 Q1060 742 1060 733 L1060 692 Q1060 686 1057.5 684 Q1055 682 1049 682 L701 682 Q694 682 691.5 680 Q689 678 689 671 L689 414 Q689 408 691.5 406 Q694 404 700 404 L962 404 Q971 404 971 395 L971 353 Q971 348 969 346.5 Q967 345 962 345 L700 345 Q694 345 691.5 343 Q689 341 689 335 L689 70 Q689 64 691 62 Q693 60 699 60 L1064 60 Z M383 51 Q498 51 554 129 Q610 207 610 369 Q610 692 382 692 Q149 692 149 369 Q149 51 383 51 Z " />
<glyph glyph-name="P" unicode="P" horiz-adv-x="683" d="M626 529 Q626 423 555 370 Q484 317 364 317 L188 317 Q179 317 179 308 L179 12 Q179 0 167 0 L115 0 Q104 0 104 11 L104 730 Q104 737 106.5 739.5 Q109 742 115 742 L354 742 Q479 742 552.5 689.5 Q626 637 626 529 Z M548 532 Q548 613 497.5 648 Q447 683 351 683 L191 683 Q179 683 179 672 L179 389 Q179 377 188 377 L358 377 Q448 377 498 414.5 Q548 452 548 532 Z " />
<glyph glyph-name="Thorn" unicode="&#xde;" horiz-adv-x="685" d="M628 387 Q628 279 557.5 227.5 Q487 176 366 176 L188 176 Q179 176 179 166 L179 12 Q179 0 167 0 L115 0 Q104 0 104 11 L104 730 Q104 737 106.5 739.5 Q109 742 115 742 L169 742 Q175 742 177 739.5 Q179 737 179 730 L179 590 Q179 584 186 584 L356 584 Q480 584 554 534.5 Q628 485 628 387 Z M550 388 Q550 460 499 492 Q448 524 353 524 L191 524 Q185 524 182 522 Q179 520 179 514 L179 247 Q179 235 188 235 L360 235 Q450 235 500 272 Q550 309 550 388 Z " />
<glyph glyph-name="Q" unicode="Q" horiz-adv-x="762" d="M70 369 Q70 553 152.5 652.5 Q235 752 381 752 Q527 752 609 652.5 Q691 553 691 369 Q691 128 546 35 Q541 31 541 26 Q541 13 560.5 -6.5 Q580 -26 611 -42 Q642 -58 674 -62 Q683 -63 683 -71 L683 -107 Q683 -116 677.5 -119.5 Q672 -123 659 -123 Q615 -123 567.5 -95.5 Q520 -68 475 -6 Q470 1 460 -2 Q420 -10 381 -10 Q236 -10 153 87.5 Q70 185 70 369 Z M149 367 Q149 51 381 51 Q613 51 613 369 Q613 529 554.5 610.5 Q496 692 381 692 Q266 692 207.5 610 Q149 528 149 367 Z " />
<glyph glyph-name="R" unicode="R" horiz-adv-x="689" d="M616 17 Q617 15 617 12 Q617 7 614 3.5 Q611 0 606 0 L551 0 Q542 0 537 11 L402 334 Q400 340 395 342.5 Q390 345 380 345 L191 345 Q179 345 179 334 L179 14 Q179 6 176 3 Q173 0 166 0 L117 0 Q104 0 104 12 L104 730 Q104 737 106.5 739.5 Q109 742 115 742 L385 742 Q500 742 562.5 693.5 Q625 645 625 553 Q625 472 582 425 Q539 378 477 360 Q471 359 473 351 L616 17 Z M354 403 Q452 403 499.5 437 Q547 471 547 545 Q547 684 382 684 L192 684 Q179 684 179 675 L179 414 Q179 403 188 403 L354 403 Z " />
<glyph glyph-name="Racute" unicode="&#x154;" horiz-adv-x="689" d="M616 17 Q617 15 617 12 Q617 7 614 3.5 Q611 0 606 0 L551 0 Q542 0 537 11 L402 334 Q400 340 395 342.5 Q390 345 380 345 L191 345 Q179 345 179 334 L179 14 Q179 6 176 3 Q173 0 166 0 L117 0 Q104 0 104 12 L104 730 Q104 737 106.5 739.5 Q109 742 115 742 L385 742 Q500 742 562.5 693.5 Q625 645 625 553 Q625 472 582 425 Q539 378 477 360 Q471 359 473 351 L616 17 Z M354 403 Q452 403 499.5 437 Q547 471 547 545 Q547 684 382 684 L192 684 Q179 684 179 675 L179 414 Q179 403 188 403 L354 403 Z M467 919 Q468 917 468 913 Q468 907 458 903 L230 830 Q228 829 224 829 Q217 829 216 836 L209 856 L208 860 Q208 866 213 868 L443 963 L446 963 Q451 963 454 959 L467 919 Z " />
<glyph glyph-name="Rcaron" unicode="&#x158;" horiz-adv-x="689" d="M616 17 Q617 15 617 12 Q617 7 614 3.5 Q611 0 606 0 L551 0 Q542 0 537 11 L402 334 Q400 340 395 342.5 Q390 345 380 345 L191 345 Q179 345 179 334 L179 14 Q179 6 176 3 Q173 0 166 0 L117 0 Q104 0 104 12 L104 730 Q104 737 106.5 739.5 Q109 742 115 742 L385 742 Q500 742 562.5 693.5 Q625 645 625 553 Q625 472 582 425 Q539 378 477 360 Q471 359 473 351 L616 17 Z M354 403 Q452 403 499.5 437 Q547 471 547 545 Q547 684 382 684 L192 684 Q179 684 179 675 L179 414 Q179 403 188 403 L354 403 Z M404 948 Q413 954 421 954 L473 954 Q480 954 480 951 Q480 948 474 943 L374 855 Q372 854 367.5 850 Q363 846 356 846 L325 846 Q315 846 303 856 L201 943 Q197 947 197 950 Q197 954 204 954 L251 954 Q256 954 259.5 952.5 Q263 951 268 948 L327 899 Q335 892 338 892 Q341 892 348 899 L404 948 Z " />
<glyph glyph-name="Rcommaaccent" unicode="&#x156;" horiz-adv-x="689" d="M616 17 Q617 15 617 12 Q617 7 614 3.5 Q611 0 606 0 L551 0 Q542 0 537 11 L402 334 Q400 340 395 342.5 Q390 345 380 345 L191 345 Q179 345 179 334 L179 14 Q179 6 176 3 Q173 0 166 0 L117 0 Q104 0 104 12 L104 730 Q104 737 106.5 739.5 Q109 742 115 742 L385 742 Q500 742 562.5 693.5 Q625 645 625 553 Q625 472 582 425 Q539 378 477 360 Q471 359 473 351 L616 17 Z M354 403 Q452 403 499.5 437 Q547 471 547 545 Q547 684 382 684 L192 684 Q179 684 179 675 L179 414 Q179 403 188 403 L354 403 Z M315 -238 Q311 -238 309.5 -234.5 Q308 -231 310 -228 L336 -175 Q339 -172 339 -168 Q339 -163 332 -163 L323 -163 Q313 -163 313 -152 L313 -87 Q313 -77 322 -77 L375 -77 Q383 -77 383 -85 L383 -163 Q383 -165 382 -167 Q381 -169 381 -170 L346 -230 Q344 -235 340 -236.5 Q336 -238 329 -238 L315 -238 Z " />
<glyph glyph-name="uni0210" unicode="&#x210;" horiz-adv-x="689" d="M616 17 Q617 15 617 12 Q617 7 614 3.5 Q611 0 606 0 L551 0 Q542 0 537 11 L402 334 Q400 340 395 342.5 Q390 345 380 345 L191 345 Q179 345 179 334 L179 14 Q179 6 176 3 Q173 0 166 0 L117 0 Q104 0 104 12 L104 730 Q104 737 106.5 739.5 Q109 742 115 742 L385 742 Q500 742 562.5 693.5 Q625 645 625 553 Q625 472 582 425 Q539 378 477 360 Q471 359 473 351 L616 17 Z M354 403 Q452 403 499.5 437 Q547 471 547 545 Q547 684 382 684 L192 684 Q179 684 179 675 L179 414 Q179 403 188 403 L354 403 Z M164 961 Q170 967 176 962 L297 828 Q302 821 296 816 L283 799 Q280 794 276 794 Q274 794 268 798 L141 912 Q134 916 134 921 Q134 923 138 929 L164 961 Z M317 961 Q323 967 329 962 L449 828 Q456 821 449 816 L436 799 Q433 794 429 794 Q427 794 421 798 L294 912 Q287 916 287 921 Q287 923 291 929 L317 961 Z " />
<glyph glyph-name="uni1E5A" unicode="&#x1e5a;" horiz-adv-x="689" d="M616 17 Q617 15 617 12 Q617 7 614 3.5 Q611 0 606 0 L551 0 Q542 0 537 11 L402 334 Q400 340 395 342.5 Q390 345 380 345 L191 345 Q179 345 179 334 L179 14 Q179 6 176 3 Q173 0 166 0 L117 0 Q104 0 104 12 L104 730 Q104 737 106.5 739.5 Q109 742 115 742 L385 742 Q500 742 562.5 693.5 Q625 645 625 553 Q625 472 582 425 Q539 378 477 360 Q471 359 473 351 L616 17 Z M354 403 Q452 403 499.5 437 Q547 471 547 545 Q547 684 382 684 L192 684 Q179 684 179 675 L179 414 Q179 403 188 403 L354 403 Z M379 -151 Q379 -159 376 -162 Q373 -165 365 -165 L323 -165 Q316 -165 313.5 -162.5 Q311 -160 311 -154 L311 -70 Q311 -63 313 -60.5 Q315 -58 321 -58 L369 -58 Q379 -58 379 -69 L379 -151 Z " />
<glyph glyph-name="uni0212" unicode="&#x212;" horiz-adv-x="689" d="M616 17 Q617 15 617 12 Q617 7 614 3.5 Q611 0 606 0 L551 0 Q542 0 537 11 L402 334 Q400 340 395 342.5 Q390 345 380 345 L191 345 Q179 345 179 334 L179 14 Q179 6 176 3 Q173 0 166 0 L117 0 Q104 0 104 12 L104 730 Q104 737 106.5 739.5 Q109 742 115 742 L385 742 Q500 742 562.5 693.5 Q625 645 625 553 Q625 472 582 425 Q539 378 477 360 Q471 359 473 351 L616 17 Z M354 403 Q452 403 499.5 437 Q547 471 547 545 Q547 684 382 684 L192 684 Q179 684 179 675 L179 414 Q179 403 188 403 L354 403 Z M428 859 Q424 859 421.5 860.5 Q419 862 417 866 Q388 911 336 911 Q306 911 290.5 899.5 Q275 888 259 867 Q254 859 245 859 L204 859 Q196 859 198 868 Q210 906 245.5 933 Q281 960 336 960 Q392 960 430 932.5 Q468 905 478 869 Q479 867 479 864 Q479 859 470 859 L428 859 Z " />
<glyph glyph-name="S" unicode="S" horiz-adv-x="631" d="M499 613 Q433 692 323 692 Q244 692 198.5 656 Q153 620 153 555 Q153 471 266 431 L408 382 Q495 352 534 305 Q573 258 573 190 Q573 96 504.5 43 Q436 -10 316 -10 Q141 -10 56 114 Q52 122 52 124 Q52 130 62 137 L88 155 Q94 160 100 160 Q107 160 111 154 Q155 98 198 74 Q241 50 314 50 Q401 50 450 82.5 Q499 115 499 184 Q499 227 473.5 256 Q448 285 378 311 L227 366 Q150 393 115 442 Q80 491 80 549 Q80 611 110.5 657 Q141 703 196.5 727.5 Q252 752 324 752 Q463 752 551 654 Q555 648 555 645 Q555 641 551 637 L515 608 Q512 605 509 605 Q505 605 499 613 Z " />
<glyph glyph-name="Sacute" unicode="&#x15a;" horiz-adv-x="631" d="M499 613 Q433 692 323 692 Q244 692 198.5 656 Q153 620 153 555 Q153 471 266 431 L408 382 Q495 352 534 305 Q573 258 573 190 Q573 96 504.5 43 Q436 -10 316 -10 Q141 -10 56 114 Q52 122 52 124 Q52 130 62 137 L88 155 Q94 160 100 160 Q107 160 111 154 Q155 98 198 74 Q241 50 314 50 Q401 50 450 82.5 Q499 115 499 184 Q499 227 473.5 256 Q448 285 378 311 L227 366 Q150 393 115 442 Q80 491 80 549 Q80 611 110.5 657 Q141 703 196.5 727.5 Q252 752 324 752 Q463 752 551 654 Q555 648 555 645 Q555 641 551 637 L515 608 Q512 605 509 605 Q505 605 499 613 Z M454 919 Q455 917 455 913 Q455 907 445 903 L217 830 Q215 829 211 829 Q204 829 203 836 L196 856 L195 860 Q195 866 200 868 L430 963 L433 963 Q438 963 441 959 L454 919 Z " />
<glyph glyph-name="Scaron" unicode="&#x160;" horiz-adv-x="631" d="M499 613 Q433 692 323 692 Q244 692 198.5 656 Q153 620 153 555 Q153 471 266 431 L408 382 Q495 352 534 305 Q573 258 573 190 Q573 96 504.5 43 Q436 -10 316 -10 Q141 -10 56 114 Q52 122 52 124 Q52 130 62 137 L88 155 Q94 160 100 160 Q107 160 111 154 Q155 98 198 74 Q241 50 314 50 Q401 50 450 82.5 Q499 115 499 184 Q499 227 473.5 256 Q448 285 378 311 L227 366 Q150 393 115 442 Q80 491 80 549 Q80 611 110.5 657 Q141 703 196.5 727.5 Q252 752 324 752 Q463 752 551 654 Q555 648 555 645 Q555 641 551 637 L515 608 Q512 605 509 605 Q505 605 499 613 Z M391 948 Q400 954 408 954 L460 954 Q467 954 467 951 Q467 948 461 943 L361 855 Q359 854 354.5 850 Q350 846 343 846 L312 846 Q302 846 290 856 L188 943 Q184 947 184 950 Q184 954 191 954 L238 954 Q243 954 246.5 952.5 Q250 951 255 948 L314 899 Q322 892 325 892 Q328 892 335 899 L391 948 Z " />
<glyph glyph-name="Scedilla" unicode="&#x15e;" horiz-adv-x="631" d="M327 -53 Q326 -57 331 -57 Q374 -60 393 -81 Q412 -102 412 -130 Q412 -167 382 -187 Q352 -207 306 -207 Q257 -207 225 -186 Q220 -183 221 -178 L231 -155 Q234 -150 239 -153 Q252 -162 265.5 -167 Q279 -172 299 -172 Q357 -172 357 -131 Q357 -109 338 -98 Q319 -87 278 -85 Q270 -85 273 -80 L303 -10 Q138 -6 56 114 Q52 122 52 124 Q52 130 62 137 L88 155 Q94 160 100 160 Q107 160 111 154 Q155 98 198 74 Q241 50 314 50 Q401 50 450 82.5 Q499 115 499 184 Q499 227 473.5 256 Q448 285 378 311 L227 366 Q150 393 115 442 Q80 491 80 549 Q80 611 110.5 657 Q141 703 196.5 727.5 Q252 752 324 752 Q463 752 551 654 Q555 648 555 645 Q555 641 551 637 L515 608 Q512 605 509 605 Q505 605 499 613 Q433 692 323 692 Q244 692 198.5 656 Q153 620 153 555 Q153 471 266 431 L408 382 Q495 352 534 305 Q573 258 573 190 Q573 102 512.5 49.5 Q452 -3 345 -9 L327 -53 Z " />
<glyph glyph-name="Scircumflex" unicode="&#x15c;" horiz-adv-x="631" d="M499 613 Q433 692 323 692 Q244 692 198.5 656 Q153 620 153 555 Q153 471 266 431 L408 382 Q495 352 534 305 Q573 258 573 190 Q573 96 504.5 43 Q436 -10 316 -10 Q141 -10 56 114 Q52 122 52 124 Q52 130 62 137 L88 155 Q94 160 100 160 Q107 160 111 154 Q155 98 198 74 Q241 50 314 50 Q401 50 450 82.5 Q499 115 499 184 Q499 227 473.5 256 Q448 285 378 311 L227 366 Q150 393 115 442 Q80 491 80 549 Q80 611 110.5 657 Q141 703 196.5 727.5 Q252 752 324 752 Q463 752 551 654 Q555 648 555 645 Q555 641 551 637 L515 608 Q512 605 509 605 Q505 605 499 613 Z M335 904 Q328 911 325 911 Q322 911 314 904 L255 855 Q250 851 247 849.5 Q244 848 238 848 L191 848 Q185 848 184 851 Q183 854 188 859 L290 946 Q300 956 312 956 L343 956 Q350 956 355 952 Q360 948 361 947 L461 859 Q474 848 460 848 L408 848 Q399 848 391 855 L335 904 Z " />
<glyph glyph-name="Scommaaccent" unicode="&#x218;" horiz-adv-x="631" d="M499 613 Q433 692 323 692 Q244 692 198.5 656 Q153 620 153 555 Q153 471 266 431 L408 382 Q495 352 534 305 Q573 258 573 190 Q573 96 504.5 43 Q436 -10 316 -10 Q141 -10 56 114 Q52 122 52 124 Q52 130 62 137 L88 155 Q94 160 100 160 Q107 160 111 154 Q155 98 198 74 Q241 50 314 50 Q401 50 450 82.5 Q499 115 499 184 Q499 227 473.5 256 Q448 285 378 311 L227 366 Q150 393 115 442 Q80 491 80 549 Q80 611 110.5 657 Q141 703 196.5 727.5 Q252 752 324 752 Q463 752 551 654 Q555 648 555 645 Q555 641 551 637 L515 608 Q512 605 509 605 Q505 605 499 613 Z M298 -238 Q294 -238 292.5 -234.5 Q291 -231 293 -228 L319 -175 Q322 -172 322 -168 Q322 -163 315 -163 L306 -163 Q296 -163 296 -152 L296 -87 Q296 -77 305 -77 L358 -77 Q366 -77 366 -85 L366 -163 Q366 -165 365 -167 Q364 -169 364 -170 L329 -230 Q327 -235 323 -236.5 Q319 -238 312 -238 L298 -238 Z " />
<glyph glyph-name="uni1E62" unicode="&#x1e62;" horiz-adv-x="631" d="M499 613 Q433 692 323 692 Q244 692 198.5 656 Q153 620 153 555 Q153 471 266 431 L408 382 Q495 352 534 305 Q573 258 573 190 Q573 96 504.5 43 Q436 -10 316 -10 Q141 -10 56 114 Q52 122 52 124 Q52 130 62 137 L88 155 Q94 160 100 160 Q107 160 111 154 Q155 98 198 74 Q241 50 314 50 Q401 50 450 82.5 Q499 115 499 184 Q499 227 473.5 256 Q448 285 378 311 L227 366 Q150 393 115 442 Q80 491 80 549 Q80 611 110.5 657 Q141 703 196.5 727.5 Q252 752 324 752 Q463 752 551 654 Q555 648 555 645 Q555 641 551 637 L515 608 Q512 605 509 605 Q505 605 499 613 Z M362 -151 Q362 -159 359 -162 Q356 -165 348 -165 L306 -165 Q299 -165 296.5 -162.5 Q294 -160 294 -154 L294 -70 Q294 -63 296 -60.5 Q298 -58 304 -58 L352 -58 Q362 -58 362 -69 L362 -151 Z " />
<glyph glyph-name="uni018F" unicode="&#x18f;" horiz-adv-x="760" d="M608 396 Q608 510 560 599 Q512 688 381 688 Q309 688 264.5 660 Q220 632 199.5 597.5 Q179 563 164 519 Q160 504 155 495 Q154 493 151.5 493.5 Q149 494 145 495 L91 517 Q87 518 86.5 521 Q86 524 89 529 Q92 535 117 596 Q142 657 212.5 704.5 Q283 752 380 752 Q495 752 564.5 695.5 Q634 639 662 552.5 Q690 466 690 368 Q690 266 657.5 180.5 Q625 95 555.5 42.5 Q486 -10 380 -10 Q216 -10 143 96 Q70 202 70 373 Q70 380 72 383.5 Q74 387 81 387 L599 387 Q604 387 606 389 Q608 391 608 396 Z M164 329 Q153 329 153 321 Q153 208 206 129.5 Q259 51 380 51 Q501 51 552 129 Q603 207 607 329 L164 329 Z " />
<glyph glyph-name="T" unicode="T" horiz-adv-x="636" d="M44 732 Q44 742 54 742 L582 742 Q592 742 592 732 L592 691 Q592 682 582 682 L375 682 Q369 682 367 680.5 Q365 679 365 673 L365 12 Q365 5 362.5 2.5 Q360 0 354 0 L300 0 Q294 0 291.5 2.5 Q289 5 289 12 L289 673 Q289 679 287 680.5 Q285 682 279 682 L54 682 Q44 682 44 691 L44 732 Z " />
<glyph glyph-name="Tbar" unicode="&#x166;" horiz-adv-x="636" d="M582 742 Q592 742 592 732 L592 691 Q592 682 582 682 L375 682 Q369 682 367 680.5 Q365 679 365 673 L365 405 L503 405 Q512 405 512 395 L512 361 Q512 347 496 347 L365 347 L365 12 Q365 5 362.5 2.5 Q360 0 354 0 L300 0 Q294 0 291.5 2.5 Q289 5 289 12 L289 347 L147 347 Q140 347 137 350 Q134 353 134 360 L134 394 Q134 405 143 405 L289 405 L289 673 Q289 679 287 680.5 Q285 682 279 682 L54 682 Q44 682 44 691 L44 732 Q44 742 54 742 L582 742 Z " />
<glyph glyph-name="Tcaron" unicode="&#x164;" horiz-adv-x="636" d="M44 732 Q44 742 54 742 L582 742 Q592 742 592 732 L592 691 Q592 682 582 682 L375 682 Q369 682 367 680.5 Q365 679 365 673 L365 12 Q365 5 362.5 2.5 Q360 0 354 0 L300 0 Q294 0 291.5 2.5 Q289 5 289 12 L289 673 Q289 679 287 680.5 Q285 682 279 682 L54 682 Q44 682 44 691 L44 732 Z M394 948 Q403 954 411 954 L463 954 Q470 954 470 951 Q470 948 464 943 L364 855 Q362 854 357.5 850 Q353 846 346 846 L315 846 Q305 846 293 856 L191 943 Q187 947 187 950 Q187 954 194 954 L241 954 Q246 954 249.5 952.5 Q253 951 258 948 L317 899 Q325 892 328 892 Q331 892 338 899 L394 948 Z " />
<glyph glyph-name="uni0162" unicode="&#x162;" horiz-adv-x="636" d="M582 742 Q592 742 592 732 L592 691 Q592 682 582 682 L375 682 Q369 682 367 680.5 Q365 679 365 673 L365 12 Q365 5 362.5 2.5 Q360 0 354 0 L349 0 L327 -53 Q326 -57 331 -57 Q374 -60 393 -81 Q412 -102 412 -130 Q412 -167 382 -187 Q352 -207 306 -207 Q257 -207 225 -186 Q220 -183 221 -178 L231 -155 Q234 -150 239 -153 Q252 -162 265.5 -167 Q279 -172 299 -172 Q357 -172 357 -131 Q357 -109 338 -98 Q319 -87 278 -85 Q270 -85 273 -80 L307 0 L300 0 Q294 0 291.5 2.5 Q289 5 289 12 L289 673 Q289 679 287 680.5 Q285 682 279 682 L54 682 Q44 682 44 691 L44 732 Q44 742 54 742 L582 742 Z " />
<glyph glyph-name="uni021A" unicode="&#x21a;" horiz-adv-x="636" d="M44 732 Q44 742 54 742 L582 742 Q592 742 592 732 L592 691 Q592 682 582 682 L375 682 Q369 682 367 680.5 Q365 679 365 673 L365 12 Q365 5 362.5 2.5 Q360 0 354 0 L300 0 Q294 0 291.5 2.5 Q289 5 289 12 L289 673 Q289 679 287 680.5 Q285 682 279 682 L54 682 Q44 682 44 691 L44 732 Z M298 -238 Q294 -238 292.5 -234.5 Q291 -231 293 -228 L319 -175 Q322 -172 322 -168 Q322 -163 315 -163 L306 -163 Q296 -163 296 -152 L296 -87 Q296 -77 305 -77 L358 -77 Q366 -77 366 -85 L366 -163 Q366 -165 365 -167 Q364 -169 364 -170 L329 -230 Q327 -235 323 -236.5 Q319 -238 312 -238 L298 -238 Z " />
<glyph glyph-name="uni1E6C" unicode="&#x1e6c;" horiz-adv-x="636" d="M44 732 Q44 742 54 742 L582 742 Q592 742 592 732 L592 691 Q592 682 582 682 L375 682 Q369 682 367 680.5 Q365 679 365 673 L365 12 Q365 5 362.5 2.5 Q360 0 354 0 L300 0 Q294 0 291.5 2.5 Q289 5 289 12 L289 673 Q289 679 287 680.5 Q285 682 279 682 L54 682 Q44 682 44 691 L44 732 Z M362 -151 Q362 -159 359 -162 Q356 -165 348 -165 L306 -165 Q299 -165 296.5 -162.5 Q294 -160 294 -154 L294 -70 Q294 -63 296 -60.5 Q298 -58 304 -58 L352 -58 Q362 -58 362 -69 L362 -151 Z " />
<glyph glyph-name="U" unicode="U" horiz-adv-x="706" d="M612 240 Q612 112 547 51 Q482 -10 353 -10 Q219 -10 156.5 55 Q94 120 94 256 L94 729 Q94 742 104 742 L158 742 Q165 742 167.5 739.5 Q170 737 170 730 L170 236 Q170 51 358 51 Q548 51 548 239 L548 731 Q548 742 558 742 L602 742 Q612 742 612 731 L612 240 Z " />
<glyph glyph-name="Uacute" unicode="&#xda;" horiz-adv-x="706" d="M612 240 Q612 112 547 51 Q482 -10 353 -10 Q219 -10 156.5 55 Q94 120 94 256 L94 729 Q94 742 104 742 L158 742 Q165 742 167.5 739.5 Q170 737 170 730 L170 236 Q170 51 358 51 Q548 51 548 239 L548 731 Q548 742 558 742 L602 742 Q612 742 612 731 L612 240 Z M488 919 Q489 917 489 913 Q489 907 479 903 L251 830 Q249 829 245 829 Q238 829 237 836 L230 856 L229 860 Q229 866 234 868 L464 963 L467 963 Q472 963 475 959 L488 919 Z " />
<glyph glyph-name="Ubreve" unicode="&#x16c;" horiz-adv-x="706" d="M612 240 Q612 112 547 51 Q482 -10 353 -10 Q219 -10 156.5 55 Q94 120 94 256 L94 729 Q94 742 104 742 L158 742 Q165 742 167.5 739.5 Q170 737 170 730 L170 236 Q170 51 358 51 Q548 51 548 239 L548 731 Q548 742 558 742 L602 742 Q612 742 612 731 L612 240 Z M491 954 Q497 954 499 952 Q501 950 499 944 Q489 908 451 880.5 Q413 853 357 853 Q302 853 266.5 880 Q231 907 219 945 L219 948 Q219 954 225 954 L266 954 Q275 954 280 946 Q296 925 311.5 913.5 Q327 902 357 902 Q409 902 438 947 Q440 951 442.5 952.5 Q445 954 449 954 L491 954 Z " />
<glyph glyph-name="Ucircumflex" unicode="&#xdb;" horiz-adv-x="706" d="M612 240 Q612 112 547 51 Q482 -10 353 -10 Q219 -10 156.5 55 Q94 120 94 256 L94 729 Q94 742 104 742 L158 742 Q165 742 167.5 739.5 Q170 737 170 730 L170 236 Q170 51 358 51 Q548 51 548 239 L548 731 Q548 742 558 742 L602 742 Q612 742 612 731 L612 240 Z M369 904 Q362 911 359 911 Q356 911 348 904 L289 855 Q284 851 281 849.5 Q278 848 272 848 L225 848 Q219 848 218 851 Q217 854 222 859 L324 946 Q334 956 346 956 L377 956 Q384 956 389 952 Q394 948 395 947 L495 859 Q508 848 494 848 L442 848 Q433 848 425 855 L369 904 Z " />
<glyph glyph-name="uni0214" unicode="&#x214;" horiz-adv-x="706" d="M612 240 Q612 112 547 51 Q482 -10 353 -10 Q219 -10 156.5 55 Q94 120 94 256 L94 729 Q94 742 104 742 L158 742 Q165 742 167.5 739.5 Q170 737 170 730 L170 236 Q170 51 358 51 Q548 51 548 239 L548 731 Q548 742 558 742 L602 742 Q612 742 612 731 L612 240 Z M185 961 Q191 967 197 962 L318 828 Q323 821 317 816 L304 799 Q301 794 297 794 Q295 794 289 798 L162 912 Q155 916 155 921 Q155 923 159 929 L185 961 Z M338 961 Q344 967 350 962 L470 828 Q477 821 470 816 L457 799 Q454 794 450 794 Q448 794 442 798 L315 912 Q308 916 308 921 Q308 923 312 929 L338 961 Z " />
<glyph glyph-name="Udieresis" unicode="&#xdc;" horiz-adv-x="706" d="M612 240 Q612 112 547 51 Q482 -10 353 -10 Q219 -10 156.5 55 Q94 120 94 256 L94 729 Q94 742 104 742 L158 742 Q165 742 167.5 739.5 Q170 737 170 730 L170 236 Q170 51 358 51 Q548 51 548 239 L548 731 Q548 742 558 742 L602 742 Q612 742 612 731 L612 240 Z M328 863 Q328 855 325 852 Q322 849 313 849 L271 849 Q263 849 260.5 851.5 Q258 854 258 861 L258 942 Q258 954 268 954 L318 954 Q328 954 328 943 L328 863 Z M460 863 Q460 855 456.5 852 Q453 849 445 849 L403 849 Q395 849 392.5 851.5 Q390 854 390 861 L390 942 Q390 954 400 954 L449 954 Q460 954 460 943 L460 863 Z " />
<glyph glyph-name="uni1EE4" unicode="&#x1ee4;" horiz-adv-x="706" d="M612 240 Q612 112 547 51 Q482 -10 353 -10 Q219 -10 156.5 55 Q94 120 94 256 L94 729 Q94 742 104 742 L158 742 Q165 742 167.5 739.5 Q170 737 170 730 L170 236 Q170 51 358 51 Q548 51 548 239 L548 731 Q548 742 558 742 L602 742 Q612 742 612 731 L612 240 Z M372 -151 Q372 -159 369 -162 Q366 -165 358 -165 L316 -165 Q309 -165 306.5 -162.5 Q304 -160 304 -154 L304 -70 Q304 -63 306 -60.5 Q308 -58 314 -58 L362 -58 Q372 -58 372 -69 L372 -151 Z " />
<glyph glyph-name="Ugrave" unicode="&#xd9;" horiz-adv-x="706" d="M612 240 Q612 112 547 51 Q482 -10 353 -10 Q219 -10 156.5 55 Q94 120 94 256 L94 729 Q94 742 104 742 L158 742 Q165 742 167.5 739.5 Q170 737 170 730 L170 236 Q170 51 358 51 Q548 51 548 239 L548 731 Q548 742 558 742 L602 742 Q612 742 612 731 L612 240 Z M228 959 Q231 965 238 963 L469 868 Q476 865 473 856 L466 836 Q464 831 461 829.5 Q458 828 452 830 L224 903 Q217 906 215 909.5 Q213 913 215 919 L228 959 Z " />
<glyph glyph-name="Uhungarumlaut" unicode="&#x170;" horiz-adv-x="706" d="M612 240 Q612 112 547 51 Q482 -10 353 -10 Q219 -10 156.5 55 Q94 120 94 256 L94 729 Q94 742 104 742 L158 742 Q165 742 167.5 739.5 Q170 737 170 730 L170 236 Q170 51 358 51 Q548 51 548 239 L548 731 Q548 742 558 742 L602 742 Q612 742 612 731 L612 240 Z M402 929 Q406 923 406 921 Q406 916 399 912 L272 798 Q266 794 264 794 Q261 794 256 799 L244 816 Q240 819 240 822.5 Q240 826 243 828 L364 962 Q370 966 375 961 L402 929 Z M556 929 Q559 925 559 921 Q559 916 552 912 L425 798 Q419 794 417 794 Q413 794 410 799 L397 816 Q390 821 397 828 L517 962 Q523 967 529 961 L556 929 Z " />
<glyph glyph-name="uni0216" unicode="&#x216;" horiz-adv-x="706" d="M612 240 Q612 112 547 51 Q482 -10 353 -10 Q219 -10 156.5 55 Q94 120 94 256 L94 729 Q94 742 104 742 L158 742 Q165 742 167.5 739.5 Q170 737 170 730 L170 236 Q170 51 358 51 Q548 51 548 239 L548 731 Q548 742 558 742 L602 742 Q612 742 612 731 L612 240 Z M449 859 Q445 859 442.5 860.5 Q440 862 438 866 Q409 911 357 911 Q327 911 311.5 899.5 Q296 888 280 867 Q275 859 266 859 L225 859 Q217 859 219 868 Q231 906 266.5 933 Q302 960 357 960 Q413 960 451 932.5 Q489 905 499 869 Q500 867 500 864 Q500 859 491 859 L449 859 Z " />
<glyph glyph-name="Umacron" unicode="&#x16a;" horiz-adv-x="706" d="M612 240 Q612 112 547 51 Q482 -10 353 -10 Q219 -10 156.5 55 Q94 120 94 256 L94 729 Q94 742 104 742 L158 742 Q165 742 167.5 739.5 Q170 737 170 730 L170 236 Q170 51 358 51 Q548 51 548 239 L548 731 Q548 742 558 742 L602 742 Q612 742 612 731 L612 240 Z M498 896 Q498 885 485 885 L229 885 Q220 885 220 896 L220 928 Q220 937 227 937 L491 937 Q498 937 498 929 L498 896 Z " />
<glyph glyph-name="Uogonek" unicode="&#x172;" horiz-adv-x="706" d="M602 742 Q612 742 612 731 L612 240 Q612 134 567 74 Q522 14 433 -3 Q383 -26 361.5 -45 Q340 -64 340 -90 Q340 -130 393 -130 Q413 -130 430 -126 Q447 -122 457 -117 Q467 -111 467 -121 L467 -146 Q467 -153 461 -156 Q447 -162 424 -167 Q401 -172 378 -172 Q330 -172 305.5 -151 Q281 -130 281 -93 Q281 -66 295 -46 Q309 -26 343 -10 Q215 -8 154.5 57.5 Q94 123 94 256 L94 729 Q94 742 104 742 L158 742 Q165 742 167.5 739.5 Q170 737 170 730 L170 236 Q170 51 358 51 Q548 51 548 239 L548 731 Q548 742 558 742 L602 742 Z " />
<glyph glyph-name="Uring" unicode="&#x16e;" horiz-adv-x="706" d="M612 240 Q612 112 547 51 Q482 -10 353 -10 Q219 -10 156.5 55 Q94 120 94 256 L94 729 Q94 742 104 742 L158 742 Q165 742 167.5 739.5 Q170 737 170 730 L170 236 Q170 51 358 51 Q548 51 548 239 L548 731 Q548 742 558 742 L602 742 Q612 742 612 731 L612 240 Z M465 861 Q465 818 435 788.5 Q405 759 362 759 Q318 759 288.5 789 Q259 819 259 863 Q259 904 289 933 Q319 962 362 962 Q405 962 435 933 Q465 904 465 861 Z M417 860 Q417 885 401 901 Q385 917 361 917 Q338 917 320.5 901 Q303 885 303 860 Q303 838 320.5 820.5 Q338 803 361 803 Q385 803 401 820 Q417 837 417 860 Z " />
<glyph glyph-name="Utilde" unicode="&#x168;" horiz-adv-x="706" d="M612 240 Q612 112 547 51 Q482 -10 353 -10 Q219 -10 156.5 55 Q94 120 94 256 L94 729 Q94 742 104 742 L158 742 Q165 742 167.5 739.5 Q170 737 170 730 L170 236 Q170 51 358 51 Q548 51 548 239 L548 731 Q548 742 558 742 L602 742 Q612 742 612 731 L612 240 Z M494 895 Q463 875 422 875 Q403 875 388 878.5 Q373 882 354 889 Q351 890 334 895 Q317 900 300 900 Q283 900 272 895.5 Q261 891 252.5 886 Q244 881 241 879 L235 876 Q231 876 228 884 L220 906 Q218 911 218.5 913 Q219 915 223 917 Q241 931 257 938.5 Q273 946 296 946 Q321 946 361 932 Q365 931 384 925 Q403 919 422 919 Q438 919 448.5 923 Q459 927 477 937 Q481 940 484 940 Q488 940 491 933 L500 908 L501 904 Q501 899 494 895 Z " />
<glyph glyph-name="V" unicode="V" horiz-adv-x="700" d="M643 742 Q648 742 650.5 738.5 Q653 735 651 730 L394 13 Q390 0 375 0 L322 0 Q303 0 300 12 L49 729 Q48 731 48 734 Q48 737 51 739.5 Q54 742 58 742 L109 742 Q121 742 124 732 L344 99 Q347 90 352 90 Q356 90 359 100 L584 733 Q587 742 597 742 L643 742 Z " />
<glyph glyph-name="W" unicode="W" horiz-adv-x="1035" d="M975 742 Q982 742 985 738 Q988 734 986 728 L779 13 Q776 0 760 0 L711 0 Q693 0 690 12 L521 612 Q520 617 518.5 617 Q517 617 516 612 L344 13 Q340 0 325 0 L275 0 Q257 0 254 12 L51 727 Q51 728 50.5 729 Q50 730 51 731 Q51 742 63 742 L111 742 Q118 742 121 740 Q124 738 126 732 L298 116 Q301 106 304 106 Q307 106 310 117 L485 733 Q490 742 501 742 L545 742 Q552 742 555 740 Q558 738 560 732 L733 115 Q736 106 739 106 Q742 106 745 115 L920 733 Q922 742 935 742 L975 742 Z " />
<glyph glyph-name="Wacute" unicode="&#x1e82;" horiz-adv-x="1035" d="M975 742 Q982 742 985 738 Q988 734 986 728 L779 13 Q776 0 760 0 L711 0 Q693 0 690 12 L521 612 Q520 617 518.5 617 Q517 617 516 612 L344 13 Q340 0 325 0 L275 0 Q257 0 254 12 L51 727 Q51 728 50.5 729 Q50 730 51 731 Q51 742 63 742 L111 742 Q118 742 121 740 Q124 738 126 732 L298 116 Q301 106 304 106 Q307 106 310 117 L485 733 Q490 742 501 742 L545 742 Q552 742 555 740 Q558 738 560 732 L733 115 Q736 106 739 106 Q742 106 745 115 L920 733 Q922 742 935 742 L975 742 Z M649 919 Q650 917 650 913 Q650 907 640 903 L412 830 Q410 829 406 829 Q399 829 398 836 L391 856 L390 860 Q390 866 395 868 L625 963 L628 963 Q633 963 636 959 L649 919 Z " />
<glyph glyph-name="Wcircumflex" unicode="&#x174;" horiz-adv-x="1035" d="M975 742 Q982 742 985 738 Q988 734 986 728 L779 13 Q776 0 760 0 L711 0 Q693 0 690 12 L521 612 Q520 617 518.5 617 Q517 617 516 612 L344 13 Q340 0 325 0 L275 0 Q257 0 254 12 L51 727 Q51 728 50.5 729 Q50 730 51 731 Q51 742 63 742 L111 742 Q118 742 121 740 Q124 738 126 732 L298 116 Q301 106 304 106 Q307 106 310 117 L485 733 Q490 742 501 742 L545 742 Q552 742 555 740 Q558 738 560 732 L733 115 Q736 106 739 106 Q742 106 745 115 L920 733 Q922 742 935 742 L975 742 Z M530 904 Q523 911 520 911 Q517 911 509 904 L450 855 Q445 851 442 849.5 Q439 848 433 848 L386 848 Q380 848 379 851 Q378 854 383 859 L485 946 Q495 956 507 956 L538 956 Q545 956 550 952 Q555 948 556 947 L656 859 Q669 848 655 848 L603 848 Q594 848 586 855 L530 904 Z " />
<glyph glyph-name="Wdieresis" unicode="&#x1e84;" horiz-adv-x="1035" d="M975 742 Q982 742 985 738 Q988 734 986 728 L779 13 Q776 0 760 0 L711 0 Q693 0 690 12 L521 612 Q520 617 518.5 617 Q517 617 516 612 L344 13 Q340 0 325 0 L275 0 Q257 0 254 12 L51 727 Q51 728 50.5 729 Q50 730 51 731 Q51 742 63 742 L111 742 Q118 742 121 740 Q124 738 126 732 L298 116 Q301 106 304 106 Q307 106 310 117 L485 733 Q490 742 501 742 L545 742 Q552 742 555 740 Q558 738 560 732 L733 115 Q736 106 739 106 Q742 106 745 115 L920 733 Q922 742 935 742 L975 742 Z M489 863 Q489 855 486 852 Q483 849 474 849 L432 849 Q424 849 421.5 851.5 Q419 854 419 861 L419 942 Q419 954 429 954 L479 954 Q489 954 489 943 L489 863 Z M621 863 Q621 855 617.5 852 Q614 849 606 849 L564 849 Q556 849 553.5 851.5 Q551 854 551 861 L551 942 Q551 954 561 954 L610 954 Q621 954 621 943 L621 863 Z " />
<glyph glyph-name="Wgrave" unicode="&#x1e80;" horiz-adv-x="1035" d="M975 742 Q982 742 985 738 Q988 734 986 728 L779 13 Q776 0 760 0 L711 0 Q693 0 690 12 L521 612 Q520 617 518.5 617 Q517 617 516 612 L344 13 Q340 0 325 0 L275 0 Q257 0 254 12 L51 727 Q51 728 50.5 729 Q50 730 51 731 Q51 742 63 742 L111 742 Q118 742 121 740 Q124 738 126 732 L298 116 Q301 106 304 106 Q307 106 310 117 L485 733 Q490 742 501 742 L545 742 Q552 742 555 740 Q558 738 560 732 L733 115 Q736 106 739 106 Q742 106 745 115 L920 733 Q922 742 935 742 L975 742 Z M389 959 Q392 965 399 963 L630 868 Q637 865 634 856 L627 836 Q625 831 622 829.5 Q619 828 613 830 L385 903 Q378 906 376 909.5 Q374 913 376 919 L389 959 Z " />
<glyph glyph-name="X" unicode="X" horiz-adv-x="677" d="M625 17 Q630 9 630 6 Q630 0 620 0 L560 0 Q551 0 547 7 L345 308 Q341 317 335 317 Q331 317 323 305 L124 7 Q120 0 110 0 L57 0 Q47 0 47 5 Q47 9 52 17 L287 368 Q291 373 291 378 Q291 383 286 391 L59 730 Q57 734 57 736 Q57 742 64 742 L128 742 Q138 742 142 735 L330 451 Q335 445 339 445 Q344 445 348 452 L536 735 Q540 742 549 742 L608 742 Q618 742 612 732 L385 395 Q382 389 382 385 Q382 381 385 375 L625 17 Z " />
<glyph glyph-name="Y" unicode="Y" horiz-adv-x="660" d="M607 742 Q613 742 615 738 Q617 734 614 729 L376 328 Q373 323 372 317 Q371 311 371 301 L371 16 Q371 0 353 0 L310 0 Q295 0 295 13 L295 294 Q295 302 293.5 307 Q292 312 289 318 L46 727 Q44 730 44 734 Q44 742 56 742 L108 742 Q116 742 119.5 740 Q123 738 127 731 L323 396 Q329 384 335 384 Q339 384 346 394 L540 731 Q544 738 547.5 740 Q551 742 559 742 L607 742 Z " />
<glyph glyph-name="Yacute" unicode="&#xdd;" horiz-adv-x="660" d="M607 742 Q613 742 615 738 Q617 734 614 729 L376 328 Q373 323 372 317 Q371 311 371 301 L371 16 Q371 0 353 0 L310 0 Q295 0 295 13 L295 294 Q295 302 293.5 307 Q292 312 289 318 L46 727 Q44 730 44 734 Q44 742 56 742 L108 742 Q116 742 119.5 740 Q123 738 127 731 L323 396 Q329 384 335 384 Q339 384 346 394 L540 731 Q544 738 547.5 740 Q551 742 559 742 L607 742 Z M457 919 Q458 917 458 913 Q458 907 448 903 L220 830 Q218 829 214 829 Q207 829 206 836 L199 856 L198 860 Q198 866 203 868 L433 963 L436 963 Q441 963 444 959 L457 919 Z " />
<glyph glyph-name="Ycircumflex" unicode="&#x176;" horiz-adv-x="660" d="M607 742 Q613 742 615 738 Q617 734 614 729 L376 328 Q373 323 372 317 Q371 311 371 301 L371 16 Q371 0 353 0 L310 0 Q295 0 295 13 L295 294 Q295 302 293.5 307 Q292 312 289 318 L46 727 Q44 730 44 734 Q44 742 56 742 L108 742 Q116 742 119.5 740 Q123 738 127 731 L323 396 Q329 384 335 384 Q339 384 346 394 L540 731 Q544 738 547.5 740 Q551 742 559 742 L607 742 Z M338 904 Q331 911 328 911 Q325 911 317 904 L258 855 Q253 851 250 849.5 Q247 848 241 848 L194 848 Q188 848 187 851 Q186 854 191 859 L293 946 Q303 956 315 956 L346 956 Q353 956 358 952 Q363 948 364 947 L464 859 Q477 848 463 848 L411 848 Q402 848 394 855 L338 904 Z " />
<glyph glyph-name="Ydieresis" unicode="&#x178;" horiz-adv-x="660" d="M607 742 Q613 742 615 738 Q617 734 614 729 L376 328 Q373 323 372 317 Q371 311 371 301 L371 16 Q371 0 353 0 L310 0 Q295 0 295 13 L295 294 Q295 302 293.5 307 Q292 312 289 318 L46 727 Q44 730 44 734 Q44 742 56 742 L108 742 Q116 742 119.5 740 Q123 738 127 731 L323 396 Q329 384 335 384 Q339 384 346 394 L540 731 Q544 738 547.5 740 Q551 742 559 742 L607 742 Z M297 863 Q297 855 294 852 Q291 849 282 849 L240 849 Q232 849 229.5 851.5 Q227 854 227 861 L227 942 Q227 954 237 954 L287 954 Q297 954 297 943 L297 863 Z M429 863 Q429 855 425.5 852 Q422 849 414 849 L372 849 Q364 849 361.5 851.5 Q359 854 359 861 L359 942 Q359 954 369 954 L418 954 Q429 954 429 943 L429 863 Z " />
<glyph glyph-name="Ygrave" unicode="&#x1ef2;" horiz-adv-x="660" d="M607 742 Q613 742 615 738 Q617 734 614 729 L376 328 Q373 323 372 317 Q371 311 371 301 L371 16 Q371 0 353 0 L310 0 Q295 0 295 13 L295 294 Q295 302 293.5 307 Q292 312 289 318 L46 727 Q44 730 44 734 Q44 742 56 742 L108 742 Q116 742 119.5 740 Q123 738 127 731 L323 396 Q329 384 335 384 Q339 384 346 394 L540 731 Q544 738 547.5 740 Q551 742 559 742 L607 742 Z M197 959 Q200 965 207 963 L438 868 Q445 865 442 856 L435 836 Q433 831 430 829.5 Q427 828 421 830 L193 903 Q186 906 184 909.5 Q182 913 184 919 L197 959 Z " />
<glyph glyph-name="uni1EF8" unicode="&#x1ef8;" horiz-adv-x="660" d="M607 742 Q613 742 615 738 Q617 734 614 729 L376 328 Q373 323 372 317 Q371 311 371 301 L371 16 Q371 0 353 0 L310 0 Q295 0 295 13 L295 294 Q295 302 293.5 307 Q292 312 289 318 L46 727 Q44 730 44 734 Q44 742 56 742 L108 742 Q116 742 119.5 740 Q123 738 127 731 L323 396 Q329 384 335 384 Q339 384 346 394 L540 731 Q544 738 547.5 740 Q551 742 559 742 L607 742 Z M463 895 Q432 875 391 875 Q372 875 357 878.5 Q342 882 323 889 Q320 890 303 895 Q286 900 269 900 Q252 900 241 895.5 Q230 891 221.5 886 Q213 881 210 879 L204 876 Q200 876 197 884 L189 906 Q187 911 187.5 913 Q188 915 192 917 Q210 931 226 938.5 Q242 946 265 946 Q290 946 330 932 Q334 931 353 925 Q372 919 391 919 Q407 919 417.5 923 Q428 927 446 937 Q450 940 453 940 Q457 940 460 933 L469 908 L470 904 Q470 899 463 895 Z " />
<glyph glyph-name="Z" unicode="Z" horiz-adv-x="619" d="M61 0 Q55 0 52.5 2 Q50 4 50 10 L50 30 Q50 36 52.5 41 Q55 46 60 52 L461 673 Q467 682 457 682 L73 682 Q64 682 64 691 L64 734 Q64 742 72 742 L558 742 Q567 742 567 734 L567 711 Q567 707 564.5 702 Q562 697 560 694 L153 69 Q147 60 156 60 L557 60 Q562 60 564 58.5 Q566 57 566 53 L566 9 Q566 0 556 0 L61 0 Z " />
<glyph glyph-name="Zacute" unicode="&#x179;" horiz-adv-x="619" d="M61 0 Q55 0 52.5 2 Q50 4 50 10 L50 30 Q50 36 52.5 41 Q55 46 60 52 L461 673 Q467 682 457 682 L73 682 Q64 682 64 691 L64 734 Q64 742 72 742 L558 742 Q567 742 567 734 L567 711 Q567 707 564.5 702 Q562 697 560 694 L153 69 Q147 60 156 60 L557 60 Q562 60 564 58.5 Q566 57 566 53 L566 9 Q566 0 556 0 L61 0 Z M445 919 Q446 917 446 913 Q446 907 436 903 L208 830 Q206 829 202 829 Q195 829 194 836 L187 856 L186 860 Q186 866 191 868 L421 963 L424 963 Q429 963 432 959 L445 919 Z " />
<glyph glyph-name="Zcaron" unicode="&#x17d;" horiz-adv-x="619" d="M61 0 Q55 0 52.5 2 Q50 4 50 10 L50 30 Q50 36 52.5 41 Q55 46 60 52 L461 673 Q467 682 457 682 L73 682 Q64 682 64 691 L64 734 Q64 742 72 742 L558 742 Q567 742 567 734 L567 711 Q567 707 564.5 702 Q562 697 560 694 L153 69 Q147 60 156 60 L557 60 Q562 60 564 58.5 Q566 57 566 53 L566 9 Q566 0 556 0 L61 0 Z M382 948 Q391 954 399 954 L451 954 Q458 954 458 951 Q458 948 452 943 L352 855 Q350 854 345.5 850 Q341 846 334 846 L303 846 Q293 846 281 856 L179 943 Q175 947 175 950 Q175 954 182 954 L229 954 Q234 954 237.5 952.5 Q241 951 246 948 L305 899 Q313 892 316 892 Q319 892 326 899 L382 948 Z " />
<glyph glyph-name="Zdotaccent" unicode="&#x17b;" horiz-adv-x="619" d="M61 0 Q55 0 52.5 2 Q50 4 50 10 L50 30 Q50 36 52.5 41 Q55 46 60 52 L461 673 Q467 682 457 682 L73 682 Q64 682 64 691 L64 734 Q64 742 72 742 L558 742 Q567 742 567 734 L567 711 Q567 707 564.5 702 Q562 697 560 694 L153 69 Q147 60 156 60 L557 60 Q562 60 564 58.5 Q566 57 566 53 L566 9 Q566 0 556 0 L61 0 Z M353 859 Q353 851 350 848 Q347 845 338 845 L292 845 Q285 845 282 847.5 Q279 850 279 857 L279 942 Q279 949 281.5 951.5 Q284 954 290 954 L343 954 Q349 954 351 951.5 Q353 949 353 942 L353 859 Z " />
<glyph glyph-name="uni1E92" unicode="&#x1e92;" horiz-adv-x="619" d="M61 0 Q55 0 52.5 2 Q50 4 50 10 L50 30 Q50 36 52.5 41 Q55 46 60 52 L461 673 Q467 682 457 682 L73 682 Q64 682 64 691 L64 734 Q64 742 72 742 L558 742 Q567 742 567 734 L567 711 Q567 707 564.5 702 Q562 697 560 694 L153 69 Q147 60 156 60 L557 60 Q562 60 564 58.5 Q566 57 566 53 L566 9 Q566 0 556 0 L61 0 Z M352 -151 Q352 -159 349 -162 Q346 -165 338 -165 L296 -165 Q289 -165 286.5 -162.5 Q284 -160 284 -154 L284 -70 Q284 -63 286 -60.5 Q288 -58 294 -58 L342 -58 Q352 -58 352 -69 L352 -151 Z " />
<glyph glyph-name="a" unicode="a" horiz-adv-x="544" d="M394 67 Q354 28 309.5 9 Q265 -10 212 -10 Q133 -10 88 29 Q43 68 43 135 Q43 213 108.5 258 Q174 303 300 312 L389 319 Q406 321 406 334 L406 363 Q406 421 369.5 455 Q333 489 271 489 Q179 489 118 404 Q115 399 112 398 Q109 397 105 399 L64 416 Q60 418 60 421 Q60 425 63 429 Q94 481 148 510.5 Q202 540 274 540 Q367 540 418.5 494.5 Q470 449 470 368 L470 13 Q470 0 458 0 L421 0 Q409 0 409 13 L407 65 Q405 72 402 72 Q399 72 394 67 Z M406 259 Q406 276 391 274 L316 268 Q110 253 110 142 Q110 96 143 69 Q176 42 231 42 Q264 42 296 54 Q328 66 354 86 Q406 129 406 171 L406 259 Z " />
<glyph glyph-name="aacute" unicode="&#xe1;" horiz-adv-x="544" d="M394 67 Q354 28 309.5 9 Q265 -10 212 -10 Q133 -10 88 29 Q43 68 43 135 Q43 213 108.5 258 Q174 303 300 312 L389 319 Q406 321 406 334 L406 363 Q406 421 369.5 455 Q333 489 271 489 Q179 489 118 404 Q115 399 112 398 Q109 397 105 399 L64 416 Q60 418 60 421 Q60 425 63 429 Q94 481 148 510.5 Q202 540 274 540 Q367 540 418.5 494.5 Q470 449 470 368 L470 13 Q470 0 458 0 L421 0 Q409 0 409 13 L407 65 Q405 72 402 72 Q399 72 394 67 Z M406 259 Q406 276 391 274 L316 268 Q110 253 110 142 Q110 96 143 69 Q176 42 231 42 Q264 42 296 54 Q328 66 354 86 Q406 129 406 171 L406 259 Z M400 707 Q401 705 401 701 Q401 695 391 691 L163 618 Q161 617 157 617 Q150 617 149 624 L142 644 L141 648 Q141 654 146 656 L376 751 L379 751 Q384 751 387 747 L400 707 Z " />
<glyph glyph-name="abreve" unicode="&#x103;" horiz-adv-x="544" d="M394 67 Q354 28 309.5 9 Q265 -10 212 -10 Q133 -10 88 29 Q43 68 43 135 Q43 213 108.5 258 Q174 303 300 312 L389 319 Q406 321 406 334 L406 363 Q406 421 369.5 455 Q333 489 271 489 Q179 489 118 404 Q115 399 112 398 Q109 397 105 399 L64 416 Q60 418 60 421 Q60 425 63 429 Q94 481 148 510.5 Q202 540 274 540 Q367 540 418.5 494.5 Q470 449 470 368 L470 13 Q470 0 458 0 L421 0 Q409 0 409 13 L407 65 Q405 72 402 72 Q399 72 394 67 Z M406 259 Q406 276 391 274 L316 268 Q110 253 110 142 Q110 96 143 69 Q176 42 231 42 Q264 42 296 54 Q328 66 354 86 Q406 129 406 171 L406 259 Z M403 742 Q409 742 411 740 Q413 738 411 732 Q401 696 363 668.5 Q325 641 269 641 Q214 641 178.5 668 Q143 695 131 733 L131 736 Q131 742 137 742 L178 742 Q187 742 192 734 Q208 713 223.5 701.5 Q239 690 269 690 Q321 690 350 735 Q352 739 354.5 740.5 Q357 742 361 742 L403 742 Z " />
<glyph glyph-name="acircumflex" unicode="&#xe2;" horiz-adv-x="544" d="M394 67 Q354 28 309.5 9 Q265 -10 212 -10 Q133 -10 88 29 Q43 68 43 135 Q43 213 108.5 258 Q174 303 300 312 L389 319 Q406 321 406 334 L406 363 Q406 421 369.5 455 Q333 489 271 489 Q179 489 118 404 Q115 399 112 398 Q109 397 105 399 L64 416 Q60 418 60 421 Q60 425 63 429 Q94 481 148 510.5 Q202 540 274 540 Q367 540 418.5 494.5 Q470 449 470 368 L470 13 Q470 0 458 0 L421 0 Q409 0 409 13 L407 65 Q405 72 402 72 Q399 72 394 67 Z M406 259 Q406 276 391 274 L316 268 Q110 253 110 142 Q110 96 143 69 Q176 42 231 42 Q264 42 296 54 Q328 66 354 86 Q406 129 406 171 L406 259 Z M281 692 Q274 699 271 699 Q268 699 260 692 L201 643 Q196 639 193 637.5 Q190 636 184 636 L137 636 Q131 636 130 639 Q129 642 134 647 L236 734 Q246 744 258 744 L289 744 Q296 744 301 740 Q306 736 307 735 L407 647 Q420 636 406 636 L354 636 Q345 636 337 643 L281 692 Z " />
<glyph glyph-name="uni0201" unicode="&#x201;" horiz-adv-x="544" d="M394 67 Q354 28 309.5 9 Q265 -10 212 -10 Q133 -10 88 29 Q43 68 43 135 Q43 213 108.5 258 Q174 303 300 312 L389 319 Q406 321 406 334 L406 363 Q406 421 369.5 455 Q333 489 271 489 Q179 489 118 404 Q115 399 112 398 Q109 397 105 399 L64 416 Q60 418 60 421 Q60 425 63 429 Q94 481 148 510.5 Q202 540 274 540 Q367 540 418.5 494.5 Q470 449 470 368 L470 13 Q470 0 458 0 L421 0 Q409 0 409 13 L407 65 Q405 72 402 72 Q399 72 394 67 Z M406 259 Q406 276 391 274 L316 268 Q110 253 110 142 Q110 96 143 69 Q176 42 231 42 Q264 42 296 54 Q328 66 354 86 Q406 129 406 171 L406 259 Z M97 749 Q103 755 109 750 L230 616 Q235 609 229 604 L216 587 Q213 582 209 582 Q207 582 201 586 L74 700 Q67 704 67 709 Q67 711 71 717 L97 749 Z M250 749 Q256 755 262 750 L382 616 Q389 609 382 604 L369 587 Q366 582 362 582 Q360 582 354 586 L227 700 Q220 704 220 709 Q220 711 224 717 L250 749 Z " />
<glyph glyph-name="adieresis" unicode="&#xe4;" horiz-adv-x="544" d="M394 67 Q354 28 309.5 9 Q265 -10 212 -10 Q133 -10 88 29 Q43 68 43 135 Q43 213 108.5 258 Q174 303 300 312 L389 319 Q406 321 406 334 L406 363 Q406 421 369.5 455 Q333 489 271 489 Q179 489 118 404 Q115 399 112 398 Q109 397 105 399 L64 416 Q60 418 60 421 Q60 425 63 429 Q94 481 148 510.5 Q202 540 274 540 Q367 540 418.5 494.5 Q470 449 470 368 L470 13 Q470 0 458 0 L421 0 Q409 0 409 13 L407 65 Q405 72 402 72 Q399 72 394 67 Z M406 259 Q406 276 391 274 L316 268 Q110 253 110 142 Q110 96 143 69 Q176 42 231 42 Q264 42 296 54 Q328 66 354 86 Q406 129 406 171 L406 259 Z M240 651 Q240 643 237 640 Q234 637 225 637 L183 637 Q175 637 172.5 639.5 Q170 642 170 649 L170 730 Q170 742 180 742 L230 742 Q240 742 240 731 L240 651 Z M372 651 Q372 643 368.5 640 Q365 637 357 637 L315 637 Q307 637 304.5 639.5 Q302 642 302 649 L302 730 Q302 742 312 742 L361 742 Q372 742 372 731 L372 651 Z " />
<glyph glyph-name="agrave" unicode="&#xe0;" horiz-adv-x="544" d="M394 67 Q354 28 309.5 9 Q265 -10 212 -10 Q133 -10 88 29 Q43 68 43 135 Q43 213 108.5 258 Q174 303 300 312 L389 319 Q406 321 406 334 L406 363 Q406 421 369.5 455 Q333 489 271 489 Q179 489 118 404 Q115 399 112 398 Q109 397 105 399 L64 416 Q60 418 60 421 Q60 425 63 429 Q94 481 148 510.5 Q202 540 274 540 Q367 540 418.5 494.5 Q470 449 470 368 L470 13 Q470 0 458 0 L421 0 Q409 0 409 13 L407 65 Q405 72 402 72 Q399 72 394 67 Z M406 259 Q406 276 391 274 L316 268 Q110 253 110 142 Q110 96 143 69 Q176 42 231 42 Q264 42 296 54 Q328 66 354 86 Q406 129 406 171 L406 259 Z M140 747 Q143 753 150 751 L381 656 Q388 653 385 644 L378 624 Q376 619 373 617.5 Q370 616 364 618 L136 691 Q129 694 127 697.5 Q125 701 127 707 L140 747 Z " />
<glyph glyph-name="uni0203" unicode="&#x203;" horiz-adv-x="544" d="M394 67 Q354 28 309.5 9 Q265 -10 212 -10 Q133 -10 88 29 Q43 68 43 135 Q43 213 108.5 258 Q174 303 300 312 L389 319 Q406 321 406 334 L406 363 Q406 421 369.5 455 Q333 489 271 489 Q179 489 118 404 Q115 399 112 398 Q109 397 105 399 L64 416 Q60 418 60 421 Q60 425 63 429 Q94 481 148 510.5 Q202 540 274 540 Q367 540 418.5 494.5 Q470 449 470 368 L470 13 Q470 0 458 0 L421 0 Q409 0 409 13 L407 65 Q405 72 402 72 Q399 72 394 67 Z M406 259 Q406 276 391 274 L316 268 Q110 253 110 142 Q110 96 143 69 Q176 42 231 42 Q264 42 296 54 Q328 66 354 86 Q406 129 406 171 L406 259 Z M361 647 Q357 647 354.5 648.5 Q352 650 350 654 Q321 699 269 699 Q239 699 223.5 687.5 Q208 676 192 655 Q187 647 178 647 L137 647 Q129 647 131 656 Q143 694 178.5 721 Q214 748 269 748 Q325 748 363 720.5 Q401 693 411 657 Q412 655 412 652 Q412 647 403 647 L361 647 Z " />
<glyph glyph-name="amacron" unicode="&#x101;" horiz-adv-x="544" d="M394 67 Q354 28 309.5 9 Q265 -10 212 -10 Q133 -10 88 29 Q43 68 43 135 Q43 213 108.5 258 Q174 303 300 312 L389 319 Q406 321 406 334 L406 363 Q406 421 369.5 455 Q333 489 271 489 Q179 489 118 404 Q115 399 112 398 Q109 397 105 399 L64 416 Q60 418 60 421 Q60 425 63 429 Q94 481 148 510.5 Q202 540 274 540 Q367 540 418.5 494.5 Q470 449 470 368 L470 13 Q470 0 458 0 L421 0 Q409 0 409 13 L407 65 Q405 72 402 72 Q399 72 394 67 Z M406 259 Q406 276 391 274 L316 268 Q110 253 110 142 Q110 96 143 69 Q176 42 231 42 Q264 42 296 54 Q328 66 354 86 Q406 129 406 171 L406 259 Z M410 684 Q410 673 397 673 L141 673 Q132 673 132 684 L132 716 Q132 725 139 725 L403 725 Q410 725 410 717 L410 684 Z " />
<glyph glyph-name="aogonek" unicode="&#x105;" horiz-adv-x="544" d="M485 -113 Q495 -107 495 -117 L495 -142 Q495 -149 489 -152 Q475 -158 452 -163 Q429 -168 406 -168 Q358 -168 333.5 -147 Q309 -126 309 -89 Q309 -56 331.5 -32 Q354 -8 409 9 L409 13 L407 65 Q405 72 402 72 Q399 72 394 67 Q354 28 309.5 9 Q265 -10 212 -10 Q133 -10 88 29 Q43 68 43 135 Q43 213 108.5 258 Q174 303 300 312 L389 319 Q406 321 406 334 L406 363 Q406 421 369.5 455 Q333 489 271 489 Q179 489 118 404 Q115 399 112 398 Q109 397 105 399 L64 416 Q60 418 60 421 Q60 425 63 429 Q94 481 148 510.5 Q202 540 274 540 Q367 540 418.5 494.5 Q470 449 470 368 L470 13 Q470 0 459 0 Q411 -22 389.5 -41.5 Q368 -61 368 -86 Q368 -126 421 -126 Q441 -126 458 -122 Q475 -118 485 -113 Z M406 259 Q406 276 391 274 L316 268 Q110 253 110 142 Q110 96 143 69 Q176 42 231 42 Q264 42 296 54 Q328 66 354 86 Q406 129 406 171 L406 259 Z " />
<glyph glyph-name="aring" unicode="&#xe5;" horiz-adv-x="544" d="M394 67 Q354 28 309.5 9 Q265 -10 212 -10 Q133 -10 88 29 Q43 68 43 135 Q43 213 108.5 258 Q174 303 300 312 L389 319 Q406 321 406 334 L406 363 Q406 421 369.5 455 Q333 489 271 489 Q179 489 118 404 Q115 399 112 398 Q109 397 105 399 L64 416 Q60 418 60 421 Q60 425 63 429 Q94 481 148 510.5 Q202 540 274 540 Q367 540 418.5 494.5 Q470 449 470 368 L470 13 Q470 0 458 0 L421 0 Q409 0 409 13 L407 65 Q405 72 402 72 Q399 72 394 67 Z M406 259 Q406 276 391 274 L316 268 Q110 253 110 142 Q110 96 143 69 Q176 42 231 42 Q264 42 296 54 Q328 66 354 86 Q406 129 406 171 L406 259 Z M374 699 Q374 656 344 626.5 Q314 597 271 597 Q227 597 197.5 627 Q168 657 168 701 Q168 742 198 771 Q228 800 271 800 Q314 800 344 771 Q374 742 374 699 Z M326 698 Q326 723 310 739 Q294 755 270 755 Q247 755 229.5 739 Q212 723 212 698 Q212 676 229.5 658.5 Q247 641 270 641 Q294 641 310 658 Q326 675 326 698 Z " />
<glyph glyph-name="aringacute" unicode="&#x1fb;" horiz-adv-x="544" d="M394 67 Q354 28 309.5 9 Q265 -10 212 -10 Q133 -10 88 29 Q43 68 43 135 Q43 213 108.5 258 Q174 303 300 312 L389 319 Q406 321 406 334 L406 363 Q406 421 369.5 455 Q333 489 271 489 Q179 489 118 404 Q115 399 112 398 Q109 397 105 399 L64 416 Q60 418 60 421 Q60 425 63 429 Q94 481 148 510.5 Q202 540 274 540 Q367 540 418.5 494.5 Q470 449 470 368 L470 13 Q470 0 458 0 L421 0 Q409 0 409 13 L407 65 Q405 72 402 72 Q399 72 394 67 Z M406 259 Q406 276 391 274 L316 268 Q110 253 110 142 Q110 96 143 69 Q176 42 231 42 Q264 42 296 54 Q328 66 354 86 Q406 129 406 171 L406 259 Z M401 913 Q402 911 402 907 Q402 901 392 897 L164 824 Q162 823 158 823 Q151 823 150 830 L143 850 L142 854 Q142 860 147 862 L377 957 L380 957 Q385 957 388 953 L401 913 Z M395 688 Q395 645 365 615.5 Q335 586 292 586 Q248 586 218.5 616 Q189 646 189 690 Q189 731 219 760 Q249 789 292 789 Q335 789 365 760 Q395 731 395 688 Z M347 687 Q347 712 331 728 Q315 744 291 744 Q268 744 250.5 728 Q233 712 233 687 Q233 665 250.5 647.5 Q268 630 291 630 Q315 630 331 647 Q347 664 347 687 Z " />
<glyph glyph-name="atilde" unicode="&#xe3;" horiz-adv-x="544" d="M394 67 Q354 28 309.5 9 Q265 -10 212 -10 Q133 -10 88 29 Q43 68 43 135 Q43 213 108.5 258 Q174 303 300 312 L389 319 Q406 321 406 334 L406 363 Q406 421 369.5 455 Q333 489 271 489 Q179 489 118 404 Q115 399 112 398 Q109 397 105 399 L64 416 Q60 418 60 421 Q60 425 63 429 Q94 481 148 510.5 Q202 540 274 540 Q367 540 418.5 494.5 Q470 449 470 368 L470 13 Q470 0 458 0 L421 0 Q409 0 409 13 L407 65 Q405 72 402 72 Q399 72 394 67 Z M406 259 Q406 276 391 274 L316 268 Q110 253 110 142 Q110 96 143 69 Q176 42 231 42 Q264 42 296 54 Q328 66 354 86 Q406 129 406 171 L406 259 Z M406 683 Q375 663 334 663 Q315 663 300 666.5 Q285 670 266 677 Q263 678 246 683 Q229 688 212 688 Q195 688 184 683.5 Q173 679 164.5 674 Q156 669 153 667 L147 664 Q143 664 140 672 L132 694 Q130 699 130.5 701 Q131 703 135 705 Q153 719 169 726.5 Q185 734 208 734 Q233 734 273 720 Q277 719 296 713 Q315 707 334 707 Q350 707 360.5 711 Q371 715 389 725 Q393 728 396 728 Q400 728 403 721 L412 696 L413 692 Q413 687 406 683 Z " />
<glyph glyph-name="ae" unicode="&#xe6;" horiz-adv-x="928" d="M487 249 Q475 249 471 244.5 Q467 240 467 225 Q467 181 492 138.5 Q517 96 559.5 69.5 Q602 43 652 43 Q713 43 749 66 Q785 89 817 130 Q821 135 823 135.5 Q825 136 829 134 L863 115 Q869 112 864 103 Q834 50 776.5 20 Q719 -10 646 -10 Q570 -10 523 22 Q476 54 440 102 Q437 107 434 102 Q392 52 342.5 21 Q293 -10 210 -10 Q132 -10 87.5 29 Q43 68 43 137 Q43 213 104.5 257.5 Q166 302 290 312 L388 319 Q406 321 406 334 L406 363 Q406 422 370 455.5 Q334 489 267 489 Q179 489 117 404 Q113 399 110.5 398 Q108 397 103 399 L64 416 Q61 418 60.5 421.5 Q60 425 63 429 Q95 483 149 511.5 Q203 540 275 540 Q347 540 390.5 514 Q434 488 451 434 Q482 486 531.5 513 Q581 540 647 540 Q718 540 771 508.5 Q824 477 853.5 416.5 Q883 356 883 271 Q883 260 879.5 255 Q876 250 865 250 L487 249 Z M646 489 Q597 489 557 465.5 Q517 442 493.5 398.5 Q470 355 470 298 L799 297 Q810 297 813 300.5 Q816 304 816 313 Q816 360 794.5 400.5 Q773 441 734 465 Q695 489 646 489 Z M406 257 Q406 265 402.5 269 Q399 273 390 272 L308 266 Q111 249 111 141 Q111 97 140.5 69.5 Q170 42 222 42 Q272 42 314 60 Q356 78 381 108.5 Q406 139 406 174 L406 257 Z " />
<glyph glyph-name="aeacute" unicode="&#x1fd;" horiz-adv-x="928" d="M487 249 Q475 249 471 244.5 Q467 240 467 225 Q467 181 492 138.5 Q517 96 559.5 69.5 Q602 43 652 43 Q713 43 749 66 Q785 89 817 130 Q821 135 823 135.5 Q825 136 829 134 L863 115 Q869 112 864 103 Q834 50 776.5 20 Q719 -10 646 -10 Q570 -10 523 22 Q476 54 440 102 Q437 107 434 102 Q392 52 342.5 21 Q293 -10 210 -10 Q132 -10 87.5 29 Q43 68 43 137 Q43 213 104.5 257.5 Q166 302 290 312 L388 319 Q406 321 406 334 L406 363 Q406 422 370 455.5 Q334 489 267 489 Q179 489 117 404 Q113 399 110.5 398 Q108 397 103 399 L64 416 Q61 418 60.5 421.5 Q60 425 63 429 Q95 483 149 511.5 Q203 540 275 540 Q347 540 390.5 514 Q434 488 451 434 Q482 486 531.5 513 Q581 540 647 540 Q718 540 771 508.5 Q824 477 853.5 416.5 Q883 356 883 271 Q883 260 879.5 255 Q876 250 865 250 L487 249 Z M646 489 Q597 489 557 465.5 Q517 442 493.5 398.5 Q470 355 470 298 L799 297 Q810 297 813 300.5 Q816 304 816 313 Q816 360 794.5 400.5 Q773 441 734 465 Q695 489 646 489 Z M406 257 Q406 265 402.5 269 Q399 273 390 272 L308 266 Q111 249 111 141 Q111 97 140.5 69.5 Q170 42 222 42 Q272 42 314 60 Q356 78 381 108.5 Q406 139 406 174 L406 257 Z M582 707 Q583 705 583 701 Q583 695 573 691 L345 618 Q343 617 339 617 Q332 617 331 624 L324 644 L323 648 Q323 654 328 656 L558 751 L561 751 Q566 751 569 747 L582 707 Z " />
<glyph glyph-name="b" unicode="b" horiz-adv-x="596" d="M96 0 Q89 0 86 3.5 Q83 7 83 15 L83 730 Q83 742 94 742 L139 742 Q149 742 149 729 L149 481 Q149 470 154 470 Q156 470 163 475 Q233 540 328 540 Q435 540 489 464 Q543 388 543 267 Q543 138 482.5 64 Q422 -10 315 -10 Q252 -10 212 15 Q172 40 151 68 Q148 73 145 73 Q141 73 141 65 L137 15 Q136 7 132.5 3.5 Q129 0 120 0 L96 0 Z M149 178 Q149 141 171 109.5 Q193 78 229 59.5 Q265 41 303 41 Q379 41 426.5 98 Q474 155 474 267 Q474 371 431.5 429.5 Q389 488 310 488 Q262 488 220.5 466 Q179 444 149 409 L149 178 Z " />
<glyph glyph-name="c" unicode="c" horiz-adv-x="540" d="M296 540 Q428 540 499 423 Q502 417 501.5 414.5 Q501 412 496 410 L454 396 Q453 395 450 395 Q446 395 442 401 Q406 447 373.5 467.5 Q341 488 301 488 Q218 488 168 427.5 Q118 367 118 265 Q118 163 168 102.5 Q218 42 302 42 Q351 42 388.5 66 Q426 90 457 139 Q463 147 469 143 L504 127 Q510 124 507 115 Q474 57 420.5 23.5 Q367 -10 296 -10 Q224 -10 168 24.5 Q112 59 81 121 Q50 183 50 263 Q50 343 81.5 406 Q113 469 169 504.5 Q225 540 296 540 Z " />
<glyph glyph-name="cacute" unicode="&#x107;" horiz-adv-x="540" d="M296 540 Q428 540 499 423 Q502 417 501.5 414.5 Q501 412 496 410 L454 396 Q453 395 450 395 Q446 395 442 401 Q406 447 373.5 467.5 Q341 488 301 488 Q218 488 168 427.5 Q118 367 118 265 Q118 163 168 102.5 Q218 42 302 42 Q351 42 388.5 66 Q426 90 457 139 Q463 147 469 143 L504 127 Q510 124 507 115 Q474 57 420.5 23.5 Q367 -10 296 -10 Q224 -10 168 24.5 Q112 59 81 121 Q50 183 50 263 Q50 343 81.5 406 Q113 469 169 504.5 Q225 540 296 540 Z M424 707 Q425 705 425 701 Q425 695 415 691 L187 618 Q185 617 181 617 Q174 617 173 624 L166 644 L165 648 Q165 654 170 656 L400 751 L403 751 Q408 751 411 747 L424 707 Z " />
<glyph glyph-name="ccaron" unicode="&#x10d;" horiz-adv-x="540" d="M296 540 Q428 540 499 423 Q502 417 501.5 414.5 Q501 412 496 410 L454 396 Q453 395 450 395 Q446 395 442 401 Q406 447 373.5 467.5 Q341 488 301 488 Q218 488 168 427.5 Q118 367 118 265 Q118 163 168 102.5 Q218 42 302 42 Q351 42 388.5 66 Q426 90 457 139 Q463 147 469 143 L504 127 Q510 124 507 115 Q474 57 420.5 23.5 Q367 -10 296 -10 Q224 -10 168 24.5 Q112 59 81 121 Q50 183 50 263 Q50 343 81.5 406 Q113 469 169 504.5 Q225 540 296 540 Z M361 736 Q370 742 378 742 L430 742 Q437 742 437 739 Q437 736 431 731 L331 643 Q329 642 324.5 638 Q320 634 313 634 L282 634 Q272 634 260 644 L158 731 Q154 735 154 738 Q154 742 161 742 L208 742 Q213 742 216.5 740.5 Q220 739 225 736 L284 687 Q292 680 295 680 Q298 680 305 687 L361 736 Z " />
<glyph glyph-name="ccedilla" unicode="&#xe7;" horiz-adv-x="540" d="M504 127 Q510 124 507 115 Q476 61 427 28 Q378 -5 314 -9 L296 -53 Q295 -57 300 -57 Q343 -60 362 -81 Q381 -102 381 -130 Q381 -167 351 -187 Q321 -207 275 -207 Q226 -207 194 -186 Q189 -183 190 -178 L200 -155 Q203 -150 208 -153 Q221 -162 234.5 -167 Q248 -172 268 -172 Q326 -172 326 -131 Q326 -109 307 -98 Q288 -87 247 -85 Q239 -85 242 -80 L272 -9 Q206 -4 156 31.5 Q106 67 78 127 Q50 187 50 263 Q50 343 81.5 406 Q113 469 169 504.5 Q225 540 296 540 Q428 540 499 423 Q502 417 501.5 414.5 Q501 412 496 410 L454 396 Q453 395 450 395 Q446 395 442 401 Q406 447 373.5 467.5 Q341 488 301 488 Q218 488 168 427.5 Q118 367 118 265 Q118 163 168 102.5 Q218 42 302 42 Q351 42 388.5 66 Q426 90 457 139 Q463 147 469 143 L504 127 Z " />
<glyph glyph-name="ccircumflex" unicode="&#x109;" horiz-adv-x="540" d="M296 540 Q428 540 499 423 Q502 417 501.5 414.5 Q501 412 496 410 L454 396 Q453 395 450 395 Q446 395 442 401 Q406 447 373.5 467.5 Q341 488 301 488 Q218 488 168 427.5 Q118 367 118 265 Q118 163 168 102.5 Q218 42 302 42 Q351 42 388.5 66 Q426 90 457 139 Q463 147 469 143 L504 127 Q510 124 507 115 Q474 57 420.5 23.5 Q367 -10 296 -10 Q224 -10 168 24.5 Q112 59 81 121 Q50 183 50 263 Q50 343 81.5 406 Q113 469 169 504.5 Q225 540 296 540 Z M305 692 Q298 699 295 699 Q292 699 284 692 L225 643 Q220 639 217 637.5 Q214 636 208 636 L161 636 Q155 636 154 639 Q153 642 158 647 L260 734 Q270 744 282 744 L313 744 Q320 744 325 740 Q330 736 331 735 L431 647 Q444 636 430 636 L378 636 Q369 636 361 643 L305 692 Z " />
<glyph glyph-name="cdotaccent" unicode="&#x10b;" horiz-adv-x="540" d="M296 540 Q428 540 499 423 Q502 417 501.5 414.5 Q501 412 496 410 L454 396 Q453 395 450 395 Q446 395 442 401 Q406 447 373.5 467.5 Q341 488 301 488 Q218 488 168 427.5 Q118 367 118 265 Q118 163 168 102.5 Q218 42 302 42 Q351 42 388.5 66 Q426 90 457 139 Q463 147 469 143 L504 127 Q510 124 507 115 Q474 57 420.5 23.5 Q367 -10 296 -10 Q224 -10 168 24.5 Q112 59 81 121 Q50 183 50 263 Q50 343 81.5 406 Q113 469 169 504.5 Q225 540 296 540 Z M332 647 Q332 639 329 636 Q326 633 317 633 L271 633 Q264 633 261 635.5 Q258 638 258 645 L258 730 Q258 737 260.5 739.5 Q263 742 269 742 L322 742 Q328 742 330 739.5 Q332 737 332 730 L332 647 Z " />
<glyph glyph-name="d" unicode="d" horiz-adv-x="596" d="M462 0 Q449 0 449 13 L449 59 Q449 68 445 68 Q442 68 437 63 Q407 33 371.5 11.5 Q336 -10 277 -10 Q213 -10 161.5 20 Q110 50 80.5 110 Q51 170 51 256 Q51 340 81 404.5 Q111 469 165 504.5 Q219 540 289 540 Q336 540 369.5 525.5 Q403 511 432 486 Q440 481 442 481 Q447 481 447 493 L447 730 Q447 742 458 742 L503 742 Q513 742 513 731 L513 14 Q513 6 510 3 Q507 0 499 0 L462 0 Z M447 418 Q412 453 377 470.5 Q342 488 302 488 Q249 488 207.5 461 Q166 434 142.5 382.5 Q119 331 119 260 Q119 152 169 96.5 Q219 41 295 41 Q336 41 371 61 Q406 81 426.5 111.5 Q447 142 447 171 L447 418 Z " />
<glyph glyph-name="eth" unicode="&#xf0;" horiz-adv-x="598" d="M548 259 Q548 180 517.5 119 Q487 58 430.5 24 Q374 -10 297 -10 Q225 -10 168.5 23.5 Q112 57 81 116.5 Q50 176 50 252 Q50 329 81 390 Q112 451 167.5 485.5 Q223 520 292 520 Q380 520 437 463 Q391 566 284 639 L127 550 Q125 549 122 549 Q117 549 113 556 L103 571 Q96 580 104 584 L245 663 Q197 690 137 714 Q133 716 132.5 719 Q132 722 136 726 L165 747 Q167 748 169.5 749.5 Q172 751 175 751 Q180 751 183 749 Q254 722 300 694 L399 750 Q402 751 405 751 Q408 751 410 749 L423 724 Q427 718 422 715 L339 669 Q448 594 498 491.5 Q548 389 548 259 Z M301 43 Q353 43 393.5 70.5 Q434 98 457 146 Q480 194 480 254 Q480 314 456.5 363 Q433 412 392 440 Q351 468 300 468 Q248 468 206.5 440 Q165 412 141.5 363 Q118 314 118 254 Q118 195 141.5 146.5 Q165 98 207 70.5 Q249 43 301 43 Z " />
<glyph glyph-name="dcaron" unicode="&#x10f;" horiz-adv-x="666" d="M462 0 Q449 0 449 13 L449 59 Q449 68 445 68 Q442 68 437 63 Q407 33 371.5 11.5 Q336 -10 277 -10 Q213 -10 161.5 20 Q110 50 80.5 110 Q51 170 51 256 Q51 340 81 404.5 Q111 469 165 504.5 Q219 540 289 540 Q336 540 369.5 525.5 Q403 511 432 486 Q440 481 442 481 Q447 481 447 493 L447 730 Q447 742 458 742 L503 742 Q513 742 513 731 L513 14 Q513 6 510 3 Q507 0 499 0 L462 0 Z M447 418 Q412 453 377 470.5 Q342 488 302 488 Q249 488 207.5 461 Q166 434 142.5 382.5 Q119 331 119 260 Q119 152 169 96.5 Q219 41 295 41 Q336 41 371 61 Q406 81 426.5 111.5 Q447 142 447 171 L447 418 Z M582 555 Q578 555 576.5 558 Q575 561 576 564 L606 635 Q608 641 607.5 643 Q607 645 603 646 L596 647 Q591 648 589 650 Q587 652 587 656 L587 734 Q587 742 594 742 L646 742 Q652 742 652 735 L652 647 L651 642 L617 564 Q614 555 601 555 L582 555 Z " />
<glyph glyph-name="dslash" unicode="&#x111;" horiz-adv-x="606" d="M576 666 Q583 666 583 658 L583 630 Q583 619 570 619 L513 619 L513 14 Q513 6 510 3 Q507 0 499 0 L462 0 Q449 0 449 13 L449 59 Q449 68 445 68 Q442 68 437 63 Q407 33 371.5 11.5 Q336 -10 277 -10 Q213 -10 161.5 20 Q110 50 80.5 110 Q51 170 51 256 Q51 340 81 404.5 Q111 469 165 504.5 Q219 540 289 540 Q336 540 369.5 525.5 Q403 511 432 486 Q440 481 442 481 Q447 481 447 493 L447 619 L290 619 Q284 619 282.5 621.5 Q281 624 281 630 L281 657 Q281 666 287 666 L447 666 L447 730 Q447 742 458 742 L503 742 Q513 742 513 731 L513 666 L576 666 Z M447 418 Q412 453 377 470.5 Q342 488 302 488 Q249 488 207.5 461 Q166 434 142.5 382.5 Q119 331 119 260 Q119 152 169 96.5 Q219 41 295 41 Q336 41 371 61 Q406 81 426.5 111.5 Q447 142 447 171 L447 418 Z " />
<glyph glyph-name="uni1E0D" unicode="&#x1e0d;" horiz-adv-x="596" d="M462 0 Q449 0 449 13 L449 59 Q449 68 445 68 Q442 68 437 63 Q407 33 371.5 11.5 Q336 -10 277 -10 Q213 -10 161.5 20 Q110 50 80.5 110 Q51 170 51 256 Q51 340 81 404.5 Q111 469 165 504.5 Q219 540 289 540 Q336 540 369.5 525.5 Q403 511 432 486 Q440 481 442 481 Q447 481 447 493 L447 730 Q447 742 458 742 L503 742 Q513 742 513 731 L513 14 Q513 6 510 3 Q507 0 499 0 L462 0 Z M447 418 Q412 453 377 470.5 Q342 488 302 488 Q249 488 207.5 461 Q166 434 142.5 382.5 Q119 331 119 260 Q119 152 169 96.5 Q219 41 295 41 Q336 41 371 61 Q406 81 426.5 111.5 Q447 142 447 171 L447 418 Z M337 -151 Q337 -159 334 -162 Q331 -165 323 -165 L281 -165 Q274 -165 271.5 -162.5 Q269 -160 269 -154 L269 -70 Q269 -63 271 -60.5 Q273 -58 279 -58 L327 -58 Q337 -58 337 -69 L337 -151 Z " />
<glyph glyph-name="uni01F3" unicode="&#x1f3;" horiz-adv-x="1068" d="M462 0 Q449 0 449 13 L449 59 Q449 68 445 68 Q442 68 437 63 Q407 33 371.5 11.5 Q336 -10 277 -10 Q213 -10 161.5 20 Q110 50 80.5 110 Q51 170 51 256 Q51 340 81 404.5 Q111 469 165 504.5 Q219 540 289 540 Q336 540 369.5 525.5 Q403 511 432 486 Q440 481 442 481 Q447 481 447 493 L447 730 Q447 742 458 742 L503 742 Q513 742 513 731 L513 14 Q513 6 510 3 Q507 0 499 0 L462 0 Z M447 418 Q412 453 377 470.5 Q342 488 302 488 Q249 488 207.5 461 Q166 434 142.5 382.5 Q119 331 119 260 Q119 152 169 96.5 Q219 41 295 41 Q336 41 371 61 Q406 81 426.5 111.5 Q447 142 447 171 L447 418 Z M638 0 Q633 0 631 2 Q629 4 629 10 L629 37 Q629 44 631 49 Q633 54 639 62 L943 472 Q949 481 939 481 L661 481 Q651 481 651 490 L651 521 Q651 530 659 530 L1019 530 Q1026 530 1026 522 L1026 493 Q1026 479 1018 468 L713 58 Q707 49 716 49 L1023 49 Q1032 49 1032 41 L1032 10 Q1032 0 1021 0 L638 0 Z " />
<glyph glyph-name="uni01C6" unicode="&#x1c6;" horiz-adv-x="1068" d="M462 0 Q449 0 449 13 L449 59 Q449 68 445 68 Q442 68 437 63 Q407 33 371.5 11.5 Q336 -10 277 -10 Q213 -10 161.5 20 Q110 50 80.5 110 Q51 170 51 256 Q51 340 81 404.5 Q111 469 165 504.5 Q219 540 289 540 Q336 540 369.5 525.5 Q403 511 432 486 Q440 481 442 481 Q447 481 447 493 L447 730 Q447 742 458 742 L503 742 Q513 742 513 731 L513 14 Q513 6 510 3 Q507 0 499 0 L462 0 Z M447 418 Q412 453 377 470.5 Q342 488 302 488 Q249 488 207.5 461 Q166 434 142.5 382.5 Q119 331 119 260 Q119 152 169 96.5 Q219 41 295 41 Q336 41 371 61 Q406 81 426.5 111.5 Q447 142 447 171 L447 418 Z M638 0 Q633 0 631 2 Q629 4 629 10 L629 37 Q629 44 631 49 Q633 54 639 62 L943 472 Q949 481 939 481 L661 481 Q651 481 651 490 L651 521 Q651 530 659 530 L1019 530 Q1026 530 1026 522 L1026 493 Q1026 479 1018 468 L713 58 Q707 49 716 49 L1023 49 Q1032 49 1032 41 L1032 10 Q1032 0 1021 0 L638 0 Z M911 736 Q920 742 928 742 L980 742 Q987 742 987 739 Q987 736 981 731 L881 643 Q879 642 874.5 638 Q870 634 863 634 L832 634 Q822 634 810 644 L708 731 Q704 735 704 738 Q704 742 711 742 L758 742 Q763 742 766.5 740.5 Q770 739 775 736 L834 687 Q842 680 845 680 Q848 680 855 687 L911 736 Z " />
<glyph glyph-name="e" unicode="e" horiz-adv-x="579" d="M119 235 Q119 184 144 139.5 Q169 95 211.5 69 Q254 43 304 43 Q412 43 468 130 Q471 135 474 135.5 Q477 136 481 134 L515 115 Q518 113 518.5 110 Q519 107 516 103 Q479 45 426 17.5 Q373 -10 300 -10 Q227 -10 170.5 24 Q114 58 82 119.5 Q50 181 50 260 Q50 345 82.5 408.5 Q115 472 171.5 506 Q228 540 299 540 Q408 540 471.5 468.5 Q535 397 535 271 L535 265 Q535 258 532.5 254 Q530 250 521 250 L126 250 Q119 250 119 235 Z M451 297 Q461 297 464.5 300 Q468 303 468 311 Q468 359 447.5 400 Q427 441 389 465 Q351 489 300 489 Q244 489 203 461.5 Q162 434 140.5 390 Q119 346 120 297 L451 297 Z " />
<glyph glyph-name="eacute" unicode="&#xe9;" horiz-adv-x="579" d="M119 235 Q119 184 144 139.5 Q169 95 211.5 69 Q254 43 304 43 Q412 43 468 130 Q471 135 474 135.5 Q477 136 481 134 L515 115 Q518 113 518.5 110 Q519 107 516 103 Q479 45 426 17.5 Q373 -10 300 -10 Q227 -10 170.5 24 Q114 58 82 119.5 Q50 181 50 260 Q50 345 82.5 408.5 Q115 472 171.5 506 Q228 540 299 540 Q408 540 471.5 468.5 Q535 397 535 271 L535 265 Q535 258 532.5 254 Q530 250 521 250 L126 250 Q119 250 119 235 Z M451 297 Q461 297 464.5 300 Q468 303 468 311 Q468 359 447.5 400 Q427 441 389 465 Q351 489 300 489 Q244 489 203 461.5 Q162 434 140.5 390 Q119 346 120 297 L451 297 Z M427 707 Q428 705 428 701 Q428 695 418 691 L190 618 Q188 617 184 617 Q177 617 176 624 L169 644 L168 648 Q168 654 173 656 L403 751 L406 751 Q411 751 414 747 L427 707 Z " />
<glyph glyph-name="ebreve" unicode="&#x115;" horiz-adv-x="579" d="M119 235 Q119 184 144 139.5 Q169 95 211.5 69 Q254 43 304 43 Q412 43 468 130 Q471 135 474 135.5 Q477 136 481 134 L515 115 Q518 113 518.5 110 Q519 107 516 103 Q479 45 426 17.5 Q373 -10 300 -10 Q227 -10 170.5 24 Q114 58 82 119.5 Q50 181 50 260 Q50 345 82.5 408.5 Q115 472 171.5 506 Q228 540 299 540 Q408 540 471.5 468.5 Q535 397 535 271 L535 265 Q535 258 532.5 254 Q530 250 521 250 L126 250 Q119 250 119 235 Z M451 297 Q461 297 464.5 300 Q468 303 468 311 Q468 359 447.5 400 Q427 441 389 465 Q351 489 300 489 Q244 489 203 461.5 Q162 434 140.5 390 Q119 346 120 297 L451 297 Z M430 742 Q436 742 438 740 Q440 738 438 732 Q428 696 390 668.5 Q352 641 296 641 Q241 641 205.5 668 Q170 695 158 733 L158 736 Q158 742 164 742 L205 742 Q214 742 219 734 Q235 713 250.5 701.5 Q266 690 296 690 Q348 690 377 735 Q379 739 381.5 740.5 Q384 742 388 742 L430 742 Z " />
<glyph glyph-name="ecaron" unicode="&#x11b;" horiz-adv-x="579" d="M119 235 Q119 184 144 139.5 Q169 95 211.5 69 Q254 43 304 43 Q412 43 468 130 Q471 135 474 135.5 Q477 136 481 134 L515 115 Q518 113 518.5 110 Q519 107 516 103 Q479 45 426 17.5 Q373 -10 300 -10 Q227 -10 170.5 24 Q114 58 82 119.5 Q50 181 50 260 Q50 345 82.5 408.5 Q115 472 171.5 506 Q228 540 299 540 Q408 540 471.5 468.5 Q535 397 535 271 L535 265 Q535 258 532.5 254 Q530 250 521 250 L126 250 Q119 250 119 235 Z M451 297 Q461 297 464.5 300 Q468 303 468 311 Q468 359 447.5 400 Q427 441 389 465 Q351 489 300 489 Q244 489 203 461.5 Q162 434 140.5 390 Q119 346 120 297 L451 297 Z M364 736 Q373 742 381 742 L433 742 Q440 742 440 739 Q440 736 434 731 L334 643 Q332 642 327.5 638 Q323 634 316 634 L285 634 Q275 634 263 644 L161 731 Q157 735 157 738 Q157 742 164 742 L211 742 Q216 742 219.5 740.5 Q223 739 228 736 L287 687 Q295 680 298 680 Q301 680 308 687 L364 736 Z " />
<glyph glyph-name="ecircumflex" unicode="&#xea;" horiz-adv-x="579" d="M119 235 Q119 184 144 139.5 Q169 95 211.5 69 Q254 43 304 43 Q412 43 468 130 Q471 135 474 135.5 Q477 136 481 134 L515 115 Q518 113 518.5 110 Q519 107 516 103 Q479 45 426 17.5 Q373 -10 300 -10 Q227 -10 170.5 24 Q114 58 82 119.5 Q50 181 50 260 Q50 345 82.5 408.5 Q115 472 171.5 506 Q228 540 299 540 Q408 540 471.5 468.5 Q535 397 535 271 L535 265 Q535 258 532.5 254 Q530 250 521 250 L126 250 Q119 250 119 235 Z M451 297 Q461 297 464.5 300 Q468 303 468 311 Q468 359 447.5 400 Q427 441 389 465 Q351 489 300 489 Q244 489 203 461.5 Q162 434 140.5 390 Q119 346 120 297 L451 297 Z M308 692 Q301 699 298 699 Q295 699 287 692 L228 643 Q223 639 220 637.5 Q217 636 211 636 L164 636 Q158 636 157 639 Q156 642 161 647 L263 734 Q273 744 285 744 L316 744 Q323 744 328 740 Q333 736 334 735 L434 647 Q447 636 433 636 L381 636 Q372 636 364 643 L308 692 Z " />
<glyph glyph-name="uni0205" unicode="&#x205;" horiz-adv-x="579" d="M119 235 Q119 184 144 139.5 Q169 95 211.5 69 Q254 43 304 43 Q412 43 468 130 Q471 135 474 135.5 Q477 136 481 134 L515 115 Q518 113 518.5 110 Q519 107 516 103 Q479 45 426 17.5 Q373 -10 300 -10 Q227 -10 170.5 24 Q114 58 82 119.5 Q50 181 50 260 Q50 345 82.5 408.5 Q115 472 171.5 506 Q228 540 299 540 Q408 540 471.5 468.5 Q535 397 535 271 L535 265 Q535 258 532.5 254 Q530 250 521 250 L126 250 Q119 250 119 235 Z M451 297 Q461 297 464.5 300 Q468 303 468 311 Q468 359 447.5 400 Q427 441 389 465 Q351 489 300 489 Q244 489 203 461.5 Q162 434 140.5 390 Q119 346 120 297 L451 297 Z M124 749 Q130 755 136 750 L257 616 Q262 609 256 604 L243 587 Q240 582 236 582 Q234 582 228 586 L101 700 Q94 704 94 709 Q94 711 98 717 L124 749 Z M277 749 Q283 755 289 750 L409 616 Q416 609 409 604 L396 587 Q393 582 389 582 Q387 582 381 586 L254 700 Q247 704 247 709 Q247 711 251 717 L277 749 Z " />
<glyph glyph-name="edieresis" unicode="&#xeb;" horiz-adv-x="579" d="M119 235 Q119 184 144 139.5 Q169 95 211.5 69 Q254 43 304 43 Q412 43 468 130 Q471 135 474 135.5 Q477 136 481 134 L515 115 Q518 113 518.5 110 Q519 107 516 103 Q479 45 426 17.5 Q373 -10 300 -10 Q227 -10 170.5 24 Q114 58 82 119.5 Q50 181 50 260 Q50 345 82.5 408.5 Q115 472 171.5 506 Q228 540 299 540 Q408 540 471.5 468.5 Q535 397 535 271 L535 265 Q535 258 532.5 254 Q530 250 521 250 L126 250 Q119 250 119 235 Z M451 297 Q461 297 464.5 300 Q468 303 468 311 Q468 359 447.5 400 Q427 441 389 465 Q351 489 300 489 Q244 489 203 461.5 Q162 434 140.5 390 Q119 346 120 297 L451 297 Z M267 651 Q267 643 264 640 Q261 637 252 637 L210 637 Q202 637 199.5 639.5 Q197 642 197 649 L197 730 Q197 742 207 742 L257 742 Q267 742 267 731 L267 651 Z M399 651 Q399 643 395.5 640 Q392 637 384 637 L342 637 Q334 637 331.5 639.5 Q329 642 329 649 L329 730 Q329 742 339 742 L388 742 Q399 742 399 731 L399 651 Z " />
<glyph glyph-name="edotaccent" unicode="&#x117;" horiz-adv-x="579" d="M119 235 Q119 184 144 139.5 Q169 95 211.5 69 Q254 43 304 43 Q412 43 468 130 Q471 135 474 135.5 Q477 136 481 134 L515 115 Q518 113 518.5 110 Q519 107 516 103 Q479 45 426 17.5 Q373 -10 300 -10 Q227 -10 170.5 24 Q114 58 82 119.5 Q50 181 50 260 Q50 345 82.5 408.5 Q115 472 171.5 506 Q228 540 299 540 Q408 540 471.5 468.5 Q535 397 535 271 L535 265 Q535 258 532.5 254 Q530 250 521 250 L126 250 Q119 250 119 235 Z M451 297 Q461 297 464.5 300 Q468 303 468 311 Q468 359 447.5 400 Q427 441 389 465 Q351 489 300 489 Q244 489 203 461.5 Q162 434 140.5 390 Q119 346 120 297 L451 297 Z M289 647 Q289 639 286 636 Q283 633 274 633 L228 633 Q221 633 218 635.5 Q215 638 215 645 L215 730 Q215 737 217.5 739.5 Q220 742 226 742 L279 742 Q285 742 287 739.5 Q289 737 289 730 L289 647 Z " />
<glyph glyph-name="uni1EB9" unicode="&#x1eb9;" horiz-adv-x="579" d="M119 235 Q119 184 144 139.5 Q169 95 211.5 69 Q254 43 304 43 Q412 43 468 130 Q471 135 474 135.5 Q477 136 481 134 L515 115 Q518 113 518.5 110 Q519 107 516 103 Q479 45 426 17.5 Q373 -10 300 -10 Q227 -10 170.5 24 Q114 58 82 119.5 Q50 181 50 260 Q50 345 82.5 408.5 Q115 472 171.5 506 Q228 540 299 540 Q408 540 471.5 468.5 Q535 397 535 271 L535 265 Q535 258 532.5 254 Q530 250 521 250 L126 250 Q119 250 119 235 Z M451 297 Q461 297 464.5 300 Q468 303 468 311 Q468 359 447.5 400 Q427 441 389 465 Q351 489 300 489 Q244 489 203 461.5 Q162 434 140.5 390 Q119 346 120 297 L451 297 Z M335 -151 Q335 -159 332 -162 Q329 -165 321 -165 L279 -165 Q272 -165 269.5 -162.5 Q267 -160 267 -154 L267 -70 Q267 -63 269 -60.5 Q271 -58 277 -58 L325 -58 Q335 -58 335 -69 L335 -151 Z " />
<glyph glyph-name="egrave" unicode="&#xe8;" horiz-adv-x="579" d="M119 235 Q119 184 144 139.5 Q169 95 211.5 69 Q254 43 304 43 Q412 43 468 130 Q471 135 474 135.5 Q477 136 481 134 L515 115 Q518 113 518.5 110 Q519 107 516 103 Q479 45 426 17.5 Q373 -10 300 -10 Q227 -10 170.5 24 Q114 58 82 119.5 Q50 181 50 260 Q50 345 82.5 408.5 Q115 472 171.5 506 Q228 540 299 540 Q408 540 471.5 468.5 Q535 397 535 271 L535 265 Q535 258 532.5 254 Q530 250 521 250 L126 250 Q119 250 119 235 Z M451 297 Q461 297 464.5 300 Q468 303 468 311 Q468 359 447.5 400 Q427 441 389 465 Q351 489 300 489 Q244 489 203 461.5 Q162 434 140.5 390 Q119 346 120 297 L451 297 Z M167 747 Q170 753 177 751 L408 656 Q415 653 412 644 L405 624 Q403 619 400 617.5 Q397 616 391 618 L163 691 Q156 694 154 697.5 Q152 701 154 707 L167 747 Z " />
<glyph glyph-name="uni0207" unicode="&#x207;" horiz-adv-x="579" d="M119 235 Q119 184 144 139.5 Q169 95 211.5 69 Q254 43 304 43 Q412 43 468 130 Q471 135 474 135.5 Q477 136 481 134 L515 115 Q518 113 518.5 110 Q519 107 516 103 Q479 45 426 17.5 Q373 -10 300 -10 Q227 -10 170.5 24 Q114 58 82 119.5 Q50 181 50 260 Q50 345 82.5 408.5 Q115 472 171.5 506 Q228 540 299 540 Q408 540 471.5 468.5 Q535 397 535 271 L535 265 Q535 258 532.5 254 Q530 250 521 250 L126 250 Q119 250 119 235 Z M451 297 Q461 297 464.5 300 Q468 303 468 311 Q468 359 447.5 400 Q427 441 389 465 Q351 489 300 489 Q244 489 203 461.5 Q162 434 140.5 390 Q119 346 120 297 L451 297 Z M388 647 Q384 647 381.5 648.5 Q379 650 377 654 Q348 699 296 699 Q266 699 250.5 687.5 Q235 676 219 655 Q214 647 205 647 L164 647 Q156 647 158 656 Q170 694 205.5 721 Q241 748 296 748 Q352 748 390 720.5 Q428 693 438 657 Q439 655 439 652 Q439 647 430 647 L388 647 Z " />
<glyph glyph-name="emacron" unicode="&#x113;" horiz-adv-x="579" d="M119 235 Q119 184 144 139.5 Q169 95 211.5 69 Q254 43 304 43 Q412 43 468 130 Q471 135 474 135.5 Q477 136 481 134 L515 115 Q518 113 518.5 110 Q519 107 516 103 Q479 45 426 17.5 Q373 -10 300 -10 Q227 -10 170.5 24 Q114 58 82 119.5 Q50 181 50 260 Q50 345 82.5 408.5 Q115 472 171.5 506 Q228 540 299 540 Q408 540 471.5 468.5 Q535 397 535 271 L535 265 Q535 258 532.5 254 Q530 250 521 250 L126 250 Q119 250 119 235 Z M451 297 Q461 297 464.5 300 Q468 303 468 311 Q468 359 447.5 400 Q427 441 389 465 Q351 489 300 489 Q244 489 203 461.5 Q162 434 140.5 390 Q119 346 120 297 L451 297 Z M437 684 Q437 673 424 673 L168 673 Q159 673 159 684 L159 716 Q159 725 166 725 L430 725 Q437 725 437 717 L437 684 Z " />
<glyph glyph-name="eogonek" unicode="&#x119;" horiz-adv-x="579" d="M535 265 Q535 258 532.5 254 Q530 250 521 250 L126 250 Q119 250 119 235 Q119 184 144 139.5 Q169 95 211.5 69 Q254 43 304 43 Q412 43 468 130 Q471 135 474 135.5 Q477 136 481 134 L515 115 Q518 113 518.5 110 Q519 107 516 103 Q468 29 396 4 Q349 -17 328.5 -36 Q308 -55 308 -80 Q308 -120 361 -120 Q381 -120 398 -116 Q415 -112 425 -107 Q435 -101 435 -111 L435 -136 Q435 -143 429 -146 Q415 -152 392 -157 Q369 -162 346 -162 Q298 -162 273.5 -141 Q249 -120 249 -83 Q249 -60 259 -42 Q269 -24 292 -10 Q221 -8 166 26.5 Q111 61 80.5 121.5 Q50 182 50 260 Q50 345 82.5 408.5 Q115 472 171.5 506 Q228 540 299 540 Q408 540 471.5 468.5 Q535 397 535 271 L535 265 Z M451 297 Q461 297 464.5 300 Q468 303 468 311 Q468 359 447.5 400 Q427 441 389 465 Q351 489 300 489 Q244 489 203 461.5 Q162 434 140.5 390 Q119 346 120 297 L451 297 Z " />
<glyph glyph-name="uni1EBD" unicode="&#x1ebd;" horiz-adv-x="579" d="M119 235 Q119 184 144 139.5 Q169 95 211.5 69 Q254 43 304 43 Q412 43 468 130 Q471 135 474 135.5 Q477 136 481 134 L515 115 Q518 113 518.5 110 Q519 107 516 103 Q479 45 426 17.5 Q373 -10 300 -10 Q227 -10 170.5 24 Q114 58 82 119.5 Q50 181 50 260 Q50 345 82.5 408.5 Q115 472 171.5 506 Q228 540 299 540 Q408 540 471.5 468.5 Q535 397 535 271 L535 265 Q535 258 532.5 254 Q530 250 521 250 L126 250 Q119 250 119 235 Z M451 297 Q461 297 464.5 300 Q468 303 468 311 Q468 359 447.5 400 Q427 441 389 465 Q351 489 300 489 Q244 489 203 461.5 Q162 434 140.5 390 Q119 346 120 297 L451 297 Z M433 683 Q402 663 361 663 Q342 663 327 666.5 Q312 670 293 677 Q290 678 273 683 Q256 688 239 688 Q222 688 211 683.5 Q200 679 191.5 674 Q183 669 180 667 L174 664 Q170 664 167 672 L159 694 Q157 699 157.5 701 Q158 703 162 705 Q180 719 196 726.5 Q212 734 235 734 Q260 734 300 720 Q304 719 323 713 Q342 707 361 707 Q377 707 387.5 711 Q398 715 416 725 Q420 728 423 728 Q427 728 430 721 L439 696 L440 692 Q440 687 433 683 Z " />
<glyph glyph-name="f" unicode="f" horiz-adv-x="373" d="M340 530 Q348 530 348 521 L348 487 Q348 479 339 479 L218 479 Q210 479 210 471 L210 13 Q210 0 200 0 L154 0 Q144 0 144 12 L144 471 Q144 479 138 479 L33 479 Q25 479 25 487 L25 521 Q25 530 34 530 L136 530 Q141 530 142.5 532 Q144 534 144 539 L144 615 Q144 742 265 742 L343 742 Q353 742 353 732 L353 701 Q353 692 343 692 L269 692 Q237 692 223 673 Q209 654 209 616 L209 538 Q209 530 217 530 L340 530 Z " />
<glyph glyph-name="g" unicode="g" horiz-adv-x="594" d="M546 535 Q557 535 561 531.5 Q565 528 565 520 L565 495 Q565 486 561 481.5 Q557 477 547 477 Q515 477 494 467 Q481 460 476.5 455 Q472 450 474 444 Q476 440 481 428 Q486 416 489 401.5 Q492 387 492 370 Q492 299 438.5 254 Q385 209 281 209 Q207 209 174.5 196 Q142 183 142 164 Q142 147 164.5 139.5 Q187 132 241 129 L366 122 Q449 117 489.5 81.5 Q530 46 530 -15 Q530 -91 464.5 -133 Q399 -175 280 -175 Q158 -175 93.5 -137.5 Q29 -100 29 -31 Q29 39 121 87 Q127 90 127 92 Q127 95 121 98 Q79 116 79 153 Q79 174 97.5 192.5 Q116 211 153 223 Q158 225 158 228 Q158 232 152 235 Q110 258 89.5 291 Q69 324 69 370 Q69 449 127 493.5 Q185 538 289 538 Q383 538 436 493 Q441 489 446 489 Q452 489 456 493 Q505 535 546 535 Z M282 256 Q429 256 429 371 Q429 429 392 460 Q355 491 282 491 Q211 491 171.5 459 Q132 427 132 371 Q132 316 171 286 Q210 256 282 256 Z M190 73 Q172 74 148 61.5 Q124 49 107 26.5 Q90 4 90 -24 Q90 -75 141 -102 Q192 -129 289 -129 Q466 -129 466 -22 Q466 17 441.5 38.5 Q417 60 361 63 L190 73 Z " />
<glyph glyph-name="uni01F5" unicode="&#x1f5;" horiz-adv-x="594" d="M546 535 Q557 535 561 531.5 Q565 528 565 520 L565 495 Q565 486 561 481.5 Q557 477 547 477 Q515 477 494 467 Q481 460 476.5 455 Q472 450 474 444 Q476 440 481 428 Q486 416 489 401.5 Q492 387 492 370 Q492 299 438.5 254 Q385 209 281 209 Q207 209 174.5 196 Q142 183 142 164 Q142 147 164.5 139.5 Q187 132 241 129 L366 122 Q449 117 489.5 81.5 Q530 46 530 -15 Q530 -91 464.5 -133 Q399 -175 280 -175 Q158 -175 93.5 -137.5 Q29 -100 29 -31 Q29 39 121 87 Q127 90 127 92 Q127 95 121 98 Q79 116 79 153 Q79 174 97.5 192.5 Q116 211 153 223 Q158 225 158 228 Q158 232 152 235 Q110 258 89.5 291 Q69 324 69 370 Q69 449 127 493.5 Q185 538 289 538 Q383 538 436 493 Q441 489 446 489 Q452 489 456 493 Q505 535 546 535 Z M282 256 Q429 256 429 371 Q429 429 392 460 Q355 491 282 491 Q211 491 171.5 459 Q132 427 132 371 Q132 316 171 286 Q210 256 282 256 Z M190 73 Q172 74 148 61.5 Q124 49 107 26.5 Q90 4 90 -24 Q90 -75 141 -102 Q192 -129 289 -129 Q466 -129 466 -22 Q466 17 441.5 38.5 Q417 60 361 63 L190 73 Z M416 707 Q417 705 417 701 Q417 695 407 691 L179 618 Q177 617 173 617 Q166 617 165 624 L158 644 L157 648 Q157 654 162 656 L392 751 L395 751 Q400 751 403 747 L416 707 Z " />
<glyph glyph-name="gbreve" unicode="&#x11f;" horiz-adv-x="594" d="M546 535 Q557 535 561 531.5 Q565 528 565 520 L565 495 Q565 486 561 481.5 Q557 477 547 477 Q515 477 494 467 Q481 460 476.5 455 Q472 450 474 444 Q476 440 481 428 Q486 416 489 401.5 Q492 387 492 370 Q492 299 438.5 254 Q385 209 281 209 Q207 209 174.5 196 Q142 183 142 164 Q142 147 164.5 139.5 Q187 132 241 129 L366 122 Q449 117 489.5 81.5 Q530 46 530 -15 Q530 -91 464.5 -133 Q399 -175 280 -175 Q158 -175 93.5 -137.5 Q29 -100 29 -31 Q29 39 121 87 Q127 90 127 92 Q127 95 121 98 Q79 116 79 153 Q79 174 97.5 192.5 Q116 211 153 223 Q158 225 158 228 Q158 232 152 235 Q110 258 89.5 291 Q69 324 69 370 Q69 449 127 493.5 Q185 538 289 538 Q383 538 436 493 Q441 489 446 489 Q452 489 456 493 Q505 535 546 535 Z M282 256 Q429 256 429 371 Q429 429 392 460 Q355 491 282 491 Q211 491 171.5 459 Q132 427 132 371 Q132 316 171 286 Q210 256 282 256 Z M190 73 Q172 74 148 61.5 Q124 49 107 26.5 Q90 4 90 -24 Q90 -75 141 -102 Q192 -129 289 -129 Q466 -129 466 -22 Q466 17 441.5 38.5 Q417 60 361 63 L190 73 Z M419 742 Q425 742 427 740 Q429 738 427 732 Q417 696 379 668.5 Q341 641 285 641 Q230 641 194.5 668 Q159 695 147 733 L147 736 Q147 742 153 742 L194 742 Q203 742 208 734 Q224 713 239.5 701.5 Q255 690 285 690 Q337 690 366 735 Q368 739 370.5 740.5 Q373 742 377 742 L419 742 Z " />
<glyph glyph-name="gcircumflex" unicode="&#x11d;" horiz-adv-x="594" d="M546 535 Q557 535 561 531.5 Q565 528 565 520 L565 495 Q565 486 561 481.5 Q557 477 547 477 Q515 477 494 467 Q481 460 476.5 455 Q472 450 474 444 Q476 440 481 428 Q486 416 489 401.5 Q492 387 492 370 Q492 299 438.5 254 Q385 209 281 209 Q207 209 174.5 196 Q142 183 142 164 Q142 147 164.5 139.5 Q187 132 241 129 L366 122 Q449 117 489.5 81.5 Q530 46 530 -15 Q530 -91 464.5 -133 Q399 -175 280 -175 Q158 -175 93.5 -137.5 Q29 -100 29 -31 Q29 39 121 87 Q127 90 127 92 Q127 95 121 98 Q79 116 79 153 Q79 174 97.5 192.5 Q116 211 153 223 Q158 225 158 228 Q158 232 152 235 Q110 258 89.5 291 Q69 324 69 370 Q69 449 127 493.5 Q185 538 289 538 Q383 538 436 493 Q441 489 446 489 Q452 489 456 493 Q505 535 546 535 Z M282 256 Q429 256 429 371 Q429 429 392 460 Q355 491 282 491 Q211 491 171.5 459 Q132 427 132 371 Q132 316 171 286 Q210 256 282 256 Z M190 73 Q172 74 148 61.5 Q124 49 107 26.5 Q90 4 90 -24 Q90 -75 141 -102 Q192 -129 289 -129 Q466 -129 466 -22 Q466 17 441.5 38.5 Q417 60 361 63 L190 73 Z M297 692 Q290 699 287 699 Q284 699 276 692 L217 643 Q212 639 209 637.5 Q206 636 200 636 L153 636 Q147 636 146 639 Q145 642 150 647 L252 734 Q262 744 274 744 L305 744 Q312 744 317 740 Q322 736 323 735 L423 647 Q436 636 422 636 L370 636 Q361 636 353 643 L297 692 Z " />
<glyph glyph-name="gcommaaccent" unicode="&#x123;" horiz-adv-x="594" d="M257 627 Q249 627 249 635 L249 713 Q249 718 251 720 L285 780 Q290 788 302 788 L316 788 Q320 788 321.5 784.5 Q323 781 321 778 L295 725 Q293 721 293 719 Q293 713 300 713 L308 713 Q319 713 319 702 L319 637 Q319 627 310 627 L257 627 Z M546 535 Q557 535 561 531.5 Q565 528 565 520 L565 495 Q565 486 561 481.5 Q557 477 547 477 Q515 477 494 467 Q481 460 476.5 455 Q472 450 474 444 Q476 440 481 428 Q486 416 489 401.5 Q492 387 492 370 Q492 299 438.5 254 Q385 209 281 209 Q207 209 174.5 196 Q142 183 142 164 Q142 147 164.5 139.5 Q187 132 241 129 L366 122 Q449 117 489.5 81.5 Q530 46 530 -15 Q530 -91 464.5 -133 Q399 -175 280 -175 Q158 -175 93.5 -137.5 Q29 -100 29 -31 Q29 39 121 87 Q127 90 127 92 Q127 95 121 98 Q79 116 79 153 Q79 174 97.5 192.5 Q116 211 153 223 Q158 225 158 228 Q158 232 152 235 Q110 258 89.5 291 Q69 324 69 370 Q69 449 127 493.5 Q185 538 289 538 Q383 538 436 493 Q441 489 446 489 Q452 489 456 493 Q505 535 546 535 Z M282 256 Q429 256 429 371 Q429 429 392 460 Q355 491 282 491 Q211 491 171.5 459 Q132 427 132 371 Q132 316 171 286 Q210 256 282 256 Z M190 73 Q172 74 148 61.5 Q124 49 107 26.5 Q90 4 90 -24 Q90 -75 141 -102 Q192 -129 289 -129 Q466 -129 466 -22 Q466 17 441.5 38.5 Q417 60 361 63 L190 73 Z " />
<glyph glyph-name="gdotaccent" unicode="&#x121;" horiz-adv-x="594" d="M546 535 Q557 535 561 531.5 Q565 528 565 520 L565 495 Q565 486 561 481.5 Q557 477 547 477 Q515 477 494 467 Q481 460 476.5 455 Q472 450 474 444 Q476 440 481 428 Q486 416 489 401.5 Q492 387 492 370 Q492 299 438.5 254 Q385 209 281 209 Q207 209 174.5 196 Q142 183 142 164 Q142 147 164.5 139.5 Q187 132 241 129 L366 122 Q449 117 489.5 81.5 Q530 46 530 -15 Q530 -91 464.5 -133 Q399 -175 280 -175 Q158 -175 93.5 -137.5 Q29 -100 29 -31 Q29 39 121 87 Q127 90 127 92 Q127 95 121 98 Q79 116 79 153 Q79 174 97.5 192.5 Q116 211 153 223 Q158 225 158 228 Q158 232 152 235 Q110 258 89.5 291 Q69 324 69 370 Q69 449 127 493.5 Q185 538 289 538 Q383 538 436 493 Q441 489 446 489 Q452 489 456 493 Q505 535 546 535 Z M282 256 Q429 256 429 371 Q429 429 392 460 Q355 491 282 491 Q211 491 171.5 459 Q132 427 132 371 Q132 316 171 286 Q210 256 282 256 Z M190 73 Q172 74 148 61.5 Q124 49 107 26.5 Q90 4 90 -24 Q90 -75 141 -102 Q192 -129 289 -129 Q466 -129 466 -22 Q466 17 441.5 38.5 Q417 60 361 63 L190 73 Z M324 647 Q324 639 321 636 Q318 633 309 633 L263 633 Q256 633 253 635.5 Q250 638 250 645 L250 730 Q250 737 252.5 739.5 Q255 742 261 742 L314 742 Q320 742 322 739.5 Q324 737 324 730 L324 647 Z " />
<glyph glyph-name="h" unicode="h" horiz-adv-x="581" d="M95 0 Q83 0 83 12 L83 731 Q83 742 93 742 L136 742 Q146 742 146 732 L146 462 Q146 450 155 459 Q215 503 254.5 521.5 Q294 540 343 540 Q421 540 462.5 499.5 Q504 459 504 390 L504 13 Q504 0 492 0 L450 0 Q438 0 438 12 L438 373 Q438 485 327 485 Q281 485 243.5 466 Q206 447 149 400 L149 12 Q149 0 136 0 L95 0 Z " />
<glyph glyph-name="hbar" unicode="&#x127;" horiz-adv-x="581" d="M343 540 Q421 540 462.5 499.5 Q504 459 504 390 L504 13 Q504 0 492 0 L450 0 Q438 0 438 12 L438 373 Q438 485 327 485 Q281 485 243.5 466 Q206 447 149 400 L149 12 Q149 0 136 0 L95 0 Q83 0 83 12 L83 619 L27 619 Q21 619 19 621.5 Q17 624 17 630 L17 657 Q17 666 24 666 L83 666 L83 731 Q83 742 93 742 L136 742 Q146 742 146 732 L146 666 L313 666 Q320 666 320 658 L320 630 Q320 619 306 619 L146 619 L146 462 Q146 450 155 459 Q215 503 254.5 521.5 Q294 540 343 540 Z " />
<glyph glyph-name="hcircumflex" unicode="&#x125;" horiz-adv-x="581" d="M95 0 Q83 0 83 12 L83 731 Q83 742 93 742 L136 742 Q146 742 146 732 L146 462 Q146 450 155 459 Q215 503 254.5 521.5 Q294 540 343 540 Q421 540 462.5 499.5 Q504 459 504 390 L504 13 Q504 0 492 0 L450 0 Q438 0 438 12 L438 373 Q438 485 327 485 Q281 485 243.5 466 Q206 447 149 400 L149 12 Q149 0 136 0 L95 0 Z M300 912 Q293 919 290 919 Q287 919 279 912 L220 863 Q215 859 212 857.5 Q209 856 203 856 L156 856 Q150 856 149 859 Q148 862 153 867 L255 954 Q265 964 277 964 L308 964 Q315 964 320 960 Q325 956 326 955 L426 867 Q439 856 425 856 L373 856 Q364 856 356 863 L300 912 Z " />
<glyph glyph-name="uni1E25" unicode="&#x1e25;" horiz-adv-x="581" d="M95 0 Q83 0 83 12 L83 731 Q83 742 93 742 L136 742 Q146 742 146 732 L146 462 Q146 450 155 459 Q215 503 254.5 521.5 Q294 540 343 540 Q421 540 462.5 499.5 Q504 459 504 390 L504 13 Q504 0 492 0 L450 0 Q438 0 438 12 L438 373 Q438 485 327 485 Q281 485 243.5 466 Q206 447 149 400 L149 12 Q149 0 136 0 L95 0 Z M337 -151 Q337 -159 334 -162 Q331 -165 323 -165 L281 -165 Q274 -165 271.5 -162.5 Q269 -160 269 -154 L269 -70 Q269 -63 271 -60.5 Q273 -58 279 -58 L327 -58 Q337 -58 337 -69 L337 -151 Z " />
<glyph glyph-name="i" unicode="i" horiz-adv-x="232" d="M153 651 Q153 642 150 637.5 Q147 633 138 633 L92 633 Q84 633 81.5 637 Q79 641 79 649 L79 727 Q79 742 92 742 L140 742 Q153 742 153 728 L153 651 Z M149 15 Q149 6 146 3 Q143 0 133 0 L96 0 Q89 0 86 2.5 Q83 5 83 12 L83 518 Q83 525 85.5 527.5 Q88 530 94 530 L138 530 Q144 530 146.5 527.5 Q149 525 149 518 L149 15 Z " />
<glyph glyph-name="dotlessi" unicode="&#x131;" horiz-adv-x="232" d="M149 15 Q149 6 146 3 Q143 0 133 0 L96 0 Q89 0 86 2.5 Q83 5 83 12 L83 518 Q83 525 85.5 527.5 Q88 530 94 530 L138 530 Q144 530 146.5 527.5 Q149 525 149 518 L149 15 Z " />
<glyph glyph-name="iacute" unicode="&#xed;" horiz-adv-x="232" d="M149 15 Q149 6 146 3 Q143 0 133 0 L96 0 Q89 0 86 2.5 Q83 5 83 12 L83 518 Q83 525 85.5 527.5 Q88 530 94 530 L138 530 Q144 530 146.5 527.5 Q149 525 149 518 L149 15 Z M246 707 Q247 705 247 701 Q247 695 237 691 L9 618 Q7 617 3 617 Q-4 617 -5 624 L-12 644 L-13 648 Q-13 654 -8 656 L222 751 L225 751 Q230 751 233 747 L246 707 Z " />
<glyph glyph-name="ibreve" unicode="&#x12d;" horiz-adv-x="232" d="M149 15 Q149 6 146 3 Q143 0 133 0 L96 0 Q89 0 86 2.5 Q83 5 83 12 L83 518 Q83 525 85.5 527.5 Q88 530 94 530 L138 530 Q144 530 146.5 527.5 Q149 525 149 518 L149 15 Z M249 742 Q255 742 257 740 Q259 738 257 732 Q247 696 209 668.5 Q171 641 115 641 Q60 641 24.5 668 Q-11 695 -23 733 L-23 736 Q-23 742 -17 742 L24 742 Q33 742 38 734 Q54 713 69.5 701.5 Q85 690 115 690 Q167 690 196 735 Q198 739 200.5 740.5 Q203 742 207 742 L249 742 Z " />
<glyph glyph-name="icircumflex" unicode="&#xee;" horiz-adv-x="232" d="M149 15 Q149 6 146 3 Q143 0 133 0 L96 0 Q89 0 86 2.5 Q83 5 83 12 L83 518 Q83 525 85.5 527.5 Q88 530 94 530 L138 530 Q144 530 146.5 527.5 Q149 525 149 518 L149 15 Z M127 692 Q120 699 117 699 Q114 699 106 692 L47 643 Q42 639 39 637.5 Q36 636 30 636 L-17 636 Q-23 636 -24 639 Q-25 642 -20 647 L82 734 Q92 744 104 744 L135 744 Q142 744 147 740 Q152 736 153 735 L253 647 Q266 636 252 636 L200 636 Q191 636 183 643 L127 692 Z " />
<glyph glyph-name="uni0209" unicode="&#x209;" horiz-adv-x="232" d="M149 15 Q149 6 146 3 Q143 0 133 0 L96 0 Q89 0 86 2.5 Q83 5 83 12 L83 518 Q83 525 85.5 527.5 Q88 530 94 530 L138 530 Q144 530 146.5 527.5 Q149 525 149 518 L149 15 Z M-57 749 Q-51 755 -45 750 L76 616 Q81 609 75 604 L62 587 Q59 582 55 582 Q53 582 47 586 L-80 700 Q-87 704 -87 709 Q-87 711 -83 717 L-57 749 Z M96 749 Q102 755 108 750 L228 616 Q235 609 228 604 L215 587 Q212 582 208 582 Q206 582 200 586 L73 700 Q66 704 66 709 Q66 711 70 717 L96 749 Z " />
<glyph glyph-name="idieresis" unicode="&#xef;" horiz-adv-x="232" d="M149 15 Q149 6 146 3 Q143 0 133 0 L96 0 Q89 0 86 2.5 Q83 5 83 12 L83 518 Q83 525 85.5 527.5 Q88 530 94 530 L138 530 Q144 530 146.5 527.5 Q149 525 149 518 L149 15 Z M86 651 Q86 643 83 640 Q80 637 71 637 L29 637 Q21 637 18.5 639.5 Q16 642 16 649 L16 730 Q16 742 26 742 L76 742 Q86 742 86 731 L86 651 Z M218 651 Q218 643 214.5 640 Q211 637 203 637 L161 637 Q153 637 150.5 639.5 Q148 642 148 649 L148 730 Q148 742 158 742 L207 742 Q218 742 218 731 L218 651 Z " />
<glyph glyph-name="uni1ECB" unicode="&#x1ecb;" horiz-adv-x="232" d="M153 651 Q153 642 150 637.5 Q147 633 138 633 L92 633 Q84 633 81.5 637 Q79 641 79 649 L79 727 Q79 742 92 742 L140 742 Q153 742 153 728 L153 651 Z M149 15 Q149 6 146 3 Q143 0 133 0 L96 0 Q89 0 86 2.5 Q83 5 83 12 L83 518 Q83 525 85.5 527.5 Q88 530 94 530 L138 530 Q144 530 146.5 527.5 Q149 525 149 518 L149 15 Z M152 -151 Q152 -159 149 -162 Q146 -165 138 -165 L96 -165 Q89 -165 86.5 -162.5 Q84 -160 84 -154 L84 -70 Q84 -63 86 -60.5 Q88 -58 94 -58 L142 -58 Q152 -58 152 -69 L152 -151 Z " />
<glyph glyph-name="igrave" unicode="&#xec;" horiz-adv-x="232" d="M149 15 Q149 6 146 3 Q143 0 133 0 L96 0 Q89 0 86 2.5 Q83 5 83 12 L83 518 Q83 525 85.5 527.5 Q88 530 94 530 L138 530 Q144 530 146.5 527.5 Q149 525 149 518 L149 15 Z M-14 747 Q-11 753 -4 751 L227 656 Q234 653 231 644 L224 624 Q222 619 219 617.5 Q216 616 210 618 L-18 691 Q-25 694 -27 697.5 Q-29 701 -27 707 L-14 747 Z " />
<glyph glyph-name="uni020B" unicode="&#x20b;" horiz-adv-x="232" d="M149 15 Q149 6 146 3 Q143 0 133 0 L96 0 Q89 0 86 2.5 Q83 5 83 12 L83 518 Q83 525 85.5 527.5 Q88 530 94 530 L138 530 Q144 530 146.5 527.5 Q149 525 149 518 L149 15 Z M207 647 Q203 647 200.5 648.5 Q198 650 196 654 Q167 699 115 699 Q85 699 69.5 687.5 Q54 676 38 655 Q33 647 24 647 L-17 647 Q-25 647 -23 656 Q-11 694 24.5 721 Q60 748 115 748 Q171 748 209 720.5 Q247 693 257 657 Q258 655 258 652 Q258 647 249 647 L207 647 Z " />
<glyph glyph-name="ij" unicode="&#x133;" horiz-adv-x="464" d="M153 651 Q153 642 150 637.5 Q147 633 138 633 L92 633 Q84 633 81.5 637 Q79 641 79 649 L79 727 Q79 742 92 742 L140 742 Q153 742 153 728 L153 651 Z M149 15 Q149 6 146 3 Q143 0 133 0 L96 0 Q89 0 86 2.5 Q83 5 83 12 L83 518 Q83 525 85.5 527.5 Q88 530 94 530 L138 530 Q144 530 146.5 527.5 Q149 525 149 518 L149 15 Z M385 651 Q385 642 382 637.5 Q379 633 370 633 L324 633 Q311 633 311 649 L311 727 Q311 742 324 742 L372 742 Q385 742 385 728 L385 651 Z M381 -38 Q381 -108 353 -139 Q325 -170 252 -170 Q227 -170 211.5 -169.5 Q196 -169 191.5 -166.5 Q187 -164 187 -158 L187 -124 Q187 -115 195 -115 L249 -113 Q285 -112 300 -94.5 Q315 -77 315 -33 L315 518 Q315 530 327 530 L371 530 Q381 530 381 518 L381 -38 Z " />
<glyph glyph-name="imacron" unicode="&#x12b;" horiz-adv-x="232" d="M149 15 Q149 6 146 3 Q143 0 133 0 L96 0 Q89 0 86 2.5 Q83 5 83 12 L83 518 Q83 525 85.5 527.5 Q88 530 94 530 L138 530 Q144 530 146.5 527.5 Q149 525 149 518 L149 15 Z M256 684 Q256 673 243 673 L-13 673 Q-22 673 -22 684 L-22 716 Q-22 725 -15 725 L249 725 Q256 725 256 717 L256 684 Z " />
<glyph glyph-name="iogonek" unicode="&#x12f;" horiz-adv-x="232" d="M93 633 Q86 633 83 635.5 Q80 638 80 645 L80 730 Q80 737 82.5 739.5 Q85 742 91 742 L144 742 Q150 742 152 739.5 Q154 737 154 730 L154 647 Q154 639 151 636 Q148 633 139 633 L93 633 Z M163 -114 Q173 -108 173 -118 L173 -143 Q173 -150 167 -153 Q153 -159 130 -164 Q107 -169 84 -169 Q36 -169 11.5 -148 Q-13 -127 -13 -90 Q-13 -57 9 -33.5 Q31 -10 84 7 Q83 8 83 12 L83 518 Q83 525 85.5 527.5 Q88 530 94 530 L138 530 Q144 530 146.5 527.5 Q149 525 149 518 L149 15 Q149 6 146 3 Q142 1 141 1 Q90 -22 68 -41.5 Q46 -61 46 -87 Q46 -127 99 -127 Q119 -127 136 -123 Q153 -119 163 -114 Z " />
<glyph glyph-name="itilde" unicode="&#x129;" horiz-adv-x="232" d="M149 15 Q149 6 146 3 Q143 0 133 0 L96 0 Q89 0 86 2.5 Q83 5 83 12 L83 518 Q83 525 85.5 527.5 Q88 530 94 530 L138 530 Q144 530 146.5 527.5 Q149 525 149 518 L149 15 Z M252 683 Q221 663 180 663 Q161 663 146 666.5 Q131 670 112 677 Q109 678 92 683 Q75 688 58 688 Q41 688 30 683.5 Q19 679 10.5 674 Q2 669 -1 667 L-7 664 Q-11 664 -14 672 L-22 694 Q-24 699 -23.5 701 Q-23 703 -19 705 Q-1 719 15 726.5 Q31 734 54 734 Q79 734 119 720 Q123 719 142 713 Q161 707 180 707 Q196 707 206.5 711 Q217 715 235 725 Q239 728 242 728 Q246 728 249 721 L258 696 L259 692 Q259 687 252 683 Z " />
<glyph glyph-name="j" unicode="j" horiz-adv-x="232" d="M153 651 Q153 642 150 637.5 Q147 633 138 633 L92 633 Q79 633 79 649 L79 727 Q79 742 92 742 L140 742 Q153 742 153 728 L153 651 Z M149 -38 Q149 -108 121 -139 Q93 -170 20 -170 Q-5 -170 -20.5 -169.5 Q-36 -169 -40.5 -166.5 Q-45 -164 -45 -158 L-45 -124 Q-45 -115 -37 -115 L17 -113 Q53 -112 68 -94.5 Q83 -77 83 -33 L83 518 Q83 530 95 530 L139 530 Q149 530 149 518 L149 -38 Z " />
<glyph glyph-name="uni0237" unicode="&#x237;" horiz-adv-x="232" d="M149 -38 Q149 -108 121 -139 Q93 -170 20 -170 Q-5 -170 -20.5 -169.5 Q-36 -169 -40.5 -166.5 Q-45 -164 -45 -158 L-45 -124 Q-45 -115 -37 -115 L17 -113 Q53 -112 68 -94.5 Q83 -77 83 -33 L83 518 Q83 530 95 530 L139 530 Q149 530 149 518 L149 -38 Z " />
<glyph glyph-name="jcircumflex" unicode="&#x135;" horiz-adv-x="232" d="M149 -38 Q149 -108 121 -139 Q93 -170 20 -170 Q-5 -170 -20.5 -169.5 Q-36 -169 -40.5 -166.5 Q-45 -164 -45 -158 L-45 -124 Q-45 -115 -37 -115 L17 -113 Q53 -112 68 -94.5 Q83 -77 83 -33 L83 518 Q83 530 95 530 L139 530 Q149 530 149 518 L149 -38 Z M126 692 Q119 699 116 699 Q113 699 105 692 L46 643 Q41 639 38 637.5 Q35 636 29 636 L-18 636 Q-24 636 -25 639 Q-26 642 -21 647 L81 734 Q91 744 103 744 L134 744 Q141 744 146 740 Q151 736 152 735 L252 647 Q265 636 251 636 L199 636 Q190 636 182 643 L126 692 Z " />
<glyph glyph-name="k" unicode="k" horiz-adv-x="553" d="M522 15 Q525 11 525 7 Q525 0 515 0 L461 0 Q450 0 446 10 L281 283 Q279 286 277 286.5 Q275 287 271 283 L156 167 Q149 160 149 148 L149 15 Q149 6 146 3 Q143 0 134 0 L97 0 Q89 0 86 2.5 Q83 5 83 12 L83 730 Q83 737 85.5 739.5 Q88 742 94 742 L139 742 Q149 742 149 730 L149 252 Q149 243 152 243 Q154 243 159 248 L422 519 Q428 525 431.5 527.5 Q435 530 441 530 L490 530 Q500 530 500 524 Q500 519 494 513 L331 347 Q327 343 327 340 Q327 337 330 332 L522 15 Z " />
<glyph glyph-name="kcommaaccent" unicode="&#x137;" horiz-adv-x="553" d="M522 15 Q525 11 525 7 Q525 0 515 0 L461 0 Q450 0 446 10 L281 283 Q279 286 277 286.5 Q275 287 271 283 L156 167 Q149 160 149 148 L149 15 Q149 6 146 3 Q143 0 134 0 L97 0 Q89 0 86 2.5 Q83 5 83 12 L83 730 Q83 737 85.5 739.5 Q88 742 94 742 L139 742 Q149 742 149 730 L149 252 Q149 243 152 243 Q154 243 159 248 L422 519 Q428 525 431.5 527.5 Q435 530 441 530 L490 530 Q500 530 500 524 Q500 519 494 513 L331 347 Q327 343 327 340 Q327 337 330 332 L522 15 Z M248 -238 Q244 -238 242.5 -234.5 Q241 -231 243 -228 L269 -175 Q272 -172 272 -168 Q272 -163 265 -163 L256 -163 Q246 -163 246 -152 L246 -87 Q246 -77 255 -77 L308 -77 Q316 -77 316 -85 L316 -163 Q316 -165 315 -167 Q314 -169 314 -170 L279 -230 Q277 -235 273 -236.5 Q269 -238 262 -238 L248 -238 Z " />
<glyph glyph-name="kgreenlandic" unicode="&#x138;" horiz-adv-x="553" d="M522 15 Q525 11 525 7 Q525 0 515 0 L461 0 Q450 0 446 10 L281 283 Q279 286 277 286.5 Q275 287 271 283 L156 167 Q149 160 149 148 L149 15 Q149 6 146 3 Q143 0 134 0 L97 0 Q89 0 86 2.5 Q83 5 83 12 L83 518 Q83 525 85.5 527.5 Q88 530 94 530 L139 530 Q149 530 149 518 L149 252 Q149 243 152 243 Q154 243 159 248 L422 519 Q428 525 431.5 527.5 Q435 530 441 530 L490 530 Q500 530 500 524 Q500 519 494 513 L331 347 Q327 343 327 340 Q327 337 330 332 L522 15 Z " />
<glyph glyph-name="l" unicode="l" horiz-adv-x="232" d="M149 15 Q149 6 146 3 Q143 0 134 0 L96 0 Q89 0 86 2.5 Q83 5 83 12 L84 730 Q84 737 86 739.5 Q88 742 94 742 L139 742 Q149 742 149 730 L149 15 Z " />
<glyph glyph-name="lacute" unicode="&#x13a;" horiz-adv-x="232" d="M149 15 Q149 6 146 3 Q143 0 134 0 L96 0 Q89 0 86 2.5 Q83 5 83 12 L84 730 Q84 737 86 739.5 Q88 742 94 742 L139 742 Q149 742 149 730 L149 15 Z M246 919 Q247 917 247 913 Q247 907 237 903 L9 830 Q7 829 3 829 Q-4 829 -5 836 L-12 856 L-13 860 Q-13 866 -8 868 L222 963 L225 963 Q230 963 233 959 L246 919 Z " />
<glyph glyph-name="lcaron" unicode="&#x13e;" horiz-adv-x="301" d="M149 15 Q149 6 146 3 Q143 0 134 0 L96 0 Q89 0 86 2.5 Q83 5 83 12 L84 730 Q84 737 86 739.5 Q88 742 94 742 L139 742 Q149 742 149 730 L149 15 Z M217 555 Q213 555 211.5 558 Q210 561 211 564 L241 635 Q243 641 242.5 643 Q242 645 238 646 L231 647 Q226 648 224 650 Q222 652 222 656 L222 734 Q222 742 229 742 L281 742 Q287 742 287 735 L287 647 L286 642 L252 564 Q249 555 236 555 L217 555 Z " />
<glyph glyph-name="lcommaaccent" unicode="&#x13c;" horiz-adv-x="232" d="M149 15 Q149 6 146 3 Q143 0 134 0 L96 0 Q89 0 86 2.5 Q83 5 83 12 L84 730 Q84 737 86 739.5 Q88 742 94 742 L139 742 Q149 742 149 730 L149 15 Z M87 -238 Q83 -238 81.5 -234.5 Q80 -231 82 -228 L108 -175 Q111 -172 111 -168 Q111 -163 104 -163 L95 -163 Q85 -163 85 -152 L85 -87 Q85 -77 94 -77 L147 -77 Q155 -77 155 -85 L155 -163 Q155 -165 154 -167 Q153 -169 153 -170 L118 -230 Q116 -235 112 -236.5 Q108 -238 101 -238 L87 -238 Z " />
<glyph glyph-name="ldot" unicode="&#x140;" horiz-adv-x="318" d="M149 15 Q149 6 146 3 Q143 0 134 0 L96 0 Q89 0 86 2.5 Q83 5 83 12 L84 730 Q84 737 86 739.5 Q88 742 94 742 L139 742 Q149 742 149 730 L149 15 Z M326 262 Q326 255 322.5 252 Q319 249 310 249 L239 249 Q232 249 229.5 252 Q227 255 227 261 L227 333 Q227 344 235 344 L317 344 Q326 344 326 335 L326 262 Z " />
<glyph glyph-name="uni01C9" unicode="&#x1c9;" horiz-adv-x="464" d="M149 15 Q149 6 146 3 Q143 0 134 0 L96 0 Q89 0 86 2.5 Q83 5 83 12 L84 730 Q84 737 86 739.5 Q88 742 94 742 L139 742 Q149 742 149 730 L149 15 Z M385 651 Q385 642 382 637.5 Q379 633 370 633 L324 633 Q311 633 311 649 L311 727 Q311 742 324 742 L372 742 Q385 742 385 728 L385 651 Z M381 -38 Q381 -108 353 -139 Q325 -170 252 -170 Q227 -170 211.5 -169.5 Q196 -169 191.5 -166.5 Q187 -164 187 -158 L187 -124 Q187 -115 195 -115 L249 -113 Q285 -112 300 -94.5 Q315 -77 315 -33 L315 518 Q315 530 327 530 L371 530 Q381 530 381 518 L381 -38 Z " />
<glyph glyph-name="lslash" unicode="&#x142;" horiz-adv-x="262" d="M247 446 Q257 453 257 442 L257 399 Q257 392 249 384 L164 309 L164 15 Q164 6 161 3 Q158 0 149 0 L111 0 Q104 0 101 2.5 Q98 5 98 12 L98 251 L16 178 Q13 176 10 176 Q6 176 6 183 L6 227 Q6 234 13 241 L98 316 L99 730 Q99 737 101 739.5 Q103 742 109 742 L154 742 Q164 742 164 730 L164 373 L247 446 Z " />
<glyph glyph-name="m" unicode="m" horiz-adv-x="902" d="M95 0 Q83 0 83 12 L83 519 Q83 530 93 530 L136 530 Q146 530 146 520 L146 461 Q146 450 155 458 Q212 502 250 521 Q288 540 335 540 Q391 540 427.5 514.5 Q464 489 477 453 Q479 450 481 450 Q484 450 491 455 Q547 500 586.5 520 Q626 540 674 540 Q746 540 786 499.5 Q826 459 826 390 L826 13 Q826 0 813 0 L771 0 Q765 0 762.5 2.5 Q760 5 760 12 L760 373 Q760 485 657 485 Q614 485 576.5 464.5 Q539 444 503 413 Q494 405 490.5 398.5 Q487 392 487 383 L487 13 Q487 0 475 0 L433 0 Q421 0 421 12 L421 373 Q421 485 318 485 Q275 485 239.5 466 Q204 447 149 400 L149 12 Q149 0 136 0 L95 0 Z " />
<glyph glyph-name="n" unicode="n" horiz-adv-x="581" d="M95 0 Q83 0 83 12 L83 519 Q83 530 93 530 L136 530 Q146 530 146 520 L146 461 Q146 449 155 458 Q215 502 254.5 521 Q294 540 343 540 Q420 540 462 499.5 Q504 459 504 391 L504 13 Q504 0 492 0 L450 0 Q438 0 438 12 L438 373 Q438 485 327 485 Q281 485 243.5 466 Q206 447 149 400 L149 12 Q149 0 136 0 L95 0 Z " />
<glyph glyph-name="nacute" unicode="&#x144;" horiz-adv-x="581" d="M95 0 Q83 0 83 12 L83 519 Q83 530 93 530 L136 530 Q146 530 146 520 L146 461 Q146 449 155 458 Q215 502 254.5 521 Q294 540 343 540 Q420 540 462 499.5 Q504 459 504 391 L504 13 Q504 0 492 0 L450 0 Q438 0 438 12 L438 373 Q438 485 327 485 Q281 485 243.5 466 Q206 447 149 400 L149 12 Q149 0 136 0 L95 0 Z M432 707 Q433 705 433 701 Q433 695 423 691 L195 618 Q193 617 189 617 Q182 617 181 624 L174 644 L173 648 Q173 654 178 656 L408 751 L411 751 Q416 751 419 747 L432 707 Z " />
<glyph glyph-name="napostrophe" unicode="&#x149;" horiz-adv-x="620" d="M37 472 Q34 472 32 475 Q30 478 32 480 L63 598 Q66 610 59 610 L53 610 Q43 610 43 620 L43 734 Q43 742 51 742 L103 742 Q109 742 109 735 L109 610 L108 605 L73 480 Q70 472 57 472 L37 472 Z M134 0 Q122 0 122 12 L122 519 Q122 530 132 530 L175 530 Q185 530 185 520 L185 461 Q185 449 194 458 Q254 502 293.5 521 Q333 540 382 540 Q459 540 501 499.5 Q543 459 543 391 L543 13 Q543 0 531 0 L489 0 Q477 0 477 12 L477 373 Q477 485 366 485 Q320 485 282.5 466 Q245 447 188 400 L188 12 Q188 0 175 0 L134 0 Z " />
<glyph glyph-name="ncaron" unicode="&#x148;" horiz-adv-x="581" d="M95 0 Q83 0 83 12 L83 519 Q83 530 93 530 L136 530 Q146 530 146 520 L146 461 Q146 449 155 458 Q215 502 254.5 521 Q294 540 343 540 Q420 540 462 499.5 Q504 459 504 391 L504 13 Q504 0 492 0 L450 0 Q438 0 438 12 L438 373 Q438 485 327 485 Q281 485 243.5 466 Q206 447 149 400 L149 12 Q149 0 136 0 L95 0 Z M369 736 Q378 742 386 742 L438 742 Q445 742 445 739 Q445 736 439 731 L339 643 Q337 642 332.5 638 Q328 634 321 634 L290 634 Q280 634 268 644 L166 731 Q162 735 162 738 Q162 742 169 742 L216 742 Q221 742 224.5 740.5 Q228 739 233 736 L292 687 Q300 680 303 680 Q306 680 313 687 L369 736 Z " />
<glyph glyph-name="ncommaaccent" unicode="&#x146;" horiz-adv-x="581" d="M95 0 Q83 0 83 12 L83 519 Q83 530 93 530 L136 530 Q146 530 146 520 L146 461 Q146 449 155 458 Q215 502 254.5 521 Q294 540 343 540 Q420 540 462 499.5 Q504 459 504 391 L504 13 Q504 0 492 0 L450 0 Q438 0 438 12 L438 373 Q438 485 327 485 Q281 485 243.5 466 Q206 447 149 400 L149 12 Q149 0 136 0 L95 0 Z M265 -238 Q261 -238 259.5 -234.5 Q258 -231 260 -228 L286 -175 Q289 -172 289 -168 Q289 -163 282 -163 L273 -163 Q263 -163 263 -152 L263 -87 Q263 -77 272 -77 L325 -77 Q333 -77 333 -85 L333 -163 Q333 -165 332 -167 Q331 -169 331 -170 L296 -230 Q294 -235 290 -236.5 Q286 -238 279 -238 L265 -238 Z " />
<glyph glyph-name="uni1E45" unicode="&#x1e45;" horiz-adv-x="581" d="M95 0 Q83 0 83 12 L83 519 Q83 530 93 530 L136 530 Q146 530 146 520 L146 461 Q146 449 155 458 Q215 502 254.5 521 Q294 540 343 540 Q420 540 462 499.5 Q504 459 504 391 L504 13 Q504 0 492 0 L450 0 Q438 0 438 12 L438 373 Q438 485 327 485 Q281 485 243.5 466 Q206 447 149 400 L149 12 Q149 0 136 0 L95 0 Z M340 647 Q340 639 337 636 Q334 633 325 633 L279 633 Q272 633 269 635.5 Q266 638 266 645 L266 730 Q266 737 268.5 739.5 Q271 742 277 742 L330 742 Q336 742 338 739.5 Q340 737 340 730 L340 647 Z " />
<glyph glyph-name="eng" unicode="&#x14b;" horiz-adv-x="583" d="M343 540 Q419 540 462 499.5 Q505 459 505 391 L505 -30 Q505 -98 472.5 -134 Q440 -170 376 -170 Q337 -170 327.5 -168 Q318 -166 318 -158 L318 -126 Q318 -117 326 -117 L373 -115 Q408 -113 423.5 -95 Q439 -77 439 -33 L439 368 Q439 486 324 486 Q242 486 149 398 L149 12 Q149 0 136 0 L95 0 Q83 0 83 12 L84 519 Q84 530 93 530 L137 530 Q146 530 146 520 L146 460 Q146 448 155 457 Q215 504 255.5 522 Q296 540 343 540 Z " />
<glyph glyph-name="uni01CC" unicode="&#x1cc;" horiz-adv-x="813" d="M95 0 Q83 0 83 12 L83 519 Q83 530 93 530 L136 530 Q146 530 146 520 L146 461 Q146 449 155 458 Q215 502 254.5 521 Q294 540 343 540 Q420 540 462 499.5 Q504 459 504 391 L504 13 Q504 0 492 0 L450 0 Q438 0 438 12 L438 373 Q438 485 327 485 Q281 485 243.5 466 Q206 447 149 400 L149 12 Q149 0 136 0 L95 0 Z M734 651 Q734 642 731 637.5 Q728 633 719 633 L673 633 Q660 633 660 649 L660 727 Q660 742 673 742 L721 742 Q734 742 734 728 L734 651 Z M730 -38 Q730 -108 702 -139 Q674 -170 601 -170 Q576 -170 560.5 -169.5 Q545 -169 540.5 -166.5 Q536 -164 536 -158 L536 -124 Q536 -115 544 -115 L598 -113 Q634 -112 649 -94.5 Q664 -77 664 -33 L664 518 Q664 530 676 530 L720 530 Q730 530 730 518 L730 -38 Z " />
<glyph glyph-name="ntilde" unicode="&#xf1;" horiz-adv-x="581" d="M95 0 Q83 0 83 12 L83 519 Q83 530 93 530 L136 530 Q146 530 146 520 L146 461 Q146 449 155 458 Q215 502 254.5 521 Q294 540 343 540 Q420 540 462 499.5 Q504 459 504 391 L504 13 Q504 0 492 0 L450 0 Q438 0 438 12 L438 373 Q438 485 327 485 Q281 485 243.5 466 Q206 447 149 400 L149 12 Q149 0 136 0 L95 0 Z M438 683 Q407 663 366 663 Q347 663 332 666.5 Q317 670 298 677 Q295 678 278 683 Q261 688 244 688 Q227 688 216 683.5 Q205 679 196.5 674 Q188 669 185 667 L179 664 Q175 664 172 672 L164 694 Q162 699 162.5 701 Q163 703 167 705 Q185 719 201 726.5 Q217 734 240 734 Q265 734 305 720 Q309 719 328 713 Q347 707 366 707 Q382 707 392.5 711 Q403 715 421 725 Q425 728 428 728 Q432 728 435 721 L444 696 L445 692 Q445 687 438 683 Z " />
<glyph glyph-name="o" unicode="o" horiz-adv-x="598" d="M299 -10 Q225 -10 168.5 24.5 Q112 59 81 120.5 Q50 182 50 262 Q50 343 81.5 406.5 Q113 470 170 505 Q227 540 300 540 Q373 540 429.5 505 Q486 470 517 407 Q548 344 548 264 Q548 184 517 121.5 Q486 59 429.5 24.5 Q373 -10 299 -10 Z M301 43 Q385 43 432.5 102.5 Q480 162 480 264 Q480 366 431.5 427 Q383 488 300 488 Q216 488 167 427 Q118 366 118 264 Q118 162 167 102.5 Q216 43 301 43 Z " />
<glyph glyph-name="oacute" unicode="&#xf3;" horiz-adv-x="598" d="M299 -10 Q225 -10 168.5 24.5 Q112 59 81 120.5 Q50 182 50 262 Q50 343 81.5 406.5 Q113 470 170 505 Q227 540 300 540 Q373 540 429.5 505 Q486 470 517 407 Q548 344 548 264 Q548 184 517 121.5 Q486 59 429.5 24.5 Q373 -10 299 -10 Z M301 43 Q385 43 432.5 102.5 Q480 162 480 264 Q480 366 431.5 427 Q383 488 300 488 Q216 488 167 427 Q118 366 118 264 Q118 162 167 102.5 Q216 43 301 43 Z M430 707 Q431 705 431 701 Q431 695 421 691 L193 618 Q191 617 187 617 Q180 617 179 624 L172 644 L171 648 Q171 654 176 656 L406 751 L409 751 Q414 751 417 747 L430 707 Z " />
<glyph glyph-name="obreve" unicode="&#x14f;" horiz-adv-x="598" d="M299 -10 Q225 -10 168.5 24.5 Q112 59 81 120.5 Q50 182 50 262 Q50 343 81.5 406.5 Q113 470 170 505 Q227 540 300 540 Q373 540 429.5 505 Q486 470 517 407 Q548 344 548 264 Q548 184 517 121.5 Q486 59 429.5 24.5 Q373 -10 299 -10 Z M301 43 Q385 43 432.5 102.5 Q480 162 480 264 Q480 366 431.5 427 Q383 488 300 488 Q216 488 167 427 Q118 366 118 264 Q118 162 167 102.5 Q216 43 301 43 Z M433 742 Q439 742 441 740 Q443 738 441 732 Q431 696 393 668.5 Q355 641 299 641 Q244 641 208.5 668 Q173 695 161 733 L161 736 Q161 742 167 742 L208 742 Q217 742 222 734 Q238 713 253.5 701.5 Q269 690 299 690 Q351 690 380 735 Q382 739 384.5 740.5 Q387 742 391 742 L433 742 Z " />
<glyph glyph-name="ocircumflex" unicode="&#xf4;" horiz-adv-x="598" d="M299 -10 Q225 -10 168.5 24.5 Q112 59 81 120.5 Q50 182 50 262 Q50 343 81.5 406.5 Q113 470 170 505 Q227 540 300 540 Q373 540 429.5 505 Q486 470 517 407 Q548 344 548 264 Q548 184 517 121.5 Q486 59 429.5 24.5 Q373 -10 299 -10 Z M301 43 Q385 43 432.5 102.5 Q480 162 480 264 Q480 366 431.5 427 Q383 488 300 488 Q216 488 167 427 Q118 366 118 264 Q118 162 167 102.5 Q216 43 301 43 Z M311 692 Q304 699 301 699 Q298 699 290 692 L231 643 Q226 639 223 637.5 Q220 636 214 636 L167 636 Q161 636 160 639 Q159 642 164 647 L266 734 Q276 744 288 744 L319 744 Q326 744 331 740 Q336 736 337 735 L437 647 Q450 636 436 636 L384 636 Q375 636 367 643 L311 692 Z " />
<glyph glyph-name="uni020D" unicode="&#x20d;" horiz-adv-x="598" d="M299 -10 Q225 -10 168.5 24.5 Q112 59 81 120.5 Q50 182 50 262 Q50 343 81.5 406.5 Q113 470 170 505 Q227 540 300 540 Q373 540 429.5 505 Q486 470 517 407 Q548 344 548 264 Q548 184 517 121.5 Q486 59 429.5 24.5 Q373 -10 299 -10 Z M301 43 Q385 43 432.5 102.5 Q480 162 480 264 Q480 366 431.5 427 Q383 488 300 488 Q216 488 167 427 Q118 366 118 264 Q118 162 167 102.5 Q216 43 301 43 Z M127 749 Q133 755 139 750 L260 616 Q265 609 259 604 L246 587 Q243 582 239 582 Q237 582 231 586 L104 700 Q97 704 97 709 Q97 711 101 717 L127 749 Z M280 749 Q286 755 292 750 L412 616 Q419 609 412 604 L399 587 Q396 582 392 582 Q390 582 384 586 L257 700 Q250 704 250 709 Q250 711 254 717 L280 749 Z " />
<glyph glyph-name="odieresis" unicode="&#xf6;" horiz-adv-x="598" d="M299 -10 Q225 -10 168.5 24.5 Q112 59 81 120.5 Q50 182 50 262 Q50 343 81.5 406.5 Q113 470 170 505 Q227 540 300 540 Q373 540 429.5 505 Q486 470 517 407 Q548 344 548 264 Q548 184 517 121.5 Q486 59 429.5 24.5 Q373 -10 299 -10 Z M301 43 Q385 43 432.5 102.5 Q480 162 480 264 Q480 366 431.5 427 Q383 488 300 488 Q216 488 167 427 Q118 366 118 264 Q118 162 167 102.5 Q216 43 301 43 Z M270 651 Q270 643 267 640 Q264 637 255 637 L213 637 Q205 637 202.5 639.5 Q200 642 200 649 L200 730 Q200 742 210 742 L260 742 Q270 742 270 731 L270 651 Z M402 651 Q402 643 398.5 640 Q395 637 387 637 L345 637 Q337 637 334.5 639.5 Q332 642 332 649 L332 730 Q332 742 342 742 L391 742 Q402 742 402 731 L402 651 Z " />
<glyph glyph-name="uni1ECD" unicode="&#x1ecd;" horiz-adv-x="598" d="M299 -10 Q225 -10 168.5 24.5 Q112 59 81 120.5 Q50 182 50 262 Q50 343 81.5 406.5 Q113 470 170 505 Q227 540 300 540 Q373 540 429.5 505 Q486 470 517 407 Q548 344 548 264 Q548 184 517 121.5 Q486 59 429.5 24.5 Q373 -10 299 -10 Z M301 43 Q385 43 432.5 102.5 Q480 162 480 264 Q480 366 431.5 427 Q383 488 300 488 Q216 488 167 427 Q118 366 118 264 Q118 162 167 102.5 Q216 43 301 43 Z M332 -151 Q332 -159 329 -162 Q326 -165 318 -165 L276 -165 Q269 -165 266.5 -162.5 Q264 -160 264 -154 L264 -70 Q264 -63 266 -60.5 Q268 -58 274 -58 L322 -58 Q332 -58 332 -69 L332 -151 Z " />
<glyph glyph-name="ograve" unicode="&#xf2;" horiz-adv-x="598" d="M299 -10 Q225 -10 168.5 24.5 Q112 59 81 120.5 Q50 182 50 262 Q50 343 81.5 406.5 Q113 470 170 505 Q227 540 300 540 Q373 540 429.5 505 Q486 470 517 407 Q548 344 548 264 Q548 184 517 121.5 Q486 59 429.5 24.5 Q373 -10 299 -10 Z M301 43 Q385 43 432.5 102.5 Q480 162 480 264 Q480 366 431.5 427 Q383 488 300 488 Q216 488 167 427 Q118 366 118 264 Q118 162 167 102.5 Q216 43 301 43 Z M170 747 Q173 753 180 751 L411 656 Q418 653 415 644 L408 624 Q406 619 403 617.5 Q400 616 394 618 L166 691 Q159 694 157 697.5 Q155 701 157 707 L170 747 Z " />
<glyph glyph-name="ohungarumlaut" unicode="&#x151;" horiz-adv-x="598" d="M299 -10 Q225 -10 168.5 24.5 Q112 59 81 120.5 Q50 182 50 262 Q50 343 81.5 406.5 Q113 470 170 505 Q227 540 300 540 Q373 540 429.5 505 Q486 470 517 407 Q548 344 548 264 Q548 184 517 121.5 Q486 59 429.5 24.5 Q373 -10 299 -10 Z M301 43 Q385 43 432.5 102.5 Q480 162 480 264 Q480 366 431.5 427 Q383 488 300 488 Q216 488 167 427 Q118 366 118 264 Q118 162 167 102.5 Q216 43 301 43 Z M344 717 Q348 711 348 709 Q348 704 341 700 L214 586 Q208 582 206 582 Q203 582 198 587 L186 604 Q182 607 182 610.5 Q182 614 185 616 L306 750 Q312 754 317 749 L344 717 Z M498 717 Q501 713 501 709 Q501 704 494 700 L367 586 Q361 582 359 582 Q355 582 352 587 L339 604 Q332 609 339 616 L459 750 Q465 755 471 749 L498 717 Z " />
<glyph glyph-name="uni020F" unicode="&#x20f;" horiz-adv-x="598" d="M299 -10 Q225 -10 168.5 24.5 Q112 59 81 120.5 Q50 182 50 262 Q50 343 81.5 406.5 Q113 470 170 505 Q227 540 300 540 Q373 540 429.5 505 Q486 470 517 407 Q548 344 548 264 Q548 184 517 121.5 Q486 59 429.5 24.5 Q373 -10 299 -10 Z M301 43 Q385 43 432.5 102.5 Q480 162 480 264 Q480 366 431.5 427 Q383 488 300 488 Q216 488 167 427 Q118 366 118 264 Q118 162 167 102.5 Q216 43 301 43 Z M391 647 Q387 647 384.5 648.5 Q382 650 380 654 Q351 699 299 699 Q269 699 253.5 687.5 Q238 676 222 655 Q217 647 208 647 L167 647 Q159 647 161 656 Q173 694 208.5 721 Q244 748 299 748 Q355 748 393 720.5 Q431 693 441 657 Q442 655 442 652 Q442 647 433 647 L391 647 Z " />
<glyph glyph-name="omacron" unicode="&#x14d;" horiz-adv-x="598" d="M299 -10 Q225 -10 168.5 24.5 Q112 59 81 120.5 Q50 182 50 262 Q50 343 81.5 406.5 Q113 470 170 505 Q227 540 300 540 Q373 540 429.5 505 Q486 470 517 407 Q548 344 548 264 Q548 184 517 121.5 Q486 59 429.5 24.5 Q373 -10 299 -10 Z M301 43 Q385 43 432.5 102.5 Q480 162 480 264 Q480 366 431.5 427 Q383 488 300 488 Q216 488 167 427 Q118 366 118 264 Q118 162 167 102.5 Q216 43 301 43 Z M440 684 Q440 673 427 673 L171 673 Q162 673 162 684 L162 716 Q162 725 169 725 L433 725 Q440 725 440 717 L440 684 Z " />
<glyph glyph-name="uni01EB" unicode="&#x1eb;" horiz-adv-x="598" d="M368 -1 Q317 -24 295 -43.5 Q273 -63 273 -89 Q273 -129 326 -129 Q346 -129 363 -125 Q380 -121 390 -116 Q400 -110 400 -120 L400 -145 Q400 -152 394 -155 Q380 -161 357 -166 Q334 -171 311 -171 Q263 -171 238.5 -150 Q214 -129 214 -92 Q214 -65 228 -45 Q242 -25 275 -9 Q208 -4 157 32 Q106 68 78 127.5 Q50 187 50 262 Q50 343 81.5 406.5 Q113 470 170 505 Q227 540 300 540 Q373 540 429.5 505 Q486 470 517 407 Q548 344 548 264 Q548 163 499.5 92 Q451 21 368 -1 Z M118 264 Q118 162 167 102.5 Q216 43 301 43 Q385 43 432.5 102.5 Q480 162 480 264 Q480 366 431.5 427 Q383 488 300 488 Q216 488 167 427 Q118 366 118 264 Z " />
<glyph glyph-name="oslash" unicode="&#xf8;" horiz-adv-x="580" d="M556 507 Q560 503 560 499 Q560 495 556 491 L499 435 Q546 363 546 264 Q546 184 515 121.5 Q484 59 427.5 24.5 Q371 -10 297 -10 Q242 -10 196.5 9 Q151 28 118 64 L58 5 Q54 1 47 1 Q42 1 38 5 L25 19 Q20 26 20 30 Q20 34 25 41 L89 103 Q48 168 48 262 Q48 343 79.5 406.5 Q111 470 168 505 Q225 540 298 540 Q349 540 392.5 522.5 Q436 505 469 472 L521 523 Q527 529 531 529 Q535 529 540 524 L556 507 Z M116 264 Q116 198 137 150 L426 431 Q378 488 298 488 Q214 488 165 427 Q116 366 116 264 Z M478 264 Q478 335 453 390 L162 107 Q212 43 299 43 Q383 43 430.5 102.5 Q478 162 478 264 Z " />
<glyph glyph-name="oslashacute" unicode="&#x1ff;" horiz-adv-x="580" d="M556 507 Q560 503 560 499 Q560 495 556 491 L499 435 Q546 363 546 264 Q546 184 515 121.5 Q484 59 427.5 24.5 Q371 -10 297 -10 Q242 -10 196.5 9 Q151 28 118 64 L58 5 Q54 1 47 1 Q42 1 38 5 L25 19 Q20 26 20 30 Q20 34 25 41 L89 103 Q48 168 48 262 Q48 343 79.5 406.5 Q111 470 168 505 Q225 540 298 540 Q349 540 392.5 522.5 Q436 505 469 472 L521 523 Q527 529 531 529 Q535 529 540 524 L556 507 Z M116 264 Q116 198 137 150 L426 431 Q378 488 298 488 Q214 488 165 427 Q116 366 116 264 Z M478 264 Q478 335 453 390 L162 107 Q212 43 299 43 Q383 43 430.5 102.5 Q478 162 478 264 Z M419 707 Q420 705 420 701 Q420 695 410 691 L182 618 Q180 617 176 617 Q169 617 168 624 L161 644 L160 648 Q160 654 165 656 L395 751 L398 751 Q403 751 406 747 L419 707 Z " />
<glyph glyph-name="otilde" unicode="&#xf5;" horiz-adv-x="598" d="M299 -10 Q225 -10 168.5 24.5 Q112 59 81 120.5 Q50 182 50 262 Q50 343 81.5 406.5 Q113 470 170 505 Q227 540 300 540 Q373 540 429.5 505 Q486 470 517 407 Q548 344 548 264 Q548 184 517 121.5 Q486 59 429.5 24.5 Q373 -10 299 -10 Z M301 43 Q385 43 432.5 102.5 Q480 162 480 264 Q480 366 431.5 427 Q383 488 300 488 Q216 488 167 427 Q118 366 118 264 Q118 162 167 102.5 Q216 43 301 43 Z M436 683 Q405 663 364 663 Q345 663 330 666.5 Q315 670 296 677 Q293 678 276 683 Q259 688 242 688 Q225 688 214 683.5 Q203 679 194.5 674 Q186 669 183 667 L177 664 Q173 664 170 672 L162 694 Q160 699 160.5 701 Q161 703 165 705 Q183 719 199 726.5 Q215 734 238 734 Q263 734 303 720 Q307 719 326 713 Q345 707 364 707 Q380 707 390.5 711 Q401 715 419 725 Q423 728 426 728 Q430 728 433 721 L442 696 L443 692 Q443 687 436 683 Z " />
<glyph glyph-name="oe" unicode="&#x153;" horiz-adv-x="1006" d="M299 -10 Q225 -10 168.5 24 Q112 58 81 119.5 Q50 181 50 262 Q50 344 81.5 407 Q113 470 170 505 Q227 540 300 540 Q369 540 423 507.5 Q477 475 506 416 Q510 410 514 410 Q518 410 521 416 Q550 474 603.5 507 Q657 540 724 540 Q835 540 898.5 467.5 Q962 395 962 268 Q962 250 945 250 L562 250 Q547 250 547 232 Q547 181 572 138 Q597 95 639 69.5 Q681 44 731 44 Q839 44 895 130 Q899 135 901.5 135.5 Q904 136 908 134 L942 115 Q945 113 946 110 Q947 107 944 103 Q906 45 853 17.5 Q800 -10 727 -10 Q659 -10 605.5 21 Q552 52 521 107 Q518 115 514 115 Q509 115 503 104 Q472 50 419.5 20 Q367 -10 299 -10 Z M727 488 Q677 488 636 463.5 Q595 439 572.5 396 Q550 353 550 298 L879 297 Q889 297 892.5 300 Q896 303 896 311 Q896 359 875 399.5 Q854 440 815.5 464 Q777 488 727 488 Z M301 43 Q383 43 431.5 103 Q480 163 480 264 Q480 331 457.5 381.5 Q435 432 394.5 459.5 Q354 487 300 487 Q246 487 204.5 459.5 Q163 432 140.5 381.5 Q118 331 118 264 Q118 163 168 103 Q218 43 301 43 Z " />
<glyph glyph-name="p" unicode="p" horiz-adv-x="594" d="M135 530 Q147 530 147 517 L147 471 Q147 462 151 462 Q155 462 160 467 Q163 470 182.5 490 Q202 510 238.5 525 Q275 540 319 540 Q383 540 433.5 510 Q484 480 513 420 Q542 360 542 274 Q542 188 513 123.5 Q484 59 431 24.5 Q378 -10 308 -10 Q263 -10 226.5 4 Q190 18 164 40 Q156 46 153 46 Q149 46 149 33 L149 -153 Q149 -165 138 -165 L93 -165 Q83 -165 83 -154 L83 516 Q83 524 86 527 Q89 530 97 530 L135 530 Z M149 112 Q184 77 219 59 Q254 41 294 41 Q375 41 424.5 101.5 Q474 162 474 271 Q474 379 424.5 434 Q375 489 301 489 Q258 489 223.5 470 Q189 451 169 421.5 Q149 392 149 364 L149 112 Z " />
<glyph glyph-name="thorn" unicode="&#xfe;" horiz-adv-x="592" d="M135 742 Q147 742 147 729 L147 471 Q147 462 151 462 Q155 462 160 467 Q163 470 182.5 490 Q202 510 238.5 525 Q275 540 319 540 Q383 540 433.5 510 Q484 480 513 420 Q542 360 542 274 Q542 188 513 123.5 Q484 59 431 24.5 Q378 -10 308 -10 Q263 -10 226.5 4 Q190 18 164 40 Q156 46 153 46 Q149 46 149 33 L149 -153 Q149 -165 138 -165 L93 -165 Q83 -165 83 -154 L83 728 Q83 736 86 739 Q89 742 97 742 L135 742 Z M149 112 Q184 77 219 59 Q254 41 294 41 Q375 41 424.5 101.5 Q474 162 474 271 Q474 379 424.5 434 Q375 489 301 489 Q258 489 223.5 470 Q189 451 169 421.5 Q149 392 149 364 L149 112 Z " />
<glyph glyph-name="q" unicode="q" horiz-adv-x="597" d="M500 530 Q508 530 511 526.5 Q514 523 514 515 L514 -153 Q514 -165 503 -165 L457 -165 Q448 -165 448 -153 L448 33 Q448 47 444 47 Q441 47 433 41 Q404 19 365 4.5 Q326 -10 282 -10 Q211 -10 159 24 Q107 58 79.5 120.5 Q52 183 52 267 Q52 392 113 466 Q174 540 282 540 Q330 540 362.5 528 Q395 516 410.5 503.5 Q426 491 447 470 Q451 466 453 466 Q457 466 458 473 L463 515 Q465 524 468 527 Q471 530 480 530 L500 530 Z M448 352 Q448 387 428 419 Q408 451 373 470.5 Q338 490 295 490 Q246 490 206 465 Q166 440 143 390 Q120 340 120 268 Q120 162 169 101.5 Q218 41 297 41 Q339 41 379 59.5 Q419 78 448 111 L448 352 Z " />
<glyph glyph-name="r" unicode="r" horiz-adv-x="372" d="M95 0 Q83 0 83 12 L83 519 Q83 530 93 530 L136 530 Q145 530 145 520 L145 454 Q145 449 148 448 Q151 447 155 451 Q196 497 234 518.5 Q272 540 311 540 Q330 540 338.5 537.5 Q347 535 347 528 L347 482 Q347 475 339 475 Q312 478 300 478 Q270 478 234 459.5 Q198 441 173.5 412 Q149 383 149 354 L149 12 Q149 0 136 0 L95 0 Z " />
<glyph glyph-name="racute" unicode="&#x155;" horiz-adv-x="372" d="M95 0 Q83 0 83 12 L83 519 Q83 530 93 530 L136 530 Q145 530 145 520 L145 454 Q145 449 148 448 Q151 447 155 451 Q196 497 234 518.5 Q272 540 311 540 Q330 540 338.5 537.5 Q347 535 347 528 L347 482 Q347 475 339 475 Q312 478 300 478 Q270 478 234 459.5 Q198 441 173.5 412 Q149 383 149 354 L149 12 Q149 0 136 0 L95 0 Z M337 707 Q338 705 338 701 Q338 695 328 691 L100 618 Q98 617 94 617 Q87 617 86 624 L79 644 L78 648 Q78 654 83 656 L313 751 L316 751 Q321 751 324 747 L337 707 Z " />
<glyph glyph-name="rcaron" unicode="&#x159;" horiz-adv-x="372" d="M95 0 Q83 0 83 12 L83 519 Q83 530 93 530 L136 530 Q145 530 145 520 L145 454 Q145 449 148 448 Q151 447 155 451 Q196 497 234 518.5 Q272 540 311 540 Q330 540 338.5 537.5 Q347 535 347 528 L347 482 Q347 475 339 475 Q312 478 300 478 Q270 478 234 459.5 Q198 441 173.5 412 Q149 383 149 354 L149 12 Q149 0 136 0 L95 0 Z M274 736 Q283 742 291 742 L343 742 Q350 742 350 739 Q350 736 344 731 L244 643 Q242 642 237.5 638 Q233 634 226 634 L195 634 Q185 634 173 644 L71 731 Q67 735 67 738 Q67 742 74 742 L121 742 Q126 742 129.5 740.5 Q133 739 138 736 L197 687 Q205 680 208 680 Q211 680 218 687 L274 736 Z " />
<glyph glyph-name="rcommaaccent" unicode="&#x157;" horiz-adv-x="372" d="M95 0 Q83 0 83 12 L83 519 Q83 530 93 530 L136 530 Q145 530 145 520 L145 454 Q145 449 148 448 Q151 447 155 451 Q196 497 234 518.5 Q272 540 311 540 Q330 540 338.5 537.5 Q347 535 347 528 L347 482 Q347 475 339 475 Q312 478 300 478 Q270 478 234 459.5 Q198 441 173.5 412 Q149 383 149 354 L149 12 Q149 0 136 0 L95 0 Z M83 -238 Q79 -238 77.5 -234.5 Q76 -231 78 -228 L104 -175 Q107 -172 107 -168 Q107 -163 100 -163 L91 -163 Q81 -163 81 -152 L81 -87 Q81 -77 90 -77 L143 -77 Q151 -77 151 -85 L151 -163 Q151 -165 150 -167 Q149 -169 149 -170 L114 -230 Q112 -235 108 -236.5 Q104 -238 97 -238 L83 -238 Z " />
<glyph glyph-name="uni0211" unicode="&#x211;" horiz-adv-x="372" d="M95 0 Q83 0 83 12 L83 519 Q83 530 93 530 L136 530 Q145 530 145 520 L145 454 Q145 449 148 448 Q151 447 155 451 Q196 497 234 518.5 Q272 540 311 540 Q330 540 338.5 537.5 Q347 535 347 528 L347 482 Q347 475 339 475 Q312 478 300 478 Q270 478 234 459.5 Q198 441 173.5 412 Q149 383 149 354 L149 12 Q149 0 136 0 L95 0 Z M34 749 Q40 755 46 750 L167 616 Q172 609 166 604 L153 587 Q150 582 146 582 Q144 582 138 586 L11 700 Q4 704 4 709 Q4 711 8 717 L34 749 Z M187 749 Q193 755 199 750 L319 616 Q326 609 319 604 L306 587 Q303 582 299 582 Q297 582 291 586 L164 700 Q157 704 157 709 Q157 711 161 717 L187 749 Z " />
<glyph glyph-name="uni1E5B" unicode="&#x1e5b;" horiz-adv-x="372" d="M95 0 Q83 0 83 12 L83 519 Q83 530 93 530 L136 530 Q145 530 145 520 L145 454 Q145 449 148 448 Q151 447 155 451 Q196 497 234 518.5 Q272 540 311 540 Q330 540 338.5 537.5 Q347 535 347 528 L347 482 Q347 475 339 475 Q312 478 300 478 Q270 478 234 459.5 Q198 441 173.5 412 Q149 383 149 354 L149 12 Q149 0 136 0 L95 0 Z M148 -151 Q148 -159 145 -162 Q142 -165 134 -165 L92 -165 Q85 -165 82.5 -162.5 Q80 -160 80 -154 L80 -70 Q80 -63 82 -60.5 Q84 -58 90 -58 L138 -58 Q148 -58 148 -69 L148 -151 Z " />
<glyph glyph-name="uni0213" unicode="&#x213;" horiz-adv-x="372" d="M95 0 Q83 0 83 12 L83 519 Q83 530 93 530 L136 530 Q145 530 145 520 L145 454 Q145 449 148 448 Q151 447 155 451 Q196 497 234 518.5 Q272 540 311 540 Q330 540 338.5 537.5 Q347 535 347 528 L347 482 Q347 475 339 475 Q312 478 300 478 Q270 478 234 459.5 Q198 441 173.5 412 Q149 383 149 354 L149 12 Q149 0 136 0 L95 0 Z M298 647 Q294 647 291.5 648.5 Q289 650 287 654 Q258 699 206 699 Q176 699 160.5 687.5 Q145 676 129 655 Q124 647 115 647 L74 647 Q66 647 68 656 Q80 694 115.5 721 Q151 748 206 748 Q262 748 300 720.5 Q338 693 348 657 Q349 655 349 652 Q349 647 340 647 L298 647 Z " />
<glyph glyph-name="s" unicode="s" horiz-adv-x="508" d="M399 418 Q377 451 338.5 470 Q300 489 250 489 Q191 489 153 464 Q115 439 115 397 Q115 372 134.5 351.5 Q154 331 203 316 L333 276 Q396 258 427 223.5 Q458 189 458 142 Q458 98 430.5 63.5 Q403 29 355 9.5 Q307 -10 247 -10 Q172 -10 113 20.5 Q54 51 29 101 Q27 105 27 107 Q27 111 31 114 L63 133 Q67 135 69 135 Q72 135 76 131 Q131 42 245 42 Q309 42 351.5 67.5 Q394 93 394 135 Q394 165 369 186.5 Q344 208 287 224 L185 254 Q113 274 82.5 306.5 Q52 339 52 385 Q52 431 77.5 466 Q103 501 148 520.5 Q193 540 251 540 Q315 540 366.5 515.5 Q418 491 446 447 Q452 440 445 436 L411 416 Q408 414 404.5 414.5 Q401 415 399 418 Z " />
<glyph glyph-name="sacute" unicode="&#x15b;" horiz-adv-x="508" d="M399 418 Q377 451 338.5 470 Q300 489 250 489 Q191 489 153 464 Q115 439 115 397 Q115 372 134.5 351.5 Q154 331 203 316 L333 276 Q396 258 427 223.5 Q458 189 458 142 Q458 98 430.5 63.5 Q403 29 355 9.5 Q307 -10 247 -10 Q172 -10 113 20.5 Q54 51 29 101 Q27 105 27 107 Q27 111 31 114 L63 133 Q67 135 69 135 Q72 135 76 131 Q131 42 245 42 Q309 42 351.5 67.5 Q394 93 394 135 Q394 165 369 186.5 Q344 208 287 224 L185 254 Q113 274 82.5 306.5 Q52 339 52 385 Q52 431 77.5 466 Q103 501 148 520.5 Q193 540 251 540 Q315 540 366.5 515.5 Q418 491 446 447 Q452 440 445 436 L411 416 Q408 414 404.5 414.5 Q401 415 399 418 Z M369 707 Q370 705 370 701 Q370 695 360 691 L132 618 Q130 617 126 617 Q119 617 118 624 L111 644 L110 648 Q110 654 115 656 L345 751 L348 751 Q353 751 356 747 L369 707 Z " />
<glyph glyph-name="scaron" unicode="&#x161;" horiz-adv-x="508" d="M399 418 Q377 451 338.5 470 Q300 489 250 489 Q191 489 153 464 Q115 439 115 397 Q115 372 134.5 351.5 Q154 331 203 316 L333 276 Q396 258 427 223.5 Q458 189 458 142 Q458 98 430.5 63.5 Q403 29 355 9.5 Q307 -10 247 -10 Q172 -10 113 20.5 Q54 51 29 101 Q27 105 27 107 Q27 111 31 114 L63 133 Q67 135 69 135 Q72 135 76 131 Q131 42 245 42 Q309 42 351.5 67.5 Q394 93 394 135 Q394 165 369 186.5 Q344 208 287 224 L185 254 Q113 274 82.5 306.5 Q52 339 52 385 Q52 431 77.5 466 Q103 501 148 520.5 Q193 540 251 540 Q315 540 366.5 515.5 Q418 491 446 447 Q452 440 445 436 L411 416 Q408 414 404.5 414.5 Q401 415 399 418 Z M306 736 Q315 742 323 742 L375 742 Q382 742 382 739 Q382 736 376 731 L276 643 Q274 642 269.5 638 Q265 634 258 634 L227 634 Q217 634 205 644 L103 731 Q99 735 99 738 Q99 742 106 742 L153 742 Q158 742 161.5 740.5 Q165 739 170 736 L229 687 Q237 680 240 680 Q243 680 250 687 L306 736 Z " />
<glyph glyph-name="scedilla" unicode="&#x15f;" horiz-adv-x="508" d="M245 -53 Q244 -57 249 -57 Q292 -60 311 -81 Q330 -102 330 -130 Q330 -167 300 -187 Q270 -207 224 -207 Q175 -207 143 -186 Q138 -183 139 -178 L149 -155 Q152 -150 157 -153 Q170 -162 183.5 -167 Q197 -172 217 -172 Q275 -172 275 -131 Q275 -109 256 -98 Q237 -87 196 -85 Q188 -85 191 -80 L221 -9 Q154 -4 103 26 Q52 56 29 101 Q27 105 27 107 Q27 111 31 114 L63 133 Q67 135 69 135 Q72 135 76 131 Q131 42 245 42 Q309 42 351.5 67.5 Q394 93 394 135 Q394 165 369 186.5 Q344 208 287 224 L185 254 Q113 274 82.5 306.5 Q52 339 52 385 Q52 431 77.5 466 Q103 501 148 520.5 Q193 540 251 540 Q315 540 366.5 515.5 Q418 491 446 447 Q452 440 445 436 L411 416 Q408 414 404.5 414.5 Q401 415 399 418 Q377 451 338.5 470 Q300 489 250 489 Q191 489 153 464 Q115 439 115 397 Q115 372 134.5 351.5 Q154 331 203 316 L333 276 Q396 258 427 223.5 Q458 189 458 142 Q458 78 403 36.5 Q348 -5 263 -10 L245 -53 Z " />
<glyph glyph-name="scircumflex" unicode="&#x15d;" horiz-adv-x="508" d="M399 418 Q377 451 338.5 470 Q300 489 250 489 Q191 489 153 464 Q115 439 115 397 Q115 372 134.5 351.5 Q154 331 203 316 L333 276 Q396 258 427 223.5 Q458 189 458 142 Q458 98 430.5 63.5 Q403 29 355 9.5 Q307 -10 247 -10 Q172 -10 113 20.5 Q54 51 29 101 Q27 105 27 107 Q27 111 31 114 L63 133 Q67 135 69 135 Q72 135 76 131 Q131 42 245 42 Q309 42 351.5 67.5 Q394 93 394 135 Q394 165 369 186.5 Q344 208 287 224 L185 254 Q113 274 82.5 306.5 Q52 339 52 385 Q52 431 77.5 466 Q103 501 148 520.5 Q193 540 251 540 Q315 540 366.5 515.5 Q418 491 446 447 Q452 440 445 436 L411 416 Q408 414 404.5 414.5 Q401 415 399 418 Z M250 692 Q243 699 240 699 Q237 699 229 692 L170 643 Q165 639 162 637.5 Q159 636 153 636 L106 636 Q100 636 99 639 Q98 642 103 647 L205 734 Q215 744 227 744 L258 744 Q265 744 270 740 Q275 736 276 735 L376 647 Q389 636 375 636 L323 636 Q314 636 306 643 L250 692 Z " />
<glyph glyph-name="scommaaccent" unicode="&#x219;" horiz-adv-x="508" d="M399 418 Q377 451 338.5 470 Q300 489 250 489 Q191 489 153 464 Q115 439 115 397 Q115 372 134.5 351.5 Q154 331 203 316 L333 276 Q396 258 427 223.5 Q458 189 458 142 Q458 98 430.5 63.5 Q403 29 355 9.5 Q307 -10 247 -10 Q172 -10 113 20.5 Q54 51 29 101 Q27 105 27 107 Q27 111 31 114 L63 133 Q67 135 69 135 Q72 135 76 131 Q131 42 245 42 Q309 42 351.5 67.5 Q394 93 394 135 Q394 165 369 186.5 Q344 208 287 224 L185 254 Q113 274 82.5 306.5 Q52 339 52 385 Q52 431 77.5 466 Q103 501 148 520.5 Q193 540 251 540 Q315 540 366.5 515.5 Q418 491 446 447 Q452 440 445 436 L411 416 Q408 414 404.5 414.5 Q401 415 399 418 Z M216 -238 Q212 -238 210.5 -234.5 Q209 -231 211 -228 L237 -175 Q240 -172 240 -168 Q240 -163 233 -163 L224 -163 Q214 -163 214 -152 L214 -87 Q214 -77 223 -77 L276 -77 Q284 -77 284 -85 L284 -163 Q284 -165 283 -167 Q282 -169 282 -170 L247 -230 Q245 -235 241 -236.5 Q237 -238 230 -238 L216 -238 Z " />
<glyph glyph-name="uni1E63" unicode="&#x1e63;" horiz-adv-x="508" d="M399 418 Q377 451 338.5 470 Q300 489 250 489 Q191 489 153 464 Q115 439 115 397 Q115 372 134.5 351.5 Q154 331 203 316 L333 276 Q396 258 427 223.5 Q458 189 458 142 Q458 98 430.5 63.5 Q403 29 355 9.5 Q307 -10 247 -10 Q172 -10 113 20.5 Q54 51 29 101 Q27 105 27 107 Q27 111 31 114 L63 133 Q67 135 69 135 Q72 135 76 131 Q131 42 245 42 Q309 42 351.5 67.5 Q394 93 394 135 Q394 165 369 186.5 Q344 208 287 224 L185 254 Q113 274 82.5 306.5 Q52 339 52 385 Q52 431 77.5 466 Q103 501 148 520.5 Q193 540 251 540 Q315 540 366.5 515.5 Q418 491 446 447 Q452 440 445 436 L411 416 Q408 414 404.5 414.5 Q401 415 399 418 Z M280 -151 Q280 -159 277 -162 Q274 -165 266 -165 L224 -165 Q217 -165 214.5 -162.5 Q212 -160 212 -154 L212 -70 Q212 -63 214 -60.5 Q216 -58 222 -58 L270 -58 Q280 -58 280 -69 L280 -151 Z " />
<glyph glyph-name="germandbls" unicode="&#xdf;" horiz-adv-x="597" d="M316 742 Q402 742 442 702 Q482 662 482 604 Q482 567 466.5 543 Q451 519 429 505 Q407 491 364 469 Q321 446 307.5 434 Q294 422 294 401 Q294 380 307 371 Q320 362 361 349 Q418 329 453.5 311.5 Q489 294 518 257 Q547 220 547 161 Q547 80 492 35 Q437 -10 353 -10 Q317 -10 281 -2 Q245 6 221 21 Q212 25 216 33 L236 68 Q239 72 248 69 Q272 56 294 49 Q316 42 346 42 Q410 42 447 72 Q484 102 484 155 Q484 193 465.5 218 Q447 243 418.5 256.5 Q390 270 345 285 Q310 297 288.5 307.5 Q267 318 251.5 338.5 Q236 359 236 392 Q236 429 257.5 453.5 Q279 478 330 505 Q337 509 363.5 524 Q390 539 403.5 559 Q417 579 417 605 Q417 644 388 667 Q359 690 308 690 Q242 690 203.5 650.5 Q165 611 165 535 L165 12 L165 9 Q165 0 156 0 L109 0 Q99 0 99 10 L99 463 Q99 473 91 473 L35 473 Q27 473 27 481 L27 516 Q27 524 36 524 L91 524 Q99 524 99 534 Q99 629 157 685.5 Q215 742 316 742 Z " />
<glyph glyph-name="uni0259" unicode="&#x259;" horiz-adv-x="579" d="M460 295 Q460 346 435 390.5 Q410 435 367.5 461 Q325 487 275 487 Q167 487 111 400 Q108 395 105 394.5 Q102 394 98 396 L64 415 Q61 417 60.5 420 Q60 423 63 427 Q100 485 153 512.5 Q206 540 279 540 Q352 540 408.5 506 Q465 472 497 410.5 Q529 349 529 270 Q529 185 496.5 121.5 Q464 58 407.5 24 Q351 -10 280 -10 Q171 -10 107.5 61.5 Q44 133 44 259 L44 265 Q44 272 46.5 276 Q49 280 58 280 L453 280 Q460 280 460 295 Z M128 233 Q118 233 114.5 230 Q111 227 111 219 Q111 171 131.5 130 Q152 89 190 65 Q228 41 279 41 Q335 41 376 68.5 Q417 96 438.5 140 Q460 184 459 233 L128 233 Z " />
<glyph glyph-name="t" unicode="t" horiz-adv-x="375" d="M202 479 Q194 479 194 471 L194 135 Q194 86 208.5 69 Q223 52 257 52 L330 52 Q340 52 340 42 L340 15 Q340 7 330 4 Q306 0 243 0 Q181 0 154.5 28.5 Q128 57 128 121 L128 470 Q128 479 119 479 L34 479 Q25 479 25 487 L25 522 Q25 530 33 530 L122 530 Q127 530 129 538 L139 698 Q139 710 148 710 L184 710 Q195 710 195 697 L195 538 Q195 530 202 530 L334 530 Q342 530 342 522 L342 487 Q342 479 333 479 L202 479 Z " />
<glyph glyph-name="tbar" unicode="&#x167;" horiz-adv-x="375" d="M334 530 Q342 530 342 522 L342 487 Q342 479 333 479 L202 479 Q194 479 194 471 L194 319 L290 319 Q296 319 296 311 L296 283 Q296 272 283 272 L194 272 L194 135 Q194 86 208.5 69 Q223 52 257 52 L330 52 Q340 52 340 42 L340 15 Q340 7 330 4 Q306 0 243 0 Q181 0 154.5 28.5 Q128 57 128 121 L128 272 L54 272 Q48 272 46 274.5 Q44 277 44 282 L44 310 Q44 319 51 319 L128 319 L128 470 Q128 479 119 479 L34 479 Q25 479 25 487 L25 522 Q25 530 33 530 L122 530 Q127 530 129 538 L139 698 Q139 710 148 710 L184 710 Q195 710 195 697 L195 538 Q195 530 202 530 L334 530 Z " />
<glyph glyph-name="tcaron" unicode="&#x165;" horiz-adv-x="375" d="M202 479 Q194 479 194 471 L194 135 Q194 86 208.5 69 Q223 52 257 52 L330 52 Q340 52 340 42 L340 15 Q340 7 330 4 Q306 0 243 0 Q181 0 154.5 28.5 Q128 57 128 121 L128 470 Q128 479 119 479 L34 479 Q25 479 25 487 L25 522 Q25 530 33 530 L122 530 Q127 530 129 538 L139 698 Q139 710 148 710 L184 710 Q195 710 195 697 L195 538 Q195 530 202 530 L334 530 Q342 530 342 522 L342 487 Q342 479 333 479 L202 479 Z M289 578 Q285 578 283.5 581 Q282 584 283 587 L313 658 Q315 664 314.5 666 Q314 668 310 669 L303 670 Q298 671 296 673 Q294 675 294 679 L294 757 Q294 765 301 765 L353 765 Q359 765 359 758 L359 670 L358 665 L324 587 Q321 578 308 578 L289 578 Z " />
<glyph glyph-name="uni0163" unicode="&#x163;" horiz-adv-x="375" d="M334 530 Q342 530 342 522 L342 487 Q342 479 333 479 L202 479 Q194 479 194 471 L194 135 Q194 86 208.5 69 Q223 52 257 52 L330 52 Q340 52 340 42 L340 15 Q340 7 330 4 Q302 0 258 0 L236 -53 Q235 -57 240 -57 Q283 -60 302 -81 Q321 -102 321 -130 Q321 -167 291 -187 Q261 -207 215 -207 Q166 -207 134 -186 Q129 -183 130 -178 L140 -155 Q143 -150 148 -153 Q161 -162 174.5 -167 Q188 -172 208 -172 Q266 -172 266 -131 Q266 -109 247 -98 Q228 -87 187 -85 Q179 -85 182 -80 L216 1 Q169 7 148.5 35.5 Q128 64 128 121 L128 470 Q128 479 119 479 L34 479 Q25 479 25 487 L25 522 Q25 530 33 530 L122 530 Q127 530 129 538 L139 698 Q139 710 148 710 L184 710 Q195 710 195 697 L195 538 Q195 530 202 530 L334 530 Z " />
<glyph glyph-name="uni021B" unicode="&#x21b;" horiz-adv-x="375" d="M202 479 Q194 479 194 471 L194 135 Q194 86 208.5 69 Q223 52 257 52 L330 52 Q340 52 340 42 L340 15 Q340 7 330 4 Q306 0 243 0 Q181 0 154.5 28.5 Q128 57 128 121 L128 470 Q128 479 119 479 L34 479 Q25 479 25 487 L25 522 Q25 530 33 530 L122 530 Q127 530 129 538 L139 698 Q139 710 148 710 L184 710 Q195 710 195 697 L195 538 Q195 530 202 530 L334 530 Q342 530 342 522 L342 487 Q342 479 333 479 L202 479 Z M207 -238 Q203 -238 201.5 -234.5 Q200 -231 202 -228 L228 -175 Q231 -172 231 -168 Q231 -163 224 -163 L215 -163 Q205 -163 205 -152 L205 -87 Q205 -77 214 -77 L267 -77 Q275 -77 275 -85 L275 -163 Q275 -165 274 -167 Q273 -169 273 -170 L238 -230 Q236 -235 232 -236.5 Q228 -238 221 -238 L207 -238 Z " />
</font>
</svg>
