<svg xmlns="http://www.w3.org/2000/svg" viewBox="0 0 198 315.4"><style>.st0{fill:none;stroke:#B2A078;stroke-width:4;stroke-miterlimit:10;} .st1{fill:#B2A078;}</style><g id="Layer_2"><path class="st0" d="M130.4 52.7l19.8-50.5M25.2 314.4L45 263.9"/><path class="st1" d="M65.7 69.8l1.1-3.6H130c9.6 0 18.3.8 26.3 2.4 8 1.6 14.8 4.1 20.5 7.4 5.7 3.3 10.2 7.5 13.5 12.4 3.3 4.9 4.9 10.6 4.9 17.1 0 5.8-1.3 10.9-3.9 15.4-2.6 4.5-6 8.4-10.1 11.7-4.1 3.3-8.8 6.1-13.9 8.3-5.2 2.2-10.2 4-15.2 5.4-5 1.4-9.6 2.3-14 2.9-4.4.6-7.9.9-10.5.9l-.6.5c2.4.5 6.3 1.6 11.5 3.3 5.2 1.7 10.5 4.2 15.9 7.5 5.3 3.3 10 7.7 14 13 4 5.4 6 12 6 19.8 0 8.9-2.8 16.7-8.3 23.5-5.5 6.8-12.7 12.5-21.6 17.1-8.9 4.6-18.9 8-30 10.3-11.1 2.3-22.2 3.5-33.3 3.5-6.9 0-13.7-.1-20.4-.4-6.6-.3-13.5-.4-20.6-.4H-.5l1.1-3.6H29L98.3 69.8H65.7zM67.2 245c4.1.3 8.2.4 12.4.4 12.2 0 22.6-2 31.3-6s15.9-9 21.6-14.9c5.7-6 9.9-12.5 12.6-19.8 2.7-7.2 4.1-14 4.1-20.3 0-4.3-.6-8-1.7-11.2-1.1-3.2-2.6-6-4.4-8.3-1.8-2.3-3.7-4.3-5.8-5.9-2.1-1.6-4.1-2.8-6.2-3.7-3.7-1.7-7.5-2.8-11.4-3.2-3.8-.4-8.7-.6-14.5-.6H91l-36.2 92.7c4.1.3 8.2.6 12.4.8zm51.6-97.1c7.3 0 14-1.1 20.1-3.3 6.1-2.2 11.4-5.4 15.9-9.6 4.5-4.2 8-9.3 10.4-15.5 2.4-6.1 3.6-13 3.6-20.7 0-8.7-2.9-15.7-8.7-21.1-5.8-5.4-14-8-24.7-8h-11.8l-30.9 78.1h26.1z"/></g></svg>