<svg xmlns="http://www.w3.org/2000/svg" width="31" height="32" viewBox="0 0 31 32"><path d="M15.36 18c-1.34.334-2.836.728-5.238.728-4.706 0-10.16-2.442-10.16-9.275C-.04 3.15 4.273 0 10.08 0c1.793 0 3.546.415 5.24.927l-.355 3.92c-1.516-.848-2.993-1.28-4.608-1.28-3.35 0-5.515 2.48-5.515 5.867 0 3.545 2.462 5.71 5.908 5.71 1.536 0 3.11-.413 4.41-.925l.198 3.78zM17.27.314h5.632c5.396 0 7.936 1.87 7.936 5.947 0 3.663-2.6 5.83-7.01 5.83h-1.83v6.32H17.27V.315zm4.707 8.35h1.22c1.616 0 2.915-.59 2.915-2.48 0-1.852-1.3-2.443-2.914-2.443h-1.22v4.923zM.06 19.633h4.49v.807H1.003v3.387H4.39v.807H1.005v4.45H.06v-9.452zm8.86 8.35H8.9c-.373.827-1.338 1.28-2.185 1.28-1.97 0-2.265-1.32-2.265-1.95 0-2.324 2.462-2.422 4.254-2.422h.158v-.353c0-1.182-.414-1.772-1.575-1.772-.71 0-1.398.158-2.028.57v-.826c.53-.257 1.417-.474 2.027-.474 1.713 0 2.422.768 2.422 2.58v3.052c0 .55 0 .965.058 1.457H8.92v-1.142zM8.843 25.6h-.236c-1.477 0-3.23.158-3.23 1.674 0 .906.65 1.24 1.438 1.24 2.01 0 2.048-1.752 2.048-2.48V25.6zm10.3 3.486v-4.588c0-.965-.375-1.753-1.458-1.753-.926 0-1.85.807-1.85 2.52v3.82h-.867V24.5c0-.965-.374-1.753-1.457-1.753-.926 0-1.85.807-1.85 2.52v3.82h-.848V23.81c0-.532 0-1.063-.06-1.615h.828v1.162l.02.02c.276-.473.67-1.34 2.146-1.34.61 0 1.615.257 1.83 1.458h.02c.316-.807 1.123-1.457 2.207-1.457 1.398 0 2.186.965 2.186 2.324v4.746h-.848zm3.09-8.744h-.846V19.2h.847v1.142zm-.846 1.832h.847v6.892h-.847v-6.892zm2.343-3.23h.846v10.142h-.847V18.944zm4.39 11.166c-.314.945-.806 1.89-1.77 1.89-.316 0-.63-.04-.927-.098l.08-.73c.157.06.314.1.63.1.728 0 .964-.61 1.24-1.498l.177-.61-2.442-6.99h.926l1.93 5.77-.02-.02h.02l1.99-5.75h.885l-2.72 7.935z"/></svg>