<svg xmlns="http://www.w3.org/2000/svg" width="32" height="32" viewBox="0 0 32 32"><path d="M19.44 0h-8C10.4 0 9.28.16 8 .4c-1.2.24-2.4.88-3.52 1.84C2.8 3.84 2 5.68 2 7.68c0 1.68.56 3.12 1.76 4.32 1.12 1.36 2.72 2 4.88 2 .4 0 .8 0 1.28-.08l-.24.72s-.16.56-.16.88c0 .56.16 1.12.4 1.52s.48.88.8 1.2c-.96 0-2.08.16-3.52.32-1.44.24-2.8.72-4.08 1.52C2 20.8 1.2 21.6.72 22.48c-.48.96-.72 1.76-.72 2.56 0 1.52.72 2.88 2.08 3.92 1.36 1.2 3.44 1.76 6.32 1.84 3.36-.08 5.92-.88 7.68-2.4 1.68-1.52 2.56-3.28 2.56-5.2 0-1.36-.32-2.48-.96-3.36s-1.36-1.6-2.24-2.32l-1.36-1.12c-.16-.16-.4-.4-.64-.72-.24-.24-.4-.64-.4-1.04s.08-.8.32-1.12c.24-.32.4-.56.64-.88.4-.4.8-.72 1.2-1.12.32-.32.64-.72.96-1.2.64-.88.96-2 .96-3.44 0-.8-.08-1.44-.24-2.08-.24-.56-.48-1.12-.72-1.52-.32-.48-.56-.88-.88-1.2s-.56-.56-.88-.72h2.48L19.44 0zm-4.4 22.08c.64.8.96 1.68.96 2.72 0 1.28-.48 2.32-1.44 3.12s-2.4 1.2-4.32 1.28c-2.08 0-3.76-.48-4.96-1.44-1.28-1.04-1.84-2.16-1.84-3.6 0-.72.16-1.36.48-1.84.24-.48.56-.88.96-1.2s.72-.56 1.12-.72c.4-.16.64-.24.88-.32.88-.24 1.68-.48 2.56-.56s1.36-.08 1.6-.08h.88c1.36.96 2.48 1.92 3.12 2.64zm-1.28-11.92c-.08.56-.32 1.04-.64 1.6-.72.72-1.6 1.12-2.64 1.12-.8 0-1.6-.24-2.24-.8-.64-.48-1.2-1.12-1.6-1.84-.88-1.6-1.28-3.12-1.28-4.56 0-1.12.24-2.08.88-3.04.72-.88 1.6-1.28 2.72-1.36.8 0 1.52.24 2.16.72.64.56 1.12 1.2 1.52 2 .8 1.6 1.2 3.2 1.2 4.8 0 .32 0 .8-.08 1.36zM32 12.64h-4.24V8.32h-2.48v4.32h-4.24v2.48h4.24v4.24h2.48v-4.24h4.32v-2.48H32z"/></svg>