<svg xmlns="http://www.w3.org/2000/svg" width="46" height="32" viewBox="0 0 46 32"><path d="M43.308 4.576l-2.885-1.69S36.11 0 23.753 0H21.86C12.095 0 5.567 2.887 5.567 2.887L2.39 4.576c-3.904 2.04-1.864 5.45-1.864 5.45l1.865 3.73 10.813-5.48S12.24 6.587 11.92 5.8c-.35-.64-.116-.495.147-.64 0 0 5.042-2.128 9.792-2.128h2.272s6.936 0 9.85 2.477c.147.116.205.086.234.086-.03.03-.087.087-.175.29-.494 1.225-1.28 2.39-1.28 2.39l10.403 5.48 1.982-3.73s2.04-3.41-1.836-5.45zm-13.67 4.37l-.057-1.28c0-3.09-2.855-3.032-2.855-3.032h-7.577c-3.09 0-2.944 2.798-2.944 2.798v1.574c-2.448.903-4.896 2.36-6.12 4.78 0 0-3.09 10.52-3.148 9.967v5.188s-.262 3.032 3.03 3.032h25.706s3.177-.117 3.177-3.03v-4.985L35.7 13.815c-1.718-2.477-3.992-3.993-6.06-4.867zm-5.274 1.692c.408 0 .758.35.758.787s-.35.787-.758.787c-.408 0-.758-.35-.758-.787 0-.408.35-.787.758-.787zm-3.002-.03c.437 0 .816.38.816.845s-.35.845-.816.845c-.437 0-.816-.38-.816-.845.03-.466.38-.845.816-.845zm1.4 1.603c2.068 0 3.73 1.312 3.73 2.945s-1.662 3.148-3.73 3.148c-2.07 0-3.73-1.515-3.73-3.148s1.66-2.944 3.73-2.944zm-5.946 4.577c-.437 0-.816-.35-.816-.816 0-.436.35-.815.816-.815.437 0 .816.35.816.816-.03.467-.38.817-.816.817zm1.486-3.03c-.466 0-.845-.35-.845-.817 0-.437.38-.816.845-.816s.845.35.845.816c0 .437-.38.816-.845.816zm1.458 6.06c-.437 0-.816-.35-.816-.815 0-.437.35-.816.816-.816.437 0 .816.35.816.816s-.38.816-.816.816zm3.118 1.487c-.408 0-.758-.35-.758-.758s.35-.758.758-.758c.408 0 .758.35.758.758.03.408-.32.758-.758.758zm3.002-1.486c-.408 0-.758-.35-.758-.816 0-.437.35-.816.758-.816s.758.35.758.816c0 .466-.32.816-.758.816zm1.515-6.062c-.437 0-.787-.35-.787-.787s.35-.788.787-.788.787.35.787.787c0 .436-.35.786-.787.786zm1.545 3.09c-.408 0-.758-.35-.758-.817 0-.438.35-.817.758-.817s.758.35.758.816c0 .436-.35.815-.758.815z"/></svg>