<svg xmlns="http://www.w3.org/2000/svg" width="39" height="32" viewBox="0 0 39 32"><path d="M39.385 3.78c-1.457.65-3.013 1.084-4.647 1.28 1.674-1.003 2.954-2.58 3.545-4.47-1.556.927-3.29 1.596-5.14 1.97C31.666.985 29.58 0 27.235 0c-4.47 0-8.074 3.623-8.074 8.074 0 .63.08 1.24.218 1.85C12.663 9.59 6.716 6.38 2.718 1.478c-.69 1.2-1.103 2.58-1.103 4.057 0 2.796 1.418 5.278 3.604 6.735-1.32-.04-2.58-.415-3.664-1.005v.098c0 3.92 2.777 7.188 6.48 7.916-.67.176-1.4.275-2.128.275-.512 0-1.024-.06-1.516-.138 1.024 3.21 4.017 5.553 7.542 5.612-2.757 2.165-6.242 3.465-10.043 3.465-.65 0-1.3-.04-1.93-.118C3.546 30.66 7.78 32 12.348 32c14.868 0 22.98-12.308 22.98-22.98 0-.355 0-.69-.02-1.045 1.616-1.142 2.994-2.56 4.077-4.194z"/></svg>