<svg xmlns="http://www.w3.org/2000/svg" width="26" height="32" viewBox="0 0 26 32"><path d="M10.933 0H9.126L7.91 4.696 6.638 0h-1.88c.37 1.11.77 2.222 1.14 3.333.578 1.674.933 2.92 1.096 3.778v4.845h1.793V7.11L10.934 0zm4.786 9.067v-3.11c0-.95-.164-1.645-.505-2.105-.444-.607-1.08-.92-1.88-.92s-1.438.312-1.882.92c-.34.444-.504 1.14-.504 2.104v3.126c0 .948.162 1.644.503 2.09.444.606 1.08.918 1.88.918.816 0 1.438-.31 1.882-.92.34-.458.504-1.155.504-2.103zm-1.616.31c0 .83-.252 1.23-.77 1.23s-.77-.414-.77-1.23V5.63c0-.83.252-1.23.77-1.23s.77.415.77 1.23v3.748zm7.585 2.58V3.05h-1.616v6.815c-.356.504-.696.756-1.022.756-.222 0-.34-.133-.385-.385-.015-.06-.015-.252-.015-.622V3.053h-1.615v7.037c0 .622.06 1.052.148 1.32.163.443.52.666 1.037.666.593 0 1.2-.356 1.837-1.096v.978h1.63zM22.074 20.993c-.533 0-.8.415-.8 1.23v.815h1.6v-.815c-.015-.815-.28-1.23-.8-1.23zM16.133 20.993c-.267 0-.533.12-.8.385v5.378c.267.267.533.385.8.385.46 0 .696-.384.696-1.184v-3.763c0-.785-.223-1.2-.697-1.2z"/><path d="M25.97 16.52c-.326-1.408-1.467-2.445-2.86-2.594-3.273-.37-6.592-.37-9.895-.37s-6.622 0-9.896.37C1.94 14.074.785 15.11.46 16.52 0 18.52 0 20.696 0 22.77c0 2.06 0 4.253.46 6.253.326 1.407 1.467 2.444 2.86 2.593 3.273.37 6.592.37 9.895.37s6.622 0 9.896-.37c1.38-.148 2.534-1.185 2.86-2.593.46-2 .46-4.193.46-6.252 0-2.073 0-4.25-.46-6.25zM7.54 18.31H5.63v10.164H3.852V18.31h-1.88v-1.658h5.57v1.66zm4.83 10.18h-1.6v-.964c-.637.726-1.244 1.08-1.822 1.08-.52 0-.874-.206-1.022-.65-.09-.268-.148-.682-.148-1.305V19.69h1.6v6.49c0 .37 0 .562.015.62.044.253.163.37.37.37.326 0 .652-.25 1.007-.74v-6.74h1.6v8.8zm6.06-2.653c0 .815-.06 1.407-.163 1.778-.207.652-.637.993-1.274.993-.563 0-1.11-.31-1.644-.978v.86h-1.6V16.65h1.6v3.867c.518-.638 1.066-.964 1.643-.964.637 0 1.067.34 1.274.993.104.355.163.932.163 1.777v3.51zm6.03-1.467h-3.2v1.556c0 .815.266 1.23.814 1.23.4 0 .622-.207.71-.637.016-.09.03-.445.03-1.082h1.63v.237c0 .52-.014.874-.03 1.022-.058.356-.177.667-.37.963-.443.637-1.095.948-1.925.948s-1.468-.296-1.942-.904c-.34-.444-.52-1.14-.52-2.074v-3.08c0-.95.15-1.63.49-2.075.46-.607 1.096-.904 1.91-.904.8 0 1.438.297 1.882.905.34.444.49 1.14.49 2.074v1.82z"/></svg>