<svg xmlns="http://www.w3.org/2000/svg" width="34" height="32" viewBox="0 0 34 32"><path fill="#fff" d="M4.21 3.79h6.72L16.61.066c.148-.097.334-.088.468.008l5.676 3.714h6.72v4.4l4.21 2.757V32H.002V10.947L4.213 8.19v-4.4zm8.253 0h8.758L16.843.92l-4.38 2.867zm17.01 5.402v1.756h2.68l-2.68-1.756zM1.53 10.947H4.21V9.19l-2.682 1.757zm27.078-2.32V7.625l.025.013V4.632H5.053v9.427l11.79 7.755L28.63 14.06V8.64l-.025-.013zm-21.082 1.9H26.05v.84H7.524v-.84zm.055-3.37h18.525V8H7.58v-.842zM1.603 11.79l2.606 1.713V11.79H1.604zm27.87 1.713l2.606-1.714h-2.606v1.713zm3.368-1.212L17.078 22.663c-.135.093-.32.1-.467.004L.844 12.29V31.16h32V12.29z"/></svg>