<svg xmlns="http://www.w3.org/2000/svg" width="32" height="32" viewBox="0 0 32 32"><path fill="#7f7f7f" d="M25.28 23.36c-1.946 0-3.52 1.574-3.52 3.52s1.574 3.52 3.52 3.52 3.52-1.574 3.52-3.52-1.574-3.52-3.52-3.52zm4.16-6.4c1.51 0 2.56 1.658 2.56 3.2v3.2c0 1.318-.806 2.458-1.952 2.944-.288-2.38-2.31-4.224-4.768-4.224-2.54 0-4.627 1.978-4.787 4.48H11.5c-.153-2.502-2.226-4.48-4.76-4.48-2.46 0-4.48 1.856-4.743 4.243C.827 25.843 0 24.69 0 23.36V4.8c0-1.76 1.44-3.2 3.2-3.2h16c1.76 0 3.2 1.44 3.2 3.2v2.56h2.893c2.29 0 4.147 2.29 4.147 5.12v4.48zm-28.16 0h19.84V4.8c0-1.056-.864-1.92-1.92-1.92h-16c-1.056 0-1.92.864-1.92 1.92v12.16zM22.4 8.64v8.32h5.76v-4.48c0-1.958-1.28-3.84-2.867-3.84H22.4zm-21.12 9.6v5.12c0 .218.038.422.102.62 1.03-1.9 3.04-3.186 5.35-3.186 2.803 0 5.17 1.9 5.87 4.486h6.81c.703-2.58 3.065-4.48 5.868-4.48 2.304 0 4.307 1.28 5.338 3.168.07-.192.102-.397.102-.608v-3.2c0-1.056-.864-1.92-1.92-1.92H1.28zm5.44 5.12c-1.946 0-3.52 1.574-3.52 3.52s1.574 3.52 3.52 3.52 3.52-1.574 3.52-3.52-1.574-3.52-3.52-3.52zm0 1.28c1.235 0 2.24 1.005 2.24 2.24s-1.005 2.24-2.24 2.24c-1.235 0-2.24-1.005-2.24-2.24s1.005-2.24 2.24-2.24zm18.56 0c1.235 0 2.24 1.005 2.24 2.24s-1.005 2.24-2.24 2.24c-1.235 0-2.24-1.005-2.24-2.24s1.005-2.24 2.24-2.24z"/></svg>