<svg xmlns="http://www.w3.org/2000/svg" width="32" height="32" viewBox="0 0 32 32"><path d="M26.667 8H23.76c.147-.413.24-.867.24-1.333 0-2.213-1.787-4-4-4-1.4 0-2.613.72-3.333 1.8L16 5.36l-.667-.907C14.613 3.386 13.4 2.666 12 2.666c-2.213 0-4 1.787-4 4 0 .467.093.92.24 1.333H5.333C3.853 8 2.68 9.185 2.68 10.665l-.013 14.667c0 1.48 1.187 2.667 2.667 2.667h21.333c1.48 0 2.667-1.187 2.667-2.667V10.666c0-1.48-1.187-2.667-2.667-2.667zM20 5.333c.733 0 1.333.6 1.333 1.333S20.733 8 20 8s-1.333-.6-1.333-1.334.6-1.333 1.333-1.333zm-8 0c.733 0 1.333.6 1.333 1.333S12.733 8 12 8s-1.333-.6-1.333-1.334.6-1.333 1.333-1.333zm14.667 20H5.334v-2.667h21.333v2.667zm0-6.666H5.334v-8h6.773L9.334 14.44l2.16 1.56L16 9.867 20.51 16l2.16-1.56-2.773-3.773h6.773v8z"/></svg>