<svg xmlns="http://www.w3.org/2000/svg" width="26" height="32" viewBox="0 0 26 32"><path fill="#7f7f7f" d="M12.8 30.72c-.64 0-11.52-5.76-11.52-14.72V6.406L12.8 1.28l.026.013 11.52 5.133L24.32 16c-.02 8.32-10.88 14.72-11.52 14.72zm9.6-21.76l-.902-.902-2.906 2.9C17.184 9.343 15.11 8.32 12.8 8.32c-4.243 0-7.68 3.437-7.68 7.68s3.437 7.68 7.68 7.68 7.68-3.437 7.68-7.68c0-1.466-.41-2.83-1.12-3.994L22.4 8.96zm-4.71 2.906l-4.832 4.832-3.232-3.238-.91.91 4.09 4.19 5.62-5.618c.493.91.774 1.952.774 3.06 0 3.532-2.867 6.4-6.4 6.4S6.4 19.533 6.4 16c0-3.534 2.867-6.4 6.4-6.4 1.958 0 3.712.882 4.89 2.265zM12.8 0L0 5.696V17.28C0 23.68 10.24 32 12.8 32s12.8-8.32 12.8-14.72V5.696L12.8 0z"/></svg>