<svg xmlns="http://www.w3.org/2000/svg" width="32" height="32" viewBox="0 0 32 32"><path fill="#7f7f7f" d="M14.72 12.8c-3.36 0-6.08 2.72-6.08 6.08s2.72 6.08 6.08 6.08c1.446 0 2.778-.506 3.82-1.35l3.918 3.91.902-.902-3.91-3.917c.845-1.042 1.35-2.373 1.35-3.82 0-3.36-2.72-6.08-6.08-6.08zM3.84 7.68v-.64c0-1.056.864-1.92 1.92-1.92h21.12c1.056 0 1.92.864 1.92 1.92v.64H3.84zM8.32 0c-1.76 0-3.2 1.44-3.2 3.2v.704c-1.46.3-2.56 1.594-2.56 3.136v.704C1.1 8.044 0 9.338 0 10.88V28.8C0 30.56 1.44 32 3.2 32h25.6c1.76 0 3.2-1.44 3.2-3.2V10.88c0-1.318-.806-2.45-1.952-2.944h.032V7.04c0-1.542-1.1-2.835-2.56-3.136V3.2c0-1.76-1.44-3.2-3.2-3.2h-16zm17.92 3.84H6.4V3.2c0-1.056.864-1.92 1.92-1.92h16c1.056 0 1.92.864 1.92 1.92v.64zM3.2 8.96h25.6c1.056 0 1.92.864 1.92 1.92V28.8c0 1.056-.864 1.92-1.92 1.92H3.2c-1.056 0-1.92-.864-1.92-1.92V10.88c0-1.056.864-1.92 1.92-1.92zm11.52 5.12c2.65 0 4.8 2.15 4.8 4.8s-2.15 4.8-4.8 4.8-4.8-2.15-4.8-4.8 2.15-4.8 4.8-4.8z"/></svg>