<svg xmlns="http://www.w3.org/2000/svg" width="31mm" height="19mm" viewBox="0 0 3100 1900" shape-rendering="geometricPrecision" text-rendering="geometricPrecision" image-rendering="optimizeQuality" fill-rule="evenodd" clip-rule="evenodd"><defs><style><![CDATA[
    .fil0 {fill:#CCCCCC}
   ]]></style></defs><path class="fil0" d="M950 0c228 0 436 80 600 213C1714 80 1922 0 2150 0c525 0 950 425 950 950s-425 950-950 950c-228 0-436-80-600-213-164 133-372 213-600 213-525 0-950-425-950-950S425 0 950 0zm525 400l-6 9-9-9h-85c11-15 22-29 33-44-127-98-286-156-458-156-414 0-750 336-750 750s336 750 750 750c173 0 332-58 458-156-11-14-22-29-33-44h85l9-9 6 9h225v-100h-387c-17-32-33-66-47-100h533v-100h-567c-9-33-16-66-21-100h588v-100h-599c-1-17-1-33-1-50s0-33 1-50h599V800h-588c5-34 13-67 21-100h567V600h-533c14-34 29-68 47-100h387V400h-225z" id="Слой_x0020_1"/></svg>