<svg xmlns="http://www.w3.org/2000/svg" width="32" height="32" viewBox="0 0 32 32"><path fill="#7f7f7f" d="M3.2 8.32h.627l7.7-7.757c.748-.75 1.964-.75 2.713 0l1.83 1.843L17.9.563c.75-.75 1.965-.75 2.714 0l7.238 7.296c.14.14.25.293.34.46h.607c1.76 0 3.2 1.44 3.2 3.2V28.8c0 1.76-1.44 3.2-3.2 3.2H3.2C1.44 32 0 30.56 0 28.8V11.52c0-1.76 1.44-3.2 3.2-3.2zm20.8 9.6c-1.235 0-2.24 1.005-2.24 2.24S22.765 22.4 24 22.4c1.235 0 2.24-1.005 2.24-2.24s-1.005-2.24-2.24-2.24zm0 1.28c.53 0 .96.43.96.96s-.43.96-.96.96-.96-.43-.96-.96.43-.96.96-.96zM5.638 8.32H10.2l4.967-4.998-1.83-1.843c-.128-.13-.288-.187-.454-.187s-.326.058-.454.186L5.64 8.32zm6.375 0h1.997l6.246-6.29-.544-.55c-.128-.13-.288-.187-.454-.187s-.326.058-.454.186l-6.79 6.84zm5.62 0h8.87l-4.436-4.467-4.435 4.467zM3.2 9.6c-1.056 0-1.92.864-1.92 1.92V28.8c0 1.056.864 1.92 1.92 1.92h25.6c1.056 0 1.92-.864 1.92-1.92v-3.84H22.4c-1.76 0-3.2-1.44-3.2-3.2v-3.2c0-1.76 1.44-3.2 3.2-3.2h8.32v-3.84c0-1.056-.864-1.92-1.92-1.92H3.2zm27.52 7.04H22.4c-1.056 0-1.92.864-1.92 1.92v3.2c0 1.056.864 1.92 1.92 1.92h8.32v-7.04z"/></svg>