<svg xmlns="http://www.w3.org/2000/svg" width="32" height="32" viewBox="0 0 32 32"><path d="M20.267 16c0 2.356-1.91 4.267-4.267 4.267s-4.267-1.91-4.267-4.267c0-2.356 1.91-4.267 4.267-4.267s4.267 1.91 4.267 4.267z"/><path d="M12 2.667L9.56 5.334H5.333c-1.467 0-2.667 1.2-2.667 2.667v16c0 1.468 1.2 2.668 2.667 2.668h21.333c1.467 0 2.667-1.2 2.667-2.667V8c0-1.466-1.2-2.666-2.667-2.666H22.44L20 2.667h-8zm4 20c-3.68 0-6.667-2.987-6.667-6.667S12.32 9.333 16 9.333 22.667 12.32 22.667 16 19.68 22.667 16 22.667z"/></svg>