<svg xmlns="http://www.w3.org/2000/svg" width="25mm" height="26mm" viewBox="0 0 2500 2600" shape-rendering="geometricPrecision" text-rendering="geometricPrecision" image-rendering="optimizeQuality" fill-rule="evenodd" clip-rule="evenodd"><defs><style><![CDATA[
    .fil0 {fill:#CCCCCC}
   ]]></style></defs><path class="fil0" d="M1756 1865c-55 231 257 130 98 2-35-29-60-20-98-2zM0 1177v79c0 632 591 1042 1174 1042 130 0 176-1 299-31 346-86 646-66 883 169 28 27 50 47 73 76 42 53 33 65 70 89 0-1 1-2 1-3v-52c-29-104-199-265-270-311-345-224-383-67-647-171-211-83-232-182-289-247-6 76-13 118 20 187-224 0-515-124-665-273-107-107-124-124-198-268-140-271-142-634 24-900 282-452 862-395 1267-2 210 204 340 533 293 862-6 43-19 65-20 108-192-100-174-59-291-59v20c112 0 177 18 269 101 54 48 131 150 133 243 115-76 271-467 271-669 0-225-7-349-114-557-74-144-127-203-235-311C1675-71 1012-94 556 209c-90 60-111 90-172 136L244 502C110 677-1 932-1 1176zm2006 619c0 40 5 40 19 69s10 35 51 39c13-55 2-121-60-138-7 12-10 11-10 30z" id="Слой_x0020_1"/></svg>