<svg xmlns="http://www.w3.org/2000/svg" width="32" height="32" viewBox="0 0 32 32"><path fill="#7f7f7f" d="M0 4.275l1.203-.435 1.83 5.03C5.6 3.974 10.733.64 16.64.64 25.12.64 32 7.52 32 16s-6.88 15.36-15.36 15.36c-6.67 0-12.347-4.25-14.47-10.195l1.247-.442c1.94 5.434 7.123 9.318 13.222 9.318 7.756 0 14.04-6.284 14.04-14.04S24.397 1.956 16.64 1.956c-5.44 0-10.158 3.098-12.487 7.616l5.254-1.907.435 1.203c-2.406.87-4.813 1.746-7.22 2.623C1.753 9.087.877 6.68 0 4.273zM16 8.32h1.28v.698c.634.115 1.152.352 1.555.698.614.53.992 1.26 1.12 2.19l-1.466.236c-.084-.582-.257-1.03-.526-1.338-.18-.21-.41-.37-.685-.486v4.198c.492.14.825.25 1.01.326.442.205.806.448 1.082.736.282.282.5.627.646 1.024.147.39.224.82.224 1.28 0 1.01-.314 1.856-.94 2.534-.54.582-1.21.928-2.023 1.05v1.574H16v-1.523c-.7-.09-1.275-.256-1.716-.486-.448-.236-.832-.62-1.152-1.145-.326-.525-.512-1.165-.57-1.926l1.434-.283c.11.794.3 1.37.582 1.74.397.513.87.8 1.42.87v-4.6c-.58-.155-1.17-.404-1.772-.756-.454-.255-.806-.613-1.05-1.074-.25-.467-.37-.986-.37-1.568 0-1.043.364-1.882 1.08-2.528.475-.43 1.18-.698 2.113-.794V8.32zm1.28 7.718v4.16c.37-.122.69-.333.96-.653.365-.416.544-.94.544-1.562 0-.53-.128-.96-.384-1.28-.205-.262-.582-.48-1.12-.666zM16 14.176v-3.994c-.544.083-.973.314-1.286.678-.314.37-.474.806-.474 1.306s.134.922.403 1.254c.27.333.717.59 1.357.755z"/></svg>