<svg xmlns="http://www.w3.org/2000/svg" width="32" height="32" viewBox="0 0 32 32"><path d="M9.333 24c-1.467 0-2.653 1.2-2.653 2.667s1.187 2.667 2.653 2.667S12 28.134 12 26.667 10.8 24 9.333 24zm-8-21.333v2.667H4l4.8 10.12L7 18.72c-.213.374-.333.814-.333 1.28 0 1.468 1.2 2.668 2.667 2.668h16V20H9.894c-.187 0-.333-.146-.333-.332l.04-.16 1.2-2.173h9.934c1 0 1.88-.547 2.333-1.373L27.84 7.31c.107-.188.16-.414.16-.64 0-.734-.6-1.334-1.333-1.334H6.947L5.694 2.67h-4.36zM22.667 24c-1.467 0-2.653 1.2-2.653 2.667s1.187 2.667 2.653 2.667 2.667-1.2 2.667-2.667S24.134 24 22.667 24z"/></svg>