<svg xmlns="http://www.w3.org/2000/svg" width="32" height="32" viewBox="0 0 32 32"><path fill="#7f7f7f" d="M16 0C7.162 0 0 7.162 0 16s7.162 16 16 16c8.838 0 16-7.162 16-16S24.838 0 16 0zM2.086 11.54c1.14-.007 2.278-.007 3.418-.007v.006c.14 0 .262.05.352.14.09.096.147.218.147.352 0 .73.058 1.453.173 2.17.115.723.288 1.427.512 2.093v.013c.026.083.026.18.006.262s-.064.166-.14.237L4.07 19.29c-.128.122-.205.288-.205.474 0 .11.032.218.083.314.845 1.658 1.946 3.162 3.25 4.467 1.313 1.312 2.836 2.42 4.513 3.283.25.128.55.07.743-.122v.006l2.502-2.502c.07-.07.154-.115.237-.134.09-.02.18-.02.262.013h.013c.666.223 1.37.39 2.093.505.717.115 1.44.18 2.17.18.134 0 .256.05.346.146.096.09.147.212.147.347v3.725c-1.338.403-2.752.62-4.224.62-8.07 0-14.612-6.54-14.612-14.61 0-1.555.243-3.06.698-4.46zm19.418 17.996v-3.27c0-.486-.198-.934-.518-1.254-.326-.32-.768-.518-1.254-.518-.678 0-1.338-.058-1.965-.154-.646-.102-1.28-.262-1.894-.46-.314-.11-.653-.123-.966-.052-.32.077-.614.237-.85.474l-2.17 2.17c-1.39-.755-2.663-1.715-3.777-2.83S6.05 21.27 5.294 19.88l2.17-2.17c.237-.243.397-.53.474-.838.07-.307.064-.627-.026-.934L7.9 15.9c-.206-.62-.36-1.254-.462-1.9-.102-.628-.154-1.287-.154-1.966 0-.486-.198-.934-.518-1.254H6.76c-.32-.32-.768-.518-1.254-.518H2.58l.23-.544C5.16 4.796 10.185 1.392 16 1.392c8.07 0 14.612 6.54 14.612 14.61 0 5.633-3.187 10.523-7.86 12.96l-1.247.577zm-5.408-10.464v1.152h-5.382c-.006-.294.032-.57.115-.838.14-.442.357-.883.665-1.312s.742-.922 1.306-1.485c.884-.878 1.48-1.57 1.793-2.08.314-.52.474-1.006.474-1.46 0-.48-.147-.883-.43-1.21-.28-.333-.652-.493-1.113-.493-.48 0-.864.173-1.158.518-.288.346-.435.826-.435 1.446l-1.023-.127c.07-.922.333-1.626.794-2.112s1.076-.73 1.85-.73c.782 0 1.403.263 1.857.788s.678 1.17.678 1.946c0 .397-.064.78-.198 1.165-.134.377-.352.78-.666 1.202-.306.416-.818.998-1.535 1.734-.602.608-.986 1.018-1.158 1.235-.166.22-.307.436-.422.66H16.1zm4.275 1.152v-2.35H16.84v-1.113l3.712-6.38h.82v6.38h1.1v1.115h-1.1v2.35h-1zm0-3.462v-4.43l-2.553 4.43h2.554z"/></svg>