<svg xmlns="http://www.w3.org/2000/svg" width="45mm" height="14mm" viewBox="0 0 4500 1400" shape-rendering="geometricPrecision" text-rendering="geometricPrecision" image-rendering="optimizeQuality" fill-rule="evenodd" clip-rule="evenodd"><defs><style><![CDATA[
    .fil0 {fill:#CCCCCC}
   ]]></style></defs><path class="fil0" d="M267 193l184 1207h412L1639 0h-433L868 651c-46 90-86 171-120 245-6-77-13-153-21-230L659-1H1l267 193zm1655 1207L2211 0h-388l-289 1400h388zm229-99c91 62 251 99 427 99 367 0 613-189 613-471 0-154-99-276-300-373-114-58-182-97-182-146 0-46 53-95 178-95 121 0 215 43 232 52l44 22 124-303-33-16c-92-47-209-70-353-70-351 0-595 187-595 456 0 195 168 303 315 375 139 66 166 103 166 146 0 81-97 111-179 111-108 0-220-28-308-76l-44-24-131 295 27 19zm1405 99l177-352h336l29 352h403L4330 0h-451l-738 1400h415zm415-860c16-31 31-65 47-102 3 32 6 63 8 89l23 233h-188l111-220z" id="Слой_x0020_1"/></svg>