<svg xmlns="http://www.w3.org/2000/svg" width="20mm" height="22mm" viewBox="0 0 2000 2200" shape-rendering="geometricPrecision" text-rendering="geometricPrecision" image-rendering="optimizeQuality" fill-rule="evenodd" clip-rule="evenodd"><defs><style><![CDATA[
    .fil0 {fill:#CCCCCC}
   ]]></style></defs><path class="fil0" d="M1997 918c-11-76-66-122-145-123h-72c-47 0-80 12-79 55 2 213 1 387 0 599-1 111-74 226-185 255-346 89-692 180-1038 268-39 10-80 15-120 15-17 0-32-3-39-18 0-8 13-21 68-40 325-108 640-177 965-278 116-46 178-136 180-250 2-788 0-891 2-1262 0-59-26-107-86-133-44-13-59-4-145 24C886 167 596 264 168 400-22 460 1 577 2 700c1 350 0 911 0 1260 0 17 2 35 6 52 36 119 129 187 257 187 256 1 513 0 769 0h765c55 0 106-13 148-54 54-51 51-115 51-180 0-341 2-642 1-983 0-21 0-44-3-65zM902 848c26-78 82-127 168-140 57-9 106 33 114 93 12 92-86 200-184 200-81 0-126-67-98-152z" id="Слой_x0020_1"/></svg>