<?xml version="1.0" encoding="utf-8"?>
<!-- Generator: Adobe Illustrator 19.2.1, SVG Export Plug-In . SVG Version: 6.00 Build 0)  -->
<svg version="1.1" id="Слой_1" xmlns="http://www.w3.org/2000/svg" xmlns:xlink="http://www.w3.org/1999/xlink" x="0px" y="0px"
	 viewBox="0 0 32.4 29.1" style="enable-background:new 0 0 32.4 29.1;" xml:space="preserve">
<style type="text/css">
	.st0{fill:#FFFFFF;}
</style>
<path class="st0" d="M16.2,29.1c-0.4,0-0.7-0.1-1-0.2c-0.3-0.1-0.6-0.3-0.9-0.6c-2.2-2.4-4-4.4-5.4-5.9c-1.4-1.5-2.7-3-3.9-4.3
	c-1.2-1.4-2-2.2-2.3-2.5c-0.9-0.9-1.6-1.9-2.1-3.1C0.2,11.3,0,10.2,0,9c0-1.2,0.2-2.4,0.7-3.5c0.5-1.1,1.1-2.2,2-3.1
	C3.6,1.6,4.5,1,5.6,0.6C6.6,0.2,7.7,0,8.9,0c1.2,0,2.4,0.4,3.6,1.2c1.2,0.8,2.4,1.7,3.4,2.7C16,4,16.1,4,16.2,4c0,0,0,0,0,0
	c0.1,0,0.2,0,0.3-0.1c1-1,2.1-1.9,3.4-2.7C21.1,0.4,22.3,0,23.4,0c1.2,0,2.3,0.2,3.4,0.7c1,0.4,2,1.1,2.9,2c0.9,0.9,1.6,1.9,2,3.1
	c0.5,1.1,0.7,2.3,0.7,3.5c0,1.2-0.2,2.3-0.7,3.5c-0.5,1.1-1.1,2.2-2,3.1c0,0-1.6,1.7-1.9,2c-1.2,1.3-2.5,2.7-4,4.3
	c-1.4,1.6-3.3,3.6-5.7,6.2c-0.3,0.3-0.5,0.4-0.9,0.6C16.9,29,16.5,29.1,16.2,29.1z M8.9,1.2c-1,0-2,0.2-2.9,0.5
	C5.2,2,4.4,2.6,3.6,3.3C2.8,4.1,2.3,5,1.9,5.9c-0.4,1-0.6,2-0.6,3.1c0,1.1,0.2,2.1,0.6,3.1c0.4,1,1,1.8,1.7,2.6c0.3,0.3,1,1,2.1,2.2
	c1.1,1.2,2.4,2.6,3.7,4c1.3,1.4,2.5,2.8,3.7,4.1c1.2,1.3,1.9,2.1,2.2,2.5c0.2,0.2,0.4,0.3,0.6,0.3c0.2,0,0.3,0.1,0.4,0.1
	c0.1,0,0.2,0,0.4-0.1c0.2,0,0.4-0.1,0.6-0.3c0,0,0,0,0,0c1.3-1.4,2.6-2.9,4-4.3c1.4-1.5,2.6-2.8,3.7-4c1.1-1.2,2-2.2,2.7-3
	c0.8-0.9,1-1.1,1.1-1.1c0,0,0,0,0.1,0c0.7-0.8,1.3-1.6,1.7-2.6c0.4-1,0.6-2,0.6-3.1c0-1.1-0.2-2.1-0.6-3.1c-0.4-1-1-1.8-1.7-2.6
	c-0.8-0.8-1.6-1.4-2.5-1.8c-0.9-0.4-1.8-0.6-2.9-0.6c-0.8,0-1.7,0.3-2.8,1c-1.1,0.6-2.1,1.5-3.2,2.6L16.2,6L15,4.8
	c-1.5-1.5-2.8-2.5-3.8-2.9C10.3,1.5,9.5,1.2,8.9,1.2z"/>
</svg>
