<?xml version="1.0" encoding="utf-8"?>
<!-- Generator: Adobe Illustrator 19.2.1, SVG Export Plug-In . SVG Version: 6.00 Build 0)  -->
<svg version="1.1" id="Слой_1" xmlns="http://www.w3.org/2000/svg" xmlns:xlink="http://www.w3.org/1999/xlink" x="0px" y="0px"
	 viewBox="0 0 31.8 40" style="enable-background:new 0 0 31.8 40;" xml:space="preserve">
<style type="text/css">
	.st0{fill:#FFFFFF;}
</style>
<path class="st0" d="M4.5,39.9c-1.3,0-2.3-0.4-3.2-1.3c-0.9-0.9-1.3-2-1.3-3.3V19.9c0-1.3,0.4-2.3,1.3-3.3c0.9-0.9,1.9-1.3,3.2-1.3
	h1.3c0.3,0,0.5-0.2,0.5-0.5V9.9c0-1.4,0.2-2.7,0.7-3.9c0.5-1.2,1.1-2.3,1.9-3.2c0.8-0.9,1.8-1.6,3-2.1C13.1,0.3,14.4,0,15.8,0
	c1.4,0,2.7,0.3,3.9,0.8c1.2,0.5,2.2,1.2,3,2.1c0.8,0.9,1.5,1.9,2,3.1c0.5,1.2,0.7,2.5,0.7,3.9v4.9c0,0.3,0.2,0.5,0.5,0.5h1.3
	c1.3,0,2.3,0.4,3.2,1.3c0.9,0.9,1.3,2,1.3,3.3v15.3c0,1.3-0.4,2.3-1.3,3.3c-0.9,0.9-1.9,1.3-3.2,1.3H4.5z M4.5,16.9
	c-0.8,0-1.5,0.3-2.1,0.9c-0.6,0.6-0.9,1.3-0.9,2.2v15.3c0,0.8,0.3,1.6,0.9,2.2C3,38,3.7,38.3,4.5,38.3h22.7c0.8,0,1.5-0.3,2.1-0.9
	c0.6-0.6,0.9-1.3,0.9-2.2V19.9c0-0.8-0.3-1.6-0.9-2.2c-0.6-0.6-1.3-0.9-2.1-0.9H4.5z M15.8,1.5c-2.4,0-4.4,0.8-5.9,2.5
	C8.5,5.7,7.8,7.6,7.8,9.9v4.9c0,0.3,0.2,0.5,0.5,0.5h15.1c0.3,0,0.5-0.2,0.5-0.5V9.9c0-2.3-0.8-4.3-2.2-6
	C20.2,2.4,18.2,1.5,15.8,1.5z M15.9,32.2c-0.2,0-0.4-0.1-0.5-0.2c-0.2-0.2-0.2-0.3-0.2-0.5v-4.2c0-0.2-0.1-0.4-0.3-0.4
	c-0.3-0.2-0.5-0.4-0.7-0.7c-0.2-0.3-0.3-0.6-0.3-1c0-0.6,0.2-1.1,0.6-1.5c0.4-0.4,0.9-0.6,1.4-0.6c0.6,0,1,0.2,1.4,0.6
	c0.4,0.4,0.6,0.9,0.6,1.5c0,0.4-0.1,0.7-0.3,1c-0.2,0.3-0.4,0.6-0.7,0.7c-0.2,0.1-0.3,0.3-0.3,0.4v4.2c0,0.2-0.1,0.4-0.2,0.5
	C16.3,32.1,16.1,32.2,15.9,32.2z"/>
</svg>
