<?xml version="1.0" encoding="utf-8"?>
<!-- Generator: Adobe Illustrator 19.2.1, SVG Export Plug-In . SVG Version: 6.00 Build 0)  -->
<svg version="1.1" id="Слой_1" xmlns="http://www.w3.org/2000/svg" xmlns:xlink="http://www.w3.org/1999/xlink" x="0px" y="0px"
	 viewBox="0 0 59 59" style="enable-background:new 0 0 59 59;" xml:space="preserve">
<style type="text/css">
	.st0{fill:#FFFFFF;}
</style>
<path class="st0" d="M43,59c-0.3,0-0.5-0.1-0.7-0.2c-0.2-0.1-0.3-0.2-0.4-0.4l-9.9-18C32,40.1,31.7,40,31.4,40c0,0-0.1,0-0.1,0
	C31,40,30.7,40,30.4,40c-0.3,0-0.6,0-0.9,0c-0.3,0-0.7,0-1,0c-0.3,0-0.7,0-1-0.1c0,0-0.1,0-0.1,0c-0.3,0-0.5,0.2-0.7,0.4l-9.7,18
	c-0.1,0.2-0.2,0.3-0.4,0.4C16.5,58.9,16.3,59,16,59h-0.1c-0.2,0-0.4-0.1-0.6-0.2c-0.2-0.1-0.3-0.3-0.3-0.5l-3.2-9.1
	c-0.1-0.3-0.4-0.5-0.7-0.5c-0.1,0-0.1,0-0.2,0l-9.5,2.1c-0.2,0-0.2,0.1-0.3,0.1c-0.1,0-0.2,0-0.3-0.1c-0.2-0.1-0.4-0.2-0.5-0.4
	c0,0,0-0.1-0.1-0.1C0.1,50.2,0,50,0,49.8c0-0.2,0-0.4,0.1-0.6L11.2,29c0.1-0.2,0.1-0.5,0-0.7c-0.6-1.2-1-2.6-1.3-4
	C9.6,23,9.5,21.5,9.5,20c0-2.8,0.5-5.4,1.6-7.8c1-2.4,2.5-4.6,4.3-6.4c1.8-1.8,3.9-3.3,6.4-4.3c2.4-1,5-1.6,7.8-1.6
	c2.7,0,5.4,0.5,7.8,1.6c2.4,1,4.5,2.5,6.3,4.3c1.8,1.8,3.2,4,4.3,6.4c1.1,2.4,1.6,5,1.6,7.8c0,1.4-0.2,2.8-0.5,4.2
	c-0.3,1.4-0.7,2.7-1.3,3.9c-0.1,0.2-0.1,0.5,0,0.7l11,20.4c0.1,0.2,0.2,0.4,0.1,0.6c0,0.2-0.1,0.5-0.3,0.7c-0.1,0.2-0.3,0.3-0.5,0.4
	c-0.1,0-0.2,0.1-0.3,0.1c-0.1,0-0.2,0-0.3,0l-9.6-2.1c-0.1,0-0.1,0-0.2,0c-0.3,0-0.6,0.2-0.7,0.5l-3.2,9c-0.1,0.2-0.2,0.4-0.4,0.5
	C43.4,58.9,43.2,59,43,59L43,59z M46.2,31.5c-0.2,0-0.5,0.1-0.6,0.3c-1.3,1.7-2.8,3.3-4.6,4.6c-1.8,1.3-3.8,2.3-5.9,2.9
	c-0.2,0.1-0.4,0.2-0.5,0.4c-0.1,0.2-0.1,0.4,0,0.6l7.2,13.2c0.1,0.2,0.4,0.4,0.7,0.4c0,0,0,0,0.1,0c0.3,0,0.6-0.2,0.7-0.5l2.4-6.7
	c0.1-0.2,0.3-0.4,0.6-0.6c0.2-0.1,0.3-0.1,0.5-0.1c0.1,0,0.2,0,0.3,0l7,1.6c0.1,0,0.1,0,0.2,0c0.2,0,0.5-0.1,0.6-0.3
	c0.2-0.2,0.2-0.6,0.1-0.8l-8-14.7C46.8,31.7,46.5,31.5,46.2,31.5C46.2,31.5,46.2,31.5,46.2,31.5z M12.3,46.1c0.2,0,0.3,0,0.5,0.1
	c0.3,0.2,0.5,0.4,0.6,0.7l2.3,6.6c0.1,0.3,0.4,0.5,0.7,0.5c0,0,0,0,0.1,0c0.3,0,0.5-0.2,0.7-0.4l7.1-13.2c0.1-0.2,0.1-0.4,0-0.6
	c-0.1-0.2-0.3-0.4-0.5-0.4c-2.1-0.6-4-1.6-5.8-2.8c-1.8-1.2-3.3-2.7-4.5-4.4c-0.1-0.2-0.4-0.3-0.6-0.3c0,0,0,0,0,0
	c-0.3,0-0.5,0.2-0.6,0.4l-8,14.6C4,46.9,4,47.2,4.2,47.4c0.1,0.2,0.4,0.3,0.6,0.3c0.1,0,0.1,0,0.2,0l7-1.6
	C12.1,46.1,12.2,46.1,12.3,46.1z M29.5,2.3c-2.5,0-4.8,0.5-6.9,1.4c-2.1,0.9-4,2.2-5.6,3.8c-1.6,1.6-2.9,3.5-3.8,5.6
	c-0.9,2.2-1.4,4.5-1.4,6.9c0,2.4,0.5,4.7,1.4,6.9c0.9,2.1,2.2,4,3.8,5.6c1.6,1.6,3.5,2.9,5.6,3.8c2.1,0.9,4.4,1.4,6.9,1.4
	c2.4,0,4.7-0.5,6.9-1.4c2.1-0.9,4-2.2,5.6-3.8c1.6-1.6,2.9-3.5,3.8-5.6c0.9-2.2,1.4-4.5,1.4-6.9c0-2.4-0.5-4.7-1.4-6.9
	c-0.9-2.1-2.2-4-3.8-5.6c-1.6-1.6-3.5-2.9-5.6-3.8C34.2,2.7,31.9,2.3,29.5,2.3z"/>
</svg>
