<?xml version="1.0" encoding="utf-8"?>
<!-- Generator: Adobe Illustrator 19.2.1, SVG Export Plug-In . SVG Version: 6.00 Build 0)  -->
<svg version="1.1" id="Слой_1" xmlns="http://www.w3.org/2000/svg" xmlns:xlink="http://www.w3.org/1999/xlink" x="0px" y="0px"
	 viewBox="0 0 59 59" style="enable-background:new 0 0 59 59;" xml:space="preserve">
<style type="text/css">
	.st0{fill:#FFFFFF;}
</style>
<path class="st0" d="M35.2,59c-8.5,0-13.6-0.2-15.2-0.5c-1.5-0.4-2.8-0.9-3.8-1.6c-0.6-0.5-1.7-0.9-3.3-1.3
	c-1.5-0.3-4.1-0.6-8.1-0.8c-0.2,0-0.4-0.1-0.6-0.2c-0.1,0-0.2-0.1-0.3-0.2c-0.1-0.1-0.4-0.8-2-4.1C0.6,47.7,0,44.2,0,39.8
	c0-4.4,0.5-7.6,1.3-9.6c1-2.3,1.4-3,1.4-3.3c0.1-0.2,0.3-0.3,0.4-0.4c0.2-0.1,0.3-0.1,0.6-0.1c1.7,0,3.5-0.5,5.5-1.6
	c1.9-1,3.8-2.5,5.8-4.5c1.9-1.9,3.8-4.3,5.6-7.1c1.8-2.8,3.5-6.1,5-9.7c0.5-1.2,1-2.1,1.4-2.8C27.2,0.5,27.8,0,29.9,0
	c0.9,0,1.9,0.3,2.9,0.9c1,0.6,1.7,1.4,2.3,2.3c0.5,0.9,0.9,2,1.1,3.4c0.2,1.4,0.2,3,0.2,4.6c-0.1,1.6-0.2,3.2-0.5,4.7
	c-0.3,1.5-0.5,2.9-0.8,4c-0.1,0.2,0,0.5,0.1,0.6c0.1,0.2,0.4,0.3,0.6,0.3c1.9,0,4.4,0,7.3,0c2.9,0,5.3,0,6.9,0
	c2.1,0,3.8,0.6,5.1,1.7c1.3,1.1,1.9,2.6,2,4.4c0,0.6,0,1.3-0.1,2c-0.1,0.7-0.2,1.2-0.4,1.6c-0.1,0.3-0.1,0.6,0.2,0.8
	c0.5,0.5,1,1.1,1.5,1.8c0.5,0.7,0.7,1.4,0.7,2.2c0,1.1-0.2,2.1-0.8,2.9c-0.6,0.9-1.2,1.7-1.7,2.2c-0.2,0.2-0.3,0.5-0.2,0.8
	c0.1,0.4,0.3,0.8,0.5,1.3c0.2,0.4,0.2,0.8,0.2,1.3c-0.1,1.3-0.5,2.3-1.2,3.1c-0.8,0.9-1.6,1.6-2.2,2.1c-0.2,0.2-0.4,0.5-0.3,0.8
	c0.1,0.3,0.1,0.8,0.1,1.5c0,0.6,0,1.2-0.2,1.7c-0.2,1-0.7,1.9-1.6,2.6c-0.9,0.8-2.1,1.4-3.6,1.9c-1.5,0.5-3.4,0.9-5.5,1.1
	C40.3,58.9,37.9,59,35.2,59z M29.9,2.3c-0.3,0-0.6,0.1-1,0.4c-0.4,0.3-0.8,0.8-1.2,1.8c-1.6,3.7-3.3,7.1-5.2,10
	c-1.9,2.9-3.8,5.4-5.9,7.4c-2,2-4,3.6-6.1,4.8c-2,1.1-3.9,1.8-5.7,2c-0.3,0-0.5,0.2-0.6,0.4c-0.4,0.8-0.8,2-1.3,3.7
	c-0.5,1.7-0.7,4.1-0.7,7c0,3,0.4,5.6,1.1,7.8C4,49.8,4.6,51.2,5.1,52c0.1,0.2,0.3,0.3,0.6,0.3c3.3,0.3,6,0.6,7.9,1
	c1.8,0.4,3.2,0.9,4,1.5c0.8,0.7,2,1.1,3.5,1.4c1.4,0.2,6,0.4,14.1,0.4c1.2,0,2.6,0,4.3-0.1c1.7-0.1,3.3-0.2,4.9-0.5
	c1.6-0.2,3-0.6,4.2-1.1c1.4-0.6,2.2-1.4,2.4-2.5c0.2-0.9-0.2-2-1.2-3.2c-0.1-0.3-0.1-0.5,0-0.8c0.1-0.3,0.3-0.5,0.5-0.6
	c0.2-0.1,0.7-0.3,2-1c1.5-0.8,2.3-1.8,2.4-3.1c0-0.9-0.1-1.6-0.6-2.1c-0.2-0.2-0.3-0.4-0.4-0.4c0,0,0-0.1-0.1-0.1
	c-0.2-0.2-0.2-0.5-0.1-0.8c0.1-0.3,0.2-0.6,0.5-0.8c1.8-1.5,2.7-2.8,2.7-4.1c-0.1-1.1-0.5-2-1.4-2.6c-0.7-0.5-1-0.7-1.2-0.8
	c-0.1-0.1-0.2-0.2-0.3-0.3c-0.1-0.1-0.2-0.3-0.2-0.5c0-0.1,0-0.2,0-0.4c0-0.2,0.1-0.4,0.2-0.5c0.7-1.4,1.1-2.5,1.1-3.4
	c-0.1-2.4-1.3-3.2-2.4-3.5c-1.6-0.4-2.2-0.4-2.4-0.4H39.7c-1.8,0-4.1,0-6.7,0.1c-0.2,0-0.4,0-0.6-0.1c-0.2-0.1-0.3-0.2-0.4-0.4
	c0,0,0-0.1-0.1-0.1c-0.1-0.1-0.1-0.2-0.1-0.4c0-0.2,0-0.4,0.1-0.6c0.5-1.4,0.9-2.9,1.2-4.5c0.3-1.6,0.6-3.3,0.7-4.8
	c0.1-1.6,0.2-3.1,0.1-4.4c-0.1-1.4-0.4-2.5-0.9-3.4c-0.3-0.4-0.5-0.8-0.8-1.2C31.9,2.6,31.1,2.3,29.9,2.3z"/>
</svg>
