<svg id="Слой_1" xmlns="http://www.w3.org/2000/svg" viewBox="0 0 29.7 21.6"><style>.st0{fill:#87BA5C;} .st1{fill:#28637C;}</style><circle class="st0" cx="3.7" cy="18.1" r=".7"/><path class="st1" d="M29.7 13.5c-.2.7-.7 1.1-1.3 1.5-3 1.9-6 3.9-8.9 5.9-1.2.8-2.4.9-3.8.4-2.3-.9-4.6-1.9-7-2.8-.3-.1-.6-.2-.9-.2h-1v2.3H-.1c.1-4.3.1-8.6.1-13h6.8v2.3h1.4c1.6 0 3 .4 4.4 1.3.6.4 1.2.8 1.8 1.1.1.1.3.1.5.1H21c.5 0 .9.1 1.3.4.4.3.6.7.7 1.2.1-.1.2-.1.3-.2 1.2-.8 2.4-1.5 3.6-2.3 1-.6 2.1-.3 2.6.6.1.2.1.4.2.6v.8zM6.9 17.3H8c.4 0 .7.1 1.1.2 2.4 1 4.8 1.9 7.2 2.9.9.4 1.8.3 2.6-.2 3.2-2.1 6.3-4.1 9.5-6.2.5-.3.6-.8.3-1.2-.3-.4-.8-.5-1.2-.2-1.7 1-3.4 2.1-5 3.1-.5.3-.9.4-1.4.4h-6.4c-.5 0-.8.2-.9.7v.1h-.9c0-.1 0-.3.1-.4.2-.8.9-1.3 1.8-1.3h6.7c.4 0 .8-.4.8-.8s-.3-.8-.7-.8h-6.7c-.2 0-.4-.1-.5-.2-.8-.5-1.6-1-2.5-1.6-1.5-.9-3.1-.9-4.7-.8-.3 2.1-.3 4.2-.3 6.3zm-1 2.3V8.5h-5v11.1h5z"/><path class="st1" d="M22.9 5.1c0 2.8-2.3 5.1-5.1 5.1s-5.1-2.3-5.1-5.1S15 0 17.8 0s5.1 2.3 5.1 5.1zm-5.1 4.2c2.3 0 4.2-1.9 4.2-4.2C22 2.8 20.1.9 17.8.9c-2.3 0-4.2 1.9-4.2 4.2.1 2.3 1.9 4.2 4.2 4.2z"/><path class="st0" d="M17.3 2.6v-.3h.9v.3c.9.3 1.3.7 1.3 1.5h-.9c-.2-.5-.3-.5-.8-.5h-.5c-.3 0-.5.3-.4.5 0 .3.2.5.5.5h.5c1.1-.1 1.6.7 1.7 1.3.1.8-.4 1.4-1.3 1.6v.3h-.9v-.3c-.9-.2-1.4-.6-1.4-1.4h.9c.2.5.3.5.8.5h.5c.3 0 .5-.3.5-.5 0-.3-.2-.5-.5-.5h-.6c-.9 0-1.5-.5-1.6-1.3-.1-.8.4-1.5 1.3-1.7z"/></svg>