<svg id="Слой_1" xmlns="http://www.w3.org/2000/svg" viewBox="0 0 29.7 40"><style>.st0{fill:#28637C;} .st1{fill:#87BA5C;}</style><path class="st0" d="M25.9 0c.6.3 1.3.4 1.9.8 1.3.8 1.9 2.1 1.9 3.7v31c0 2.4-1.3 4-3.7 4.5 0 0-.1 0-.1.1H3.7c-.4-.1-.8-.2-1.2-.4C.9 38.8 0 37.4 0 35.6V21.2 4.6C0 2.2 1.3.6 3.7.1c0 0 .1 0 .1-.1h22.1zm2.4 20V4.5c0-.5-.1-1-.3-1.4-.6-1.2-1.6-1.7-2.8-1.7H4.7c-2 0-3.2 1.2-3.2 3.2v30.9c0 .5.1 1 .3 1.4.6 1.2 1.6 1.7 2.9 1.7h20.5c2 0 3.2-1.2 3.2-3.2-.1-5.1-.1-10.3-.1-15.4z"/><path class="st0" d="M4.5 6.5v13.7H3.1V5.1h23.4v9.3c0 .2 0 .4-.1.5L21.3 23c0 .1-.1.1-.1.2-1.2-.8-2.5-1.6-3.7-2.5-1.7 1.9-3.3 3.7-5 5.6-1.3-1.3-2.5-2.5-3.7-3.8l-2.4 2.1c-.5.5-1.1.9-1.6 1.4-.1.1-.2.3-.2.4v7h20.7V20.2h1.4v14.6H3.3v-.4-8.5c0-.2.1-.4.2-.5 1.8-1.6 3.5-3.1 5.3-4.6 0 0 .1-.1.2-.1l3.6 3.6 4.8-5.4 3.6 2.4c.1-.1.2-.2.2-.3 1.3-2.1 2.7-4.2 4-6.3.1-.1.2-.3.2-.5V6.7v-.2H4.5z"/><path class="st1" d="M21.2 10.1c0 .4-.3.7-.7.7H9.2c-.4 0-.7-.3-.7-.7 0-.4.3-.7.7-.7h11.3c.4 0 .7.3.7.7zM21.2 13.5c0 .4-.3.7-.7.7H9.2c-.4 0-.7-.3-.7-.7 0-.4.3-.7.7-.7h11.3c.4 0 .7.3.7.7z"/><path class="st0" d="M11.9 3.2c0-.4.3-.7.7-.7h4.5c.4 0 .7.3.7.7 0 .4-.3.7-.7.7h-4.5c-.4 0-.7-.3-.7-.7z"/><circle class="st1" cx="14.8" cy="36.8" r="1.3"/></svg>