<svg id="Layer_1" xmlns="http://www.w3.org/2000/svg" viewBox="0 0 335.5 339.7"><style>.st0{fill:#85B856;} .st1{fill:#26637D;}</style><path class="st0" d="M70.9 177.3c1.9 0 3.8-.8 5.2-2.2 1.4-1.4 2.2-3.3 2.2-5.2s-.8-3.8-2.2-5.2c-1.4-1.4-3.3-2.2-5.2-2.2-1.9 0-3.8.8-5.2 2.2-1.4 1.4-2.2 3.3-2.2 5.2 0 1.9.8 3.8 2.2 5.2 1.4 1.4 3.3 2.2 5.2 2.2zM89.5 177.3c1.7 0 3.4-.6 4.7-1.7 3.1-2.6 3.5-7.3.9-10.4-2.6-3.1-7.3-3.5-10.4-.9-3.1 2.6-3.5 7.3-.9 10.4 1.5 1.7 3.6 2.6 5.7 2.6z"/><path class="st1" d="M297.5.3H38c-21 0-38 17-38 38v263.2c0 21 17 38 38 38h259.5c21 0 38-17 38-38V38.3c0-20.9-17-38-38-38zm23.3 301.3c0 12.8-10.4 23.2-23.2 23.2H38c-12.8 0-23.2-10.4-23.2-23.2V38.3c0-12.8 10.4-23.2 23.2-23.2h259.5c12.8 0 23.2 10.4 23.2 23.2l.1 263.3z"/><path class="st0" d="M127.2 241.7c-16.3 0-29.5 13.2-29.5 29.5s13.2 29.5 29.5 29.5 29.5-13.2 29.5-29.5-13.2-29.5-29.5-29.5zm0 44.2c-8.1 0-14.7-6.6-14.7-14.7s6.6-14.7 14.7-14.7 14.7 6.6 14.7 14.7-6.6 14.7-14.7 14.7zM208.3 241.7c-16.3 0-29.5 13.2-29.5 29.5s13.2 29.5 29.5 29.5 29.5-13.2 29.5-29.5-13.2-29.5-29.5-29.5zm0 44.2c-8.1 0-14.7-6.6-14.7-14.7s6.6-14.7 14.7-14.7 14.7 6.6 14.7 14.7-6.5 14.7-14.7 14.7zM219.2 109.4c1 .5 2.1.7 3.1.7 2.8 0 5.4-1.6 6.7-4.2 1.7-3.7.2-8.1-3.5-9.8-3.7-1.7-8.1-.2-9.8 3.5-1.7 3.6-.2 8 3.5 9.8zM139.8 101.1c.5 0 1-.1 1.6-.2 4-.9 6.5-4.8 5.6-8.8-.9-4-4.8-6.5-8.8-5.6-4 .9-6.5 4.8-5.6 8.8.7 3.4 3.8 5.8 7.2 5.8zM167.8 98.1c4.1 0 7.4-3.3 7.4-7.4 0-4.1-3.3-7.4-7.4-7.4-4.1 0-7.4 3.3-7.4 7.4 0 4.1 3.3 7.4 7.4 7.4zM241.3 123.5c1.4 1.2 3.1 1.7 4.8 1.7 2.1 0 4.2-.9 5.6-2.6 2.6-3.1 2.2-7.8-.9-10.4-3.1-2.6-7.8-2.2-10.4.9-2.6 3.1-2.2 7.7.9 10.4zM194.2 100.9c.5.1 1 .2 1.6.2 3.4 0 6.5-2.4 7.2-5.8.9-4-1.7-7.9-5.6-8.8-4-.9-7.9 1.7-8.8 5.6-.9 4 1.6 8 5.6 8.8zM264.6 146.3c1.9 0 3.8-.8 5.2-2.2 1.4-1.4 2.2-3.3 2.2-5.2s-.8-3.8-2.2-5.2c-1.4-1.4-3.3-2.2-5.2-2.2-1.9 0-3.8.8-5.2 2.2-1.4 1.4-2.2 3.3-2.2 5.2s.8 3.8 2.2 5.2c1.4 1.4 3.3 2.2 5.2 2.2z"/><path class="st0" d="M295 33.5H40.6c-4.1 0-7.4 3.3-7.4 7.4v169.7c0 4.1 3.3 7.4 7.4 7.4H295c4.1 0 7.4-3.3 7.4-7.4V40.9c0-4.1-3.3-7.4-7.4-7.4zM167.8 186.9c10.5 0 19.4 6.9 22.5 16.3h-45.1c3.1-9.5 12.1-16.3 22.6-16.3zm119.8 16.3h-82.1c-3.5-17.7-19.1-31.1-37.8-31.1-2 0-3.9.1-5.8.4l-50.6-83.4c-2.1-3.5-6.6-4.6-10.1-2.5-3.5 2.1-4.6 6.6-2.5 10.1l49 80.9c-9.1 5.5-15.7 14.7-17.9 25.5H47.9V48.3h239.7v154.9z"/></svg>