<svg id="Layer_1" xmlns="http://www.w3.org/2000/svg" viewBox="0 0 209 198"><style>.st0{fill:#87BA5C;}</style><path class="st0" d="M45.4 73.4c.7-.6 1.2-1.3 1.4-2.1C52.4 52.4 61.4 40 73.5 34.4c-1.5 19 10.8 28.7 30.6 28.7 2.1 0 4.2-.1 6.5-.3 4-.4 7.9-.6 11.5-.6 30.6 0 48.6 11.9 48.6 11.9S158.9 6.2 121.5 1c-2.6-.4-5.2-.5-7.7-.5-17.3 0-32.6 8.3-38.2 23.8-1.1.3-2.2.7-3.4 1.2-15.7 6.2-27.1 20.8-33.8 43.3-.4 1.3-.1 2.8.8 4 1.5 1.9 4.3 2.2 6.2.6zm37-40.5c.1-.5.1-.9.2-1.4 18.7-3.3 37 7.3 37.2 7.5 1.5.9 3.5.8 5-.4 1.9-1.5 2.1-4.3.6-6.1-.3-.4-.7-.7-1.2-1-.9-.5-18.3-10.6-38.1-9.2 1.6-2.6 3.8-4.9 6.4-6.9 5.5-4.1 13.1-6.3 21.2-6.3 2.1 0 4.3.2 6.5.5 6.4.9 12.5 4.5 18.1 10.7 5 5.5 9.6 13 13.6 22.3 2.5 5.7 4.4 11.3 6 16.3-11.1-3.6-23.4-5.5-35.8-5.5-4.1 0-8.2.2-12.4.6-2 .2-3.9.3-5.7.3-11 0-16.2-3.3-18.6-6.1-2.8-3.4-3.9-8.5-3-15.3zM201 131.5c.3-1.1.5-2.3.7-3.5 2.5-16.7-4.4-33.8-20.7-51-1-1-2.4-1.5-3.9-1.3-2.4.4-4 2.6-3.6 5 .1.9.6 1.7 1.1 2.3 13.6 14.3 19.8 28.3 18.6 41.6-5.4-3.7-10.7-5.5-15.7-5.5-11.1 0-20.7 8.6-27.5 23.4-15.7 34.3-39.9 46.3-39.9 46.3s24.5 8.9 48.7 8.9c15.2 0 30.3-3.5 39.3-15 12.7-16 15.1-36.8 2.9-51.2zm-9.7 46c-6 7.7-16.9 11.6-32.4 11.6-10.3 0-20.9-1.8-29.2-3.7 8.8-7.9 19.8-20.5 28.3-39.2 2.8-6.2 6.3-11.1 9.9-14.3 3.1-2.7 6.3-4 9.7-4 3.8 0 8 1.7 12.5 5.2.4.3.7.6 1.1.9-6.5 17.8-24.9 28.3-25.1 28.4-1.5.9-2.5 2.6-2.2 4.5.4 2.4 2.6 4 5 3.6.5-.1 1-.3 1.4-.5.9-.5 18.3-10.5 27-28.3 1.8 3.5 2.8 7.4 2.9 11.6.2 7.9-2.9 16.6-8.9 24.2zm-88 9.4c-.9-.3-1.7-.4-2.6-.2-19.2 4.6-34.5 3-45.4-4.7 19.1-9.1 19.7-27 6-46.3C39.4 105 41.1 78 41.1 78s-52.9 44.2-38.8 79.1c6.9 16.9 20.9 28.6 37.1 28.6 2 0 4-.2 6.1-.6.9.8 1.7 1.6 2.7 2.3 8.7 6.9 19.6 10.4 32.6 10.4 6.7 0 14-.9 21.9-2.8 1.3-.3 2.5-1.3 3.1-2.7.9-2-.3-4.5-2.5-5.4zm-55-11.3c-12.2-14.5-12.1-35.7-12.1-35.9 0-1.8-1-3.4-2.8-4.1-2.2-.9-4.8.3-5.6 2.5-.2.5-.3 1-.3 1.5 0 1-.1 21.1 11.1 37.5-5.5-.2-10.9-2.3-15.7-6.1-5.2-4.1-9.5-10-12.4-17.1-2.4-6-2.4-13 .2-21 2.3-7.1 6.5-14.8 12.6-23 3.7-5 7.6-9.5 11.1-13.3 2.5 11.6 7.9 27.4 19.8 44.1 6.4 9 9 17.3 7.3 23.3-1.3 4.6-5.3 8.2-11.9 10.9-.4.4-.8.5-1.3.7z"/></svg>