<svg id="Layer_1" xmlns="http://www.w3.org/2000/svg" viewBox="0 0 390.9 390.9"><style>.st0{fill:#85B856;} .st1{fill:#24637D;}</style><path class="st0" d="M223.7 355.4c0 15.6-12.6 28.2-28.2 28.2s-28.2-12.6-28.2-28.2 12.6-28.2 28.2-28.2c15.5-.1 28.2 12.6 28.2 28.2zm0 0M223.7 35.5c0 15.6-12.6 28.2-28.2 28.2s-28.2-12.6-28.2-28.2 12.6-28.2 28.2-28.2c15.5 0 28.2 12.6 28.2 28.2zm0 0M383.6 195.4c0 15.6-12.6 28.2-28.2 28.2s-28.2-12.6-28.2-28.2 12.6-28.2 28.2-28.2 28.2 12.6 28.2 28.2zm0 0M63.8 195.4c0 15.6-12.6 28.2-28.2 28.2S7.4 211 7.4 195.4s12.6-28.2 28.2-28.2c15.5 0 28.2 12.6 28.2 28.2zm0 0"/><path class="st1" d="M195.4 277.4c-4 0-7.3 3.3-7.3 7.3v35.8c-16.1 3.4-28.2 17.7-28.2 34.8 0 19.6 15.9 35.5 35.5 35.5s35.5-15.9 35.5-35.5c0-17.1-12.2-31.4-28.2-34.8v-35.8c0-4-3.3-7.3-7.3-7.3zm21.1 78c0 11.6-9.4 21-21 21s-21-9.4-21-21 9.4-21 21-21c11.5-.1 21 9.4 21 21zm0 0M278.8 289c-3.8 5.8-5.8 12.4-5.8 19.4 0 9.5 3.7 18.4 10.4 25.1 6.7 6.7 15.6 10.4 25.1 10.4 9.5 0 18.4-3.7 25.1-10.4 6.7-6.7 10.4-15.6 10.4-25.1 0-9.5-3.7-18.4-10.4-25.1-6.7-6.7-15.6-10.4-25.1-10.4-7 0-13.8 2-19.4 5.8l-25.4-25.4c-2.8-2.8-7.4-2.8-10.2 0-2.8 2.8-2.8 7.4 0 10.2l25.3 25.5zm44.6 4.7c8.2 8.2 8.2 21.5 0 29.8-4 4-9.3 6.2-14.9 6.2s-10.9-2.2-14.9-6.2c-8.2-8.2-8.2-21.5 0-29.7 4-4 9.3-6.2 14.9-6.2 5.7-.1 10.9 2.1 14.9 6.1zm0 0M253.4 137.4c1.4 1.4 3.3 2.2 5.1 2.2 1.8 0 3.7-.7 5.1-2.2L289 112c5.8 3.8 12.4 5.8 19.4 5.8 9.5 0 18.4-3.7 25.1-10.4 6.7-6.7 10.4-15.6 10.4-25.1 0-9.5-3.7-18.4-10.4-25.1-6.7-6.7-15.6-10.4-25.1-10.4-9.5 0-18.4 3.7-25.1 10.4C276.6 64 273 72.9 273 82.4c0 7 2 13.8 5.8 19.4l-25.4 25.4c-2.8 2.8-2.8 7.4 0 10.2zm40.3-69.9c4-4 9.3-6.2 14.9-6.2s10.9 2.2 14.9 6.2c8.2 8.2 8.2 21.5 0 29.8-4 4-9.3 6.2-14.9 6.2s-10.9-2.2-14.9-6.2c-8.3-8.3-8.3-21.6 0-29.8zm0 0M137.4 253.4c-2.8-2.8-7.4-2.8-10.2 0l-25.4 25.4C96 275 89.4 273 82.4 273c-9.5 0-18.4 3.7-25.1 10.4-6.7 6.7-10.4 15.6-10.4 25.1 0 9.5 3.7 18.4 10.4 25.1C64 340.3 72.9 344 82.4 344c9.5 0 18.4-3.7 25.1-10.4 6.7-6.7 10.4-15.6 10.4-25.1 0-7-2-13.8-5.8-19.4l25.4-25.4c2.7-2.8 2.7-7.5-.1-10.3zm-40.2 70c-4 4-9.3 6.2-14.9 6.2s-10.9-2.2-14.9-6.2c-8.2-8.2-8.2-21.5 0-29.8 4-4 9.3-6.2 14.9-6.2s10.9 2.2 14.9 6.2c8.2 8.2 8.2 21.6 0 29.8zm0 0"/><path class="st0" d="M204.6 188h-18.4c-7.1 0-12.9-5.8-12.9-12.9 0-7.1 5.8-12.9 12.9-12.9h32.4c4 0 7.3-3.3 7.3-7.3s-3.3-7.3-7.3-7.3h-16v-12c0-4-3.3-7.3-7.3-7.3s-7.3 3.3-7.3 7.3v12h-1.9c-15.1 0-27.4 12.3-27.4 27.4 0 15.1 12.3 27.4 27.4 27.4h18.4c7.1 0 12.9 5.8 12.9 12.9 0 7.1-5.8 12.9-12.9 12.9h-33c-4 0-7.3 3.3-7.3 7.3s3.3 7.3 7.3 7.3h16.6V255c0 4 3.3 7.3 7.3 7.3s7.3-3.3 7.3-7.3v-12.2h1.9c15.1 0 27.4-12.3 27.4-27.4 0-15.1-12.2-27.4-27.4-27.4zm0 0"/><path class="st1" d="M159.9 35.5c0 17.1 12.2 31.4 28.2 34.8v35.8c0 4 3.3 7.3 7.3 7.3s7.3-3.3 7.3-7.3V70.3C218.8 67 231 52.6 231 35.5 231 15.9 215 0 195.4 0s-35.5 15.9-35.5 35.5zm56.6 0c0 11.6-9.4 21-21 21s-21-9.4-21-21 9.4-21 21-21c11.5 0 21 9.4 21 21zm0 0M320.6 188.2h-35.8c-4 0-7.3 3.3-7.3 7.3s3.3 7.3 7.3 7.3h35.8c3.4 16.1 17.7 28.2 34.8 28.2 19.6 0 35.5-15.9 35.5-35.5S375 160 355.4 160c-17.2-.1-31.5 12.1-34.8 28.2zm55.8 7.2c0 11.6-9.4 21-21 21s-21-9.4-21-21 9.4-21 21-21 21 9.4 21 21zm0 0M35.5 231c17.1 0 31.4-12.2 34.8-28.2h35.8c4 0 7.3-3.3 7.3-7.3s-3.3-7.3-7.3-7.3H70.3C66.9 172.1 52.6 160 35.5 160 15.9 159.9 0 175.8 0 195.4 0 215 15.9 231 35.5 231zm0-56.6c11.6 0 21 9.4 21 21s-9.4 21-21 21-21-9.4-21-21 9.4-21 21-21zm0 0M107.4 57.2c-6.7-6.7-15.6-10.4-25.1-10.4-9.5 0-18.4 3.7-25.1 10.4-6.7 6.7-10.4 15.6-10.4 25.1 0 9.5 3.7 18.4 10.4 25.1 6.7 6.7 15.6 10.4 25.1 10.4 7 0 13.8-2 19.4-5.8l25.4 25.4c1.4 1.4 3.3 2.2 5.1 2.2 1.8 0 3.7-.7 5.1-2.2 2.8-2.8 2.8-7.4 0-10.2L112 101.9c3.8-5.8 5.8-12.4 5.8-19.4 0-9.6-3.6-18.6-10.4-25.3zm-39.9 40c-8.2-8.2-8.2-21.5 0-29.8 4-4 9.3-6.2 14.9-6.2s10.9 2.2 14.9 6.2c8.2 8.2 8.2 21.5 0 29.7-4 4-9.3 6.2-14.9 6.2-5.7.1-11-2.1-14.9-6.1zm0 0"/></svg>