<svg id="Layer_1" xmlns="http://www.w3.org/2000/svg" viewBox="0 0 360.4 284.6"><style>.st0{fill:#85B856;} .st1{fill:none;} .st2{fill:#26637D;} .st3{fill:#FFFFFF;}</style><path class="st0" d="M12.6 108.1l6.2.3c1.4 6.1 3.5 11.9 6.4 17.5l-4.6 4.2c-5.4 4.9-5.8 13.3-.8 18.7l8.1 8.9c2.4 2.6 5.7 4.1 9.2 4.3 3.5.2 6.9-1.1 9.5-3.5l4.6-4.2c5.3 3.4 10.9 6 16.8 7.9l-.3 6.2c-.3 7.3 5.3 13.5 12.6 13.8l12 .5c7.3.3 13.5-5.3 13.8-12.6l.3-6.2c6.1-1.4 11.9-3.5 17.5-6.4l4.2 4.6c2.4 2.6 5.7 4.1 9.2 4.3 3.5.2 6.9-1.1 9.5-3.5l8.9-8.1c5.4-4.9 5.8-13.3.8-18.7l-4.2-4.6c3.4-5.3 6-10.9 7.9-16.8l6.2.3c7.3.3 13.5-5.3 13.8-12.6l.5-12c.3-7.3-5.3-13.5-12.6-13.8l-6.2-.3c-1.4-6.1-3.5-11.9-6.4-17.5l4.6-4.2c5.4-4.9 5.8-13.3.8-18.7l-8.1-8.9c-2.4-2.6-5.7-4.1-9.2-4.3-3.5-.2-6.9 1.1-9.5 3.5l-4.6 4.2c-5.3-3.4-10.9-6-16.8-7.9l.3-6.2c.3-7.3-5.3-13.5-12.6-13.8l-12-.5C81 1.6 74.9 7.2 74.5 14.6l-.3 6.1c-6.1 1.4-11.9 3.5-17.5 6.4l-4.2-4.6c-2.4-2.6-5.7-4.1-9.2-4.3-3.5-.2-6.9 1.1-9.5 3.5l-8.9 8.1c-5.4 4.9-5.8 13.3-.8 18.7l4.2 4.6c-3.4 5.3-6 10.9-7.9 16.8l-6.2-.3C7 69.3.9 74.9.5 82.2l-.5 12c-.3 7.3 5.3 13.5 12.6 13.9zm17.3-6.6c-.4-2.9-2.9-5.1-5.8-5.1l-11-.5c-.6 0-1-.5-1-1.1l.5-12c0-.6.5-1 1.1-1l11 .5c2.9.1 5.5-1.9 6.2-4.7 1.9-7.8 5.3-15 10.1-21.5 1.8-2.3 1.5-5.6-.4-7.7L33 40.2c-.4-.5-.4-1.1.1-1.5l8.9-8.1c.3-.2.6-.3.8-.3.2 0 .5.1.7.3l7.5 8.2c1.9 2.1 5.2 2.6 7.7 1.1 6.9-4.2 14.4-6.9 22.3-8.1 2.9-.4 5.1-2.9 5.2-5.7l.5-11c0-.6.5-1 1.1-1l12 .5c.6 0 1 .5 1 1.1l-.5 10.9c-.1 2.9 1.9 5.5 4.7 6.2 7.8 1.9 15 5.3 21.5 10.1 2.3 1.8 5.6 1.5 7.7-.4l8.2-7.5c.3-.2.6-.3.8-.3.2 0 .5.1.7.3l8.1 8.9c.4.5.4 1.1-.1 1.5l-8.2 7.5c-2.1 1.9-2.6 5.2-1.1 7.7 4.2 6.9 6.9 14.4 8.1 22.3.4 2.9 2.9 5.1 5.7 5.2l11 .5c.6 0 1 .5 1 1.1l-.5 12c0 .6-.5 1-1.1 1l-11-.5c-2.9-.1-5.5 1.9-6.2 4.7-1.9 7.8-5.3 15-10.1 21.5-1.8 2.3-1.5 5.6.4 7.7l7.5 8.2c.4.5.4 1.1-.1 1.5l-8.9 8.1c-.3.2-.6.3-.8.3-.2 0-.5-.1-.7-.3l-7.3-8.1c-1.1-1.2-2.6-1.9-4.2-2-1.2-.1-2.4.3-3.4.9-6.9 4.2-14.4 6.9-22.3 8.1-2.9.4-5.1 2.9-5.2 5.7l-.5 11c0 .6-.5 1-1.1 1l-12-.5c-.6 0-1-.5-1-1.1l.5-11c.1-2.9-1.9-5.5-4.7-6.2-7.8-1.9-15-5.3-21.5-10.1-2.3-1.8-5.6-1.5-7.7.4l-8.2 7.5c-.3.2-.6.3-.8.3-.2 0-.5-.1-.7-.3l-8.1-8.8c-.4-.4-.4-1.1.1-1.5l8.2-7.5c2.1-1.9 2.6-5.2 1.1-7.7-4.2-7-7-14.5-8.2-22.5zm0 0"/><path class="st0" d="M92 53.8c-21.1-.9-39.1 15.5-40 36.7-.9 21.1 15.5 39.1 36.7 40 21.1.9 39.1-15.5 40-36.7.9-21.1-15.5-39.1-36.7-40zm-2.8 64.6c-14.4-.6-25.7-12.9-25-27.3C64.8 76.6 77 65.3 91.5 66c14.4.6 25.7 12.9 25 27.3s-12.9 25.7-27.3 25.1zm0 0"/><path class="st1" d="M174.5 202.1h39.9v63.3h-39.9zM270.2 49.8l27.5 18.9v-46h-27.5z"/><path class="st2" d="M81.6 283.1c-4.5 0-8.1-3.6-8.1-8.1v-69.6l16.2.5v61h67.2v-74.4c0-4.5 3.6-8.1 8.1-8.1h59c4.5 0 8.1 3.6 8.1 8.1v74.4h67.2V91.2L194.4 19.4l-13.8 9.4-9.7-13 18.9-12.9c1.4-.9 3-1.4 4.6-1.4 1.7 0 3.2.5 4.6 1.4.7.5 49 33.6 51.1 35l2.3 1.6V13.1c0-4.5 3.6-8.1 8.1-8.1h46.8c4.5 0 8.1 3.6 8.1 8.1v69.5l39.9 27.3c3.7 2.5 4.6 7.6 2.1 11.3-1.5 2.2-4 3.5-6.7 3.5-1.6 0-3.2-.5-4.6-1.4l-30.7-21V275c0 4.5-3.6 8.1-8.1 8.1H81.6zm91.4-16.2h42.9v-66.3H173v66.3zm95.7-216.3l30.6 20.9V21.2h-30.6v29.4z"/><path class="st3" d="M194.5 3c1.3 0 2.6.4 3.7 1.2.7.5 49 33.6 51.1 35l4.7 3.2V13.1c0-3.6 3-6.6 6.6-6.6h46.8c3.6 0 6.6 3 6.6 6.6v70.3l1.3.9 39.2 26.9c1.5 1 2.4 2.5 2.8 4.2.3 1.7 0 3.5-1 4.9-1.2 1.8-3.3 2.9-5.5 2.9-1.3 0-2.6-.4-3.7-1.2l-28.4-19.4-4.7-3.2V275c0 3.6-3 6.6-6.6 6.6H81.6c-3.6 0-6.6-3-6.6-6.6v-68l13.2.4v61h70.2v-75.9c0-3.6 3-6.6 6.6-6.6h59c3.6 0 6.6 3 6.6 6.6v75.9h70.2v-178l-1.3-.9-103.4-70.7-1.7-1.2-1.7 1.2-11.7 8-7.9-10.6 17.6-12c1.1-.8 2.4-1.2 3.8-1.2m106.2 71.4V19.7h-33.6V51.4l1.3.9L296 71.2l4.7 3.2m-129.2 194h45.9v-69.3h-45.9v69.3M194.5 0c-1.9 0-3.8.6-5.5 1.7l-20.2 13.8 11.5 15.4 14.1-9.6L297.7 92v173.5h-64.2v-72.9c0-5.3-4.3-9.6-9.6-9.6h-59c-5.3 0-9.6 4.3-9.6 9.6v72.9H91.2v-60.9l-19.2-.7V275c0 5.3 4.3 9.6 9.6 9.6h225.8c5.3 0 9.6-4.3 9.6-9.6V105.1l28.4 19.4c1.7 1.1 3.5 1.7 5.4 1.7 3.1 0 6.1-1.5 7.9-4.2 3-4.4 1.9-10.3-2.5-13.3L317 81.8V13.1c0-5.3-4.3-9.6-9.6-9.6h-46.8c-5.3 0-9.6 4.3-9.6 9.6v23.6s-50.4-34.5-51.1-35C198.3.6 196.4 0 194.5 0zm103.2 68.7l-27.6-18.9V22.7h27.6v46zM174.5 265.4v-63.3h39.9v63.3h-39.9z"/><path class="st0" d="M265.6 51.2l36.6 25.1V15.1h-36.6v36.1zm0 0"/></svg>