<svg id="Слой_1" xmlns="http://www.w3.org/2000/svg" viewBox="0 0 40 40"><style>.st0{fill:#87BA5C;} .st1{fill:#28637C;}</style><path class="st0" d="M39 38.1H.9c-.5 0-.9.4-.9.9 0 .6.4 1 .9 1H39c.5 0 .9-.4.9-.9s-.4-1-.9-1z"/><path class="st1" d="M3.4 34.7h33c.5 0 .9-.4.9-.9V5.4c0-.5-.4-.9-.9-.9h-6.6c-.5 0-.9.4-.9.9v11.3h-4.7V.9c0-.5-.4-.9-.9-.9h-6.6c-.5 0-.9.4-.9.9v22.8H11v-8c0-.5-.4-.9-.9-.9H3.4c-.5 0-.9.4-.9.9v18.1c0 .5.4.9.9.9zm27.5-17V6.3h4.7v26.5h-4.7V17.7zm-6.7.9H29v14.2h-4.7V18.6zM17.6 1.9h4.7v30.9h-4.7V1.9zM11 25.6h4.7v7.2H11v-7.2zm-6.7-9H9v16.2H4.3V16.6z"/></svg>