<svg id="Layer_1" xmlns="http://www.w3.org/2000/svg" viewBox="0 0 209 258.5"><style>.st0{fill:#87BA5C;stroke:#87BA5C;stroke-width:3;stroke-miterlimit:10;}</style><path class="st0" d="M2.7 256.5c0-23.9 0-47.8-.1-71.7v-54.3-3.2h55.3v-17.4c0-7.3 3.2-11.6 10.3-13.8-.4-.3-.6-.6-.9-.7-12.3-6-14.7-20.7-4.4-29.9 6-5.4 7.9-12.5 7.2-18.8H57V1.9h7.8v36.6h78.4V1.9h7.8v44.8h-13.2v49.1c.8.2 1.7.4 2.5.6 5.6 1.4 9.4 6 9.6 11.8.1 2.4 0 4.9 0 7.3v11.7h55.2c.1.9.2 1.4.2 1.9v127.5c-67.4-.1-135-.1-202.6-.1zm158.4-8V135.3h-114v113.2h114zM70.4 87.6v-8.4h7.9v21.1c0 2.3 0 4.6.1 6.8.1 1.7.9 3 2.7 3.3 1.8.3 2.9-.4 3.8-1.9.3-.6 1.1-1.2 1.7-1.3 2.1-.2 4.2-.1 6.3-.1l-.3.6c1.2.9 2.3 2.2 3.7 2.5.9.2 2.8-.7 3.2-1.5.8-1.6 1.8-1.8 3.3-1.7 1.1.1 2.1.1 3.2 0 1.2 0 2 .2 2.6 1.5 1.3 2.6 4.8 2.5 6-.1.6-1.3 1.3-1.4 2.4-1.4h3.7c1.3-.1 2.1.2 2.9 1.5.6 1 2.5 1.7 3.6 1.6 1-.1 1.8-1.7 2.5-2.7.3-.5.1-1.3.1-1.9 0-18.8 0-37.5.1-56.3 0-2.2-.6-2.9-2.9-2.9-15.3.1-30.7.1-46 .1-.9 0-1.7.1-2.4.2-.1.4-.2.6-.2.7 0 .5-.1 1-.1 1.5 0 8.7-2.9 16.1-9.6 21.8-.9.7-1.6 1.6-2.3 2.5-3.5 5.2-1.8 11.8 4 14.5zM38.8 248.5V135.1h-28v113.4h28zm158.7-113.3h-28.2v113.2h28.2V135.2zM70.4 103.9c-2.6.3-4.1 1.6-4.2 3.5-.2 5.2-.1 14.3-.1 19.5h76.1c0-5.1.1-14-.1-19-.1-2.3-1.6-3.8-4.3-4 .2 5.1-.6 9.8-5.2 12.8-4.6 3-9.3 2.4-13.7-.7-4.6 3.2-9.2 3.6-14 .6-.4-.3-1.2-.4-1.5-.2-4.9 3.3-9.6 2.8-14.3-.4-4.5 3.2-9 3.6-13.6.7-4.5-2.8-5.4-7.5-5.1-12.8z"/><path class="st0" d="M38.8 156.5h-28v-11.3h28v11.3zM197.5 145.2v11.3h-28.2v-11.3h28.2zM78.3 23v7.5h-7.7V23h7.7z"/></svg>