<svg id="Layer_1" xmlns="http://www.w3.org/2000/svg" viewBox="0 0 209 164.8"><style>.st0{fill:#87BA5C;}</style><path class="st0" d="M182.9 0H26.3l-7.2 21.4h-.4v1.1L.2 78.1h17.4v86.7h174V78.1H209L182.9 0zm-26.8 44.6h-28.5l-1-14.5h26.5l3 14.5zm1.7 8.7l3.2 16.1h-31.8l-1.1-16.1h29.7zm-9-44.6l2.6 12.7H126l-.9-12.7h23.7zm-56.1 0h23.8l.9 12.7H91.9l.8-12.7zm-1.4 21.4h26.6l1 14.5H90.3l1-14.5zm-1.6 23.2h29.8l1.1 16.1h-32l1.1-16.1zM60.3 8.7H84l-.9 12.7H57.7l2.6-12.7zM56 30.1h26.5l-1 14.5H53.1L56 30.1zm25 23.2l-1.1 16.1H48.1l3.2-16.1H81zM32.5 8.7h18.9l-2.6 12.7H28.3l4.2-12.7zm-7.1 21.4h21.8l-2.9 14.5H20.5l4.9-14.5zM12.2 69.4l5.4-16.1h24.9l-3.2 16.1H12.2zm144.6 86.7H122v-52h34.8v52zm26.1 0h-17.4V95.4h-52.2v60.7h-87v-78h156.6v78zm-13-86.7L160.4 22v-.6h-.1l-2.6-12.7h18.9l20.3 60.7h-27zm-74 26H43.7v34.7h52.2V95.4zm-8.7 26H52.4v-17.3h34.8v17.3zm43.5 13c2.4 0 4.4-1.9 4.4-4.3s-2-4.3-4.4-4.3c-2.4 0-4.4 1.9-4.4 4.3s2 4.3 4.4 4.3z"/></svg>