<svg id="Layer_1" xmlns="http://www.w3.org/2000/svg" viewBox="0 0 391.9 258.3"><style>.st0{fill:#85B856;} .st1{fill:#26637D;}</style><path class="st0" d="M.8 133.8c1 1.9 2.6 3.4 4.6 4l50 17.2c.9.3 1.7.4 2.6.4 3.3 0 6.4-2.1 7.5-5.4l39.3-114.6 2 .7c10.2 3.6 21.5 3 31.2-1.8l4.9-2.4c5.8-2.8 12.6-3.3 18.7-1.1L253 62.3c-1 3.5-2.8 7.6-6 9.8-3.7 2.6-9.4 2.6-16.8 0l-41-14c-2.1-.7-4.4-.5-6.3.6-1.9 1-3.4 2.9-3.9 5-.1.2-5.8 21.4-23.6 30.9-11.2 6-25.2 6.2-41.6.6-4.2-1.4-8.6.8-10.1 5-1.4 4.2.8 8.6 5 10.1 9.6 3.3 18.7 5 27.2 5 9.8 0 18.9-2.2 27.1-6.6 16-8.6 24.5-23.5 28.4-32.7L225 87.5c12.5 4.2 22.9 3.6 31-2 12.7-8.8 13.6-26 13.7-27.9.1-3.4-2.1-6.6-5.4-7.8L166.6 16c-10.1-3.4-21.3-2.8-30.9 1.9l-4.9 2.4c-5.9 2.9-12.8 3.3-19 1.1l-8.1-2.9c-.5-.3-1-.6-1.5-.7L52.5.4c-4.2-1.4-8.6.8-10.1 5L.4 127.8c-.7 1.9-.5 4.1.4 6zM54.9 18l35 12-36.8 107.4-35-12L54.9 18zm0 0"/><path class="st1" d="M83.3 206.4c3.9 8 11.8 12.6 20.1 13 0 3.4.8 7 2.3 10.2 2.7 5.6 7.4 9.8 13.4 11.8 2.5.9 5 1.3 7.5 1.3 3.5 0 7-.8 10.2-2.4l4.2-2.1c.3 2.4 1 4.9 2.2 7.2 2.7 5.6 7.4 9.8 13.4 11.8 2.5.9 5 1.3 7.5 1.3 3.5 0 7-.8 10.2-2.4l91-44.6c20.3-9.9 39-22.7 55.7-38l20.3-18.6 46.5-22.7c3.9-1.9 5.5-6.6 3.6-10.6L334.5 5.2c-1-1.9-2.6-3.4-4.6-4-2-.7-4.2-.6-6.1.4l-47.5 23.3c-3.9 1.9-5.5 6.6-3.6 10.6l54.2 110.9-16.8 15.4c-15.5 14.2-33 26.2-51.9 35.4l-91 44.6c-1.8.9-3.8 1-5.7.3-1.8-.6-3.4-2-4.2-3.8-.9-1.8-1-3.8-.3-5.7.6-1.8 2-3.4 3.8-4.2l50.9-24.9c3.9-1.9 5.5-6.6 3.6-10.6-1.9-3.9-6.6-5.5-10.6-3.6l-50.9 24.9-24 11.8c-1.8.9-3.8 1-5.7.3-1.8-.6-3.4-2-4.2-3.8-.9-1.8-1-3.8-.3-5.7.6-1.8 2-3.4 3.8-4.2l73-35.7c3.9-1.9 5.5-6.6 3.6-10.6-1.9-3.9-6.6-5.5-10.6-3.6l-82 40.1c-3.7 1.8-8.1.2-9.9-3.4-.9-1.8-1-3.8-.3-5.7.6-1.8 2-3.4 3.8-4.2l32.3-15.8 42-20.6c3.9-1.9 5.5-6.6 3.6-10.6-1.9-3.9-6.6-5.5-10.6-3.6l-65.4 32c-3.7 1.8-8.1.2-9.9-3.4-1.8-3.7-.2-8.1 3.4-9.9l34.7-17c3.9-1.9 5.5-6.6 3.6-10.6-1.9-3.9-6.6-5.5-10.6-3.6l-34.7 17C77.9 149 73.1 163 78.8 174.5c1.6 3.3 3.8 5.9 6.6 8.1-4.9 6.6-6.1 15.8-2.1 23.8zM290.4 35.6l33.3-16.3 49.9 102-33.3 16.3-49.9-102zm0 0"/></svg>