<svg id="Layer_1" xmlns="http://www.w3.org/2000/svg" viewBox="0 0 313 297.3"><style>.st0{opacity:0.8;fill:#86BB56;} .st1{opacity:0.8;fill:#86B8C3;} .st2{opacity:0.8;fill:#24637D;} .st3{fill:none;stroke:#FFFFFF;stroke-miterlimit:10;stroke-dasharray:5,5;} .st4{fill:#FFFFFF;} .st5{fill:#26637D;} .st6{fill:#85B856;}</style><circle class="st0" cx="84.5" cy="212.8" r="84.5"/><circle class="st1" cx="228.5" cy="212.8" r="84.5"/><circle class="st2" cx="156.5" cy="84.5" r="84.5"/><path class="st3" d="M157.1 77.4L78 214.5h158.3z"/><circle class="st4" cx="84.5" cy="212.8" r="39.7"/><path class="st5" d="M77.6 218c-.9.7-1.4 1.8-1.4 3v4.1c0 .5.4.9.9.9s.9-.4.9-.9V221c0-.6.3-1.2.7-1.5 3.7-3 7.6-5 8.4-5.4.4-.2.7-.6.7-1.1v-5.8c0-.3-.2-.6-.4-.8-.5-.3-.8-.9-.8-1.5v-6c0-2.5 2-4.5 4.5-4.5h1.3c2.5 0 4.5 2 4.5 4.5v6c0 .6-.3 1.2-.8 1.5-.3.2-.4.5-.4.8v5.8c0 .5.3.9.7 1.1.8.4 4.7 2.4 8.4 5.4.5.4.7.9.7 1.5v4.1c0 .5.4.9.9.9s.9-.4.9-.9V221c0-1.2-.5-2.2-1.4-3-3.4-2.8-7.1-4.8-8.4-5.4v-4.9c.8-.7 1.2-1.7 1.2-2.7v-6c0-3.5-2.8-6.3-6.3-6.3h-1.3c-3.5 0-6.3 2.8-6.3 6.3v6c0 1 .4 2 1.2 2.7v4.9c-1.4.6-5 2.6-8.4 5.4zm0 0"/><path class="st5" d="M75.1 198.4H74c-2.9 0-5.3 2.4-5.3 5.3v4.9c0 .9.4 1.7 1 2.3v3.9c-1.1.6-4.1 2.2-6.8 4.4-.8.6-1.2 1.6-1.2 2.5v3.4c0 .5.4.9.9.9s.9-.4.9-.9v-3.4c0-.4.2-.8.5-1.1 3-2.4 6.2-4.1 6.8-4.4.4-.2.6-.6.6-1v-4.7c0-.3-.2-.6-.4-.8-.4-.2-.6-.6-.6-1.1v-4.9c0-1.9 1.6-3.5 3.5-3.5H75c1.9 0 3.5 1.6 3.5 3.5v4.9c0 .4-.2.8-.6 1.1-.3.2-.4.5-.4.8v3.9c0 .5.4.9.9.9s.9-.4.9-.9V211c.6-.6 1-1.4 1-2.3v-4.9c.1-3-2.3-5.4-5.2-5.4zm0 0"/><path class="st6" d="M93.7 213.7c-.5 0-.9.4-.9.9 0 .6-.5 1.1-1.1 1.1-.2 0-.4-.1-.6-.2l-.1-.1c-.2-.2-.3-.5-.3-.8 0-.5-.4-.9-.9-.9s-.9.4-.9.9c0 .7.3 1.4.7 1.9l-.6 13.7c0 .3.1.5.3.7l1.9 1.7c.2.2.4.2.6.2.2 0 .4-.1.6-.2l1.9-1.7c.2-.2.3-.4.3-.7l-.6-13.8c.4-.5.6-1.1.6-1.8 0-.5-.4-.9-.9-.9zm-1.9 17.2l-1-.9.6-12.4h.9l.5 12.5-1 .8zm0 0"/><circle class="st4" cx="156.5" cy="84.5" r="39.7"/><path class="st5" d="M142.2 85.5c0 .3.4.5.7.3.4-.3.8-.6 1.1-1 4-4.1 3.4-8.9 6.8-13.1.2-.3-.1-.6-.4-.5-1.5.7-2.9 1.7-4.1 2.9-3 3.1-4.4 7.3-4.1 11.4M158.1 76.9c2.1-2.2 4.2-3.3 6.2-4.2.2-.1.3-.4 0-.6-1.3-.8-2.6-1.4-4-1.8-.3-.1-.7 0-1 .1-1.4.8-2.9 1.8-4.4 3.3-4.5 4.5-3.3 9.8-7.7 14.2-1 1-2 1.7-3.1 2.3-.3.2-.4.6-.3.9.5.9 1 1.7 1.7 2.5.2.3.6.3.9.2 1.4-.6 2.7-1.4 3.9-2.7 4.5-4.4 3.3-9.6 7.8-14.2M164.4 83.3c1.7-1.8 3.4-2.9 5.1-3.7.3-.1.4-.5.3-.8-.4-.9-.8-1.8-1.4-2.6-.2-.3-.6-.4-.9-.3-2 .8-4.1 2-6.2 4.2-4.5 4.5-3.3 9.8-7.7 14.2-1.1 1.1-2.2 1.8-3.3 2.4-.2.1-.2.5 0 .6 1.4.7 2.9 1.1 4.4 1.3.4 0 .7-.1 1-.3.3-.3.6-.6 1-.9 4.4-4.3 3.2-9.6 7.7-14.1M170.8 84.7c0-.4-.4-.6-.7-.4-.8.6-1.7 1.3-2.6 2.2-3.2 3.3-3.5 6.9-5.1 10.4-.1.3.1.5.4.4 1.4-.7 2.6-1.6 3.8-2.7 2.7-2.8 4.1-6.3 4.2-9.9"/><circle class="st4" cx="228.5" cy="212.8" r="39.7"/><g><path class="st6" d="M243.4 206.4L229 195.9c-.3-.2-.7-.2-.9 0l-14.4 10.6c-.4.3-.4.8-.2 1.1.3.4.8.4 1.1.2l13.9-10.2 13.9 10.2c.1.1.3.2.5.2s.5-.1.6-.3c.3-.5.2-1-.1-1.3z"/><path class="st5" d="M239.6 207.9c-.4 0-.8.4-.8.8v12.6h-6.3v-6.9c0-2.2-1.8-3.9-3.9-3.9-2.2 0-3.9 1.8-3.9 3.9v6.9h-6.3v-12.6c0-.4-.4-.8-.8-.8s-.8.4-.8.8v13.4c0 .4.4.8.8.8h7.9c.4 0 .8-.3.8-.7v-7.8c0-1.3 1.1-2.4 2.4-2.4 1.3 0 2.4 1.1 2.4 2.4v7.8c0 .4.4.7.8.7h7.9c.4 0 .8-.4.8-.8v-13.4c-.3-.4-.6-.8-1-.8z"/></g></svg>