<svg id="Слой_1" xmlns="http://www.w3.org/2000/svg" viewBox="0 0 40 40"><style>.st0{fill:#1D1D1D;}</style><path class="st0" d="M19.4 36.9h1.3v-1.2h-1.3v1.2zm0-2.5h1.3v-1.3h-1.3v1.3zM30.2 30l-1.8-.6-3.3-2.6-.7.2v-3.2c1.4-1.3 2.4-3.2 2.5-6.1l.6-.6V8.8c0-1.7-1.4-3.1-3.1-3.1h-6.9c-1.2 0-2.1.8-2.4 1.9H15c-1.4 0-2.5 1.1-2.5 2.5v7.1l.6.6c.1 2.9 1.1 4.8 2.5 6.1V27l-.8-.2-3.3 2.6-1.7.6c-4.1 1.4-4.2 3.5-4.2 3.7v.3l.2.2C9.6 37.9 14.6 40 20 40s10.5-2.1 14.2-5.8l.2-.2v-.3c0-.2-.1-2.3-4.2-3.7zm-5.3-1.8l2.1 1.7-4.3 1.9-2-2v-.5l4.2-1.1zm-4.9-.1l-3.1-.8v-2.6c1.1.6 2.2.9 3.1.9s2.1-.3 3.1-.9v2.6l-3.1.8zM13.8 10c0-.7.6-1.2 1.3-1.2h1.3v-.7c0-.7.6-1.3 1.3-1.3h6.9c1 0 1.9.8 1.9 1.9v5.6c-.3 0-.6-.3-.6-.6v-1.3c0-.8-.5-1.5-1.3-1.8V9l-3.3 1.6h-4.9c-1 0-1.9.8-1.9 1.9v1.3c0 .3-.3.6-.6.6l-.1-4.4zm.6 7.5v-.3l-.6-.6v-1c1 0 1.9-.8 1.9-1.9v-1.3c0-.3.3-.6.6-.6h5.1l1.7-.9v.9h.6c.3 0 .6.3.6.6v1.3c0 1 .8 1.9 1.9 1.9v1l-.6.6v.3c0 2.7-1.5 6.9-5.6 6.9s-5.6-4.2-5.6-6.9zm.7 10.7l4.2 1.1v.5l-2 2-4.3-1.9 2.1-1.7zM20 38.8c-5 0-9.6-1.8-13.1-5.2.2-.5.8-1.5 3.3-2.3l1.6-.5 5.8 2.6L20 31l2.4 2.4 5.8-2.6 1.6.5c2.5.8 3.1 1.9 3.3 2.3-3.5 3.3-8.1 5.2-13.1 5.2zm17.5-9.1c1.6-2.9 2.5-6.3 2.5-9.7C40 9 31 0 20 0S0 9 0 20c0 3.5.9 6.8 2.5 9.7l-1.7-.3-.2 1.2 3.1.6h.1c.3 0 .6-.2.6-.5l.6-3.1-1.2-.2-.3 1.5C2 26.2 1.3 23.2 1.3 20 1.3 9.7 9.7 1.2 20 1.2S38.8 9.7 38.8 20c0 3.2-.8 6.2-2.2 8.9l-.3-1.5-1.3.2.6 3.1c.1.3.3.5.6.5h.1l3.1-.6-.2-1.2-1.7.3z"/></svg>