<svg id="Слой_1" xmlns="http://www.w3.org/2000/svg" viewBox="0 0 40 40"><style>.st0{fill:#FFFFFF;}</style><path class="st0" d="M24.5 22.8v-3.1c0-1.4-1.1-2.5-2.5-2.5v1.2c.7 0 1.2.6 1.2 1.2v3.1h1.3zm3.8-3.1V21c.7 0 1.2.6 1.2 1.2v4.3c0 2.7-.5 4.7-.9 6.1-.2.8-.4 1.4-.4 1.9v1.2H19v-1.2c0-.1 0-.3-.1-.4l-3.6-4.8c-1.4-5.1-2.2-7.8-2.6-8.2-.1-.1-.1-.2 0-.3.1-.2.4-.5.8-.5.6 0 1.1 1.1 1.3 1.4v.1l1.8 3.7c.1.2.3.3.5.3.3 0 .6-.3.6-.6V12.3c0-.7.6-1.2 1.2-1.2s1.2.6 1.2 1.2v9.9h1.2v-5.6c1.5-.9 2.5-2.5 2.5-4.3 0-2.7-2.2-4.9-4.9-4.9S14 9.6 14 12.3c0 1.8 1 3.4 2.5 4.3v6.1l-.7-1.3c-.1-.4-.9-2.2-2.4-2.2-.9 0-1.7.5-2 1.2-.2.6-.1 1.2.3 1.6.3.5 1.4 4.3 2.3 7.8 0 .1.1.1.1.2l3.6 4.8v1c-.7 0-1.2.6-1.2 1.2v2.5h1.2V37h11.7v2.5h1.2V37c0-.7-.6-1.2-1.2-1.2v-1.2c0-.4.1-.9.3-1.6.4-1.4.9-3.5.9-6.4v-4.3c.1-1.5-1-2.6-2.3-2.6zm-13-7.4c0-2 1.7-3.7 3.7-3.7s3.7 1.7 3.7 3.7c0 1.1-.5 2.1-1.2 2.8v-2.8c0-1.4-1.1-2.5-2.5-2.5s-2.5 1.1-2.5 2.5v2.8c-.7-.7-1.2-1.7-1.2-2.8zm12.3 11.1V21c0-1.4-1.1-2.5-2.5-2.5v1.2c.7 0 1.2.6 1.2 1.2v2.5h1.3zm-1.2-11.1c0-4.1-3.3-7.4-7.4-7.4s-7.4 3.3-7.4 7.4c0 1.4.4 2.8 1.2 4l1-.7c-.7-1-1-2.2-1-3.4C12.8 8.8 15.6 6 19 6s6.2 2.8 6.2 6.2c0 1.2-.3 2.4-1 3.4l1 .7c.8-1.1 1.2-2.5 1.2-4zm2.5 0c0-5.4-4.4-9.9-9.9-9.9s-9.9 4.4-9.9 9.9h1.2c0-4.8 3.9-8.6 8.6-8.6s8.6 3.9 8.6 8.6h1.4zM36.3 0H1.7C1.1 0 .5.6.5 1.2v22.2c0 .7.6 1.2 1.2 1.2h8v-1.2H4.2v-21H3v21H1.7V1.2h32.1v21H35v-21h1.2v22.2H32v1.2h4.3c.7 0 1.2-.6 1.2-1.2V1.2c0-.6-.6-1.2-1.2-1.2z"/></svg>