<svg id="Слой_1" xmlns="http://www.w3.org/2000/svg" viewBox="0 0 40 40"><style>.st0{fill:#1D1D1D;}</style><path class="st0" d="M36.4 22.6c-1.4 0-2.5 1.1-2.5 2.5 0 1.3 1 2.4 2.3 2.5 0 .7-.2 1.3-.5 1.9-1.2 2.1-4.4 2.7-8.5 2.1.6-1.9 1-4 1.3-6.2 2.6-2 4.9-4.2 6.4-6.4 2.5-3.5 3.2-6.6 1.9-8.9-1.5-2.6-5.3-3.4-10-2.7C25.1 2.8 22.4 0 19.4 0c-1 0-2.1.4-3 1-.4-.2-.8-.4-1.4-.4-1.4 0-2.5 1.1-2.5 2.5s1.1 2.5 2.5 2.5 2.5-1.1 2.5-2.5c0-.4-.1-.8-.3-1.2.7-.5 1.4-.7 2.2-.7 2.4 0 4.5 2.5 6 6.4-1.9.4-3.9 1.1-6 2-8-3.4-15.1-3.4-17.3.4-1.3 2.3-.6 5.4 1.9 8.9 1.6 2.2 3.8 4.4 6.4 6.4.3 2.3.7 4.4 1.3 6.2-4.1.6-7.3 0-8.5-2.1-.3-.5-.5-1.2-.5-1.9C4 27.5 5 26.4 5 25.1c0-1.4-1.1-2.5-2.5-2.5S0 23.7 0 25.1c0 1 .6 1.8 1.4 2.3 0 1 .2 2 .6 2.8 1.1 2 3.6 2.9 6.8 2.9 1 0 2.1-.1 3.2-.3 1.7 4.5 4.3 7.4 7.3 7.4s5.6-2.8 7.3-7.4c1.3.1 2.4.2 3.4.2 3.2 0 5.7-1 6.8-2.9.5-.8.7-1.7.6-2.8.8-.4 1.4-1.3 1.4-2.3.1-1.3-1.1-2.4-2.4-2.4zM15 4.4c-.7 0-1.3-.6-1.3-1.3s.6-1.3 1.3-1.3 1.3.6 1.3 1.3-.6 1.3-1.3 1.3zM2.5 26.3c-.7 0-1.3-.6-1.3-1.3 0-.7.6-1.3 1.3-1.3s1.3.6 1.3 1.3c0 .8-.6 1.3-1.3 1.3zm26.2-2.7c.1-1.1.1-2.3.1-3.5s-.1-2.4-.1-3.5c1.4 1.1 2.6 2.3 3.7 3.5-1.1 1.2-2.3 2.3-3.7 3.5zm7-12.9c1 1.8.4 4.5-1.8 7.5-.2.3-.5.6-.7.9-1.3-1.5-2.9-2.9-4.7-4.3-.3-2.3-.7-4.4-1.3-6.2 4.1-.6 7.3 0 8.5 2.1zm-9.8-1.9c.5 1.5.9 3.2 1.2 4.9-.9-.6-1.9-1.3-3-1.9-1-.6-2.1-1.1-3.1-1.6 1.7-.5 3.4-1 4.9-1.4zm-13 0c1.6.3 3.2.8 4.9 1.5-1 .5-2.1 1-3.1 1.6s-2 1.2-3 1.9c.3-1.8.7-3.4 1.2-5zM6.5 20.1c1.1-1.2 2.3-2.4 3.7-3.5-.1 1.2-.1 2.3-.1 3.5s.1 2.4.1 3.5c-1.4-1.2-2.7-2.3-3.7-3.5zm3.9-5.3c-1.8 1.3-3.4 2.8-4.7 4.3-.2-.3-.5-.6-.7-.9-2.2-3-2.8-5.8-1.8-7.5 1.2-2.1 4.4-2.7 8.5-2-.6 1.8-1.1 3.9-1.3 6.1zm1.2 9.8c-.2-1.5-.3-3-.3-4.6s.1-3.1.2-4.6c1.2-.9 2.5-1.7 3.8-2.5 1.4-.8 2.7-1.5 4.1-2 1.4.6 2.7 1.3 4.1 2 1.3.8 2.6 1.6 3.8 2.5.2 1.5.3 3 .3 4.6s-.1 3.1-.3 4.6c-1.2.9-2.5 1.7-3.8 2.5-1.4.8-2.7 1.5-4.1 2-1.4-.6-2.7-1.3-4.1-2-1.3-.8-2.6-1.6-3.7-2.5zm.2 1.7c.9.7 1.9 1.3 3 1.9 1 .6 2.1 1.1 3.1 1.6-1.7.6-3.3 1.1-4.9 1.5-.5-1.5-.9-3.2-1.2-5zm7.6 12.6c-2.4 0-4.5-2.5-6-6.4 1.9-.4 3.9-1.1 6-2 2.1.9 4.1 1.5 6 2-1.4 3.9-3.6 6.4-6 6.4zm6.5-7.6c-1.5-.3-3.2-.8-4.9-1.5 1-.5 2.1-1 3.1-1.6s2-1.2 3-1.9c-.3 1.8-.7 3.5-1.2 5zm10.5-5c-.7 0-1.3-.6-1.3-1.3 0-.7.6-1.3 1.3-1.3s1.3.6 1.3 1.3c-.1.8-.6 1.3-1.3 1.3zm-18.8-5c.5.4 1.2.6 1.9.6s1.3-.2 1.9-.6c.5.1 3.1.8 3.1 3.7h1.3c0-2.8-1.9-4.2-3.4-4.8.6-.8.9-1.9.9-3.1 0-1.9-.4-4.1-3.8-4.1s-3.8 2.2-3.8 4.1c0 1.2.3 2.3.9 3.1-1.5.6-3.4 2-3.4 4.8h1.3c-.1-2.8 2.5-3.5 3.1-3.7zm1.8-6.9c1.9 0 2.5.7 2.5 2.8 0 1.7-.9 3.4-2.5 3.4s-2.5-1.8-2.5-3.4c0-2.1.6-2.8 2.5-2.8z"/></svg>