<svg id="Слой_1" xmlns="http://www.w3.org/2000/svg" viewBox="0 0 40 40"><style>.st0{fill:#7B7B7B;}</style><path class="st0" d="M26.7 24.2c-.6-.6-1.7-.6-2.3 0l-.4.3c-.6.6-2 1.9-2.2 2.1 0 0 .1 0 0-.1-1.1 0-4.5-2.2-6.9-5.5-1.4-1.8-1.6-2.9-1.6-3.2l2.4-2.4c.3-.3.5-.7.5-1.1 0-.4-.2-.9-.5-1.2L7.6 4.9c-.3-.3-.7-.4-1.2-.4-.4 0-.8.1-1.1.4L4.2 6c-.7.7-1.5 1.4-1.5 1.4l-.1.1c-5.1 5.1-2.8 12 7.4 22.2 6.8 6.9 12.3 10.2 16.6 10.2 1.2 0 2.3-.3 3.4-.8s1.8-1.2 2.3-1.7l.2-.1s2.5-2.4 2.6-2.6c.6-.6.6-1.6 0-2.3l-8.4-8.2zm4.6 11.9l-.2.1c-.5.4-1.1 1-1.9 1.4-.8.4-1.7.6-2.6.6-3.8 0-9-3.3-15.4-9.7C-2.4 14.8 2 10.5 3.8 8.6l.1-.1c.1-.1.8-.8 1.5-1.4L6.5 6l8.3 8.3-2.5 2.5c-.8.9-.3 2.8 1.5 5.2 2.5 3.4 6.3 6.1 8.3 6.1.3 0 .6-.1.8-.2.1-.1.2-.1.3-.2.1-.1 1.5-1.5 2.2-2.1l.3-.3 8.3 8.2c-.3.3-2.6 2.5-2.7 2.6zm1.2-17.4c0 .5.3.8.8.8.4 0 .8-.3.8-.8.1-3.5-1.2-6.7-3.6-9.1C28 7.2 24.7 5.9 21.2 6c-.5 0-.8.4-.8.8 0 .5.4.8.9.8 3-.1 5.9 1 8 3.1 2.2 2.2 3.3 5 3.2 8zm2.1-13.2C31.1 2 26.3.1 21.2.2c-.5 0-.8.4-.8.8s.4.8.8.8c4.6-.1 8.9 1.6 12.2 4.8 3.2 3.2 5 7.5 4.9 12 0 .5.4.8.8.8.5 0 .8-.4.8-.8.2-4.8-1.7-9.5-5.3-13.1zm-7.2 14.1s.1 0 0 0c.5 0 .9-.3.9-.8.1-1.9-.6-3.8-1.9-5.1-1.4-1.3-3.2-2-5.2-1.9-.5 0-.8.4-.8.9s.4.8.9.8c1.4-.1 2.9.4 3.9 1.4 1 1 1.5 2.4 1.5 3.8-.1.4.3.8.7.9z"/></svg>