<svg id="Слой_1" xmlns="http://www.w3.org/2000/svg" viewBox="0 0 40 40"><style>.st0{fill:#FFFFFF;}</style><path class="st0" d="M2.7 10.3v1.2h2.2L8 14h3.4l.5 1.9v2.8l-1.8 3.5-.5 2.7-.4-.4c-.2-.2-.6-.2-.9 0L4 28.8c-.2.2-.2.6 0 .9l.2.2-3.8 3.9c-.2.2-.2.6 0 .9.1.1.3.2.4.2.2 0 .3-.1.4-.2L5 30.8l6.5 6.5-1.4 1.4c-.2.2-.2.6 0 .9.1.1.3.2.4.2.2 0 .3-.1.4-.2l1.4-1.4.2.2c.1.1.3.2.4.2s.3-.1.4-.2l4.3-4.3c.2-.2.2-.6 0-.9l-.6-.9 8.1-8.1 3.7-5.6 1.7-4.6H34l3.1-2.4h2.2v-1.2H2.7zM13.1 37l-7.7-7.7 3.4-3.4 7.7 7.7-3.4 3.4zm14.8-19l-3.6 5.4-8.1 8.1-5.5-5.5.5-3.3 1.9-3.7v-3.2l-.4-1.8h2.4l.5 1.9.7 4 2.9 1.5 2.8-.7 3.2-2.6 2.3-4.1h1.9l-1.5 4zm-6.1-.7L19.1 20l-1.8-.9-.6-3.4-.4-1.7h6.8l-1.3 3.3zm2.7-3.3h1.6l-1.9 3.3-2.9 2.3h-.2l1.6-1.6 1.8-4zm9.2-1.3H8.4l-1.5-1.2h28.3l-1.5 1.2zM13.3 34c.1.1.3.2.4.2.2 0 .3-.1.4-.2.2-.2.2-.6 0-.9l-1.2-1.2c-.2-.2-.6-.2-.9 0-.2.2-.2.6 0 .9l1.3 1.2zM10.5 6.8L8.7 5l-.9.8 1.8 1.8.9-.8zm5.6-2.9l-1.2-2.4-1.1.5L15 4.4l1.1-.5zm18.2 1.9l-.9-.8-1.8 1.8.9.9 1.8-1.9zm-6-3.8l-1.1-.5L26 3.9l1.1.5L28.3 2zM21.7.5h-1.2v2.4h1.2V.5z"/></svg>