<svg id="Слой_1" xmlns="http://www.w3.org/2000/svg" viewBox="0 0 40 40"><style>.st0{fill:#1D1D1D;}</style><path class="st0" d="M23.7 19.8c.2-.2.2-.6 0-.9l-2.5-2.5c-.2-.2-.6-.2-.9 0l-9 9C9.8 23.3 9 20.8 9 18.1H7.7c0 3 .9 5.8 2.6 8.2l-1.8 1.8c-2.2-2.9-3.3-6.4-3.3-10 0-3.4 1-6.7 3-9.6l-1-.7C5.1 10.8 4 14.4 4 18.1 4 22 5.4 25.9 7.7 29L.5 36.2c-.2.2-.2.6 0 .9L3 39.6c.1.1.3.2.4.2s.3-.1.4-.2l7.2-7.2c3.1 2.4 7 3.7 10.9 3.7v-1.2c-3.6 0-7.1-1.2-10-3.4l11.8-11.7zM3.4 38.3l-1.6-1.6 18.9-18.9 1.6 1.6L3.4 38.3zm19-22.2l3.9-3.9 1.6 1.6-3.9 3.9.9.9 4.3-4.3c.2-.2.2-.6 0-.9l-2.5-2.5c-.2-.2-.6-.2-.9 0l-4.3 4.3.9.9zm11.3 13.8h-3.3l-1.1-3.3c-.1-.3-.3-.4-.6-.4s-.5.2-.6.4L27 29.9h-3.3c-.3 0-.5.2-.6.4-.1.3 0 .5.2.7l2.7 2.1-1.1 3.4c-.1.3 0 .5.2.7.1.1.2.1.3.1.1 0 .3 0 .4-.1l2.7-2.2 2.7 2.2c.2.2.5.2.7 0 .2-.2.3-.4.2-.7L31 33.2l2.8-2.2c.2-.2.3-.4.2-.7.2-.3 0-.4-.3-.4zm-3.4 2.6c-.3.1-.3.4-.3.7l.6 1.7-1.5-1.2c-.2-.2-.5-.2-.8 0l-1.5 1.2.6-1.9c.1-.2 0-.5-.2-.7l-1.6-1.2h1.9c.3 0 .5-.2.6-.4l.7-2 .7 2c.1.3.3.4.6.4H32l-1.7 1.4zM11.9 7l-1.1 3.4c-.1.3 0 .5.2.7.1.1.2.1.3.1s.3 0 .4-.1L14.6 9l2.7 2.2c.2.2.5.2.7 0s.3-.4.2-.7l-1.1-3.3L19.9 5c.2-.2.3-.4.2-.7-.1-.3-.3-.5-.6-.5h-3.3L15.1.5c-.1-.3-.3-.4-.6-.4s-.5.2-.6.4l-1.1 3.3H9.6c-.3 0-.5.2-.6.5-.1.2 0 .5.2.7l2.7 2zm1.4-1.9c.3 0 .5-.2.6-.4l.7-2 .7 2c.1.3.3.4.6.4h1.9L16 6.5c-.2.2-.3.4-.2.7l.6 1.7-1.5-1.2c-.2-.2-.5-.2-.8 0l-1.5 1.2.6-1.9c.1-.2 0-.5-.2-.7l-1.6-1.2h1.9zm8.7-5v1.2c9.2 0 16.7 7.5 16.7 16.7 0 3.4-1 6.7-3 9.6l1 .7c2.1-3 3.2-6.6 3.2-10.3C39.9 8.2 31.9.1 22 .1zm9.3 19.2c.7 0 1.2-.6 1.2-1.2 0-.7-.6-1.2-1.2-1.2-.7 0-1.2.6-1.2 1.2-.1.7.5 1.2 1.2 1.2zM25.7 5.1c0-.7-.6-1.2-1.2-1.2-.7 0-1.2.6-1.2 1.2s.6 1.2 1.2 1.2 1.2-.5 1.2-1.2zm-9.9 8.7c0-.7-.6-1.2-1.2-1.2s-1.2.6-1.2 1.2c0 .7.6 1.2 1.2 1.2s1.2-.6 1.2-1.2zm8.7 11.7c0-.7-.6-1.2-1.2-1.2-.7 0-1.2.6-1.2 1.2 0 .7.6 1.2 1.2 1.2.6.1 1.2-.5 1.2-1.2zm9.2-3.7c-.7 0-1.2.6-1.2 1.2s.6 1.2 1.2 1.2c.7 0 1.2-.6 1.2-1.2s-.5-1.2-1.2-1.2zM31.3 10c.7 0 1.2-.6 1.2-1.2 0-.7-.6-1.2-1.2-1.2-.7 0-1.2.6-1.2 1.2-.1.7.5 1.2 1.2 1.2zm3 1l-1.1.6c1.1 2 1.7 4.2 1.7 6.5h1.2c.1-2.5-.6-5-1.8-7.1zM22 8.8h-1.2V10H22V8.8zm-8.1 9.3h1.2v-1.2h-1.2v1.2zm14.3 6.2h1.2V23h-1.2v1.3zM7.7 16.9H9v-1.2H7.7v1.2zm13 14.2v-1.2h-1.2v1.2h1.2z"/></svg>