<svg id="Layer_1" xmlns="http://www.w3.org/2000/svg" viewBox="0 0 550.8 45.8"><style>.st0{fill:#FFFFFF;}</style><path class="st0" d="M47.3 44.4H40V14.1h-.2L23.6 38.4 7.5 14.1h-.2v30.3H0V1.3h7.3l16.3 24.8L39.9 1.3h7.3v43.1zM76.1 44.4h-7.3V25L49.9 1.3h9.3L72.4 18 85.6 1.3H95L76.1 25v19.4zM140.1 44.4h-8.7l-5.4-10H99.7l-5.3 10.1h-8.3l23.3-43.1h7.3l23.4 43zM112.9 9.6L103.5 27h18.8l-9.4-17.4zM167.7 1.3c9.4 0 22 3.6 22 21.4 0 14.9-10.4 21.7-22 21.7h-23.6V1.3h23.6zm0 35.8c7.9 0 14.6-4.6 14.6-14.3 0-10.7-7.1-14.1-14.6-14.1h-16.3v28.5h16.3zM217.2 44.4h-7.3L187.5 1.3h8.3l17.8 34.3 18-34.3h8.3l-22.7 43.1zM264.5 45.8c-16.4 0-26.4-10.4-26.4-22.9 0-12.5 9.8-22.9 26.4-22.9 16.6 0 26.4 10.5 26.4 22.9 0 12.5-9.9 22.9-26.4 22.9zm19-22.9c0-8.3-7.2-15.6-19.1-15.6-11.9 0-19.1 7.2-19.1 15.6 0 8.3 7.2 15.6 19.1 15.6 12.1-.1 19.1-7.3 19.1-15.6zM344.5 39.1c-1.7 1.2-9 6.7-21.9 6.7-15.7 0-26.8-9.2-26.8-23C295.9 9.4 307.2 0 321.7 0c12.1 0 18.9 5.4 22.4 8.1l-3.9 6.2c-4.7-3.1-9.6-6.9-18.5-6.9-11.4 0-18.5 7.2-18.5 16 0 7.6 6.2 15.1 19.4 15.1 10.1 0 16.5-4.6 18.7-6.1l3.2 6.7zM400.6 44.4h-8.7l-5.5-10.1h-26.3l-5.3 10.1h-8.3l23.3-43.1h7.3l23.5 43.1zM373.3 9.6L363.9 27h18.8l-9.4-17.4zM421.2 44.4h-7.3V8.7h-16.6V1.3h40.4v7.3h-16.5v35.8zM483 44.4h-38.8V1.3h37.9v7.3h-30.6v9.9h16.8v7.3h-16.8V37H483v7.4zM527.2 12.3c-3.6-2-8.3-5-17.8-5-8 0-12.1 2.1-12.1 5.7 0 4.2 1.5 5.5 13.9 5.5 19.5 0 21.7 5.9 21.7 12.6 0 12.4-11.6 14.6-21.2 14.6-14.7 0-22.5-5.3-25.3-7.3l3.5-6.4c5 3 9.8 6.4 22 6.4 7.7 0 13.1-1.7 13.1-6.5 0-5.5-2.8-5.7-19-6.1-9.8-.2-16.6-3-16.6-12 0-7.2 5.4-13.9 19.9-13.9 10.5 0 18.4 4.2 21.3 5.7l-3.4 6.7z"/><g><path class="st0" d="M540.5 39.5c0-1-.9-1.4-1.7-1.4-.6 0-1.5.2-1.5 1.2 0 .6.4.8.8.9l1.9.4c.9.2 1.5.7 1.5 1.8 0 1.6-1.5 2-2.6 2-1.2 0-1.7-.4-2-.6-.6-.5-.7-1.1-.7-1.7h.9c0 1.2 1 1.6 1.9 1.6.7 0 1.8-.2 1.8-1.1 0-.7-.3-.9-1.4-1.2l-1.4-.3c-.4-.1-1.4-.4-1.4-1.6 0-1 .7-2.1 2.3-2.1 2.3 0 2.6 1.4 2.6 2.1h-1zM548.2 44.3v-4-1.7l-1.9 5.6h-.9l-1.9-5.6v5.7h-.9v-6.7h1.3l1.9 5.7 1.9-5.7h1.3v6.7h-.8z"/></g></svg>