<svg xmlns="http://www.w3.org/2000/svg" viewBox="0 0 549.09 83.7"><defs><style>.cls-1{fill:#fff;}</style></defs><title>Ресурс 1</title><g id="Слой_2" data-name="Слой 2"><g id="Layer_1" data-name="Layer 1"><path class="cls-1" d="M47.27,44.44H39.95V14.15h-.17L23.63,38.37,7.49,14.15H7.32V44.44H0V1.33H7.32l16.31,24.8L39.95,1.33h7.32Z"/><path class="cls-1" d="M76.07,44.44H68.74V25L49.85,1.33h9.32L72.4,18.06,85.64,1.33H95L76.07,25Z"/><path class="cls-1" d="M140.15,44.44h-8.66L126,34.37H99.7L94.37,44.44H86.05l23.3-43.11h7.32ZM112.93,9.57,103.53,27h18.81Z"/><path class="cls-1" d="M167.69,1.33c9.4,0,22,3.58,22,21.39,0,14.9-10.4,21.72-22,21.72H144.06V1.33Zm0,35.79c7.91,0,14.65-4.58,14.65-14.31,0-10.65-7.07-14.15-14.65-14.15H151.38V37.12Z"/><path class="cls-1" d="M217.21,44.44h-7.32L187.5,1.33h8.32l17.81,34.29,18-34.29h8.32Z"/><path class="cls-1" d="M264.48,45.77c-16.39,0-26.38-10.4-26.38-22.89S247.92,0,264.48,0s26.38,10.49,26.38,22.89S281,45.77,264.48,45.77Zm19.06-22.89c0-8.32-7.16-15.56-19.06-15.56s-19.06,7.24-19.06,15.56,7.16,15.56,19.06,15.56S283.54,31.21,283.54,22.89Z"/><path class="cls-1" d="M344.54,39.11c-1.75,1.16-9,6.66-21.89,6.66-15.73,0-26.8-9.16-26.8-23,0-13.4,11.32-22.8,25.8-22.8C333.72,0,340.55,5.41,344,8.07l-3.91,6.16c-4.66-3.08-9.57-6.91-18.48-6.91-11.4,0-18.47,7.16-18.47,16,0,7.57,6.24,15.15,19.39,15.15a32.1,32.1,0,0,0,18.72-6.08Z"/><path class="cls-1" d="M400.55,44.44H391.9L386.4,34.37h-26.3l-5.33,10.07h-8.32l23.3-43.11h7.32ZM373.34,9.57,363.93,27h18.81Z"/><path class="cls-1" d="M421.19,44.44h-7.32V8.66H397.22V1.33h40.45V8.66H421.19Z"/><path class="cls-1" d="M483,44.44H444.24V1.33h37.95V8.66H451.57v9.9h16.81v7.32H451.57V37.12H483Z"/><path class="cls-1" d="M527.22,12.32c-3.58-2-8.32-5-17.81-5-8,0-12.07,2.08-12.07,5.74,0,4.16,1.5,5.49,13.9,5.49,19.47,0,21.72,5.91,21.72,12.65,0,12.4-11.57,14.56-21.22,14.56-14.73,0-22.47-5.33-25.3-7.32l3.5-6.41c5,3,9.82,6.41,22,6.41,7.74,0,13.15-1.66,13.15-6.49,0-5.49-2.83-5.66-19-6.08-9.82-.17-16.64-3-16.64-12,0-7.24,5.41-13.9,19.89-13.9,10.49,0,18.39,4.24,21.3,5.74Z"/><path class="cls-1" d="M105.12,58.43c1.63,0,1.9-.05,2-.35l.11-.33,2.61-.82c.11.05.16.16.22.22-.49,1.36-1.14,3-1.66,4.54l-2.91,8.22.05.05a18.46,18.46,0,0,1,3.35-3.32,5.43,5.43,0,0,1,3-1.36,1.88,1.88,0,0,1,1.9,2.1A14.11,14.11,0,0,1,111.41,74c-.82,1.25-2.48,2.8-4,2.8-.87,0-1.31-.49-1.31-1a1.06,1.06,0,0,1,.87-1,.75.75,0,0,1,.49.27,1.25,1.25,0,0,0,.68.44c.25,0,.44-.38.73-1.06.82-1.9,2.07-5.5,2.07-6.91q0-.73-.49-.73a2.45,2.45,0,0,0-1.22.57,14.21,14.21,0,0,0-2.8,3,54.17,54.17,0,0,0-3.43,6,.94.94,0,0,1-.92.44c-.49,0-1.41-.16-1.14-.92l4.79-14c.63-1.82.54-2.37-2-2.37h-2.45c-.68,0-.68.05-1,1l-4.08,12c-.82,2.37-.84,3,.6,3.1l1.14.11a.66.66,0,0,1-.16.79c-1.52-.05-2.67-.08-4-.08s-2.8,0-4,.08c-.22-.16-.22-.68.05-.79l1.09-.14c1.12-.14,1.36-.43,2.26-3l4.16-12c.33-1,.22-1-.76-1H94.81a4.67,4.67,0,0,0-2.34.46,6.43,6.43,0,0,0-2.1,2.18c-.27.16-.76,0-.82-.27a43.59,43.59,0,0,0,2-4.08c.11-.16.43-.16.65-.05-.05.54.27.71,2,.71Z"/><path class="cls-1" d="M114.13,73.8a9.67,9.67,0,0,1,3.86-7,6.38,6.38,0,0,1,3.81-1.47A2.07,2.07,0,0,1,124,67.16c0,2.45-3.7,3.78-6.72,4.6a5.59,5.59,0,0,0-.25,1.77c0,1,.44,1.55,1.2,1.55,1,0,2-.57,3.21-1.71a.46.46,0,0,1,.44.54,6.3,6.3,0,0,1-5.17,2.86C114.89,76.76,114.13,75.3,114.13,73.8Zm5.31-6.45a9.28,9.28,0,0,0-2,3.48,7.17,7.17,0,0,0,3.1-1.85,3.44,3.44,0,0,0,1-2c0-.35-.16-.68-.52-.68S120.11,66.59,119.43,67.35Z"/><path class="cls-1" d="M132.52,76.38c-1.31,0-2.34,0-3.51.08-.22-.14-.22-.68.05-.79l.76-.11c1.22-.16,1.44-.46,2.29-3.1l3.21-10.12c.76-2.37.76-2.8-.63-3.08l-.71-.14a.5.5,0,0,1,.16-.79c1.31.05,2.45.08,3.67.08s2.26,0,3.67-.08c.22.16.22.68-.05.79l-.76.11c-1.33.19-1.52.46-2.34,3.1l-3,9.58c-.44,1.36-.63,2.2-.41,2.72s.79.68,2.48.68c2.75,0,3.81-.16,5.74-3a.65.65,0,0,1,.87.16,18.4,18.4,0,0,1-1.93,3.95c-.9,0-2-.05-3.1-.05s-2.26,0-3.29,0Z"/><path class="cls-1" d="M154.39,64.85a1.36,1.36,0,0,1,.54-.11c.52,0,1.28.16,1.52.65-.76,1.77-2.5,6.26-3.51,9.09-.14.35,0,.49.14.49a6.17,6.17,0,0,0,2.72-1.77.46.46,0,0,1,.44.52c-1.2,1.52-3.32,3-5.06,3a.87.87,0,0,1-.9-.87,2.89,2.89,0,0,1,.27-1.12l1-2.58h-.08c-1.9,2.58-4.62,4.57-6.2,4.57a1.54,1.54,0,0,1-1.47-1.63c0-1.06,1.09-3.81,3.18-6.18a12.5,12.5,0,0,1,3.4-2.69,4.37,4.37,0,0,1,2.12-.6,1.69,1.69,0,0,1,.63.19,2.39,2.39,0,0,1,.57.52ZM149.88,68a12.58,12.58,0,0,0-3,6.53c0,.3.11.54.33.54.44,0,1.61-1,2.78-2.18a15,15,0,0,0,3-5.11,1.22,1.22,0,0,0-1.2-1C151.18,66.81,150.75,67.05,149.88,68Z"/><path class="cls-1" d="M160.9,72.49a7,7,0,0,0-.6,2.07.44.44,0,0,0,.43.49c.73,0,2-1.28,2.83-2.37a13.87,13.87,0,0,0,2.56-5.47c.33-1.39,1-1.88,1.8-1.88s1.2.44,1.2,1a5.66,5.66,0,0,1-.92,2.37,12.56,12.56,0,0,0-1.47,5.11c0,.71.22,1.2.82,1.2.76,0,2-.87,3-2.39a9,9,0,0,0,1.28-4.14,7.24,7.24,0,0,0-.22-1.88A1.42,1.42,0,0,1,173,65.28a1.57,1.57,0,0,1,1.42,1.82c-.05,1.69-1,4-3.16,6.42-2,2.26-4.24,3.24-5.39,3.24a1.7,1.7,0,0,1-1.58-1.63,10.74,10.74,0,0,1,.49-2.31l-.05-.05a17.61,17.61,0,0,1-1.63,1.79c-1.12,1.09-2.72,2.2-4,2.2a1.63,1.63,0,0,1-1.52-1.52,6.76,6.76,0,0,1,.54-2.2l1.85-4.9c.27-.71.25-1-.05-1-.54,0-1.69,1-2.39,1.74a.48.48,0,0,1-.49-.44c.82-1.31,2.83-3.18,4.84-3.18A1.22,1.22,0,0,1,163,66.37a4,4,0,0,1-.27,1.33Z"/><path class="cls-1" d="M180.54,75.57c1.22-.16,1.52-.46,2.34-3.1L186,62.35c.73-2.37.76-2.83-.57-3.13l-.6-.14a.45.45,0,0,1,.16-.73c.54,0,1.09.05,1.66.05s1.2,0,1.82,0h5.31c1.71,0,3.16,0,3.75-.08-.19.46-.84,2.5-1.22,3.95-.11.22-.76.27-.87,0,.11-1.17.11-2-.49-2.31a5.15,5.15,0,0,0-2.61-.49h-1.71c-.71,0-.76.08-1,1L187.91,66c-.19.62-.16.71.46.71h1.82c2,0,2.48-.19,3.13-1.39l.41-.76a.66.66,0,0,1,.87.05c-.27.63-.65,1.71-1,2.72s-.57,2-.79,2.77a.66.66,0,0,1-.87,0l.08-.84c.11-1.06-.35-1.33-2.18-1.33H188c-.63,0-.73.05-1,.79l-1.14,3.75c-.73,2.37-.82,2.94.57,3.1l1,.11a.58.58,0,0,1-.16.79c-1.55-.05-2.75-.08-4-.08s-2.26,0-3.65.08a.52.52,0,0,1,.05-.79Z"/><path class="cls-1" d="M197.92,74.34c-.11.27-.14.52.08.52A7.26,7.26,0,0,0,200.73,73a.46.46,0,0,1,.46.54c-.76,1.14-3.37,3.24-5.44,3.24a1.07,1.07,0,0,1-.87-.84,2.63,2.63,0,0,1,.25-1.06l3-7.16c.11-.27.11-.44-.05-.44a6.82,6.82,0,0,0-2.34,1.47.43.43,0,0,1-.38-.54c1.47-1.71,3.78-2.91,5-2.91a1,1,0,0,1,.9.76,2.28,2.28,0,0,1-.3,1.17Zm1.31-12.76A1.82,1.82,0,0,1,201,59.71,1.14,1.14,0,0,1,202.25,61a1.82,1.82,0,0,1-1.77,1.88A1.21,1.21,0,0,1,199.23,61.58Z"/><path class="cls-1" d="M207,68.11l-1,2.8h.16A30.22,30.22,0,0,1,208.59,67c.87-1.09,1.6-1.74,2.42-1.74s1.25.76,1.25,1.52S211.64,69,210.79,69c-.33,0-.44-.3-.54-.79s-.27-.82-.54-.82-1,.6-1.85,2.09a61.44,61.44,0,0,0-3.26,6.86c-.14.33-.49.44-.92.44s-1.5-.16-1.25-.92c.6-1.77,2-5.55,2.72-8,.14-.43.11-.71-.16-.71-.6,0-1.47.76-2.12,1.52a.44.44,0,0,1-.44-.54c.71-1.22,2.07-2.8,3.75-2.8C207.64,65.28,207.39,66.86,207,68.11Z"/><path class="cls-1" d="M217.59,66.7l-1.58,4h.05c1.71-2.64,4.14-5.44,6.23-5.44,1.66,0,1.58,1.52,1.36,2.37-.16.57-.79,2.15-1.22,3.18h.05c2.2-3.56,4.41-5.55,6.31-5.55a1.51,1.51,0,0,1,1.69,1.58A7.14,7.14,0,0,1,230,69c-.49,1.33-1.8,4.3-2.26,5.39-.14.33-.14.54.08.54a5.91,5.91,0,0,0,2.5-1.85c.33-.05.49.16.49.49a6.64,6.64,0,0,1-5.22,3.24,1,1,0,0,1-1-.87,5,5,0,0,1,.54-1.61c.71-1.63,1.63-3.84,2.29-5.5a5.28,5.28,0,0,0,.44-1.6c0-.27-.05-.49-.41-.49-.52,0-1.52.79-2.83,2.45a47.74,47.74,0,0,0-4.08,7.13.79.79,0,0,1-.84.49c-.76,0-1.58-.16-1.36-.82.05-.16,2.18-5.71,2.77-7.16a5.4,5.4,0,0,0,.49-1.55c0-.33-.11-.54-.41-.54-.6,0-1.66.76-3,2.5a40.77,40.77,0,0,0-3.92,7.07.73.73,0,0,1-.82.49c-.82,0-1.55-.16-1.36-.82.08-.27,2.61-7.21,2.86-8s.19-.92-.19-.92c-.87,0-1.74.87-2.29,1.52a.49.49,0,0,1-.49-.49,5.13,5.13,0,0,1,4.73-2.8C217.7,65.28,217.84,66.07,217.59,66.7Z"/><path class="cls-1" d="M240.85,67.11A5.88,5.88,0,0,1,245,65.28c2.42,0,3.37,1.66,3.35,3.7a8.9,8.9,0,0,1-2.67,5.9,5.89,5.89,0,0,1-4.3,1.88A3.19,3.19,0,0,1,238,73.2,9.52,9.52,0,0,1,240.85,67.11Zm2.69,7.07a15.17,15.17,0,0,0,2.29-6.45c0-.73-.11-1.47-.87-1.47-.49,0-1.06.3-1.77,1.2a14.14,14.14,0,0,0-2.69,6.91c0,.82.35,1.41,1,1.41S242.73,75.35,243.55,74.18Z"/><path class="cls-1" d="M254.89,66.86c-.93,2.72-2.12,7.67-3,10.34a12.65,12.65,0,0,1-2.15,4.62A5.76,5.76,0,0,1,246,83.7c-1.52,0-2.5-.87-2.5-1.82a1.54,1.54,0,0,1,1.36-1.41.88.88,0,0,1,.82.54c.54,1,1.14,1.5,1.61,1.5s.79-.43,1.33-2.31c.92-3.26,2.23-8.54,3.59-13.33h-2.42a.88.88,0,0,1,.33-1.2h2.42a19.9,19.9,0,0,1,2.34-5.58c1.36-2,3.07-3.16,5.06-3.16A2.33,2.33,0,0,1,262.48,59,1.69,1.69,0,0,1,261,60.6c-.38,0-.54-.16-.6-.54-.22-1.58-.87-2.15-1.47-2.15-.41,0-.93.35-1.63,1.77a34.4,34.4,0,0,0-2.1,6h3.24a.9.9,0,0,1-.33,1.2Z"/><path class="cls-1" d="M267.54,74.13a20.24,20.24,0,0,1-1.82,4.41,6.48,6.48,0,0,1-5.88,3.35c-1,0-2-.27-2-1a1.8,1.8,0,0,1,.49-1.06,1.17,1.17,0,0,1,.79-.44,2.18,2.18,0,0,1,1.2.54c.44.33.73.6,1.17.6.65,0,1.14-1,1.63-2.29.19-.46.9-2.48,1.77-5.3l3.29-10.61c.73-2.37.79-3-.65-3.13l-1-.11a.59.59,0,0,1,.16-.76c1.63.05,2.75.08,4.08.08s2.39,0,3.4-.08c.22.16.22.65-.05.76l-.6.08c-1.22.16-1.55.52-2.37,3.16Z"/><path class="cls-1" d="M280.66,64.85a1.36,1.36,0,0,1,.54-.11c.52,0,1.28.16,1.52.65-.76,1.77-2.5,6.26-3.51,9.09-.14.35,0,.49.13.49a6.17,6.17,0,0,0,2.72-1.77.45.45,0,0,1,.44.52c-1.2,1.52-3.32,3-5.06,3a.87.87,0,0,1-.9-.87,2.89,2.89,0,0,1,.27-1.12l1-2.58h-.08c-1.9,2.58-4.62,4.57-6.2,4.57A1.54,1.54,0,0,1,270,75.13c0-1.06,1.09-3.81,3.18-6.18a12.52,12.52,0,0,1,3.4-2.69,4.36,4.36,0,0,1,2.12-.6,1.68,1.68,0,0,1,.62.19,2.4,2.4,0,0,1,.57.52ZM276.14,68a12.57,12.57,0,0,0-3,6.53c0,.3.11.54.33.54.44,0,1.61-1,2.78-2.18a14.94,14.94,0,0,0,3-5.11,1.22,1.22,0,0,0-1.2-1C277.45,66.81,277,67.05,276.14,68Z"/><path class="cls-1" d="M295.48,66.81A7.27,7.27,0,0,1,295,69c-.49,1.33-1.8,4.3-2.23,5.39-.14.33-.16.54.05.54a6.26,6.26,0,0,0,2.5-1.85c.33-.05.49.16.49.49a6.9,6.9,0,0,1-5.22,3.24,1,1,0,0,1-.92-.87,4.38,4.38,0,0,1,.49-1.61c.71-1.63,1.63-3.89,2.29-5.5a5.22,5.22,0,0,0,.43-1.63c0-.25-.05-.46-.38-.46s-1.63.84-2.88,2.42a40.68,40.68,0,0,0-4.14,7.21.92.92,0,0,1-.92.44c-.49,0-1.44-.16-1.2-.92.11-.35,2.61-7.1,2.88-7.86.16-.43.22-.82-.11-.82a5,5,0,0,0-2.34,1.41.43.43,0,0,1-.44-.43A6.23,6.23,0,0,1,288,65.28c1,0,1.06.82.82,1.42l-1.66,4.22h.11c1.71-2.42,4.22-5.63,6.56-5.63A1.46,1.46,0,0,1,295.48,66.81Z"/><path class="cls-1" d="M296.63,73.8a9.67,9.67,0,0,1,3.86-7,6.38,6.38,0,0,1,3.81-1.47,2.07,2.07,0,0,1,2.18,1.88c0,2.45-3.7,3.78-6.72,4.6a5.6,5.6,0,0,0-.25,1.77c0,1,.44,1.55,1.2,1.55,1,0,2-.57,3.21-1.71a.46.46,0,0,1,.43.54,6.3,6.3,0,0,1-5.17,2.86C297.39,76.76,296.63,75.3,296.63,73.8Zm5.31-6.45a9.27,9.27,0,0,0-2,3.48,7.17,7.17,0,0,0,3.1-1.85,3.44,3.44,0,0,0,1-2c0-.35-.16-.68-.52-.68S302.61,66.59,301.93,67.35Z"/><path class="cls-1" d="M312,67l-2.45,7q-.24.65.16.65a8.53,8.53,0,0,0,3-2.29.46.46,0,0,1,.44.6c-1.2,1.8-3.86,3.73-5.61,3.73a1,1,0,0,1-1-.92,4.61,4.61,0,0,1,.33-1.5l2.5-7.32h-2.07a.71.71,0,0,1,.27-.87l2.29-.44,1.74-2.64a1.16,1.16,0,0,1,.65-.14,1,1,0,0,1,.87.35l-.76,2.53h2.72a.86.86,0,0,1-.22,1.2Z"/><path class="cls-1" d="M312.79,79.49a.56.56,0,0,1-.27-.76c1.2-.44,2.67-1.47,2.67-2.78a1.27,1.27,0,0,0-.87-1.2.87.87,0,0,1-.49-.82,1.5,1.5,0,0,1,1.52-1.42,2.36,2.36,0,0,1,2.18,2.56C317.52,77.2,315.24,78.83,312.79,79.49Z"/><path class="cls-1" d="M331.56,74.13a20.29,20.29,0,0,1-1.82,4.41,6.48,6.48,0,0,1-5.88,3.35c-1,0-2-.27-2-1a1.8,1.8,0,0,1,.49-1.06,1.17,1.17,0,0,1,.79-.44,2.18,2.18,0,0,1,1.2.54c.44.33.74.6,1.17.6.65,0,1.14-1,1.63-2.29.19-.46.9-2.48,1.77-5.3l3.29-10.61c.73-2.37.79-3-.65-3.13l-1-.11a.59.59,0,0,1,.16-.76c1.63.05,2.75.08,4.08.08s2.39,0,3.4-.08c.22.16.22.65-.05.76l-.6.08c-1.22.16-1.55.52-2.37,3.16Z"/><path class="cls-1" d="M334.69,73.8a9.67,9.67,0,0,1,3.86-7,6.38,6.38,0,0,1,3.81-1.47,2.07,2.07,0,0,1,2.18,1.88c0,2.45-3.7,3.78-6.72,4.6a5.6,5.6,0,0,0-.25,1.77c0,1,.44,1.55,1.2,1.55,1,0,2-.57,3.21-1.71a.46.46,0,0,1,.43.54,6.3,6.3,0,0,1-5.17,2.86C335.45,76.76,334.69,75.3,334.69,73.8ZM340,67.35a9.27,9.27,0,0,0-2,3.48,7.17,7.17,0,0,0,3.1-1.85,3.44,3.44,0,0,0,1-2c0-.35-.16-.68-.52-.68S340.67,66.59,340,67.35Z"/><path class="cls-1" d="M356.78,66.81a7.24,7.24,0,0,1-.49,2.15c-.49,1.33-1.8,4.3-2.23,5.39-.13.33-.16.54.05.54a6.25,6.25,0,0,0,2.5-1.85c.33-.05.49.16.49.49a6.89,6.89,0,0,1-5.22,3.24,1,1,0,0,1-.93-.87,4.39,4.39,0,0,1,.49-1.61c.71-1.63,1.63-3.89,2.29-5.5a5.23,5.23,0,0,0,.44-1.63c0-.25-.05-.46-.38-.46s-1.63.84-2.88,2.42a40.74,40.74,0,0,0-4.14,7.21.92.92,0,0,1-.92.44c-.49,0-1.44-.16-1.2-.92.11-.35,2.61-7.1,2.88-7.86.16-.43.22-.82-.11-.82a5,5,0,0,0-2.34,1.41.43.43,0,0,1-.43-.43,6.23,6.23,0,0,1,4.68-2.86c1,0,1.06.82.82,1.42l-1.66,4.22h.11c1.71-2.42,4.22-5.63,6.56-5.63A1.46,1.46,0,0,1,356.78,66.81Z"/><path class="cls-1" d="M370.49,66.81A7.24,7.24,0,0,1,370,69c-.49,1.33-1.79,4.3-2.23,5.39-.14.33-.16.54.05.54a6.26,6.26,0,0,0,2.5-1.85c.33-.05.49.16.49.49a6.9,6.9,0,0,1-5.22,3.24,1,1,0,0,1-.92-.87,4.38,4.38,0,0,1,.49-1.61c.71-1.63,1.63-3.89,2.29-5.5a5.25,5.25,0,0,0,.43-1.63c0-.25-.05-.46-.38-.46s-1.63.84-2.88,2.42a40.67,40.67,0,0,0-4.13,7.21.92.92,0,0,1-.93.44c-.49,0-1.44-.16-1.2-.92.11-.35,2.61-7.1,2.88-7.86.16-.43.22-.82-.11-.82a5,5,0,0,0-2.34,1.41.43.43,0,0,1-.44-.43A6.23,6.23,0,0,1,363,65.28c1,0,1.06.82.82,1.42l-1.66,4.22h.11c1.71-2.42,4.22-5.63,6.56-5.63A1.46,1.46,0,0,1,370.49,66.81Z"/><path class="cls-1" d="M371.63,73.8a9.67,9.67,0,0,1,3.86-7,6.38,6.38,0,0,1,3.81-1.47,2.07,2.07,0,0,1,2.18,1.88c0,2.45-3.7,3.78-6.72,4.6a5.57,5.57,0,0,0-.25,1.77c0,1,.44,1.55,1.2,1.55,1,0,2-.57,3.21-1.71a.46.46,0,0,1,.44.54,6.31,6.31,0,0,1-5.17,2.86C372.4,76.76,371.63,75.3,371.63,73.8Zm5.3-6.45a9.3,9.3,0,0,0-2,3.48,7.16,7.16,0,0,0,3.1-1.85,3.43,3.43,0,0,0,1-2c0-.35-.16-.68-.52-.68S377.62,66.59,376.94,67.35Z"/><path class="cls-1" d="M386.24,68.11l-1,2.8h.16A30.22,30.22,0,0,1,387.88,67c.87-1.09,1.6-1.74,2.42-1.74s1.25.76,1.25,1.52S390.92,69,390.08,69c-.33,0-.44-.3-.54-.79s-.27-.82-.54-.82-1,.6-1.85,2.09a61.27,61.27,0,0,0-3.26,6.86c-.14.33-.49.44-.92.44s-1.5-.16-1.25-.92c.6-1.77,2-5.55,2.72-8,.14-.43.11-.71-.16-.71-.6,0-1.47.76-2.12,1.52a.44.44,0,0,1-.43-.54c.71-1.22,2.07-2.8,3.75-2.8C386.92,65.28,386.68,66.86,386.24,68.11Z"/><path class="cls-1" d="M406.59,64.47A23.36,23.36,0,0,0,410,60.88a4.64,4.64,0,0,0,.93-2.18,1.07,1.07,0,0,0-.3-.79,1.18,1.18,0,0,1-.3-.79,1.33,1.33,0,0,1,1.39-1.41,1.53,1.53,0,0,1,1.5,1.74c0,1.47-1,3.1-3.59,5.6a117,117,0,0,1-9.09,7.45,4.39,4.39,0,0,0,4.46,4,7.32,7.32,0,0,0,6.2-3.75,8.47,8.47,0,0,0,1.42-4.84,2.14,2.14,0,0,0-1.58-.65,1.63,1.63,0,0,0-1.58,1.41,2.91,2.91,0,0,0,.33,1,2,2,0,0,1,.22.76,1,1,0,0,1-1.12.93A1.22,1.22,0,0,1,407.68,68a4.57,4.57,0,0,1,1.91-3.16,4.68,4.68,0,0,1,2.67-1.14c1.52,0,2.45.92,3.62,2.09.68.68.79.79,1.12.79s.49-.27.49-.71a2.91,2.91,0,0,0-.16-.76,1.92,1.92,0,0,1-.11-.54.92.92,0,0,1,.92-.82c.87,0,1.31.76,1.31,1.74a2.52,2.52,0,0,1-.63,1.5,1.12,1.12,0,0,1-.65.3,7.4,7.4,0,0,0-2.31.87.4.4,0,0,1-.62-.11,9,9,0,0,0-1.71-1.69c0,.49,0,1.36-.05,1.9A9.82,9.82,0,0,1,404,76.76c-4.24,0-5.88-2.72-5.88-5.44a8.3,8.3,0,0,1,2.42-5.79,6.5,6.5,0,0,1,4.27-2.26A1.71,1.71,0,0,1,406.59,64.47Zm-3.1.16a2.86,2.86,0,0,0-1.9,1.41,7.07,7.07,0,0,0-1.09,3.32c1.41-1.14,3-2.34,3.75-3.1a1,1,0,0,0,.16-.71A.89.89,0,0,0,403.49,64.63Z"/><path class="cls-1" d="M424.25,74.72a10.2,10.2,0,0,1,.11-3.67.7.7,0,0,1,.84.05,7.65,7.65,0,0,0,1,2.83,3.79,3.79,0,0,0,3.35,1.82,3.44,3.44,0,0,0,3.59-3.51c0-1.74-1.33-3.1-2.86-4.22a6,6,0,0,1-2.69-4.57c0-3.29,2.69-5.52,6.23-5.47a8.22,8.22,0,0,1,4.57,1.33,20.13,20.13,0,0,0-1,3.37.61.61,0,0,1-.87-.11c.22-1.77-.41-3.54-3-3.54a3.13,3.13,0,0,0-3.32,3.13c0,1.8,1.74,3.08,2.64,3.73,1.77,1.25,3.1,2.8,3.1,5.22,0,3.26-2.53,5.69-6.75,5.69C426.78,76.82,424.77,75.89,424.25,74.72Z"/><path class="cls-1" d="M440,68c.16-.44.14-.71-.08-.71-.54,0-1.77,1.06-2.5,1.82-.27-.05-.49-.22-.43-.54.87-1.25,3.18-3.24,5.17-3.24a1.06,1.06,0,0,1,1,1A2.81,2.81,0,0,1,443,67l-2.8,7c-.19.49-.08.76.19.76s1-.57,2-1.47c2.26-2.18,4.05-5.69,5.11-7.89a2.37,2.37,0,0,1,.82-.11,1.72,1.72,0,0,1,1.36.54c-.68,1.77-2.12,5.33-3.21,8.3-.16.43-.14.73.14.73.49,0,1.9-1.2,2.61-2a.43.43,0,0,1,.49.49c-.76,1.33-3.37,3.4-5.28,3.4a.86.86,0,0,1-.82-1.2l1.69-4.38h-.05c-1.71,2.29-4.9,5.58-6.69,5.58a1.32,1.32,0,0,1-1.3-1.31,3.92,3.92,0,0,1,.33-1.33Z"/><path class="cls-1" d="M447.62,81.09c0-2.07,3.16-3.24,4.65-3.67-.68-.44-1-.79-1-1.36s1-1.63,1.5-2.12a2.75,2.75,0,0,1-2.2-2.8,6.23,6.23,0,0,1,2.26-4.38,6,6,0,0,1,4-1.47,3,3,0,0,1,1.14.25,3.29,3.29,0,0,0,.9.35,5.59,5.59,0,0,0,1.2-.16,7.56,7.56,0,0,1,1.25-.27c.43,0,.76.27.76.92s-.49,1-.76,1a2.87,2.87,0,0,1-.82-.14,3.72,3.72,0,0,0-.87-.16.23.23,0,0,0-.22.19,4.75,4.75,0,0,1,.16.9,6.16,6.16,0,0,1-3.75,5.36,7.23,7.23,0,0,1-2,.52,1.17,1.17,0,0,0-.49.82c0,.3.52.84,1.41,1.33.71.38,1.71.92,2.59,1.47,1.3.84,1.85,1.69,1.85,2.72,0,2.15-3.51,3.37-6.83,3.37C450.4,83.7,447.62,83,447.62,81.09ZM456.9,81q0-.9-1.31-1.8a7.54,7.54,0,0,0-2.34-1.2,4.47,4.47,0,0,0-1.82.79,2.37,2.37,0,0,0-1.14,1.77c0,1.28,1.66,2,3.45,2C455.16,82.64,456.9,82.1,456.9,81Zm-.27-14.77c-.43,0-1,.33-1.69,1.17a9.72,9.72,0,0,0-2.07,4.68.82.82,0,0,0,.82.9c.49,0,1.14-.54,1.88-1.55a10.2,10.2,0,0,0,1.82-4.24A.87.87,0,0,0,456.62,66.26Z"/><path class="cls-1" d="M458.07,81.09c0-2.07,3.16-3.24,4.65-3.67-.68-.44-1-.79-1-1.36s1-1.63,1.5-2.12a2.75,2.75,0,0,1-2.2-2.8,6.23,6.23,0,0,1,2.26-4.38,6,6,0,0,1,4-1.47,3,3,0,0,1,1.14.25,3.3,3.3,0,0,0,.9.35,5.58,5.58,0,0,0,1.2-.16,7.58,7.58,0,0,1,1.25-.27c.44,0,.76.27.76.92s-.49,1-.76,1a2.87,2.87,0,0,1-.82-.14,3.7,3.7,0,0,0-.87-.16.23.23,0,0,0-.22.19,4.75,4.75,0,0,1,.16.9,6.16,6.16,0,0,1-3.76,5.36,7.22,7.22,0,0,1-2,.52,1.17,1.17,0,0,0-.49.82c0,.3.52.84,1.41,1.33.71.38,1.71.92,2.58,1.47,1.31.84,1.85,1.69,1.85,2.72,0,2.15-3.51,3.37-6.83,3.37C460.84,83.7,458.07,83,458.07,81.09Zm9.28-.05q0-.9-1.31-1.8A7.55,7.55,0,0,0,463.7,78a4.46,4.46,0,0,0-1.82.79,2.36,2.36,0,0,0-1.14,1.77c0,1.28,1.66,2,3.46,2C465.6,82.64,467.34,82.1,467.34,81Zm-.27-14.77c-.43,0-1,.33-1.69,1.17a9.72,9.72,0,0,0-2.07,4.68.82.82,0,0,0,.82.9c.49,0,1.14-.54,1.88-1.55a10.21,10.21,0,0,0,1.82-4.24A.87.87,0,0,0,467.07,66.26Z"/><path class="cls-1" d="M470.06,75c0-.6.44-1.31,1-1.31a.87.87,0,0,1,.6.38,2.92,2.92,0,0,0,2.07,1.22,1,1,0,0,0,1.09-1,4.84,4.84,0,0,0-1.36-2.5,4.63,4.63,0,0,1-1.14-2.58,3.82,3.82,0,0,1,1.58-2.91,4.14,4.14,0,0,1,2.45-1,2.07,2.07,0,0,1,2.18,1.88,1.13,1.13,0,0,1-.87,1.14.72.72,0,0,1-.6-.33c-.76-.87-1.2-1.17-1.91-1.17a.88.88,0,0,0-.92.84c0,.9.9,1.69,1.39,2.34a4.39,4.39,0,0,1,1.17,2.88,3.82,3.82,0,0,1-1.52,2.8,4.79,4.79,0,0,1-3,1.09A2.06,2.06,0,0,1,470.06,75Z"/><path class="cls-1" d="M477.3,79.49a.56.56,0,0,1-.27-.76c1.2-.44,2.67-1.47,2.67-2.78a1.27,1.27,0,0,0-.87-1.2.87.87,0,0,1-.49-.82,1.5,1.5,0,0,1,1.52-1.42A2.36,2.36,0,0,1,482,75.08C482,77.2,479.75,78.83,477.3,79.49Z"/><path class="cls-1" d="M492.91,76.38c-1.06,0-1.89,0-2.84.07-.18-.11-.18-.55,0-.64l.62-.09c1-.13,1.17-.37,1.85-2.51l2.6-8.19c.62-1.91.62-2.27-.51-2.49l-.57-.11a.4.4,0,0,1,.13-.64c1.06,0,2,.07,3,.07s1.83,0,3-.07c.18.13.18.55,0,.64l-.62.09c-1.08.15-1.23.37-1.89,2.51l-2.44,7.75a3.75,3.75,0,0,0-.33,2.2c.18.42.64.55,2,.55,2.22,0,3.08-.13,4.64-2.4a.53.53,0,0,1,.7.13,14.87,14.87,0,0,1-1.56,3.19c-.73,0-1.61,0-2.51,0s-1.83,0-2.66,0Z"/><path class="cls-1" d="M504.75,76.38c-1.06,0-1.89,0-2.84.07-.18-.11-.18-.55,0-.64l.62-.09c1-.13,1.17-.37,1.85-2.51L507,65c.62-1.91.62-2.27-.51-2.49l-.57-.11a.4.4,0,0,1,.13-.64c1.06,0,2,.07,3,.07s1.83,0,3-.07c.18.13.18.55,0,.64l-.62.09c-1.08.15-1.23.37-1.89,2.51L507,72.78a3.76,3.76,0,0,0-.33,2.2c.18.42.64.55,2,.55,2.22,0,3.08-.13,4.64-2.4a.53.53,0,0,1,.71.13,14.9,14.9,0,0,1-1.56,3.19c-.73,0-1.61,0-2.51,0s-1.83,0-2.66,0Z"/><path class="cls-1" d="M528.93,62.26a20,20,0,0,0-1,3.19c-.13.18-.66.18-.71,0,.26-2.07-.48-3-2.51-3A7,7,0,0,0,519.49,65a10,10,0,0,0-2.31,6.2c0,3.32,1.65,4.69,3.83,4.69s3.41-1.23,4.71-3.08a.5.5,0,0,1,.66.11,20.89,20.89,0,0,1-1.5,3.3c-.46,0-1,.2-1.72.31a12.81,12.81,0,0,1-2.2.22c-3.78,0-6.49-2-6.47-5.76a9.43,9.43,0,0,1,3.17-6.86,10.83,10.83,0,0,1,7.24-2.6A12.77,12.77,0,0,1,528.93,62.26Z"/><path class="cls-1" d="M540.49,39.51a1.47,1.47,0,0,0-1.66-1.37c-.57,0-1.53.16-1.53,1.18,0,.57.4.76.79.85l1.92.44a1.74,1.74,0,0,1,1.52,1.8c0,1.59-1.48,2-2.63,2a2.67,2.67,0,0,1-2-.65,2.07,2.07,0,0,1-.68-1.7H537c0,1.22,1,1.57,1.85,1.57.65,0,1.76-.17,1.76-1.13,0-.7-.33-.93-1.43-1.19L537.85,41a1.62,1.62,0,0,1-1.43-1.58,2.06,2.06,0,0,1,2.31-2.08c2.35,0,2.58,1.4,2.62,2.14Z"/><path class="cls-1" d="M548.21,44.26v-4c0-.2,0-1,0-1.67h0l-1.89,5.64h-.9l-1.89-5.63h0c0,.62,0,1.47,0,1.66v4h-.88V37.55H544l1.92,5.68h0l1.91-5.68h1.29v6.72Z"/></g></g></svg>