<svg id="Layer_1" xmlns="http://www.w3.org/2000/svg" viewBox="0 0 666.1 105.3"><style>.st0{fill:#FFFFFF;}</style><path class="st0" d="M137.5 22.4c1-.2 2-.4 2.9-.5.9-.1 1.7-.3 2.4-.4.7-.1 1.3-.1 1.8-.2.5 0 .8-.1.9-.1.6 0 .9.3.9 1v31c0 2.7-.1 5.1-.4 7.1-.3 2.1-.8 3.9-1.6 5.5s-1.9 3-3.3 4.2c-1.4 1.2-3.2 2.3-5.5 3.4l-.8-2c1.6-1 2.8-2 3.7-3.1.9-1.1 1.5-2.4 1.9-3.8.4-1.4.6-3 .7-4.7.1-1.7.1-3.6.1-5.7V27c0-.6 0-1.1-.2-1.4-.1-.4-.3-.7-.5-.9-.2-.2-.4-.4-.7-.4-.3-.1-.6-.1-.9-.1-.4 0-.8 0-1.2.1l-.2-1.9zM152.8 37.5c1-.4 1.9-.8 2.9-1.2 1-.3 1.8-.6 2.7-.8.8-.2 1.6-.4 2.3-.5.7-.1 1.3-.2 1.7-.2 1.4 0 2.5.2 3.4.5.9.3 1.7.9 2.2 1.7.6.8 1 1.7 1.2 2.9.2 1.2.4 2.6.3 4.2l-.1 10.3c0 .7 0 1.3.1 1.8.1.6.2 1.1.3 1.7v.3c0 .3-.2.5-.6.6-.2.1-.5.1-.8.2-.3.1-.6.1-.9.1-.3 0-.6.1-1 .1h-.8c-.2 0-.4-.1-.5-.2-.1-.1-.2-.3-.2-.6l-.4-1.5c-.7.4-1.5.7-2.2 1-.8.3-1.5.6-2.2.8-.7.2-1.3.4-1.9.5-.6.1-1 .2-1.4.2-1 0-1.9-.2-2.6-.6-.7-.4-1.3-.9-1.8-1.6-.5-.6-.8-1.3-1-2.1-.2-.8-.3-1.5-.3-2.1 0-1.2.2-2.2.6-3.1.4-.8.9-1.5 1.6-2.1.6-.5 1.3-.9 2-1.2.8-.3 1.6-.6 2.6-.7.9-.2 2-.3 3.1-.4 1.1-.1 2.2-.1 3.4-.2v-1.1c0-1 0-1.8-.2-2.6-.1-.8-.3-1.4-.7-2-.3-.5-.8-.9-1.3-1.2-.5-.3-1.2-.4-2.1-.4-1 0-2.1.1-3.2.4-1.1.3-2.4.6-3.8 1.1l-.4-2zm11.7 10c-.9.1-1.7.1-2.5.2s-1.5.1-2.1.2c-.6.1-1.2.3-1.7.5s-.9.5-1.2.9c-.2.3-.4.7-.6 1.1-.2.4-.2.9-.2 1.5 0 .4.1.9.2 1.4.1.5.3.9.6 1.3s.7.7 1.3 1c.5.3 1.2.4 2 .4.1 0 .3 0 .6-.1.3 0 .6-.1.9-.2.4-.1.8-.2 1.2-.4.5-.2.9-.4 1.4-.6l.1-7.2zM173 36.8c1-.3 2-.6 2.8-.8.9-.2 1.6-.4 2.3-.6.7-.1 1.2-.3 1.6-.3.4-.1.7-.1.8-.1.6 0 .9.4.9 1.1l.1 1.3c.9-.4 1.7-.7 2.6-1 .9-.3 1.7-.6 2.5-.8.8-.2 1.5-.4 2.2-.6.7-.1 1.2-.2 1.7-.2 1.1 0 2 .2 2.8.6.8.4 1.4.9 1.9 1.6.5.7.8 1.5 1.1 2.5.2 1 .3 2 .3 3.2l-.1 15.3c0 .5-.2.8-.7.9-.3.1-.6.1-1 .2s-.7.1-1.1.1c-.4 0-.7.1-1 .1h-.6c-.5 0-.7-.3-.7-.8l.1-12.6v-.5c0-1.1-.1-2.1-.2-3-.2-.9-.4-1.6-.8-2.2-.4-.6-.9-1-1.5-1.3-.6-.3-1.4-.4-2.3-.4-.3 0-1 .1-1.9.3-.9.2-2 .6-3.3 1.2v18c0 .5-.2.8-.7.9-.3.1-.6.1-1 .2s-.7.1-1.1.1c-.3 0-.7.1-1 .1h-.6c-.5 0-.7-.3-.7-.8V41.1c0-1.1-.2-1.9-.5-2.3-.3-.4-.8-.6-1.5-.6h-.6c-.2 0-.4 0-.7.1l-.1-1.5zM220.9 56.1c-.9.5-1.9.9-2.9 1.3s-2 .8-2.9 1.1c-.9.3-1.8.5-2.7.7-.8.2-1.5.2-2.1.2-1.5 0-2.9-.3-4.1-1-1.2-.6-2.2-1.5-3-2.6-.8-1.1-1.4-2.3-1.8-3.7-.4-1.4-.6-2.8-.6-4.3 0-2 .3-3.7 1-5.3.6-1.6 1.5-3 2.6-4.1 1.1-1.1 2.4-2 3.9-2.6 1.5-.6 3-.9 4.7-.9 1.1 0 2 .2 2.9.6.8.4 1.5.9 2.1 1.5.6.6 1 1.4 1.3 2.3.3.9.5 1.9.5 3 0 .9-.2 2.1-.5 3.5l-13.3.8c.1 1.3.3 2.6.7 3.7.4 1.1 1 2.1 1.7 2.9.7.8 1.6 1.4 2.7 1.9 1 .4 2.2.7 3.6.7.9 0 1.9-.1 2.9-.4 1-.2 2-.5 2.8-.9l.5 1.6zm-6.3-12.2c.1-.3.1-.6.1-.9v-.9c0-.6-.1-1.2-.2-1.7-.2-.5-.4-1-.7-1.4-.3-.4-.7-.7-1.1-.9-.5-.2-1-.3-1.5-.3-.9 0-1.7.2-2.3.6-.6.4-1.2.9-1.6 1.5-.4.6-.7 1.3-.9 2.1-.2.8-.3 1.7-.3 2.6l8.5-.7zM221.8 36.3c.5 0 1-.1 1.6-.1.6 0 1.2-.1 1.7-.1v-4.9c0-.4 0-.8.1-1 .1-.2.2-.4.5-.5.4-.1.7-.3 1.1-.4.4-.1.8-.3 1.1-.4.4-.1.7-.2.9-.3.3-.1.5-.1.6-.1.4 0 .6.3.6.8v6.5c1.3-.1 2.4-.1 3.5-.1h2.5c.2 0 .3.1.4.2.1.1.2.3.2.5v.1l-.1 2h-6.4V52c0 1.4.3 2.4 1 3.1.7.6 1.6 1 2.7 1 .5 0 1.1-.1 1.7-.2.6-.1 1.4-.4 2.2-.7l.6 1.9c-.7.4-1.4.7-2.2 1-.7.3-1.5.6-2.1.8-.7.2-1.3.4-1.8.5-.6.1-1 .2-1.3.2-.8 0-1.6-.1-2.3-.4-.7-.3-1.3-.7-1.8-1.3-.5-.6-.9-1.3-1.2-2.2-.3-.9-.4-1.9-.4-3V38.4l-3.2.1-.2-2.2zM239.6 65.2c.9-.9 1.6-1.9 1.9-3 .4-1.1.5-2.2.5-3.3 0-.9-.1-1.8-.3-2.6-.2-.8-.4-1.5-.8-2.1-.1-.2-.1-.4 0-.5 0-.2.2-.3.4-.3l1.2-.3c.4-.1.8-.1 1.1-.2.4-.1.7-.1.9-.1h.6c.3 0 .5.1.6.2.1.1.2.3.3.6.2.4.3.9.3 1.3.1.4.1.9.1 1.4 0 1-.1 2-.4 3-.3 1-.7 1.9-1.2 2.8-.5.9-1.1 1.7-1.9 2.3-.8.7-1.6 1.3-2.6 1.7l-.7-.9zM571.2 65.2c.9-.9 1.6-1.9 2-3 .4-1.1.5-2.2.5-3.3 0-.9-.1-1.8-.3-2.6-.2-.8-.4-1.5-.8-2.1-.1-.2-.1-.4 0-.5 0-.2.2-.3.4-.3l1.2-.3c.4-.1.8-.1 1.1-.2.4-.1.7-.1.9-.1h.6c.3 0 .4.1.6.2.1.1.2.3.3.6.2.4.3.9.3 1.3.1.4.1.9.1 1.4 0 1-.1 2-.4 3-.3 1-.6 1.9-1.2 2.8-.5.9-1.1 1.7-1.9 2.3-.8.7-1.6 1.3-2.6 1.7l-.8-.9zM261.5 22.4c1-.2 2-.4 2.9-.5.9-.1 1.7-.3 2.4-.4.7-.1 1.3-.1 1.8-.2.5 0 .8-.1.9-.1.6 0 .9.3.9 1v31c0 2.7-.1 5.1-.4 7.1-.3 2.1-.8 3.9-1.6 5.5s-1.9 3-3.3 4.2c-1.4 1.2-3.2 2.3-5.5 3.4l-.8-2c1.6-1 2.8-2 3.7-3.1.9-1.1 1.5-2.4 1.9-3.8.4-1.4.6-3 .7-4.7.1-1.7.1-3.6.1-5.7V27c0-.6 0-1.1-.2-1.4-.1-.4-.3-.7-.5-.9-.2-.2-.4-.4-.7-.4-.3-.1-.6-.1-.9-.1-.4 0-.8 0-1.2.1l-.2-1.9zM295.4 56.1c-.9.5-1.9.9-2.9 1.3s-2 .8-2.9 1.1c-1 .3-1.8.5-2.7.7-.8.2-1.5.2-2 .2-1.5 0-2.9-.3-4.1-1-1.2-.6-2.2-1.5-3-2.6-.8-1.1-1.4-2.3-1.8-3.7-.4-1.4-.6-2.8-.6-4.3 0-2 .3-3.7 1-5.3.6-1.6 1.5-3 2.6-4.1 1.1-1.1 2.4-2 3.9-2.6 1.5-.6 3-.9 4.7-.9 1.1 0 2 .2 2.9.6.8.4 1.5.9 2.1 1.5.6.6 1 1.4 1.3 2.3.3.9.5 1.9.5 3 0 .9-.2 2.1-.5 3.5l-13.3.8c.1 1.3.3 2.6.7 3.7.4 1.1 1 2.1 1.7 2.9.7.8 1.6 1.4 2.7 1.9 1 .4 2.2.7 3.6.7.9 0 1.9-.1 2.9-.4 1-.2 1.9-.5 2.8-.9l.4 1.6zm-6.3-12.2c.1-.3.1-.6.1-.9v-.9c0-.6-.1-1.2-.2-1.7-.2-.5-.4-1-.7-1.4-.3-.4-.7-.7-1.1-.9-.5-.2-1-.3-1.5-.3-.9 0-1.7.2-2.3.6-.6.4-1.2.9-1.6 1.5-.4.6-.7 1.3-.9 2.1-.2.8-.3 1.7-.3 2.6l8.5-.7zM296.7 36.8c1-.3 2-.6 2.8-.8.9-.2 1.6-.4 2.3-.6.7-.1 1.2-.3 1.6-.3.4-.1.7-.1.8-.1.6 0 .9.4.9 1.1l.1 1.3c.9-.4 1.7-.7 2.6-1 .9-.3 1.7-.6 2.5-.8.8-.2 1.5-.4 2.2-.6.7-.1 1.2-.2 1.7-.2 1.1 0 2 .2 2.8.6.8.4 1.4.9 1.9 1.6.5.7.8 1.5 1.1 2.5.2 1 .3 2 .3 3.2l-.1 15.3c0 .5-.2.8-.7.9-.3.1-.6.1-1 .2s-.7.1-1.1.1c-.4 0-.7.1-1 .1h-.6c-.5 0-.7-.3-.7-.8l.1-12.6v-.5c0-1.1-.1-2.1-.2-3-.2-.9-.4-1.6-.8-2.2-.4-.6-.9-1-1.5-1.3-.6-.3-1.4-.4-2.3-.4-.3 0-1 .1-1.9.3-.9.2-2 .6-3.3 1.2v18c0 .5-.2.8-.7.9-.3.1-.6.1-1 .2s-.7.1-1.1.1c-.3 0-.7.1-1 .1h-.6c-.5 0-.7-.3-.7-.8V41.1c0-1.1-.2-1.9-.5-2.3-.3-.4-.8-.6-1.5-.6h-.6c-.2 0-.4 0-.7.1l-.1-1.5zM323.8 36.8c1-.3 2-.6 2.8-.8.9-.2 1.6-.4 2.3-.6.6-.1 1.2-.3 1.6-.3.4-.1.7-.1.8-.1.6 0 .9.4.9 1.1l.1 1.3c.9-.4 1.7-.7 2.6-1 .9-.3 1.7-.6 2.5-.8.8-.2 1.5-.4 2.2-.6.7-.1 1.2-.2 1.7-.2 1.1 0 2 .2 2.8.6.8.4 1.4.9 1.9 1.6.5.7.9 1.5 1.1 2.5.2 1 .3 2 .3 3.2l-.1 15.3c0 .5-.2.8-.7.9-.3.1-.6.1-1 .2s-.7.1-1.1.1c-.3 0-.7.1-1 .1h-.6c-.5 0-.7-.3-.7-.8l.1-12.6v-.5c0-1.1-.1-2.1-.2-3-.2-.9-.4-1.6-.8-2.2-.4-.6-.9-1-1.5-1.3-.6-.3-1.4-.4-2.3-.4-.3 0-1 .1-1.9.3-.9.2-2 .6-3.3 1.2v18c0 .5-.2.8-.7.9-.3.1-.6.1-1 .2s-.7.1-1.1.1c-.4 0-.7.1-1 .1h-.6c-.5 0-.7-.3-.7-.8V41.1c0-1.1-.2-1.9-.5-2.3-.3-.4-.8-.6-1.5-.6h-.6c-.2 0-.4 0-.7.1l-.1-1.5zM371.7 56.1c-.9.5-1.9.9-2.9 1.3s-2 .8-2.9 1.1c-.9.3-1.8.5-2.7.7-.8.2-1.5.2-2 .2-1.5 0-2.9-.3-4.1-1-1.2-.6-2.2-1.5-3-2.6-.8-1.1-1.4-2.3-1.8-3.7-.4-1.4-.6-2.8-.6-4.3 0-2 .3-3.7 1-5.3.6-1.6 1.5-3 2.6-4.1 1.1-1.1 2.4-2 3.9-2.6 1.5-.6 3-.9 4.7-.9 1.1 0 2 .2 2.9.6.8.4 1.5.9 2.1 1.5.6.6 1 1.4 1.3 2.3.3.9.5 1.9.5 3 0 .9-.2 2.1-.5 3.5l-13.3.8c.1 1.3.3 2.6.7 3.7.4 1.1 1 2.1 1.7 2.9.7.8 1.6 1.4 2.7 1.9 1 .4 2.2.7 3.6.7.9 0 1.9-.1 2.9-.4 1-.2 1.9-.5 2.8-.9l.4 1.6zm-6.3-12.2c.1-.3.1-.6.1-.9v-.9c0-.6-.1-1.2-.2-1.7-.2-.5-.4-1-.7-1.4-.3-.4-.7-.7-1.1-.9-.5-.2-1-.3-1.5-.3-.9 0-1.7.2-2.3.6-.6.4-1.2.9-1.6 1.5-.4.6-.7 1.3-.9 2.1-.2.8-.3 1.7-.3 2.6l8.5-.7zM373 36.8c1-.3 2-.6 2.8-.8.9-.2 1.6-.4 2.3-.6.7-.1 1.2-.3 1.6-.3.4-.1.7-.1.8-.1.6 0 .9.4.9 1.1v1.6c.6-.4 1.3-.8 2-1.1.7-.4 1.3-.7 2-.9.7-.3 1.3-.5 1.9-.6.6-.1 1.1-.2 1.6-.2s1 .1 1.3.3c.4.2.7.5 1 .8.3.3.5.7.6 1.1.1.4.2.9.2 1.3 0 .5-.1.9-.2 1.4-.1.4-.4.8-.7 1.2-.3.3-.7.6-1.1.8-.4.2-.9.3-1.5.3h-1.1v-.7c0-1-.2-1.7-.5-2-.3-.4-.8-.6-1.3-.6-.6 0-1.2.1-1.9.4-.7.3-1.4.6-2.1 1V58c0 .5-.2.8-.7.9-.3.1-.7.1-1 .2-.4.1-.7.1-1.1.1-.3 0-.6.1-.9.1h-.6c-.5 0-.7-.3-.7-.8V41.1c0-1.1-.2-1.9-.5-2.3-.3-.4-.8-.6-1.5-.6h-.6c-.2 0-.4 0-.7.1l-.3-1.5zM427.7 38.8l4.4-2.7c1 1.1 1.8 2.3 2.2 3.6.5 1.3.7 2.6.7 3.9 0 1.8-.3 3.4-1 5-.6 1.5-1.5 2.9-2.6 4.2l2.4 2.4c.9.8 1.7 1.7 2.6 2.6.1.1.2.3.2.5s-.1.3-.2.4c-.1.1-.3.2-.4.2-1 .2-1.9.4-2.7.4-.8.1-1.3.1-1.5.1-.2 0-.4 0-.6-.1-.2-.1-.4-.2-.6-.4-.5-.4-.9-.9-1.4-1.3-.5-.5-.9-.9-1.4-1.3-.7.5-1.4 1-2.3 1.4-.8.4-1.7.8-2.7 1.1-.9.3-1.9.5-2.9.7-1 .2-2 .2-3 .2-1.5 0-2.9-.2-4.3-.6-1.4-.4-2.5-1-3.5-1.8s-1.8-1.8-2.4-3.1c-.6-1.2-.9-2.7-.9-4.4 0-1.3.2-2.4.5-3.4s.8-1.8 1.4-2.7c.6-.8 1.3-1.6 2.2-2.3.8-.7 1.7-1.4 2.7-2.2-1-1.6-1.8-3-2.2-4.4-.4-1.3-.6-2.6-.6-4 0-1.7.3-3.2.9-4.5.6-1.2 1.4-2.3 2.3-3 1-.8 2.1-1.4 3.4-1.8 1.3-.4 2.6-.6 3.9-.6.8 0 1.6.1 2.6.2s1.9.4 2.7.8c.8.4 1.6 1 2.1 1.7.6.7.9 1.6.9 2.7 0 1.2-.3 2.1-1 2.6s-1.5.8-2.5.8c-.4 0-.9 0-1.3-.1v-1c0-1.5-.3-2.7-1-3.7-.6-.9-1.7-1.4-3-1.4-.8 0-1.6.2-2.2.5-.6.3-1.1.7-1.6 1.3-.4.6-.7 1.2-1 2-.2.7-.3 1.6-.3 2.5 0 .9.1 1.7.3 2.5.2.8.5 1.7 1 2.6.5.9 1 1.9 1.8 2.9.7 1 1.7 2.2 2.8 3.4 1.1 1.3 2.4 2.7 3.9 4.2 1.5 1.6 3.2 3.3 5.1 5.3.9-1.5 1.4-3.1 1.4-4.5 0-2.4-1.1-4.7-3.3-7v-.4zM426 54.3c-2.9-2.9-5.3-5.4-7.2-7.5-2-2.1-3.6-4.1-4.9-5.8-.9 1-1.6 1.9-2 2.9-.4 1-.6 2.2-.6 3.5 0 1.4.2 2.7.6 3.8.4 1.1 1 2.1 1.7 2.9.7.8 1.6 1.4 2.6 1.8 1 .4 2.1.6 3.3.6 1.1 0 2.3-.2 3.4-.6 1.1-.3 2.1-.8 3.1-1.6zM471.2 30.6c-.2-1.2-.5-2.2-.9-3-.4-.8-.9-1.5-1.6-2.1-.6-.5-1.3-1-2.1-1.2-.8-.3-1.6-.4-2.5-.4-.9 0-1.7.1-2.5.4-.8.2-1.5.6-2.2 1.2-.6.5-1.1 1.2-1.5 2-.4.8-.5 1.8-.5 3 0 1 .2 1.9.6 2.6.4.7 1 1.4 1.7 1.9s1.6 1 2.5 1.4c.9.4 1.9.8 2.9 1.3 1.1.5 2.3 1 3.4 1.6 1.1.6 2.1 1.2 3 2 .9.8 1.6 1.8 2.2 2.9.6 1.1.8 2.6.8 4.2 0 1.5-.2 2.8-.5 3.9-.4 1.1-.9 2.1-1.5 2.9-.6.8-1.4 1.5-2.3 2.1-.9.6-1.8 1-2.8 1.4-1 .3-2 .6-3.1.8-1.1.1-2.2.2-3.2.2-1.3 0-2.5-.1-3.8-.3-1.3-.2-2.5-.4-3.7-.7-.2 0-.3-.1-.4-.3-.1-.1-.2-.3-.2-.4 0-.4-.1-1.1-.1-1.9 0-.9-.1-1.7-.1-2.6 0-.9-.1-1.7-.1-2.4v-1.3l1.4-.2c.1 1.3.4 2.4.9 3.3.5.9 1 1.7 1.8 2.3.7.6 1.5 1 2.4 1.3.9.3 1.9.4 3 .4.9 0 1.9-.1 2.7-.4.9-.2 1.7-.6 2.4-1.2.7-.5 1.2-1.2 1.7-2.1.4-.8.6-1.9.6-3.1 0-1-.2-1.8-.7-2.5-.4-.7-1-1.3-1.7-1.9-.7-.5-1.6-1-2.5-1.4-.9-.4-1.9-.9-2.9-1.3-1.1-.5-2.3-1.1-3.4-1.6-1.1-.6-2.1-1.3-3-2.1-.9-.8-1.6-1.8-2.2-3-.6-1.2-.8-2.6-.8-4.3 0-2.1.4-3.8 1.1-5.2.7-1.4 1.7-2.5 2.9-3.4 1.2-.8 2.5-1.5 4-1.8 1.5-.4 3-.5 4.6-.5 1 0 2.2.1 3.4.3 1.2.2 2.4.4 3.4.7.2 0 .3.1.4.3.1.1.2.3.2.4 0 .4.1 1.1.1 1.9 0 .8.1 1.6.1 2.4 0 .8.1 1.5.1 2.2v1.2l-1.5.1zM495.5 41.1c0-1.1-.2-1.9-.5-2.3-.3-.4-.8-.6-1.5-.6h-.6c-.2 0-.4 0-.7.1l-.2-1.5c1-.3 2-.6 2.8-.8.9-.2 1.6-.4 2.3-.6.7-.1 1.2-.3 1.6-.3.4-.1.7-.1.8-.1.6 0 .9.4.9 1.1v18.1c0 .7 0 1.4.1 2 .1.6.2 1.2.3 1.7v.2c0 .3-.2.5-.6.6-.2 0-.5.1-.8.1-.3 0-.6.1-1 .1-.3 0-.7.1-1 .1h-.9c-.2 0-.4-.1-.5-.2-.1-.1-.2-.3-.2-.6l-.4-1.8c-.9.4-1.8.7-2.6 1.1-.9.3-1.7.6-2.5.9-.8.2-1.5.4-2.2.6-.7.1-1.2.2-1.7.2-1.1 0-2-.2-2.7-.6-.8-.4-1.4-.9-1.9-1.6-.5-.7-.9-1.5-1.1-2.5-.2-1-.4-2-.4-3.2l.1-10.5c0-1.1-.1-1.9-.5-2.3-.3-.4-.8-.6-1.5-.6h-.6c-.2 0-.4 0-.7.1l-.2-1.5c1-.3 2-.6 2.8-.8.9-.2 1.6-.4 2.3-.6.7-.1 1.2-.3 1.6-.3.4-.1.7-.1.8-.1.6 0 .9.4.9 1.1l-.1 12.3v.9c0 1.1.1 2.1.2 3 .2.9.4 1.6.8 2.2.4.6.9 1 1.5 1.3.6.3 1.3.4 2.2.4.3 0 .6 0 1-.1s.8-.2 1.3-.3c.5-.1.9-.3 1.4-.5.5-.2.9-.4 1.4-.6V41.1zM522.2 38c.6.7 1 1.6 1.3 2.5.3.9.5 1.9.5 2.9 0 1.4-.2 2.6-.7 3.7-.5 1.1-1.2 2.1-2 2.9-.9.8-1.9 1.4-3.1 1.9-1.2.4-2.5.7-4 .7-1.2 0-2.2-.1-2.9-.4-.3.4-.6.8-.8 1.2-.3.4-.4.8-.4 1.2 0 .5.3.9.8 1.2.5.3 1.2.5 1.9.7.7.1 1.5.2 2.4.3.8 0 1.6.1 2.2.1 1.1 0 2.3.1 3.4.3 1.1.2 2.2.5 3.1.9.9.4 1.6 1.1 2.2 1.8.6.8.9 1.8.9 3s-.2 2.2-.7 3.2c-.5 1-1.1 1.9-1.9 2.7-.8.8-1.7 1.5-2.6 2.1-1 .6-2 1.1-3 1.6-1 .4-2.1.7-3 .9-1 .2-1.9.3-2.6.3-.9 0-1.8-.1-2.8-.4-1-.3-1.9-.7-2.8-1.2-.8-.5-1.5-1.2-2.1-2-.6-.8-.8-1.8-.8-2.9 0-.7.1-1.3.3-1.9.2-.6.5-1.2.8-1.8.3-.6.7-1.2 1.1-1.7.4-.6.9-1.2 1.4-1.7-.3-.1-.5-.3-.7-.6-.2-.3-.4-.5-.6-.8-.2-.3-.3-.6-.4-.9-.1-.3-.2-.6-.2-.9 0-.7.3-1.4.8-2.2.5-.8 1.4-1.9 2.6-3.1-1.3-.7-2.3-1.8-3-3.1-.7-1.3-1.1-2.8-1.1-4.4 0-1.3.2-2.6.7-3.7.5-1.1 1.2-2.1 2-2.8.9-.8 1.9-1.4 3.1-1.8 1.2-.4 2.5-.7 4-.7 1.1 0 2.2.2 3.1.5 1 .3 1.8.8 2.5 1.3 1.8-.5 3.3-.9 4.3-1.2 1-.3 1.7-.4 1.9-.4.5 0 .8.3.8 1 0 .4 0 .8-.1 1.2 0 .4-.1.9-.1 1.4l-5.7-.9zm-12.4 22.8c-.5.8-.9 1.4-1.1 2-.3.6-.4 1.2-.4 2 0 .9.3 1.6.8 2.3.5.6 1.1 1.1 1.9 1.5.8.4 1.6.7 2.5.8.9.2 1.7.2 2.5.2.6 0 1.4-.1 2.1-.2.8-.1 1.5-.4 2.2-.7.7-.3 1.3-.8 1.7-1.4.5-.6.7-1.3.7-2.2 0-.8-.2-1.4-.6-1.8-.4-.5-.9-.8-1.5-1-.6-.2-1.3-.4-2.2-.5-.8-.1-1.6-.1-2.4-.1h-1.4c-.5 0-1.1-.1-1.6-.1-.5-.1-1.1-.1-1.6-.2-.7-.3-1.1-.4-1.6-.6zm5.1-10.9c.7 0 1.4-.1 1.9-.4.5-.3 1-.7 1.3-1.2.3-.5.6-1.1.8-1.7.2-.7.3-1.4.3-2.1 0-.8-.1-1.7-.3-2.5-.2-.8-.5-1.6-.8-2.3-.4-.7-.9-1.2-1.5-1.6-.6-.4-1.3-.6-2.1-.6-.7 0-1.4.2-1.9.5s-1 .7-1.3 1.2c-.3.5-.6 1.1-.7 1.8-.2.7-.2 1.4-.2 2.1 0 .8.1 1.7.3 2.5.2.8.4 1.6.8 2.2.4.7.8 1.2 1.4 1.6.4.3 1.1.5 2 .5zM546.9 38c.6.7 1 1.6 1.3 2.5.3.9.5 1.9.5 2.9 0 1.4-.2 2.6-.7 3.7-.5 1.1-1.2 2.1-2 2.9-.9.8-1.9 1.4-3.1 1.9-1.2.4-2.5.7-4 .7-1.2 0-2.2-.1-2.9-.4-.3.4-.6.8-.8 1.2-.3.4-.4.8-.4 1.2 0 .5.3.9.8 1.2.5.3 1.1.5 1.9.7.7.1 1.5.2 2.4.3.8 0 1.6.1 2.2.1 1.2 0 2.3.1 3.4.3 1.1.2 2.2.5 3.1.9.9.4 1.6 1.1 2.2 1.8.6.8.8 1.8.8 3s-.2 2.2-.7 3.2c-.5 1-1.1 1.9-1.9 2.7-.8.8-1.7 1.5-2.6 2.1-1 .6-2 1.1-3 1.6-1 .4-2 .7-3 .9-1 .2-1.9.3-2.6.3-.9 0-1.8-.1-2.8-.4-1-.3-1.9-.7-2.8-1.2-.8-.5-1.5-1.2-2.1-2-.6-.8-.8-1.8-.8-2.9 0-.7.1-1.3.3-1.9.2-.6.5-1.2.8-1.8.3-.6.7-1.2 1.1-1.7.4-.6.9-1.2 1.4-1.7-.3-.1-.5-.3-.8-.6-.2-.3-.4-.5-.6-.8-.2-.3-.3-.6-.4-.9-.1-.3-.2-.6-.2-.9 0-.7.3-1.4.8-2.2.5-.8 1.4-1.9 2.6-3.1-1.3-.7-2.3-1.8-3-3.1-.7-1.3-1.1-2.8-1.1-4.4 0-1.3.2-2.6.7-3.7.5-1.1 1.2-2.1 2-2.8.9-.8 1.9-1.4 3.1-1.8 1.2-.4 2.5-.7 4-.7 1.1 0 2.2.2 3.1.5 1 .3 1.8.8 2.5 1.3 1.8-.5 3.3-.9 4.3-1.2 1-.3 1.7-.4 2-.4.5 0 .8.3.8 1 0 .4 0 .8-.1 1.2 0 .4-.1.9-.1 1.4l-5.6-.9zm-12.4 22.8c-.5.8-.9 1.4-1.1 2-.3.6-.4 1.2-.4 2 0 .9.2 1.6.7 2.3.5.6 1.1 1.1 1.9 1.5.8.4 1.6.7 2.5.8.9.2 1.7.2 2.5.2.6 0 1.4-.1 2.1-.2.8-.1 1.5-.4 2.2-.7.7-.3 1.2-.8 1.7-1.4.5-.6.7-1.3.7-2.2 0-.8-.2-1.4-.6-1.8-.4-.5-.9-.8-1.5-1-.6-.2-1.4-.4-2.2-.5-.8-.1-1.6-.1-2.4-.1h-1.4c-.5 0-1.1-.1-1.6-.1-.6-.1-1.1-.1-1.6-.2-.6-.3-1.1-.4-1.5-.6zm5.1-10.9c.7 0 1.4-.1 1.9-.4.5-.3 1-.7 1.3-1.2.3-.5.6-1.1.8-1.7.2-.7.3-1.4.3-2.1 0-.8-.1-1.7-.3-2.5-.2-.8-.5-1.6-.8-2.3-.4-.7-.9-1.2-1.5-1.6-.6-.4-1.3-.6-2.1-.6-.7 0-1.4.2-1.9.5s-1 .7-1.3 1.2c-.3.5-.6 1.1-.7 1.8-.2.7-.2 1.4-.2 2.1 0 .8.1 1.7.3 2.5.2.8.4 1.6.8 2.2.4.7.8 1.2 1.4 1.6.4.3 1.1.5 2 .5zM568 42.6c-.2-.8-.4-1.5-.6-2.1-.2-.6-.5-1.2-.8-1.6-.3-.5-.7-.8-1.3-1-.5-.2-1.2-.4-1.9-.4-.5 0-1 .1-1.5.2s-.9.3-1.3.5-.7.5-1 .9c-.2.4-.4.9-.4 1.4 0 .6.1 1.1.4 1.5.3.4.7.8 1.1 1.1.5.3 1 .6 1.6.9.6.3 1.3.6 1.9.8.8.3 1.6.7 2.3 1.1.8.4 1.5.9 2.1 1.4.6.6 1.1 1.2 1.5 2 .4.8.6 1.6.6 2.7 0 1.3-.3 2.5-.9 3.4-.6 1-1.4 1.7-2.4 2.3-1 .6-2 1-3.2 1.3-1.2.3-2.3.4-3.4.4-.7 0-1.4-.1-2.2-.2-.8-.2-1.6-.4-2.3-.8-.7-.4-1.3-.8-1.8-1.4-.5-.6-.7-1.3-.7-2.2 0-1 .3-1.8.9-2.3.6-.5 1.4-.7 2.4-.7h.5c.2 0 .3 0 .5.1v.5c0 1.4.3 2.5.9 3.2.6.8 1.6 1.1 3 1.1.5 0 1-.1 1.5-.2s.9-.3 1.2-.6c.3-.3.6-.6.8-1 .2-.4.3-.8.3-1.4 0-.7-.1-1.2-.4-1.7-.3-.5-.7-.9-1.2-1.2-.5-.3-1-.7-1.7-.9-.6-.3-1.3-.6-1.9-.9-.8-.3-1.5-.7-2.3-1-.8-.4-1.5-.8-2.1-1.4-.6-.5-1.1-1.2-1.5-2-.4-.8-.6-1.7-.6-2.8 0-1.3.3-2.4.9-3.3.6-.9 1.4-1.6 2.3-2.2.9-.6 1.9-1 3-1.2 1.1-.2 2.1-.4 3.1-.4.9 0 1.8.1 2.7.2.9.1 1.7.3 2.6.6.2 0 .2.1.2.3 0 .4.1.9.1 1.5s0 1.3.1 1.9v3.2l-1.1.4zM595.1 54.7v1c0 .2.1.4.2.6.1.1.3.2.5.3.2 0 .6.1 1 .1h2.4c1.3 0 2.4 0 3.2-.1.8-.1 1.5-.3 2.1-.7.6-.4 1.1-1 1.5-1.8.4-.8.9-1.9 1.5-3.3l1.2.3c0 .1 0 .5-.1 1s-.2 1.2-.3 1.9c-.1.7-.3 1.4-.4 2.2-.1.8-.3 1.4-.4 1.9-.2.6-.6.9-1.2.9-1.2 0-2.7 0-4.6-.1H591c-.2 0-.4-.1-.5-.2-.1-.2-.1-.3-.1-.5V31.4c0-.5 0-.9-.1-1.2-.1-.3-.2-.6-.4-.8-.2-.2-.4-.3-.6-.4-.2-.1-.5-.1-.8-.1-.4 0-.7 0-1.1.1l-.1-1.5c.9-.2 1.7-.3 2.5-.5.8-.1 1.5-.2 2.1-.3.6-.1 1.1-.1 1.5-.2.4 0 .7-.1.8-.1.5 0 .8.3.8.9v27.4zM617 54.7v1c0 .2.1.4.2.6.1.1.3.2.5.3.2 0 .6.1 1 .1h2.4c1.3 0 2.4 0 3.2-.1.8-.1 1.5-.3 2.1-.7.6-.4 1.1-1 1.5-1.8.4-.8.9-1.9 1.5-3.3l1.2.3c0 .1 0 .5-.1 1s-.2 1.2-.3 1.9c-.1.7-.3 1.4-.4 2.2-.1.8-.3 1.4-.4 1.9-.2.6-.6.9-1.2.9-1.2 0-2.7 0-4.6-.1h-10.7c-.2 0-.4-.1-.5-.2-.1-.2-.1-.3-.1-.5V31.4c0-.5 0-.9-.1-1.2-.1-.3-.2-.6-.4-.8-.2-.2-.4-.3-.6-.4-.2-.1-.5-.1-.8-.1-.4 0-.7 0-1.1.1l-.1-1.5c.9-.2 1.7-.3 2.5-.5.8-.1 1.5-.2 2.1-.3.6-.1 1.1-.1 1.5-.2.4 0 .7-.1.8-.1.5 0 .8.3.8.9v27.4zM657.2 56.9c-.8.5-1.8 1-2.8 1.3-1 .4-2 .7-3 .9-1 .2-1.9.4-2.7.5-.8.1-1.5.2-2 .2-2.2 0-4.3-.4-6.2-1.3-1.9-.8-3.4-2-4.8-3.5-1.3-1.5-2.4-3.3-3.1-5.3-.7-2.1-1.1-4.3-1.1-6.8 0-2.6.4-5 1.2-7 .8-2 2-3.8 3.4-5.2 1.5-1.4 3.2-2.5 5.2-3.2 2-.7 4.2-1.1 6.5-1.1 1.3 0 2.6.1 3.8.3 1.2.2 2.4.4 3.5.7.1 0 .3.1.4.2.1.1.1.2.2.4 0 .3 0 .6.1 1 0 .4 0 .8.1 1.3 0 .5 0 .9.1 1.4 0 .5 0 .9.1 1.3v1.6l-1.2.1c-.1-1.1-.4-2.1-.9-2.9-.5-.8-1.1-1.4-1.8-1.9s-1.5-.8-2.4-1.1c-.9-.2-1.8-.3-2.7-.3-1.8 0-3.3.3-4.6 1-1.3.7-2.4 1.6-3.3 2.7-.9 1.2-1.5 2.5-2 4.1-.4 1.6-.6 3.3-.6 5.2 0 2.2.3 4.2.8 6.1.5 1.9 1.3 3.5 2.4 4.9 1.1 1.4 2.4 2.5 4 3.2 1.6.8 3.4 1.2 5.5 1.2 1.3 0 2.5-.2 3.7-.5 1.2-.3 2.4-.7 3.6-1.3l.6 1.8z"/><g><path class="st0" d="M55.4 68.4c1.1.5 2.4.7 3.8.7 1.3 0 2.6-.2 3.9-.6 1.3-.4 2.5-1 3.6-1.8-3.3-3.1-6.1-5.9-8.3-8.2-2.3-2.3-4.1-4.5-5.6-6.3-1.1 1-1.8 2.1-2.3 3.2-.5 1.1-.7 2.4-.7 3.8 0 1.5.2 2.9.7 4.1.5 1.2 1.1 2.3 1.9 3.1.8.8 1.8 1.5 3 2z"/><path class="st0" d="M102.2 99.9c.8-1.5 1.1-3.3 1.1-5.3 0-1.7-.4-3.2-1.2-4.4-.8-1.2-1.9-2.3-3.2-3.2-1.3-.9-2.8-1.8-4.5-2.5-1.7-.7-3.5-1.5-5.3-2.3-2.1-.9-4.1-1.8-6.2-2.8-1.5-.7-2.8-1.5-4.1-2.5-.2-.1-6.7-5-6.9-5.2-.5-.5-1.1-1-1.6-1.5s-1.1-1-1.6-1.4c-.8.6-1.7 1.1-2.6 1.6-1 .5-2 .9-3.1 1.2-1.1.3-2.2.6-3.3.8-1.1.2-2.3.3-3.4.3-1.7 0-3.3-.2-4.9-.6-1.5-.4-2.9-1.1-4.1-2-1.2-.9-2.1-2-2.8-3.4-.5-.9-.8-2-.9-3.1-.5 1.4-1 2.7-1.6 4-1.4 2.8-3.4 5.2-6 7.3-2.6 2.1-5.9 4.1-10 5.9l-.3-.8c-.1 2.4-.3 4.6-.6 6.6-.5 3.6-1.5 6.7-2.9 9.5s-3.4 5.2-6 7.3c-.9.8-2 1.5-3.2 2.3h60v-.8c-.1-1.5-.1-3-.2-4.5s-.1-2.9-.1-4.2V94l2.6-.3c.2 2.2.8 4.1 1.6 5.7.8 1.6 1.9 2.9 3.2 4 1.2 1 2.7 1.8 4.3 2.3h11.1c1.4-.4 2.6-1 3.8-1.9 1.1-1.3 2.1-2.5 2.9-3.9zM45.6 45.5c0 3.9-.2 7.4-.5 10.6l.6-.9c.7-.9 1.5-1.7 2.5-2.5s2-1.6 3.1-2.4c-1.2-1.7-2-3.3-2.5-4.8-.5-1.4-.8-2.9-.8-4.3 0-1.9.3-3.5 1-4.9.7-1.4 1.6-2.5 2.7-3.3 1.1-.9 2.4-1.5 3.9-1.9 1.5-.4 3-.6 4.5-.6.9 0 1.9.1 3 .2 1.1.2 2.1.5 3.1.9s1.8 1 2.5 1.8 1 1.8 1 3c0 1.3-.4 2.3-1.1 2.8-.8.6-1.7.8-2.9.8-.5 0-1 0-1.5-.1v-1.1c0-1.7-.4-3-1.1-4-.7-1-1.9-1.5-3.5-1.5-1 0-1.8.2-2.5.5s-1.3.8-1.8 1.4c-.5.6-.9 1.3-1.1 2.1-.3.8-.4 1.7-.4 2.7 0 .9.1 1.9.3 2.8.2.9.6 1.8 1.1 2.8.5 1 1.2 2 2.1 3.2.9 1.1 1.9 2.4 3.2 3.7 1.3 1.4 2.7 2.9 4.4 4.6 1.7 1.7 3.7 3.6 5.9 5.8.5-.8.9-1.6 1.2-2.4.1-.9.2-1.8.4-2.6 0-2.5-1.3-5-3.8-7.5v-.5l5-2.9c1.1 1.2 2 2.4 2.5 3.8.9-1 1.8-1.8 2.9-2.6 2.1-1.5 4.6-2.5 7.3-3.1 2.7-.6 5.5-.9 8.4-.9 1.9 0 4 .2 6.2.5 1.5.2 3 .5 4.4.8V0H45.6v45.5z"/><path class="st0" d="M101.8 51.6c-1.1-1-2.4-1.7-3.9-2.1-1.4-.5-3-.7-4.6-.7-1.6 0-3.2.2-4.6.6-1.5.4-2.8 1.1-3.9 2-1.1.9-2 2.1-2.7 3.5-.7 1.4-1 3.1-1 5.1 0 1.8.4 3.3 1.2 4.5.8 1.3 1.8 2.4 3.2 3.3 1.3.9 2.8 1.8 4.6 2.5 1.7.7 3.5 1.5 5.4 2.2 2.1.8 4.1 1.8 6.2 2.7 1.4.6 2.6 1.4 3.8 2.2V56.7c-.2-.5-.4-1.1-.7-1.5-.9-1.4-1.9-2.6-3-3.6zM11.3 100.1c1.6-2 2.7-4.2 3.5-6.6.7-2.4 1.1-5.2 1.3-8.1.1-3 .2-6.3.2-10V32.9c0-1-.1-1.9-.3-2.5-.2-.6-.5-1.1-.8-1.5-.4-.4-.8-.6-1.3-.8-.5-.1-1.1-.2-1.7-.2-.8 0-1.5.1-2.3.2l-.3-3c1.9-.4 3.6-.7 5.3-.9 1.7-.3 3.1-.5 4.4-.6 1.3-.1 2.4-.3 3.2-.3.9-.1 1.4-.1 1.7-.1 1.1 0 1.7.6 1.7 1.8v51.5c2.3-1.4 4.1-3 5.4-4.6 1.6-2 2.7-4.2 3.5-6.6.7-2.4 1.1-5.2 1.3-8.1.1-3 .2-6.3.2-10V4.4c0-1-.1-1.9-.3-2.5-.2-.6-.5-1.1-.8-1.5-.2-.2-.3-.3-.5-.4H0v105.3h4.9c2.7-1.6 4.9-3.3 6.4-5.2z"/></g><g><path class="st0" d="M129.8 91.2h142.8v.8H129.8zM519.5 90.8h142.8v.8H519.5z"/></g><g><path class="st0" d="M281.3 92.1l-1.9 4.3c0 .1-.1.1-.2.1h-1.1c-.1 0-.2 0-.2-.1v-.1l5.6-11.3-.3-.6v-.1c0-.1.1-.2.2-.2s.3 0 .5-.1h1.2c.2 0 .3.1.4.2l5.4 11.9v.1c0 .1-.1.2-.2.2s-.3 0-.5.1h-1.3c-.1 0-.2-.1-.3-.2l-2-4.4-5.3.2zm.4-.9h4.6l-2.3-5.1-2.3 5.1zM296.2 85.3h-1.3c-.3 0-.6.1-.9.2-.2.1-.4.3-.6.6-.1.3-.3.7-.4 1.2l-.6-.1V87v-.4-.6-.6-.5-.4c0-.1.1-.2.2-.2h12c.1 0 .2.1.2.2v2.7l-.6.1c-.1-.5-.3-.9-.4-1.2-.1-.3-.3-.5-.5-.6-.2-.1-.5-.2-.8-.2H299.6v10.9c0 .2-.1.3-.3.3-.1 0-.3 0-.5.1h-1.2c-.2 0-.3-.1-.3-.3v-11h-1.1zM311.9 85.3h-1.3c-.3 0-.6.1-.9.2-.2.1-.4.3-.6.6-.1.3-.3.7-.4 1.2l-.6-.1V87v-.4-.6-.6-.5-.4c0-.1.1-.2.2-.2h12c.1 0 .2.1.2.2v2.7l-.6.1c-.1-.5-.3-.9-.4-1.2-.1-.3-.3-.5-.5-.6-.2-.1-.5-.2-.8-.2H315.3v10.9c0 .2-.1.3-.3.3-.1 0-.3 0-.5.1h-1.2c-.2 0-.3-.1-.3-.3v-11h-1.1zM331.8 84.1c1 0 2 .1 2.8.4.8.3 1.6.7 2.2 1.2.6.5 1.1 1.2 1.4 1.9.3.8.5 1.6.5 2.6s-.2 2-.5 2.8c-.4.8-.9 1.5-1.5 2-.7.5-1.5 1-2.4 1.3-.9.3-2 .4-3.1.4-1 0-2-.1-2.8-.4-.8-.3-1.6-.7-2.2-1.2-.6-.5-1.1-1.2-1.4-1.9-.3-.8-.5-1.6-.5-2.6s.2-2 .5-2.8c.4-.8.9-1.5 1.5-2 .7-.5 1.5-.9 2.4-1.2.9-.3 1.9-.5 3.1-.5zm-.6.9c-.8 0-1.5.1-2 .4-.6.3-1 .6-1.4 1.1-.4.5-.6 1-.8 1.6s-.3 1.2-.3 1.9.1 1.4.3 2.1c.2.7.5 1.3.9 1.9.4.6.9 1 1.5 1.3.6.3 1.4.5 2.3.5.8 0 1.5-.1 2-.4.6-.3 1-.7 1.4-1.1.4-.5.6-1 .8-1.6.2-.6.3-1.2.3-1.9s-.1-1.4-.3-2.1c-.2-.7-.5-1.3-.9-1.8s-.9-1-1.5-1.3c-.7-.4-1.4-.6-2.3-.6zM347 90.2c.6 0 1.2-.1 1.7-.2s.9-.3 1.2-.5c.3-.2.6-.5.7-.9.2-.3.3-.8.3-1.3 0-.4-.1-.8-.3-1.1-.2-.3-.4-.6-.7-.7-.3-.2-.7-.3-1.1-.4-.4-.1-.9-.1-1.4-.1-.3 0-.6 0-.7.1-.2 0-.2.2-.2.4v10.7c0 .2-.1.3-.3.3-.1 0-.3 0-.5.1h-1.2c-.2 0-.3-.1-.3-.3V85.9c0-.3-.1-.6-.3-.7-.2-.1-.4-.2-.7-.2h-.5l-.1-.6c.8-.1 1.7-.2 2.5-.3.9-.1 1.8-.1 2.7-.1h1.2c.4 0 .9.1 1.3.2l1.2.3c.4.1.7.3 1 .5.3.2.5.5.7.8.2.3.2.7.2 1.1 0 .4-.1.8-.2 1.2-.2.3-.4.6-.7.9-.3.3-.6.5-1 .7-.4.2-.8.3-1.2.5v.1c.2 0 .4.1.7.2.2.1.5.2.7.3.2.1.4.3.6.5.2.2.3.5.5.8l.9 2.4c.1.3.2.6.3.8.1.2.2.3.3.4.1.1.2.2.4.2h.5v.5c-.2 0-.3.1-.5.1s-.4 0-.5.1h-.8c-.3 0-.5 0-.7-.1-.2-.1-.4-.1-.5-.3-.2-.1-.3-.3-.4-.5-.1-.2-.2-.5-.3-.8l-.9-2.5c-.1-.4-.3-.6-.4-.9-.2-.2-.4-.4-.6-.5-.3-.1-.6-.2-.9-.2-.4 0-.8-.1-1.3-.1l-.4-.5zM360.7 84.1c.1 0 .2 0 .2.1s.1.1.2.2l8.4 9.5-.3-9.3c0-.1.1-.1.2-.1s.3 0 .6-.1h.7c.1 0 .2.1.2.2l-.3 10.1v1.9c0 .1-.1.1-.2.1h-1.3l-.1-.1-8.5-9.5.3 9.5c0 .1-.1.1-.2.1s-.3 0-.6.1h-.7c-.1 0-.2-.1-.2-.2l.3-10.8-1-1.2v-.1c0-.1.1-.2.2-.2s.3 0 .5-.1h1.2c.3-.1.4-.1.4-.1zM379.2 94.8v.4c0 .1 0 .2.1.2.1.1.1.1.3.1h3.7c.4 0 .7-.1 1-.2.3-.1.5-.3.7-.6.2-.3.5-.7.7-1.2l.6.1s0 .2-.1.4c0 .2-.1.4-.1.7-.1.3-.1.5-.2.8-.1.3-.1.5-.2.7-.1.2-.3.4-.6.4H377.2c-.1 0-.2 0-.2-.1s-.1-.1-.1-.2v-9.9c0-.4-.1-.6-.3-.7-.2-.1-.4-.2-.7-.2h-.5l-.1-.6c.2 0 .4-.1.7-.1.3 0 .7-.1 1-.1.4 0 .7-.1 1-.1H385.1c.1 0 .2.1.2.2v2.6l-.6.1c-.1-.5-.3-.9-.4-1.1-.1-.3-.3-.5-.5-.6-.2-.1-.5-.2-.8-.2h-3.7c-.1 0-.1 0-.2.1l-.1.1v4.4c.7 0 1.3-.1 1.8-.1.6 0 1 0 1.4-.1h1.5c.2 0 .3.1.3.3v.4c0 .1 0 .3-.1.4l-5-.1v3.8zM391.9 84.2c.1 0 .2 0 .3.1.1.1.1.2.2.3l3.5 5.3 2.9-5.1c0-.1.1-.1.2-.2.1 0 .1-.1.3-.1.1 0 .2 0 .4-.1H400.6c.1 0 .2 0 .2.1v.2l-4.4 6.2v5.3c0 .2-.1.3-.3.3-.1 0-.3 0-.5.1h-1.2c-.2 0-.3-.1-.3-.3V91l-3.4-5.1c-.2-.3-.4-.5-.6-.6-.2-.1-.4-.2-.7-.2h-.5l-.1-.6c.4-.1.7-.1 1-.2.3 0 .6-.1.9-.1.3 0 .5-.1.7-.1.4.1.5.1.5.1zM411.9 87.3c-.1-.4-.2-.7-.4-1-.2-.3-.4-.5-.7-.7-.3-.2-.6-.3-.9-.4-.3-.1-.7-.1-1.1-.1-.4 0-.7 0-1.1.1-.3.1-.7.2-.9.4-.3.2-.5.4-.6.7-.2.3-.2.6-.2 1 0 .3.1.6.3.9.2.2.4.4.7.6.3.2.7.3 1.1.5.4.1.8.3 1.3.4.5.2 1 .3 1.5.5s.9.4 1.3.7c.4.3.7.6.9 1 .2.4.4.8.4 1.4 0 .5-.1.9-.2 1.3-.2.4-.4.7-.7 1s-.6.5-1 .7c-.4.2-.8.3-1.2.4-.4.1-.9.2-1.3.2-.5 0-.9.1-1.4.1-.5 0-1.1 0-1.6-.1s-1.1-.1-1.6-.2c-.1 0-.1 0-.2-.1l-.1-.1v-.6-.9-.8-.4l.6-.1c.1.4.2.8.4 1.1.2.3.4.6.8.8.3.2.7.3 1 .4.4.1.8.1 1.3.1.4 0 .8 0 1.2-.1.4-.1.7-.2 1-.4.3-.2.5-.4.7-.7.2-.3.3-.6.3-1 0-.3-.1-.6-.3-.8-.2-.2-.4-.4-.7-.6-.3-.2-.7-.3-1.1-.5-.4-.1-.8-.3-1.2-.4-.5-.2-1-.3-1.5-.5s-.9-.4-1.3-.7c-.4-.3-.7-.6-.9-1-.2-.4-.4-.9-.4-1.4 0-.7.2-1.2.5-1.7s.7-.8 1.2-1.1c.5-.3 1.1-.5 1.7-.6.6-.1 1.3-.2 2-.2.4 0 .9 0 1.5.1.5.1 1 .1 1.5.2.1 0 .1 0 .2.1l.1.1V87.4l-.9-.1zM428.7 92.1l-1.9 4.3c0 .1-.1.1-.2.1h-1.1c-.1 0-.2 0-.2-.1v-.1l5.6-11.3-.3-.6v-.1c0-.1.1-.2.2-.2s.3 0 .5-.1h1.2c.2 0 .3.1.4.2l5.4 11.9v.1c0 .1-.1.2-.2.2s-.3 0-.5.1h-1.3c-.1 0-.2-.1-.3-.2l-2-4.4-5.3.2zm.4-.9h4.6l-2.3-5.1-2.3 5.1zM443.6 85.3h-1.3c-.3 0-.6.1-.9.2-.2.1-.4.3-.6.6-.1.3-.3.7-.4 1.2l-.6-.1V87v-.4-.6-.6-.5-.4c0-.1.1-.2.2-.2h12c.1 0 .2.1.2.2v2.7l-.6.1c-.1-.5-.3-.9-.4-1.2-.1-.3-.3-.5-.5-.6-.2-.1-.5-.2-.8-.2H447v10.9c0 .2-.1.3-.3.3-.1 0-.3 0-.5.1H445c-.2 0-.3-.1-.3-.3v-11h-1.1zM467.9 94.8v.4c0 .1 0 .2.1.2.1.1.1.1.3.1h3.3c.4 0 .8-.1 1-.3.3-.1.5-.4.8-.7.2-.3.5-.7.7-1.3l.6.1s0 .2-.1.4c0 .2-.1.4-.2.7-.1.3-.1.5-.2.8-.1.3-.1.5-.2.7-.1.2-.3.4-.6.4h-7.6c-.1 0-.2 0-.2-.1s-.1-.1-.1-.2v-9.9c0-.2 0-.3-.1-.5 0-.1-.1-.2-.2-.3-.1-.1-.2-.1-.3-.1h-.9l-.1-.6c.4-.1.9-.1 1.2-.2.4 0 .7-.1 1-.1.3 0 .6 0 .8-.1h.4c.3 0 .4.1.4.3v10.3zM480.9 92.1l-1.9 4.3c0 .1-.1.1-.2.1h-1.1c-.1 0-.2 0-.2-.1v-.1l5.6-11.3-.3-.6v-.1c0-.1.1-.2.2-.2s.3 0 .5-.1h1.2c.2 0 .3.1.4.2l5.4 11.9v.1c0 .1-.1.2-.2.2s-.3 0-.5.1h-1.3c-.1 0-.2-.1-.3-.2l-2-4.4-5.3.2zm.4-.9h4.6l-2.3-5.1-2.3 5.1zM509.4 84.8c.1-.2.2-.3.4-.3.1 0 .2-.1.4-.1H511.1c.1 0 .2 0 .2.1v.2l-5 11.7c0 .1-.1.1-.1.1H504.7h-.1l-.1-.1-2.9-7.6-3.1 7.5c0 .1-.1.1-.1.1H496.9h-.1l-.1-.1-4-10.5c-.1-.3-.3-.5-.5-.7-.2-.1-.4-.2-.7-.2h-.5l-.1-.6c.4-.1.7-.1 1.1-.2.4 0 .7-.1 1-.1.3 0 .6-.1.8-.1h.4c.1 0 .2 0 .3.1.1.1.1.2.2.3l3.6 9.5 2.6-6.8-1-2.6v-.2c0-.1.1-.1.2-.1.3 0 .6-.1.9-.1h.8c.1 0 .2 0 .2.1 0 0 .1.1.1.2l3.7 9.8 3.6-9.3z"/></g></svg>